/* XPM */
static char * left_xpm[] = {
"39 21 3 1",
" 	c None",
".	c #000000",
"+	c #FFFFFF",
".......................................",
"..................+.......+............",
".................++......++............",
"................+++.....+++............",
"...............++++....++++............",
"..............+++++...+++++............",
".............++++++..++++++............",
"............+++++++.+++++++............",
"...........++++++++++++++++............",
"..........+++++++++++++++++............",
".........++++++++++++++++++............",
"..........+++++++++++++++++............",
"...........++++++++++++++++............",
"............+++++++.+++++++............",
".............++++++..++++++............",
"..............+++++...+++++............",
"...............++++....++++............",
"................+++.....+++............",
".................++......++............",
"..................+.......+............",
"......................................."};
