/* XPM */
static char * K3_300_xpm[] = {
"64 48 13 1",
" 	c #FF0056",
".	c #FC0062",
"+	c #F7116E",
"@	c #F83D89",
"#	c #F970AA",
"$	c #FC93C1",
"%	c #FDADD3",
"&	c #F9C5E0",
"*	c #FFF0FB",
"=	c #EFFEFC",
"-	c #FBFCFF",
";	c #FFFFF6",
">	c #FDFFFC",
">>>>>>>>>>>>>>>>>>>>>>>>>>>>>>>>>>>>>>>>>>>>>>>>>>>>>>>>>>>>>>>>",
">>>>>>>>>>>>>>>>>>>>>>>>>>>>>>>>>>>>>>>>>>>>>>>>>>>>>>>>>>>>>>>>",
">>>>>>>>>>>>>>>>>>>>>>>>>>>>>>>>>>>>>>>>>>>>>>>>>>>>>>>>>>>>>>>>",
">>>>>>>>>>>>>>>>>>>>>>>>>>>>>>>>>>>>>>>>>>>>>>>>>>>>>>>>>>>>>>>>",
">>>>>>>>>>>>>>>>>>>>>>>>>>>>>>>>>>>>>>>>>>>>>>>>>>>>>>>>>>>>>>>>",
">>>>>>>>>>>>>>>>>>>>>>>>>>>>>>>>>>>>>>>>>>>>>>>>>>>>>>>>>>>>>>>>",
">>>>>>>>>>>>>>>>>>>>>>>>>>>>>>>>>>>>>>>>>>>>>>>>>>>>>>>>>>>>>>>>",
">>>>>>>>>>>>>>>>>>>>>>>>>>>>>>>>>>>>>>>>>>>>>>>>>>>>>>>>>>>>>>>>",
">>>>>>>>>>>>>>>>>>>>>>>>>>>>>>>>>>>>>>>>>>>>>>>>>>>>>>>>>>>>>>>>",
">>>>>>>>>>>>>>>>>>>>>>>>>>>>>>>>>>>>>>>>>>>>>>>>>>>>>>>>>>>>>>>>",
"-=**>>-==-=--->*=---=>*--=-=**=*=-**-*>***==---*----=*>===->>>>>",
"=-**>*=--*@+..  . ++%*&++.......+$@@+. ++  .  ..@$***>****=>>>>>",
"=>>>>;=--#+&--->=*%%.#.%%**=****@.  &*>--*--*****+..%>->>==>>>>>",
"---->=*$$.+*--===*>>..&--===**-*+.++&>*---------*=**.&-**-=>>>>>",
"->>>>=$++..>>>->-*--.&===*-=***+.+++**=--**-=====-==* %---->>>>>",
"->>>>=$++..>>>->-*--.&===*-=***+.+++**=--**-=====-==* %---->>>>>",
"*->>-=@  + -==**>->>%*-**=*===@.....#%%&&%&%&&>=>=**=*+**=*>>>>>",
">->>--.... ***==>-==--===*=-$$.+++..+....+ .++*-*=**=*.$$-=>>>>>",
"=*>>-*+..++*>>=;---->=>--==*++...+++.+ ...++%%-==-===>&##-*>>>>>",
">>--->.++..-==*>>*;;=*>===--**.+..  >>;;;=;=>>-=-=---**..=->>>>>",
"--==*>...+ *==*=*>==$*=----***#+.+..*>;>>->====-=---*==..*>>>>>>",
"--==*>...+ *==*=*>==$*=----***#+.+..*>;>>->====-=---*==..*>>>>>>",
">-==-> ..++-==*>--==.&-==>*=;;*+. ++&==>>***-->>-*----*..-->>>>>",
"*->>=-...+.+......   +--->;-;;-*..+++....+..@@*=>>--==$++=*>>>>>",
"-*>>>*+..+++..+..+++..@**-=-;;*=#... +...+. ++*=>>==->.##>->>>>>",
">>>>-*+  .+.++.+..++...$$*=*==*=*...%*-==*****-;**==-$ &&=->>>>>",
">>>>--$++.+......+.....++**=--;=-*..=*>**--===->=*--&+#===*>>>>>",
">>>>--$++.+......+.....++**=--;=-*..=*>**--===->=*--&+#===*>>>>>",
"*>>>>==&&##$##$#%%..+++..@----=*-=$$**=;;==>>>>->-&&.+*==*=->>>>",
">---->---=--====-*%%.++...@$%%$%%$###$%%%$%%%%%$#...@&=***;>>>>>",
"->>>>>>>>-*---->--**@+.....++++.+.  ..+.......+.. @@&-=>>>>>>>>>",
">>----->>>->--->*-**&@........+.....+............+&&=-->>>>>>>>>",
"-->>>>>>>>>>>>>>>-;;*$+  ...++...... .....++++.+@&**>**===>>>>>>",
"-->>>>>>>>>>>>>>>-;;*$+  ...++...... .....++++.+@&**>**===>>>>>>",
">>>>>>>>>-->>>->=====*#++.+.......++....... ++@%*===>->==>->>>>>",
">>>>>>>>>>>--->=*>--;==***-=----->===>---===----=>-->==**-*->>>>",
">>>>>>>>>->>>>>>>>>>*-====--**=>-->>=----**--->-->**;-=**>->>>>>",
">>>>>>>>>>>>-->>----=>*====>;;->**>>;=>===>>--=>*=;;>**--==->>>>",
">>>>>>>>>-->>>>>>->>->>>>>>->>>>>>>>>>>>>>>>>>>>>>>>>>->>>>>>>>>",
">>>>>>>>>-->>>>>>->>->>>>>>->>>>>>>>>>>>>>>>>>>>>>>>>>->>>>>>>>>",
">>>>>>>-->>--->>>>>>>>---->>>>>>>>-->>>>>>>>>>>>>>>>>>>>>->>>>>>",
">>>>>>>>>>>>-->>*>>>>>>>>>>--->>->>>>>>>>->>>>>>>>>>>>>>>>>>>>>>",
">>>>>>>>>>>>>>->>>--->>>>-->>>->>>>>>>>>>>>>>>>>>>>>>>>>>>>>>>>>",
">>>>>>>>>>->>>>>>>>>>>>>>>>>>>>>>>>>>>>>>>>>>>>>>>>>>>>>>>>>>>>>",
">>>>>>>>>>>>>>>>>>>>>>>>>>>>>>>>>>>>>>>>>>>>>>>>>>>>>>>>>>>>>>>>",
">>>>>>>>>>>>>>>>>>>>>>>>>>>>>>>>>>>>>>>>>>>>>>>>>>>>>>>>>>>>>>>>",
">>>>>>>>>>>>>>>>>>>>>>>>>>>>>>>>>>>>>>>>>>>>>>>>>>>>>>>>>>>>>>>>",
">>>>>>>>>>>>>>>>>>>>>>>>>>>>>>>>>>>>>>>>>>>>>>>>>>>>>>>>>>>>>>>>"};
