/* XPM */
static char * Barcelona tv_xpm[] = {
"64 48 13 1",
" 	c #D82517",
".	c #D52B1E",
"+	c #D7372D",
"@	c #DA4B45",
"#	c #E16860",
"$	c #E27873",
"%	c #EA918B",
"&	c #F0BAB7",
"*	c #F6D4CD",
"=	c #FBEDEC",
"-	c #FEFDF4",
";	c #FFFBFC",
">	c #FDFFFC",
">>>>>>>>>>>>>>>>>>>>>>>>>>>>>>>>>>>>>>>>>>>>>>>>>>>>>>>>>>>>>>>>",
">>>>>>>>>>>>>>>>>>>>>>>>>>>>>>>>>>>>>>>>>>>>>>>>>>>>>>>>>>>>>>>>",
">>>>>>>>>>>>>>>;;;;;;;;;;;;;;;;;;;;;;;;;;;;;;;>>>>>>>>>>>>>>>>>>",
">>>>>>>>>>>>>>>;;;;;;;;;;;;;;;;;;;;;;;;;;;;;;;;;;;;>>>>>>>>>>>>>",
">>>>>>>>>>>>>;-%$##$######################$###$&>>;>>>>>>>>>>>>>",
">>>>>>>>>>>;>;>$ .. ...................... ... %>>>>>>>>>>>>>>>>",
">>>>>>>>>>>;>;>$. . .................... ... . %;>;>>>>>>>>>>>>>",
">>>>>>>>>>>>>;>$....... ............ ..........$;>>>>>>>>>>>>>>>",
">>>>>>>>>>>>>;>$...............................%>>>>>>>>>>>>>>>>",
">>>>>>>>>>>>>;>$.........  .... .  +.......... %;>>>>>>>>>>>>>>>",
">>>>>>>>>>>>>;>$........#$#$##$#$#@+.......... %>>>>>>>>>>>>>>>>",
">>>>>>>>>>>>>;>$........&=-------==*&@........ %;>>>>>>>>>>>>>>>",
">>>>>>>>>>>>>;>$....... &>;>>>=;>->;=*@.+..... %>>>>>>>>>>>>>>>>",
">>>>>>>>>>>>>;>$........&;;;;>->>>->>-&. ..... %;>>>>>>>>>>>>>>>",
">>>>>>>>>>>>>>>$........&>;>;=&**>;;>;=@  .... %>>>>>>>>>>>>>>>>",
">>>>>>>>>>>>>;>$........&;;->&..+&;>;-=#. +... %>>>>>>>>>>>>>>>>",
">>>>>>>>>>>>>>>$........*;;;>*.. #>;;-=@. .... %>>>>>>>>>>>>>>>>",
">>>>>>>>>>>>>;>$...... .&;;;>&  +%;>;-&+ ..... %;>>>>>>>>>>>>>>>",
">>>>>>>>>>>>>>>$........&>;>>=&&*->;=*@....... %>>>>>>>>>>>>>>>>",
">>>>>>>>>>>>>;>$........&;;>=-=-;=>=%+ ....... %>>>>>>>>>>>>>>>>",
">>>>>>>>>>>>>>>$........&>;;;>=>;>;==&@. ......%>>>>>>>>>>>>>>>>",
">>>>>>>>>>>>>;>$.......+&;;>>*$$%*>-=-*@...... %;>>>>>>>>>>>>>>>",
">>>>>>>>>>>>>>>$...... .&>;>;& . @=>;-=$.+ ... %>>>>>>>>>>>>>>>>",
">>>>>>>>>>>>>;>$........&;;>>&.+ @=;;>>&  .... %>>>>>>>>>>>>>>>>",
">>>>>>>>>>>>>>>$........&>;>;*...$-;>;=&...... %>>>>>>>>>>>>>>>>",
">>>>>>>>>>>>>;>$.......+&;;;>=&&&=>;>;>%. .... %;>>>>>>>>>>>>>>>",
">>>>>>>>>>>>>>>$...... .&>;>;->->>;>;>=@ ..... %>>>>>>>>>>>>>>>>",
">>>>>>>>>>>>>;>$........&>;>;-;;>;->;=$....... %>>>>>>>>>>>>>>>>",
">>>>>>>>>>>>>>>$.......+&==-=-=>===*%@.........%>>>>>>>>>>>>>>>>",
">>>>>>>>>>>>>;>$....... +@@@@@@@@+++.......... %;>>>>>>>>>>>>>>>",
">>>>>>>>>>>>>>>$...........  . ............... %>>>>>>>>>>>>>>>>",
">>>>>>>>>>>>>;>$............... +............. %>>>>>>>>>>>>>>>>",
">>>>>>>>>>>>>>>$............... ...............%>>>>>>>>>>>>>>>>",
">>>>>>>>>>>>>;>$.............................. %;>>>>>>>>>>>>>>>",
">>>>>>>>>>>>>>>$.....+........................ %>>>>>>>>>>>>>>>>",
">>>>>>>>>>>>>;>$..... .........................%>;>>>>>>>>>>>>>>",
">>>>>>>>>>>>>>>$.....@&&&&&&&&&&&&&&&&&&&&&&&&&*>;>>>>>>>>>>>>>>",
">>>>>>>>>>>>>;>$....+&>>->->->>>>---->>>>>>>>>>>>;>>>>>>>>>>>>>>",
">>>>>>>>>>>>>>>$....%->;>;>;>>>>;;;;>>>>>>>>>>>>>>>>>>>>>>>>>>>>",
">>>>>>>>>>>>>;>$.++$=>;;>;>;;>>>;>;;>>>>;>>>>>>;;>;>>>>>>>>>>>>>",
">>>>>>>>>>>>>>>$  @*>>;>;>;>;;>;>;>>;;;;>;>>>>>>;>>>>>>>>>>>>>>>",
">>>>>>>>>>>>>;-$.+*;;;;>;;>;;>>;>>>;>>>>;>;;;;>>>;>>>>>>>>>>>>>>",
">>>>>>>>>>>>>>>$.%>>>>>>>>>>>;>>>>>>>>>>>>>>>;;>>>>>>>>>>>>>>>>>",
">>>>>>>>>>>>;;-$$>;>>>>>>>>>;>>>>>>;;>>>;>>>>>>;>;>>>>>>>>>>>>>>",
">>>>>>>>>>>>>>>&==>>;>>>>>>>>>>;;;>>;;;>;;;;>>>;>>>>>>>>>>>>>>>>",
">>>>>>>>>>>>;;=-->;>>>;>>;>>>;>>>>>>>>>>>>>>;;>>>;>>>>>>>>>>>>>>",
">>>>>>>>>>>>>;>;;>;;>>;;>;;;>;>>>;;>>>;>>>>>>;>;>>>>>>>>>>>>>>>>",
">>>>>>>>>>>>;>;>;>>>;>>>>>>>>>;;;>>;;;>;;;;>>>;>>;>>>>>>>>>>>>>>"};
