/* XPM */
static char * CNN+_xpm[] = {
"64 48 14 1",
" 	c None",
".	c #000100",
"+	c #2B283B",
"@	c #D41215",
"#	c #594B51",
"$	c #EF2629",
"%	c #B6383A",
"&	c #D56065",
"*	c #999190",
"=	c #D58689",
"-	c #F5BCBE",
";	c #DBCDD3",
">	c #FEE3E3",
",	c #FDFFFC",
",,,,,,,,,,,,,,,,,,,,,,,,,,,,,,,,,,,,,,,,,,,,,,,,,,,,,,,,,,,,,,,,",
",,,,,,,,,,,,,,,,,,,,,,,,,,,,,,,,,,,,,,,,,,,,,,,,,,,,,,,,,,,,,,,,",
",,,,,,,,,,,,,,,,,,,,,,,,,,,,,,,,,,,,,,,,,,,,,,,,,,,,,,,,,,,,,,,,",
",,,,,,,,,,,,,,,,,,,,,,,,,,,,,,,,,,,,,,,,,,,,,,,,,,,,,,,,,,,,,,,,",
",,,,,,,,,,,,,,,,,,,,,,,,,,,,,,,,,,,,,,,,,,,,,,,,,,,,,,,,,,,,,,,,",
",,,,,,,,,,,,,,,,,,,,,,,,,,,,,,,,,,,,,,,,,,,,,,,,,,,,,,,,,,,,,,,,",
",,,,,,,,,,,,,,,,,,,,,,,,,,,,,,,,,,,,,,,,,,,,,,,,,,,,,,,,,,,,,,,,",
",,,,,,,,,,,,,,,,,,,,,,,,,,,,,,,,,,,,,,,,,,,,,,,,,,,,,,,,,,,,,,,,",
",,,,,,,,,,,,,,,,,,,,,,,,,,,,,,,,,,,,,,,,,,,,,,,,,,,,,,,,,,,,,,,,",
",,,,,,,,,,,,,,,,,,,,,,,,,,,,,,,,,,,,,,,,,,,,,,,,,,,,,,,,,,,,,,,,",
",,,,,,,,,,,,,,,,,,,,,,,,,,,,,,,,,,,,,,,,,,,,,,,,,,,,,,,,,,,,,,,,",
",,,,,,,,,,,,,,,,,,,,,,,,,,,,,,,,,,,,,,,,,,,,,,,,,,,,,,,,,,,,,,,,",
",,,,,,,,,,,,,,,,,,,,,,,,,,,,,,,,,,,,,,,,,,,,,,,,,,,,,,,,,,,,,,,,",
",,=======================================*********************,,",
",,@$$$$@@$@$$@$@$@$@$$$$@$$$$$@@$@@$@$$$%.....................,,",
",,@$$@$$$$$$$$$$$$$$$$$$$$$$$$$$$$$$$$$$%.....................,,",
",,@$$@$$$$@@@@@@$@@@$$$$$@@@@$$$@@@@@$$$%.....................,,",
",,@$$$$$@@&----&@&--@@$$@&--%@$@&-&-&@$$%........+;;;*........,,",
",,@$$$$@&>,>>>>&&,>,>@$@&,>,>%$@=,=,-@$$%........+,,,;........,,",
",,@$$$@&,>=====%>>%=,-@@-,==,>@@=,&,-@$$%........+,,,;........,,",
",,@$$@%,-%-,,,,----&>,%@=>==-,&@=>&,-@$$%........+,,,;........,,",
",,@$$@-,&-,=&&&%>-=>%>-@=>=>&>>%=,=,-@$$%........+,,,;........,,",
",,@$@%,--,&@@@@@>--,=-,&=>=,-%,=&,=,-@$$%...;;;;;;,,,,;;;;;+..,,",
",,@$@%,=--@$$$$@>-=,,%--->=,,&-,=,=,-@$$%...;,,,,,,,,,,,,,,+..,,",
",,@$@%,=>-@$$$$@>-=,,-&,,>=,,>&>,>&,-@$$%...;,,,,,,,,,,,,,,+..,,",
",,@$@%,=->@$$$$@>-=,-,==,>=>-,-%,>=,-@$$%...;,,,,,,,,,,,,,,+..,,",
",,@$$@>-=,=@@@@@>--,%->%>>=,&-,&->&,-@$$%...+++++#,,,;+++++...,,",
",,@$$@-,&-,-=&&&,-=,%&,-&>=,&%,>&>&,-@$$%........+,,,;........,,",
",,@$$@%,>&=>,,,,,-=,%@-,=-&,&@&,==&,-@$$%........+,,,;........,,",
",,@$$$@&,,=&=====&>,%@%>,%=,&@@>,&&,-@$$%........+,,,;........,,",
",,@$$@$@%>,,>>>>>,,-@$@&,,,>@$@%,,,,&@$$%........+,,,;........,,",
",,@$$$$$@@%=------=@$$$@&>>%@$$@%>>&@$$$%........+;*;*........,,",
",,@$$$$$$$@@@@@@@@@$$$$$@@@@$$$$@@@@$$$$%.....................,,",
",,@$$$$$$$$$$$$$$$$$$$$$$$$$$$$$$$$$$$$$%.....................,,",
",,@$$@@@@@@@@@@@@@@@@@$$@@@@@@@@@@@@$$$$%.....................,,",
",,%&&&&&&&&&&&&&&&&&&&&&&&&&&&&&&&&&&&&&=#####################,,",
",,,,,,,,,,,,,,,,,,,,,,,,,,,,,,,,,,,,,,,,,,,,,,,,,,,,,,,,,,,,,,,,",
",,,,,,,,,,,,,,,,,,,,,,,,,,,,,,,,,,,,,,,,,,,,,,,,,,,,,,,,,,,,,,,,",
",,,,,,,,,,,,,,,,,,,,,,,,,,,,,,,,,,,,,,,,,,,,,,,,,,,,,,,,,,,,,,,,",
",,,,,,,,,,,,,,,,,,,,,,,,,,,,,,,,,,,,,,,,,,,,,,,,,,,,,,,,,,,,,,,,",
",,,,,,,,,,,,,,,,,,,,,,,,,,,,,,,,,,,,,,,,,,,,,,,,,,,,,,,,,,,,,,,,",
",,,,,,,,,,,,,,,,,,,,,,,,,,,,,,,,,,,,,,,,,,,,,,,,,,,,,,,,,,,,,,,,",
",,,,,,,,,,,,,,,,,,,,,,,,,,,,,,,,,,,,,,,,,,,,,,,,,,,,,,,,,,,,,,,,",
",,,,,,,,,,,,,,,,,,,,,,,,,,,,,,,,,,,,,,,,,,,,,,,,,,,,,,,,,,,,,,,,",
",,,,,,,,,,,,,,,,,,,,,,,,,,,,,,,,,,,,,,,,,,,,,,,,,,,,,,,,,,,,,,,,",
",,,,,,,,,,,,,,,,,,,,,,,,,,,,,,,,,,,,,,,,,,,,,,,,,,,,,,,,,,,,,,,,",
",,,,,,,,,,,,,,,,,,,,,,,,,,,,,,,,,,,,,,,,,,,,,,,,,,,,,,,,,,,,,,,,",
",,,,,,,,,,,,,,,,,,,,,,,,,,,,,,,,,,,,,,,,,,,,,,,,,,,,,,,,,,,,,,,,"};
