/* XPM */
static char * ONDA6_xpm[] = {
"64 48 14 1",
" 	c None",
".	c #CB2A10",
"+	c #2667A4",
"@	c #CB412E",
"#	c #CF685A",
"$	c #5E95BF",
"%	c #8BB4D2",
"&	c #EC998C",
"*	c #E8B6AA",
"=	c #AECBE0",
"-	c #CEDFEA",
";	c #F2D5D0",
">	c #EEF0F1",
",	c #FDFFFC",
",,,,,,,,,,,,,,,,,,,,,,,,,,,,,,,,,,,,,,,,,,,,,,,,,,,,,,,,,,,,,,,,",
",,,,,,,,,,,,,,,,,,,,,,,,,,,,,,,,,,,,,,,,,,,,,,,,,,,,,,,,,,,,,,,,",
",,,,,,,,,,,,,,,,,,,,,,,,,,,,,,,,,,,,,,,,,,,,,,,,,,,,,,,,,,,,,,,,",
",,,,,,,,,,,,,,,,,,,,,,,,,,,,,,,,,,,,,,,,,,,,,,,,,,,,,,,,,,,,,,,,",
",,,,,,,,,,,,,,,,,,,,,,,,,,,,,,,,,,,,,,,,,,,,,,,,,,,,,,,,,,,,,,,,",
",,,,,,,,,,,,,,,,,,,,,,,,,,,,,,,,,,,,,,,,,,,,,,,,,,,,,,,,,,,,,,,,",
",,,,,,,,,,,,,,,,,,,,,,,,,,,,,,,,,,,,,,,,,,,,,,,,,,,,,,,,,,,,,,,,",
",,,,,,,,,,,,,,,,,,,,,,,,,,,,,,,,,,,,,,,,,,,,,,,,,,,,,,,,,,,,,,,,",
",,,,,,,,,,,,,,,,,,,,,,,,,,,,,,,,,,,,,,,,,,,,,,,,,,,,,,,,,,,,,,,,",
",,,,,,,,,,,,,,,,,,,,,,,,,,,,,,,,,,,,,,,,,,,,,,,,,,,,,,,,,,,,,,,,",
",,,,,,,,,,,,,,,,,,,,,,,,,,,,,,,,,,,,,,,,,,,,,,,,,,,,,,,,,,,,,,,,",
",,,,,,,,,,,,,,,,,,,,,,,,,,,,,,,,,,,,,,,,,,,,,,,,,,,,,,,,,,,,,,,,",
",,,,,,,,,,,,,,,,,,,,,,,,,,,,,,,,,,,,,,,,,,,,,,,,,,,,,,,,,,,,,,,,",
",,,,,,,,,,,,,,,,,,,,,,,,,,,,,,,,,,,,,,,,,,,,,,,,,,,,,,,,,,,,,,,,",
",,,,,,,,,,,>;***;;>,,,,,,,,,,,,,,,,,,,,,,,,,,,,,,,,,,,,,,,,,,,,,",
",,,,,,,,,,>&@@..@#*>,,,,,,,,,,,,,,,,,,,,,,,,,,,,,,,,,,,,,,,,,,,,",
",,,,,,,,,;#@@.....@&,,,,,,,,,,,,,,,,,,,,,,,,,,,,,,,,,,,,,,,,,,,,",
",,,,,,,>-&##*#@....@*,,,,,,,,,,,,,,,,,,,,,,,,,,,,,,,,,,,,,,,,,,,",
",,,,,,,;***---*#@...#;,,,,,,,,,,,,,,,,,,,,,,,,,,,,,,,,,,,,,,,,,,",
",,,,,,,>;->>,>,;@....&;,,,,,,,,,,,,,,,,,,,,,,,,,,,,,,,,,,,,,,,,,",
",,,,,,>>>,,,,,,,&....&;,,,,,,,,,,,,,,,,,,>,,,,,,,,,,,,,,,,,,,,,,",
",,>;;;;;>,,,,,,,;&&&&&>,,,,,,,,,,,,,,,,,>=->,,,,,,,,,>>>,,,,,,,,",
",,*@@@@#;,,,,>,,,;,,,,,,,,,,,,,,,,,,,,,,-$=>,,,,,,,=$++$%,,,,,,,",
",-*@.@@@*,,,,,,,;,,,,,,,,,,,,,,,,,,,,,>,=$=>,,,,,,-$++$$%,,,,,,,",
",,;#@...@;>,>,*&>,,,,-==->,>>>==->,,,-=-=%=>-==-,,%++->-->-->,,,",
",>=*@.@..#&;;&&*,,,,-%$$$=>-%%%$$=,>=$$%$$=>=$%$=-$+=-->,-%%->-,",
",,,>*@.....@@@&;,,,-$$--%$==$$--$$--$%--$+=----%$%++$$+%->====-,",
",,,>-;#@....@*,,,,>%$>,,>%$%$%,,-$%%$>,,=$->,>>=$%$++$++$-=>%%-,",
",,,,,>>;&&&;;,,,,,>%$,,,,=$%$=,,-%$%$,,,=$=-%$$$+%++%>=++=>,>-,,",
",,,,,,,,,,,,,,,,,,>%$,,,,=$%%=,,>$$%$,,,=$=%%%-=$=++-,,++=,,,,,,",
",,,,,,,,,,,,,,,,,,>%$-,,>%$%%=,>>%%%$>,,%$%+-,,-$%$+%-=++-,,,,,,",
",,,,,,,,,,,,,,,,,,,-+%--=$==$=,,;$=-$%--$+%$=>-%+-%++$$+$>,,,,,,",
",,,,,,,,,,,,,,,,,,,,-$$$$%,-%=,,-%->=$$$$%-=$$$%$>>%+++$-,,,,,,,",
",,,,,,,,,,,,,,,,,,,,,>-=->>>>>,,,->,>-->>>>>-=->>>,>--->,,,,,,,,",
",,,,,,,,,,,,,,,,,,,,,,>,,,,,,,,,,,,,,,>,,,,,,,,,,,,,,>>,>,,,,,,,",
",,,,,,,,,,,,,,,,,,,,,,,,,,,,,,,,,,,,,,,,,,,,,,,,,,,,,,,,,,,,,,,,",
",,,,,,,,,,,,,,,,,,,,,,,,,,,,,,,,,,,,,,,,,,,,,,,,,,,,,,,,,,,,,,,,",
",,,,,,,,,,,,,,,,,,,,,,,,,,,,,,,,,,,,,,,,,,,,,,,,,,,,,,,,,,,,,,,,",
",,,,,,,,,,,,,,,,,,,,,,,,,,,,,,,,,,,,,,,,,,,,,,,,,,,,,,,,,,,,,,,,",
",,,,,,,,,,,,,,,,,,,,,,,,,,,,,,,,,,,,,,,,,,,,,,,,,,,,,,,,,,,,,,,,",
",,,,,,,,,,,,,,,,,,,,,,,,,,,,,,,,,,,,,,,,,,,,,,,,,,,,,,,,,,,,,,,,",
",,,,,,,,,,,,,,,,,,,,,,,,,,,,,,,,,,,,,,,,,,,,,,,,,,,,,,,,,,,,,,,,",
",,,,,,,,,,,,,,,,,,,,,,,,,,,,,,,,,,,,,,,,,,,,,,,,,,,,,,,,,,,,,,,,",
",,,,,,,,,,,,,,,,,,,,,,,,,,,,,,,,,,,,,,,,,,,,,,,,,,,,,,,,,,,,,,,,",
",,,,,,,,,,,,,,,,,,,,,,,,,,,,,,,,,,,,,,,,,,,,,,,,,,,,,,,,,,,,,,,,",
",,,,,,,,,,,,,,,,,,,,,,,,,,,,,,,,,,,,,,,,,,,,,,,,,,,,,,,,,,,,,,,,",
",,,,,,,,,,,,,,,,,,,,,,,,,,,,,,,,,,,,,,,,,,,,,,,,,,,,,,,,,,,,,,,,",
",,,,,,,,,,,,,,,,,,,,,,,,,,,,,,,,,,,,,,,,,,,,,,,,,,,,,,,,,,,,,,,,"};
