/* XPM */
static char * RNE3_xpm[] = {
"64 48 14 1",
" 	c None",
".	c #080805",
"+	c #1A1A1A",
"@	c #2A2927",
"#	c #BE2729",
"$	c #5A5755",
"%	c #F34240",
"&	c #8A8A89",
"*	c #E3908C",
"=	c #B0AEAC",
"-	c #D7CBC9",
";	c #EBEBE8",
">	c #FFE6EA",
",	c #FCFEFC",
",,,,,,,,,,,,,,,,,,,,,,,,,,,,,,,,,,,,,,,,,,,,,,,,,,,,,,,,,,,,,,,,",
",,,,,,,,,,,,,,,,,,,,,,,,,,,,,,,,,,,,,,,,,,,,,,,,,,,,,,,,,,,,,,,,",
",,,,,,,,,,,,,,,,,,,,,,,,,,,,,,,,,,,,,,,,,,,,,,,,,,,,,,,,,,,,,,,,",
",,,,,,,,,,,,,,,,,,,,,,,,,,,,,,,,,,,,,,,,,,,,,,,,,,,,,,,,,,,,,,,,",
",,,,,,,,,,,,,,,,,,,,,,,,,,,,,,,,,,,,,,,,,,,,,,,,,,,,,,,,,,,,,,,,",
",,,,,,,,,,,,,,,,,,,,,,,,,,,,,,,,,,,,,,,,,,,,,,,,,,,,,,,,,,,,,,,,",
",,,,,,,,,,,,,,,,,,,,,,,,,,,,,,,,,,,,,,,,,,,,,,,,,,,,,,,,,,,,,,,,",
",,,,,,,,,,,,,,,,,,,,,,,,,,,,,,,,,,,,,,,,,,,,,,,,,,,,,,,,,,,,,,,,",
",,,,,,,,,,,,;,,,,,;,,,,,,,,,,,,,,,,,,,,,,,,,,,,,,,,,,,,,,,,,,,,,",
",,,,,,,,,,,,,;,,,,,,,,,,,,,,,,,,,,,,,,,,,,,,,,,,,,,,,,,,,,,,,,,,",
",,,,,,,,;,;,,,,,;,,,,,,,,,,,,,,,,,,,,,,,,,,,,,,,,,,,,,,,,,,,,,,,",
",,,,,,,,,-@..@.@@@@@&,,,,,,,,,,,,,,,,,,,,,,,,,,,,,,,,,,,,,,,,,,,",
",,,,,,,,,@.+@+@++.+..&,,,,,,,,,,,,,,,,,,,,,,,,,,,,,,,,,,,,,,,,,,",
",,,,,,,,=.@@@++++@+@.@,,,,,,,,,,,,,,,,,,,,,,,,,,,,,,,,,,,,,,,,,,",
",,,,,,,;$.@.+@@+@@+@+.;,,,,,,,,,,,,,,,,,,,,,,,,,,,,,,,,,;,,,,,,,",
",,,,,,;;.+@+,,;,,@++++,,,,,,,,,,,,,,,,,,,,,,,,,,,,,,,-=&&-;,,,,,",
",,;,,,,$.++&,,,=.+@@.$,,,,,,;,,,,,,,,,,,,,,,,,,,,,,=.......&,;,,",
";,,,,,;+@..;,;$.@++.$,;,,,,;,,,,,,-,,>,;,,,,,,,,;,$.+.......@,,,",
",,,,,,=..+$,;@.+.@.=,,;,,,,,,,,,;,,>,>,,,,,,,,,,,=....+@....+=,,",
",,,,,,@+@.-=.+@+.@---=---,,,,,,-;,;,>,,,,,,,,,,,,....$,,;@...@,,",
",,,,,=.@+$&.@.+.$,$.......-;,=@...->,>>,,,,,,,,,-....,,;,&.+.+,,",
",,,,,$.@.&+@+@.&,-.@.@+@@.@,-.++@@.-,,,,,,,,,,,,,;,-=,,,,&...+,,",
",,,,;.+@@=.@++-,;$@+@+.++@.,$.@+@+.$,,,,,,,,,,,,,,;,;,,,;....&,;",
",,,,&.++&;++@+,,;.+++&$+++@;.@@+.@@.,,,,,,,,,,,,,,,,,;&&....+;,,",
",,,,+@+.;,$.+.=,$.@+&;=..+&&.++$$+@.&,,,,,,,;,,,,,,,,$.....@,,,,",
",,,&.+.$,,=+@.$;.@..,,@.@.;++@.--.+@+,,,,,,,,;,,,;,,,@....$,,,,,",
",,;@@.+-,;,+.@@@.++&,-.@++$+@++&$++@@=;,>>>>>,;,,;,,;.+....@,,,,",
",,-.@+@,,,,$+.++@@.-,$++@+.@+@+.++@+.=>>**>>>>,,,,,,,,;&....=,,,",
",,$.@.=,;,,,++@++.$,;$.@+@@++++@++@..>*####>>,,,,;,,,,,,$...@,,;",
",;....,,,,,;;@...$;;,=.+.@@@@+...+..**#%%%##>>,,;;;;,,,,$...@,,,",
",;;;;,,,,,,,,,;-;,,,,,;&&+++.======->##%%%%#*,@...$,,,,,$...@,,;",
",,,,,,,,,,,,,;,,,,,,;,,,&.@+@==&=&&=*#%%%%%#*>$....,;,,=....=,,,",
",,,,,,,,,,,,,,,,,,,,,,,,$+@+++..+.+.*#%%%%##*,;.....&=$....@,,;,",
",,,,,,,,,,,,,,,,,,,,,,,,@.@@+++@+@@.-*##%###>>,&..........+,;,;,",
",,,,,,,,,,,,,,,,,,,,,,,,=+.+++..++..;>#####>>,;,&+.......$,,;;,;",
",,,,,,,,,,,,,,,,,,,,,,,,,=&&&&&&&&&&,,>***>>,>,,,;&$@@$&,,,,,,;,",
",,,,,,,,,,,,,,,,,,,,,,,,,,,,;,,,,>,,,,,>>>>>,,,,,,,;,,,,;;,,,,,,",
",,,,,,,,,,,,,,,,,,,,,,,,,,;,,,;,,,,,,,,,>>,>,,,,,,,;,,;,,,,,;,,,",
",,,,,,,,,,,,,,,,,,,,,,,,,,,,,,,,,,,,,,,,,,,,,;,,,;,,,,,,;,,,,,,,",
",,,,,,,,,,,,,,,,,,,,,,,,,,,,,,,,,,,,,,,,,,;,,,,,,,,,,,,,,,,,,,,,",
",,,,,,,,,,,,,,,,,,,,,,,,,,,,,,,,,,,,,,,,,,,,,,,,,,,,,,,,,,,,,,,,",
",,,,,,,,,,,,,,,,,,,,,,,,,,,,,,,,,,,,,,,,,,,,,,,,,,,,,,,,,,,,,,,,",
",,,,,,,,,,,,,,,,,,,,,,,,,,,,,,,,,,,,,,,,,,,,,,,,,,,,,,,,,,,,,,,,",
",,,,,,,,,,,,,,,,,,,,,,,,,,,,,,,,,,,,,,,,,,,,,,,,,,,,,,,,,,,,,,,,",
",,,,,,,,,,,,,,,,,,,,,,,,,,,,,,,,,,,,,,,,,,,,,,,,,,,,,,,,,,,,,,,,",
",,,,,,,,,,,,,,,,,,,,,,,,,,,,,,,,,,,,,,,,,,,,,,,,,,,,,,,,,,,,,,,,",
",,,,,,,,,,,,,,,,,,,,,,,,,,,,,,,,,,,,,,,,,,,,,,,,,,,,,,,,,,,,,,,,",
",,,,,,,,,,,,,,,,,,,,,,,,,,,,,,,,,,,,,,,,,,,,,,,,,,,,,,,,,,,,,,,,"};
