/* XPM */
static char * TPA 01_xpm[] = {
"64 48 12 1",
" 	c None",
".	c #0B3C88",
"+	c #0F488F",
"@	c #165FA0",
"#	c #0095D7",
"$	c #4B93C8",
"%	c #62BDE4",
"&	c #89CDEC",
"*	c #CEDBEA",
"=	c #E1EFF6",
"-	c #FEFFFC",
";	c #FFFFFF",
";;;;;;;;;;;;;;;;;;;;;;;;;;;;;;;;;;;;;;;;;;;;;;;;;;;;;;;;;;;;;;;;",
";;;;;;;;;;;;;;;;;;;;;;;;;;;;;;;;;;;;;;;;;;;;;;;;;;;;;;;;;;;;;;;;",
";;;;;;;;;;;;;;;;;;;;;;;;;;;;;;;;;;;;;;;;;;;;;;;;;;;;;;;;;;;;;;;;",
";;;;;;;;;;;;;;;;;;;;;;;;;;;;;;;;;;;;;;;;;;;;;;;;;;;;;;;;;;;;;;;;",
";;;;;;;;;;;;;&#############################++++++++.;;;;;;;;;;;;",
";;;;;;;;;;;;;&#############################++++++++.;;;;;;;;;;;;",
";;;;;;;;;;;;;&#############################++++++++.;;;;;;;;;;;;",
";;;;;;;;;;;;;&#############################++++++++.;;;;;;;;;;;;",
";;;;;;;;;;;;;&#############################++++++++.;;;;;;;;;;;;",
";;;;;;;;;;;;;&#############################++++++++.;;;;;;;;;;;;",
";;;;;;;;;;;;;&#############################++++++++.;;;;;;;;;;;;",
";;;;;;;;;;;;;&#############################++++++++.;;;;;;;;;;;;",
";;;;;;;;;;;;;&#############################++++++++.;;;;;;;;;;;;",
";;;;;;;;;;;;;;;;;;;;;;;;;;;;;;;;;;;;;;;;;;;++++++++.;;;;;;;;;;;;",
";;;;;;;;;;;;;;;;;;;;;;;;;;;;;;;;;;;;;;;;;;;++++++++.;;;;;;;;;;;;",
";;;;;;;;;;;;;;;;;;;;;;;;;;;;;;;;;;;;;;;;;;;++++++++.;;;;;;;;;;;;",
";;;;;;;;;;;;;;;;;;;;;;;;;;;;;;;;;;;;;;;;;;;++++++++.;;;;;;;;;;;;",
";;;;;;;;;;;;;;;;;;;;;;;;;;;;;;;;;;;;;;;;;;;++++++++.;;;;;;;;;;;;",
";;;;;;;;;;;;;;;;;;;;;;;;;;;;;;;;;;;;;;;;;;;++++++++.;;;;;;;;;;;;",
";;;;;;;;;;;;;$$$$$$$$$&&&&&&&&&&&&&&&&&&&&&++++++++.;;;;;;;;;;;;",
";;;;;;;;;;;;;@++++++++#####################++++++++.;;;;;;;;;;;;",
";;;;;;;;;;;;;@++++++++#####################++++++++.;;;;;;;;;;;;",
";;;;;;;;;;;;;@++++++++#####################++++++++.;;;;;;;;;;;;",
";;;;;;;;;;;;;@++++++++#####################++++++++.;;;;;;;;;;;;",
";;;;;;;;;;;;;@++++++++#####################++++++++.;;;;;;;;;;;;",
";;;;;;;;;;;;;@++++++++#####################++++++++.;;;;;;;;;;;;",
";;;;;;;;;;;;;@++++++++#####################++++++++.;;;;;;;;;;;;",
";;;;;;;;;;;;;@++++++++%%%%%%%%%%%%%%%%%%%%%++++++++.;;;;;;;;;;;;",
";;;;;;;;;;;;;@++++++++*-------------------=++++++++.;;;;;;;;;;;;",
";;;;;;;;;;;;;@++++++++*-------------------=++++++++.;;;;;;;;;;;;",
";;;;;;;;;;;;;@++++++++*-------------------=++++++++.;;;;;;;;;;;;",
";;;;;;;;;;;;;@++++++++*-------------------=++++++++.;;;;;;;;;;;;",
";;;;;;;;;;;;;@++++++++*-------------------=++++++++.;;;;;;;;;;;;",
";;;;;;;;;;;;;@++++++++*====================++++++++.;;;;;;;;;;;;",
";;;;;;;;;;;;;@++++++++#####################++++++++.;;;;;;;;;;;;",
";;;;;;;;;;;;;@++++++++#####################++++++++.;;;;;;;;;;;;",
";;;;;;;;;;;;;@++++++++#####################++++++++.;;;;;;;;;;;;",
";;;;;;;;;;;;;@++++++++#####################++++++++.;;;;;;;;;;;;",
";;;;;;;;;;;;;@++++++++#####################++++++++.;;;;;;;;;;;;",
";;;;;;;;;;;;;@++++++++#####################++++++++.;;;;;;;;;;;;",
";;;;;;;;;;;;;@++++++++#####################++++++++.;;;;;;;;;;;;",
";;;;;;;;;;;;;@++++++++#####################++++++++.;;;;;;;;;;;;",
";;;;;;;;;;;;;@++++++++#####################++++++++.;;;;;;;;;;;;",
";;;;;;;;;;;;;;;;;;;;;;;;;;;;;;;;;;;;;;;;;;;;;;;;;;;;;;;;;;;;;;;;",
";;;;;;;;;;;;;;;;;;;;;;;;;;;;;;;;;;;;;;;;;;;;;;;;;;;;;;;;;;;;;;;;",
";;;;;;;;;;;;;;;;;;;;;;;;;;;;;;;;;;;;;;;;;;;;;;;;;;;;;;;;;;;;;;;;",
";;;;;;;;;;;;;;;;;;;;;;;;;;;;;;;;;;;;;;;;;;;;;;;;;;;;;;;;;;;;;;;;",
";;;;;;;;;;;;;;;;;;;;;;;;;;;;;;;;;;;;;;;;;;;;;;;;;;;;;;;;;;;;;;;;"};
