/* XPM */
static char * TV3_xpm[] = {
"64 48 13 1",
" 	c #000100",
".	c #151715",
"+	c #2B2D2A",
"@	c #E80140",
"#	c #F10644",
"$	c #565855",
"%	c #ED4066",
"&	c #929491",
"*	c #EF6E84",
"=	c #F199A4",
"-	c #F8B7BC",
";	c #DACECB",
">	c #FDFFFC",
">>>>>>>>>>>>>>>>>>>>>>>>>>>>>>>>>>>>>>>>>>>>>>>>>>>>>>>>>>>>>>>>",
">>>>>>>>>>>>>>>>>>>>>>>>>>>>>>>>>>>>>>>>>>>>>>>>>>>>>>>>>>>>>>>>",
">>>>>>>>>>>>>>>>>>>>>>>>>>>>>>>>>>>>>>>>>>>>>>>>>>>>>>>>>>>>>>>>",
">>>>>>>>>>>>>>>>>>>>>>>>>>>>>>>>>>>>>>>>>>>&&&&&>>>>>>>>>>>>>>>>",
">>>>>>>>>>>>>>>>>>>>>>>>>>>>>>>>>>>>>>>&++        +;>>>>>>>>>>>>",
">>>>>>>>>>>>>>>>>>>>>>>>>>>>>>>>>>>>;.               .;>>>>>>>>>",
">>>>>>>>>>>>>>>>>>>>>>>>>>>>>>>>>>>$                   +>>>>>>>>",
">>>>>=>>>>>>>>>>>>>>>>>>>>>>>>>>>;                       >>>>>>>",
">>>>>@%>>>>>>>>>>>>>>>>>>>>>>>>>>.                       +>>>>>>",
">>>>>@@#*>>>>>>>>>>>>>>>>>>>>>>>$                         &>>>>>",
">>>>>@@@#@;>>>>>>>>>>>>>>>>>>>>>                           >>>>>",
">>>>>@@@@@#%>>>>>>>>>>>>>>>>>>>;            $$$            &>>>>",
">>>>>@@@%@@@@=>>>>>>>>>>>>>>>>>+          +>>>>>+          +>>>>",
">>>>>@@@@@@@@#@;>>>>>>>>>>>>>>>          +>>>>>>>           >>>>",
">>>>>;%@@@@@@@@#;>>>>>>>>>>>>>>          >>>>>>>>&         .>>>>",
">>>>>>>-@%@@@@@%#%>>>>>>>>>>>>>         $>>>>>>>>>         .>>>>",
">>>>>@@=>>%@@@@@@@@@->>>>>>>>>>>>>>>>>>>>>>>>>>>>>          >>>>",
">>>>>@@@@;>;@@@@@@@@@%>>>>>>>>>>>>>>>>>>>>>>>>>>>;          >>>>",
">>>>>@@@@@%>>=@@@@@%@@#=>>>>>>>>>>>>>>>>>>>>>>>>>.         $>>>>",
">>>>>@@@@@@@=>>%@@@@@@@@@->>>>>>>>>>>>>>>>>>>>>>.          >>>>>",
">>>>>@@@@@@@@@->*@%@@@@@@#%>>>>>>>>>>>>>>>&&&$+           .>>>>>",
">>>>>@@@@@%@@@@#>>%@%@@@@@@@->>>>>>>>>>>>;                >>>>>>",
">>>>>>%@@@@@@@@@@;>;@@@@%%@@@@>>>>>>>>>>>;.             $>>>>>>>",
">>>>>->;@@@@@@@@@@%>>=@@@@@@@#@=>>>>>>>>>;            +;>>>>>>>>",
">>>>>@%>>=@@@@%@@@@@=>;%@@@@@@@@>>>>>>>>>;.           .;>>>>>>>>",
">>>>>@@@=>>*@@@@@@@@@@;>;@@@@@%>>>>>>>>>>;.             $>>>>>>>",
">>>>>@@@@@->;%@@@@@%@@@%>>=@@->>>>>>>>>>>;                >>>>>>",
">>>>>@@@@@@%>>=@@%@@@@@@@=>>>>>>>>>>>>>>>>&;&&+           .>>>>>",
">>>>>@@@@%@@@*>>@@@@@@@@@%>>>>>>>>>>>>>>>>>>>>>>.          >>>>>",
">>>>>@@%@@@@@@@->=@@@@@@;>>>>>>>>>>>>>>>>>>>>>>>>.         $>>>>",
">>>>>*@@%@@@%@@@*>>%@@->>>>>>>>>>>>>>>>>>>>>>>>>>;          >>>>",
">>>>>>;@@@@@@@@@@@->;>>>>>>>>>>>>>>>>>>>>>>>>>>>>>          >>>>",
">>>>>@%>>=@@@@@@@@;>>>>>>>>>>>>         $>>>>>>>>>         .>>>>",
">>>>>@@@=>>%@@@@=>>>>>>>>>>>>>>          >>>>>>>>&         .>>>>",
">>>>>@@@@@;>-@@;>>>>>>>>>>>>>>>          +>>>>>>>          .>>>>",
">>>>>@@@@@@%;>>>>>>>>>>>>>>>>>>+          +>>>>>+          +>>>>",
">>>>>@@@%@@%>>>>>>>>>>>>>>>>>>>;            $$$.           &>>>>",
">>>>>@@@@@;>>>>>>>>>>>>>>>>>>>>>                           >>>>>",
">>>>>@@@=>>>>>>>>>>>>>>>>>>>>>>>$                         &>>>>>",
">>>>>@%;>>>>>>>>>>>>>>>>>>>>>>>>>.                       +>>>>>>",
">>>>>;>>>>>>>>>>>>>>>>>>>>>>>>>>>>                       >>>>>>>",
">>>>>>>>>>>>>>>>>>>>>>>>>>>>>>>>>>>$                   +>>>>>>>>",
">>>>>>>>>>>>>>>>>>>>>>>>>>>>>>>>>>>>;.               +;>>>>>>>>>",
">>>>>>>>>>>>>>>>>>>>>>>>>>>>>>>>>>>>>>>&+.        +;>>>>>>>>>>>>",
">>>>>>>>>>>>>>>>>>>>>>>>>>>>>>>>>>>>>>>>>>>&&&&&>>>>>>>>>>>>>>>>",
">>>>>>>>>>>>>>>>>>>>>>>>>>>>>>>>>>>>>>>>>>>>>>>>>>>>>>>>>>>>>>>>",
">>>>>>>>>>>>>>>>>>>>>>>>>>>>>>>>>>>>>>>>>>>>>>>>>>>>>>>>>>>>>>>>",
">>>>>>>>>>>>>>>>>>>>>>>>>>>>>>>>>>>>>>>>>>>>>>>>>>>>>>>>>>>>>>>>"};
