/* XPM */
static char * eslDD_xpm[] = {
"27 18 7 1",
" 	c None",
".	c #F40801",
"+	c #D8721D",
"@	c #F5FC00",
"#	c #FFFFFF",
"$	c #CBBB9A",
"%	c #000000",
"...........................",
"...........................",
"...........................",
"...........................",
"+++++++++++++++++++++++++++",
"@@@@@@@@@@@@@@@@@@@@@@@@@@@",
"@@@@@@@@+.#################",
"@@@@@@+@$$#################",
"@@@@@@@..$##%%%%%%%%%%%%%##",
"@@@@@@..$$##%%%%%%%%%%%%%##",
"@@@@@@..++##%%##%%%%%##%%##",
"@@@@@@$.$.##%%###%%%###%%##",
"@@@@@@+@$$##%%###%%%###%%##",
"++++++++++##%%##%%%%%##%%##",
"..........##%%%%%%%%%%%%%##",
"..........##%%%%%%%%%%%%%##",
"..........#################",
"..........#################"};
