/* XPM */
static char * eslDUAL_xpm[] = {
"27 18 7 1",
" 	c None",
".	c #F40801",
"+	c #D8721D",
"@	c #F5FC00",
"#	c #CBBB9A",
"$	c #FFFFFF",
"%	c #000000",
"...........................",
"...........................",
"...........................",
"...........................",
"+++++++++++++++++++++++++++",
"@@@@@@@@@@@@@@@@@@@@@@@@@@@",
"@@@@@@@@+.@@@@@@@@@@@@@@@@@",
"@@@@@@+@##@+@@@@@@@@@@@@@@@",
"@@@@@@@..#$$$$$$$$$$$$$$$$$",
"@@@@@@..##$$$$$$$$$$$$$$$$$",
"@@@@@@..++$$$%%%%$$$%%%%$$$",
"@@@@@@#.#.$$%%%%%%$%%%%%%$$",
"@@@@@@+@##$$%%$$%%$%%$$%%$$",
"++++++++++$$%%$$%%$%%$$%%$$",
"..........$$%%%%%%$%%%%%%$$",
"..........$$$%%%%$$$%%%%$$$",
"..........$$$$$$$$$$$$$$$$$",
"..........$$$$$$$$$$$$$$$$$"};
