/* XPM */
static char * fastForward7_xpm[] = {
"80 80 3 1",
" 	c None",
".	c #007F7F",
"+	c #00C3C4",
"                                                          +++++++++++           ",
"                                                       +++++++++++++++++        ",
"                                                     +++++++++++++++++++++      ",
"                                                    +++++++++++++++++++++++     ",
"                                                  ++..........+++++++++++++++   ",
"                                                 +++..........++++++++++++++++  ",
"                                                 +++..........++++++++++++++++  ",
"                                                ++++++++++...++++++++++++++++++ ",
"                                                +++++++++....++...++++...++++++ ",
"                                               ++++++++++...+++....++....+++++++",
"                                               +++++++++....++++...++...++++++++",
"                                               +++++++++...+++++........++++++++",
"                                               +++++++++...++++++......+++++++++",
"                                               ++++++++....++++++......+++++++++",
"                                               ++++++++...++++++++....++++++++++",
"                                               ++++++++...++++++++....++++++++++",
"                                               ++++++++...+++++++......+++++++++",
"                                                ++++++....+++++++......++++++++ ",
"                     +++++++         +++++++    ++++++...+++++++........+++++++ ",
"                    +++++++++       +++++++++    +++++...+++++++...++...++++++  ",
"                   +++++++++++     +++++++++++   +++++...++++++....++....+++++  ",
"                   ++++...+++++    ++++...+++++   ++++...++++++...++++...++++   ",
"                   +++.....+++++   +++.....+++++    +++++++++++++++++++++++     ",
"                   +++......+++++  +++......+++++    +++++++++++++++++++++      ",
"                   +++.......+++++ +++.......+++++     +++++++++++++++++        ",
"                   +++........++++++++........+++++       +++++++++++           ",
"                   +++.........+++++++.........+++++                            ",
"                   +++..........++++++..........+++++                           ",
"                   +++...........+++++...........+++++                          ",
"                   +++............++++............++++                          ",
"                   +++.............+++.............++++                         ",
"                   +++.............+++.............+++++                        ",
"                   +++..............++..............+++++                       ",
"                   +++...............+...............+++++                      ",
"                   +++................................+++++                     ",
"                   +++.................................+++++                    ",
"                   +++..................................+++++                   ",
"                   +++...................................++++                   ",
"                   +++....................................+++                   ",
"                   +++....................................+++                   ",
"                   +++....................................+++                   ",
"                   +++...................................++++                   ",
"                   +++..................................+++++                   ",
"                   +++.................................+++++                    ",
"                   +++................................+++++                     ",
"                   +++................................++++                      ",
"                   +++...............+...............++++                       ",
"                   +++..............++..............+++++                       ",
"                   +++.............+++.............+++++                        ",
"                   +++............++++............+++++                         ",
"                   +++...........+++++...........+++++                          ",
"                   +++..........++++++..........+++++                           ",
"                   +++.........+++++++.........+++++                            ",
"                   +++.........+++++++.........++++                             ",
"                   +++........++++ +++........++++                              ",
"                   +++.......+++++ +++.......+++++                              ",
"                   +++......+++++  +++......+++++                               ",
"                   +++.....+++++   +++.....+++++                                ",
"                   ++++...+++++    ++++...+++++                                 ",
"                   +++++++++++     +++++++++++                                  ",
"                    +++++++++       +++++++++                                   ",
"                     +++++++         +++++++                                    ",
"                                                                                ",
"                                                                                ",
"                                                                                ",
"                                                                                ",
"                                                                                ",
"                                                                                ",
"                                                                                ",
"                                                                                ",
"                                                                                ",
"                                                                                ",
"                                                                                ",
"                                                                                ",
"                                                                                ",
"                                                                                ",
"                                                                                ",
"                                                                                ",
"                                                                                ",
"                                                                                "};
