/* XPM */
static char * slowForward2_xpm[] = {
"80 80 5 1",
" 	c None",
".	c #007F7F",
"+	c #7F8000",
"@	c #00C3C4",
"#	c #C3C400",
"                                                          @@@@@@@@@@@           ",
"                                                       @@@@@@@@@@@@@@@@@        ",
"                                                     @@@@@@@@@@@@@@@@@@@@@      ",
"                                                    @@@@@@@@@@@@@@@@@@@@@@@     ",
"                                                  @@@@......@@@@@@@@@@@@@@@@@   ",
"                                                 @@@@........@@@@@@@@@@@@@@@@@  ",
"                                                 @@@@.........@@@@@@@@@@@@@@@@  ",
"                                                @@@@....@@....@@@@@@@@@@@@@@@@@ ",
"                                                @@@@...@@@@...@...@@@@...@@@@@@ ",
"                                               @@@@@...@@@@...@....@@....@@@@@@@",
"                                               @@@@@@@@@@@@...@@...@@...@@@@@@@@",
"                                               @@@@@@@@@@@@...@@........@@@@@@@@",
"                                               @@@@@@@@@@@...@@@@......@@@@@@@@@",
"                                               @@@@@@@@@@....@@@@......@@@@@@@@@",
"                                               @@@@@@@@@@...@@@@@@....@@@@@@@@@@",
"                                               @@@@@@@@@...@@@@@@@....@@@@@@@@@@",
"                                               @@@@@@@@...@@@@@@@......@@@@@@@@@",
"                                                @@@@@@....@@@@@@@......@@@@@@@@ ",
"                         #######     @@@@@@@    @@@@@....@@@@@@@........@@@@@@@ ",
"                        #########   @@@@@@@@@    @@@..........@@...@@...@@@@@@  ",
"                       ########### @@@@@@@@@@@   @@@..........@....@@....@@@@@  ",
"                       ####+++#### @@@@...@@@@@   @@..........@...@@@@...@@@@   ",
"                       ###+++++### @@@.....@@@@@    @@@@@@@@@@@@@@@@@@@@@@@     ",
"                       ###+++++### @@@......@@@@@    @@@@@@@@@@@@@@@@@@@@@      ",
"                       ###+++++### @@@.......@@@@@     @@@@@@@@@@@@@@@@@        ",
"                       ###+++++### @@@........@@@@@       @@@@@@@@@@@           ",
"                       ###+++++### @@@.........@@@@@                            ",
"                       ###+++++### @@@..........@@@@@                           ",
"                       ###+++++### @@@...........@@@@@                          ",
"                       ###+++++### @@@............@@@@                          ",
"                       ###+++++### @@@.............@@@@                         ",
"                       ###+++++### @@@.............@@@@@                        ",
"                       ###+++++### @@@..............@@@@@                       ",
"                       ###+++++### @@@...............@@@@@                      ",
"                       ###+++++### @@@................@@@@@                     ",
"                       ###+++++### @@@.................@@@@@                    ",
"                       ###+++++### @@@..................@@@@@                   ",
"                       ###+++++### @@@...................@@@@                   ",
"                       ###+++++### @@@....................@@@                   ",
"                       ###+++++### @@@....................@@@                   ",
"                       ###+++++### @@@....................@@@                   ",
"                       ###+++++### @@@...................@@@@                   ",
"                       ###+++++### @@@..................@@@@@                   ",
"                       ###+++++### @@@.................@@@@@                    ",
"                       ###+++++### @@@................@@@@@                     ",
"                       ###+++++### @@@................@@@@                      ",
"                       ###+++++### @@@...............@@@@                       ",
"                       ###+++++### @@@..............@@@@@                       ",
"                       ###+++++### @@@.............@@@@@                        ",
"                       ###+++++### @@@............@@@@@                         ",
"                       ###+++++### @@@...........@@@@@                          ",
"                       ###+++++### @@@..........@@@@@                           ",
"                       ###+++++### @@@.........@@@@@                            ",
"                       ###+++++### @@@.........@@@@                             ",
"                       ###+++++### @@@........@@@@                              ",
"                       ###+++++### @@@.......@@@@@                              ",
"                       ###+++++### @@@......@@@@@                               ",
"                       ###+++++### @@@.....@@@@@                                ",
"                       ####+++#### @@@@...@@@@@                                 ",
"                       ########### @@@@@@@@@@@                                  ",
"                        #########   @@@@@@@@@                                   ",
"                         #######     @@@@@@@                                    ",
"                                                                                ",
"                                                                                ",
"                                                                                ",
"                                                                                ",
"                                                                                ",
"                                                                                ",
"                                                                                ",
"                                                                                ",
"                                                                                ",
"                                                                                ",
"                                                                                ",
"                                                                                ",
"                                                                                ",
"                                                                                ",
"                                                                                ",
"                                                                                ",
"                                                                                ",
"                                                                                "};
