/* XPM */
static char * FLYMUSIC_xpm[] = {
"80 80 14 1",
" 	c None",
".	c #030203",
"+	c #130108",
"@	c #280313",
"#	c #4D0428",
"$	c #6A0539",
"%	c #8B2055",
"&	c #83325B",
"*	c #BF4E8B",
"=	c #B25E8B",
"-	c #EAA4CC",
";	c #DDB5CE",
">	c #C7C0C4",
",	c #C0C3C0",
"                                                                                ",
"                                                                                ",
"                                                                                ",
"------------;-----------;                                                       ",
"=%&&&&&&&&&&&&&&&&&&&&&&=                                                       ",
"&$######@############$#%=           ,,,,,,,,,       ,,,,,,,              ,,,,,, ",
"=$@+++@+.+@@++++++@@@@#&=          ,,,,,,,,,,       ,,,,,,,              ,,,,,, ",
"=$@++++..++........+++@&-          ,,,,,,,,,,       ,,,,,,,              ,,,,,, ",
"=#@++++...+++......+++@$=          ,,,,,,,,,,,      ,,,,,,,              ,,,,,, ",
"=$+..+@++@############$%=         ,,,,>,,,,,,       ,,,,,,,              ,,,,,, ",
"=$...+#%%%%%%%%%%%%%%$$$=         >>>>>>,,,,,       ,,,,,,,              ,,,,,, ",
"=$....@%***==*****===---;        ,>>>>>>>,,,,       ,,,,,,,              ,,,,,, ",
"*$+...@$=-                       ,>>>>>>>>,,,       ,,,,,,,              ,,,,,, ",
"*$+...@#=;;,,,,,>>>>>            ,>>>>>>>>,,,       ,,,,,,,              ,,,,,, ",
"*$+..+@$=-;,,,,>>>>>>>          ,,>>>>>>>>,,,       ,,,,,,,              ,,,,,, ",
"*$+..+@$*-->>>>>>>>>>>          ,,,>>>  >,,,,       ,,,,,,,              ,,,,,, ",
"*$...+@%*-----;---;;;;;         ,,>>>>  >>,,,       ,,,,,,,              ,,,,,, ",
"*$....@%***********&==&=-      ,,,>>>   >>,,,       ,,,,,,,              ,,,,,, ",
"*$....@$%$$$$$$$$$$$$$$$=      ,>,>>>   >,,,,       ,,,,,,,              ,,,,,, ",
"*$....+@#@@@@@@@@@@@@##&=     ,,,,>>    >,,,,       ,,,,,,,              ,,,,,, ",
"*$+....++...........++@&-     ,>,,>>    >>,,,       ,,,,,,,              ,,,,,, ",
"*$+....++..........+++@&=     ,,,,>>    >>,,,       ,,,,,,,              ,,,,,, ",
"*$....+@#@+@@@@@@@@@@##%=    ,,>,,>     >>,,,       ,,,,,,,              ,,,,,, ",
"*$+...@$%%%%%%%%%%%%%%%%*;   ,,,,,>     >>,,,       ,,,,,,,              ,,,,,, ",
"*$+...@%*================;   ,,,,,,     >,,,,       ,,,,,,,              ,,,,,, ",
"*$+...@$=-;;;;;     ;;;;;>  >>,,,,      ,,,,,       ,,,,,,,              ,,,,,, ",
"*$+...@$=-;>>>      >>>>>>> ,,,,,,      ,,,,,       ,,,,,,,              ,,,,,, ",
"*#+...@$*-;>>>       >>>>>,,,,,,,       ,,,,,       ,,,,,,,              ,,,,,, ",
"*#+...@$*-;>>>       >>>>>,,,,,,,       ,,,,,        ,,,,,,             ,,,,,,, ",
"*#....@$*-;>,,       ,,,,,>,,,,,        ,,,,,        ,,,,,,,            ,,,,,,, ",
"=#....@$*-;,,,        ,,,,,,,,,,        ,,,,,        ,,,,,,,           ,,,,,,,  ",
"=#...+@$*-;>,,        ,,,,,,,,,,        ,,,,,        ,,,,,,,,,        ,,,,,,,,  ",
"=$+.++@$*;>>,,         ,,,,,,,,         ,,,,,         ,,,,,,,,,,,,,,,,,,,,,,,   ",
"=#++++@$*;>>,,         ,,,,,,,,         ,,,,,          ,,,,,,,,,,,,,,,,,,,,,,   ",
"=$++++@$=;>>,>         >>,,,,,          ,,,,,           ,,,,,,,,,,,,,,,,,,,,    ",
"=$@+@@#$=;>>,>>         >>,,,,          ,,,,,            ,,,,,,,,,,,,,,,,,      ",
"=$####$$=; >,>          >,,,,           ,,,,,              ,,,,,,,,,,,,,        ",
"==&===&*=                                                      ,,,, ,           ",
"-;;;;;;-;                                                                       ",
"                                                                                ",
"                                                                                ",
"                                                                                ",
";;;;;--;;              ----;---;               ;--;;---;                        ",
"=%&&&%%%=  ,,,,,,,>   ;&&%%&&&&&-             -%%%&&%%$&      >,,,,,,,          ",
"%$####$$=;>>,,,,,,>>;;-=%$##@##$=   ,,,,>>,   =$$####%%-   >>>>,,,,,,,,,,       ",
"%$@+@@#$*;>>,,,,,,,>>;--*$#@++@$%=  >,>>>>,  -%$@++@#%*  ;>>>>>,,,,,,,,,,,,     ",
"=#..++#%*;>>>,,,,,,,>;;-=%$@..+@$%-  >>>>,  >=$@+.+@$%- >>>>>,>,,,,,,>,,,,,,    ",
"=#...+@%*;>>>>,,,,,,>>;;-=$#+..+#%=; >>>>>  =%#+..+#%=  >>,,,,,,,,,,,,,,,,,,,   ",
"*#....@%*-;>       ,,>>;;-&$@+..+$%-;>,,>> -%$@...@$=;;,,,,,,,,,,,,>>>,,,,,,,,  ",
"=#....@$*-          ,,,>;;=%#@...@$=-;>,>;-=%#+..+#&- >,,,,,,,         ,,,,,,,, ",
"=#....+$*;           ,,,>;-=$#++.+#%=;>>>;=%$@...@#=; >,,,,,,           ,,,,,,, ",
"=$....+$*            ,,,>>;-&#@+..@$&-;;;-=$#+..@#&; >>>,,,>             ,,,,,, ",
"*$+++.@$*;            ,,>>;;=$#++.+#&=---=%#@..@#%= ;;>>>>>              ,,,,,,,",
"*$+.+.@$*;                  ;&$#++.@#%=--%$@+.+#$&; >;>>>>>               ,,,,,,",
"*$....@$*;                   -%$@+..@$***%#+..@$%;  >>>>,>                      ",
"*$....@%*;>>,                 =$#+..+#%*%#@+.+#$=  >>>>>,,                      ",
"*$....@%*;>>,,,,              ;&$@..+#%%%#++.@$&;  >>,,,,                       ",
"*$....@%*;>>,,,,,,,,           =$#@.++#%#@.++#$-   >>,,,>                       ",
"*$....@%*;,>,,,,,,,,,,,        ;=$#+.+@##+.+#$=    ;>,,,,                       ",
"*$....@%*;,>,,,,,,,,,,,,,       -%#@..+@++.@$%-    ;>,,,>                       ",
"*$....@%*;,>,,,,,,,,,,,,,,       =$#+.+....@$=     >>,,,>                       ",
"*$....@$*   ,,,,,,,,,,,>,,,      -%#@+....+#%-     >,,,,,                       ",
"*$....@$*       ,,,,,,,,,,,>      =%#+....@$=      ,,>>,,                       ",
"*$....@$*           ,,,,,,,>      -*$@...+#&;      ,,,>,,,                      ",
"*$....@$*            ,,>,,,>,      *#@...@#=        ,>>>,,                ,,,,,,",
"*$....@$*             ,,>>>,,      *##+..@$=        ,>>>,,                ,,,,,,",
"*$....@$*             ,,,>>,,      =#@..+##=        ,>>,,,,               ,,,,,,",
"*$....@$*              >>>>,,      =$#+.+##=        ,,>>,,,              ,,,,,,,",
"*$..+.+$*              ;;;>>>      =#@...@$=         ,,,,,,,             ,,,>,, ",
"*$..+.+&*================;>>       =#@...@$=          ,,>,,,,          ,,,,,,,, ",
"*#..++@$%%$$$$$$$$$$$$$%*;>>       =#@...@$=          ,,,,,,,,,       ,,,,,,,,  ",
"=$..+++@###@@@@@@@#####%*;>        =#@+..#$*           ,>,,,,,,,,,,,,,,,,,,,,,  ",
"=#..+..+++.......+++++@&=;         =##+++#$*            ,,,,,,,,,,,,,,,,,,,,,   ",
"=#..+..++.........++++@&=;         =##@++#$=             ,,,,,,,,,,,,,,,,,,,    ",
"=$+@@+++++++++++@@@@@@#&=          =$#@@@#$=              ,,,,,,,,,,,,,,,,,     ",
"%#####################$$=          &#######=                ,,,,,,,,,,,,        ",
"=%==********========***%=          =&=====&=                      ,             ",
"                                    ;                                           ",
"                                                                                ",
"                                                                                "};
