/* XPM */
static char * NET TV_xpm[] = {
"80 80 14 1",
" 	c None",
".	c #043C70",
"+	c #003D93",
"@	c #00478A",
"#	c #024EA1",
"$	c #0553A1",
"%	c #005BA1",
"&	c #105D99",
"*	c #2D668F",
"=	c #317CB7",
"-	c #4A7DA1",
";	c #7398AD",
">	c #639BC5",
",	c #FCFFFC",
"                                                                                ",
"                                                                                ",
"                                                                                ",
"                                                                                ",
"                                                                                ",
"                                                                                ",
"                                                                                ",
"                                                                                ",
"                                                                                ",
"                                                                                ",
"                                                                                ",
"                                                                                ",
"                                                                                ",
"                                                                                ",
"                                                                                ",
"                                                                                ",
"                                                                                ",
"                                                                                ",
"                                                                                ",
"                                                                                ",
"                                                                                ",
"                                                                                ",
"                                                                                ",
"                                                                                ",
"                                                                                ",
"                                                                                ",
"                                                                ;;;;;           ",
"                                                             =&&@@@%@&*&>       ",
"                                                           -%$$$%%%%%%%$@*      ",
"                                                          &%%&%%%%%&&%%&%#%>    ",
"                                                         &$%%%%%&&%%%%%%%%@&    ",
"                                                        &%%%%%%%%%%%%%%%&%%#%   ",
"                                                       *@@&@@@@&&&%&.$%%&%%@@*  ",
"                                                      ;%========%%===&&%%%%==&> ",
"-&&     &&         *@&@.&..        ;.@&&&@.;          .;,,,,,,,,&%,,,,&&%@,,,=% ",
"=&+%    &%         -+%====-        ;@$%%%%&;          .;,,,,,,,,*@>,,,*%@&,,,&@ ",
"=%%@-   %%         -.                 &@>            =@$&=,,,>%%%#=,,,-$@-,,;&@*",
"=%=&&   %$         -.                 &+;            =&%@%,,,=@$%$&,,,,$%;,,*@%*",
"=%  @%  &$         -@=                *+;            %%%%&,,,=%%%%@-,,,%&,,,&@%*",
"=&  &@; &$         -@@..;             &+;            %$%%&,,,=@%%%@*,,,&&,,>%%$*",
"=@   &@=%%         -.>                *+;            &%%%&,,,=%%%%%%>,,>>,,&$%@*",
"=#   ;@%&&         -.                 *+;            &%%%&,,,=%$&%%%=,,,,,,%$%%*",
"=@    &#%%         -.                 &+>            >@%@&,,,=@%%%%%&,,,,,-$%%&-",
"=@     &@%         *+%====*           &+>             @%%&,,,=&&%%%%$-,,,,&@%#& ",
"-*     -&=         -&=***&*           -&              *&@%>,,=@%%%%%@&,,,,%$%#= ",
"                                                      ;#$&>,,=$%%&%%%%>,,=$%&@; ",
"                                                       -@&@@@%%%%%%%%%@.@%%%@*  ",
"                                                        &%%%%%%&%%%&%%%%%&&$%   ",
"                                                         &$%%%%%%%%%%%%%&%@*    ",
"                                                          &$&&%%%$%%%%%&%#&     ",
"                                                           -&$$$%%%%%%$$.*      ",
"                                                             =&&%@@@@&*=        ",
"                                                                 ;;-;           ",
"                                                                                ",
"                                                                                ",
"                                                                                ",
"                                                                                ",
"                                                                                ",
"                                                                                ",
"                                                                                ",
"                                                                                ",
"                                                                                ",
"                                                                                ",
"                                                                                ",
"                                                                                ",
"                                                                                ",
"                                                                                ",
"                                                                                ",
"                                                                                ",
"                                                                                ",
"                                                                                ",
"                                                                                ",
"                                                                                ",
"                                                                                ",
"                                                                                ",
"                                                                                ",
"                                                                                ",
"                                                                                ",
"                                                                                ",
"                                                                                "};
