/* XPM */
static char * ONDA CERO_xpm[] = {
"80 80 14 1",
" 	c None",
".	c #010300",
"+	c #0F1614",
"@	c #07241E",
"#	c #202121",
"$	c #323332",
"%	c #474747",
"&	c #5C5C5C",
"*	c #757776",
"=	c #979998",
"-	c #B8B9B8",
";	c #CCCDCC",
">	c #E1E3E2",
",	c #FBFDFB",
"                     @@+......................................................  ",
"        @@@@@@@+......#####$%%%%&%%%%%%%%%%%%%%%%%%%%%%%%%%%$$%&&%&&&&&&&&%&%#.@",
"  @@@@@+++##$%%%%%&**=-;;;;>,,,,,,,,,,,,,,,,,,,,,,,,,,,,,,,,,,,,,,,,,,,,,,,,,-@@",
"  .#%&&*==-;>>>,,,,,,,,,,,,,,,,,;>,,,,,,,,,,,,,>;>,,,,,,,,,,,,,,,>*-,,,,,,,,,;@+",
" @+*,,,,,,,,;=;,,,,,,,,,,-=;,,,;$&>,,,,,,,,,,,;%#%=;,,,,,,,,,,,,>%.%>,,,,,,,,;++",
" @+-,,,,,,;%#++*,,,,,,,,>%.#;,,-.+;,,,,,,,,,,,*....#=,,,,,,,,,,,=..+-,,,,,,,,-++",
" @#;,,,,,>&.....-,,,,,,,>%...-,;.#;,,,,,,,,,,>%.$==.+-,,,,,,,,,;+...&>,,,,,,,;++",
" @$;,,,,,;+.#=$.&,,,,,,,;$....&*.%>,,,,,,,,,,>%.$>,%.*,,,,,,,,,&.%;#.-,,,,,,,;#+",
" +$>,,,,,=..&,%.$,,,,,,,-..-*....&>,,,,,,,,,,>$.&,,+.-,,,,,,,,=...=..=,,,,,,,-++",
" .%,,,,,,=..*,&.#>,,,,,,=.$>,&+..*,,,,,,,,,,,>$.%-&.&,,,,,,,,;$..#...&>,,,,,,;++",
" .&,,,,,,-..=,%.$>,,,,,,=.#;,,-#.=,,,,,,,,,,,;....+*,,,,,,,,>*.#=;-*.$;,,,,,,-++",
"..*,,,,,,-..*>#.&,,,,,,,-#%>,,,=+=,,,,,,,,,,,>%$$&-,,,,,,,,,,*#=,,,>&&;,,,,,,=++",
"@.*,,,,,,;$.#%..=,,,,,,,,;>,,,,,;>,,,,,,,,,,,,>>>,,,,,,,,,,,,>;,,,,,>>,,,,,,,=+@",
"@.=,,,,,,,=....*,,,,,,,,,,,,,,,,,,,,,,,,,,,,,,,,,,,,,,,,,,,,,,,,,,,,,,,,,,,,,=.@",
"+#;,,,,,,,,-&%=>,,,,,,,,,,,;--=**&$#+###$$%%&&&**==--->>,,,,,,,,,,,,,,,,,,,,,=.@",
".$>,,,,,,,,,,>,,,,,,,>-=*&%#++......................+.#$%*=->,,,,,,,,,,,,,,,,*.@",
".$,,,,,,,,,,,,,,>;-=*%+.....................................$*=->,,,,,,,,,,,,*.@",
".%,,,,,,,,,,>;-=&#..............................................&=->,,,,,,,,,&. ",
".*,,,,,,,,>-*#....................................................+&;,,,,,,,,%. ",
".*,,,,,,;&$+........................................................#*>,,,,,,&. ",
"+=,,,,-$+.............................................................%;,,,,,%. ",
"+-,,>*+................................................................&,,,,,%. ",
"+-,,*.............................+%&%#................................%>,,,,%. ",
"+-,;#............................%=,,,;=%..............................%,,,,,%. ",
"@-,-+...........................+*;;--;;*..............................*,,,,,%+ ",
"@=,;$.............................++..++.............................#*>,,,,,%. ",
"@=,,=+.............................................................#*;>,,,,,,%. ",
"+=,,,=+.......................................................+&=;;>,,,,,,,,,%+ ",
"+=,,,,-%...............................................#$$$$%&*->,,,,,,,,,,,,%. ",
".=,,,,,,-*&%%##.............................................#$%%$$$%%%%%**==*#. ",
".=,,,,,,,,,,,>-=**%$.................++.+#$$%%&&*****%%$##....................  ",
"+*>>;;;;;;-;;;;;--=&#..+#$$$%%%%&***====-;,,,,,,,,,,,,,,,;=*&%$#+.............  ",
"+$%$$#$$##.+##.....+#$*=->>,,,,,,,,,,,,,,,,,,,,,,,,,,,,,,,,,,,>;=&$++.........  ",
"................#&=-;>,,,,,,,,,,,,,>-=->>,,,,,,,,,,,,,,,,,,,,,,,,>;-=&#.......  ",
"+............#=;>,,,,,,,,,,,,,,,>=%$+.+#%=,,,,,,,,,,,,,,,,,,,,,,,,,,,,;&+.....  ",
"+....+.....*;,,,,,,,,,,,,,,,,,,,*........$-,,,,,,,,,,,,,,,,,,,,,,,,,,,,,*.....  ",
"@........#-,,,,,,,,,,,,,,,,,,,,,*........#-,,,,,,,,,,,,,,,,,,,,,,,,,,,,;&.....  ",
"+.......#-,,,,,,,,,,,,,,,,,,,,,,;%.....#$*>,,,,,,,,,,,,,,,,,,,,,,,,,>;=#......  ",
"+......#-,,,,,,,,,,,,,,,,,,,,,,,,>-=**=;,,,,,,,,,,,,,,,,,,,,,,,,,>;=%.........  ",
"+......=,,,,,,,,,,,,,,,,,,,,,,,,,,,,,,,,,,,,,,,,,,,,,,,,,,,,,>;-=%#...........  ",
"+......&>,,,,,,,,,,,,,,,,,,,,,,,,,,,,,,,,,,,,,,,,,,,,,,,>;-=*%$#+.............  ",
"+.......$&=>,,,,,,,,,,,,,,,,,,,,,,,,,,,,,,,,,,,,,;;;-=*%$#+...................  ",
"+..........#$%&*-;--;>,,,,,,,,,,,,,,,,,,,>>;-=%%$+##+.........................  ",
"+...............+#++#$$%%&&&&*******&&&%$$$$..................................  ",
"+.............................................................................  ",
"+.............................................................................  ",
"+.............................................................................  ",
"+..............................................+#..................+.....+....  ",
"+.........................%&*=-*.............*-;;;;&..........++....+.........  ",
"+.......%*$.............%;>>,,,-............$,>&$=,,=.............+...........  ",
"+......$,>&.............*,=&**&%............&,;#.#;,;..........$=--&..........  ",
"+.....%>,-#.............*=..................*,-#..=,=.........#=,,,,*........+  ",
" ....#-,-#.............+==+.................=,-..+>>.........+=,>;,,;$.......   ",
" ....=,>$..............#-;&$%%#.............-,=.#;,%.........%>;$$>,-#.......   ",
" ...$>,&................-,>;,,=............+-,;*;,*.........+=,&..%,;#.......   ",
" ...*,,................#-=%%&*$............#;,,,,=..........$>>#..%,=........   ",
" ...=,,..+.............$>&.................$>,,,,=..........$,;+..>>%........   ",
" ..+=,,&...............#;&.................%,>&%>,*.........%,,=&*,;+........   ",
" ...&>,,&..............$;%.................&,;..%,,%........$;,,,,>%.........   ",
" ....=,,,-*............$,=$$$&%............*,;...=,;........#;,,,,*..........   ",
" ....%;,,,,*...........%,,,,,,>+...........=,=...+;;.+.......&;>>&...........   ",
" .....&,,,,*...+.......%,,>>>,=............$*#....#$..........$$$............   ",
" ......%&**$...........#&&%%%&$..............................+...............   ",
" ............................................................................   ",
" ............................................................................   ",
" ............................................................................   ",
" .............................................+++#####$%$%&&%%&%%&$%$%&&%%&&+   ",
" ....................+++++###$$$$%&&***=----;;>>,,,,,,,,,,,,,,,,,,,,,,,,,,,>$   ",
"++$#######$$$$%&**=**=----;;>>>,>>,,,,,,,,,,,,,,,,,,,,,>,,,,,,,,,,,>=;,,,,,;$   ",
"+*;;;;;;;;;;;>>>>,,,,,,,,,,,,,,,,,,,,,,,,>=-,,,,,,,,,,>*-,,,,,,,,,>%.$;,,,,-#   ",
"+=,,,,,,,,,,,,,,,,,,,,,,,;>,,,,,,,,,,,,,,*#+*,,,,,,,,,>$=,,,,,,,,>&$;%&>,,,-#   ",
".*,,,,;=*-,,,,,,,,,,,,,,;%*>,,,,,,,,,,,,>#-=.-,,,,,,,,;#=,,,,,,,,>$$,%&,,,,-#   ",
".*,,,,*..*,,,,,,,,,,,>,,*.#;,,,,,,,,,,,,;.,>.=,,,,,,,,-+-,,,,,,,,,-$.#-,,,,=+   ",
".&,,,,%.&-,,,,,,,,,,,,,-#.#;,,,,,,,,,,,,>#+.%,,,,,,,,,-%;,,,,,,,,,,=#;,,,,,*.   ",
".&,,,,@+$;,,,,,,,,,,,,,*$*#=,,,,,,,,,,,,;%#=,,,,,,,,,,,,,,,,,,,,,,,,,,,,,,>*@   ",
".&,,,>$-=%;,,,,,,,,,,,,>;,->,,,,,,,,,,,,,,,,,,,,,,>>>>>>>>>>>>>>>>>>>>,,,,>&@   ",
".&,,,,-,,-,,,,,,,,,,,,,,,,,,,,,,,,,,>;;;;--=**...............................   ",
".*,,>;>--;--============**=*****..............                                  ",
"................................                                                ",
".................                                                               "};
