/* XPM */
static char * RNE1_xpm[] = {
"80 80 14 1",
" 	c None",
".	c #0B0604",
"+	c #151212",
"@	c #1F1D20",
"#	c #231F1E",
"$	c #21211A",
"%	c #2E2B2B",
"&	c #3C3C3B",
"*	c #EB121E",
"=	c #4C4B4A",
"-	c #D72836",
";	c #595958",
">	c #676664",
",	c #7F7E7D",
"                                                                                ",
"                                                                                ",
"                                                                                ",
"                                                                                ",
"                                                                                ",
"                                                                                ",
"                                                                                ",
"                                                                                ",
"                                                                                ",
"                                                                                ",
"                                                                                ",
"                                                                                ",
"                                                                                ",
"                                                                                ",
"                                                                                ",
"                                                                                ",
"                                                                                ",
"                                                                                ",
"                                                                                ",
"                                                                                ",
"            #...+.+....+.+..>                                                   ",
"           &+@##@####@###@@#.=                                                  ",
"           .@#@#@#@#######@##.                                                  ",
"          ;.@##@###@#@###@###+&                                                 ",
"          .####@...+.+++@@#@#@.                                                 ",
"          .@@@+%        #@###@.                                        @+@#####+",
"         %+###.        =+#@##+&                                       =+@@@@#@@#",
"         .#@@##       ++@###@.                                        .#@####@@&",
"        &+##@.>      .@##@##.=                                       @@#####@#+>",
"        .@@#@.     &.#@#@##.;                                       >.+++@####+ ",
"       >+##@+=    ++@#@##+.                                              %@##@+ ",
"       @@#@@.    .#@#@#@.%                                               @@@#@# ",
"       .#@#@%  =.@##@##.=                                                +###@& ",
"      +####.  +.####@++  ;.........+>       @..+;                       >+#@@+; ",
"      .###@# ++###@#++   .#@#######@.     =.+##@+#                      &@#@#+  ",
"     =+##@+ &+#@##@.=   >.#@######@##.   &.####@#+.                     +@#@#.  ",
"     +@@#@+ +#####.     ####@##@@#@##.   .#####@##.                     .@#@#.  ",
"    >.@##+> +####.      +###@+++#@###+; ;+########@@                    .#@#@@  ",
"    .##@@.  &+###.     @####+%&&##@##.  @#####+@###.                   >+###@%  ",
"    .###+&   .#####    .###+=   ##@@#+  .###@%&@@##+&                  &+###+>  ",
"   &+##@.    #+###.   #@###.    .@#@+= #@@##+> .#@@#.                  #@###+   ",
"   .###@%     +@##+>  .@##@&   @@#@#.  .###@.  @@###.>                 @##@@+   ",
"  =+###.      .###@@ %+#@#.    .###@+ =+##@+=   .@@##@                 +@##@%   ",
"  .#@#@.      =+##@@.@##@@+   ;+@@#@#++######++#@##@#.                >+#@#+=   ",
"  .###+;       .#@@###@#@.>   #@#@@##################.                &@@##+;   ",
" @@#@#+        %+####@###.    .@###@@######@#######@$+   -***-        +@##@+    ",
" .###+&         .@#@##@#.     +#####@@######@#@@#@@#$+  *******       .@###.    ",
"%.+++.           +.++++.      ;.@###@@#@##@#######@$.  *********      +##@#+    ",
"%&&&&&             %@%>        =...##@###+.........$  -*********     ;+#@#@#    ",
"                                   %+#@#+&            ***********    %@###+=    ",
"                                   .####.             ***********    @@##@+>    ",
"                                   .@###@@++......... ***********    +##@#+     ",
"                                  &+###@@@@@@@@@@#$#@ **********-    +@###@     ",
"                                  =+######@@#####@@+&  *********    =+###@%     ",
"                                   .##############@+   *********    ####@@=     ",
"                                   %.++@@@@@@@@@@@+.    -*****-     +####+      ",
"                                    >@%@#@##########      ---       ......      ",
"                                                                                ",
"                                                                                ",
"                                                                                ",
"                                                                                ",
"                                                                                ",
"                                                                                ",
"                                                                                ",
"                                                                                ",
"                                                                                ",
"                                                                                ",
"                                                                                ",
"                                                                                ",
"                                                                                ",
"                                                                                ",
"                                                                                ",
"                                                                                ",
"                                                                                ",
"                                                                                ",
"                                                                                ",
"                                                                                ",
"                                                                                ",
"                                                                                ",
"                                                                                "};
