/* XPM */
static char * Telehit_xpm[] = {
"80 80 14 1",
" 	c None",
".	c #050B0D",
"+	c #00408C",
"@	c #3C494A",
"#	c #0058CB",
"$	c #0560A4",
"%	c #2893C0",
"&	c #2B8EF7",
"*	c #568D95",
"=	c #819995",
"-	c #59A8CF",
";	c #57C2FB",
">	c #86CEE8",
",	c #9EE6D4",
"                                                                                ",
"                                                                                ",
"                                                                                ",
"                                                                                ",
"                                                                                ",
"                                                                                ",
"                              =.                                                ",
"                              =.                                                ",
"                              ==                                                ",
"                               .                                                ",
"                               .=        =                                      ",
"                               .=       =.                                      ",
"                                .=      .=                                      ",
"                                =.=    .=                                       ",
"                                =.=   .=                                        ",
"                                 .===.=                                         ",
"                                 =.@.@*                                         ",
"                                =@....@=                                        ",
"                               =@@.....@                                        ",
"                              @.@@%##$*@@@                                      ",
"                            =@@>,&%;,;>,>@@@                                    ",
"                           @.$;,&*,,%$%*&%%@@                                   ",
"                          =.*&,;$,,&-;,,,;&+.                                   ",
"                          .=;-,%>=#>,-&%;,,-$.=                                 ",
"                         @.,+,-&=&>>$%;-%#%,>+@                                 ",
"                         .>,#,;-;$-$>,,,>,&#>=@                                 ",
"                        @.;,+,->>;-;-#%##>,-$>@@                                ",
"                        @.;,#=;*;---&,,,>#;,;&=.                                ",
"                        .;$,*>,&,&-;,;%%,,%>,&*.                                ",
"                        .,#,;$,-;=-,,=;,%=>&>-#.                                ",
"                        .,*;,&-,%;,;,,>-,%,%-;%@                                ",
"                        .@,$;,&>>-;>;%;=;%%*%;$.                                ",
"                        @@,;#;>&-;-;,;>&>%->%;@@                                ",
"                         .;,;$->;->>;=>%>*>>;>@@                                ",
"                         .+;,;-&-;-&->%>,%,%;=@                                 ",
"                         =.&&>,>->;,>%&,&>,%>@@                                 ",
"                          .+>&$%->--%%,%-,;%@@=                                 ",
"                           .*>;%%-%-,,;%,,&$@=                                  ",
"                            .*=,,,,>-%$-=*@..=                                  ",
"                             .@@$@@@+.@.@.+@@.                                  ",
"                            ..............=>=@                                  ",
"                            ............@====@                                  ",
"                           @............@=...*                                  ",
"                           .............@...@                                   ",
"                           ....@@@@@@@@==*.@                                    ",
"                             .@           @@                                    ",
"                             @@           @                                     ",
"                                                                                ",
"                                                                                ",
"                                                                                ",
"                                                                                ",
"                                                                                ",
"                                                                                ",
"                                                                                ",
" ;$%+$+#+#$%$$$#$$++++#+;  +%>    ;$+$$$+$$     -%        %#    -%++++++$$+$%++ ",
" +%$#$%$%*%*=*%%%%%%%$##   %++=  *+$%*%*%%#+   $%$        ;$%$  ++%$%$%%%%%+##- ",
" %%%@%$%%%---%-%>>---=%    +#$-  ##%     %$$   #$#        -%$*  %%-%-%%%%--*%   ",
"       *%-                 %#%=  $#%     -%$   $%$        ;$%$        %*-       ",
"       %$%     %---%-%-    +#$-  $#%->,,>%##   #$%        >$+%  -%%   -%-       ",
"       *%-   *#$%%%*%+#$   +#%%  $#*;>,,;-%-   $%$        >$%*  #$#   ;>;       ",
"       %%;   $+%>    $*+   $#$-  ##%           %$%-%>>>>>%-%$%  %%$   >;>       ",
"       *--   $%*     -=+   +#$%  $$*           *%=-%;>>>;=%*%*  ;=-   >>>       ",
"       %%-   #%%-,,>-%*$   $+#%  =$$$%%%$%$%   #$%        >$$%  >;-   ->>       ",
"       *%=   $%*->;,>*--   %$#-   >----=>=>    $%$        ;$%$  ;>>   ;%-       ",
"       %%%   $$%           $##-                ##$        -#$%  -%%   =%%       ",
"       *%-   +#*           $#*%,>>;>,=;>;>>-,  %#+        ;$#*  %$%   %*%       ",
"       $$%   %$$$%%%$%%%   -+$+#+$$#$%##+#++-  >$#        %+$,  $#%   $#%       ",
"       =-     ;-%-%----,    ------;->-%=-%;>>   >=        ,-,   >-    %->       ",
"                                                                                ",
"                                                                                ",
"                                                                                ",
"                                                                                ",
"                                                                                ",
"                                                                                ",
"                                                                                ",
"                                                                                ",
"                                                                                ",
"                                                                                ",
"                                                                                ",
"                                                                                "};
