/* XPM */
static char * VEO_xpm[] = {
"80 80 14 1",
" 	c None",
".	c #070906",
"+	c #1C1C1A",
"@	c #292B29",
"#	c #494C4A",
"$	c #296178",
"%	c #5F615E",
"&	c #548A9B",
"*	c #3A9BB4",
"=	c #1AA5D3",
"-	c #29B9E7",
";	c #55B6D1",
">	c #2ACAF7",
",	c #FAFCF9",
"                                                                                ",
"                                                                                ",
"                                                                                ",
"                                                                                ",
"                                                                                ",
"                                                                                ",
"                                                                                ",
"                                                                                ",
"                                                                                ",
"                                                                                ",
"                                                                                ",
"                                                                                ",
"                                                                                ",
"                                                                                ",
"                                                                                ",
"                                                                                ",
"                                                                                ",
"                                                                                ",
"                                                                                ",
"                                                                                ",
"                                                                                ",
"                                                                                ",
"                                                                                ",
"                                                                                ",
"                                                                                ",
"                                                                                ",
"                                                                                ",
"                                                                                ",
"                                                                                ",
"    #%%%#             #%%#     #%%%%%%%%%%%%%#            ;-======;;            ",
"    .....%           .....    %...............#         ;;;-------=*=;          ",
"    #.@@@.          %.@@+#     .@@@@+++++++++.#        ==-->-->>>>---==         ",
"     ++@@.%         .@@@.      .@@+@%#########%       ==-->;;&$$&;----==        ",
"     @+@@++        %.@@+.      .@@+#                 =--->*$@+@@@$*;>---=       ",
"      .+@@.        .+@@.       .@@.#                ;--->&@,,++@+++#->--=*      ",
"      +.@@+.       .@@+.       .@@.#                =-->*@,,,,.@@@+.$;---=      ",
"       .+@@.      #+@@.%       .@@.#               ;---;$+,,,,.@@@@@+$>----     ",
"       ++@@+@     .@@+.        .@@+@               =-->*..#,,@.@@@@@+$-----     ",
"        .+@@.    #+@@.%        .@@@+%              =-->$+@...+@@@@@@+@*>--=     ",
"        @+@@+#   .@@+.         .@@@@..........     =-->#+@@@@@@@@@@@@+&>--=     ",
"         .@@@.  %+@@+#         .@@@@++++++++++     =-->@+@@@@@@@@@@@@+&>---     ",
"         @+@@+# @+@@.          .@@@+@@@@@@@@@@     =-->#+@@@@@@@@@@@@+&>--=     ",
"          .@@@+++@@+@          .@@+#               =-->$+@@@@@@@@@@@+@*>--=     ",
"          .+@@@@@@@.           .@@.#               =-->*.+@@@@@@@@@@+$----=     ",
"           .@@@@@@+@           .@@+#               =---;$+@@@@@@@@@@+$>----     ",
"           @+@@@@@.%           .@@+#               ;--->=@+@@@@@@@+.$;----;     ",
"           %.@@@@++            .@@.#                =----&@.+@@@@+.$;----*      ",
"            .+@@@.#            .@@+@                ;---->=$@+.++#&;>---=       ",
"            #.@@+.             .@@@+#%%%%%%%%#%      *=--->;*&$&&;;----;=       ",
"             ++@.@             .@@@@+.........@       =--;-->>>>>>-----=        ",
"             #.+.              .+++++++++++++.@        *;------------*;         ",
"              +.@              +@@@@@@@@@@@@@@#         ;----------=-           ",
"                                                           *;;===**             ",
"                                                                                ",
"                                                                                ",
"                                                                                ",
"                                                                                ",
"                                                                                ",
"                                                                                ",
"                                                                                ",
"                                                                                ",
"                                                                                ",
"                                                                                ",
"                                                                                ",
"                                                                                ",
"                                                                                ",
"                                                                                ",
"                                                                                ",
"                                                                                ",
"                                                                                ",
"                                                                                ",
"                                                                                ",
"                                                                                ",
"                                                                                ",
"                                                                                ",
"                                                                                ",
"                                                                                ",
"                                                                                ",
"                                                                                ",
"                                                                                "};
