/* XPM */
static const char * clock_xpm[] = {
"80 77 126 2",
"  	c #000000",
". 	c #838B93",
"+ 	c #4C5365",
"@ 	c #48536A",
"# 	c #3E5170",
"$ 	c #A7ACAF",
"% 	c #E2E7EA",
"& 	c #646B7E",
"* 	c #828D9B",
"= 	c #233658",
"- 	c #08224C",
"; 	c #061846",
"> 	c #17294A",
", 	c #11255A",
"' 	c #0D2B65",
") 	c #A1AEBE",
"! 	c #CACBD5",
"~ 	c #17437D",
"{ 	c #102654",
"] 	c #102141",
"^ 	c #3A455A",
"/ 	c #6F7C8E",
"( 	c #9EA5AE",
"_ 	c #00245D",
": 	c #0A336C",
"< 	c #113F85",
"[ 	c #053B80",
"} 	c #1F4788",
"| 	c #9DB2CD",
"1 	c #CAD2DB",
"2 	c #456594",
"3 	c #144181",
"4 	c #244B86",
"5 	c #102C6C",
"6 	c #273852",
"7 	c #747F8A",
"8 	c #2D384D",
"9 	c #1B3761",
"0 	c #0E3B74",
"a 	c #163A6F",
"b 	c #013574",
"c 	c #063A79",
"d 	c #003478",
"e 	c #08468B",
"f 	c #194D90",
"g 	c #969EA7",
"h 	c #6D7E99",
"i 	c #1B438A",
"j 	c #235495",
"k 	c #819DC0",
"l 	c #BCC4CD",
"m 	c #4E70A2",
"n 	c #264E83",
"o 	c #051940",
"p 	c #B0B8C1",
"q 	c #1D487C",
"r 	c #4770A9",
"s 	c #5D81B4",
"t 	c #678BBE",
"u 	c #547AAD",
"v 	c #C2C3CD",
"w 	c #375176",
"x 	c #68717E",
"y 	c #DEE3E5",
"z 	c #788CA8",
"A 	c #3E629A",
"B 	c #E7EDEF",
"C 	c #CFD4D7",
"D 	c #3E5E8B",
"E 	c #2F5D99",
"F 	c #7894BD",
"G 	c #2F4669",
"H 	c #B5BCC5",
"I 	c #90A4BD",
"J 	c #32425D",
"K 	c #A6AEB6",
"L 	c #1A4377",
"M 	c #00387D",
"N 	c #01306F",
"O 	c #153765",
"P 	c #30568C",
"Q 	c #5C7AA7",
"R 	c #57729D",
"S 	c #2B5691",
"T 	c #FAFDF9",
"U 	c #B9BEC0",
"V 	c #748BAE",
"W 	c #5A6D8E",
"X 	c #0D2C57",
"Y 	c #EDEFEC",
"Z 	c #F2F5F1",
"` 	c #07295D",
" .	c #526B93",
"..	c #4A638A",
"+.	c #616D85",
"@.	c #D8DDDF",
"#.	c #375782",
"$.	c #113467",
"%.	c #4E6384",
"&.	c #8F98A1",
"*.	c #002C64",
"=.	c #0A2155",
"-.	c #244472",
";.	c #001A46",
">.	c #2E5484",
",.	c #375C93",
"'.	c #104989",
").	c #002E6C",
"!.	c #164E87",
"~.	c #B0B5B7",
"{.	c #07193C",
"].	c #C2CBD4",
"^.	c #ACB4BC",
"/.	c #BFC8D0",
"(.	c #002456",
"_.	c #0B1937",
":.	c #011D50",
"<.	c #032861",
"[.	c #002A68",
"}.	c #58606F",
"|.	c #C9CED0",
"1.	c #1C2943",
"2.	c #1D293E",
"3.	c #D2D8DA",
"4.	c #111D36",
"5.	c #C1C6C8",
"                                                                    . + + @ # $ % & # # @ &                                                                     ",
"                                                          * & = - ; > , , , ' ) ! ~ , ' ' ; { ] ] ^ /                                                           ",
"                                                    ( @ > ; _ , : : < ~ < [ } | 1 2 3 4 } ~ ~ 3 5 ' _ ; 6 /                                                     ",
"                                              ! 7 8 9 5 4 ' } 0 ' a b c d < 0 ) 1 2 b } e 3 4 } } f 3 3 , { > # g                                               ",
"                                          ! h > - 5 0 a 0 a 5 i i i i i f } j k l m i f } i i i i i i } n 4 c { o ^ $                                           ",
"                                      % p / 9 ' d ' q : c e i e j j r r r s s t k t u r s r r r r e i i i i i n c { p v v                                       ",
"                                    v w x y z 0 } 0 3 3 e j r s s t t t t t t t t t t t t t t t t t s r A f f i i s y z 6 7                                     ",
"                                B * = ' w ! C D < i i E r t t t t t F t t t t t t t t t t t t t t t t t t s r E E ! 1 E ~ { G H                                 ",
"                              % 7 - , n i h % I } r u t t t t t t t t t t F t t t t F t t t t t t t t t t t t t | % I f } 3 ~ J K                               ",
"                            ! J { L 3 M < f | 1 t t t t t F t t t t t t t t t F t t t t t t t t t t t t t t t F v ) s i A } i N { x                             ",
"                          ! G O : < M b c P z I t Q R t t t s Q t t t t t t t t t t t t t t t t F t t F t t t t F t t u r S j i L 9 x                           ",
"                      T U G { L 0 3 d c S 2 V V m z W Q Q R t R Q Q R Q Q R u s m t R t s t t t s t t t t t t t t t t s s A E i } 4 X & Y                       ",
"                    Z ! J ` < M 5 : } D u  .t m  .R W R W R  . .Q W R ..Q R R Q W R Q W Q Q m s u s s t t t t t s t t t r r E E i e 0 - +.Y                     ",
"                    @.#.{ b ~ ' $.L 2 2 Q  .Q W Q  .W +.R W R W W +.R %.R R  .Q W  .R R Q W Q m s s m Q m s s u t u Q t t s u A j i e } ` &.                    ",
"                  B @ , 3 ' , : 0 #...R Q Q %... ..... .W .. ...%. .%. .W Q W  .R R W W  . .Q W R  .R u R Q s R t t s r t s s s A E } i L ] g                   ",
"                Z * $.' a *.X $.#.D R R R Q %.%. . .%.%.+.R %...W  . .R W .. .W +...%.+.R %.R %.R ..R R  . .R R m s s u t s s u m E E i i d 6 !                 ",
"              Y v $., a =.=.$.-...2  . . .W W W %.R  ..... .+.W ......+.W %.%...Q ..Q  .Q ..R  .R %. .R  .R 2 R m A Q u m u t m m m S j e } > + !               ",
"            % @.@ 5 : ` ;.X 9 >.2 2 %.2 .. .R ..%...D 2 ..........%.D ..Q  .W ..%...%.+...%. .%. . .%.%. .%.R W W  . .m R 2 m u m s ,.i '.i } , h v             ",
"            % * ` N , o *.O 9 D ..R  .2 ..%.......%.2 R %.......#.%.D %...%...%. .%. ...%...%...%.R ....W 2  ...R  ... . .m A m r 2 A S e i e } +.p             ",
"          % C %.N ).;.; { -.#.D %. .%.2 ............#...%./ #.....#...#.w %.G -.w G w ..%...%.w %.%.....%...D D 2 2 A 2 A 2  .%.2 2 D n !.f 2 p C ~.v           ",
"          @.% ! F -.{.- a O #.n D D D ..P ..D #.w w D #.W ....%.-.G J >.G # >.q O -.9 -.w -...G -.w -.w >.>...>.#.#.D 2 D A A 2 2 D P >.%.| 1 v z # /           ",
"        ! v x ( ! ].V ] a -.>.D >.#.>.%.>.>.G -.>.G = q >.>.O O 9 a -.q n 9 9 = X a q -.-.O -.= -.-.q = -.L >.n n n n >.n #.>.P D >.P !.V v z ..c , G v         ",
"        C +._ : # ^./.2 a a q -.-.#.9 q 6 O L # X O L O ] -.X $.(.X X { 9 a O -.X O X { O O { -.9 9 O a -.X L L L L L n L n -.n n n q a P 2 L ' ' , ; .         ",
"      ! $ = =._ {.J ..9 : L 0 >.O 9 -.9 O -.X -.- X O 9 O X $.(.*.` $.*.- $.- ` ` ` ` ` { $.- $.` $.9 (.a $.a ' a $.a L $.~ L 0 a a ~ L ' 5 ' N ' ' { + C       ",
"      C & _.; ; {.; ` a , $.O a X $.L - - X ` - L (.` X (.` (.*.*.` ; ` *.*.` ` ` ` ;.*.' *.` ` ` o ' ' , a ' $.' ' ' : ' , c $.q : a a : *.N ' (., :.{.v       ",
"    % v J <.o o ; :.<.*.0 a { ` ` { { { *.- ` ;.` - - *.*.*.` (.*.` (.(., ` , (.' <.(.(.(.` , ` <.` ` *.' ` <.' c N ~ b ' c ' [.).b N N c N N N *._ _ _.& C     ",
"    y g ] :.o o _ _ ' ` , N , *.*.` *.- =.(.(.(.;.*.(.(.:.` , _ (.=._ *._ *.*.<.(.=., *., ` *., ` *.(.` ` , ` : , ' 5 ' N ' 5 N ).N 5 5 5 ' ' 5 [.=.; ; ^ !     ",
"    ! }.{.; ;.;._ (.).*.N d , *.` ` *.(.:.*.(._ , :.(.;.*.:.*._ *.` :.(.(.(.` , ` *.:.<.<.(.*.*.=.' *.*.*.' , *.: *.' 5 5 N ' 5 5 *.N ).5 ' ).' 5 ' , ; > $     ",
"  Y |.8 {.; o ; _ *.' *.' ).: , *.(.:.*.(.(.(.(.(.(.=.*.*._ ' ).*.*., ' ' ' ).).*., _ *.` ' [.' <.` ` <.' *.).' ' ).' ).).N N ' N N N ).N ).).[.[.' , ; ] 7 %   ",
"  Y $ 1.;.;.;.;.<.N 5 N ' ).*.' *.*., :.=., =.(.:.*.:.=.(.(.)._ <.[.*.*.*.:.(.' ).' ' ' *.(.=.*.*.).=._ ' ` )._ , *.N ).5 ' N ' ' 5 ).).5 5 N ' ).(.' =.; + C   ",
"  ! . _.{._.; :.' 5 N ' ' ' [.*.' , *.*.*.:.` <.(.=.<._ ' ).' ' _ *.)._ [.).[.)._ ' *._ ' [.*.[._ ' <.*.' ).*.' ' 5 , ' ).[.[.5 [._ 5 5 _ ).' ).).[.<.; ; 8 v   ",
"  C & ; {._.;.(.' d N d *.' _ ).' <.<.(.` [.` <._ <.' :.5 *.[.=.).[.=.' ' <._ ).<.[._ [.).' ' ).<.).5 [._ <.<.).*.' [.[.).<.)._ 5 )._ N 5 d ).5 N <.' ' ; 2.$   ",
"C ! + _.; ;.:.).d 5 5 ).' d ' _ [._ ' [._ (._ =.*., ' *._ <.(.<.' ` [._ ' ).*.N ' ' <.)._ [.[.)._ 5 <.<.5 5 _ [.).[.5 5 ).5 5 ).<._ N _ [.*.' ' 5 (.*.:.; _.g C ",
"C v 8 _.; ; :._ ).N ).[.*.).<.[.[.<._ <.)., <.<.=.*._ ` ' _ <.' [.[.).[.[.<.<.).[.[._ 5 _ *.5 ' <.[._ <.).[.d 5 [.<.).[.[.[.[.d 5 [.5 [.5 [.: ).).' ` ` o _.* % ",
"C ~.2._.;.; :.).' 5 d *.5 ).<.[._ ).)._ ' (.*.<.*.<._ <._ ' ' ).(._ ).*.).5 5 (.[.<._ ' [.[.<.=.).).).5 5 [._ ).<.[._ _ ).)._ )._ 5 [.).[.).5 *.5 *., <.:.; / % ",
"C ~.8 {.;.; _ *.d 5 5 N ).' ).' )., ' N <.[.(.)._ _ [.[.[.(.' ).<.[.).<.<.(.5 [.5 5 ).[._ [.[.[.' 5 _ N _ ).[.5 5 5 5 5 N ' 5 [.<.).[.d _ ).' N ).*., <., {.}.C ",
"C ( 2.o o ;.(.[.).N d ).' ).*.[.5 *.).*.*.).' [.' ).=.N _ [.[.5 [.5 =.[.[._ c n -.b 5 <.).' ' <.<.[._ 5 _ 5 [.N [.).<.[.5 5 [.).[.)._ )._ N N ' _ ' *., ; ; }.! ",
"C U 7 h h V R ~ 5 N 5 d ' d <.[.).[.).).' ).*.' , )._ ' ' [.*.*.<.5 _ _ N w * H H V $.' )._ [.).[.[.N ).N [.[.[._ N [._ [._ [.5 5 ).5 ' 5 ' *.).a  .V k Q h 7 ! ",
"! v U ) ^.H I #.d N N [.N [.d : ).' ' ).).).).).).).<.N <.<.).[.).[.` ' <.P H C 1 H 2 <.5 [._ 5 )._ 5 [.[.[.5 <.5 5 [.N ).' 5 =.<.[.<.[.<.N [.5 $.I H $ v p $ @.",
"3.( + > = 6 >.*.5 N d N d [.5 ).N N ).' ' ' ' ' ).' [.).).5 _ 5 <.[.*.' *. .! C 1 1 R [.).).[.5 ).[.[.[.[.[._ d _ [._ 5 N _ _ )._ [._ N ).<.[.).N >.-.-.#.> & 1 ",
"! ( 2.o ; ; ' *.).).[.5 ).).).5 ).N 5 N 5 ' ).).).' 5 _ [.).5 ).).[.N ).).f F ! v ) L <.d _ [.).[.[.[.5 _ N [.[.5 N [.[.[.[.).5 ' [.[.[.[.5 _ [.).' ' _ _ ; }.C ",
"v $ 8 _.o ; =.: ' b [.5 d 5 N ).5 N 5 d ).).).).).N 5 5 5 ).5 ).).<.).).[.: '.Q r P *.)._ ).5 5 [.).[.<.5 5 [.[.[.[._ 5 [.<.*.)._ <.[.5 <.' d 5 ).5 <.' , ; }.! ",
"U g 2.{.; ;.*.: N 5 d d ).M ).5 N ).d ).N N ).5 d ).d ).d 5 _ 5 _ 5 5 ' N ).N : ~ $.5 5 5 5 [.N [.5 _ [.N [.[.).[.5 [.d _ <.[.' ' 5 [.N 5 [._ ).5 =., _ ;.o * @.",
"v ^.8 {.o ;.=.N d ).d N M d M d d N 5 d 5 d ).' 5 ).5 [.).d d 5 N d [.).).' , , 5 d [.<.).).[.[.[.).N [.[.[.[.).[.N [.[.).<.)._ <.5 [.[._ <.[.).).<.` *.; ; g % ",
"p K ^ _.{.; _ 5 ).b c d N 5 b M d d [ N d 5 5 N d 5 ).).[.' ).).' ).*.N N ' *.).d ).).5 ).).5 )._ ).' ).).[.[.5 [.[.[.[.5 _ <.*._ [._ *.).' <.5 ' *.' N (._.( C ",
"  ~.}._.{.; *.[.N ).N < M M M 5 [ N [ b M M d d d d N d N ).5 d N N 5 5 N N ' ).[.N d 5 ' ).).).).).5 ).' [.[.).5 [.N d _ 5 d <.).' [.5 [.' _ [.' *., ).; ] H   ",
"  ( 7 4.{.; :.).N N N M N d M M d M 5 M N d d d d N d d d 5 d ).5 5 d N ).N ).).N 5 ).).).).5 N 5 N ).5 d ).).[.d _ N [.5 *.' _ , [._ [._ ' ).*.N , <.' o 8 !   ",
"  $ &.4._.o ;.<.' [ N b M < N [ 5 < [ d N [ [ N d M N d N M 5 [ N 5 5 N M d d 5 d 5 N d 5 d 5 d ).d N [.5 d ).' ).5 N _ [.[.` ).).).*., ).[.` ).*.` ` ' ; & @.  ",
"  ( g 1.4.;.:., ` : 5 d d d < b M d b M d d M d M b d M d d M d d d d d 5 5 d d [.d 5 N N [.d ).5 ).5 N N ).d ).).N ).' d : ).' *.[.' [._ ' ).[.[.' _ (.o * !   ",
"    K + _.o ;., ' 0 b < d 5 M M i d < d [ < M b i d d 5 d d d M d b M M M N d d d N 5 5 d ).5 d 5 d ).5 5 ).).N N 5 ).).5 ).).5 ).[.N , [., , *.' ).5 =.1.$     ",
"    $ }.4.; ; (.*.d : ' 5 i d M d [ b < b N [ d d [ N < [ N M M N d d N M d N N d M N d d d d [.N N 5 N d 5 d 5 5 d d ).[.5 ).N ' ).<.*.*.*.*.).` 5 [.o + !     ",
"    K . 8 {.; :., N c d M < b M < M d M [ [ [ M M d M d < b [ [ M 5 [ M d d M [ d M M N d d d 5 d N M N N N N N N ' 5 d [.5 [.5 5 )._ ).[.).).[.` )._ {.. C     ",
"      . + 4.o ; =.' ' d c 5 M b < M b < < d [ M < M < M d < b N < < 5 [ < d M d d d d d N d [ d d d d d 5 d 5 5 5 ).N ).[.d ).<.[.N ' 5 [.[.' [., =.;._.v       ",
"      ( &.8 _.;._ ` 0 c M [ [ [ [ < < N < M [ [ b [ b < [ d i [ M [ c [ [ M c c M [ d M [ d d d N M d d d N N d 5 5 5 d [.5 ).).' ).).[.=.' (.).[.).o }.C       ",
"        g }.4.o :.$.z m ~ : < M M < d i M < M e M M < M M < [ d [ [ M [ [ b 3 d N < ).[ N M M d M d 5 d d d 5 N [.N d [.d N ).).).*.N [.2 * #.).[.:.> $         ",
"        &.H 4.1.W ! Y I } M 4 4 3 } e c i < M < M M < d M < < M i M i [ < d [ < M d d [ c M e d M d M M 5 d d d 5 N d [.).N N N ' ' *.*.R ].@.z n o + v         ",
"          U &.g ! I %.>.0 3 '.'.~ '.e 4 3 < i M < M [ < d i [ b e [ < [ i [ i 5 i < 5 [ d N M d c M d M d M d d d d M N 3 ' 0 ~ 0 ~ ' 0 c #.I 1 v W (           ",
"          &.y H x $.=.: b 3 4 4 n n 4 e '.e i i i [ [ [ d < M d < [ d e M [ < < M e b d < b M < N [ [ d [ d b d d c 0 a 3 n 0 q 0 q ' b 5 N a W g ) v           ",
"            C ) > ; =.=.a q '.n '.4 n 4 4 '.e e [ i i c e i M < i i [ < < i M i [ M < 5 d d < d [ N M M [ d [ [ d '.0 '.0 ~ '.4 L L ~ N ` ' ; (.@ !             ",
"            ^.y + {.; _ , q !.n !.!.n '.n e 4 !.e i i i M i < d e c < [ c [ < M < d < [ < d [ M i b < [ [ M < L 3 4 a 4 n q n !.L a 4 ~ - ' :.] g 3.            ",
"              y @.2.{.; X $.} n n n P n P j !.4 e '.i i i i [ e d i d i i e e M < < d c M < < i d < M M d < b e 0 '.4 !.!.} -.>.q n a a $.{ _.& @.              ",
"                T g 2.o { ` !.4 n E n P 4 ,.n 4 >.!.e '.e i < i i i [ M < d < < [ < < < < d < [ [ b e [ e 3 4 4 4 n 4 n n '.n n L q a $.=.;.^ %                 ",
"                  Z 7 _.; <.0 !.-.>.,.>.S ,.S S S S e !.!.e i e e i i < i < c i [ [ d < d [ e < [ i d '.e q '.!.n n !.-.n >.n >.n c : *._.6 p                   ",
"                    B x _.; ' ~ n >.'.,.S S A A S D 4 S 4 f 4 i e e e < < i e M < < i 3 i 4 d i < 3 } } } n n n !.4 n >.n n n -.-.L ' (.> U                     ",
"                    Z y @ {.- $.q n P S D S P A '.S A j >.S S S e e i i i i < i e i [ e c [ < '.e 4 4 4 n !.!.n P P n n q >.n 0 0 0 - = g Z                     ",
"                      T @.+ {.{.$.-.4 '.S >.2 A E A S E j E S ,.j S E '.f e e i e e i i e '.q '.n '.n !.P >.>.n >.,.,.n n n n ~ 9 ] 1.g Z                       ",
"                          y x 1.o *.~ >.!.E Q z A P A E ,.S E A S A !.S E S E P S S P f 4 '.} } A >.P P D ,.,.2 Q V D >.n L a ' { 8 ~.                          ",
"                            y x ] - : a -.>.| 1 s j ,.S ,.2 A A } 2 f 2 A } E ,.P 2 j j P n P '.A S ,.P P P n 2 | % W P >.9 -.{.6 K                             ",
"                              Z &.8 4.9 O V Y I ,.P P E ,.j S E A j A j j E 2 j S S A 2 A A ,.E A P ,.P >.D ,.S h 1 ) J -.> 4.}.C                               ",
"                                Y U + {.-.! ! R } P >.n P S A E 2 E S A A E 2 S j E A ,.,.,.,.n ,.A S >.E n >.!.2 ) @.h 9 2.+.@.                                ",
"                                    @.7 * ].7 G e n n n >.S ,.D j A A S ,.P A P r P P ,.A P S !.>.j >.P >.n >.L a %.1 ( %.K                                     ",
"                                      Y % ( J o 9 O L 4 -.n '.4 >.4 S S D j S V | R ,.P ,.P ,.A >.!.!.!.q q L $.: ] h l y                                       ",
"                                          % ) + 4.{.a 0 ~ a >.!.n !.n !.n n E p 3.2 '.>.>.>.n >.!.n L : q ' ` - 6 / 3.                                          ",
"                                              Z U }.8 > ] O (.L ' ~ q n n !.'.) %  .f 0 S !.>.D ~ $.O O 1.1.8 . @.                                              ",
"                                                    H . @ > ] o X X ` : N b ~ ) 1 >.0 $.q 0 O X - - ] J }.~.                                                    ",
"                                                          l &.}.+ 1.> > ] ] X ) 5.w X ] ] ] > 2.}.+.K                                                           ",
"                                                                    ~.$ . . h g p &.& . g H                                                                     "};
