/* XPM */
static char *karo_jack[] = {
/* width height ncolors chars_per_pixel */
"71 96 6 1",
/* colors */
"  c #000000",
". c #FF00FF",
"X c #FF0000",
"o c #FFFFFF",
"O c #FFFF00",
"+ c None",
/* pixels */
"                                                                       ",
"                                                                       ",
"  ooooooooooooooooooooooooooooooooooooooooooooooooooooooooooooooooooo  ",
" ooooooooooooooooooooooooooooooooooooooooooooooooooooooooooooooooooooo ",
" oooooXXXXoooooooooooooooooooooooooooooooooooooooooooooooooooooooooooo ",
" oooooXXXXoooooooooooooooooooooooooooooooooooooooooooooooooooooooooooo ",
" ooooooXXooooooooooooooooooooooooooooooooooooooooooooooooooooooooooooo ",
" ooooooXXooooooooooooooooooooooooooooooooooooooooooooooooooooooooooooo ",
" ooooooXXooooooooooooooooooooooooooooooooooooooooooooooooooooooooooooo ",
" ooooooXXooooooooooooooooooooooooooooooooooooooooooooooooooooooooooooo ",
" ooooooXXooo                                               ooooooooooo ",
" ooooooXXooo                                               ooooooooooo ",
" ooXXooXXooo ooooooooo XoXXXoXXoXXoXXoXXoX  oooooooooooooo ooooooooooo ",
" ooXXooXXooo oooooooooo XoXXoXXoXXoXXoXoX  oooooooXooooooo ooooooooooo ",
" ooXXXXXXooo ooooooooooo XoooXXooooXXooX  oooooooXXXoooooo ooooooooooo ",
" oooXXXXoooo  ooooooooooo XXXXXXXXXXXXXX oooooooXXXXXooooo ooooooooooo ",
" ooooooooooo   oooooooooo                oooooo.XXXXX.oooo ooooooooooo ",
" ooooooooooo  O ooooooooo     O oooooooo  oooo.XXXXXXX.ooo ooooooooooo ",
" oooooXooooo  O ooooooooo   O O oooooooo  oooo.XXXXXXX.ooo ooooooooooo ",
" ooooXXXoooo  O ooooooooo O O O o   o    O ooXXXXXXXXXXXoo ooooooooooo ",
" ooo.XXX.ooo  O oooo oooo O O O  o   o   O oXXXXXXXXXXXXXo ooooooooooo ",
" oo.XXXXX.oo  O ooo  oooo O O O oooo ooo O ooXXXXXXXXXXXoo ooooooooooo ",
" ooXXXXXXXoo  O o  O oooo O O O oooo ooo O ooo.XXXXXXX.ooo ooooooooooo ",
" oo.XXXXX.oo     OO ooooo O O O oooo ooo O ooo.XXXXXXX.ooo ooooooooooo ",
" ooo.XXX.ooo XOOO   ooooo O O O ooo   oo O oooo.XXXXX.oooo ooooooooooo ",
" ooooXXXoooo  O    oooooo O O O oooooooo O   oooXXXXXooooo ooooooooooo ",
" oooooXooooo XO  oooooo  OO O O ooo   o oO OO oooXXXoooooo ooooooooooo ",
" ooooooooooo  O oooooo OO O O O  oooooo  OO O ooooXooooooo ooooooooooo ",
" ooooooooooo XO oooooo O  O  O Xo oooo oX OOO ooooooooooo  ooooooooooo ",
" ooooooooooo  O oooooo OOO OO XXXX    XXXX     ooooooooo X ooooooooooo ",
" ooooooooooo XO oooooo        XXXXXXXXXXX  o O   oooooo O  ooooooooooo ",
" ooooooooooo  O oooo  X   o     XXXXXXX      O o   oooo OX ooooooooooo ",
" ooooooooooo XO oo   O X    o             o  O   OO  oo O  ooooooooooo ",
" ooooooooooo  O       O X     o         o    O o OO X   OX ooooooooooo ",
" ooooooooooo XO        O X      o o o o   X  O    O XXX O  ooooooooooo ",
" ooooooooooo  O   X     O X             X X  OO o OO  X OX ooooooooooo ",
" ooooooooooo    o  X     O X  X X X X X X X o O    OOO  O  ooooooooooo ",
" ooooooooooo oo o O X     O X  XOXOXOXOXOXO o OO o   OO OX ooooooooooo ",
" ooooooooooo    o  O X     O X  X X X X X X o  OO  o    O  ooooooooooo ",
" ooooooooooo oo   O O X     O X   X X X X X o   OOO   o OX ooooooooooo ",
" ooooooooooo    XX O   O     O X  X X X X X o  o  OOO   O  ooooooooooo ",
" ooooooooooo o  oX O OO X     O X  XOXOXOXO o  o o  OOO OX ooooooooooo ",
" ooooooooooo  O XXX O   XO     O X  X X X X o  o  O     O  ooooooooooo ",
" ooooooooooo  O ooX O O XOX     O X   X X X o  o    O X OX ooooooooooo ",
" ooooooooooo XO XXX O   XOXO  o  O X  X X X o  o OO O o O  ooooooooooo ",
" ooooooooooo  O ooX O O XOX      XO X  XOXO    o   O XX OX ooooooooooo ",
" ooooooooooo XO XXX O   XO  o   OXXO X  X X     OO O Xo O  ooooooooooo ",
" ooooooooooo  O ooX O O X      X OXXO X  X  o     O XXX OX ooooooooooo ",
" ooooooooooo XO XXX O     o     X OXXO X      X O O Xoo O  ooooooooooo ",
" ooooooooooo  O oX O O      X X  X OXXO   o  OX   O XXX OX ooooooooooo ",
" ooooooooooo XO XX O   o    OXOX  X OX      XOX O O Xoo O  ooooooooooo ",
" ooooooooooo  O o O OO o  o X X X  X O  o  OXOX   O XXX OX ooooooooooo ",
" ooooooooooo XO X O    o  o X X X   X O     XOX O O Xoo O  ooooooooooo ",
" ooooooooooo  O     O  o  o X X X X  X O     OX   O XXX O  ooooooooooo ",
" ooooooooooo XO OOO  o o  o OXOXOXOX  X O     X OO O Xo  o ooooooooooo ",
" ooooooooooo  O   OOO  o  o X X X X X  X O     O   O XX    ooooooooooo ",
" ooooooooooo XO o   OOO   o X X X X X   X O     X O O   oo ooooooooooo ",
" ooooooooooo  O    o  OO  o X X X X X X  X O     X O  o    ooooooooooo ",
" ooooooooooo XO OO   o OO o OXOXOXOXOXOX  X O     X O o oo ooooooooooo ",
" ooooooooooo  O  OOO    O o X X X X X X X  X O     X  o    ooooooooooo ",
" ooooooooooo XO X  OO o OO  X X             X O     X   O  ooooooooooo ",
" ooooooooooo  O XXX O    O  X   o o o o      X O        OX ooooooooooo ",
" ooooooooooo XO   X OO o O    o         o     X O       O  ooooooooooo ",
" ooooooooooo  O oo  OO   O  o             o    X O   oo OX ooooooooooo ",
" ooooooooooo XO oooo   o O      XXXXXXX     o   X  oooo O  ooooooooooo ",
" ooooooooooo  O oooooo   O o  XXXXXXXXXXX        oooooo OX ooooooooooo ",
" ooooooooooo X ooooooooo     XXXX    XXXX OO OOO oooooo O  ooooooooooo ",
" ooooooooooo  ooooooooooo OOO Xo oooo oX O  O  O oooooo OX ooooooooooo ",
" ooooooooooo oooooooXoooo O OO  oooooo  O O O OO oooooo O  ooooooooooo ",
" ooooooooooo ooooooXXXooo OO Oo o   ooo O O OO  oooooo  OX oooooXooooo ",
" ooooooooooo oooooXXXXXooo   O oooooooo O O O oooooo    O  ooooXXXoooo ",
" ooooooooooo oooo.XXXXX.oooo O oo   ooo O O O ooooo   OOOX ooo.XXX.ooo ",
" ooooooooooo ooo.XXXXXXX.ooo O ooo oooo O O O ooooo OO     oo.XXXXX.oo ",
" ooooooooooo ooo.XXXXXXX.ooo O ooo oooo O O O oooo O  o O  ooXXXXXXXoo ",
" ooooooooooo ooXXXXXXXXXXXoo O ooo oooo O O O oooo  ooo O  oo.XXXXX.oo ",
" ooooooooooo oXXXXXXXXXXXXXo O   o   o  O O O oooo oooo O  ooo.XXX.ooo ",
" ooooooooooo ooXXXXXXXXXXXoo O    o   o O O O ooooooooo O  ooooXXXoooo ",
" ooooooooooo ooo.XXXXXXX.oooo  oooooooo O O   ooooooooo O  oooooXooooo ",
" ooooooooooo ooo.XXXXXXX.oooo  oooooooo O     ooooooooo O  ooooooooooo ",
" ooooooooooo oooo.XXXXX.oooooo                oooooooooo   ooooooooooo ",
" ooooooooooo oooooXXXXXooooooo XXXXXXXXXXXXXX ooooooooooo  ooooXXXXooo ",
" ooooooooooo ooooooXXXooooooo  XooXXooooXXoooX ooooooooooo oooXXXXXXoo ",
" ooooooooooo oooooooXooooooo  XoXoXXoXXoXXoXXoX oooooooooo oooXXooXXoo ",
" ooooooooooo oooooooooooooo  XoXXoXXoXXoXXoXXXoX ooooooooo oooXXooXXoo ",
" ooooooooooo                                               oooXXoooooo ",
" ooooooooooo                                               oooXXoooooo ",
" oooooooooooooooooooooooooooooooooooooooooooooooooooooooooooooXXoooooo ",
" oooooooooooooooooooooooooooooooooooooooooooooooooooooooooooooXXoooooo ",
" oooooooooooooooooooooooooooooooooooooooooooooooooooooooooooooXXoooooo ",
" oooooooooooooooooooooooooooooooooooooooooooooooooooooooooooooXXoooooo ",
" ooooooooooooooooooooooooooooooooooooooooooooooooooooooooooooXXXXooooo ",
" ooooooooooooooooooooooooooooooooooooooooooooooooooooooooooooXXXXooooo ",
" ooooooooooooooooooooooooooooooooooooooooooooooooooooooooooooooooooooo ",
"  ooooooooooooooooooooooooooooooooooooooooooooooooooooooooooooooooooo  ",
"                                                                       ",
"                                                                       "
};
