/* XPM */
static char * deu_xpm[] = {
"27 18 3 1",
" 	c #000000",
".	c #DB000D",
"+	c #F9D90F",
"                           ",
"                           ",
"                           ",
"                           ",
"                           ",
"                           ",
"...........................",
"...........................",
"...........................",
"...........................",
"...........................",
"...........................",
"+++++++++++++++++++++++++++",
"+++++++++++++++++++++++++++",
"+++++++++++++++++++++++++++",
"+++++++++++++++++++++++++++",
"+++++++++++++++++++++++++++",
"+++++++++++++++++++++++++++"};
