/* XPM */
static char *karo_six[] = {
/* width height ncolors chars_per_pixel */
"71 96 4 1",
/* colors */
"  c #000000",
". c #FF0000",
"X c #FFFFFF",
"o c None",
/* pixels */
"                                                                       ",
"                                                                       ",
"  XXXXXXXXXXXXXXXXXXXXXXXXXXXXXXXXXXXXXXXXXXXXXXXXXXXXXXXXXXXXXXXXXXX  ",
" XXXXXXXXXXXXXXXXXXXXXXXXXXXXXXXXXXXXXXXXXXXXXXXXXXXXXXXXXXXXXXXXXXXXX ",
" XXXXX....XXXXXXXXXXXXXXXXXXXXXXXXXXXXXXXXXXXXXXXXXXXXXXXXXXXXXXXXXXXX ",
" XXXX.....XXXXXXXXXXXXXXXXXXXXXXXXXXXXXXXXXXXXXXXXXXXXXXXXXXXXXXXXXXXX ",
" XXX...XXXXXXXXXXXXXXXXXXXXXXXXXXXXXXXXXXXXXXXXXXXXXXXXXXXXXXXXXXXXXXX ",
" XXX..XXXXXXXXXXXXXXXXXXXXXXXXXXXXXXXXXXXXXXXXXXXXXXXXXXXXXXXXXXXXXXXX ",
" XXX......XXXXXXXXXXXXXXXXXXXXXXXXXXXXXXXXXXXXXXXXXXXXXXXXXXXXXXXXXXXX ",
" XXX.......XXXXXXXXXXXXXXXXXXXXXXXXXXXXXXXXXXXXXXXXXXXXXXXXXXXXXXXXXXX ",
" XXX..XXX..XXXXXXXXXX.XXXXXXXXXXXXXXXXXXXXXXXXXXX.XXXXXXXXXXXXXXXXXXXX ",
" XXX..XXX..XXXXXXXXX...XXXXXXXXXXXXXXXXXXXXXXXXX...XXXXXXXXXXXXXXXXXXX ",
" XXX..XXX..XXXXXXXX.....XXXXXXXXXXXXXXXXXXXXXXX.....XXXXXXXXXXXXXXXXXX ",
" XXX..XXX..XXXXXXX.......XXXXXXXXXXXXXXXXXXXXX.......XXXXXXXXXXXXXXXXX ",
" XXX.......XXXXXX.........XXXXXXXXXXXXXXXXXXX.........XXXXXXXXXXXXXXXX ",
" XXXX.....XXXXXXX.........XXXXXXXXXXXXXXXXXXX.........XXXXXXXXXXXXXXXX ",
" XXXXXXXXXXXXXXX...........XXXXXXXXXXXXXXXXX...........XXXXXXXXXXXXXXX ",
" XXXXXXXXXXXXXX............XXXXXXXXXXXXXXXX.............XXXXXXXXXXXXXX ",
" XXXXX.XXXXXXXXX...........XXXXXXXXXXXXXXXXX...........XXXXXXXXXXXXXXX ",
" XXXX...XXXXXXXXX.........XXXXXXXXXXXXXXXXXXX.........XXXXXXXXXXXXXXXX ",
" XXX.....XXXXXXXX.........XXXXXXXXXXXXXXXXXXX.........XXXXXXXXXXXXXXXX ",
" XX.......XXXXXXXX.......XXXXXXXXXXXXXXXXXXXXX.......XXXXXXXXXXXXXXXXX ",
" XX.......XXXXXXXXX.....XXXXXXXXXXXXXXXXXXXXXXX.....XXXXXXXXXXXXXXXXXX ",
" XX.......XXXXXXXXXX...XXXXXXXXXXXXXXXXXXXXXXXXX...XXXXXXXXXXXXXXXXXXX ",
" XXX.....XXXXXXXXXXXX.XXXXXXXXXXXXXXXXXXXXXXXXXXX.XXXXXXXXXXXXXXXXXXXX ",
" XXXX...XXXXXXXXXXXXXXXXXXXXXXXXXXXXXXXXXXXXXXXXXXXXXXXXXXXXXXXXXXXXXX ",
" XXXXX.XXXXXXXXXXXXXXXXXXXXXXXXXXXXXXXXXXXXXXXXXXXXXXXXXXXXXXXXXXXXXXX ",
" XXXXXXXXXXXXXXXXXXXXXXXXXXXXXXXXXXXXXXXXXXXXXXXXXXXXXXXXXXXXXXXXXXXXX ",
" XXXXXXXXXXXXXXXXXXXXXXXXXXXXXXXXXXXXXXXXXXXXXXXXXXXXXXXXXXXXXXXXXXXXX ",
" XXXXXXXXXXXXXXXXXXXXXXXXXXXXXXXXXXXXXXXXXXXXXXXXXXXXXXXXXXXXXXXXXXXXX ",
" XXXXXXXXXXXXXXXXXXXXXXXXXXXXXXXXXXXXXXXXXXXXXXXXXXXXXXXXXXXXXXXXXXXXX ",
" XXXXXXXXXXXXXXXXXXXXXXXXXXXXXXXXXXXXXXXXXXXXXXXXXXXXXXXXXXXXXXXXXXXXX ",
" XXXXXXXXXXXXXXXXXXXXXXXXXXXXXXXXXXXXXXXXXXXXXXXXXXXXXXXXXXXXXXXXXXXXX ",
" XXXXXXXXXXXXXXXXXXXXXXXXXXXXXXXXXXXXXXXXXXXXXXXXXXXXXXXXXXXXXXXXXXXXX ",
" XXXXXXXXXXXXXXXXXXXXXXXXXXXXXXXXXXXXXXXXXXXXXXXXXXXXXXXXXXXXXXXXXXXXX ",
" XXXXXXXXXXXXXXXXXXXXXXXXXXXXXXXXXXXXXXXXXXXXXXXXXXXXXXXXXXXXXXXXXXXXX ",
" XXXXXXXXXXXXXXXXXXXXXXXXXXXXXXXXXXXXXXXXXXXXXXXXXXXXXXXXXXXXXXXXXXXXX ",
" XXXXXXXXXXXXXXXXXXXXXXXXXXXXXXXXXXXXXXXXXXXXXXXXXXXXXXXXXXXXXXXXXXXXX ",
" XXXXXXXXXXXXXXXXXXXXXXXXXXXXXXXXXXXXXXXXXXXXXXXXXXXXXXXXXXXXXXXXXXXXX ",
" XXXXXXXXXXXXXXXXXXXXXXXXXXXXXXXXXXXXXXXXXXXXXXXXXXXXXXXXXXXXXXXXXXXXX ",
" XXXXXXXXXXXXXXXXXXXXXXXXXXXXXXXXXXXXXXXXXXXXXXXXXXXXXXXXXXXXXXXXXXXXX ",
" XXXXXXXXXXXXXXXXXXXX.XXXXXXXXXXXXXXXXXXXXXXXXXXX.XXXXXXXXXXXXXXXXXXXX ",
" XXXXXXXXXXXXXXXXXXX...XXXXXXXXXXXXXXXXXXXXXXXXX...XXXXXXXXXXXXXXXXXXX ",
" XXXXXXXXXXXXXXXXXX.....XXXXXXXXXXXXXXXXXXXXXXX.....XXXXXXXXXXXXXXXXXX ",
" XXXXXXXXXXXXXXXXX.......XXXXXXXXXXXXXXXXXXXXX.......XXXXXXXXXXXXXXXXX ",
" XXXXXXXXXXXXXXXX.........XXXXXXXXXXXXXXXXXXX.........XXXXXXXXXXXXXXXX ",
" XXXXXXXXXXXXXXXX.........XXXXXXXXXXXXXXXXXXX.........XXXXXXXXXXXXXXXX ",
" XXXXXXXXXXXXXXX...........XXXXXXXXXXXXXXXXX...........XXXXXXXXXXXXXXX ",
" XXXXXXXXXXXXXX............XXXXXXXXXXXXXXXX.............XXXXXXXXXXXXXX ",
" XXXXXXXXXXXXXXX...........XXXXXXXXXXXXXXXXX...........XXXXXXXXXXXXXXX ",
" XXXXXXXXXXXXXXXX.........XXXXXXXXXXXXXXXXXXX.........XXXXXXXXXXXXXXXX ",
" XXXXXXXXXXXXXXXX.........XXXXXXXXXXXXXXXXXXX.........XXXXXXXXXXXXXXXX ",
" XXXXXXXXXXXXXXXXX.......XXXXXXXXXXXXXXXXXXXXX.......XXXXXXXXXXXXXXXXX ",
" XXXXXXXXXXXXXXXXXX.....XXXXXXXXXXXXXXXXXXXXXXX.....XXXXXXXXXXXXXXXXXX ",
" XXXXXXXXXXXXXXXXXXX...XXXXXXXXXXXXXXXXXXXXXXXXX...XXXXXXXXXXXXXXXXXXX ",
" XXXXXXXXXXXXXXXXXXXX.XXXXXXXXXXXXXXXXXXXXXXXXXXX.XXXXXXXXXXXXXXXXXXXX ",
" XXXXXXXXXXXXXXXXXXXXXXXXXXXXXXXXXXXXXXXXXXXXXXXXXXXXXXXXXXXXXXXXXXXXX ",
" XXXXXXXXXXXXXXXXXXXXXXXXXXXXXXXXXXXXXXXXXXXXXXXXXXXXXXXXXXXXXXXXXXXXX ",
" XXXXXXXXXXXXXXXXXXXXXXXXXXXXXXXXXXXXXXXXXXXXXXXXXXXXXXXXXXXXXXXXXXXXX ",
" XXXXXXXXXXXXXXXXXXXXXXXXXXXXXXXXXXXXXXXXXXXXXXXXXXXXXXXXXXXXXXXXXXXXX ",
" XXXXXXXXXXXXXXXXXXXXXXXXXXXXXXXXXXXXXXXXXXXXXXXXXXXXXXXXXXXXXXXXXXXXX ",
" XXXXXXXXXXXXXXXXXXXXXXXXXXXXXXXXXXXXXXXXXXXXXXXXXXXXXXXXXXXXXXXXXXXXX ",
" XXXXXXXXXXXXXXXXXXXXXXXXXXXXXXXXXXXXXXXXXXXXXXXXXXXXXXXXXXXXXXXXXXXXX ",
" XXXXXXXXXXXXXXXXXXXXXXXXXXXXXXXXXXXXXXXXXXXXXXXXXXXXXXXXXXXXXXXXXXXXX ",
" XXXXXXXXXXXXXXXXXXXXXXXXXXXXXXXXXXXXXXXXXXXXXXXXXXXXXXXXXXXXXXXXXXXXX ",
" XXXXXXXXXXXXXXXXXXXXXXXXXXXXXXXXXXXXXXXXXXXXXXXXXXXXXXXXXXXXXXXXXXXXX ",
" XXXXXXXXXXXXXXXXXXXXXXXXXXXXXXXXXXXXXXXXXXXXXXXXXXXXXXXXXXXXXXXXXXXXX ",
" XXXXXXXXXXXXXXXXXXXXXXXXXXXXXXXXXXXXXXXXXXXXXXXXXXXXXXXXXXXXXXXXXXXXX ",
" XXXXXXXXXXXXXXXXXXXXXXXXXXXXXXXXXXXXXXXXXXXXXXXXXXXXXXXXXXXXXXXXXXXXX ",
" XXXXXXXXXXXXXXXXXXXXXXXXXXXXXXXXXXXXXXXXXXXXXXXXXXXXXXXXXXXXXXX.XXXXX ",
" XXXXXXXXXXXXXXXXXXXXXXXXXXXXXXXXXXXXXXXXXXXXXXXXXXXXXXXXXXXXXX...XXXX ",
" XXXXXXXXXXXXXXXXXXXX.XXXXXXXXXXXXXXXXXXXXXXXXXXX.XXXXXXXXXXXX.....XXX ",
" XXXXXXXXXXXXXXXXXXX...XXXXXXXXXXXXXXXXXXXXXXXXX...XXXXXXXXXX.......XX ",
" XXXXXXXXXXXXXXXXXX.....XXXXXXXXXXXXXXXXXXXXXXX.....XXXXXXXXX.......XX ",
" XXXXXXXXXXXXXXXXX.......XXXXXXXXXXXXXXXXXXXXX.......XXXXXXXX.......XX ",
" XXXXXXXXXXXXXXXX.........XXXXXXXXXXXXXXXXXXX.........XXXXXXXX.....XXX ",
" XXXXXXXXXXXXXXXX.........XXXXXXXXXXXXXXXXXXX.........XXXXXXXXX...XXXX ",
" XXXXXXXXXXXXXXX...........XXXXXXXXXXXXXXXXX...........XXXXXXXXX.XXXXX ",
" XXXXXXXXXXXXXX............XXXXXXXXXXXXXXXX.............XXXXXXXXXXXXXX ",
" XXXXXXXXXXXXXXX...........XXXXXXXXXXXXXXXXX...........XXXXXXXXXXXXXXX ",
" XXXXXXXXXXXXXXXX.........XXXXXXXXXXXXXXXXXXX.........XXXXXXX.....XXXX ",
" XXXXXXXXXXXXXXXX.........XXXXXXXXXXXXXXXXXXX.........XXXXXX.......XXX ",
" XXXXXXXXXXXXXXXXX.......XXXXXXXXXXXXXXXXXXXXX.......XXXXXXX..XXX..XXX ",
" XXXXXXXXXXXXXXXXXX.....XXXXXXXXXXXXXXXXXXXXXXX.....XXXXXXXX..XXX..XXX ",
" XXXXXXXXXXXXXXXXXXX...XXXXXXXXXXXXXXXXXXXXXXXXX...XXXXXXXXX..XXX..XXX ",
" XXXXXXXXXXXXXXXXXXXX.XXXXXXXXXXXXXXXXXXXXXXXXXXX.XXXXXXXXXX..XXX..XXX ",
" XXXXXXXXXXXXXXXXXXXXXXXXXXXXXXXXXXXXXXXXXXXXXXXXXXXXXXXXXXX.......XXX ",
" XXXXXXXXXXXXXXXXXXXXXXXXXXXXXXXXXXXXXXXXXXXXXXXXXXXXXXXXXXXX......XXX ",
" XXXXXXXXXXXXXXXXXXXXXXXXXXXXXXXXXXXXXXXXXXXXXXXXXXXXXXXXXXXXXXXX..XXX ",
" XXXXXXXXXXXXXXXXXXXXXXXXXXXXXXXXXXXXXXXXXXXXXXXXXXXXXXXXXXXXXXX...XXX ",
" XXXXXXXXXXXXXXXXXXXXXXXXXXXXXXXXXXXXXXXXXXXXXXXXXXXXXXXXXXXX.....XXXX ",
" XXXXXXXXXXXXXXXXXXXXXXXXXXXXXXXXXXXXXXXXXXXXXXXXXXXXXXXXXXXX....XXXXX ",
" XXXXXXXXXXXXXXXXXXXXXXXXXXXXXXXXXXXXXXXXXXXXXXXXXXXXXXXXXXXXXXXXXXXXX ",
"  XXXXXXXXXXXXXXXXXXXXXXXXXXXXXXXXXXXXXXXXXXXXXXXXXXXXXXXXXXXXXXXXXXX  ",
"                                                                       ",
"                                                                       "
};
