/* XPM */
static char *karo_king[] = {
/* width height ncolors chars_per_pixel */
"71 96 7 1",
/* colors */
"  c #000000",
". c #FF00FF",
"X c #FF0000",
"o c #FFFFFF",
"O c #FFFF00",
"+ c #0000FF",
"@ c None",
/* pixels */
"                                                                       ",
"                                                                       ",
"  ooooooooooooooooooooooooooooooooooooooooooooooooooooooooooooooooooo  ",
" ooooooooooooooooooooooooooooooooooooooooooooooooooooooooooooooooooooo ",
" oXXXXoXXXXooooooooooooooooooooooooooooooooooooooooooooooooooooooooooo ",
" oXXXXoXXXXooooooooooooooooooooooooooooooooooooooooooooooooooooooooooo ",
" ooXXooXXooooooooooooooooooooooooooooooooooooooooooooooooooooooooooooo ",
" ooXXoXXoooooooooooooooooooooooooooooooooooooooooooooooooooooooooooooo ",
" ooXXXXooooooooooooooooooooooooooooooooooooooooooooooooooooooooooooooo ",
" ooXXXoooooooooooooooooooooooooooooooooooooooooooooooooooooooooooooooo ",
" ooXXXXooooo                                               ooooooooooo ",
" ooXXoXXoooo                                               ooooooooooo ",
" ooXXooXXooo ooooooooooooo OOOO OOO OOOOOOOOOOOOO oooooooo ooooooooooo ",
" ooXXoooXXoo oooooooXoooooo OO   O   OO OOOOOOOO ooo   oo  ooooooooooo ",
" oXXXXoXXXXo ooooooXXXoooooo XXXXXXXXO   OO OOO ooo O oo X ooooooooooo ",
" oXXXXoXXXXo oooooXXXXXooooo         XXXXO   O  oo OO oo X ooooooooooo ",
" ooooooooooo oooo.XXXXX.ooooo            XXXXX ooo OO oo X ooooooooooo ",
" ooooooooooo ooo.XXXXXXX.oooo oooooo  o        oo OO o     ooooooooooo ",
" oooooXooooo ooo.XXXXXXX.oooo o  ooo o o       oo O ooXoXo ooooooooooo ",
" ooooXXXoooo ooXXXXXXXXXXXooo   o oo o o o o o oo  oooXoXo ooooooooooo ",
" ooo.XXX.ooo oXXXXXXXXXXXXXoo+oooooo o o o o o oo O oo o o ooooooooooo ",
" oo.XXXXX.oo ooXXXXXXXXXXXoo ooooooo o o o o o oo OO o     ooooooooooo ",
" ooXXXXXXXoo ooo.XXXXXXX.oo oooooooo o o o o o ooo OO oo X ooooooooooo ",
" oo.XXXXX.oo ooo.XXXXXXX.oo  +ooooooo o o o o o oo OO oo X ooooooooooo ",
" ooo.XXX.ooo oooo.XXXXX.ooooo    o oo o o o o o ooo O oo X ooooooooooo ",
" ooooXXXoooo oooooXXXXXoooooo oo   ooo o o o o o ooo   o X ooooooooooo ",
" oooooXooooo ooooooXXXoooooooo  ooooooo o o o o o oooooo X ooooooooooo ",
" ooooooooooo oooooooXoooooooo oooooo   oo o o o o oooooo X ooooooooooo ",
" ooooooooooo oo   ooooooooooo  oooo ooo o o o o o oooooo X ooooooooooo ",
" ooooooooooo o o o   ooooo  o ooooo o  oo o o o o oooooo X ooooooooooo ",
" ooooooooooo o  o o o ooo o  oooooo  ooo o o o o ooooooo X ooooooooooo ",
" ooooooooooo   o o o o oo oooooooooo                oooo X ooooooooooo ",
" ooooooooooo  o o ooooo  O ooooo        OO ooo OO oo       ooooooooooo ",
" ooooooooooo o o oooo     O           o  OO o   OO oo OO o ooooooooooo ",
" ooooooooooo oo oo     XX  O   XX    o  o OO   o OO o  OO  ooooooooooo ",
" ooooooooooo ooo  X  O XX   O X XX                    o Oo ooooooooooo ",
" ooooooooooo o  XXXXX O  o  O XX X  OOOOOOOOOOOOOO         ooooooooooo ",
" ooooooooooo  XXXXX  O O  XX   XX  o o o o o o oo O        ooooooooooo ",
" ooooooooooo XXXX  OOOO O XX O   ooooooooooooooo O XX  oo  ooooooooooo ",
" ooooooooooo XX  OOOO    O   O ooo           oo O O XX  o  ooooooooooo ",
" ooooooooooo X OOOO      O o O o  OOOOOOOOOO o O  XO XX    ooooooooooo ",
" ooooooooooo  OOO     o  O   O  OO        O o O OO XO XX   ooooooooooo ",
" ooooooooooo OOO    ooo   O    O    XXXX O oo O  OO XO XX  ooooooooooo ",
" ooooooooooo OO XX   ooo  O   O   XXXXXX O o O    O        ooooooooooo ",
" ooooooooooo O X XX   oo  O   O         O oo O     XO XO X ooooooooooo ",
" ooooooooooo  OOX XX   o   O  O XXXXXXX O o O    O XO XO X ooooooooooo ",
" ooooooooooo  XOOX XX   o  O  O        O oo O  XXO X       ooooooooooo ",
" ooooooooooo XX XOOX           O ooooo O           XOOX XX ooooooooooo ",
" ooooooooooo XXX X   OXX  O oo O ooooo O   O     XX XOOX X ooooooooooo ",
" ooooooooooo       X OXX  O oo O       O   O  o   XX XOOX  ooooooooooo ",
" ooooooooooo X OX OX O    O o  XXXXXXXX O  O   o   XX XOO  ooooooooooo ",
" ooooooooooo X OX OX     O oo           O   O  oo   XX X O ooooooooooo ",
" ooooooooooo        O    O o O XXXXXX   O   O  ooo   XX OO ooooooooooo ",
" ooooooooooo  XX OX OO  O oo O XXXX    O    O   ooo    OOO ooooooooooo ",
" ooooooooooo   XX OX OO O o O        OO  O   O  o     OOO  ooooooooooo ",
" ooooooooooo    XX OX  O o OOOOOOOOOO    O   O      OOOO X ooooooooooo ",
" ooooooooooo  o  XX O O oo           ooo O   O    OOOO  XX ooooooooooo ",
" ooooooooooo  oo  XX O ooooooooooooooo   O XX O OOOO  XXXX ooooooooooo ",
" ooooooooooo        O oo o o o o o o  XX   XX  O O  XXXXX  ooooooooooo ",
" ooooooooooo         OOOOOOOOOOOOOO  X XX O  o  O XXXXX  o ooooooooooo ",
" ooooooooooo oO o                    XX X O   XX O  X  ooo ooooooooooo ",
" ooooooooooo  OO  o OO o   OO o  o    XX   O  XX     o  oo ooooooooooo ",
" ooooooooooo o OO oo OO   o OO  o           O     oooo   o ooooooooooo ",
" ooooooooooo       oo OO ooo OO        ooooo O  ooooo o o  ooooooooooo ",
" ooooooooooo X oooo                oooooooooo oo o o o o   ooooooooooo ",
" ooooooooooo X ooooooo o o o o ooo  oooooo  o ooo o o o  o ooooooooooo ",
" ooooooooooo X oooooo o o o o oo  o ooooo o  ooooo   o o o ooooooooooo ",
" ooooooooooo X oooooo o o o o o ooo oooo  ooooooooooo   oo ooooooooooo ",
" ooooooooooo X oooooo o o o o oo   oooooo ooooooooXooooooo ooooooooooo ",
" ooooooooooo X oooooo o o o o o ooooooo  ooooooooXXXoooooo oooooXooooo ",
" ooooooooooo X o   ooo o o o o o ooo   oo ooooooXXXXXooooo ooooXXXoooo ",
" ooooooooooo X oo O ooo o o o o o oo o    ooooo.XXXXX.oooo ooo.XXX.ooo ",
" ooooooooooo X oo OO oo o o o o o ooooooo+  oo.XXXXXXX.ooo oo.XXXXX.oo ",
" ooooooooooo X oo OO ooo o o o o o oooooooo oo.XXXXXXX.ooo ooXXXXXXXoo ",
" ooooooooooo     o OO oo o o o o o ooooooo ooXXXXXXXXXXXoo oo.XXXXX.oo ",
" ooooooooooo o o oo O oo o o o o o oooooo+ooXXXXXXXXXXXXXo ooo.XXX.ooo ",
" ooooooooooo oXoXooo  oo o o o o o oo o   oooXXXXXXXXXXXoo ooooXXXoooo ",
" ooooooooooo oXoXoo O oo       o o ooo  o oooo.XXXXXXX.ooo oooooXooooo ",
" ooooooooooo     o OO oo        o  oooooo oooo.XXXXXXX.ooo ooooooooooo ",
" ooooooooooo X oo OO ooo XXXXX            ooooo.XXXXX.oooo ooooooooooo ",
" ooooooooooo X oo OO oo  O   OXXXX         oooooXXXXXooooo oXXXXoXXXXo ",
" ooooooooooo X oo O ooo OOO OO   OXXXXXXXX ooooooXXXoooooo oXXXXoXXXXo ",
" ooooooooooo  oo   ooo OOOOOOOO OO   O   OO ooooooXooooooo ooXXoooXXoo ",
" ooooooooooo oooooooo OOOOOOOOOOOOO OOO OOOO ooooooooooooo oooXXooXXoo ",
" ooooooooooo                                               ooooXXoXXoo ",
" ooooooooooo                                               oooooXXXXoo ",
" ooooooooooooooooooooooooooooooooooooooooooooooooooooooooooooooooXXXoo ",
" oooooooooooooooooooooooooooooooooooooooooooooooooooooooooooooooXXXXoo ",
" ooooooooooooooooooooooooooooooooooooooooooooooooooooooooooooooXXoXXoo ",
" oooooooooooooooooooooooooooooooooooooooooooooooooooooooooooooXXooXXoo ",
" oooooooooooooooooooooooooooooooooooooooooooooooooooooooooooXXXXoXXXXo ",
" oooooooooooooooooooooooooooooooooooooooooooooooooooooooooooXXXXoXXXXo ",
" ooooooooooooooooooooooooooooooooooooooooooooooooooooooooooooooooooooo ",
"  ooooooooooooooooooooooooooooooooooooooooooooooooooooooooooooooooooo  ",
"                                                                       ",
"                                                                       "
};
