/* XPM */
static char * a_bottom_xpm[] = {
"150 14 80 1",
"c  c #FFFFFF",
" 	c #E7E7E7",
".	c #E9E9E9",
"+	c #ECECEC",
"@	c #EFEFEF",
"#	c #F2F2F2",
"$	c #F5F5F5",
"%	c #F7F7F7",
"&	c #F4F4F4",
"*	c #EDEDED",
"=	c #EAEAEA",
"-	c #E4E4E4",
";	c #E2E2E2",
">	c #FAFAFA",
",	c #E3E3E3",
"'	c #E2E1E1",
")	c #DDDDDD",
"!	c #DBDBDB",
"~	c #D4D4D4",
"{	c #CDCDCD",
"]	c #CACACA",
"^	c #C9C9C9",
"/	c #C2C2C2",
"(	c #C0C0C0",
"_	c #BDBDBD",
":	c #BABABA",
"<	c #B9B9B9",
"[	c #B5B5B5",
"}	c #B1B1B1",
"|	c #AFAFAF",
"1	c #FBFBFB",
"2	c #F6F6F6",
"3	c #F1F1F1",
"4	c #EBEBEB",
"5	c #E5E5E5",
"6	c #DEDEDE",
"7	c #D9D9D9",
"8	c #D3D2D2",
"9	c #C6C5C5",
"0	c #C1C1C1",
"a	c #B6B6B6",
"b	c #B4B4B4",
"d	c #FDFDFD",
"e	c #EEEEEE",
"f	c #E6E6E6",
"g	c #E0E0E0",
"h	c #DADADA",
"i	c #D3D3D3",
"j	c #CFCFCF",
"k	c #C8C8C8",
"l	c #C7C6C6",
"m	c #C4C4C4",
"n	c #C7C7C7",
"o	c #C3C3C3",
"p	c #F3F3F3",
"q	c #DFDFDF",
"r	c #D6D6D6",
"s	c #D6D5D5",
"t	c #D2D1D1",
"u	c #CCCCCC",
"v	c #BFBFBF",
"w	c #BBBBBB",
"x	c #DCDCDC",
"y	c #D8D8D8",
"z	c #BEBEBE",
"A	c #EBEAEA",
"B	c #E8E7E7",
"C	c #E3E2E2",
"D	c #DFDEDE",
"E	c #DAD9D9",
"F	c #DCDBDB",
"G	c #DBDADA",
"H	c #D9D8D8",
"I	c #D0D0D0",
"J	c #CECDCD",
"K	c #CCCACA",
"L	c #CAC9C9",
"M	c #C9C8C8",
"N	c #D7D6D6",
"O	c #D0CFCF",
"                                                                                                                                                      ",
"......................................................................................................................................................",
"++++++++++++++++++++++++++++++++++++++++++++++++++++++++++++++++++++++++++++++++++++++++++++++++++++++++++++++++++++++++++++++++++++++++++++++++++++++",
"@@@@@@@@@@@@@@@@@@@@@@@@@@@@@@@@@@@@@@@@@@@@@@@@@@@@@@@@@@@@@@@@@@@@@@@@@@@@@@@@@@@@@@@@@@@@@@@@@@@@@@@@@@@@@@@@@@@@@@@@@@@@@@@@@@@@@@@@@@@@@@@@@@@@@@",
"######################################################################################################################################################",
"$$$$$$$$$$$$$$$$$$$$$$$$$$$$$$$$$$$$$$$$$$$$$$$$$$$$$$$$$$$$$$$$$$$$$$$$$$$$$$$$$$$$$$$$$$$$$$$$$$$$$$$$$$$$$$$$$$$$$$$$$$$$$$$$$$$$$$$$$$$$$$$$$$$$$$",
"%%%%%%%%%%%%%%%%%%%%%%%%%%%%%%%%%%%%%%%%%%%%%%%%%%%%%%%%%%%%%%%%%%%%%####&*=========-;;;;;;;;;;;;;;;;;;;;;;;;;;;;;;;;;;;;;;;;;;;;;;;;;;;;;;;;;;;;;;;;;",
">>>>>>>>>>>>>>>>>>>>>>>>>>>>>>>>>>>>>>>>>>>>>>>%$#* ,')!~~{]^/((_:::<[[[[[}}}}}}}}}}||||||||||||||||||||||||||||||||||||||||||||||||||||||||||||||||||",
"11111111111111111111111111111111111112345678{90_:<abbbbb}}}}bbbbbbbbbbbbbbbbbbbbbbbbbaaaaaaaaaaaaaaaaaaaaaaaaaaaaaaaaaaaaaaaaaaaaaaaaaaaaaaaaaaaaaaaaa",
"cdddddddddddddddddddddddddddd1$efghij]kl9mmm999lllllkkkkkkkkkkkkkkkkkllllnmooooooooo0(((((((((((((((((((((((((((((((((((((((((((((((((((((((((((((((((",
"cddddddddddddddddddddddd1p*-q7rsi8iiissssrrrrrrs~itj{u]]nnmmo(vvv____wwwww::::::::::<<<<<<<<<<<<<<<<<<<<<<<<<<<<<<<<<<<<<<<<<<<<<<<<<<<<<<<<<<<<<<<<<<",
"cc$$$$$$$$$$$$$$$$$$#+fqx77777hhhhhhhyr~tju]k9o/0(vzzzzz____zzzzzzzzzzzzzzzzzzzzzzzzzvvvvvvvvvvvvvvvvvvvvvvvvvvvvvvvvvvvvvvvvvvvvvvvvvvvvvvvvvvvvvvvvv",
"cccAAAAAAAAAAAAAABCDE7EEEEFFFGHs8IJKLMll9999999lllllllllllllllllllllllllllllllllllllllllllllllllllllllllllllllllllllllllllllllllllllllllllllllllllllll",
"cccccBBBBBBBBBBBCgggggggqxGN~8tIOOOOOIIIIttttttttttttttttttttttttttttttttttttttttttttttttttttttttttttttttttttttttttttttttttttttttttttttttttttttttttttt"};
