/* XPM */
static char * b_button_blue_x_xpm[] = {
"1 39 25 1",
" 	c #F0F0F0",
".	c #D0CFCF",
"+	c #CECDCD",
"@	c #CBCACA",
"#	c #C9C8C8",
"$	c #C7C5C5",
"%	c #000085",
"&	c #0000F3",
"*	c #0000E8",
"=	c #0000DA",
"-	c #0000CB",
";	c #0000BA",
">	c #0000A9",
",	c #000096",
"'	c #000075",
")	c #000065",
"!	c #000057",
"~	c #00004C",
"{	c #B6B6C9",
"]	c #7F7B7B",
"^	c #7D7979",
"/	c #7B7777",
"(	c #7A7676",
"_	c #787474",
":	c #4D4A4A",
" ",
".",
"+",
"@",
"#",
"$",
"%",
"%",
"&",
"&",
"*",
"*",
"=",
"=",
"-",
"-",
";",
";",
">",
">",
",",
",",
"%",
"%",
"'",
"'",
")",
")",
"!",
"!",
"~",
"~",
"{",
"]",
"^",
"/",
"(",
"_",
":"};
