/* XPM */
static char * headertrenner_xpm[] = {
"1 16 14 1",
" 	c #848484",
".	c #FFFFFF",
"+	c #1A1A78",
"@	c #1A1AA4",
"#	c #7474B1",
"$	c #E6E6E6",
"%	c #DADADA",
"&	c #CCCCCC",
"*	c #C2C2C2",
"=	c #BCBCBC",
"-	c #BDBDBD",
";	c #C4C4C4",
">	c #FBFBFC",
",	c #D6D6D6",
" ",
".",
".",
"+",
"@",
"#",
"$",
"%",
"&",
"*",
"=",
"-",
"=",
";",
">",
","};
