/* XPM */
static char * audioleft_xpm[] = {
"27 18 2 1",
" 	c None",
".	c #B9C000",
"                           ",
"                           ",
"  .......................  ",
"  .......................  ",
"  ..                   ..  ",
"  ..   ....            ..  ",
"  ..  ......           ..  ",
"  .. ..    ..          ..  ",
"  .. ..    ..          ..  ",
"  .. ..    ..          ..  ",
"  .. ..    ..          ..  ",
"  ..  ......           ..  ",
"  ..   ....            ..  ",
"  ..                   ..  ",
"  .......................  ",
"  .......................  ",
"                           ",
"                           "};
