/* XPM */
static char * director_xpm[] = {
"80 80 8 1",
" 	c None",
".	c #1C2A60",
"+	c #385A96",
"@	c #5778AD",
"#	c #758FC4",
"$	c #91A8D2",
"%	c #ACBFDF",
"&	c #EAF0F8",
"                                                                                ",
"                                     $$$#$$                                     ",
"                               $###@@@@@@+@@@@###                               ",
"                           %$##@@@@++++.@@++++++@@@#$                           ",
"                         %$##@@++@+++.+.+.+.++.+++++@@#                         ",
"                       %$###++++@@#$%%%%%%%%$#@+++++++@@#                       ",
"                     %%$$#@++#$%&&&&&&&&&&&&&&&&%$@+..@++@#                     ",
"                   %%%$#@+@$&&&&&&&&&&&&&&&&&&&&&&&%$@.++++##                   ",
"                  %%%$#@#%&&&&&&&&&&&&&&&&&&&&&&&&&&&&%@++++@#                  ",
"                &%%%$@#%&&&&&&&&&&&&&&&&&&&&&&&&&&&&&&&&%@+@+@##                ",
"               %%&%##%&&&&&&&&&&&&&&&&&&&&&&&&&&&&&&&&&&&&$+.@@@#               ",
"              &&%$##&&&&&&&&&&&&&&&&&&&&&&&&&&&&&&&&&&&&&&&%@+++##              ",
"             &%%%#$&&&&&&&&&&&&&&&&&&&&&&&&&&&&&&&&&&&&&&&&&&#++@@#             ",
"            %&%%#%&&&&&&&&&&&&&&&&&&&&&&&&&&&&&&&&&&&&&&&&&&&&$++@@#            ",
"           &&%$#%&&&&&&&&&&&&&&&&&&&&&&&&&&&&&&&&&&&&&&&&&&&&&&%++@@#           ",
"          &%%$#%&&&&&&&&&&&&&&&&&&&&&&&&&&&&&&&&&&&&&&&&&&&&&&&&%+@@#$          ",
"         &%%%#%&&&&&&&&&&&&&&&&&&&&&&&&&&&&&&&&&&&&&&&&&&&&&&&&&&%++@@$         ",
"         %%%#%&&&&&&&&&&&&&&&&&&&&&&&&&&&&&&&&&&&&&&&&&&&&&&&&&&&&$++@#         ",
"        %&%#$&&&&&&&&&&&&&&&&&&&&&&&&&&&&&&&&&&$###+++++++++%&&&&&&#++@#        ",
"       %%%##&&&&&&&&&&&&&&&&&&&&&&&&&&&&#++....++++##%%#+@++++&&&&&&@+@#$       ",
"       %%$@&&&&&&&&&&&&&&&&&&&&&&&&&&&&##@++......+#%&$%++@...&&&&&&%++@#       ",
"      %%$@%&&&&&&&&&&&&&&&&$##++++++++++@.####.++++###........&&&&&&&$++@#      ",
"      %$##&&&&&&&&&&&&+....++++@+@+$+@+..@+#%$$....#%@@.......&&&&&&&&@+@#      ",
"     %$#@%&&&&&&&&&&&++....+...++##$#.@...+%%$.....$&&+....%+.&&&&&&&&%@+##     ",
"     $#@#&&&&&&&&&&&#..++@#$+......$&$....%#.+....+$&$....%%++$&&&&&&&&#@@#     ",
"    %$#+%&&&&&&&&&&$%+++%%$&+.....@%#.....#@+.....$&%@...#%$++#&&&&&&&&%+@@#    ",
"    $#@#&&&&&&&&&&&&$+@+&&&$+.....$@+....#@@#.....&$$+...@$#+@#&&&&&&&&&@+##    ",
"   %##+$&&&&&&&&&&&&&+.+&&&+.....%$$.....%$#.....++++...+#####&&&&&&&&&&$@@#%   ",
"   $#@+&&&&&&&&&&&&&#+..$&#.....+%#......##@......+@+..@.###@&&&&&&&&&&&%++##   ",
"   #@+#&&&&&&&&&&&&&%+..$%......##+........++##$&&&&&&&&&&&&&&&&&&&&&&&&&#+##   ",
"   #@+$&&&&&&&&&&&&&&+...........@###@@&&&&&&&&&&&&&&&&&&&&&&&&&&&&&&&&&&%+@#   ",
"  $@++&&&&&&&&&&&&&&&+...........+.@.@++++$$$$$#$$&&&&&&&&&&&&&&&&&&&&&&&%@+#$  ",
"  #@+@&&&&&&&&&&&&&&&$..........+@.....+++#%$%$%$##&&&&&&&&&&&&&&&&&&&&&&&@+#$  ",
"  #@+#&&&&&&&&&&&&&&#@@.+......+#++...+@+@+@#@#@#++..+++##&&&&&&&&&&&&&&&&#@##  ",
"  #@.#&&&&&&&&&&&&&$#+..%%#.....%%#.....@##++++@##++++@++++..+&&&&&&&&&&&&$+@#  ",
"  @@.%&&&&&&&&&&&&&&#+..@%&....+%%$+....#$#+....$%%&##++@++..+#&&&&&&&&&&&$+##  ",
"  @+.%&&&&&&&&&&&&&&&...+@#.....#@#@....@%+.....@$&$#....###+.+&&&&&&&&&&&%+@#  ",
" $@@+%&&&&&&&&&&&&&&&....@+......+#@.....%@$....+#@#@....$#++..&&&&&&&&&&&%@@#$ ",
" #@++%&&&&&&&&&&&&&&&.............@+.....#%$+.....++.@...$..@..&&&&&&&&&&&%@@#$ ",
" #@++%&&&&&&&&&&&&&&&......................@......$+$$....@..+.&&&&&&&&&&&%@@#$ ",
" $@++%&&&&&&&&&&&&&&++...++.+....++...............+.+.....++@++&&&&&&&&&&&%@@#$ ",
" #@+.%&&&&&&&&&&&&&#++...++@++@+.++.......................+$+++&&&&&&&&&&&%@@#$ ",
" $+++%&&&&&&&&&&&&&++@....@.+@.@++@..+++.....................+$&&&&&&&&&&&%@@#$ ",
"  @+.%&&&&&&&&&&&&&+++...++++@@+@++.++++.....++..............+&&&&&&&&&&&&%+##  ",
"  @++$&&&&&&&&&&&&&......++@.@.@.@++@+@+++..+++.............++&&&&&&&&&&&&%+##  ",
"  @@.#&&&&&&&&&&&&&.........@+@+@@.@+++++...................##&&&&&&&&&&&&$@##  ",
"  #++#&&&&&&&&&&&&&+.........+.++.@@.@+@+@+++++.............##&&&&&&&&&&&&#+##  ",
"  #@.+&&&&&&&&&&&&$+......+++@.+@.......+++@+@+.............@&&&&&&&&&&&&&#@#$  ",
"  #+++&&&&&&&&&&&&#+.....++@++.++...@+..............++++....&&&&&&&&&&&&&%@@#$  ",
"   @@.$&&&&&&&&&&&#++....+@+++.+@..++++++.+..........@+.....&&&&&&&&&&&&&%+##   ",
"   #+.@&&&&&&&&&&&#+@......+..+@.@++@+@+@+++................&&&&&&&&&&&&&#@##   ",
"   #@++&&&&&&&&&&&#++.......+@.@@.@+..........+++..........+&&&&&&&&&&&&%@@#$   ",
"   $+++$&&&&&&&&&&++........++@++@+..++++......+..........+#&&&&&&&&&&&&%@##%   ",
"    @+.@&&&&&&&&&&+@.................@+@+.................+$&&&&&&&&&&&&@@##    ",
"    #@+.%&&&&&&&&&.......++++...................++++++.....&&&&&&&&&&&&%@##$    ",
"     @++@&&&&&&&&&.......+@+@....................@+@++.....&&&&&&&&&&&&#+##     ",
"     #@++%&&&&&&&&+........................................&&&&&&&&&&&%@##$     ",
"      @@.@&&&&&&&&+......................................++&&&&&&&&&&&#@##      ",
"      #@++$&&&&&&&#+..@+.................................+#&&&&&&&&&&$+##$      ",
"       #@++&&&&&&&###++++................................##&&&&&&&&&%@@##       ",
"       #@++@&&&&&&&&&&&&&&&&&&&##+++.....................#$&&&&&&&&&#@##$       ",
"        #@++#&&&&&&&&&&&&&&&&&&&$#@+.........++..........#$&&&&&&&&$@##$        ",
"         #+@+$&&&&&&&&&&&&&&&&&&&&&&&&&%&%%$@++++........@&&&&&&&&$@###         ",
"         ##+@+%&&&&&&&&&&&&&&&&&&&&&&&&&&&&&&&&&&&&&&&%&&&&&&&&&&%@@##%         ",
"          #@++@&&&&&&&&&&&&&&&&&&&&&&&&&&&&&&&&&&&&&&&&&&&&&&&&&%@@##$          ",
"           ##+++&&&&&&&&&&&&&&&&&&&&&&&&&&&&&&&&&&&&&&&&&&&&&&&%@@##$           ",
"            #@@+@&&&&&&&&&&&&&&&&&&&&&&&&&&&&&&&&&&&&&&&&&&&&&$@@##$            ",
"             #@+++#&&&&&&&&&&&&&&&&&&&&&&&&&&&&&&&&&&&&&&&&&&$@@##$             ",
"              ##@++@&&&&&&&&&&&&&&&&&&&&&&&&&&&&&&&&&&&&&&&%#+###$              ",
"               ##@@+@&&&&&&&&&&&&&&&&&&&&&&&&&&&&&&&&&&&&&$@@###$               ",
"                $#@@++@&&&&&&&&&&&&&&&&&&&&&&&&&&&&&&&&&%#@@###$                ",
"                  ##@@++@&&&&&&&&&&&&&&&&&&&&&&&&&&&&&%#@@###$                  ",
"                   ##@@@@+@$&&&&&&&&&&&&&&&&&&&&&&&%$#+@@###$                   ",
"                     ##@@@@+@#$%&&&&&&&&&&&&&&&&%%#@@@####$                     ",
"                       ###@@@@+@@##%%%%%%%%%%##@@@@@####$                       ",
"                         ###@#@@+@@+@+@@@@+@+@@@#@####$                         ",
"                           $######@#@#@@@@#@#######$$                           ",
"                               $###############$$                               ",
"                                     $$$$$$                                     ",
"                                                                                "};
