/* XPM */
static char * laSexta_xpm[] = {
"80 80 14 1",
" 	c None",
".	c #0B1319",
"+	c #2B3940",
"@	c #4E5B62",
"#	c #969EA3",
"$	c #76D100",
"%	c #99D83A",
"&	c #C7CED1",
"*	c #AEE263",
"=	c #C1E787",
"-	c #D5EEAB",
";	c #E3F4C8",
">	c #F2F9E5",
",	c #FDFFFC",
"                                                                                ",
"                                      $$$                                       ",
"                                      $$*,                                      ",
"                                      $$-,-$$*                                  ",
"                                     $$*,>*$$%>                                 ",
"                                    $$$;,;%$$-,-%                               ",
"                                    $$=,>%$$*,>%$$                              ",
"                                   $$%>,*$$%;,=$$$                              ",
"                                   $$=,;$$$*>,*$$                               ",
"                                  $$%;,*$$%>,=$$                                ",
"                                 $$%-,;%$$=,;%$$                                ",
"                                 $$*,>%$$%;,*$$                                 ",
"                                $$$-,-$$$=,;%$$                                 ",
"                                $$=,>*$$*,>*$$                                  ",
"                               $$%>,=$$%;,-$$$                                  ",
"                               $$=,;%$$*,>*$$                                   ",
"                              $$*>>*$$%;,-$$                                    ",
"                             $$$-,;%$$=,>*$$                                    ",
"                             $$*,>*$$%>,=$$                                     ",
"                            $$$;,-$$$=,;%$$                                     ",
"                            $$*,>%$$*>,=$$                                      ",
"                           $$%;,=$$%;,;%$$                                      ",
"                           $$=,;%$$*,,=$$$$$$$$$$                               ",
"                          $$%>,*$$%;,;%$$$$$$$$$$$$                             ",
"                         $$$=,;%$$*,,;=========*%$$$                            ",
"                         $$%>>*$$%;,,,,,,,,,,,,,>*$$$                           ",
"                        $$$-,-$$$-,>-;;;;;;;;;;;,,=$$$                          ",
"                        $$*,;%$$*,>=$$$$$$$$$$$%=>,*$$                          ",
"                       $$$;,=$$$-,;%$$$$$$$$$$$$$-,-$$$                         ",
"                      $$$*,;%$$*>,-%%%%%%%%%%%$$$%>,*$$                         ",
"                      $$%;,=$$%;,,;-;;;;;;;;;;=$$$=,>%$$                        ",
"                     $$$-,-$$$*,,>>,,,,,,,,,,,>*$$%;,=$$                        ",
"                     $$*>>*$$%-,-************;,-%$$=,>%$$                       ",
"                    $$%-,-$$$=,;%$$$$$$$$$$$$%;,=$$$;,-$$$                      ",
"                    $$*,>%$$*>>*$$$$$$$$$$$$$$=,>%$$%>,*$$                      ",
"                   $$%;,=$$$-,-$$$          $$$;,=$$$-,;%$$                     ",
"                   $$*,;%$$%,>*$$            $$=,;%$$%>,*$$                     ",
"                  $$%>,*$$$-,-$$$            $$%-,-$$$-,;%$$                    ",
"                 $$$=,;%$$*,;%$$              $$%;,%$$%;,=$$                    ",
"                 $$*,>*$$$;,*$$                $$=,-$$$*,>%$$                   ",
"                 $$;,-$$$=,;%$$                $$%;,*$$$;,=$$                   ",
"                $$%,>%$$%>>*$$                  $$=,;%$$=,>%$$                  ",
"                $$*,;$$$-,-$$$                  $$%;,=$$%;,*$$                  ",
"                $$*,;$$%;,=$$                    $$-,=$$$-,*$$                  ",
"                $$%,;$$$=,;%$$                  $$%;,*$$%;,%$$                  ",
"                $$%>,*$$%-,=$$                 $$$=,;%$$=,;%$$                  ",
"                 $$=,-$$$*,;%$$                $$*>>%$$%;,*$$                   ",
"                 $$%>,=$$%-,-$$$              $$$-,=$$$=,;%$$                   ",
"                  $$*,;%$$*,>*$$              $$*>>%$$%>,*$$                    ",
"                  $$%;,=$$$=,;%$$            $$%;,=$$$-,=$$$                    ",
"                   $$*,;%$$%>,=$$            $$=,;%$$*,>%$$                     ",
"                   $$%;,-$$$=,;%$$          $$%>,*$$$-,-$$$                     ",
"                    $$%>>*$$%>,=$$$$$$$$$$$$$$-,;%$$=,>%$$                      ",
"                    $$$=,;$$$*>;*$$$$$$$$$$$$*>,*$$%>,*$$                       ",
"                     $$%>,*$$$-,>------------>,=$$$=,;%$$                       ",
"                      $$=,;%$$*>,,,,,,,,,,,,,,;%$$%;,*$$                        ",
"                      $$%;,=$$$*--==========-=*$$$-,;%$$                        ",
"                       $$%,>%$$$$$$$$$$$$$$$$$$$$*>>*$$                         ",
"                       $$$-,-$$$$$$$$$$$$$$$$$$$%;,=$$$                         ",
"                        $$%,,-*%%%%%%%%%%%%%%%%*;,>%$$                          ",
"                        $$$*,,>>>>>>>>>>>>>>>>>,,>*$$                           ",
"                         $$$*->>>>>>>>>>>>>>>>>;=%$$$                           ",
"                          $$$$$$$%%%%%%%%%%%%$$$$$$$                            ",
"                           $$$$$$$$$$$$$$$$$$$$$$$                              ",
"                             $$$$$$$$$$$$$$$$$$$                                ",
"                                                                                ",
"                                                                                ",
"                                                                                ",
"                                                                                ",
"                             @@@                                                ",
"                @          @+@@++                  +                            ",
"                @         @+                       @                            ",
"                @         @@                      @@@@                          ",
"                @  @.@@+@ @+@       ++@++  @+  +@ @+++  ++@++                   ",
"                @       +  ++++@    @   @@  @@@@   @        @@                  ",
"                @      @@      @+@  @   @@   +@    @        @@                  ",
"                @  @+@@@@        +  ++++@@   +@    @    ++@@+@                  ",
"                @  +    @        @  @       @@@    +   @@   @@                  ",
"                @  +@  @@  .@@@@+@  +@  @   +  +   @@@  +@ @+@                  ",
"                @   +++@@  @++++@   @+++@  +   @@   @+  @+++@@                  "};
