/* XPM */
static char * RNEC_xpm[] = {
"80 80 14 1",
" 	c None",
".	c #CB0000",
"+	c #C71A18",
"@	c #D14C46",
"#	c #D57F77",
"$	c #DEB1A9",
"%	c #DBBBA7",
"&	c #DABBAD",
"*	c #D8BDB5",
"=	c #D7C6BB",
"-	c #E9DCD7",
";	c #FBEDF0",
">	c #F6F2E9",
",	c #F8F6F6",
"               *$*****=****************$$$*$$****$**************                ",
"               **$&$$$&&%$$$$&&$$$$$$$****$**&**&%&*$&&$$&&$$&&*                ",
"               ->>>=$$*$&**-=-=&&&&&&&*->-$--&=*&%***--*$*&&*&&*                ",
"               --*--$*-*$*=---**=***$*>-->=>-*--*&***=-$*****-**                ",
"               --*;-*->>*;>,---*;;-$**,*$&*;-=-;-->;=--=;;**;--*                ",
"               -;>,*$=-,-;*-=;->-*>**=;*$&*>-*-;--;-*----*****,*                ",
"               ---;**;-;-;$;=;*>**>*&*>**-*----;-*-;-----&**;*;*                ",
"               --$;--;-;*;-;-;--;--***;--,*----;>-------;*=--*;*                ",
"               ==&=-=---*---=-=*--=*&&*->-$-==---*>-&==**-******                ",
"               **%*$$*&$$$&$&&$$&*&&&$$$&*$$$%$&&$%$$$&****&*&**                ",
"               ************************************************-                ",
"                                                                                ",
"               *=&%%%%%%&&&&&$$*$%$*=%$$$$$$$&&&$$&&&&&=&&**&$**                ",
"               *;,,,,,,,,,,,,,,>,;,,--&&&&&&$$*->,,,,,,,,;,,>,-*                ",
"               *>,,,,,,,,,,,,,,,,;-*##$$*****%&&*--;,,,,-*-,,,>*                ",
"               *,,,,,,,,,,,,,,>--&#@@#*--------**&$&-;;;=$&;,,>*                ",
"               *,,,,,,,,,,,,,;-*#++#&-;,,,,,,;;,-&$##$==$#&;,,-*                ",
"               *,,,,,,,,,,,,>-=@..@*->,,,,,,,>,;,>*$@+@+++%>,,-*                ",
"               *,,,,,,,,,;,-*$...@*->,,,,,,,,,,,,,,-=#...+$>,,;*                ",
"               *,,,,,,,,,,>=#....#-,,;,,,,,,,,,,,,,,-=@..+$>,;;*                ",
"               *,,,,,,,,,-*#....@&;,,;,,,,,,,,,,,,,,,-&+..#-,,;*                ",
"               *,,,,,,,,;*#+....#-,,,,,,,,,,,,,,,,,,,;-#..@-,,;*                ",
"               *,,,,,,,,-$+.....$-,,,>,,,,,,,,,,,,,,,,;=+.@-,,;*                ",
"               *,,,,,,;-=+.....+=;,;,>,,,,,,,,,,,,,,,,,=#.@=>,;*                ",
"               *,,,,,,--@......#-;,;,;,,,,,,,,,,,,,,,,,-$++$;,;*                ",
"               *;,,,,;-#.......$-,;>>;,,,,,,,;,,,,,,,,>,*@+$>,-*                ",
"               *,,;,,-&@.......$-,,,,;,,,,,,,,,,,,,,,,,,-#+$-,-*                ",
"               *,,;,,-#........*>,,,,,,,,,,,,,,,,,,,,,,,;$+#-,;*                ",
"               *,,;,;*@.......+=>,,,,,,,,,,,,,,,,,,,,;,,,&@#-,;*                ",
"               *>,,,-$+.......@-,,,,,,,,,,,,,,,,,,,,,;,,,-#$=,;*                ",
"               &=****#........@=&&**&&******$%&&&&*&&&%&*$%*$***                ",
"               &&$$=&@........@-------&&**=*********************                ",
"               *#++*%+........#-,,,,,-%-,,,,;***>,,,,,,,,,,,,,>*                ",
"               =#.+*$+........$=>----**-;-->>>*$-----------;--**                ",
"               =#++=#.........&$***&$$*=&$##***$$&&*******&*&***                ",
"               *#..=#.........$-;;;-*-;=#+++#**>**>;;;;;;;;;;;**                ",
"               =#..=#.........$-,;,-*,;$+....$>,=*,,,,,,,,,,,,>*                ",
"               =#++=#.........$&*$&&$=*$+++++#&$=$$*$$$$$$&&&*=*                ",
"               =#.+*#.........$-----*--$@.+++$******************                ",
"               =#..=#.........*-,,,-*->-$@++#=->**,,,,,,,,,,,,-*                ",
"               =#++=#.........&=&&*&&&*==$$$=&*=*************&=*                ",
"               =#++=#.........%*-----*$=------******************                ",
"               =#..=$+........$-,,,,,-$*;,,,,-=-,,>>,,,,,,,,,,;*                ",
"               *#++=*@........#=*****=&=&**&$*$**==**=****=**=&*                ",
"               *%##**@........@-*******=***=&*************$#&***                ",
"               *----=#........@-,,,,,,;,,;;,,,,,,>,,,,,,,-#@$,;*                ",
"               *,,;,;&+.......@-;,,,,,,,,,,,,,,,,,,,,,,,,*@@*,-*                ",
"               *,,,,,=@.......+=;,,;,,,,,,,,,,,,,,,,,;,,-%+#-,>*                ",
"               *,,,,,-$+.......*-,,;,,,,,,,,,,,,,,,,,,,,=#.#-,>*                ",
"               *,,,,,;-#.......$-,,,,,,,,,,,,,,,,,,,;,,;%+.#-,>*                ",
"               *,,,;;,-=+......@-,,,,,,,,,,,,,,,,,,;,,,=@.+$-,>*                ",
"               *,,,,,>>-%+.....+&-,,,;,,,,,,,,,,,,,,,>-#..+$,,-*                ",
"               *,,,,,,,;-#......$-,,,;,,,,,,,>,,,,;,>-&+..@$,,;*                ",
"               *,,,,,,,,,=#.....@=;,,,,,,,,,,,;,,>,,-=@...@*>,;*                ",
"               *,,,,,,,,;>=#....+$>,,,,,,,,,,;;>;,,-=@....@->,;*                ",
"               *,,,,,,,,,;;*#+...#=;;,;;,,,,;;>>,,-=@.....@->,-*                ",
"               *,,,,,,,,;,,;-%@...$->;;,,,,,,,,,;-%@.+##..#->,>*                ",
"               *,,,,,,,,,,,,;-=#+.+#-;,,,,,,,;,-*#@@#=--$@$-,,>*                ",
"               *,,,,,,,,,,,,,,--$#+@#*--;;>--==&$##=-;;,*#$;,;>*                ",
"               *;,,,,,,,;,;,,,,,-=&##$******&%&&$*-;;,,>-**-,,;*                ",
"               =>,,,,,,,,,,,,,,,,,,-************;,,,,,,,,;;,,,;*                ",
"               &***********************=***=********************                ",
"               **********************************************=**                ",
"                                                                                ",
"               ********************&****************************                ",
"               &$&&&&&&&&&&&&&&*******&*****&&**************$***                ",
"               *&***********&&&*;;,,,>;*&**&********************                ",
"               **************&&-,,>,,,,=********&***************                ",
"               ****************;,-&=;,,*********&***************                ",
"               ************&***,>=*,,-*&**&&********************                ",
"               ***********&&**-,--,,-*----=**--*****************                ",
"               ************&*=>,-,,-*;,,,,-*;,,-****************                ",
"               **********=&**-,-*,,&&,,-;,--,,,;****************                ",
"               **********&&*=,,==-,--,-*;>=;>->,-*****%&***=****                ",
"               **********&**-,,&**,,,,=-,,,,,,;,>&$$==*$=*&=****                ",
"               *************->-&**->>-*->,,,;>,,=+.+#=*=**&*****                ",
"               ***********===**&***==*&**->,-=--#...@&*****=****                ",
"               ****************&*&***$****,,,,,,#...@%*$***=****                ",
"               *********&***&&*=*&********->;;,>%@.+$=&&$=&=****                ",
"               *********&&**&&****&&**&&&&****&**=$*******&*****                "};
