/* XPM */
static char *herz_ten[] = {
/* width height ncolors chars_per_pixel */
"71 96 4 1",
/* colors */
"  c #000000",
". c #FF0000",
"X c #FFFFFF",
"o c None",
/* pixels */
"                                                                       ",
"                                                                       ",
"  XXXXXXXXXXXXXXXXXXXXXXXXXXXXXXXXXXXXXXXXXXXXXXXXXXXXXXXXXXXXXXXXXXX  ",
" XXXXXXXXXXXXXXXXXXXXXXXXXXXXXXXXXXXXXXXXXXXXXXXXXXXXXXXXXXXXXXXXXXXXX ",
" XX..XX....XXXXXXXXXXXXXXXXXXXXXXXXXXXXXXXXXXXXXXXXXXXXXXXXXXXXXXXXXXX ",
" XX..X......XXXXXXXXXXXXXXXXXXXXXXXXXXXXXXXXXXXXXXXXXXXXXXXXXXXXXXXXXX ",
" XX..X..XX..XXXXXXXXXXXXXXXXXXXXXXXXXXXXXXXXXXXXXXXXXXXXXXXXXXXXXXXXXX ",
" XX..X..XX..XXXXXXXXXXXXXXXXXXXXXXXXXXXXXXXXXXXXXXXXXXXXXXXXXXXXXXXXXX ",
" XX..X..XX..XXXXXXXXXXXXXXXXXXXXXXXXXXXXXXXXXXXXXXXXXXXXXXXXXXXXXXXXXX ",
" XX..X..XX..XXXXXXXXXXXXXXXXXXXXXXXXXXXXXXXXXXXXXXXXXXXXXXXXXXXXXXXXXX ",
" XX..X..XX..XXXXX....XXX....XXXXXXXXXXXXXXX....XXX....XXXXXXXXXXXXXXXX ",
" XX..X..XX..XXXX......X......XXXXXXXXXXXXX......X......XXXXXXXXXXXXXXX ",
" XX..X..XX..XXX.......X.......XXXXXXXXXXX.......X.......XXXXXXXXXXXXXX ",
" XX..X..XX..XXX...............XXXXXXXXXXX...............XXXXXXXXXXXXXX ",
" XX..X......XXX...............XXXXXXXXXXX...............XXXXXXXXXXXXXX ",
" XX..XX....XXXX...............XXXXXXXXXXX...............XXXXXXXXXXXXXX ",
" XXXXXXXXXXXXXX...............XXXXXXXXXXX...............XXXXXXXXXXXXXX ",
" XXXXXXXXXXXXXXX.............XXXXXXXXXXXXX.............XXXXXXXXXXXXXXX ",
" XXXXXXXXXXXXXXX.............XXXXXXXXXXXXX.............XXXXXXXXXXXXXXX ",
" XXX...X...XXXXXX...........XXXXXXXXXXXXXXX...........XXXXXXXXXXXXXXXX ",
" XX....X....XXXXXX.........XXX....XXX....XXX.........XXXXXXXXXXXXXXXXX ",
" XX.........XXXXXXX.......XXX......X......XXX.......XXXXXXXXXXXXXXXXXX ",
" XX.........XXXXXXXX.....XXX.......X.......XXX.....XXXXXXXXXXXXXXXXXXX ",
" XX.........XXXXXXXXX...XXXX...............XXXX...XXXXXXXXXXXXXXXXXXXX ",
" XXX.......XXXXXXXXXXX.XXXXX...............XXXXX.XXXXXXXXXXXXXXXXXXXXX ",
" XXXX.....XXXXXXXXXXXXXXXXXX...............XXXXXXXXXXXXXXXXXXXXXXXXXXX ",
" XXXXX...XXXXXXXXXXXXXXXXXXX...............XXXXXXXXXXXXXXXXXXXXXXXXXXX ",
" XXXXXX.XXXXXXXXXXXXXXXXXXXXX.............XXXXXXXXXXXXXXXXXXXXXXXXXXXX ",
" XXXXXXXXXXXXXXXXXXXXXXXXXXXX.............XXXXXXXXXXXXXXXXXXXXXXXXXXXX ",
" XXXXXXXXXXXXXXXXXXXXXXXXXXXXX...........XXXXXXXXXXXXXXXXXXXXXXXXXXXXX ",
" XXXXXXXXXXXXXXXXXXXXXXXXXXXXXX.........XXXXXXXXXXXXXXXXXXXXXXXXXXXXXX ",
" XXXXXXXXXXXXXXXX....XXX....XXXX.......XXXX....XXX....XXXXXXXXXXXXXXXX ",
" XXXXXXXXXXXXXXX......X......XXXX.....XXXX......X......XXXXXXXXXXXXXXX ",
" XXXXXXXXXXXXXX.......X.......XXXX...XXXX.......X.......XXXXXXXXXXXXXX ",
" XXXXXXXXXXXXXX...............XXXXX.XXXXX...............XXXXXXXXXXXXXX ",
" XXXXXXXXXXXXXX...............XXXXXXXXXXX...............XXXXXXXXXXXXXX ",
" XXXXXXXXXXXXXX...............XXXXXXXXXXX...............XXXXXXXXXXXXXX ",
" XXXXXXXXXXXXXX...............XXXXXXXXXXX...............XXXXXXXXXXXXXX ",
" XXXXXXXXXXXXXXX.............XXXXXXXXXXXXX.............XXXXXXXXXXXXXXX ",
" XXXXXXXXXXXXXXX.............XXXXXXXXXXXXX.............XXXXXXXXXXXXXXX ",
" XXXXXXXXXXXXXXXX...........XXXXXXXXXXXXXXX...........XXXXXXXXXXXXXXXX ",
" XXXXXXXXXXXXXXXXX.........XXXXXXXXXXXXXXXXX.........XXXXXXXXXXXXXXXXX ",
" XXXXXXXXXXXXXXXXXX.......XXXXXXXXXXXXXXXXXXX.......XXXXXXXXXXXXXXXXXX ",
" XXXXXXXXXXXXXXXXXXX.....XXXXXXXXXXXXXXXXXXXXX.....XXXXXXXXXXXXXXXXXXX ",
" XXXXXXXXXXXXXXXXXXXX...XXXXXXXXXXXXXXXXXXXXXXX...XXXXXXXXXXXXXXXXXXXX ",
" XXXXXXXXXXXXXXXXXXXXX.XXXXXXXXXXXXXXXXXXXXXXXXX.XXXXXXXXXXXXXXXXXXXXX ",
" XXXXXXXXXXXXXXXXXXXXXXXXXXXXXXXXXXXXXXXXXXXXXXXXXXXXXXXXXXXXXXXXXXXXX ",
" XXXXXXXXXXXXXXXXXXXXXXXXXXXXXXXXXXXXXXXXXXXXXXXXXXXXXXXXXXXXXXXXXXXXX ",
" XXXXXXXXXXXXXXXXXXXXXXXXXXXXXXXXXXXXXXXXXXXXXXXXXXXXXXXXXXXXXXXXXXXXX ",
" XXXXXXXXXXXXXXXXXXXXXXXXXXXXXXXXXXXXXXXXXXXXXXXXXXXXXXXXXXXXXXXXXXXXX ",
" XXXXXXXXXXXXXXXXXXXXX.XXXXXXXXXXXXXXXXXXXXXXXXX.XXXXXXXXXXXXXXXXXXXXX ",
" XXXXXXXXXXXXXXXXXXXX...XXXXXXXXXXXXXXXXXXXXXXX...XXXXXXXXXXXXXXXXXXXX ",
" XXXXXXXXXXXXXXXXXXX.....XXXXXXXXXXXXXXXXXXXXX.....XXXXXXXXXXXXXXXXXXX ",
" XXXXXXXXXXXXXXXXXX.......XXXXXXXXXXXXXXXXXXX.......XXXXXXXXXXXXXXXXXX ",
" XXXXXXXXXXXXXXXXX.........XXXXXXXXXXXXXXXXX.........XXXXXXXXXXXXXXXXX ",
" XXXXXXXXXXXXXXXX...........XXXXXXXXXXXXXXX...........XXXXXXXXXXXXXXXX ",
" XXXXXXXXXXXXXXX.............XXXXXXXXXXXXX.............XXXXXXXXXXXXXXX ",
" XXXXXXXXXXXXXXX.............XXXXXXXXXXXXX.............XXXXXXXXXXXXXXX ",
" XXXXXXXXXXXXXX...............XXXXXXXXXXX...............XXXXXXXXXXXXXX ",
" XXXXXXXXXXXXXX...............XXXXXXXXXXX...............XXXXXXXXXXXXXX ",
" XXXXXXXXXXXXXX...............XXXXXXXXXXX...............XXXXXXXXXXXXXX ",
" XXXXXXXXXXXXXX...............XXXXX.XXXXX...............XXXXXXXXXXXXXX ",
" XXXXXXXXXXXXXX.......X.......XXXX...XXXX.......X.......XXXXXXXXXXXXXX ",
" XXXXXXXXXXXXXXX......X......XXXX.....XXXX......X......XXXXXXXXXXXXXXX ",
" XXXXXXXXXXXXXXXX....XXX....XXXX.......XXXX....XXX....XXXXXXXXXXXXXXXX ",
" XXXXXXXXXXXXXXXXXXXXXXXXXXXXXX.........XXXXXXXXXXXXXXXXXXXXXXXXXXXXXX ",
" XXXXXXXXXXXXXXXXXXXXXXXXXXXXX...........XXXXXXXXXXXXXXXXXXXXXXXXXXXXX ",
" XXXXXXXXXXXXXXXXXXXXXXXXXXXX.............XXXXXXXXXXXXXXXXXXXXXXXXXXXX ",
" XXXXXXXXXXXXXXXXXXXXXXXXXXXX.............XXXXXXXXXXXXXXXXXXXXX.XXXXXX ",
" XXXXXXXXXXXXXXXXXXXXXXXXXXX...............XXXXXXXXXXXXXXXXXXX...XXXXX ",
" XXXXXXXXXXXXXXXXXXXXXXXXXXX...............XXXXXXXXXXXXXXXXXX.....XXXX ",
" XXXXXXXXXXXXXXXXXXXXX.XXXXX...............XXXXX.XXXXXXXXXXX.......XXX ",
" XXXXXXXXXXXXXXXXXXXX...XXXX...............XXXX...XXXXXXXXX.........XX ",
" XXXXXXXXXXXXXXXXXXX.....XXX.......X.......XXX.....XXXXXXXX.........XX ",
" XXXXXXXXXXXXXXXXXX.......XXX......X......XXX.......XXXXXXX.........XX ",
" XXXXXXXXXXXXXXXXX.........XXX....XXX....XXX.........XXXXXX....X....XX ",
" XXXXXXXXXXXXXXXX...........XXXXXXXXXXXXXXX...........XXXXXX...X...XXX ",
" XXXXXXXXXXXXXXX.............XXXXXXXXXXXXX.............XXXXXXXXXXXXXXX ",
" XXXXXXXXXXXXXXX.............XXXXXXXXXXXXX.............XXXXXXXXXXXXXXX ",
" XXXXXXXXXXXXXX...............XXXXXXXXXXX...............XXXXXXXXXXXXXX ",
" XXXXXXXXXXXXXX...............XXXXXXXXXXX...............XXXX....XX..XX ",
" XXXXXXXXXXXXXX...............XXXXXXXXXXX...............XXX......X..XX ",
" XXXXXXXXXXXXXX...............XXXXXXXXXXX...............XXX..XX..X..XX ",
" XXXXXXXXXXXXXX.......X.......XXXXXXXXXXX.......X.......XXX..XX..X..XX ",
" XXXXXXXXXXXXXXX......X......XXXXXXXXXXXXX......X......XXXX..XX..X..XX ",
" XXXXXXXXXXXXXXXX....XXX....XXXXXXXXXXXXXXX....XXX....XXXXX..XX..X..XX ",
" XXXXXXXXXXXXXXXXXXXXXXXXXXXXXXXXXXXXXXXXXXXXXXXXXXXXXXXXXX..XX..X..XX ",
" XXXXXXXXXXXXXXXXXXXXXXXXXXXXXXXXXXXXXXXXXXXXXXXXXXXXXXXXXX..XX..X..XX ",
" XXXXXXXXXXXXXXXXXXXXXXXXXXXXXXXXXXXXXXXXXXXXXXXXXXXXXXXXXX..XX..X..XX ",
" XXXXXXXXXXXXXXXXXXXXXXXXXXXXXXXXXXXXXXXXXXXXXXXXXXXXXXXXXX..XX..X..XX ",
" XXXXXXXXXXXXXXXXXXXXXXXXXXXXXXXXXXXXXXXXXXXXXXXXXXXXXXXXXX......X..XX ",
" XXXXXXXXXXXXXXXXXXXXXXXXXXXXXXXXXXXXXXXXXXXXXXXXXXXXXXXXXXX....XX..XX ",
" XXXXXXXXXXXXXXXXXXXXXXXXXXXXXXXXXXXXXXXXXXXXXXXXXXXXXXXXXXXXXXXXXXXXX ",
"  XXXXXXXXXXXXXXXXXXXXXXXXXXXXXXXXXXXXXXXXXXXXXXXXXXXXXXXXXXXXXXXXXXX  ",
"                                                                       ",
"                                                                       "
};
