/* XPM */
static char * euskadiratia_xpm[] = {
"80 80 14 1",
" 	c None",
".	c #011D45",
"+	c #1B3045",
"@	c #133459",
"#	c #9C2325",
"$	c #314F6F",
"%	c #556C86",
"&	c #738EA6",
"*	c #D8828B",
"=	c #94ACC0",
"-	c #BFCFDD",
";	c #FFF0F8",
">	c #F6FCFF",
",	c #FDFFFC",
"                                                                                ",
"                                                                                ",
"                                                                                ",
"                                                                                ",
"                                                                                ",
"                                                                                ",
"                                                                                ",
"                                                                                ",
"                                                                                ",
"                                                                                ",
"                                                                                ",
"                                                                                ",
"                                                                                ",
"                                                                                ",
"                                                                                ",
"                                                                                ",
"                                                                                ",
"                                                                                ",
"                                                                                ",
"                                                                                ",
"                                                                                ",
"                                                                                ",
"                                                                                ",
"                                                                                ",
"                                                                                ",
"                                                                                ",
"                                                                                ",
"                                                                                ",
"                                                                                ",
"                                                                                ",
"                                                                                ",
"                                        #                                       ",
"                    %                +  #                             +         ",
"                    $                +                                +         ",
"                    $                +                           +              ",
"  ++   %   %   +$   $   %  $+     $$$$  ##  @  +% $% @+  ++@$   .@@@  @   $+@$  ",
" @  .  @   @  +  %  %  .  $  @   .   $  ##  .$@@$ .$$$@ +  %.   @@    .  %   .% ",
"@   $  @   +  $%    % @      $  %%   @  ##  .@    @.       %.%  @$    @      @$ ",
"@%%%%  @   +   $+   $$%    %%@  $    @  ##  .%    .@     $@$@%  @$    .   $+%@$ ",
"$      +   +     +  % @%  +  $   %   @  ##  .     @$    .@  .%  @@    .  @@  @$ ",
" +  %  $%  .  $  +  $  .  .  @%  +% %+  ##  .%    .@    .@ $.@  $.$$  .  .@ %.@%",
"  $+%   %$%    $$       %  $  %    %%   ##  %     %      $% %%   %$%  %   $%  $ ",
"                                                                                ",
"                                                                                ",
"                                                                                ",
"                                                                                ",
"                                                                                ",
"                                                                                ",
"                                                                                ",
"                                                                                ",
"                                                                                ",
"                                                                                ",
"                                                                                ",
"                                                                                ",
"                                                                                ",
"                                                                                ",
"                                                                                ",
"                                                                                ",
"                                                                                ",
"                                                                                ",
"                                                                                ",
"                                                                                ",
"                                                                                ",
"                                                                                ",
"                                                                                ",
"                                                                                ",
"                                                                                ",
"                                                                                ",
"                                                                                ",
"                                                                                ",
"                                                                                ",
"                                                                                ",
"                                                                                ",
"                                                                                ",
"                                                                                ",
"                                                                                ",
"                                                                                ",
"                                                                                ",
"                                                                                ",
"                                                                                "};
