/* XPM */
static char * Ona FM_xpm[] = {
"80 80 14 1",
" 	c None",
".	c #070018",
"+	c #0A0025",
"@	c #0E0035",
"#	c #120043",
"$	c #1E003B",
"%	c #1C0054",
"&	c #21004C",
"*	c #51003C",
"=	c #8A002D",
"-	c #AD002B",
";	c #BE0019",
">	c #CE0015",
",	c #E4001C",
"                                                                                ",
"                                                                                ",
"                                                                                ",
"                                                                                ",
"                                                                                ",
"                                                                                ",
"                                                                                ",
"                                                                                ",
"                                                                                ",
"                                                                                ",
"                                                                                ",
"                                                                                ",
"            &#$$##                                                              ",
"          @@#&%%&#@@          @$$$$$$$+    $$####$$*     ;                      ",
"         @$#&%%%%&##@        @@######$@   @@$####$$*=-;;;;;;;;;;;               ",
"        $#&%%%%%%%%%#@       $#%%%%%%&##  ##&%%%%&&*-;>,,,,,,,,;;               ",
"       $#&%%%%%%%%%%%$@      ##%%%%%%%##  #&%%%%%&&* ->,,,,,,,,>;               ",
"      $#&%%%%%%%%%%%%&$$     ##%%%%%%%##  #&%%%%%%&& ->,,,,,,,,,;>              ",
"      $&%%%%%%%%%%%%%%#$     ##%%%%%%%&#% #&%%%%%%&& ;;,,,,,,,,,>;              ",
"     @#%%%%%%%%%%%%%%%%#@    ##%%%%%%%%## &&%%%%%%&&  ;,,,,,,,,,,;              ",
"     $&%%%%%%%%%%%%%%%%&$%   ##%%%%%%%%##%%%%%%%%&#$  ;>,,,,,,,,,;              ",
"    $#%%%%%%%%%%%%%%%%%%##   ##%%%%%%%%%&%%%%%%%%%##  >;,,,,,,,,,>;             ",
"    $&%%%%%%%%%%%%%%%%%%%$   ##%%%%%%%%%%%%%%%%%%%#$   ;>,,,,,,,,>;             ",
"    $%%%%%%%%%%%%%%%%%%%%#$  ##%%%%%%%%%%%%%%%%%%%#$   ;>,,,,,,,,,;,            ",
"   @#%%%%%%%%%%%%%%%%%%%%#@  ##%%%%%%%%%%%%%%%%%%%##   ;>,,,,,,,,,>>            ",
"   $#%%%%%%%%%%%%%%%%%%%%#@  ##%%%%%%%%%%%%%%%%%%%##   ;;,,,,,,,,,,;            ",
"   @&%%%%%%%%%%%%%%%%%%%%&$% ##%%%%%%%%%%%%%%%%%%%##    ;,,,,,,,,,,;            ",
"   $&%%%%%%%%%&#&%%%%%%%%%$% ##%%%%%%%%%&&&%%&&&&&#$    ;>,,,,,,,,,>;           ",
"   #%%%%%%%%%#% #%%%%%%%%%#% ##%%%%%%&&&&&&&&&&&&&$$    >>,,,,,,,,,>;           ",
"  &#%%%%%%%%%#  #&%%%%%%%%## ##%%%&&$***************    ,>,,,,,,,,,>;           ",
"  &&%%%%%%%%#$  %#%%%%%%%%## ##%%&&**===------------;;;,,,,,,,,,,,,,>>          ",
"  #%%%%%%%%%##  %#%%%%%%%%&# ##%%&**-;;;>>>>>>,>>>>>>>>>,,,,,,,,,,,,>;          ",
"  #%%%%%%%%&$#   #%%%%%%%%&# ##%%&*=->,,,,,,,,,,,,,,,,,,,,,,,,,,,,,,,;          ",
"  #%%%%%%%%%$#   $&%%%%%%%&# ##%%&*=->>>;;;;;;;;;;;;>;;>>>>>,,,,,,,,,;;         ",
"  #%%%%%%%%%$#   $&%%%%%%%&# ##%%&$*=-==============>>>;;;-;;;;>>>>,,;;         ",
"  #%%%%%%%%%$&   $&%%%%%%%&# ##%%&$*================         ,,>>>;;;;-         ",
"  #%%%%%%%%&$#   $&%%%%%%%&# ##%%&$*==-----;;;;;;;;;;>>,,,          >;-         ",
"  $%%%%%%%%%$#   #%%%%%%%%&# ##%%&**=-;;;;;>>>>>>>>>>>>;;;;;;;;;>               ",
"  #%%%%%%%%%##   #%%%%%%%%&# ##%%&*=;>>>>;;;;;;;;;;;>>>>>>>>>>>;;;;;;>,         ",
"  #%%%%%%%%%##  %#%%%%%%%%## ##%%&*=-;;----========-;>;;;;>,,,,,,,,>>>;;        ",
"  ##%%%%%%%%#$  ##%%%%%%%%## ##&%&&**=**************      ;;>,,,,,,,,,>;;       ",
"  %#%%%%%%%%&#  #&%%%%%%%%#% $$%%&&&***&&&&&&&&&&&$$        ,>,,,,,,,,,>;       ",
"   #&%%%%%%%%&%%#%%%%%%%%&#% $$%%%%&&&&&&%%%%%%%%%#$         ;>,,,,,,,,>;       ",
"   $&%%%%%%%%%&&&%%%%%%%%&$  @$&%%%%%%%%%%%%%%%%%%#$         ;>,,,,,,,,,;>      ",
"   @#%%%%%%%%%%%%%%%%%%%%#@  @$&%%%%%%%%%%%%%%%%%%#$         ;;,,,,,,,,,>;      ",
"   ##%%%%%%%%%%%%%%%%%%%%#@  @#%%%%%%%%%%%%%%%%%%%#$          ;,,,,,,,,,,;      ",
"    $&%%%%%%%%%%%%%%%%%%%#$  @#%%%%%%%%%%%%%%%%%%%#$          ;>,,,,,,,,,;;     ",
"    $#%%%%%%%%%%%%%%%%%%&$   @#&%%%%%%%%%%%%%%%%%%#$          ;>,,,,,,,,,>;     ",
"    ##&%%%%%%%%%%%%%%%%%#$   @$&%%%%%%%%%%%%%%%%%%#$          >;,,,,,,,,,>;     ",
"     $&%%%%%%%%%%%%%%%%&@    @$&%%%%%%%%%%%%%%%%%%#$           ;>,,,,,,,,,;>    ",
"     $#%%%%%%%%%%%%%%%%#@    @$&%%%%%%%&%%%%%%%%%%#$           ;>,,,,,,,,,>;    ",
"      $&%%%%%%%%%%%%%&#@     @$&%%%%&& #&%%%%%%%%%#$           ;;,,,,,,,,,,;    ",
"      &$&%%%%%%%%%%%%&$$     @#&%%%%&# ##%%%%%%%%%#$            ;,,,,,,,,,,;    ",
"       @$&%%%%%%%%%%&$@      @$%%%%%##  #%%%%%%%%%##            ;>,,,,,,,,,>;   ",
"        ##%%%%%%%%%&#@       @$&%%%%#$  ##%%%%%%%%#$            ;>,,,,,,,,,>;   ",
"         $##&&%&&&#$$        @$&%&%&#$  ##&%%%%%%%#@            ;;>,,,,,,,,>;   ",
"          #@$####$@$         @@######@   @#########@             -;;;;;;;;;;;-  ",
"            #####            +@$$###@@   +@######$@@              ;>>>>>>>>>;   ",
"                                                                                ",
"                                                                                ",
"       ..+..     ++     ++++.     ++     .          +@     ++   .      ++       ",
"      .@         +@+      +       @@     .         +@@     ++@  .      ++       ",
"      .          + +      +      +#@@    .         + +     +#+  .     @ @@      ",
"      +         @@ +      .      +  +    .         @ @+    +  + +     +  +      ",
"      +         +@%++     .      +#@+    .        +@#++    +  @@+     +#$+      ",
"      .         +@$@+     +     +@ @+@   +        +$$@.    +   ++    ++##+      ",
"      ++   .   ++   +     +     .    +   +#       +   ++   +    +    .    .     ",
"       +++.    .    ++    .     .    .   ++++.   .     .   .    .    .    .     ",
"                                                                                ",
"                                                                                ",
"                                                                                ",
"                                                                                ",
"                                                                                ",
"                                                                                ",
"                                                                                ",
"                                                                                ",
"                                                                                ",
"                                                                                ",
"                                                                                ",
"                                                                                "};
