/* XPM */
static char * Radio galega_xpm[] = {
"80 80 14 1",
" 	c None",
".	c #192964",
"+	c #18316C",
"@	c #4C5081",
"#	c #626A95",
"$	c #7987A8",
"%	c #919CB6",
"&	c #949CBD",
"*	c #AAB5D0",
"=	c #B6B5CC",
"-	c #C6CED6",
";	c #EDEEF8",
">	c #F6F8F4",
",	c #FEFFFC",
",;;;;;;;;;;;;;;;;;;;;;;;;;;;;;;;;;;;;;;;;;;;;;;;;;;;;;;;;;;;;;;;;;;;;;;;;;;;;;;,",
",+++++++++++++++++++++++++++++++++++++++++++++++++++++++++++++++++++++++++++++.;",
";+++++++++++++++++++++++++++++++++++++++++++++++++++++++++++++++++++++++++++++.;",
";++++++++++++++++++++++++++++++++++++++++++++++++++++++++++++++++++++++++++++++>",
";++++++++++++++++++++++++++++++++++++++++++++++++++++++++++++++++++++++++++++++;",
",++++++++++++++++++++++++++++++++++++++++++++++++++++++++++++++++++++++++++++++>",
";++++++++++++++++++++++++++++++++++++++++++++++++++++++++++++++++++++++++++++++;",
";++++++++++++++++++++++++++++++++++++++++++++++++++++++++++++++++++++++++++++++;",
";++++++++++++++++++++++++++++++++++++++++++++++++++++++++++++++++++++++++++++++;",
",++++++++++++++++++++++++++++++++++++++++++++++++++++++++++++++++++++++++++++++>",
";+++++++++++++++++++++++++++++++++++++++++++++++++++++++++++++++++++++++++++++.;",
";++++++++++++++++++++++++++++++++++++++++++++++++++++++++++++++++++++++++++++++>",
";+++++++++++++++++++++++++++++++++++++++++++++++++++++++++++++++++++++++++++++.;",
",++++++++++++++++++++++++++++++++++++++++++++++++++++++++++++++++++++++++++++++>",
";+++++++++++++++++++++++++++++++++++++++++++++++++++++++++++++++++++++++++++++.;",
";++++++++++++++++++++++++++++++++#$#++++++++++++$%&%$++++++++++++++++++++++++++;",
";.++++++++++++++++++++$;=+++++#;;;;,#+++++.++@+$,--;,+.+++++++++++++++++++++++.;",
",+++++++++++++++++++++*,,,*++%,&+++>$+++++*,,,,,,+++&,@++++++++++++++++++++++++>",
";+++++++++++++++++++++=;+#;,-,@.++.;$+++=,;$++@&;$+++,&++++++++++++++++++++++++;",
";+++++++++++++++++++++*;+++%;%+++++;$++-,#+++++++++++%,++++++++++++++++++++++++;",
";.++++++++++++++++++++=;+++++++++++;$+&;++++++++++++++;$+++++++++++++++++++++++;",
",+++++++++++++++++++++*-++++++#;,,;,$+,@++++;>,-++++++-&+++++++++++++++++++++++>",
";+++++++++++++++++++++=;+++++&,&#+$-+&-+++#,;$$;,+++++$-++++++++++++++++++++++.;",
";+++++++++++++++++++++*;++++#,#++++++-$+++;=++++&,+++++-+++++++++++++++++++++++;",
";+++++++++++++++++++++&;++++=-+++++++;@++#;++++++,$++++;+++++++++++++++++++++++;",
",+++++++++++++++++++++*-++++;%+++++++;+++$;++++++>&++++-+++++++++++++++++++++++>",
";+++++++++++++++++++++=;++++-$+++++++;@+++;+++++.,$++++;+++++++++++++++++++++++;",
";+++++++++++++++++++++*;++++;%+++++++-$.++;%++++*,+++++-+++++++++++++++++++++++>",
";+++++++++++++++++++++&;++++;$+++++++&-+++#;-$%*;++++++;+++++++++++++++++++++++;",
",+++++++++++++++++++++*;++++;%+++++++@,@++++&;;&++++++$-+++++++++++++++++++++++>",
";+++++++++++++++++++++=;++++-$++++++++=,++++++++++++++=*+++++++++++++++++++++++;",
";+++++++++++++++++++++*;++++;%+++++++++-,#++++++++++++;$+++++++++++++++++++++++;",
";.++++++++++++++++++++=;++++;$++++++++++&,;$@+#$;+++++,+++++++++++++++++++++++.;",
",+++++++++++++++++++++*,;---,%+++++++++++@*-;;;,,++++;*++++++++++++++++++++++++>",
";++++++++++++++++++++++$$$$$$++++++++++++++++@&,$+++#,++++++++++++++++++++++++.;",
";++++++++++++++++++++++-;-;-;>$++++++++++++++%,#++++,%+++++++++++++++++++++++++;",
";.+++++++++++++++++++++;;&&&=&;;#+++++++++++;;#++++*;++++++++++++++++++++++++++;",
",++++++++++++++++++++++@,%+++++-,-&#+++@#%;,;+++++*,+++++++++++++++++++++++++++>",
";+++++++++++++++++++++++$,%+++++@*;,,;;,,;=++++++*;#+++++++++++++++++++++++++++;",
";++++++++++++++++++++++++#,-+++++++++#$@++++++++-,$++++++++++++++++++++++++++++;",
";++++++++++++++++++++++++++;,$++++++++++++++++$,;++++++++++++++++++++++++++++++;",
",+++++++++++++++++++++++++++*,;#++++++++++++#-,&+++++++++++++++++++++++++++++++>",
";+++++++++++++++++++++++++++++&;;*$##+++#$=;;*@+++++++++++++++++++++++++++++++.;",
";+++++++++++++++++++++++++++++++$&;,,,,,,-*#+++++++++++++++++++++++++++++++++++>",
";.+++++++++++++++++++++++++++++++++++++++++++++++++++++++++++++++++++++++++++++;",
",++++++++++++++++++++++++++++++++++++++++++++++++++++++++++++++++++++++++++++++>",
";++++++++++++++++++++++++++++++++++++++++++++++++++++++++++++++++++++++++++++++;",
";++++++++++++++++++++++++++++++++++++++++++++++++++++++++++++++++++++++++++++++;",
";.+++++++++++++++++++++++++++++++++++++++++++++++++++++++++++++++++++++++++++++;",
",++++++++++++++++++++++++++++++++++++++++++++++++++++++++++++++++++++++++++++++>",
";+++++++++++++++++++++++++++++++++++++++++++++++++++++++++++++++++++++++++++++.;",
";++++++++++++++++++++++++++++++++++++++++++++++++++++++++++++++++++++++++++++++>",
";+++++++++++++++++++++++++++++++++++++++++++++++++++++++++++++++++++++++++++++.;",
",++++++++++++++++++++++++++++++++++++++++++++++++++++++++++++++++++++++++++++++>",
";+++++++++++++++++++++++++++++++++++++++++++++++++++++++++++++++++++++++++++++.;",
";++++#$##+++++++++++++++++++++++++++++++++$#+++++++++++++++++++++++++++++++++++;",
";.++@,=*;*+++++++++++++*$.;&+++++++++++++--*;++++++++++*#+++++++++++++++++++++.;",
",+++#>+++;*++++++++++++-&+@+++++++++++++&-++;;++++++++@-#++++++++++++++++++++++>",
";+++#;+++*=+++$*%+++$*+*%+$$++@*%@++++++,++++++++$=&#++;#++#=$+++&&+&+++&*$+++.;",
";+++#>++#,$++-*%,-+#,%*;&+;=+#,%;-++++++,+++++++$-&-,++-$+$;$-*+*-&-;@+;*%,#+++>",
";+++@,-;,&+++++.%;.*=++,%.-*+*=.+;#+++++,+++++++++++,++-#.-$++,+;+++;+++++-$++.;",
",+++#>+#,+++++&-,-+-$++-&+-&+-$++-$+++++,++-,-+++#;-,++-#+,,,,,%;+++;@++*-,%+++>",
";+++#;+.;;+++;$.%;+-$++-%.=&+;$++*%+++++,++++,@+=*++,++;#+,+.+.+;+++,++,@.;$++.;",
";+++$>+++,$+$,++*-+=*++,&+;%+=;++>#+++++;*++*,++,++#,++-$+;%++++*-#-;@*-++;%+++;",
";.++#,+++;;++,=$=,++;*&;$.-*.+,*;-++++++@;=*;*++;;%$,$+;#+$;=;#++*=+;+#,=&-;++.;",
",++++$++++$++#&#+#++#%++++$#+++&$+++++++++$%+++++%$++#+#+++#&$++++++,@+$&++%+++>",
";+++++++++++++++++++++++++++++++++++++++++++++++++++++++++++++++$*$,=+++++++++.;",
";++++++++++++++++++++++++++++++++++++++++++++++++++++++++++++++++%*#+++++++++++>",
";++++++++++++++++++++++++++++++++++++++++++++++++++++++++++++++++++++++++++++++;",
",++++++++++++++++++++++++++++++++++++++++++++++++++++++++++++++++++++++++++++++>",
";++++++++++++++++++++++++++++++++++++++++++++++++++++++++++++++++++++++++++++++;",
";++++++++++++++++++++++++++++++++++++++++++++++++++++++++++++++++++++++++++++++;",
";++++++++++++++++++++++++++++++++++++++++++++++++++++++++++++++++++++++++++++++;",
",++++++++++++++++++++++++++++++++++++++++++++++++++++++++++++++++++++++++++++++>",
";++++++++++++++++++++++++++++++++++++++++++++++++++++++++++++++++++++++++++++++;",
";++++++++++++++++++++++++++++++++++++++++++++++++++++++++++++++++++++++++++++++>",
";++++++++++++++++++++++++++++++++++++++++++++++++++++++++++++++++++++++++++++++;",
",++++++++++++++++++++++++++++++++++++++++++++++++++++++++++++++++++++++++++++++>",
";++++++++++++++++++++++++++++++++++++++++++++++++++++++++++++++++++++++++++++++;",
",>,>;>,>;>,>;>,;;>,>;>,>;>,>;>,;;>,>;>,>;>,>;>,;;>,>;>,>;>,>;>,;;>,>;>,>;>,>;>;,"};
