/* XPM */
static char * Radio Galega Música_xpm[] = {
"80 80 14 1",
" 	c None",
".	c #101962",
"+	c #092052",
"@	c #1F276D",
"#	c #183166",
"$	c #4D6688",
"%	c #606295",
"&	c #9190B2",
"*	c #B8BAD0",
"=	c #CAD1E5",
"-	c #CFD8DB",
";	c #E5EAF5",
">	c #FCFCFF",
",	c #FDFFFC",
"                                                                                ",
"                                                                                ",
"                                                                                ",
"                                                                                ",
"                                                                                ",
"                                                                                ",
"                                                                                ",
"                                                                                ",
"                                                                                ",
"                                                                                ",
"                                                                                ",
"                                                                                ",
"                                                                                ",
"                                                                                ",
"                                                                                ",
"                                                                                ",
"                                                                                ",
"                                                                                ",
"                                                                                ",
"                                                                                ",
"                                                                                ",
"                                                                                ",
"                                                                                ",
"                                                                                ",
"                                                                                ",
"                                                                                ",
"                                                                                ",
"                                                                                ",
"                                                                                ",
"                  .....                                                         ",
"                ..........                                                      ",
"              ........++.+          ...         ..                              ",
"              ...........+..       ..           ..                              ",
"            .............+..       .                                            ",
"            .............+...      .                                            ",
"           .+................+            ....       ...@.   .....              ",
"           .+..*=.&.&.&&.;+.... ...  ... .....  ..  ....... .......             ",
"          .....=--.---##&-.++.. ...  ... .   .  ..  ..           ..             ",
"          .....*&++.-%..%-.++.+ ...  ... ....   ..  ..           ..             ",
"          .....*&++.-%..%-.++.+ ...  ... ....   ..  ..       ...@..             ",
"          ....+=&...*%++%=.++.+ ...  ...  ....  ..  ..      ..@@...             ",
"          .....=&...*%++%=..... @@.  ...    ..  ..  ..      ..   ..             ",
"          .....-&...;%++%;..... ...  ... .   .  .@  ...  ....    ..             ",
"           ....*&++.=%..%-.+++. ........ .....  ..  ....... .......             ",
"           ....*&++.=%..%-.+++. ........ .....  ..   ...... .......             ",
"            ..++.........+....  ........  ...   ..     .     ...  .             ",
"            ...+....++.......                                                   ",
"              ...++......+.                                                     ",
"                ..........                                                      ",
"                ..........                                                      ",
"                   ....                                                         ",
"                                                                                ",
"                                                                                ",
"                                                                                ",
"                                                                                ",
"                                                                                ",
"                                                                                ",
"                                                                                ",
"                                                                                ",
"                                                                                ",
"                                                                                ",
"                                                                                ",
"                                                                                ",
"                                                                                ",
"                                                                                ",
"                                                                                ",
"                                                                                ",
"                                                                                ",
"                                                                                ",
"                                                                                ",
"                                                                                ",
"                                                                                ",
"                                                                                ",
"                                                                                ",
"                                                                                ",
"                                                                                ",
"                                                                                ",
"                                                                                ",
"                                                                                ",
"                                                                                "};
