/* XPM */
static char * Rioja televisión_xpm[] = {
"80 80 14 1",
" 	c None",
".	c #010200",
"+	c #210116",
"@	c #00520B",
"#	c #FF1F01",
"$	c #504E4B",
"%	c #B63A04",
"&	c #EC676B",
"*	c #FC6F11",
"=	c #9C9085",
"-	c #FDB226",
";	c #DDC8C4",
">	c #FFF1BE",
",	c #FCFFFC",
"                                                                                ",
"                                                ..                              ",
"                           ..                  ....                             ",
"                          ....                 ....                             ",
"                           ..                   ..                              ",
"                                                                                ",
"                          ....     .+.+..      ...    .......                   ",
"                ... ....  ....    .+......     ....  .....+...                  ",
"                ... +...  ....   ..++.+....    ....  ..+   ...                  ",
"                .......   ....  ....   +....   ....        ...                  ",
"                .....     ....  ....    ....   ....    .......                  ",
"                ....      ....  ....    ..+.   ....   ........                  ",
"                ...       ....  ....    +...   ....  ...+   ..                  ",
"                ...       ....  ....    ....   ....  ...    ..                  ",
"                ...       ....  ...........    ....  ...+  ...                  ",
"                ...       ....   .........     ....  .......+.                  ",
"                ...       ....    ..+....      ....   .......                   ",
"                                               ....                             ",
"                                             .+...                              ",
"                                             ....                               ",
"                                                                                ",
"                                                                                ",
"                                                                                ",
"                                                                                ",
"                                     ############                               ",
"                                   #################                            ",
"                                  ##################                            ",
"                                 ###################                            ",
"                                ####################                            ",
"                               #####################                            ",
"                             #######################                            ",
"                            ########################                            ",
"                           #########################                            ",
"                          ##########################                            ",
"                         ###########################                            ",
"                        ###############  ###########                            ",
"                       ##############   ############                            ",
"                      ##############    ############                            ",
"                     ##############     ###########                             ",
"                    ##############     ############                             ",
"                   ##############      ############                             ",
"                   #############       ############                             ",
"                   ###########         ############                             ",
"                   ##########          ############                             ",
"                   #########         ##############                             ",
"                   ################################---------                    ",
"                   ################################------------                 ",
"                   ################################------------                 ",
"                   ################################------------                 ",
"                   ###############################-------------                 ",
"                   ###############################-------------                 ",
"                   ###############################------------                  ",
"                   ###############################------------                  ",
"                     #############################------------                  ",
"                          ########################------------                  ",
"                                 #################------------                  ",
"                                     @@@@@@@#@#@@#------------                  ",
"                                    @@@@@@@@@@@@@                               ",
"                                    @@@@@@@@@@@@@                               ",
"                                    @@@@@@@@@@@@@                               ",
"                                    @@@@@@@@@@@@@                               ",
"                                    @@@@@@@@@@@@                                ",
"                                    @@@@@@@@@@@@                                ",
"                                    @@@@@@@@@@@@                                ",
"                                    @@@@@@@@@@@@                                ",
"                                    @@@@@@@@@@@@                                ",
"                                       @@@@@@@@@                                ",
"                                                                                ",
"                                                                                ",
"                                                                                ",
"                                                                                ",
"                 .       .               .        .   .                         ",
"                 ..      .                                                      ",
"                ..  +..  .   .+.. ..  .  .  .+..  .  +...  ...                  ",
"                .. .. +. .  .   .  .  +  . ..     .  .  .  .  .                 ",
"                .. ..... .  .....  . ..  +  .+.   .  .  .  .  .                 ",
"                .  .     .  .      ...   .     .  .  .  .  .  .                 ",
"                 .  ...  +   ....   .+   . .....  .  ....  .  .                 ",
"                                                                                ",
"                                                                                "};
