/* XPM */
static char * SETenVEO_xpm[] = {
"80 80 16 1",
" 	c #00137F",
".	c #191B1F",
"+	c #000DB3",
"@	c #031B60",
"#	c #1C6B61",
"$	c #55585B",
"%	c #3E5DB4",
"&	c #F9290F",
"*	c #CC610E",
"=	c #38A870",
"-	c #2FC32D",
";	c #46A1D4",
">	c #9D9F9B",
",	c #78D3EE",
"'	c #C7D1C5",
")	c #FCFFFC",
"))))))))))))))))))))))))))))))))))))))))))))))))))))))))))))))))))))))))))))))))",
"))))))))))))))))))))))))))))))))))))))))))))))))))))))))))))))))))))))))))))))))",
"))))))))))))))))))))))))))))))))))))))))))))))))))))))))))))))))))))))))))))))))",
"))))))))))))))))))))))))))))))))))))))))))))))))))))))))))))))))))))))))))))))))",
"))))))))))))))))))))))))))))))))))))))))))))))))))))))))))))))))))))))))))))))))",
"))))))),,,)))))))))))))))))))))))))))))))))))))))))))))'')')'')'')'')'')''))))))",
"))))),,;,,,)))))))))))))))))))))))))))))))))))))))))))>)>>))))))))))))))))))))))",
")))),,;;..;,))))))))))))))))))))))))))))))))))))))))))>))')))))))''>))))))))))))",
")))),;....;;,)))))))))))))))))))))))))))))))))))))))))>))'))))))))))>>))))')))))",
")))),;@...#,))))))))))))))))))))))))))))))))))))))))))>))>)))))))))))>'>>'))))))",
")))),,;...;,))))))))))))))))))))))))))))))))))))))))))'))>)))))))))))))))>))))))",
")))),,,;;;,,))))))))))))))))))))))))))))))))))))))))))>))>)))))))))))))))>))))))",
")))))),,,,))))))))))))))))))))))))))))))))))))))))))))>)))>)))))))))))))))))))))",
"))))))))))))))))))))))))))))))))))))))))))))))))))))))>)))>>))))))))))))))))))))",
"))))))))))))))))))))))))))))))))))))))))))))))))))))))')))))>>))))))))))))')))))",
"))))))))))))))))))))))))))))))))))))))))))))))))))))))>)))))))>>>>))))))))))))))",
"))))))))))))))))))))))))))))))))))))))))))))))))))))))>)))))))))))>>>)))))))))))",
"))))))))))))))))))))))))))))))))))))))))))))))))))))))>))>)))))))))))>>)))))))))",
"))))))))))))))))))))))))))))))))))))))))))))))))))))))>))'))))))')))))))))>)))))",
"))))))))))))))))))))))))))))))))))))))))))))))))))))))'>>>>$>>>>>>>>>>>>>>))))))",
"))))))))))))))))))))))))))))))))))))))))))))))))))))))))))))))))))))))))))))))))",
"))))))))))))))))))))))))))))))))))))))))))))))))))))))))))))))))))))))))))))))))",
")))))))))))))))))'$$$>>)))'$$$>)))>>'))>>>)>>>')>>>)))))))))))))))))))))))))))))",
"))))))))))))))))>.')'>.))$.>''$.''>..>)>.>)>..')$$>)))))))))))))))))))))))))))))",
"))))))))))))))))>.$$>>>)'.$)))'.$)>.$.>).)))'..>.'))))))))))))))))))))))))))))))",
")))))))))))))))))$$....''.>))))..)'.)$.$.))))'..')))))))))))))))))))))))))))))))",
"))))))))))))))))>$)))>.>)..)))>.>)'$))>..')))).$))))))))))))))))))))))))))))))))",
"))))))))))))))))>.$$$$$))'$.$$.$)'$.$))>.))))>..>)))))))))))))))))))))))))))))))",
"))))))))))))))))))))')))))))''))))))))))))))))))))))))))))))))))))))))))))))))))",
"))))))))))))))))))))))))))))))))))))))))))))))))))))))))))))))))))))))))))))))))",
"))))))))))))))))'='='>$%%%%%%$%%%%%$%%%%%%%%%%%%%$$)))))))))))))))))))))))))))))",
"))))))))))))))))'----$@ +   ++    +            +++ )))))))))))))))))))))))))))))",
"))))))))))))))))'---=. ++++++++++++      +++++++++@)))))))))))))))))))))))))))))",
"))))))))))))))))=---=@++++++++++++ $$=##$@ +++++++ )))))))))))))))))))))))))))))",
"))))))))))))))))'---=@+++++++++++ #=----==$ ++++++ '))))))))))))))))))))))))))))",
"))))))))))))))))'---# +++++++++++%=-------=@ +++++ )))))))))))))))))))))))))))))",
"))))))))))))))))=---# +++++++++++@#--------#@@ @@@.)))))))))))))))))))))))))))))",
"))))))))))))))))'---# +++++++++++ %=--------===#==#)))))))))))))))))))))))))))))",
"))))))))))))))))=---#@++++++++++++ @#==-----------=)))))))))))))))))))))))))))))",
"))))))))))))))))'---=@++++++++++++++ @@##==--------)))))))))))))))))))))))))))))",
"))))))))))))))))=----. +++++++++++++++   @@##=-----)))))))))))))))))))))))))))))",
"))))))))))))))))'----#@++++++++++++++++++++ @@@#=-=)))))))))))))))))))))))))))))",
"))))))))))))))))'----=$ ++++++++++++++++++++++  @.#)))))))))))))))))))))))))))))",
"))))))))))))))))'-----=. ++++++++++++++++++++++++ @)))))))))))))))))))))))))))))",
"))))))))))))))))=------=% ++++++++++++++++++++++++@'))))))))))))))))))))))))))))",
"))))))))))))))))'-------=$@ ++++++++++++++++++++++ )))))))))))))))))))))))))))))",
"))))))))))))))))'---------#%  ++++++++++++++++++++ )))))))))))))))))))))))))))))",
"))))))))))))))))'----------==$@  +++++++++++++++++ )))))))))))))))))))))))))))))",
"))))))))))))))))=-------------=#$@@ ++++++++++++++@)))))))))))))))))))))))))))))",
")))))))))))))))))----------------==#$@@ ++++++++++ )))))))))))))))))))))))))))))",
"))))))))))))))))'-------------------=-=#$@ +++++++ '))))))))))))))))))))))))))))",
"))))))))))))))))'----=**&*&*&*&*&*=-----==#@ +++++ )))))))))))))))))))))))))))))",
"))))))))))))))))=----*&&&&&&&&&&&&*--------=%+++++@)))))))))))))))))))))))))))))",
"))))))))))))))))'----*&&&&&&&&&&&&*--------=$ ++++ '))))))))))))))))))))))))))))",
"))))))))))))))))'---**&&&&&&&&&&&&*--------=#@   @@')>))))))))))))))))))))))))))",
"))))))))))))))))))))))))))))))))))))))))))))))))))))))))))))))))))))))))))))))))",
"))))))))))))))))))))))))))))))))))))))))))))))))))))))))))))))))))))))))))))))))",
"))))))))))))))))>$$')))>)))))'>)))>')))))))))))))>>)))))))))))))))))))))))))))))",
"))))))))))))))))>.>>$.>.>$$>$$$>$$>>$$>$$$.>$.>.$$.)))))))))))))))))))))))))))))",
"))))))))))))))))>.>>$$>$$$$$>>$>..$>.>$.>>$$.$$$.>.)))))))))))))))))))))))))))))",
"))))))))))))))))'>>>'>)>'>>>')>>>>>'>''>'>>)>>)'>)>)))))))))))))))))))))))))))))",
")))))))))))))))))))))))))))))'))))))))))))))))))))))))))))))))))))))))))))))))))",
"))))))))))))))))>..>>).)>'')'$)>)$)'')'>))))))))))))))))))))))))))))))))))))))))",
")))))))))))))))))>$.$$.>..$$$.>.$$>$$$$.')))))))))))))))))))))))))))))))))))))))",
")))))))))))))))))>$$$>$>$$'.>$>$$$>.$>$$')))))))))))))))))))))))))))))))))))))))",
")))))))))))))))))))))))))))))))'))))))))))))))))))))))))))))))))))))))))))))))))",
"))))))))))))))))))))))))))))))))))))))))))))))))))))))))))))))))))))))))))))))))",
"))))))))))))))))))))))))))))))))))))))))))))))))))))))))))))))))))))))))))))))))",
")))))))))))))))))))))))))))))))))))))))))))))))))$>')))>$''$$>$$>))),;%;,)))))))",
")))))))))))))))))))))))))))))))))))))))))))))))))$.$))'..'>..$.$$));+%% %;))))))",
")))))))))))))))))))))))))))))))))))))))))))))))))'..))$.$)>.$)))));+%;.@+%;)))))",
"))))))))))))))))))))))))))))))))))))))))))))))))))$.$'..')>..$$$>)%%@$..@%%)))))",
")))))))))))))))))))))))))))))))))))))))>$')>$>))))'..$.$))>..$$.>)%%@....+%)))))",
"))))))))))))))))))))))))))))))))))))))>$'.>.'.)))))$...)))>.$)))),%%@...@%%)))))",
"))))))))))))))))))))))))))))))))))))))>.>$'$).))))))..$)))>..>>>');%%@@@%%,)))))",
"))))))))))))))))))))))))))))))))))))))>$$$>$).')))))$.))))>.....$));%%%%%,))))))",
"))))))))))))))))))))))))))))))))))))))))'))))))))))))'))))))))'))))));;,))))))))",
"))))))))))))))))))))))))))))))))))))))))))))))))))))))))))))))))))))))))))))))))",
"))))))))))))))))))))))))))))))))))))))))))))))))))))))))))))))))))))))))))))))))",
"))))))))))))))))))))))))))))))))))))))))))))))))))))))))))))))))))))))))))))))))"};
