/* XPM */
static char * TVE 2_xpm[] = {
"80 80 16 1",
" 	c #175E18",
".	c #22991D",
"+	c #10AB06",
"@	c #438941",
"#	c #1CD206",
"$	c #3ECD2E",
"%	c #60D054",
"&	c #3BEE1F",
"*	c #77C079",
"=	c #35FD03",
"-	c #AABEAF",
";	c #C9D7DC",
">	c #B0F1AC",
",	c #D3F6D3",
"'	c #D9F8E8",
")	c #F1FBF6",
"))))))))))))))))))))))));)',>>>>>>>>>>>%>>>>>%>>>>>>>>,'))))))))))))))))))))))))",
";;);)));))));););););;;);;--*$$&$&#&$&$$&#&&$$&#&#&$$*>');;);;;;;;;;;;;;;;;;;;;;",
");))))))))))))))))))))';')'*.$&&&&&&&&&&&&&&&&&&&&&&&%,,)))))))))')'))')';');';)",
";;)))))))))''''''''')'));''*%&&=====================&$>''')')'''',',','','''';';",
");));--*-*-*******--'''''',@+&&====================&&$%,')');'-**>******>****'';",
";;))-     @@@@.*.*@'')))'>@%&&=======================#$ *')''',*%%$$$$$$$$%%*,')",
");;)-  @...++$$$$%>'')''*@$&&&======================&&&%@*')'',*%&&&&&&&&&&$%>''",
";;)); @ ...++$#$%>,')''-.$&&===========================&$.*''''>%%&====&==&&%>')",
");))-  ...++$$$+%>'))'*.%&&============================&&%.*')''*$&&=====&=&%>')",
";;))-  ...+++#$%>,))'>*$&&==============================&&%@*''',%$&&===&=&&%>')",
");;)- @...++$+%>,))),@$&============================&====&&$@-')'*%&&==&=&&$%>')",
");))-  ..+++#%%>')',@%&&=============================&====&&+ ,)',@%&&=&&&&#%>')",
");))- @...+++%>'))'*+#&&========================&==========&&.*))'@.&&&&&&##%,))",
";;)'-  ..++++%,))',.$&===============&&&&&&&&&=============&&$ ,)),@%&&&#&#$%>))",
");))- ...+++%>,)),@%#&============&&&&%%%%%$$&&&============&&.*')'@.#####&$%>))",
";;)'-  ..+.+*,)))*.$&=&==========&&&%%>>>>>>>%%&&=&==========&$@,)),@$####$$%>))",
");;)- ..+++.>,))'@%&&&=&========&&%>>,,,''',,>>$&&=========&&&#.*)),@+$####+%,))",
";;)'- ...+.+>,)),.$&&&=========&&%>>,'')'';''',,%$&&======&=&&#%*,))*.$#$#$+%>))",
");;)- ..+++*,))'*.$&&=&&&&====&&%>,')'''''''';''>%&&&=&=&&=&&&#$*,'),@+#$##+%,))",
";-)'- ...+.%,)),@$##&&&=&&&&&&&%>,'))',,>*>,,''''>%&&&&&&&&#&##$.>)),@.+#$$+%>))",
");;)- ..++.>'))*.$&#&#&&&&&&&#$>,')',>*%%%..**';''*%#&&&&######$.>'),*.$##$+%,))",
";;)'- ..++%>'))*.$&###&###&#&$%>'))'*%%$$$$$%**';'>.$#&##&#####$%*,))*.++$$$%>))",
");;)- .++.%,)),@.$#&#&#&#####%>,)),*%.######$+@*'''*+$#######$#++*,)),.+$##+%,))",
";;))* ..+.%>))-@+###########$%>))'**+$$#######%@,''*%$###$##$###+%,))>@++#$$%>))",
")-))- .+++*,))>@+#########$++>,)),@.$$$$#$##$#$.,'',.%#####$##$$+%>)),*+$#$$%>))",
";;))*@.++%%,))*.+$#####+#+$+.>,)'*@+++++$$$#$$$.>'',*+$$#$######+%>)',@+###$%>))",
");;)-..++.>,))*@$#+#++$+#+++.,')'@..++++++#+#+$%>'''*+$#$##+#$#$$.>)),*+$##$%>))",
";;))*@+$++>,);*.+$+#+#++++++@>));@..+++#++++$$+.>'''*%+#+#######$%>,),*+$&##%>))",
");;)- ++++>,')@ .++.+.+.+...@,')-@@+.+++++#+#+$%>'''*%+####$####+$>)),*+#&##%>))",
";;)'*@+$++>,);-**%*%*%*%*****,)), ..+.++++++#++%>'',*+$#$###$####%>'),*%#&&&%>))",
");))-..+++*,'),',,,,,,,,,>,',)))-@...+++++$+#++*,'),*$$##########%>)),*$#&&&%>')",
";-))*@++$+*,)))'''''')')))))))))' ..+.++++#+$$+>,)',*+###########%>)),*$&&=&$>')",
");))-..++.%'))))))))))))))))))))'@@.++++++$#++*>))'>%$####&#&&&#$%>)),.$&==&$>))",
";;))*@+++.*,'))))))))))))))))));, ..++++#+$+$%>,)),*%##&#&#&#&&&$%,,),%#&===%>')",
")-))- +++..*@-@*@-@-@-@-@-@-@-@-@..++++#+##+%*,)))>%$##&#&&&#&&&$>,))>%$===&$>))",
";;))*@.++...@  @             . @ .++++#+$#$$*,))),*%##&&&&&=&=&&$>,))*%&===&$>')",
")-))- ..++.......+.+.+.+.+++..++++++#$###$+%,,))'*.#&&&&&=&&=&=&%>)),*$&&==&%>))",
";;)'- .+.+.++.+.+.+.+.+.+..+++++++$#+####$%,')))*.$&&&=&=&====&&>,)),%$&====%>')",
");;)- ...+..+...+.+.+++++++++++#########$%>,))',@$&&==========&%>,))>.&&===&%>))",
";;)'- ...+...+.+.+.++.+++++$+#$+#$#####$$>,)))>@$&===========&&%>)),*%&&====%>')",
");))- .+.+.+.+.+.++++++++#+#######&#&&#$>>')),*+#&==&========&%>')),.&&&==&&%>))",
";;))* ......+.+.+++++++#+#$####&#&&&&&$%,')),*%$&===========&&%,)))>%&&=====%>))",
")-))- ..+++.++++++++#+########&&&&=&&&%,'))'*.#&&==========&&%>,)),.%&&=&=&&%>))",
");)'- ...+.+.+++++++#$#+###&&&&=&==&&%>,)))*.$&&========&==&$>,)))*%&&=&=&=&%>')",
");))- .++++++++++########&&&&=====&&%>,)))>.%&====&=======&&>>'),>@$&&&&===&%>))",
";;)'* ..+++++++#+#+####&&&&&==&=&=&$>,))',@%&&=&====&=&=&&&%>')),*%&&==&=&=&%>')",
");;)- +++++++########&&&========&&%>,')),@$&&&==&===&===&&%>,)),*.$&&=&====&%>))",
";;)'* .++++#+#+#####=#=&===&====&&%,')),*%$&=&===&&==&&&&&>,))),*%&&=&=&=&=&%>))",
");))-..+#+#######&&&==========&&$>,))),*.$&&==&====&==&&%>,,)),@$&&====&===&%>))",
";-))* ++#+####&#&&==&=&========$%>')),-%%&&&&&=&&&=&=&&$%>')),*%$&&=&====&=&$>))",
");))-.+#######&==&==========&&&>>))))*.$&&&==&=&==&&=&$>,))))*.$&==========&%>))",
";;);*@+#####&&&&&========&==&&%>,)))**%$&=&&=&=&=&=&&&%>,))),@%&&=&=&=&====&$>')",
");))*@####=&&======&======&=&%>,))),@%&&=&=&==&=&&=&&%>,))),.%&&&==========&%>))",
";;))*.$##&#&=&=============$&>,))),@%$&&&==&&=&&==&&$>,))),@%&&=&===========$>))",
");))-.$&=================&&%>,,)),@%$&&=&=&=&=&=&&&%>,')),@.$&=&===========&%>))",
";-)'>%##=&==&========&=&=&&>>')),*%%&&=&&&&==&==&&%%,')),@%&&&=============&$>))",
");))>.#============&====&$>>))),*@$&&&&===&=&=&&&$>,,))'*.$&&==============&%>))",
";;)',%&&==============&&&%>,)),-.%&&&=&=&===&==&$%>,)))*.%&======&=========&$>))",
");;'>.#============&==&&%>'))),.%&&===&==&====&&>,)))),*$&&&===============&%>))",
");)',%&&=============&&%>,))),@%&&=&======&==&&%>,)))>*%&&==&=&========&==&&%>))",
");)'>.&&=======&==&=&&%>,))),@$&&&===&======&&%>,')),>%&&&&&=&=&&&&&&&=&&&&&%>))",
");)',%&====&=======&&&>,))),@%$&============&$%,')))**%%$$&$&$&$&$&$&$$&&&&&%>))",
");)'>.$========&===&%>>,)),*.&&===========&&$>,')));,,>>>>>>>>>>>>>>>>%$&##$%>))",
");))>%&&==========&&%>')),*.$&&===========&&%>')')))',,,,,,,,,,,,,,,,,>%$##$%,))",
");)'>%&&========&=&%>,)))*.%=&============&%>,';);')))'')'))'))')')))',%$#$$%>))",
");)',%&&====&====&%>,))),@$&============&&$>,'')'));)))))))')))'))))))>*++$+%,))",
");;'*%$========&&$>,)))> $&&===========&&&>>,,'''''','',''''','',''))),*$++.%,')",
");)'>%&&=======&&%,))),@$&==========&=&&&&%%%*%**%*%**%***%**>****,')'>*+$+.%,))",
");;'>%&&======&$>,')),*$#&&===&==&&=&&&&&#$$%$$$+%+%+$%+$$%$+$%%..*';),*.+..*,')",
");;'>%&======&&%>,)),>%#&===&=&&=&&&&&#&#&####$##$#$#$#$$$$+$+++%.>'';,*..+.*,))",
");;'>%$=====&&%>')),>%$&&&=&&&&&&&#&#&#############$#+#+#+#+#++++.*,';,*....@,')",
");;;>%&&====&%>,)))>>$&&&&&&&&&###&#########$$#$+#++#++#+++++++++.>';;'* ...*'')",
");;'*%$=&=&&%>,')),%$&&&&######&########$#+$+#++#++++++++++++++...*,';,*@. .*';;",
";-;;,%%$&$&$>,')',>%#&&##&#&#######$#+#+++#+++++++++++++++++..+...*'-;;* .  *');",
");;-->>%>>>>,''',>%###&#########+#+#++$+#+++++++++++++........... *';;-'-**-'';;",
";-;;''',>>,'')',>%$#&########+#+#++#+++++++++++.++....+.+.........*,;;;;'''';';;",
");;-;;;';';';)'>*$########+#+++++++++++.+.+................... . @*'-;;;-;;;;;;;",
";-;;;;;;;;;;';'**$$$$$$+$++++++.+................ ... . . .  .. . -';-;;;;;;;;;;",
";----------;--- @. .. .  . @                                       ;------------",
";;--;-;;;;-;;-;*-*>***>*,*>*>>>>>->*,*-*-*-*-*-*-*-*-@-*-*-@---------------;-;;;"};
