/* XPM */
static char * TVE 1_xpm[] = {
"80 80 14 1",
" 	c None",
".	c #004873",
"+	c #00527E",
"@	c #005284",
"#	c #00568E",
"$	c #0C5789",
"%	c #005C94",
"&	c #005E9B",
"*	c #0062A0",
"=	c #0D619A",
"-	c #0066A4",
";	c #006CAE",
">	c #066F9C",
",	c #0084D8",
"                                                                                ",
"             .###%#$%%%%%%%%%%%%%%%%##%$#%%%%$$%%%%%%%%%%%%%%%%%%%@.            ",
"             @#&&%%%%%%%%%%%%%%%&%%%%%%%%%%%%%%%%&%%%%%%%%%%%%%%%%#.            ",
"             $*-----------------*--------*-------*----------------=@            ",
"             $=-----------------*---------------------------------=@            ",
"             $=------------------------&*-&&-**-------------------=@            ",
"             $*-----------------*&%##$$$$$$$$$#%%*----------------*@            ",
"             $=-------**-*-----*&%              &&----------------=@            ",
"             $=---------------*%@               -%---------*------=@            ",
"             $=--------------*%#                %%---------**-----=@            ",
"             $=-------------*%@    %#$%%%%%%@   %#*---------------=@            ",
"             $=-------------%$    $$&****=*&%   %#*---------------=@            ",
"             $=------------&#    %%*-------*&   %%----------------=@            ",
"             $=-----------*%    %#*---------&   %#*---*-----------=@            ",
"             $=-----------%$   .@#%*--------&   %#----**-**-------=@            ",
"             $=-----------%$   .@##&%*------&   %#----------------=@            ",
"             $=-----------=$        %*------&   %#----------------=@            ",
"             $=-----------=$        #*------&   %#----------------=@            ",
"             $=-----------*%        #*------&   %#----------------*#            ",
"             $=-----------*&&&%#.   #*------&   %#----------------*#            ",
"             $=-------------***%+   #*------&   %#----------------*#            ",
"             $=----------------%@   #=------&   %%----------------=@            ",
"             $=----------------%@   #=------&   %%----------------=@            ",
"             $=----------------%@   #=------&   %%----------------=@            ",
"             $=----------------%@   #=------&   %%----------------=@            ",
"             $=----------------%@   #*------&   %#----------------=@            ",
"             $=----------------%@   $*------&   %#----------------=@            ",
"             $=----------------%@   #&------&   %#----------------=@            ",
"             $=----------------%@   #&-----*&   %#----------------=@            ",
"             $=----------------%@   #&------=   %#----------------=@            ",
"             $=----------------%@   #&---*--=   %#----------------=@            ",
"             $=----------------%@   #&--**--=   %#----------------=@            ",
"             $=----------------%@   $*------=   %#----------------=@            ",
"             $=----------------=@   #*------%   %#----------------=@            ",
"             $=----------------%@   #*------%   %#----------------=@            ",
"             $=----------------%@   #*------&   %#----------------=@            ",
"             $=----------------%@   #*------&   %#----------------=@            ",
"             $=----------------%@   #*------&   %#----------------=@            ",
"             $=----------------%@   #*------=   %#----------------=@            ",
"             $=----------------%+   #*------=   %#----------------=@            ",
"             $=----------------=@   #*------=   %#----------------=@            ",
"             $=----------------%@   #*------=   %#----------------=@            ",
"             $=----------------%+   #*------&   %#----------------=@            ",
"             $=----------------%+   #*------=   %#----------------=@            ",
"             $*----------------%+   #*------=   %#----------------=@            ",
"             $*----------------%+   $*------%   %#----------------=@            ",
"             $*----------------=+   .$%%%%%%@   %#----------------=@            ",
"             $*----------------%+               %#----------------=@            ",
"             $*----------------=@               &#----------------=@            ",
"             $*----------------=$               &%----------------=@            ",
"             $*-----------------%-&%%%%%%%%%%%%-%*----------------=@            ",
"             $*-----------------*=&&&&===&&&&&&=*-----------------=@            ",
"             $*---------------------------------------------------=@            ",
"             #*---------------------------------------------------&#            ",
"             #&*&*************************************************%@            ",
"             .@#######$$$##$$#$$##$$#$$####$$$#$$#$$$$$##$$#$$$#$#@.            ",
"                                                                                ",
"                                                                                ",
"                                                                                ",
"                                                                                ",
"                    .##.                                                        ",
"                    $**@                                                        ",
"                    =--%>                                                       ",
"                  .$%--=%$+++@++++++++.     .+++.   .++++++@@+.                 ",
"                 $#%*---*&%%%%%%%%==%%@     @%%%@  ##%%%%%%%%%##                ",
"                 *%-------------------#    @&--%= =%*---------%*                ",
"                 ##&*---*=%%=*----*=%%@    @*-=@  #&--*&&%&*--%*                ",
"                  #*%--&*-%%-%=--**-%#@   $%--%@  @=-*%&&&-=-*%&                ",
"                    %-=%>    >#--%;       #---%  =%--*=    ***%&                ",
"                    %-*#      #*-*%      +#--&%  #---=-,  ,&**%&                ",
"                    $-*@      $%--%%     #&-*#  @%---*%%##%*--%&                ",
"                    #--#       #*-*@    =%*-&@  @*-----****--*%*                ",
"                    $=*#       @%--%%   %=**%$ =%*-----------*%*                ",
"                    $-*$        #--*#   $*-&%  $---*%%%%%%%%%#@#                ",
"                    #-*$        $*--%$ -%--%$ +#--*%                            ",
"                    #-*%>       ;#--*%;**-*#  #%--*;                            ",
"                    #--**=%%%@.  @*--==*--*#  @%----*%%%&%%&%#.                 ",
"                    %----*=*=#   #%-------#    #---**********%@                 ",
"                    %-------=%    %*-----=@    $-----------**%*                 ",
"                    #**--***#>    &&****&#*    %=**-&**--***&&                  "};
