/* XPM */
static char * up_xpm[] = {
"22 26 2 1",
".	c #FFFFFF",
"*	c #000000",
"......................",
"......................",
"......................",
"..........**..........",
".........****.........",
"........******........",
".......********.......",
"......**********......",
".....************.....",
"....**************....",
"...****************...",
"..******************..",
".********************.",
"**********************",
".......********.......",
".......********.......",
".......********.......",
".......********.......",
".......********.......",
".......********.......",
".......********.......",
".......********.......",
".......********.......",
"......................",
"......................",
"......................"};
