/* XPM */
static char * c_top_xpm[] = {
"215 30 135 2",
"  	c #FFFFFF",
". 	c #FFFEFE",
"+ 	c #FEFEFE",
"@ 	c #FEFDFD",
"# 	c #FBFAFA",
"$ 	c #E6E5E5",
"% 	c #D8D7D7",
"& 	c #D6D5D5",
"* 	c #FDFDFD",
"= 	c #E5E5E5",
"- 	c #C7C7C7",
"; 	c #C3C3C3",
"> 	c #FDFCFC",
", 	c #D6D6D6",
"' 	c #C6C5C5",
") 	c #FCFCFC",
"! 	c #F1F1F1",
"~ 	c #CCCCCC",
"{ 	c #FCFBFB",
"] 	c #CACACA",
"^ 	c #C9C8C8",
"/ 	c #FBFBFB",
"( 	c #FAFAFA",
"_ 	c #DDDDDD",
": 	c #D0D0D0",
"< 	c #CECECE",
"[ 	c #F3F3F3",
"} 	c #D9D9D9",
"| 	c #D3D3D3",
"1 	c #F9F9F9",
"2 	c #EDECEC",
"3 	c #D9D8D8",
"4 	c #D7D6D6",
"5 	c #D2D1D1",
"6 	c #BBBABA",
"7 	c #ABABAB",
"8 	c #A1A1A1",
"9 	c #BBBBBB",
"0 	c #F8F8F8",
"a 	c #E6E6E6",
"b 	c #DCDCDC",
"c 	c #DBDBDB",
"d 	c #D8D8D8",
"e 	c #BFBFBF",
"f 	c #AEADAD",
"g 	c #A4A4A4",
"h 	c #CDCDCD",
"i 	c #B8B8B8",
"j 	c #ACACAC",
"k 	c #9E9E9E",
"l 	c #EFEFEF",
"m 	c #E2E1E1",
"n 	c #DEDEDE",
"o 	c #6C6C6C",
"p 	c #8A8A8A",
"q 	c #C9C9C9",
"r 	c #9AB2BE",
"s 	c #6B93A5",
"t 	c #80A0AF",
"u 	c #BFCCD2",
"v 	c #749AAB",
"w 	c #467B93",
"x 	c #508197",
"y 	c #D1D7DA",
"z 	c #B4C5CD",
"A 	c #91ADB9",
"B 	c #A8A8A8",
"C 	c #B2B2B2",
"D 	c #DFDFDF",
"E 	c #B6B6B6",
"F 	c #F8F7F7",
"G 	c #F5F4F4",
"H 	c #E9E8E8",
"I 	c #E3E2E2",
"J 	c #989797",
"K 	c #474747",
"L 	c #CDCCCC",
"M 	c #82A3B3",
"N 	c #8AA8B6",
"O 	c #DADADA",
"P 	c #D2D2D2",
"Q 	c #658FA2",
"R 	c #A3BAC5",
"S 	c #DFDEDE",
"T 	c #BCBBBB",
"U 	c #D1D1D1",
"V 	c #BCBCBC",
"W 	c #E0E0E0",
"X 	c #EBEBEB",
"Y 	c #DCDBDB",
"Z 	c #AFAFAF",
"` 	c #BDBDBD",
" .	c #EDEDED",
"..	c #F6F5F5",
"+.	c #E9E9E9",
"@.	c #F7F7F7",
"#.	c #EEEEEE",
"$.	c #9C9B9B",
"%.	c #BABABA",
"&.	c #919191",
"*.	c #C6C6C6",
"=.	c #F4F4F4",
"-.	c #EAEAEA",
";.	c #E3E3E3",
">.	c #CFCFCF",
",.	c #F6F6F6",
"'.	c #F5F5F5",
").	c #E7E7E7",
"!.	c #737373",
"~.	c #DAE0E2",
"{.	c #5E8BA0",
"].	c #F2F2F2",
"^.	c #C1C1C1",
"/.	c #C0C0C0",
"(.	c #E2E2E2",
"_.	c #D7D7D7",
":.	c #F1F0F0",
"<.	c #EEEDED",
"[.	c #EBEAEA",
"}.	c #EAE9E9",
"|.	c #D0D9DE",
"1.	c #C3C2C2",
"2.	c #D4D4D4",
"3.	c #F0F0F0",
"4.	c #ECECEC",
"5.	c #595959",
"6.	c #E2E5E7",
"7.	c #C4C4C4",
"8.	c #C8C8C8",
"9.	c #E3E6E8",
"0.	c #C2C2C2",
"a.	c #C4C3C3",
"b.	c #DAD9D9",
"c.	c #C7D2D7",
"d.	c #E6E8EA",
"                                                                                                                                                                                                                                                                                                                                                                                                                                              ",
"                                                                              . . . . . . . . . . . . . . . . . . . . . . . . . . . . . . . . . . . . . . . . . . . . . . . . . . . . . . . . . . . . . . . . . . . . . . . . . . . . . . . . . . . . . . . . . . . . . . . . . . . . . . . . . . . . . . . . . . . . . . . . . . . . . . . . . . . . . . . . . . . . . . . . . . . . . . . . . . . . . . . . . . . . . . . . . . . . .       ",
"                                                                          + + + + + + + + + + + + + + + + + + + + + + + + + + + + + + + + + + + + + + + + + + + + + + + + + + + + + + + + + + + + + + + + + + + + + + + + + + + + + + + + + + + + + + + + + + + + + + + + + + + + + + + + + + + + + + + + + + + + + + + + + + + + + + + + + + + + + + + + + + + + + + + + + + + + + + + + + + + + + + + + + + + + + + + + + + + + + + + +     ",
"                                                                      + + + + + + + + + + + + + + + + + + + + + + + + + + + + + + + + + + + + + + + + + + + + + + + + + + + + + + + + + + + + + + + + + + + + + + + + + + + + + + + + + + + + + + + + + + + + + + + + + + + + + + + + + + + + + + + + + + + + + + + + + + + + + + + + + + + + + + + + + + + + + + + + + + + + + + + + + + + + + + + + + + + + + + + + + + + + + + + + + + +   ",
"                                                                  + @ @ @ @ @ @ # $ % & & & & & & & & & & & & & & & & & & & & & & & & & & & & & & & & & & & & & & & & & & & & & & & & & & & & & & & & & & & & & & & & & & & & & & & & & & & & & & & & & & & & & & & & & & & & & & & & & & & & & & & & & & & & & & & & & & & & & & & & & & & & & & & & & & & & & & & & & & & & & & & & & & & & & & & & & & & & & & & & & & & & & & & & & & &   ",
"                                                              + * * * * * * * = - ; ; ; ; ; ; ; ; ; ; ; ; ; ; ; ; ; ; ; ; ; ; ; ; ; ; ; ; ; ; ; ; ; ; ; ; ; ; ; ; ; ; ; ; ; ; ; ; ; ; ; ; ; ; ; ; ; ; ; ; ; ; ; ; ; ; ; ; ; ; ; ; ; ; ; ; ; ; ; ; ; ; ; ; ; ; ; ; ; ; ; ; ; ; ; ; ; ; ; ; ; ; ; ; ; ; ; ; ; ; ; ; ; ; ; ; ; ; ; ; ; ; ; ; ; ; ; ; ; ; ; ; ; ; ; ; ; ; ; ; ; ; ; ; ; ; ; ; ; ; ; ; ; ; ; ; ; ; ; ; ; ; ; ; ; ; ; ; ; ; ; ; ; ; ",
"                                                            @ > > > > > > # , ' ; ; ; ; ; ; ; ; ; ; ; ; ; ; ; ; ; ; ; ; ; ; ; ; ; ; ; ; ; ; ; ; ; ; ; ; ; ; ; ; ; ; ; ; ; ; ; ; ; ; ; ; ; ; ; ; ; ; ; ; ; ; ; ; ; ; ; ; ; ; ; ; ; ; ; ; ; ; ; ; ; ; ; ; ; ; ; ; ; ; ; ; ; ; ; ; ; ; ; ; ; ; ; ; ; ; ; ; ; ; ; ; ; ; ; ; ; ; ; ; ; ; ; ; ; ; ; ; ; ; ; ; ; ; ; ; ; ; ; ; ; ; ; ; ; ; ; ; ; ; ; ; ; ; ; ; ; ; ; ; ; ; ; ; ; ; ; ; ; ; ; ; ; ; ; ",
"                                                        + ) ) ) ) ) ) ) ! ~ ; ; ; ; ; ; ; ; ; ; ; ; ; ; ; ; ; ; ; ; ; ; ; ; ; ; ; ; ; ; ; ; ; ; ; ; ; ; ; ; ; ; ; ; ; ; ; ; ; ; ; ; ; ; ; ; ; ; ; ; ; ; ; ; ; ; ; ; ; ; ; ; ; ; ; ; ; ; ; ; ; ; ; ; ; ; ; ; ; ; ; ; ; ; ; ; ; ; ; ; ; ; ; ; ; ; ; ; ; ; ; ; ; ; ; ; ; ; ; ; ; ; ; ; ; ; ; ; ; ; ; ; ; ; ; ; ; ; ; ; ; ; ; ; ; ; ; ; ; ; ; ; ; ; ; ; ; ; ; ; ; ; ; ; ; ; ; ; ; ; ; ; ; ; ; ; ; ",
"                                                      @ { { { { { { { $ ] ^ ^ ^ ^ ^ ^ ^ ^ ^ ^ ^ ^ ^ ^ ^ ^ ^ ^ ^ ^ ^ ^ ^ ^ ^ ^ ^ ^ ^ ^ ^ ^ ^ ^ ^ ^ ^ ^ ^ ^ ^ ^ ^ ^ ^ ^ ^ ^ ^ ^ ^ ^ ^ ^ ^ ^ ^ ^ ^ ^ ^ ^ ^ ^ ^ ^ ^ ^ ^ ^ ^ ^ ^ ^ ^ ^ ^ ^ ^ ^ ^ ^ ^ ^ ^ ^ ^ ^ ^ ^ ^ ^ ^ ^ ^ ^ ^ ^ ^ ^ ^ ^ ^ ^ ^ ^ ^ ^ ^ ^ ^ ^ ^ ^ ^ ^ ^ ^ ^ ^ ^ ^ ^ ^ ^ ^ ^ ^ ^ ^ ^ ^ ^ ^ ^ ^ ^ ^ ^ ^ ^ ^ ^ ^ ^ ^ ^ ^ ^ ^ ^ ^ ^ ^ ^ ^ ^ ^ ^ ^ ^ ^ ^ ^ ^ ^ ^ ^ ^ ^ ^ ^ ^ ^ ^ ^ ^ ^ ",
"                                                    ) / / / / / / ( _ : < < < < < < < < < < < < < < < < < < < < < < < < < < < < < < < < < < < < < < < < < < < < < < < < < < < < < < < < < < < < < < < < < < < < < < < < < < < < < < < < < < < < < < < < < < < < < < < < < < < < < < < < < < < < < < < < < < < < < < < < < < < < < < < < < < < < < < < < < < < < < < < < < < < < < < < < < < < < < < < < < < < < < < < < < < < < < < < < < < < ",
"                                                + / ( ( ( ( ( ( [ } | | | | | | | | | | | | | | | | | | | | | | | | | | | | | | | | | | | | | | | | | | | | | | | | | | | | | | | | | | | | | | | | | | | | | | | | | | | | | | | | | | | | | | | | | | | | | | | | | | | | | | | | | | | | | | | | | | | | | | | | | | | | | | | | | | | | | | | | | | | | | | | | | | | | | | | | | | | | | | | | | | | | | | | | | | | | | | | | | | | | | ",
"                                              * 1 1 1 1 1 1 1 2 3 4 4 4 4 4 4 4 4 4 4 4 4 4 4 4 4 4 4 4 4 4 4 4 4 4 4 4 4 4 4 4 4 4 4 4 4 4 4 4 4 4 4 4 4 4 4 4 4 4 4 4 4 4 4 4 4 4 4 4 4 4 4 4 4 4 4 4 4 4 4 4 4 4 4 4 4 4 4 4 4 4 4 4 4 4 4 4 4 4 4 4 4 4 4 4 4 4 4 4 4 4 4 4 4 4 4 4 4 4 4 4 4 4 4 4 4 4 4 4 4 4 4 4 4 4 4 4 4 4 4 4 4 4 4 4 4 4 4 4 4 4 4 4 4 4 4 4 4 4 4 4 4 4 4 4 4 4 5 6 7 8 8 7 9 5 4 4 4 4 4 4 4 4 4 4 4 4 4 4 4 4 4 ",
"                                            / 1 1 1 1 1 1 0 a b c c c c c c c c c c c c c c c c c c c c c c c c c c c c c c c c c c c c c c c c c c c c c c c c c c c c c c c c c c c c c c c c c c c c c c c c c c c c c c c c c c c c c c c c c c c c c c c c c c c c c c c c c c c c c c c c c c c c c c c c c c c c c c c c c c c c c c c c c c c c c c d e f g g 7 e d c c c c c c c h f 7 i e i j k 7 h c c c c c c c c c c c c c c c c ",
"                                        * 1 0 0 0 0 0 0 l m n n n n n n n n n n n n n n n n n n n n n n n n n n n n n n n n n n n n n n n n n n n n n n n n n n n n n k o o o p q n n p o o o o e n p o o o o e n p o n n n n r s s s t u n n n u v w x t y n u s t n n z s A n n n n n n n n n n n n n n n n n n n n n n n n n c e f j B B e c n n n n n , C C ' ] ; C 8 C , n n n n n : B e d D n & - E g g : n n n n n n n n n n n n n n n ",
"                                    + 1 F F F F F F G H I m m m m m m m m m m m m m m m m m m m m m m m m m m m m m m m m m m m m m m m m m m m m m m m m m m m m m m J K p p K K m m o K J J J L m o K J J J L m o K m m m m r w M N x x O m P x Q R R x Q m m s w z m s w P m m m m m m m m m m m m m m m m m m m m m m m m S E T 4 b U V g E S m m m n E V W 2 X W < i 8 C S m m m Y Z ` _  ...[ +.} ' C 8 f b m m m m m m m m m m m m m m ",
"                                  / 0 @.@.@.@.@.@.#.a = = = = = = = = = = = = = = = = = = = = = = = = = = = = = = = = = = = = = = = = = = = = = = = = = = = = = = = = $.K %.= &.K %.= o K = = = = = o K = = = = = o K = = = = r w z = A w z = M w y = = R w R = y w s R w r = = = = = = = = = = = = = = = = = = = = = = = = = ; %.a @.@.X | i 8 ; = = = *.C _ =.@.@.! _ ' Z k *.= = = ' B | -.@.@.@.=.;.>.V 7 $.' = = = = = = = = = = = = = = ",
"                            + ( @.,.,.,.,.,.'.#.+.).).).).).).).).).).).).).).).).).).).).).).).).).).).).).).).).).).).).).).).).).).).).).).).).).).).).).).).).).).$.K V ).&.K U ).!.K ).).).).).!.K ).).).).).!.K ).).).).r w u ).t w ~.).Q {.).).).y w A ).).N w x x ~.).).).).).).).).).).).).).).).).).).).).).).).).).f U ].0 0 =.b ^.7 B ).).).C /.= 0 0 0 =.(.] E g Z ).).).E E _.#.0 0 0 =.= | e Z 8 C ).).).).).).).).).).).).).).",
"                      + { 0 ..........G :.<.[.}.}.}.}.}.}.}.}.}.}.}.}.}.}.}.}.}.}.}.}.}.}.}.}.}.}.}.}.}.}.}.}.}.}.}.}.}.}.}.}.}.}.}.}.}.}.}.}.}.}.}.}.}.}.}.}.}.}.}.}.$.K p &.K $.}.}.!.K !.!.!.^ }.!.K !.!.!.^ }.!.K }.}.}.}.r w Q Q x z }.}.w v }.}.}.}.w v }.}.|.w w R }.}.}.}.}.}.}.}.}.}.}.}.}.}.}.}.}.}.}.}.}.}.}.}.}.}.7 U l 0 0 <.} 1.Z 8 }.}.}.B ; W G 0 0 <._ ] E B g }.}.}.B i 2.+.0 0 @.<.D : e C g B }.}.}.}.}.}.}.}.}.}.}.}.}.}.",
"          * * ) / 1 @.'.'.=.=.[ ].3.#.4.4.4.4.4.4.4.4.4.4.4.4.4.4.4.4.4.4.4.4.4.4.4.4.4.4.4.4.4.4.4.4.4.4.4.4.4.4.4.4.4.4.4.4.4.4.4.4.4.4.4.4.4.4.4.4.4.4.4.4.4.4.4.4.k K o 5.5., 4.4.!.K k k k , 4.!.K k k k , 4.!.K 4.4.4.4.R w N R x s 6.4.w v 4.4.4.4.w v 4.4.u w w A 4.4.4.4.4.4.4.4.4.4.4.4.4.4.4.4.4.4.4.4.4.4.4.4.4.4.B *.D X -.D >.` f g 4.4.4.B 9 2.a  .-.W | 7.E B g 4.4.4.B E ~ n -.#.X (._.] V Z B B 4.4.4.4.4.4.4.4.4.4.4.4.4.4.",
" . . . . . . . . . . . . . . . . . . . . . . . . . . . . . . . . . . . . . . . . . . . . . . . . . . . . . . . . . . . . . . . . . . . . . . . . . . . . . . . . . . .k K /.~ K J  . .!.K  . . . . .!.K  . . . . .!.K  . . . .R w u  .R w R  .{.s  . . .6.w N  . .v w s w ~. . . . . . . . . . . . . . . . . . . . . . . . . .j E 8.| 2.h ^.E 7 j  . . .C f 7.| } d U 8.V C B C  . . .E 7 e >.} _ c & ~ ^.E Z g E  . . . . . . . . . . . . . .",
"#.#.#.#.#.#.#.#.#.#.#.#.#.#.#.#.#.#.#.#.#.#.#.#.#.#.#.#.#.#.#.#.#.#.#.#.#.#.#.#.#.#.#.#.#.#.#.#.#.#.#.#.#.#.#.#.#.#.#.#.#.#.#.#.#.#.#.#.#.#.#.#.#.#.#.#.#.#.#.#.#.#.#.8 K ^.#.o 5.#.#.!.K #.#.#.#.#.!.K #.#.#.#.#.!.K #.#.#.#.R w u #.z w R #.M w 9.#.#.z w R #.z w r u w N #.#.#.#.#.#.#.#.#.#.#.#.#.#.#.#.#.#.#.#.#.#.#.#.#.q g C V e 9 E Z g ] #.#.#.~ g C e ' ' 0.9 E f 8 ~ #.#.#.~ 8 C e - ~ ] - ^.%.C 7 k ~ #.#.#.#.#.#.#.#.#.#.#.#.#.#.",
":.:.:.:.:.:.:.:.:.:.:.:.:.:.:.:.:.:.:.:.:.:.:.:.:.:.:.:.:.:.:.:.:.:.:.:.:.:.:.:.:.:.:.:.:.:.:.:.:.:.:.:.:.:.:.:.:.:.:.:.:.:.:.:.:.:.:.:.:.:.:.:.:.:.:.:.:.:.:.:.:.:.:.8 K a.:.J K < :.!.K a.a.a.b.:.!.K a.a.a.b.:.!.K a.a.a.$ R w R c.s w |.:.c.w N d.~.s x d.:.{.x d.:.v w |.:.:.:.:.:.:.:.:.:.:.:.:.:.:.:.:.:.:.:.:.:.:.:.:.<.e g 7 Z Z j g e <.:.:.:.2 9 g f E E E C f g 9 2 :.:.:.[.E g Z E V ` 9 E E f g E [.:.:.:.:.:.:.:.:.:.:.:.:.:.:.",
"].].].].].].].].].].].].].].].].].].].].].].].].].].].].].].].].].].].].].].].].].].].].].].].].].].].].].].].].].].].].].].].].].].].].].].].].].].].].].].].].].].].8 K 7.].7.K J ].!.K K K K 8 ].!.K K K K 8 ].!.K K K K 7.R w w w {.z ].].].z x w w {.|.].R w R ].].c.w v ].].].].].].].].].].].].].].].].].].].].].].].].].l ~ Z g g Z ~ l ].].].].].+.V 8 B 7 7 B 8 V +.].].].].].m j g 7 Z C C Z j g j m ].].].].].].].].].].].].].].].",
"! ! ! ! ! ! ! ! ! ! ! ! ! ! ! ! ! ! ! ! ! ! ! ! ! ! ! ! ! ! ! ! ! ! ! ! ! ! ! ! ! ! ! ! ! ! ! ! ! ! ! ! ! ! ! ! ! ! ! ! ! ! ! ! ! ! ! ! ! ! ! ! ! ! ! ! ! ! ! ! ! ! ! ! ! ! ! ! ! ! ! ! ! ! ! ! ! ! ! ! ! ! ! ! ! ! ! ! ! ! ! ! ! ! ! ! ! ! ! ! ! ! c.|.! ! ! ! ! ! ! ! ! ! ! ! ! ! ! ! ! ! ! ! ! ! ! ! ! ! ! ! ! ! ! ! ! ! ! ! ! ! ! ! ! ! ! ! ! ! ! ! ! !  .< E B B E <  .! ! ! ! ! ! ! W E 8 g B B g 8 E W ! ! ! ! ! ! ! ! ! ! ! ! ! ! ! ! ",
"3.3.3.3.3.3.3.3.3.3.3.3.3.3.3.3.3.3.3.3.3.3.3.3.3.3.3.3.3.3.3.3.3.3.3.3.3.3.3.3.3.3.3.3.3.3.3.3.3.3.3.3.3.3.3.3.3.3.3.3.3.3.3.3.3.3.3.3.3.3.3.3.3.3.3.3.3.3.3.3.3.3.3.3.3.3.3.3.3.3.3.3.3.3.3.3.3.3.3.3.3.3.3.3.3.3.3.3.3.3.3.3.3.3.3.3.3.3.3.3.3.3.3.3.3.3.3.3.3.3.3.3.3.3.3.3.3.3.3.3.3.3.3.3.3.3.3.3.3.3.3.3.3.3.3.3.3.3.3.3.3.3.3.3.3.3.3.3.3.3.3.3.3.3.3.3.3.3.3.3.3.3.3.3.3.3.3.3.3.3.-.h i 7 7 i h -.3.3.3.3.3.3.3.3.3.3.3.3.3.3.3.3.3.",
"l l l l l l l l l l l l l l l l l l l l l l l l l l l l l l l l l l l l l l l l l l l l l l l l l l l l l l l l l l l l l l l l l l l l l l l l l l l l l l l l l l l l l l l l l l l l l l l l l l l l l l l l l l l l l l l l l l l l l l l l l l l l l l l l l l l l l l l l l l l l l l l l l l l l l l l l l l l l l l l l l l l l l l l l l l l l l l l l l l l l l l l l l l l l l l l l l l l l l l l l l l l l l l l l l l l l l l l ",
"#.#.#.#.#.#.#.#.#.#.#.#.#.#.#.#.#.#.#.#.#.#.#.#.#.#.#.#.#.#.#.#.#.#.#.#.#.#.#.#.#.#.#.#.#.#.#.#.#.#.#.#.#.#.#.#.#.#.#.#.#.#.#.#.#.#.#.#.#.#.#.#.#.#.#.#.#.#.#.#.#.#.#.#.#.#.#.#.#.#.#.#.#.#.#.#.#.#.#.#.#.#.#.#.#.#.#.#.#.#.#.#.#.#.#.#.#.#.#.#.#.#.#.#.#.#.#.#.#.#.#.#.#.#.#.#.#.#.#.#.#.#.#.#.#.#.#.#.#.#.#.#.#.#.#.#.#.#.#.#.#.#.#.#.#.#.#.#.#.#.#.#.#.#.#.#.#.#.#.#.#.#.#.#.#.#.#.#.#.#.#.#.#.#.#.#.#.#.#.#.#.#.#.#.#.#.#.#.#.#.#.#.#.#.#.",
"<.<.<.<.<.<.<.<.<.<.<.<.<.<.<.<.<.<.<.<.<.<.<.<.<.<.<.<.<.<.<.<.<.<.<.<.<.<.<.<.<.<.<.<.<.<.<.<.<.<.<.<.<.<.<.<.<.<.<.<.<.<.<.<.<.<.<.<.<.<.<.<.<.<.<.<.<.<.<.<.<.<.<.<.<.<.<.<.<.<.<.<.<.<.<.<.<.<.<.<.<.<.<.<.<.<.<.<.<.<.<.<.<.<.<.<.<.<.<.<.<.<.<.<.<.<.<.<.<.<.<.<.<.<.<.<.<.<.<.<.<.<.<.<.<.<.<.<.<.<.<.<.<.<.<.<.<.<.<.<.<.<.<.<.<.<.<.<.<.<.<.<.<.<.<.<.<.<.<.<.<.<.<.<.<.<.<.<.<.<.<.<.<.<.<.<.<.<.<.<.<.<.<.<.<.<.<.<.<.<.<.<.<.<.<.",
" . . . . . . . . . . . . . . . . . . . . . . . . . . . . . . . . . . . . . . . . . . . . . . . . . . . . . . . . . . . . . . . . . . . . . . . . . . . . . . . . . . . . . . . . . . . . . . . . . . . . . . . . . . . . . . . . . . . . . . . . . . . . . . . . . . . . . . . . . . . . . . . . . . . . . . . . . . . . . . . . . . . . . . . . . . . . . . . . . . . . . . . . . . . . . . . . . . . . . . . . . . . . . . . . . . . . . . .",
"4.4.4.4.4.4.4.4.4.4.4.4.4.4.4.4.4.4.4.4.4.4.4.4.4.4.4.4.4.4.4.4.4.4.4.4.4.4.4.4.4.4.4.4.4.4.4.4.4.4.4.4.4.4.4.4.4.4.4.4.4.4.4.4.4.4.4.4.4.4.4.4.4.4.4.4.4.4.4.4.4.4.4.4.4.4.4.4.4.4.4.4.4.4.4.4.4.4.4.4.4.4.4.4.4.4.4.4.4.4.4.4.4.4.4.4.4.4.4.4.4.4.4.4.4.4.4.4.4.4.4.4.4.4.4.4.4.4.4.4.4.4.4.4.4.4.4.4.4.4.4.4.4.4.4.4.4.4.4.4.4.4.4.4.4.4.4.4.4.4.4.4.4.4.4.4.4.4.4.4.4.4.4.4.4.4.4.4.4.4.4.4.4.4.4.4.4.4.4.4.4.4.4.4.4.4.4.4.4.4.4.4.4.4.4."};
