/* XPM */
static char *___TV[] = {
/* columns rows colors chars-per-pixel */
"64 48 54 1",
"  c #D85A0F",
". c #D85C11",
"X c #D95F15",
"o c #D96017",
"O c #DA641D",
"+ c #DB6721",
"@ c #DB6A26",
"# c #DC6D2A",
"$ c #DD712F",
"% c #DE7435",
"& c #DF7739",
"* c #DF7A3D",
"= c #E07D41",
"- c #E07E43",
"; c #E2854C",
": c #E28751",
"> c #E38A54",
", c #E48E5A",
"< c #E5915F",
"1 c #E69564",
"2 c #E69868",
"3 c #E79A6C",
"4 c #E89E71",
"5 c #E89F73",
"6 c #E9A176",
"7 c #E9A57C",
"8 c #EAA880",
"9 c #EBAB85",
"0 c #ECAE89",
"q c #ECB18E",
"w c #EDB694",
"e c #EEB898",
"r c #EFBC9D",
"t c #F0BFA2",
"y c #F0C0A3",
"u c #F0C2A6",
"i c #F1C5AB",
"p c #F3CCB5",
"a c #F4CFB9",
"s c #F4D2BD",
"d c #F5D6C2",
"f c #F6D9C8",
"g c #F7DCCC",
"h c #F8E0D1",
"j c #F8E0D2",
"k c #F8E3D6",
"l c #F9E6DB",
"z c #FAE9DE",
"x c #FBEDE5",
"c c #FBF0E8",
"v c #FCF2ED",
"b c #FDF7F3",
"n c #FDF9F6",
"m c #FFFFFF",
/* pixels */
"mmmmmmmmmmmmmmmmmmmmmmmmmmmmmmmmmmmmmmmmmmmmmmmmmmmmmmmmmmmmmmmm",
"mmmmmmmmmmmmmmmmmmmmmmmmmmmmmmmmmmmmmmmmmmmmmmmmmmmmmmmmmmmmmmmm",
"oooooooooooooooooooooooooooooooooooooooooooooooooooooooooooooooo",
"oooooooooooooooooooooooooooooooooooooooooooooooooooooooooooooooo",
"oooooooooooooooooooooooooooooooooooooooooooooooooooooooooooooooo",
"oooooooooooooooooooooooooooooooooooooooooooooooooooooooooooooooo",
"oooooooooooooooooooooooooooooooooooooooooooooooooooooooooooooooo",
"oooooooooooooooooooooooooooooooooooooooooooooooooooooooooooooooo",
"ooooooooooooooooooXXoooooooooooooooooooooooooooooooooooooooooooo",
"ooooooooooooooXXXXXXXXXXooooooooXXXXXXXXXXXXXXXXXXXXXXXXoooooooo",
"ooooooooooooXXO&<6007<&OXXoooooXXO@@@@@@@@@@@##########OXooooooo",
"ooooooooooXX+1isiw90wisi1@XXooXX:psssssssssssssssssssssi*Xoooooo",
"oooooooooXX;pp3,3qrrq3,3pp;XXoX@s7=-------======*******wroXooooo",
"ooooooooXo4d6<uxmmmmmmxi<4d6OXX%d%.XXXXXXXXXXXXXXXXXXX.>pOXooooo",
"oooooooXo6s,qvmmmmmmmmmmvq,s7oX%d%XoooooooooooooooooooX>pOXooooo",
"ooooooXX1d>immmmmmmmmmmmmmi>d2X%d%XoooooooooooooooooooX>pOXooooo",
"ooooooX&d<tmmmmmmmmmmmmmmmmu<d&%d%XoooXXXXooooooooooooX>pOXooooo",
"oooooXoeq6nmmmmmmmmmmmmmmmmn6qe%d%XooXXXXXooooooooooooX>pOXooooo",
"oooooX*s>kmbp723wlmmz877776sk>s,d%XoXO7tr=XoooooooooooX>pOXooooo",
"ooooXX7e7mn6O. .X*gmiX.... 7m7erd%XoX+fmm1.XXXXXXXXXXoX>pOXooooo",
"ooooXOi3ampOX%1&X.1mqXO%&&%wmp2gg%XXO;kmm0&%;;%Xo&;;@XX>pOXooooo",
"ooooX#s,zm6 OimpOX=v2.*fghxnmz,ll%XX%kmmmms4vnaO@dnx;XX>pOXooooo",
"ooooX&s<bmr16xmeo.>c;.$;%*3kmv1kx%XX#ibmmkq*xmc&=vmg@XX:pOXooooo",
"ooooX=a1nmmmmnr#.@px%.X##X.;vn1hx%XXX#hmm3XOimm24mmqXXX:pOXooooo",
"ooooX*a1bmmml2OX=pmvrqrkg*XOpn<kx%XoX@hmm2XX2mmuimb;XoX:pOXooooo",
"ooooX%s,cmmd*X@8xmmnvxvmn,XXyc,lz%XoX@hmm2.X%lmcvmg@XoX:pOXooooo",
"ooooX+p1fmg%XX*676eu=%>st#XOdf1hg%XoX@gmms<OotmmmmqXXoX:p+Xooooo",
"ooooXXq9qm3.XXX.. =f*.XOoXX1bq0is%XoXOpmmmfOX<nmmb;XooX;a+Xooooo",
"oooooX:a,z1%&&%&&%<bg1$+@*7xc,a2s%XoXX>skltOX#pggu@XooX;p+Xooooo",
"oooooXOi4wvxxxxxxxvmmnlghcmmw4i&s%XooXXO##+oXo+@+OXoooX;p+Xooooo",
"ooooooX>s:gmmmmmmmmmmmmmmmmd:s:@s%XoooXXXXXXoXXXXXXoooX;p+Xooooo",
"ooooooXoqt>kmmmmmmmmmmmmmmh>u0o%s%XoooooooooooooooooooX;p+Xooooo",
"oooooooX@ue>smmmmmmmmmmmms>rt@X$s%XoooooooooooooooooooX;p+Xooooo",
"ooooooooX#tu:9lmmmmmmmmk8>ir@XX$s%XXXXXXXXXXXXXXXXXXXX.;a+Xooooo",
"oooooooooX+7s7>3rdggdr3>8s7+XoX@s<@@@@@@@@@@###########7iOXooooo",
"ooooooooooXX=ear61,<17taw=XXooXX2daaasssssssssaassaasssa;XXooooo",
"oooooooooooXXo%2wuiiuw2%oXXooooXo%--=======*******&&&&&@XXoooooo",
"oooooooooooooXXXXOOOOXXXXoooooooXXXXXXXXXXXXXXXXXXXXXXXXXooooooo",
"ooooooooooooooooXXXXXXoooooooooooooooooooooooooooooooooooooooooo",
"oooooooooooooooooooooooooooooooooooooooooooooooooooooooooooooooo",
"oooooooooooooooooooooooooooooooooooooooooooooooooooooooooooooooo",
"oooooooooooooooooooooooooooooooooooooooooooooooooooooooooooooooo",
"oooooooooooooooooooooooooooooooooooooooooooooooooooooooooooooooo",
"oooooooooooooooooooooooooooooooooooooooooooooooooooooooooooooooo",
"oooooooooooooooooooooooooooooooooooooooooooooooooooooooooooooooo",
"oooooooooooooooooooooooooooooooooooooooooooooooooooooooooooooooo",
"mmmmmmmmmmmmmmmmmmmmmmmmmmmmmmmmmmmmmmmmmmmmmmmmmmmmmmmmmmmmmmmm",
"mmmmmmmmmmmmmmmmmmmmmmmmmmmmmmmmmmmmmmmmmmmmmmmmmmmmmmmmmmmmmmmm"
};
