/* XPM */
static char *__[] = {
/* columns rows colors chars-per-pixel */
"64 48 33 1",
"r c None",
"  c #010101",
". c #0B0B0B",
"X c #131313",
"o c #1B1B1B",
"O c #232323",
"+ c #2B2B2B",
"@ c #323232",
"# c #3B3B3B",
"$ c #434343",
"% c #4B4B4B",
"& c #545454",
"* c #5C5C5C",
"= c #616161",
"- c #6B6B6B",
"; c #747474",
": c #7D7D7D",
"> c #838383",
", c #8B8B8B",
"< c #959595",
"1 c #9B9B9B",
"2 c #A2A2A2",
"3 c #AAAAAA",
"4 c #B3B3B3",
"5 c #BBBBBB",
"6 c #C4C4C4",
"7 c #CBCBCB",
"8 c #D3D3D3",
"9 c #DBDBDB",
"0 c #E4E4E4",
"q c #EBEBEB",
"w c #F3F3F3",
"e c #FEFEFE",
/* pixels */
"reeeeeeeeeeeeeeeeeeeeeeeeeeeeeeeeeeeeeeeeeeeeeeeeeeeeeeeeeeeeeee",
"reeeeeee832222222222222222222222222222222222222222222238eeeeeeee",
"reeeeeee2**===================*%&====================**3eeeeeeee",
"reeeeeee>%,<<<<<<<<<<<<<<<<<<<>$*<<<<<<<<<<<<<<<<<<<<>%,eeeeeeee",
"reeeeeee>;9qqqqqqqqqqqqqqqqqqq8-<qqqqqqqqqqqqqqqqqqqq9;,eeeeeeee",
"reeeeeee>>qeeeeeeeeeeeeeeeeeee0;2eeeeeeeeeeeeeeeeeeeeq:,eeeeeeee",
"reeeeeee>>qeeeeeeeeeeeeeeeeeee0;2eeeeeeeeeeeeeeeeeeeeq:,eeeeeeee",
"reeeeeee>>qeeeeeeeeeeeeeeeeeee0;2eeeeeeeeeeeeeeeeeeeeq:,eeeeeeee",
"reeeeeee>:qeeeeeeeq090weeeeeee0;2eeeeeeeeewwweeeeeeeeq:,eeeeeeee",
"reeeeeee>:qeeeeew7<;;:17weeeee0;2eeeeeeeq854570weeeeeq:,eeeeeeee",
"reeeeeee>:qeeeew4*+XXX+=4qeeee0;2eeeeee01=$#$&,7weeeeq:,eeeeeeee",
"reeeeeee>:qeeew5%X     X%4weee0;2eeeeeq,@X.XX.O=6eeeeq:,eeeeeeee",
"reeeeeee>:qeee9-.  .X.  .&8eee0;2eeeew4@.O&-*@.X;0eeeq:,eeeeeeee",
"reeeeeee>:qeew3+  o&-%o  o1wee0;2eeee0-.+>6971#.@5eeeq:,eeeeeeee",
"reeeeeee>:qeeq;. X;695-X .-qee0;2eeee6#X;9eeeq<OX,weeq:,eeeeeeee",
"reeeeeee>:qee9%  $6eew5#  %9ee0;2eeee2o@5eeeee8%.;qeeq:,eeeeeeee",
"reeeeeee>:qee6@ .;qeee0=  #8ee0;2eeew>X%9eeeeeq-.=qeeq:,eeeeeeee",
"reeeeeee>:qee4@.O1weeeq;. #8ee0;2eeew:o-qeeeeeq;.=0eeq:,eeeeeeee",
"reeeeeee>:qee7:-;6eeee0=  %9ee0;2eeew3-3weeeee0=.-qeeq:,eeeeeeee",
"reeeeeee>:qeew999weeew5# .-qee0;2eeeeq8qeeeeee6#X,weeq:,eeeeeeee",
"reeeeeee>:qeeeeeeee074=X +3wee0;2eeeeeeeeeeew9>o@5eeeq:,eeeeeeee",
"reeeeeee>:qeeeeeeeq<*#X o:0eee0;2eeeeeeeew853:+O>qeeeq:,eeeeeeee",
"reeeeeee>:qeeeeeee9&.   $5weee0;2eeeeeeeeq,%@o.$6eeeeq:,eeeeeeee",
"reeeeeee>:qeeeeeee9&.   +,0eee0;2eeeeeeeeq-oX. #3weeeq:,eeeeeeee",
"reeeeeee>:qeeeeeeeq,&#X .+<qee0;2eeeeeeeew3;=$oX%5weeq:,eeeeeeee",
"reeeeeee>:qeeeeeeew963-o  $7ee0;2eeeeeeeeeq084-o.-0eeq:,eeeeeeee",
"reeeeeee>:qeeeeeeeeeew6&. o1we0;2eeeeeeeeeeeew7*.@6eeq:,eeeeeeee",
"reeeeeee>:qee0990eeeeew,X .;we0;2eeeeeeeeeeeeew2oo2eeq:,eeeeeeee",
"reeeeeee>:qeq1-;1qeeeee3o  =qe0;2eeew00weeeeeee6@X,weq:,eeeeeeee",
"reeeeeee>:qe0-XX%8eeeee4O  =qe0;2eee9,>8eeeeeee8$.>weq:,eeeeeeee",
"reeeeeee>:qeq-. +5eeeew1o  -qe0;2eee6#+2eeeeeee8$X,weq:,eeeeeeee",
"reeeeeee>:qew>. X,weee0;. .:we0;2eee7#.>weeeeee6@X1weq:,eeeeeeee",
"reeeeeee>:qee3O  $5wwq3@  o2ee0;2eee9&.=0eeeeew<oO4eeq:,eeeeeeee",
"reeeeeee>:qee8$  X&14<%.  $7ee0;2eeew:.@3weeew6&.%8eeq:,eeeeeeee",
"reeeeeee>:qeeq,o  .+#O.  o>qee0;2eeee4+.&40q06-XX>qeeq:,eeeeeeee",
"reeeeeee>:qeee7*.       X*7eee0;2eeee0-XX$:<>&o.%7eeeq:,eeeeeeee",
"reeeeeee>:qeeew5&o.   .O=5weee0;2eeeew5%X.oOo.X$3weeeq:,eeeeeeee",
"reeeeeee>:qeeeew6>&##$&,7weeee0;2eeeeew4-#+O+#-3qeeeeq:,eeeeeeee",
"reeeeeee>:qeeeeew0643470eeeeee0;2eeeeeew841<148weeeeeq:,eeeeeeee",
"reeeeeee>:qeeeeeeeewwweeeeeeee0;2eeeeeeeewwqwweeeeeeeq:,eeeeeeee",
"reeeeeee>:qeeeeeeeeeeeeeeeeeee0;2eeeeeeeeeeeeeeeeeeeeq:,eeeeeeee",
"reeeeeee>:qeeeeeeeeeeeeeeeeeee0;2eeeeeeeeeeeeeeeeeeeeq:,eeeeeeee",
"reeeeeee>:qeeeeeeeeeeeeeeeeeee0;2eeeeeeeeeeeeeeeeeeeeq:,eeeeeeee",
"reeeeeee>;0wwwwwwwwwwwwwwwwwww9;1qwwwwwwwwwwwwwwwwwww0;,eeeeeeee",
"reeeeeee>&<2222222222222223333<%-232222222222222222231&,eeeeeeee",
"reeeeeee1&*===================*$%==============*****=*&2eeeeeeee",
"reeeeeee71,,,,,,,,,,,,,,,,,,,,,<<,,,,,,,,,,,,,,,,,,,,,17eeeeeeee",
"reeeeeeeeeeeeeeeeeeeeeeeeeeeeeeeeeeeeeeeeeeeeeeeeeeeeeeeeeeeeeee"
};
