/* XPM */
static char *___LATINO[] = {
/* columns rows colors chars-per-pixel */
"64 48 64 1",
"F c None",
"  c #020003",
". c #090205",
"X c #170706",
"o c #1B1B1B",
"O c #240C0B",
"+ c #371613",
"@ c #2C120E",
"# c #303130",
"$ c #4C1A14",
"% c #69271B",
"& c #723227",
"* c #55271E",
"= c #474747",
"- c #555555",
"; c #676767",
": c #727272",
"> c #5F5F61",
", c #873729",
"< c #8F3B2F",
"1 c #A03229",
"2 c #924534",
"3 c #AD4A37",
"4 c #CA5237",
"5 c #AE5546",
"6 c #BA6651",
"7 c #9C594F",
"8 c #CA5744",
"9 c #E95B43",
"0 c #D8664A",
"q c #CE6951",
"w c #E36D53",
"e c #D67A64",
"r c #CD7864",
"t c #E57A65",
"y c #C44E63",
"u c #9F3744",
"i c #D88777",
"p c #D7856A",
"a c #E48A75",
"s c #888888",
"d c #969696",
"f c #A6A6A6",
"g c #B7B6B6",
"h c #A78F8E",
"j c #E39888",
"k c #E7A798",
"l c #E7A38F",
"z c #EBB8AD",
"x c #CE9C99",
"c c #EEC5B8",
"v c #C8C8C8",
"b c #D8D8D8",
"n c #D3CBCB",
"m c #F4D4CA",
"M c #F6DBD4",
"N c #EED0C7",
"B c #F7E2DC",
"V c #E8E8E8",
"C c #F9E9E6",
"Z c #FEFEFE",
"A c #FAF5F3",
"S c #FBF1EE",
"D c #F5DEE2",
/* pixels */
"FZZZZZZZZZZZZZZZZZZZZZZZZZZZZZZZZZZZZZZZZZZZZZZZZZZZZZZZZZZZZZZZ",
"FZZZZZZZZZZZZZZZZAmNMMBCCCSSAAAAAZZZZZZZZZZZZZZZZZZZZZZZZZZZZZZZ",
"FZZZZZZZZZZZZZZZZNpeiiaajjjlkkkzzzzccNNmmMmNcCZZZZZZZZZZZZZZZZZZ",
"FZZZZZZZZZZZZZZZZc03,<22535555566666qrrrrerqqkZZZZZZZZZZZZZZZZZZ",
"FZZZZZZZZZZZZZZZZcw%OXO@@@++$$$$$$*%%&&,,<&,8kZZZZZZZZZZZZZZZZZZ",
"FZZZZZZZZZZZZZZZZc0%.       .......XXXXXXXX$8kZZZZZZZZZZZZZZZZZZ",
"FZZZZZZZZZZZZZZZZNw%.                      $8kZZZZZZZZZZZZZZZZZZ",
"FZZZZZZZZZZZZZZZZmw&.                      $4kZZZZZZZZZZZZZZZZZZ",
"FZZZZZZZZZZZZZZZZmt&.         ...          *8zZZZZZZZZZZZZZZZZZZ",
"FZZZZZZZZZZZZZZZZMt,X      .X@*&@     .XXXX%8cZZZZZZZZZZZZZZZZZZ",
"FZZZZZZZZZZZZZZZZBt<X    X@*&76q%.  X$&,2<,10NZZZZZZZZZZZZZZZZZZ",
"FZZZZZZZZZZZZZZZZCa<X .O$&26pjaw&..+,50099940mZZZZZZZZZZZZZZZZZZ",
"FZZZZZZZZZZZZZZZZCa1@+*25rikNCmt&X+300wwwwt0eBZZZZZZZZZZZZZZZZZZ",
"FZZZZZZZZZZZZZZZZCa4256ikcBAZZBt,$300akcmMmzcAZZZZZZZZZZZZZZZZZZ",
"FZZZZZZZZZZZZZZZZSa0ejcBAZZZZZCt330wkBAZZZZZZZZZZZZZZZZZZZZZZZZZ",
"FZZZZZZZZZZZZZZZZZczmBnVZZZZZZCa990kSZZZZZZZZZZZZZZZZZZZZZZZZZZZ",
"FZZZZZZZZZZZZZZZZZZZVh2hAZZZZZSa99jSZZZZZZZZZZZZZZZZZZZZZZZZZZZZ",
"FZZZZZZZZZZZZZZZZZZZf&15CZZZZZSa9tMZZZZZZZZZZZZZZZZZZZZZZZZZZZZZ",
"FZZZZZZZZZZZZZZZZZZZn6uyDZZZZZAa0zZZZZZZZZZZZZZZZZZZZZZZZZZZZZZZ",
"FZZZZZZZZZZZZZZZZZZZZMkzAZZZZZAkjSZZZZZZZZZZZZZZZZZZZZZZZZZZZZZZ",
"FZZZZZZZZZZZZZZZZZZZZZZZZZZZZZZCCZZZZZZZZZZZZZZZZZZZZZZZZZZZZZZZ",
"FZZZZZZZZZZZZZZZZZZZZZZZZZZZZZZZZZZZZZZZZZZZZZZZZZZZZZZZZZZZZZZZ",
"FZZZZZZZZZZZZZZZZZZCCSAZZZZZZZZZZZZZZZZZZZZZZZZZZZZZZZZZZZZZZZZZ",
"FZZZZZZZZZZZZZZZZZCjajkcAZZZZZZZZAZZZZZZZZZZZZZZZZZZZZZZZZZZZZZZ",
"FZZZZZZZZZZZZZZZZZm0438eMZZZZZZAczcCZZZZZZZZZZZZZZZZZZZZZZZZZZZZ",
"FZZZZZZZZZZZZZZZZZm01$,0NZZZZZZCp8qkCZZZZZZZZZZZZZZZZZZZZZZZZZZZ",
"FZZZZZZZZZZZZZZZZZMw,X*0cZZZZZZCt32qkCZZZZZZAMCZZZZZZZZZZZZZZZZZ",
"FZZZZZZZZZZZZZZZZZMt,X*qlMBCCSSMt1$,qazMCCCmkrcZZZZZZZZZZZZZZZZZ",
"FZZZZZZZZZZZZZZZZZMt,X+5weiijjjaw1XO&56piiirq0zZZZZZZZZZZZZZZZZZ",
"FZZZZZZZZZZZZZZZZZBt,XX%,<<<23333%X X+*,222,<0zZZZZZZZZZZZZZZZZZ",
"FZZZZZZZZZZZZZZZZZBt,X XXOOOO@@+@X.  ..XOOOX*8zZZZZZZZZZZZZZZZZZ",
"FZZZZZZZZZZZZZZZZZCe1$++@@@@@OOOXXXXXXX.....$8zZZZZZZZZZZZZZZZZZ",
"FZZZZZZZZZZZZZZZZZSi8555557722222222,&&&&%**,8zZZZZZZZZZZZZZZZZZ",
"FZZZZZZZZZZZZZZZZZAzkklljjjiriaaepppeeeeqqqqqqzZZZZZZZZZZZZZZZZZ",
"FZZZZZZZZZZZZZZZZZbdVAASSSSxhCSM7xBBMmmmNccczzBZZZZZZZZZZZZZZZZZ",
"FZZZZZZZZZZZZZZZZZv>VZZZZZZgsAZA:dZZZZZZZZZZZZZZZZZZZZZZZZZZZZZZ",
"FZZZZZZZZZZZZZZZZZn-bZZZZZAd;VZZbbZZZZZZZZZZZZZZZZZZZZZZZZZZZZZZ",
"FZZZZZZZZZZZZZZZZZb=nZZZZAg##dbZZZZZZZZZZZZZZZZZZZZZZZZZZZZZZZZZ",
"FZZZZZZZZZZZZZZZZZb=vZZZZAf#odbZZZZZZAVZZAnfvVZZZZZZZZZZZZZZZZZZ",
"FZZZZZZZZZZZZZZZZZV=gZZZVbV;;VZZAAAZAf;nAf=o#:nZZZZZZZZZZZZZZZZZ",
"FZZZZZZZZZZZZZZZZZV-fZZV:=nsfZZZvvfVg-#ff=;::=;ZZZZZZZZZZZZZZZZZ",
"FZZZZZZZZZZZZZZZZZV-dZb;#offvZZAsf;s:f-d-sVAAs-ZZZZZZZZZZZZZZZZZ",
"FZZZZZZZZZZZZZZZZZA;sV;-;odfbZZV;f=osv;;-VZZV;sZZZZZZZZZZZZZZZZZ",
"FZZZZZZZZZZZZZZZZZA:sd#:=ofdgVVb;g##bg;-sZZVs-nZZZZZZZZZZZZZZZZZ",
"FZZZZZZZZZZZZZZZZZZss-o#;-fs-:fb:v=dZf;;;vg:=fZZZZZZZZZZZZZZZZZZ",
"FZZZZZZZZZZZZZZZZZZdf;-fVdfdo-bVfbdbZg:f==-;gAZZZZZZZZZZZZZZZZZZ",
"FZZZZZZZZZZZZZZZZZZbbbbAZvbn:vZZVAVZZVvVfdgVZZZZZZZZZZZZZZZZZZZZ",
"FZZZZZZZZZZZZZZZZZZZZZZZZZZZZZZZZZZZZZZZZZZZZZZZZZZZZZZZZZZZZZZZ"
};
