/* XPM */
static char *___LATINO[] = {
/* columns rows colors chars-per-pixel */
"64 48 256 2",
"   c #030003",
".  c #0B0204",
"X  c #030008",
"o  c #080808",
"O  c #130504",
"+  c #1C0403",
"@  c #160807",
"#  c #150A08",
"$  c #1C0A09",
"%  c #141414",
"&  c #1C1C1C",
"*  c #240404",
"=  c #230C07",
"-  c #280708",
";  c #230C09",
":  c #2C0D0C",
">  c #2F0A06",
",  c #330C0A",
"<  c #390F0B",
"1  c #23110E",
"2  c #2A110C",
"3  c #33120E",
"4  c #3B150F",
"5  c #2E1411",
"6  c #351412",
"7  c #3B1512",
"8  c #3B1914",
"9  c #3A1B18",
"0  c #351B15",
"q  c #20221F",
"w  c #1F1F20",
"e  c #242424",
"r  c #2B2B2B",
"t  c #2E302E",
"y  c #333333",
"u  c #373837",
"i  c #353838",
"p  c #3C3C3C",
"a  c #393636",
"s  c #44110E",
"d  c #52150F",
"f  c #5C170F",
"g  c #4B1611",
"h  c #431C15",
"j  c #4A1A13",
"k  c #431D19",
"l  c #4D1D19",
"z  c #541C14",
"x  c #46221B",
"c  c #4C221B",
"v  c #482116",
"b  c #54221A",
"n  c #5B251C",
"m  c #5A2B1E",
"M  c #582619",
"N  c #5C301F",
"B  c #682D1C",
"V  c #7D2B1E",
"C  c #462220",
"Z  c #552B24",
"A  c #5B2A21",
"S  c #622B23",
"D  c #6C2A25",
"F  c #742D24",
"G  c #7A2F24",
"H  c #643224",
"J  c #6C3529",
"K  c #653026",
"L  c #723B2C",
"P  c #7D3A2C",
"I  c #783025",
"U  c #662E38",
"Y  c #732F39",
"T  c #743D32",
"R  c #7D3E32",
"E  c #3C4042",
"W  c #444444",
"Q  c #494746",
"!  c #4B4B4B",
"~  c #464C48",
"^  c #584D4B",
"/  c #51504D",
"(  c #525252",
")  c #5B5B5B",
"_  c #565B58",
"`  c #6A494F",
"'  c #695958",
"]  c #636363",
"[  c #6F6F6F",
"{  c #7F6669",
"}  c #6E706F",
"|  c #777777",
" . c #82281C",
".. c #942B1B",
"X. c #9B371F",
"o. c #8A1C30",
"O. c #AA1830",
"+. c #812625",
"@. c #843025",
"#. c #8A372B",
"$. c #89372B",
"%. c #953C2C",
"&. c #9B3A27",
"*. c #833E30",
"=. c #983A37",
"-. c #A53D2A",
";. c #AF2034",
":. c #96452E",
">. c #854131",
",. c #8C4136",
"<. c #8E4F39",
"1. c #9C4434",
"2. c #9B4935",
"3. c #984738",
"4. c #9A503C",
"5. c #91513F",
"6. c #BB492F",
"7. c #A44232",
"8. c #A94432",
"9. c #A14935",
"0. c #A14438",
"q. c #A54C3D",
"w. c #AC4E3C",
"e. c #AB4A37",
"r. c #B14A33",
"t. c #B24C3C",
"y. c #BD4C3C",
"u. c #B94535",
"i. c #B2533E",
"p. c #B95437",
"a. c #C54B35",
"s. c #C2543E",
"d. c #C75538",
"f. c #D45A35",
"g. c #D25A3A",
"h. c #D6573B",
"j. c #E7573F",
"k. c #F2563F",
"l. c #BA374E",
"z. c #9F4A43",
"x. c #8A5854",
"c. c #AC4E41",
"v. c #A64E42",
"b. c #B74E40",
"n. c #AF5342",
"m. c #AB5D46",
"M. c #B45642",
"N. c #BC5644",
"B. c #B55943",
"V. c #BA5B44",
"C. c #BB5E4A",
"Z. c #BA5748",
"A. c #B34858",
"S. c #BD614C",
"D. c #B8664D",
"F. c #A46956",
"G. c #BD6652",
"H. c #9D5A62",
"J. c #AD6862",
"K. c #BC7868",
"L. c #C45345",
"P. c #CB5446",
"I. c #C35C44",
"U. c #CC5D43",
"Y. c #CD5B4A",
"T. c #C95649",
"R. c #D35C43",
"E. c #D45B4A",
"W. c #DD5C47",
"Q. c #E45D44",
"!. c #EA5E44",
"~. c #E85E4A",
"^. c #C3624B",
"/. c #CA6349",
"(. c #C36C4A",
"). c #C66647",
"_. c #D26246",
"`. c #DD6245",
"'. c #D56348",
"]. c #DD654B",
"[. c #D56D4C",
"{. c #DB6D4D",
"}. c #D5734F",
"|. c #C46954",
" X c #CB6D55",
".X c #C46D5A",
"XX c #CA6D5C",
"oX c #C66652",
"OX c #DD6C53",
"+X c #D06D54",
"@X c #C6725D",
"#X c #CA745C",
"$X c #CB7457",
"%X c #DC7253",
"&X c #DB745C",
"*X c #D6755A",
"=X c #E16345",
"-X c #E2644B",
";X c #E1684B",
":X c #EA6752",
">X c #E46A54",
",X c #E86D58",
"<X c #E47355",
"1X c #EA7555",
"2X c #E2755C",
"3X c #E4785D",
"4X c #EC785D",
"5X c #C75A69",
"6X c #CC6F65",
"7X c #CC7761",
"8X c #CD7A64",
"9X c #C77661",
"0X c #D17361",
"qX c #D47D65",
"wX c #DE7A64",
"eX c #D6756B",
"rX c #D57C6C",
"tX c #DA7D69",
"yX c #DE776C",
"uX c #C96979",
"iX c #D97E73",
"pX c #E47B64",
"aX c #E47A68",
"sX c #E87762",
"dX c #E07E70",
"fX c #94827E",
"gX c #D5805B",
"hX c #C8806B",
"jX c #D28365",
"kX c #D48169",
"lX c #DC836B",
"zX c #DC8B6D",
"xX c #DE8167",
"cX c #DB8372",
"vX c #D48B73",
"bX c #DB8B73",
"nX c #D2837B",
"mX c #D9907C",
"MX c #E48464",
"NX c #E3836C",
"BX c #EB8B6D",
"VX c #E6896D",
"CX c #F0866F",
"ZX c #E6916E",
"AX c #E48572",
"SX c #E58B74",
"DX c #EB8A75",
"FX c #E88776",
"GX c #E5927A",
"HX c #E69379",
"JX c #CB6E80",
"KX c #929393",
"LX c #AD8B83",
"PX c #DF9683",
"IX c #DC9789",
"UX c None",
/* pixels */
"UXUXUXUXUXUXUXUXUXUXUXUXUXUXUXUXUXUXUXUXUXUXUXUXUXUXUXUXUXUXUXUXUXUXUXUXUXUXUXUXUXUXUXUXUXUXUXUXUXUXUXUXUXUXUXUXUXUXUXUXUXUXUXUX",
"UXUXUXUXUXUXUXUXUXUXUXbX&X&XlXcXiXiXNXNXAXFXFXAXAXSXSXSXDXHXGXPXPXUXUXUXUXUXUXUXUXUXUXUXUXUXUXUXUXUXUXUXUXUXUXUXUXUXUXUXUXUXUXUX",
"UXUXUXUXUXUXUXUXUXUXUXxX'.a.e.z.z.v.i.M.C.C.C.C.S.oX|.|.|.|.|..X@X.X@X9X9X9X8X8XrXqXrXkXjXjXrXkXrX0X0X7XnXUXUXUXUXUXUXUXUXUXUXUX",
"UXUXUXUXUXUXUXUXUXUXUXNX].-.d 3 6 6 8 8 l c c Z A A S D D D D F F G G G G @.$.=.3.3.9.9.2.q.w.q.3.-.L.T.eXUXUXUXUXUXUXUXUXUXUXUX",
"UXUXUXUXUXUXUXUXUXUXUXVX].&.> . .       . . .   . . . O O O O O O + + + * - - : : : 6 : 3 3 4 3 2 j 8.E.yXUXUXUXUXUXUXUXUXUXUXUX",
"UXUXUXUXUXUXUXUXUXUXUXMX;X&.> . .     .                                     .               .     2 1.E.aXUXUXUXUXUXUXUXUXUXUXUX",
"UXUXUXUXUXUXUXUXUXUXUXBX;X-., . .       .               X       X X                   X X       . 4 8.h.3XUXUXUXUXUXUXUXUXUXUXUX",
"UXUXUXUXUXUXUXUXUXUXUXDX>X8., .                 X X X             X X                     .       h r.`.sXUXUXUXUXUXUXUXUXUXUXUX",
"UXUXUXUXUXUXUXUXUXUXUXDX,Xu.s X                 X X     o # 1 0 2 .     X X             . .     . v p.[.NXUXUXUXUXUXUXUXUXUXUXUX",
"UXUXUXUXUXUXUXUXUXUXUXDX,Xs.g .             .   O $ 5 8 Z T 5.m.*., .   X X     O 1 5 0 c C l h 4 B p.{.UXUXUXUXUXUXUXUXUXUXUXUX",
"UXUXUXUXUXUXUXUXUXUXUXGX,Xb.j .         o # 2 v S P 4.D.G.#X%X<XL.j . X X . $ v R 3.i.N.T.P.P.L.r.6.f.;XUXUXUXUXUXUXUXUXUXUXUXUX",
"UXUXUXUXUXUXUXUXUXUXUXUXsXs.z O o # 2 x N R 4.m.G.#XjXzXHXHXBX1XY.z . . $ M :.I.].-X-X=X!.!.!.~.Q.h.f.}.UXUXUXUXUXUXUXUXUXUXUXUX",
"UXUXUXUXUXUXUXUXUXUXUXUX<Xd. .z A L <.m.G.#XjXzXzXHXUXUXUXUXUX3XI.n O 3 I I.;X=X].OX<X<X<X<X1X4XsX<X[.jXUXUXUXUXUXUXUXUXUXUXUXUX",
"UXUXUXUXUXUXUXUXUXUXUXUX}.g.s.C.G.$X#XjXvXUXUXUXUXUXUXUXUXUXUXaXR.G B 9.'.=X=XOXwXAXUXUXUXUXUXUXUXUXUXUXUXUXUXUXUXUXUXUXUXUXUXUX",
"UXUXUXUXUXUXUXUXUXUXUXUXgX}.*XcXbXUXUXUXUXUXUXUXUXUXUXUXUXUXUXaXW.a.a.=X=X;X3XUXUXUXUXUXUXUXUXUXUXUXUXUXUXUXUXUXUXUXUXUXUXUXUXUX",
"UXUXUXUXUXUXUXUXUXUXUXUXUXUXUXUXUXUXx.UXUXUXUXUXUXUXUXUXUXUXUXaX~.!.k.=X;XMXUXUXUXUXUXUXUXUXUXUXUXUXUXUXUXUXUXUXUXUXUXUXUXUXUXUX",
"UXUXUXUXUXUXUXUXUXUXUXUXUXUXUXUX` Y +.=.UXUXUXUXUXUXUXUXUXUXUXpX!.k.Q.>XNXUXUXUXUXUXUXUXUXUXUXUXUXUXUXUXUXUXUXUXUXUXUXUXUXUXUXUX",
"UXUXUXUXUXUXUXUXUXUXUXUXUXUXUX{ U o.O.;.5XUXUXUXUXUXUXUXUXUXUXMXQ.j.>XUXUXUXUXUXUXUXUXUXUXUXUXUXUXUXUXUXUXUXUXUXUXUXUXUXUXUXUXUX",
"UXUXUXUXUXUXUXUXUXUXUXUXUXUXUXUXH.A.l.l.uXUXUXUXUXUXUXUXUXUXUXlXU.].NXUXUXUXUXUXUXUXUXUXUXUXUXUXUXUXUXUXUXUXUXUXUXUXUXUXUXUXUXUX",
"UXUXUXUXUXUXUXUXUXUXUXUXUXUXUXUXUXUXuXJXUXUXUXUXUXUXUXUXUXUXUXmXqXlXUXUXUXUXUXUXUXUXUXUXUXUXUXUXUXUXUXUXUXUXUXUXUXUXUXUXUXUXUXUX",
"UXUXUXUXUXUXUXUXUXUXUXUXUXUXUXUXUXUXUXUXUXUXUXUXUXUXUXUXUXUXUXUXUXUXUXUXUXUXUXUXUXUXUXUXUXUXUXUXUXUXUXUXUXUXUXUXUXUXUXUXUXUXUXUX",
"UXUXUXUXUXUXUXUXUXUXUXUXUXUXUXUXUXUXUXUXUXUXUXUXUXUXUXUXUXUXUXUXUXUXUXUXUXUXUXUXUXUXUXUXUXUXUXUXUXUXUXUXUXUXUXUXUXUXUXUXUXUXUXUX",
"UXUXUXUXUXUXUXUXUXUXUXUXUXUXUXUXUXUXUXUXUXUXUXUXUXUXUXUXUXUXUXUXUXUXUXUXUXUXUXUXUXUXUXUXUXUXUXUXUXUXUXUXUXUXUXUXUXUXUXUXUXUXUXUX",
"UXUXUXUXUXUXUXUXUXUXUXUXUXtX&XwXrXlXxXFXUXUXUXUXUXUXUXUXUXUXUXUXUXUXUXUXUXUXUXUXUXUXUXUXUXUXUXUXUXUXUXUXUXUXUXUXUXUXUXUXUXUXUXUX",
"UXUXUXUXUXUXUXUXUXUXUXUXUX}.g.6.w.i./.'.aXUXUXUXUXUXUXUXUXUXUXUXUXvXlXbXUXUXUXUXUXUXUXUXUXUXUXUXUXUXUXUXUXUXUXUXUXUXUXUXUXUXUXUX",
"UXUXUXUXUXUXUXUXUXUXUXUXUX%Xh...d z &.f.%XUXUXUXUXUXUXUXUXUXUXUXvX+X_.I. XjXUXUXUXUXUXUXUXUXUXUXUXUXUXUXUXUXUXUXUXUXUXUXUXUXUXUX",
"UXUXUXUXUXUXUXUXUXUXUXUXUX2Xh. .* O B s.%XUXUXUXUXUXUXUXUXUXUXUXAX-Xa.X.9.oXwXAXUXUXUXUXUXUXUXUXUXUXUXUXUXUXUXUXUXUXUXUXUXUXUXUX",
"UXUXUXUXUXUXUXUXUXUXUXUXUX3XR.V + . m ).%XSXUXUXUXUXUXUXUXUXUXUXCX:Xa.f j *.I.+XwXSXUXUXUXUXUXUXUXUXUXkX@XhXUXUXUXUXUXUXUXUXUXUX",
"UXUXUXUXUXUXUXUXUXUXUXUXUXsXR.V + . C V.OX&XwXtXrXrXiXcXcXNXAXNXsX:Xy.g @ ; n %.B..X9XqXlXtXtXtXlXqX X/.R.*XUXUXUXUXUXUXUXUXUXUX",
"UXUXUXUXUXUXUXUXUXUXUXUXUXpXR.@.+ . $ B :.2.9.9.q.c.c.c.M.M.V.L.P.L.%.3 . . O : c H R <.q.t.c.c.v.1.%.r.U.3XUXUXUXUXUXUXUXUXUXUX",
"UXUXUXUXUXUXUXUXUXUXUXUXUXpX'.@.+ .   O = : 3 3 , 6 6 7 7 h h g l l 2 .       . . O $ = 6 h h 6 5 : < @.U.sXUXUXUXUXUXUXUXUXUXUX",
"UXUXUXUXUXUXUXUXUXUXUXUXUXwXY.&.s > = = = $ $ $ $ $ # # @ @ @ @ # O # . # . . . . .     . .       . @ I Y.sXUXUXUXUXUXUXUXUXUXUX",
"UXUXUXUXUXUXUXUXUXUXUXUXUXrXY.y.0.,.,.>.>.P >.R R T T T L L J J K K H H N N N m A Z x x x h 8 9 9 9 h #.U.pXUXUXUXUXUXUXUXUXUXUX",
"UXUXUXUXUXUXUXUXUXUXUXUXUXIXiXeXeXrX8X8X8XqX0X0X0X6XXX.XXX@X X X+X X+X(.D.(.).).^.^.D.C.S.p.B.B.B.n.i.L.R.&XUXUXUXUXUXUXUXUXUXUX",
"UXUXUXUXUXUXUXUXUXUXUXUXUXfXLXUXUXUXUXUXUXUXUXUXUXnXJ.K.UXUXUXUXhXF.hXUXZXZXBXBXDXSXSXDXVXNXzXNXNXNXtXtXqXcXUXUXUXUXUXUXUXUXUXUX",
"UXUXUXUXUXUXUXUXUXUXUXUXUXQ ( UXUXUXUXUXUXUXUXUXUXUX` ' UXUXUXUXUXa ! UXUXUXUXUXUXUXUXUXUXUXUXUXUXUXUXUXUXUXUXUXUXUXUXUXUXUXUXUX",
"UXUXUXUXUXUXUXUXUXUXUXUXUXy E UXUXUXUXUXUXUXUXUXUXUXp Q UXUXUXUXUX~ _ UXUXUXUXUXUXUXUXUXUXUXUXUXUXUXUXUXUXUXUXUXUXUXUXUXUXUXUXUX",
"UXUXUXUXUXUXUXUXUXUXUXUXUXy i UXUXUXUXUXUXUXUXUXUX! q y UXUXUXUXUXUXUXUXUXUXUXUXUXUXUXUXUXUXUXUXUXUXUXUXUXUXUXUXUXUXUXUXUXUXUXUX",
"UXUXUXUXUXUXUXUXUXUXUXUXUXt t UXUXUXUXUXUXUXUXUX} r o q ] KXUXUXUXUXUXUXUXUXUXUXUXUXUXUXUXUXUXUXUXUXUXUXUXUXUXUXUXUXUXUXUXUXUXUX",
"UXUXUXUXUXUXUXUXUXUXUXUXUXy r UXUXUXUXUXUXUXUXUXUXa % t UXUXUXUXUXUXUXUXUXUXUXUXUXUXUXUXUXUXUXUXp y i E UXUXUXUXUXUXUXUXUXUXUXUX",
"UXUXUXUXUXUXUXUXUXUXUXUXUXy r UXUXUXUXUXUXUX! UXUX! y ! UXUXUXUXUXUXUXUXUXUXUXUX! y r ( UXUXp r e & e e r W UXUXUXUXUXUXUXUXUXUX",
"UXUXUXUXUXUXUXUXUXUXUXUXUXW r UXUXUXUXUXZ r & i UXUX( UXUXUXUXUXUX] UXUX! UXUX( ! W r ! UXy y W UXUXUXUXp e ( UXUXUXUXUXUXUXUXUX",
"UXUXUXUXUXUXUXUXUXUXUXUXUX! e ( UXUXUXt i E w w UXUX[ UXUXUXUXUXUXW UXW e p W ! UX! p ] r r UXUXUXUXUXUXW r ( UXUXUXUXUXUXUXUXUX",
"UXUXUXUXUXUXUXUXUXUXUXUXUX( r W UXW y E ] ! % w UXUX| UXUXUXUXUX! y UX! % % y UXUXQ ( ] e p UXUXUXUXUXUXy p UXUXUXUXUXUXUXUXUXUX",
"UXUXUXUXUXUXUXUXUXUXUXUXUXUXr ! UX& r ( p e & e UXUX( UXUXUXUXUX! p UX! % e UXUXUXW ] ( r UXUXUXUXUXW r y UXUXUXUXUXUXUXUXUXUXUX",
"UXUXUXUXUXUXUXUXUXUXUXUXUXUXp ] ! % & y i W W p UXUXr e y ! UXUX) ( UX( r W UXUXUXy ) ) r p UX( ! p y p UXUXUXUXUXUXUXUXUXUXUXUX",
"UXUXUXUXUXUXUXUXUXUXUXUXUXUX) UX) p E UXUXUXUX( UXUXy e y UXUXUXUX| UXUX] UXUXUXUX! ) UXp y p W W W UXUXUXUXUXUXUXUXUXUXUXUXUXUX",
"UXUXUXUXUXUXUXUXUXUXUXUXUXUXUXUXUXUXUXUXUXUXUXUXUXUX] ( UXUXUXUXUXUXUXUXUXUXUXUXUXUXUXUXUXUXUXUXUXUXUXUXUXUXUXUXUXUXUXUXUXUXUXUX"
};
