/* XPM */
static char *_RM[] = {
/* columns rows colors chars-per-pixel */
"64 48 58 1",
"  c #070707",
". c #0B0B0B",
"X c #1B0709",
"o c #1A090B",
"O c #131313",
"+ c #1E1E1E",
"@ c #27070C",
"# c #3E0C12",
"$ c #212121",
"% c #2C2C2C",
"& c #353535",
"* c #3D3D3D",
"= c #4E0F17",
"- c #520F18",
"; c #454545",
": c #4D4D4D",
"> c #545454",
", c #5C5C5C",
"< c #67474B",
"1 c #626262",
"2 c #6B6B6B",
"3 c #737373",
"4 c #7B7B7B",
"5 c #851927",
"6 c #881928",
"7 c #8A1A29",
"8 c #971C2D",
"9 c #9C1D2E",
"0 c #922F3C",
"q c #86323E",
"w c #91323F",
"e c #8B3642",
"r c #8C3B46",
"t c #903441",
"y c #94767A",
"u c #A6757B",
"i c #A8797F",
"p c #AA7E84",
"a c #848484",
"s c #8B8B8B",
"d c #9E8689",
"f c #949494",
"g c #9D9D9D",
"h c #A3A3A3",
"j c #ACACAC",
"k c #B5B5B5",
"l c #BDBDBD",
"z c #C5C5C5",
"x c #CFC1C2",
"c c #CCCCCC",
"v c #D8CED0",
"b c #D4D4D4",
"n c #DCD4D5",
"m c #DFDFDF",
"M c #E5E5E5",
"N c #EBEBEB",
"B c #F5F5F5",
"V c #FFFFFF",
/* pixels */
"VVVVVVVVVVVVyqeeeeeeeeeeeeerrrrrrrrrrrrrrrrrrrrrrr<sVVVVVVVVVVVV",
"VVVVVVVVVVVVx0999999999999999999999999999999999997X2VVVVVVVVVVVV",
"VVVVVVVVVVVVVu89999999999999999999999999999999999-%nVVVVVVVVVVVV",
"VVVVVVVVVVVVVv09999999999999999999999999999999997XsVVVVVVVVVVVVV",
"VVVVVVVVVVVVVVi899999999999999999999999999999999=%MVVVVVVVVVVVVV",
"VVVVVVVVVVVVVVnw99999999999999999999999999999995XfVVVVVVVVVVVVVV",
"VVVVVVVVVVVVVVVp8999999999999999999999999999999=&MVVVVVVVVVVVVVV",
"VVVVVVVVVVVVVVVnt999999999999999999999999999995ogVVVVVVVVVVVVVVV",
"VVVVVVVVVVVVVVVVd#############################@*NVVVVVVVVVVVVVVV",
"VVVVVVVVVVVVVVVVM*+$$$$$$$$$$$$$$$$$$$$$$$$$$+$jVVVVVVVVVVVVVVVV",
"VVVVVVVVVVVVVVVVVMmmmmmmmmmmmmmmmmmmmmmmmmmmmmMBVVVVVVVVVVVVVVVV",
"VVVVVVVVVVVVVVVVVVVVVVVVVVVVVVVVVVVVVVVVVVVVVVVVVVVVVVVVVVVVVVVV",
"VVVVVVVVVVVVVVVVVVVVVVVVVVVVVVVVVVVVVVVVVVVVVVVVVVVVVVVVVVVVVVVV",
"VVVVVVVVVVVVVVVVVVVVVBBBBBBBBBBBBBBBBBBBBBBBBVVVVVVVVVVVVVVVVVVV",
"VVVVVVVVVVVVVVVVVVVVBMNNNNNNNNNNNNNNNNNNNNM4fVVVVVVVVVVVVVVVVVVV",
"VVVVVVVVVVVVVVVVVVVVMBVVVVVVVVVVVVVVVVVVVVb%jVVVVVVVVVVVVVVVVVVV",
"VVVVVVVVVVVVVVVVVVVBNVVVVVVVVVVVVVVVVVVVVV3:BVVVVVVVVVVVVVVVVVVV",
"VVVVVVVVVVVVVVVVVVVMBVVVVVVVVVVVVVVVVVVVVb%jVVVVVVVVVVVVVVVVVVVV",
"VVVVVVVVVVVVVVVVVVNNVVVVVVVVVVVVVVVVVVVVV4;NVVVVVVVVVVVVVVVVVVVV",
"VVVVVVVVVVVVVVVVVVMVVVVVVVVVVVVVVVVVVVVVn%hVVVVVVVVVVVVVVVVVVVVV",
"VVVVVVVVVVVVVVVVVNNVVVVVVVVVBBBBVVVVVVVVa*NVVVVVVVVVVVVVVVVVVVVV",
"VVVVVVVVVVVVVVVVVz21,,>>>>::::;fVVVVVVVm%gVVVVVVVVVVVVVVVVVVVVVV",
"VVVVVVVVVVVVVVVVV3  ...OOOOOOO$lVVVVVVVa&NVVVVVVVVVVVVVVVVVVVVVV",
"VVVVVVVVVVVVVVVVBlkllzccccbbbbzBVVVVVVM%fVVVVVVVVVVVVVVVVVVVVVVV",
"VVVVVVVVVVVVVVVVVVVVVVVVVVVVVBNVVVVVVVs&MVVVVVVVVVVVVVVVVVVVVVVV",
"VVVVVVVVVVVVVVVVVVVVVVVVVVVVVMBVVVVVVM&sVVVVVVVVVVVVVVVVVVVVVVVV",
"VVVVVVVVVVVVVVVVVVVVVVVVVVVVBNVVVVVVVf%MVVVVVVVVVVVVVVVVVVVVVVVV",
"VVVVVVVVVVVVVVVVVVVVVVVVVVVVMBVVVVVVM&aVVVVVVVVVVVVVVVVVVVVVVVVV",
"VVVVVVVVVVVVVVVVVVVVVVVVVVVBNVVVVVVVf%mVVVVVVVVVVVVVVVVVVVVVVVVV",
"VVVVVVVVVVVVVVVVVVVVVVVVVVVMBVVVVVVN*4VVVVVVVVVVVVVVVVVVVVVVVVVV",
"VVVVVVVVVVVVVVVVVVVVVVVVVVBNVVVVVVVg%nVVVVVVVVVVVVVVVVVVVVVVVVVV",
"VVVVVVVVVVVVVVVVVVVVVVVVVVMBVVVVVVN*4VVVVVVVVVVVVVVVVVVVVVVVVVVV",
"VVVVVVVVVVVVVVVVVVVVVVVVVBNVVVVVVVh$bVVVVVVVVVVVVVVVVVVVVVVVVVVV",
"VVVVVVVVVVVVVVVVVVVVVVVVVMBVVVVVVN;3VVVVVVVVVVVVVVVVVVVVVVVVVVVV",
"VVVVVVVVVVVVVVVVVVVVVVVVBNVVVVVVVj$cVVVVVVVVVVVVVVVVVVVVVVVVVVVV",
"VVVVVVVVVVVVVVVVVVVVVVVVMBVVVVVVB;2VVVVVVVVVVVVVVVVVVVVVVVVVVVVV",
"VVVVVVVVVVVVVVVVVVVVVVVBNVVVVVVVj$zVVVVVVVVVVVVVVVVVVVVVVVVVVVVV",
"VVVVVVVVVVVVVVVVVVVVVVVMBVVVVVVB:1VVVVVVVVVVVVVVVVVVVVVVVVVVVVVV",
"VVVVVVVVVVVVVVVVVVVVVVBNVVVVVVVk+zVVVVVVVVVVVVVVVVVVVVVVVVVVVVVV",
"VVVVVVVVVVVVVVVVVVVVVVMBVVVVVVB>,BVVVVVVVVVVVVVVVVVVVVVVVVVVVVVV",
"VVVVVVVVVVVVVVVVVVVVVBNVVVVVVVl+lVVVVVVVVVVVVVVVVVVVVVVVVVVVVVVV",
"VVVVVVVVVVVVVVVVVVVVVNBVVVVVVB>>BVVVVVVVVVVVVVVVVVVVVVVVVVVVVVVV",
"VVVVVVVVVVVVVVVVVVVVBNVVVVVVVl+kVVVVVVVVVVVVVVVVVVVVVVVVVVVVVVVV",
"VVVVVVVVVVVVVVVVVVVVNBVVVVVVB,:BVVVVVVVVVVVVVVVVVVVVVVVVVVVVVVVV",
"VVVVVVVVVVVVVVVVVVVBNVVVVVVVz+jVVVVVVVVVVVVVVVVVVVVVVVVVVVVVVVVV",
"VVVVVVVVVVVVVVVVVVVNBVVVVVVV1;BVVVVVVVVVVVVVVVVVVVVVVVVVVVVVVVVV",
"VVVVVVVVVVVVVVVVVVBgsssssss4+jVVVVVVVVVVVVVVVVVVVVVVVVVVVVVVVVVV",
"VVVVVVVVVVVVVVVVVVm%        *NVVVVVVVVVVVVVVVVVVVVVVVVVVVVVVVVVV"
};
