/* XPM */
static char *_tv[] = {
/* columns rows colors chars-per-pixel */
"64 48 64 1",
"  c #535355",
". c #5A595B",
"X c #715D4B",
"o c #5F5F61",
"O c #656567",
"+ c #716D6B",
"@ c #747476",
"# c #D32407",
"$ c #CB3E14",
"% c #D7371D",
"& c #CD4314",
"* c #CE4C18",
"= c #D05217",
"- c #D15A1A",
"; c #D4681C",
": c #D7761E",
"> c #D5512C",
", c #DB533A",
"< c #D66F32",
"1 c #857F7B",
"2 c #DF6E57",
"3 c #DA7850",
"4 c #E57D6C",
"5 c #DD922C",
"6 c #DE9431",
"7 c #E3AE30",
"8 c #E7C22C",
"9 c #E8C536",
"0 c #BF9153",
"q c #DE8C50",
"w c #E6B24F",
"e c #DE856B",
"r c #E29370",
"t c #E7AD70",
"y c #EAC948",
"u c #ECCC5B",
"i c #EED071",
"p c #7F7F80",
"a c #878788",
"s c #969698",
"d c #A0A0A1",
"f c #AAAAAB",
"g c #B7B7B8",
"h c #E49C84",
"j c #E9B08E",
"k c #EDB8A6",
"l c #F0D390",
"z c #F4E29B",
"x c #F1D0B1",
"c c #F5E5A8",
"v c #F7E9B8",
"b c #D0D0D0",
"n c #F4D7C8",
"m c #F5D4CB",
"M c #F9EED2",
"N c #F9E9DB",
"B c #E5E5E5",
"V c #ECECEC",
"C c #FAEBE4",
"Z c #FCF8E7",
"A c #FCF3EE",
"S c #FDF4F3",
"D c #F9F8F5",
"F c #FFFFFF",
/* pixels */
"FFFFFFFFFFFFFFFFFFFFFFFFFFFFFFFFFFFFFFFFFFFFFFFFFFFFFFFFFFFFFFFF",
"FFFFFFFFFFFFFFFFFFFFFFFFFFFFFFFFFFFFFFFFFFFFFFFFFFFFFFFFFFFFFFFF",
"FFFFFFFFFFFFFFFFFFFFFFFFFFFFFFFFFFFFFFFFFFFFFFFFFFFFFFFFFFFFFFFF",
"FFFFFFFFFFFFFFFFFFFFFFFFFFFFFFFFFFFFFFFFFFFFFFFFFFFFFFFFFFFFFFFF",
"FFFFFFFFFFFFFFFFFFFFFFFFFFFFFFFFFFFFFFFFFFFFFFFFFFFFFFFFFFFFFFFF",
"FFFFFFFFFFFFFFFFFFFZMcliuw777777777wwilvNDFFFFFFFFFFFFFFFFFFFFFF",
"FFFFFFFFFFFFFFFZvluyyyuillzcccczlliww6656wlxCFFFFFFFFFFFFFFFFFFF",
"FFFFFFFFFFFFZviyyulvMZDFFFFFFFFFFFFFANnltw556tlNDFFFFFFFFFFFFFFF",
"FFFFFFFFFFMlyyivZFFFFFFFFFFFFFFFFFFFFFFFFAMlw555txAFFFFFFFFFFFFF",
"FFFFFFFFMi9yzZFFFFFFFFFFFFFFFFFFFFFFFFFFFFFFDMj6::qjCFFFFFFFFFFF",
"FFFFFFZz99zZFFFFFFk44444444444444444444444nFFFFCj6::qlAFFFFFFFFF",
"FFFFFMu8iMFFFFFFFx%######################,CFFFFFFNt:;;qnFFFFFFFF",
"FFFFvy9lSFFFFFFFN,#######################kFFFFFFFFFxq;;<jAFFFFFF",
"FFFv99zFFFFFFFFA2#######################2SFFFFFFFFFFNr;;;qNFFFFF",
"FFMy8zFFFFFFFFFk,,,,,,,,,,,,,,,,,,,,,,,,mFFFFFFFFFFFFAt;--3nFFFF",
"FZu8lFFFFFFFFFFSAAAAAAASSSSSSSSSSSSSSSSSFFFFFFFFFFFFFFDt---<nFFF",
"Fz8uZFFFFFFFFFFFFFFFFFFFFFFFFFFVVVVVVVVFVVVVVVDDVDFFVBDSr--=3NFF",
"Zy9vFFFFFFFFFFFFFFFFFFFFFFFFFFg+OOOOO@bB@OOOO@Bf@BFgOaBFN<-==rDF",
"c8uDFFFFFFFFFFFFFFFFFFFFFFFFFgo     .gFbf@ afbV+aDg.aBFFFk-===xF",
"i8lFFFFFFFFFFFFFFFFFFFFFFFFFbO     .gFFFbOpVFFb.gf.sVFFFFA3==*3A",
"y8cFFFFFFFFFFFFFFFFFFFFFFFFbO     .fFFFV@ObFFFd.aofDFFFFFFj=**=x",
"98vFFFFFFFFFFFFFFFFFFFFFFFbO      dDFFFf.gFFFV@ OgDFFFFFFFn-**&r",
"98cFFFFFFFFFFFFFFFFFFFFFFb+      aDFFFBasDFFFBppbFFFFFFFFFC<*&&<",
"y8lFFFFFFFFFFFFFFFFFFFFFB@      OBFFFFFDDFFFFFDDFFFFFFFFFFA<&&&*",
"i8uDFFFFFFFFFFFFFFFFFFFVa       fFFFFFFFFFFFFFFFFFFFFFFFFFA<&&&*",
"v99vFFFFFFFFFFFFFFFFFFFd       @VFFFFFFFFFFFFFFFFFFFFFFFFFC>&&&*",
"Zu8iDFFFFFFFFFFFFFFFFFb.       gFFFFFFFFFFFFFFFFFFFFFFFFFFx*&&$,",
"Fv87cFFFFFFFFFFFFFFFFV@       @VFFFFFFFFFFFFFFFFFFFFFFFFFFh&&$$r",
"FDi7yMFFFFFFFFFFFFFFFf        fFFFFFFFFFFFFFFFFFFFFFFFFFFN,&$$*m",
"FFZy7uZFFFFFFFFFFFFFB+       OBFFFFFFFFFFFFFFFFFFFFFFFFFFr&$$$4D",
"FFFMw7uCFFFFFFFFFFFFf        aFFFFFFFFFFFFFFFFFFFFFFFFFFk*&$$>mF",
"FFFFv77wMFFFFFFFFFFV@        gFFFFFFFFFFFFFFFFFFFFFFFFFx>&$$$hFF",
"FFFFFvw7wcFFFFFFFFFb        OBFFFFFFFFFFFFFFFFFFFFFFFDk>&$$$4AFF",
"FFFFFFMw77iCFFFFFFFs        aDFFFFFFFFFFFFFFFFFFFFFFCr*&$$$3CFFF",
"FFFFFFFZl77wlZFFFFBO        fFFFFFFFFFFFFFFFFFFFFFSk<&&&$$eCFFFF",
"FFFFFFFFFvw55wlNFFg        .bFFFFFFFFFFFFFFFFFFFSx3*&&&$>jSFFFFF",
"FFFFFFFFFFAzw556txa        OBFFFFFFFFFFFFFFFFFCk3=&&&&*3mFFFFFFF",
"FFFFFFFFFFFFAxw655X        +VFFFFFFFFFFFFFAnkr<**&&&*3xSFFFFFFFF",
"FFFFFFFFFFFFFFDMl0         +xnNNNNNnnxxjrq<-==****3hmDFFFFFFFFFF",
"FFFFFFFFFFFFFFFFFg         X::<<<<<<;;----====<3jnAFFFFFFFFFFFFF",
"FFFFFFFFFFFFFFFFFf         X::;;;;;;----;<3rjxCDFFFFFFFFFFFFFFFF",
"FFFFFFFFFFFFFFFFFs         1nxxjjjhhjjkxnCSFFFFFFFFFFFFFFFFFFFFF",
"FFFFFFFFFFFFFFFFFs.oooOOOOosFFFFFFFFFFFFFFFFFFFFFFFFFFFFFFFFFFFF",
"FFFFFFFFFFFFFFFFFFFFFFFFFFFFFFFFFFFFFFFFFFFFFFFFFFFFFFFFFFFFFFFF",
"FFFFFFFFFFFFFFFFFFFFFFFFFFFFFFFFFFFFFFFFFFFFFFFFFFFFFFFFFFFFFFFF",
"FFFFFFFFFFFFFFFFFFFFFFFFFFFFFFFFFFFFFFFFFFFFFFFFFFFFFFFFFFFFFFFF",
"FFFFFFFFFFFFFFFFFFFFFFFFFFFFFFFFFFFFFFFFFFFFFFFFFFFFFFFFFFFFFFFF",
"FFFFFFFFFFFFFFFFFFFFFFFFFFFFFFFFFFFFFFFFFFFFFFFFFFFFFFFFFFFFFFFF"
};
