/* XPM */
static char *_madrid[] = {
/* columns rows colors chars-per-pixel */
"64 48 57 1",
"  c #722F82",
". c #753384",
"X c #783887",
"o c #783888",
"O c #7B3C8A",
"+ c #7F428D",
"@ c #81458F",
"# c #824790",
"$ c #854C93",
"% c #885096",
"& c #8A5297",
"* c #8C5699",
"= c #8F599B",
"- c #925E9E",
"; c #9461A0",
": c #9563A1",
"> c #9867A4",
", c #9A6BA6",
"< c #9E6FA9",
"1 c #9F71AA",
"2 c #A275AC",
"3 c #A479AF",
"4 c #A77DB1",
"5 c #A87FB2",
"6 c #AC85B5",
"7 c #AF88B8",
"8 c #B08AB9",
"9 c #B28DBB",
"0 c #B694BF",
"q c #B998C1",
"w c #BB9BC3",
"e c #BFA1C7",
"r c #C3A6C9",
"t c #C6ABCD",
"y c #C9AFCF",
"u c #CAB0D0",
"i c #CCB3D1",
"p c #CFB9D5",
"a c #D1BBD6",
"s c #D4C0D9",
"d c #D6C3DB",
"f c #D9C7DD",
"g c #DBCADF",
"h c #DDCDE1",
"j c #DFD0E3",
"k c #E2D5E6",
"l c #E5D9E8",
"z c #E6DBE9",
"x c #E9DFEC",
"c c #ECE3EE",
"v c #EFE8F1",
"b c #F0E9F1",
"n c #F3EDF4",
"m c #F6F2F7",
"M c #F8F4F9",
"N c #F9F7FA",
"B c #FFFFFF",
/* pixels */
"BBBBBBBBBBBBBBBBBBBBBBBBBBBBBBBBBBBBBBBBBBBBBBMi4=9BBBBBBBBBBBBB",
"BBBBBBBBBBBBBBBBBBBBBBBBBBBBBBBBBBBBBBBBBmzcBBiX  :BBBBBBBBBBBBB",
"BBBBBBBBBBBBBBBBBBBBBBBBBBBBBBBBBBBBBBBBt-o,mBq   :BBBBBBBBBBBBB",
"BBBBBBBBBBBBBBBBBBBBBBBBBBBBBBBBBBnt3wBm= .*nBq   :BBBBBBBBBBBBB",
"BBBBBBBBBBBBBBBBBBBBBBBBBBBBBmhtvBw. :Mn*  *nBw   :BBBBBBBBBBBBB",
"BBBBBBBBBBBBBBBBBBBBBBBBBvfnBq..aB6  :Nn*  *nBq  .4BBBBBBBBBBBBB",
"BBBBBBBBBBBBBBBBBBBBBczBk*.uB2 .aB6  :Nn*  :mBh<7ycBBBBBBBBBBBBB",
"BBBBBBBBBBBBBBBBBczBp#&na..tB2 .aB6  ,NN6=3dBBBBBBBBBBBBBBBBBBBB",
"BBBBBBBBBBBBBcfMf#:mw #np. tB2..aBr%:aBBMmBBMnzhhcBBBBBBBBBBBBBB",
"BBBBBBBBBBBBB*Oht *nq #na. tB0*4cBMnMBMnzdr7,*+X.%fBBBBBBBBBBBBB",
"BBBBBBBBBBBBBOoht *nw &nk<9cBNmMNckaw6,$OX        4BBBBBBBBBBBBB",
"BBBBBBBBBBBBBOohi.<Nh0gBBMmchiw4:$O.              :BBBBBBBBBBBBB",
"BBBBBBBBBBBBB,1cngcBNchy03-+o....                 :BBBBBBBBBBBBB",
"BBBBBBBBBBBBBmnzdt91=#...  +1edhdw:X              :BBBBBBBBBBBBB",
"BBBBBBBBBBBBBr-+..      .X3kMBBBBBmt@.            :BBBBBBBBBBBBB",
"BBBBBBBBBBBBB+         .oeMBBBBBBBBBaO            :BBBBBBBBBBBBB",
"BBBBBBBBBBBBB          .0BBBBccMBBBBM3            :BBBBBBBBBBBBB",
"BBBBBBBBBBBBB          -nBBn7$$6nBBBBr            :BBBBBBBBBBBBB",
"BBBBBBBBBBBBB          wBBB9   .dBBBBr            :BBBBBBBBBBBBB",
"BBBBBBBBBBBBB         XdBBM,   OhBBBB9            :BBBBBBBBBBBBB",
"BBBBBBBBBBBBB         .aBBBu$X&rMBBBc&            :BBBBBBBBBBBBB",
"BBBBBBBBBBBBB          7BBBBchcBBBBM6.            :BBBBBBBBBBBBB",
"BBBBBBBBBBBBB          OdBBBBBBBBBBd+             :BBBBBBBBBBBBB",
"BBBBBBBBBBBBB          @dBBBBBBBBBBMa%            :BBBBBBBBBBBBB",
"BBBBBBBBBBBBB         OaBBBBMnmBBBBBBh$           :BBBBBBBBBBBBB",
"BBBBBBBBBBBBB         8BBBne:*=6kBBBBBy.          :BBBBBBBBBBBBB",
"BBBBBBBBBBBBB        OhBBM4.    $gBBBBn-          :BBBBBBBBBBBBB",
"BBBBBBBBBBBBB        &nBBgo      1MBBBB6          :BBBBBBBBBBBBB",
"BBBBBBBBBBBBB        *nBBd.      -NBBBB0          :BBBBBBBBBBBBB",
"BBBBBBBBBBBBB        OkBBn-      8BBBBB5          :BBBBBBBBBBBBB",
"BBBBBBBBBBBBB         0BBBk,o..O6nBBBBv*          :BBBBBBBBBBBBB",
"BBBBBBBBBBBBB         +fBBBmgtikMBBBBBw.          :BBBBBBBBBBBBB",
"BBBBBBBBBBBBB.         &fBBBBBBBBBBBMyo.          :BBBBBBBBBBBBB",
"BBBBBBBBBBBBB$          +wcBBBBBBBBz6o            :BBBBBBBBBBBBB",
"BBBBBBBBBBBBBg01=$O.  .  .&6pkxxki6#              :BBBBBBBBBBBBB",
"BBBBBBBBBBBBBhzMmckae61=@O.  o@#O.                :BBBBBBBBBBBBB",
"BBBBBBBBBBBBB$$zk6aBMnMnchpw6>*@..   .            :BBBBBBBBBBBBB",
"BBBBBBBBBBBBBOoht =mt&9MmgxBBBmchiw4:&+o.         1BBBBBBBBBBBBB",
"BBBBBBBBBBBBBo.ht *n0 #ndO@dBhrgNBBBNnzfy03:&O.. OyBBBBBBBBBBBBB",
"BBBBBBBBBBBBB6-zy *nw #na. tB3 OfBg9rcBBBBBMvldytfMBBBBBBBBBBBBB",
"BBBBBBBBBBBBBMnBx56Mw.@na. tB2 .pB7  3BBt9ycBBBBBBBBBBBBBBBBBBBB",
"BBBBBBBBBBBBBBBBBBBBz89MdX tB2 .aB6  :Mn=  1MBceihMBBBBBBBBBBBBB",
"BBBBBBBBBBBBBBBBBBBBBBBBnw1gB5 .aB6  :Mn*  *nBw .O9BBBBBBBBBBBBB",
"BBBBBBBBBBBBBBBBBBBBBBBBBBBBBk6>jB9 .:Nn*  *nBw   :BBBBBBBBBBBBB",
"BBBBBBBBBBBBBBBBBBBBBBBBBBBBBBBMBBj,#3Bn*  *nB0   :BBBBBBBBBBBBB",
"BBBBBBBBBBBBBBBBBBBBBBBBBBBBBBBBBBBMcnBM6o -mBw   :BBBBBBBBBBBBB",
"BBBBBBBBBBBBBBBBBBBBBBBBBBBBBBBBBBBBBBBBmhtdBBt.  :BBBBBBBBBBBBB",
"BBBBBBBBBBBBBBBBBBBBBBBBBBBBBBBBBBBBBBBBBBBBBBn9=X2BBBBBBBBBBBBB"
};
