/* XPM */
static char * 8tv_xpm[] = {
"64 48 13 1",
" 	c #E00F18",
".	c #1E65BC",
"+	c #2A67A1",
"@	c #216AB2",
"#	c #2667B5",
"$	c #3D71A2",
"%	c #DB4146",
"&	c #6C95BC",
"*	c #A2BEE2",
"=	c #F4A29E",
"-	c #DCEAFB",
";	c #F7E9CF",
">	c #F9FBF8",
"@@@@@@@@@@@@@@@@@@@@#######@@@@@@###############################",
"####################@@@@@@@######@@@#####@@@@@@@@@@@@@@@@@@@@@@@",
"@@@@@@@@@@@@@@@@@@@@@@@@@@@@@@#@@@@#############################",
"@@@@@@@@@@@@@@@@@@@@@@@@@@@@@@#@@@##############################",
"#######@@@@@@#####@@##########@@##############@@@@@@@@@@@@@@@@@@",
"@@@@@@#################@@@@@@@#@################################",
"#####################@@@@#@#@@################################@@",
"@@@@##################@##@##@@@@################################",
"##@@#####################@####@@###############################@",
"##@@#####################@####@@#@##############################",
"#@####################@@@+&*;;>>-*&#############################",
"@@#######################*>>>>>>>;---###########################",
"##@@##################@**->>>>>>>>>>-*##########################",
"@#####################&>>>>>>>;;>>>>>>*@#######################@",
"@####################+->>>>;==%%%>>>>>;@@#######################",
"@####################+->>>>;==%%%>>>>>;@@#######################",
"#@##################.+->>>>=     =>>>->@@######################@",
"#@##################.$->>>>=  %  %;;>>>#########################",
"@###################.$->>>>=    %=>>>>>@@#####################@@",
"#@##################@#&-->>>;;%%=>>>>-*#########################",
"#+##################@.+-->>>>>>>>>-->-$########################@",
"#+##################@.+-->>>>>>>>>>->-$########################@",
"######################+&&>>>>>>>>>>>-*+++####################@##",
"@#+###################$-->>>-->>>>>>>>&@@#####################@@",
"####################@$->>>>>**&&*>>>>>>$$#######################",
"@####################*>>>>>*++..+*>>>>>**#####################@@",
"#@##################+*>>>>>&##..#+-->>>--#######################",
"#@##################+*>>>>>&##..#+-->>>--$######################",
"#@#################@@->>>>-$..++#+-->>>>>$####################@@",
"#@#################@@->>>>;&..+#.#-->>>>>$#################@####",
"###################@@*>>>>>-@@.#+*>>>>>--##################@##@@",
"#@################@@#*>>>>>>--*&->>>>>>**##################@####",
"#+##################.#->>>>>>>>>>>>>>>-@@##################@##@@",
"#+##################.#->>>>>>>>>>>>>>>-@@##################@##@@",
"#################@##@.@-->>>>>>>>>>>>-&+###################@@@##",
"#################@##+#.$$-->>>>>>>>>>&.#####################@@#@",
"####################@@#+++&*-----*&&$######################@@@##",
"###################@#@+##..@+++@+#..#+#######################@#@",
"###################@@#@##@@###@######@#######################@##",
"###################@@#@##@@###@######@##########################",
"@##################@#@#@@##@@@#@#@#############################@",
"####################@####@#@@@#@#@##@@##########################",
"####################@#@@@#@#@@#@@#@@#@#########################@",
"@##################+##@##@#@##@#@#@@@#@#########################",
"##################@@#@#@@##@@@#@@@##@#@@#####################@#@",
"##+###############@@#@#@@##@@@#@@@##@#@@@###################@@#@",
"@###############+#++##@###@#@@@@@@@@#@@@@@#################@@@##",
"@#@@#@######++#@#@@@##@##@####@##@@@##@##+##@@########@##@##@@#@"};
