/* XPM */
static char *ANTENA__[] = {
/* columns rows colors chars-per-pixel */
"64 48 44 1",
"  c #F39900",
". c #F49D0B",
"X c #F4A011",
"o c #F4A114",
"O c #F4A41B",
"+ c #F5A723",
"@ c #F5A826",
"# c #F5AB2C",
"$ c #F5AE33",
"% c #F6B038",
"& c #F6B23E",
"* c #F6B444",
"= c #F7B74B",
"- c #F7B84E",
"; c #F7BB55",
": c #F7BE5C",
"> c #F8C061",
", c #F8C165",
"< c #F8C369",
"1 c #F8C56D",
"2 c #F8C773",
"3 c #F9C877",
"4 c #F9CB7D",
"5 c #F9CE83",
"6 c #FAD18C",
"7 c #FAD495",
"8 c #FAD79A",
"9 c #FAD89F",
"0 c #FBDBA4",
"q c #FBDEAC",
"w c #FBDFB0",
"e c #FBE1B4",
"r c #FCE4BC",
"t c #FCE8C5",
"y c #FCE8C6",
"u c #FDEACB",
"i c #FDEED5",
"p c #FDF0D9",
"a c #FDF2DD",
"s c #FEF4E4",
"d c #FEF7EB",
"f c #FEF8EF",
"g c #FFFBF5",
"h c #FFFFFF",
/* pixels */
"hhhhhhhhhhhhhhhhhhhhhhhdy7<*@o &s$ o@*<7tdhhhhhhhhhhhhhhhhhhhhhh",
"hhhhhhhhhhhhhhhhhhhhsq<$o      3g<      o$<qshhhhhhhhhhhhhhhhhhh",
"hhhhhhhhhhhhhhhhhgu2#.        #ahp@        .#2ughhhhhhhhhhhhhhhh",
"hhhhhhhhhhhhhhhhy:o          .9hhh7           o:thhhhhhhhhhhhhhh",
"hhhhhhhhhhhhhha1o            ;ghhhf*            o2ahhhhhhhhhhhhh",
"hhhhhhhhhhhhhq#             oyhhhhhro             #qhhhhhhhhhhhh",
"hhhhhhhhhhhg4.              4hhhhhhh1              .5ghhhhhhhhhh",
"hhhhhhhhhhd,               $shhhhhhha@               ,dhhhhhhhhh",
"hhhhhhhhhd:               .0hhhhhhhhh8                :fhhhhhhhh",
"hhhhhhhhg<                ;ghhhhhhhhhf=                1ghhhhhhh",
"hhhhhhhh7.               Oyhhhhhhhhhhhro               .7hhhhhhh",
"hhhhhhhyO                4hhhhhhhhhhhhh2                Ouhhhhhh",
"hhhhhhg;                $shhhhhhhhhhhhha#                ;ghhhhh",
"hhhhhhe.               .0hhhhhhhhhhhhhhh8.               .ehhhhh",
"hhhhhg;                :ghhhhhhhhhhhhhhhg-                :ghhhh",
"hhhhhuO               Ouhhhhhhhhhhhhhhhhhto               Ouhhhh",
"hhhhh6                5hhhhhhhhhhhhhhhhhhh3                7hhhh",
"hhhhh;               %shhhhhhhhhhhhhhhhhhha#               ;hhhh",
"hhhhh#              .qhhhhhhhhhhhhhhhhhhhhh9.              #hhhh",
"hhhhho              :ghhhhhhhhhhhhhhhhhhhhhg;              Ohhhh",
"hhhhh.             Ouhhhhhhgie75457epghhhhhhtO             ohhhh",
"hhhhho             5hhhhhi5*O      .O*6phhhhh4             Ohhhh",
"hhhhh@            &dhhhi1O             O2phhhs$            #hhhh",
"hhhhh-           .qhhg8+                 @9ghh0.           ;hhhh",
"hhhhh5           >ghd<.                   .2fhg;           6hhhh",
"hhhhhyo         +ihd;                       :dhuO         ouhhhh",
"hhhhhg-         6hg>                         <gh4         ;ghhhh",
"hhhhhh0.       &dh5                           6hs$       .qhhhhh",
"hhhhhhf*      .ehro                           Othq.      =ghhhhh",
"hhhhhhhro     ,hg-                             ;gg:     orhhhhhh",
"hhhhhhhh4    +ihe.                             .rhuO    5hhhhhhh",
"hhhhhhhhf;   6hh:                               ,hh5   :ghhhhhhh",
"hhhhhhhhhs= *dhaO                               +ahs% =shhhhhhhh",
"hhhhhhhhhha:ehh0                                .whhq:shhhhhhhhh",
"hhhhhhhhhhhghhh3                                 5hhgghhhhhhhhhh",
"hhhhhhhhhhhhhhh;                                 :hhhhhhhhhhhhhh",
"hhhhhhhhhhhhhhh1                                 3hhhhhhhhhhhhhh",
"hhhhhhhhhhhhhhhg7+                             +7ghhhhhhhhhhhhhh",
"hhhhhhhhhhhhhhhhhi;.                         .;ihhhhhhhhhhhhhhhh",
"hhhhhhhhhhhhhhhhhhg8+                       +8ghhhhhhhhhhhhhhhhh",
"hhhhhhhhhhhhhhhhhhhhi;.                   .:ihhhhhhhhhhhhhhhhhhh",
"hhhhhhhhhhhhhhhhhhhhhg8+                 @9ghhhhhhhhhhhhhhhhhhhh",
"hhhhhhhhhhhhhhhhhhhhhhhi:.             .:ihhhhhhhhhhhhhhhhhhhhhh",
"hhhhhhhhhhhhhhhhhhhhhhhhg9@           @0ghhhhhhhhhhhhhhhhhhhhhhh",
"hhhhhhhhhhhhhhhhhhhhhhhhhhi:.       .>phhhhhhhhhhhhhhhhhhhhhhhhh",
"hhhhhhhhhhhhhhhhhhhhhhhhhhhg0@     #0ghhhhhhhhhhhhhhhhhhhhhhhhhh",
"hhhhhhhhhhhhhhhhhhhhhhhhhhhhhp>. .,ahhhhhhhhhhhhhhhhhhhhhhhhhhhh",
"hhhhhhhhhhhhhhhhhhhhhhhhhhhhhhg7$8ghhhhhhhhhhhhhhhhhhhhhhhhhhhhh"
};
