/* XPM */
static char *ANTENA__[] = {
/* columns rows colors chars-per-pixel */
"64 48 45 1",
"j c None",
"  c #F39900",
". c #F39D0B",
"X c #F49F10",
"o c #F4A013",
"O c #F4A31B",
"+ c #F5A621",
"@ c #F5A825",
"# c #F5AA2B",
"$ c #F5AC32",
"% c #F6AF38",
"& c #F6B13C",
"* c #F6B342",
"= c #F6B64B",
"- c #F7B84D",
"; c #F7BA54",
": c #F7BD5C",
"> c #F8BF5F",
", c #F8BF60",
"< c #F8C063",
"1 c #F8C46B",
"2 c #F8C671",
"3 c #F9C876",
"4 c #F9CA7B",
"5 c #F9CD83",
"6 c #F9D08B",
"7 c #FAD493",
"8 c #FAD79A",
"9 c #FAD89D",
"0 c #FBDAA3",
"q c #FBDDAA",
"w c #FBDFB0",
"e c #FBE0B3",
"r c #FCE3BA",
"t c #FCE6C2",
"y c #FCE8C5",
"u c #FCEACC",
"i c #FDEDD3",
"p c #FDEFD8",
"a c #FDF0DA",
"s c #FEF3E3",
"d c #FEF6E9",
"f c #FEF8EE",
"g c #FEFAF3",
"h c #FFFEFE",
/* pixels */
"jhhhhhhhhhhhhhhhhhhhhhhhhhhhhhhhhhhhhhhhhhhhhhhhhhhhhhhhhhhhhhhh",
"jhhhhhhhhhhhhhhhhhhhhhhhhhs0<$o+qOo$<0shhhhhhhhhhhhhhhhhhhhhhhhh",
"jhhhhhhhhhhhhhhhhhhhhhhhi3#.   &a%   .#3ihhhhhhhhhhhhhhhhhhhhhhh",
"jhhhhhhhhhhhhhhhhhhhhhd4O      7h6      O4dhhhhhhhhhhhhhhhhhhhhh",
"jhhhhhhhhhhhhhhhhhhhht&       @ahaO       &yhhhhhhhhhhhhhhhhhhhh",
"jhhhhhhhhhhhhhhhhhhhqO        2hhh1        Oqhhhhhhhhhhhhhhhhhhh",
"jhhhhhhhhhhhhhhhhhh0o        oyhhht.        o0hhhhhhhhhhhhhhhhhh",
"jhhhhhhhhhhhhhhhhhrO         ;ghhhg=         Orhhhhhhhhhhhhhhhhh",
"jhhhhhhhhhhhhhhhhp#         .qhhhhh0          #ahhhhhhhhhhhhhhhh",
"jhhhhhhhhhhhhhhhg>          %fhhhhhd$          ,ghhhhhhhhhhhhhhh",
"jhhhhhhhhhhhhhhhq.          6hhhhhhh5          .qhhhhhhhhhhhhhhh",
"jhhhhhhhhhhhhhhg*          +ahhhhhhhiO          *ghhhhhhhhhhhhhh",
"jhhhhhhhhhhhhhhw.          1hhhhhhhhh<          .ehhhhhhhhhhhhhh",
"jhhhhhhhhhhhhhh:          Xthhhhhhhhhr.          >hhhhhhhhhhhhhh",
"jhhhhhhhhhhhhhp+          -ghhhhhhhhhg*          +ahhhhhhhhhhhhh",
"jhhhhhhhhhhhhh0.          0hhhhhhhhhhh9          .0hhhhhhhhhhhhh",
"jhhhhhhhhhhhhh1          $dhhhhhhhhhhhs#          1hhhhhhhhhhhhh",
"jhhhhhhhhhhhhh&          5hhhhhhhhhhhhh4          *hhhhhhhhhhhhh",
"jhhhhhhhhhhhhh+         OphhhhhhhhhhhhhuO         +hhhhhhhhhhhhh",
"jhhhhhhhhhhhhhX         <hhhhhhhhhhhhhhh:         ohhhhhhhhhhhhh",
"jhhhhhhhhhhhhh.        .rhhhhguq9qughhhhe.        .hhhhhhhhhhhhh",
"jhhhhhhhhhhhhh.        =ghhf8&o   o*9ghhg*        .hhhhhhhhhhhhh",
"jhhhhhhhhhhhhhO        9hhu=         -ihh7        Ohhhhhhhhhhhhh",
"jhhhhhhhhhhhhh#       #sht#           #yhs@       $hhhhhhhhhhhhh",
"jhhhhhhhhhhhhh;       4hi#             $ih3       :hhhhhhhhhhhhh",
"jhhhhhhhhhhhhh6      Oig=               ;guo      6hhhhhhhhhhhhh",
"jhhhhhhhhhhhhhto     >h6                 7h;     oyhhhhhhhhhhhhh",
"jhhhhhhhhhhhhhg*    .rs@                 #se.    *ghhhhhhhhhhhhh",
"jhhhhhhhhhhhhhh6    *g6                   7g&    7hhhhhhhhhhhhhh",
"jhhhhhhhhhhhhhha+   8g&                   &g7   @ahhhhhhhhhhhhhh",
"jhhhhhhhhhhhhhhh4  #st.                   .ys+  5hhhhhhhhhhhhhhh",
"jhhhhhhhhhhhhhhhs$ 3h5                     6h2 $shhhhhhhhhhhhhhh",
"jhhhhhhhhhhhhhhhhq+uh;                     :hy+qhhhhhhhhhhhhhhhh",
"jhhhhhhhhhhhhhhhhgrgf$                     %ggrghhhhhhhhhhhhhhhh",
"jhhhhhhhhhhhhhhhhhhhaO                     +shhhhhhhhhhhhhhhhhhh",
"jhhhhhhhhhhhhhhhhhhhio                     Ophhhhhhhhhhhhhhhhhhh",
"jhhhhhhhhhhhhhhhhhhhg1                     1ghhhhhhhhhhhhhhhhhhh",
"jhhhhhhhhhhhhhhhhhhhhg3.                 .3ghhhhhhhhhhhhhhhhhhhh",
"jhhhhhhhhhhhhhhhhhhhhhg5.               .5ghhhhhhhhhhhhhhhhhhhhh",
"jhhhhhhhhhhhhhhhhhhhhhhg6.             .6hhhhhhhhhhhhhhhhhhhhhhh",
"jhhhhhhhhhhhhhhhhhhhhhhhh7X           o7hhhhhhhhhhhhhhhhhhhhhhhh",
"jhhhhhhhhhhhhhhhhhhhhhhhhh9o         o0hhhhhhhhhhhhhhhhhhhhhhhhh",
"jhhhhhhhhhhhhhhhhhhhhhhhhhhqO       Oqhhhhhhhhhhhhhhhhhhhhhhhhhh",
"jhhhhhhhhhhhhhhhhhhhhhhhhhhheO     +ehhhhhhhhhhhhhhhhhhhhhhhhhhh",
"jhhhhhhhhhhhhhhhhhhhhhhhhhhhhr@   @rhhhhhhhhhhhhhhhhhhhhhhhhhhhh",
"jhhhhhhhhhhhhhhhhhhhhhhhhhhhhht# #yhhhhhhhhhhhhhhhhhhhhhhhhhhhhh",
"jhhhhhhhhhhhhhhhhhhhhhhhhhhhhhht=thhhhhhhhhhhhhhhhhhhhhhhhhhhhhh",
"jhhhhhhhhhhhhhhhhhhhhhhhhhhhhhhhhhhhhhhhhhhhhhhhhhhhhhhhhhhhhhhh"
};
