/* XPM */
static char *ARAGON_TV[] = {
/* columns rows colors chars-per-pixel */
"64 48 78 1",
"  c #040001",
". c #0B0301",
"X c #000308",
"o c #120201",
"O c #1A0301",
"+ c #100901",
"@ c #1A0F01",
"# c #1D1101",
"$ c #250401",
"% c #2D0501",
"& c #320501",
"* c #3C0601",
"= c #3E0902",
"- c #231501",
"; c #2C1A01",
": c #321E01",
"> c #362101",
", c #3B2401",
"< c #410701",
"1 c #480701",
"2 c #4C0801",
"3 c #550801",
"4 c #650A01",
"5 c #6B0A01",
"6 c #730B01",
"7 c #7C0C01",
"8 c #402701",
"9 c #442A01",
"0 c #4C2F01",
"q c #523301",
"w c #633E01",
"e c #664000",
"r c #684101",
"t c #704701",
"y c #764A01",
"u c #7A4C01",
"i c #840D01",
"p c #8A0D01",
"a c #930E00",
"s c #9D0F00",
"d c #A20F00",
"f c #AD1000",
"g c #B41000",
"h c #BC1100",
"j c #C31100",
"k c #C91200",
"l c #D31200",
"z c #DD1300",
"x c #DE1C00",
"c c #E31300",
"v c #EB1400",
"b c #E51C00",
"n c #EC1D00",
"m c #F01400",
"M c #835200",
"N c #8A5701",
"B c #8F5A01",
"V c #945D00",
"C c #9C6200",
"Z c #A46800",
"A c #AB6C00",
"S c #B06E00",
"D c #B37100",
"F c #BA7600",
"G c #BE7800",
"H c #C37B00",
"J c #C97F00",
"K c #CD8100",
"L c #D58600",
"P c #DC8B00",
"I c #E28E00",
"U c #E49000",
"Y c #EB9400",
"T c #F09700",
"R c #F59A00",
"E c #FC9E00",
"W c #FEA000",
"Q c None",
/* pixels */
"QQQQQQQQQQQQQQQQ      .     X4bnnnnnnnnnnnnbnx=QQQQQQQQQQQQQQQQQ",
"QQQQQQQQQQQQQQQ             1jvvvvvvvvvvvvvvvl& QQQQQQQQQQQQQQQQ",
"QQQQQQQQQQQQQQQ   .       .4lvvvvvvvvvvvvvvvvjO QQQQQQQQQQQQQQQQ",
"QQQQQQQQQQQQQQQ          oizvvvvvvvvvvvvvvvvvd. QQQQQQQQQQQQQQQQ",
"QQQQQQQQQQQQQQQ         $svvvvvvvvvvvvvvvvvvvp  QQQQQQQQQQQQQQQQ",
"QQQQQQQQQQQQQQQ        *gvvvvvvvvvvvvvvvvvvvv4  QQQQQQQQQQQQQQQQ",
"QQQQQQQQQQQQQQQ      .3kvvvvvvvvvvvvvvvcvvvvz1  QQQQQQQQQQQQQQQQ",
"QQQQQQQQQQQQQQQ      $jmvvvvvvvvvvcskvvvvvvvl%  QQQQQQQQQQQQQQQQ",
"QQQQQQQQQQQQQQQ       pnvvvvvvvvvz6<lvvvvvvvjO  QQQQQQQQQQQQQQQQ",
"QQQQQQQQQQQQQQQ   :u# $hvvvvvvvvl3 3vvvvvvvvd.  QQQQQQQQQQQQQQQQ",
"QQQQQQQQQQQQQQQ +9HTu  2lvvvvvvk2  7vvvvvvvvp   QQQQQQQQQQQQQQQQ",
"QQQQQQQQQQQQQQQ+qPWWP9  4cvvvvg=  .dvvvvvvvv4   QQQQQQQQQQQQQQQQ",
"QQQQQQQQQQQQQQQAUWEEWH; .6zvvf&   Ohvvvvvvvc1   QQQQQQQQQQQQQQQQ",
"QQQQQQQQQQQQQQQWEEEEEWA#  5ld$    &lvvvvvvvl%   QQQQQQQQQQQQQQQQ",
"QQQQQQQQQQQQQQQEEEEEEWEZ#  =O     3vvvvvvvvhO   QQQQQQQQQQQQQQQQ",
"QQQQQQQQQQQQQQQEEEEEEEEEA;        6vvvvvvvvd.   QQQQQQQQQQQQQQQQ",
"QQQQQQQQQQQQQQQEEEEEEEEEEF,       svvvvvvvvp.   QQQQQQQQQQQQQQQQ",
"QQQQQQQQQQQQQQQEEEEEEEEEEEPr+    Ohmvvvvvvv4    QQQQQQQQQQQQQQQQ",
"QQQQQQQQQQQQQQQEEEEEEEEEEEWTC>   o5glvvvvvc1    QQQQQQQQQQQQQQQQ",
"QQQQQQQQQQQQQQQEEEEEEEEEEEEEWLu-   O*5agjlj%    QQQQQQQQQQQQQQQQ",
"QQQQQQQQQQQQQQQEEEWRFLEEEEEEEEEKM>+    oO%%     QQQQQQQQQQQQQQQQ",
"QQQQQQQQQQQQQQQEEWYM@,GEWWEEEEEEEUSt,#+         QQQQQQQQQQQQQQQQ",
"QQQQQQQQQQQQQQQEWPw.  -CRWEEEEEEEEWEYKAByr-     QQQQQQQQQQQQQQQQ",
"QQQQQQQQQQQQQQQEH8     +qKEEEEEEEEEEWWWWEY0     QQQQQQQQQQQQQQQQ",
"QQQQQQQQQQQQQQQu;        :NIEEEEEEEEEEEEWP>     QQQQQQQQQQQQQQQQ",
"QQQQQQQQQQQQQQQ     .      ,CPEWEEEEEEEEWK#     QQQQQQQQQQQQQQQQ",
"QQQQQQQQQQQQQQQ             .>MJEEEEEEEEWD.     QQQQQQQQQQQQQQQQ",
"QQQQQQQQQQQQQQQ                8PWEEEEEEWV      QQQQQQQQQQQQQQQQ",
"QQQQQQQQQQQQQQQ      . .       9YEEEEEEEEt      QQQQQQQQQQQQQQQQ",
"QQQQQQQQQQQQQQQ                wTEEEEERETq      QQQQQQQQQQQQQQQQ",
"QQQQQQQQQQQQQQQX          .   .MWEEEEEEEI>      QQQQQQQQQQQQQQQQ",
"QQQQQQQQQQQQQQQ               +AWEEEEEEWL-      QQQQQQQQQQQQQQQQ",
"QQQQQQQQQQQQQQQ               @HWEEEEEEEF+      QQQQQQQQQQQQQQQQ",
"QQQQQQQQQQQQQQQQ              ;PEEEEEEEEC.      QQQQQQQQQQQQQQQQ",
"QQQQQQQQQQQQQQQQQQQQQQQQQQQQQQQQQQQQQQQQQQQQQQQQQQQQQQQQQQQQQQQQ",
"QQQQQQQQQQQQQQQQQQQQQQQQQQQQQQQQQQQQQQQQQQQQQQQQQQQQQQQQQQQQQQQQ",
"QQQQQQQQQQQQQQQQQQQQQQQQQQQQQQQQQQQQQQQQQQQQQQQQQQQQQQQQQQQQQQQQ",
"QQQQQQQQQQQQQQQQXQQQQQQQXQQQQQQQQQQQXQQQQQQQQQQQQQQQQQQQQQQQQQQQ",
"QQQQQQQQQQQQQQQQQXQXXQQQQQQQQQXQQQQXQQQQQQQQQQQQQQQQQQQQQQQQQQQQ",
"QQQQQQQQQQQQQQQXQQQQQQQQQQQQQQQQQQQQQQQXQQQQQQQQQQQQQQQQQQQQQQQQ",
"QQQQQQQQQQQQQQQQQQQQQQQQQQQQQQQQQQQQQQQQQQQQQQQQQQQQQQQQQQQQQQQQ",
"QQQQQQQQQQQQQQQQQQQQQQQQQQQQQQQQQQQQQQQQQQQQQQQQQQQQQQQQQQQQQQQQ",
"QQQQQQQQQQQQQQQQQQQQQQQQQQQQQQQQQQQQQQQQQQQQQQQQQQQQQQQQQQQQQQQQ",
"QQQQQQQQQQQQQQQXXXXXQXXQXXXXXQXXXQXXQQXQXXXXQXQQXQQQQQQQQQQQQQQQ",
"QQQQQQQQQQQQQQQQXQXXQXXQXXQQXQXQXQXXQQXXXQQXXXXQXQQQQQQQQQQQQQQQ",
"QQQQQQQQQQQQQQQQXQXXQXXQXXQQXXXQXQQXXXXXXQQXXXXXXQQQQQQQQQQQQQQQ",
"QQQQQQQQQQQQQQQQXQXXQXXQXXQQQXQQXQXXXXXQXXXXQXQXXQQQQQQQQQQQQQQQ",
"QQQQQQQQQQQQQQQQQQQQQQQQQQQQQQQQQQQXQQQQQXQQQQQQQQQQQQQQQQQQQQQQ"
};
