/* XPM */
static char *Bar__a_TV[] = {
/* columns rows colors chars-per-pixel */
"64 48 256 2",
"   c #3F0211",
".  c #43000F",
"X  c #420312",
"o  c #4B0917",
"O  c #490C19",
"+  c #530316",
"@  c #5B051A",
"#  c #5B0117",
"$  c #55111F",
"%  c #61081D",
"&  c #4D1723",
"*  c #591724",
"=  c #691125",
"-  c #72192E",
";  c #5A2932",
":  c #682332",
">  c #772A3C",
",  c #63323B",
"<  c #6F303F",
"1  c #1D1E6A",
"2  c #1F206E",
"3  c #22226E",
"4  c #2B2B76",
"5  c #2E307D",
"6  c #38377B",
"7  c #6D3944",
"8  c #7A3C49",
"9  c #555655",
"0  c #575857",
"q  c #585856",
"w  c #5C5C5B",
"e  c #575959",
"r  c #6E454E",
"t  c #744851",
"y  c #784551",
"u  c #77434E",
"i  c #60605F",
"p  c #636363",
"a  c #6A6A6A",
"s  c #696566",
"d  c #6F6F73",
"f  c #766F72",
"g  c #7E7376",
"h  c #74757A",
"j  c #797577",
"k  c #9A0729",
"l  c #9C1F3D",
"z  c #A40A2E",
"x  c #AC0B2F",
"c  c #AB0D32",
"v  c #B30B33",
"b  c #BC0C37",
"n  c #BB143A",
"m  c #B71539",
"M  c #81273A",
"N  c #D30F3D",
"B  c #C4103A",
"V  c #A92443",
"C  c #A42946",
"Z  c #A5324F",
"A  c #B13B57",
"S  c #C61F47",
"D  c #C7385A",
"F  c #C12249",
"G  c #884554",
"H  c #86525D",
"J  c #B4415D",
"K  c #A9415A",
"L  c #875964",
"P  c #925A68",
"I  c #AF5268",
"U  c #BD5E75",
"Y  c #B34F68",
"T  c #89626B",
"R  c #8D6E74",
"E  c #926771",
"W  c #867B7D",
"Q  c #96747C",
"!  c #95767C",
"~  c #A96777",
"^  c #AF6B7A",
"/  c #D04D6B",
"(  c #CE5471",
")  c #CB677E",
"_  c #2B2C8E",
"`  c #272983",
"'  c #2F308C",
"]  c #2F3086",
"[  c #343484",
"{  c #33338A",
"}  c #3B3B89",
"|  c #363791",
" . c #3B3B96",
".. c #37389D",
"X. c #2E2FA4",
"o. c #3D3DA3",
"O. c #3334AA",
"+. c #3536A7",
"@. c #3536B5",
"#. c #3F4193",
"$. c #474787",
"%. c #464797",
"&. c #5B5C94",
"*. c #57589F",
"=. c #5A5B9C",
"-. c #55549D",
";. c #535289",
":. c #5F6199",
">. c #7B7C86",
",. c #64659E",
"<. c #6D6D9E",
"1. c #706E99",
"2. c #73739D",
"3. c #4444A2",
"4. c #4242AB",
"5. c #4E4EAC",
"6. c #5C5DAB",
"7. c #5758A8",
"8. c #4D4EB3",
"9. c #5959B5",
"0. c #6768A8",
"q. c #7474AC",
"w. c #7B7BAD",
"e. c #7D7DA3",
"r. c #6D6EB4",
"t. c #6B6CB9",
"y. c #7A7BB3",
"u. c #7677B3",
"i. c #3A3CC9",
"p. c #5556C8",
"a. c #494AD7",
"s. c #4E50DC",
"d. c #5352DB",
"f. c #5F60C6",
"g. c #6666C5",
"h. c #7A7AC4",
"j. c #6869D5",
"k. c #7677D5",
"l. c #4A4CE7",
"z. c #4C4EFB",
"x. c #4A4CF8",
"c. c #5153FB",
"v. c #5859F8",
"b. c #5757E7",
"n. c #6465FA",
"m. c #696AFC",
"M. c #6E70F7",
"N. c #7575FA",
"B. c #777AFB",
"V. c #797BF9",
"C. c #7577F5",
"Z. c #6F6FEE",
"A. c #8D7D80",
"S. c #947C82",
"D. c #907684",
"F. c #BF7083",
"G. c #A27982",
"H. c #CE7187",
"J. c #E57B95",
"K. c #7E8189",
"L. c #7F81FB",
"P. c #82838B",
"I. c #858597",
"U. c #9A899D",
"Y. c #988B8E",
"T. c #B3838F",
"R. c #B3969B",
"E. c #AA8C93",
"W. c #8485A2",
"Q. c #888AA1",
"!. c #8584AC",
"~. c #9B95AB",
"^. c #8283B2",
"/. c #8C8CB3",
"(. c #8586BD",
"). c #8C8DBF",
"_. c #9B9ABC",
"`. c #9596B8",
"'. c #978BA8",
"]. c #B3B0AF",
"[. c #A3A3BE",
"{. c #D88F9F",
"}. c #C9909E",
"|. c #C08491",
" X c #DA94A5",
".X c #C2A9AF",
"XX c #DCA0AE",
"oX c #C6ACB1",
"OX c #CAB5BA",
"+X c #D2B6BB",
"@X c #E1B1BD",
"#X c #E9A6B7",
"$X c #8283C2",
"%X c #8A8DCB",
"&X c #8A8AC7",
"*X c #908ECC",
"=X c #9A99CB",
"-X c #9898C3",
";X c #8787D7",
":X c #9FA0D6",
">X c #A2A2C5",
",X c #A6A6CC",
"<X c #B3B4CE",
"1X c #ABABD5",
"2X c #A8A9D7",
"3X c #AFB2D5",
"4X c #B2B3D4",
"5X c #BCBBD3",
"6X c #B5B6D8",
"7X c #BDBDDB",
"8X c #B6B8DC",
"9X c #8C8CE1",
"0X c #8282E8",
"qX c #9394E4",
"wX c #898AF7",
"eX c #9596F8",
"rX c #9DA0F4",
"tX c #A4A5E8",
"yX c #BABAE4",
"uX c #A9A9F9",
"iX c #A9A9F7",
"pX c #AFB0FA",
"aX c #B6B7F7",
"sX c #CEBCC0",
"dX c #E2B5C0",
"fX c #C0BFEC",
"gX c #BFC0DD",
"hX c #D4C4C6",
"jX c #D6C8CB",
"kX c #C4C4DD",
"lX c #CBCBDD",
"zX c #C6C5D6",
"xX c #DDCDD1",
"cX c #D1D1DE",
"vX c #CACACE",
"bX c #EDC2CC",
"nX c #E8D3D8",
"mX c #EAC9D2",
"MX c #CCCDE4",
"NX c #CBCBED",
"BX c #CFD1E5",
"VX c #CFD0EE",
"CX c #D2D2E4",
"ZX c #D3D4EB",
"AX c #D9DAE8",
"SX c #CCCCF3",
"DX c #C4C5FA",
"FX c #C6C6F8",
"GX c #DCDDF0",
"HX c #D2D4F9",
"JX c #DADBFB",
"KX c #D6D8F9",
"LX c #EBE5E9",
"PX c #E8E8F4",
"IX c #F9F2F4",
"UX c None",
/* pixels */
"UXUXUXUXUXUXUXUXUXUXUXUXUXUXUXUXUXUXUXUXUXUXUXUXUXUXUXUXUXUXUXUXUXUXUXUXUXUXUXUXUXUXUXUXUXUXUXUXUXUXUXUXUXUXUXUXUXUXUXUXUXUXUXUX",
"UXUXUXUXUXUXUXUXUXUXUXUXUXUXUXUXUXUXUXUXUXUXUXUXUXUXUXUXUXUXUXUXUXUXUXUXUXUXUXUXUXUXUXUXUXUXUXUXUXUXUXUXUXUXUXUXUXUXUXUXUXUXUXUX",
"UXUXUXUXUXUXUXUXUXUXUXUXUXUXUXUXUXUXUXUXUXUXUXUXUXUXUXUXUXUXUXUXUXUXUXUXUXUXUXUXUXUXUXUXUXUXUXUXUXUXUXUXUXUXUXUXUXUXUXUXUXUXUXUX",
"UXUXUXUXUXUXUXUXUXUXUXUXUXUXUXUXUXUXUXUXUXUXUXUXUXUXUXUXUXUXUXUXUXUXUXUXUXUXUXUXUXUXUXUXUXUXUXUXUXUXUXUXUXUXUXUXUXUXUXUXUXUXUXUX",
"UXUXUXUXUXUXUXUXUXUXUXUXUXUXUXUXUXUXUXUXUXUXUXUXUXUXUXUXUXUXUXUXUXUXUXUXUXUXUXUXUXUXUXUXUXUXUXUXUXUXUXUXUXUXUXUXUXUXUXUXUXUXUXUX",
"UXUXUXUXUXUXUXUXUXUXUXUXUXUXUXUXUXUXUXUXUXUXUXUXUXUXUXUXUXUXUXUXUXUXUXUXUXUXUXUXUXUXUXUXUXUXUXUXUXUXUXUXUXUXUXUXUXUXUXUXUXUXUXUX",
"UXUXUXUXUXUXUXUXUXUXUXUXUXUXUXUXUXUXUXUXUXUXUXUXUXUXUXUXUXUXUXUXUXUXUXUXUXUXUXUXUXUXUXUXUXUXUXUXUXUXUXUXUXUXUXUXUXUXUXUXUXUXUXUX",
"UXUXUXUXUXUXUXUXUXUXUXUXUXUXUXUXUXUXUXUXUXUXUXUXUXUXUXUXUXUXUXUXUXUXUXUXUXUXUXUXUXUXUXUXUXUXUXUXUXUXUXUXUXUXUXUXUXUXUXUXUXUXUXUX",
"UXUXUXUXUXUXUXUXUXUXUXUXUXUXUXUXUXUXUXUXUXUXUXUXUXUXUXUXUXUXUXUXUXUXUXUXUXUXUXUXUXUXUXUXUXUXUXUXUXUXUXUXUXUXUXUXUXUXUXUXUXUXUXUX",
"UXUXUXUXUXUXUXUXUXUXUXUXUXUXUXUXUXUXUXUXUXUXUXUXUXUXUXUXUXUXUXUXUXUXUXUXUXUXUXUXUXUXUXUXUXUXUXUXUXUXUXUXUXUXUXUXUXUXUXUXUXUXUXUX",
"UXUXUXUXUXUXUXUXUXUXUXUXUXUXUXUXUXUXUXUXUXUXUXUXUXUXUXUXUXUXUXUXUXUXUXUXUXUXUXUXUXUXUXUXUXUXUXUXUXUXUXUXUXUXUXUXUXUXUXUXUXUXUXUX",
"UXUXUXUXUXUXUXUXUXUXUXUXUXUXUXUXUXUXUXUXUXUXUXUXUXUXUXUXUXUXUXUXUXUXUXUXUXUXUXUXUXUXUXUXUXUXUXUXUXUXUXUXUXUXUXUXUXUXUXUXUXUXUXUX",
"UXUXUXUXUXUXUXUXUXUXUXUXUXUXUXUXUXUXUXUXUXUXUXUXUXUXUXUXUXUXUXUXUXUXUXUXUXUXUXUXUXUXUXUXUXUXUXUXUXUXUXUXUXUXUXUXUXUXUXUXUXUXUXUX",
"UXUXUXUXUXUXUXUXUXUXUXUXUXUXUXUXUXUXUXUXUXUXUXUXUXUXUXUXUXUXUXUXUXUXUXUXUXUXUXUXUXUXUXUXUXUXUXUXUXUXUXUXUXUXUXUXUXUXUXUXUXUXUXUX",
"UXUXUXUXUXUXUXUXUXUXUXUXUXUXUXUXUXUXUXUXUXUXUXUXUXUXUXUXUXUXUXUXUXUXUXUXUXUXUXUXUXUXUXUXUXUXUXUXUXUXhX+XXX XH.U Y Y }.xXUXUXUXUX",
"UXUXUXUXUXUXUXUXUXUXUXUXUXUXUXUXUXUXUXUXUXUXUXUXUXUXUXUXUXUXUXUXUXUXUXUXUXUXUXUXUXUXUXUXhXOXR.E.E H G > C m c z V C l |.].UXUXUX",
"UXUXUXUXUXUXUXUXUXUXUXUXUXUXUXUXUXUXUXUXUXUXUXUXUXUXUXUXUXUXUXUXUXUXUXUXUXUXgX3X[.zXS.t , ; $ $ * : : G J N c A @X) k K E.UXUXUX",
"UXUXUXUXUXUXUXUXUXUXUXUXUXUXUXUXUXUXUXUXUXUXUXUXUXUXUXUXUXUXUXKXFXaXtX9Xk.g.8.o. .~.; & 7 H Q R..X+XQ oX#XS n  X@XV k Z Y.UXUXUX",
"UXUXUXUXUXUXUXUXUXUXUXUXUXUXUXUXUXUXUXUXUXUXUXUXUXSXSXDXuXeXwXN.n.v.s.a.p.g.7._ %.U.& ! hXhXLXhXG.P > T.mXD / bXY x z K g a UXUX",
"UXUXUXUXUXUXUXUXUXUXUXUXUXUXUXUXUXUXUXkX4X:X%Xh.g.j.wXB.n.n.m.B.n.wXpXFXNXAX7X..=.! O , 7 y xXP + # % P LXH.#X#Xm x z I s UXUXUX",
"UXUXUXUXUXUXUXUXUXUXUXUXMX5X,X`.(.r.7.5.3.o.4.8.9.d.wXaXDXHXJXDXV.eXtX;Xk.2X5X| q.L     X u xX8 + + @ > nXnXdXD v c c ~ e UXUXUX",
"UXUXUXUXUXUXzX<X_./.w.0.-.%. .|  .3.o...h.2XyXNXGXeXDXKXuXeXL.n.c.Z.9XqXtXGX,X' !.r X X X E sX: + @ @ = oXIXJ.N b v m ~ q UXUXUX",
"UXUXcX/.<.&.$.} [ [ } ] { 0.-X3XkXCX,X9.MX8X%X&XVXiXKXeXc.c.z.x.N.SXNXyX2XGX$X' '.;   X o E..X$ + @ @ % G ~ F S B n D Q q UXUXUX",
"UXUX[.6 2 4 :.^.-X<XlX^.%.1X1X=X(.6X6Xt.MX9.O.+.j.wXJXwXc.c.z.x.uXyXj.j.;XZX0.%.U.&   X o E H o + @ % = - M J ( ) F.T.f p UXUXUX",
"UXUX/.3 2 7.AX5X>X*XBX=X[ -.0.u.*XBX=XK.gX4.+.O.i.wXJXV.m.V.wXm.aXPXFXSXMX8X%.7.S.    + o * : < 8 L E Q S.A.A.g a w e p UXUXUXUX",
"UXUX2.3 4 K.kX,.0.K.lXu.7.7XMXkXgXLX;XqX1X+.X.@.a.iXPXHXGXJXDXN.C.qXk.g.8.3._ q.S., t s R ! A.W W f a w q 9 q p UXUXUXUXUXUXUXUX",
"UXUX&.3 3 [.PXlXMXSXAX=.>X4X6.7.u.BXt.8X*X+.+.@.a.eXaXFXaXV.n.z.l.s.p.g.t.u.e.~.U.W j a i w q q w p UXUXUXUXUXUXUXUXUXUXUXUXUXUX",
"UXvX6 2 6 5X>X,.*.K.lX*.5XCX4XMXBXyX7.&X9.X.O.@.b.B.m.B.C.C.V.9X%X).!.>.h a p e q 0 i a UXUXUXUXUXUXUXUXUXUXUXUXUXUXUXUXUXUXUXUX",
"UXzX6 3 $.cX5X>X7XBX_.| K.tX&Xq.6.3...+.3.8.9.g.9X:X=X).I.P.h p w 9 q e p UXUXUXUXUXUXUXUXUXUXUXUXUXUXUXUXUXUXUXUXUXUXUXUXUXUXUX",
"UXlX;.2 ;.<X<X-Xw.,.} ` _ .. .%.7.0.y.^.!.Q.K.>.d p w e 9 w p UXUXUXUXUXUXUXUXUXUXUXUXUXUXUXUXUXUXUXUXUXUXUXUXUXUXUXUXUXUXUXUXUX",
"UXUX_.} 4 6 5 [ } %.=.0.e.!.Q.I.K.h a i q 9 q i a UXUXUXUXUXUXUXUXUXUXUXUXUXUXUXUXUXUXUXUXUXUXUXUXUXUXUXUXUXUXUXUXUXUXUXUXUXUXUX",
"UXUXvX~.2.1.K.!.I.I.j j a w q q e i UXUXUXUXUXUXUXUXUXUXUXUXUXUXUXUXUXUXUXUXUXUXUXUXUXUXUXUXUXUXUXUXUXUXUXUXUXUXUXUXUXUXUXUXUXUX",
"UXUXUXUXP.j a i q q w p UXUXUXUXUXUXUXUXUXUXUXUXUXUXUXUXUXUXUXUXUXUXUXUXUXUXUXUXUXUXUXUXUXUXUXUXUXUXUXUXUXUXUXUXUXUXUXUXUXUXUXUX",
"UXUXUXUXUXUXUXUXUXUXUXUXUXUXUXUXUXUXUXUXUXUXUXUXUXUXUXUXUXUXUXUXUXUXUXUXUXUXUXUXUXUXUXUXUXUXUXUXUXUXUXUXUXUXUXUXUXUXUXUXUXUXUXUX",
"UXUXUXUXUXUXUXUXUXUXUXUXUXUXUXUXUXUXUXUXUXUXUXUXUXUXUXUXUXUXUXUXUXUXUXUXUXUXUXUXUXUXUXUXUXUXUXUXUXUXUXUXUXUXUXUXUXUXUXUXUXUXUXUX",
"UXUXUXUXUXUXUXUXUXUXUXUXUXUXUXUXUXUXUXUXUXUXUXUXUXUXUXUXUXUXUXUXUXUXUXUXUXUXUXUXUXUXUXUXUXUXUXUXUXUXUXUXUXUXUXUXUXUXUXUXUXUXUXUX",
"UXUXUXUXUXUXUXUXUXUXUXUXUXUXUXUXUXUXUXUXUXUXUXUXUXUXUXUXUXUXUXUXUXUXUXUXUXUXUXUXUXUXUXUXUXUXUXUXUXUXUXUXUXUXUXUXUXUXUXUXUXUXUXUX",
"UXUXUXUXUXUXUXUXUXUXUXUXUXUXUXUXUXUXUXUXUXUXUXUXUXUXUXUXUXUXUXUXUXUXUXUXUXUXUXUXUXUXUXUXUXUXUXUXUXUXUXUXUXUXUXUXUXUXUXUXUXUXUXUX",
"UXUXUXUXUXUXUXUXUXUXUXUXUXUXUXUXUXUXUXUXUXUXUXUXUXUXUXUXUXUXUXUXUXUXUXUXUXUXUXUXUXUXUXUXUXUXUXUXUXUXUXUXUXUXUXUXUXUXUXUXUXUXUXUX",
"UXUXUXUXUXUXUXUXUXUXUXUXUXUXUXUXUXUXUXUXUXUXUXUXUXUXUXUXUXUXUXUXUXUXUXUXUXUXUXUXUXUXUXUXUXUXUXUXUXUXUXUXUXUXUXUXUXUXUXUXUXUXUXUX",
"UXUXUXUXUXUXUXUXUXUXUXUXUXUXUXUXUXUXUXUXUXUXUXUXUXUXUXUXUXUXUXUXUXUXUXUXUXUXUXUXUXUXUXUXUXUXUXUXUXUXUXUXUXUXUXUXUXUXUXUXUXUXUXUX",
"UXUXUXUXUXUXUXUXUXUXUXUXUXUXUXUXUXUXUXUXUXUXUXUXUXUXUXUXUXUXUXUXUXUXUXUXUXUXUXUXUXUXUXUXUXUXUXUXUXUXUXUXUXUXUXUXUXUXUXUXUXUXUXUX",
"UXUXUXUXUXUXUXUXUXUXUXUXUXUXUXUXUXUXUXUXUXUXUXUXUXUXUXUXUXUXUXUXUXUXUXUXUXUXUXUXUXUXUXUXUXUXUXUXUXUXUXUXUXUXUXUXUXUXUXUXUXUXUXUX",
"UXUXUXUXUXUXUXUXUXUXUXUXUXUXUXUXUXUXUXUXUXUXUXUXUXUXUXUXUXUXUXUXUXUXUXUXUXUXUXUXUXUXUXUXUXUXUXUXUXUXUXUXUXUXUXUXUXUXUXUXUXUXUXUX",
"UXUXUXUXUXUXUXUXUXUXUXUXUXUXUXUXUXUXUXUXUXUXUXUXUXUXUXUXUXUXUXUXUXUXUXUXUXUXUXUXUXUXUXUXUXUXUXUXUXUXUXUXUXUXUXUXUXUXUXUXUXUXUXUX",
"UXUXUXUXUXUXUXUXUXUXUXUXUXUXUXUXUXUXUXUXUXUXUXUXUXUXUXUXUXUXUXUXUXUXUXUXUXUXUXUXUXUXUXUXUXUXUXUXUXUXUXUXUXUXUXUXUXUXUXUXUXUXUXUX",
"UXUXUXUXUXUXUXUXUXUXUXUXUXUXUXUXUXUXUXUXUXUXUXUXUXUXUXUXUXUXUXUXUXUXUXUXUXUXUXUXUXUXUXUXUXUXUXUXUXUXUXUXUXUXUXUXUXUXUXUXUXUXUXUX",
"UXUXUXUXUXUXUXUXUXUXUXUXUXUXUXUXUXUXUXUXUXUXUXUXUXUXUXUXUXUXUXUXUXUXUXUXUXUXUXUXUXUXUXUXUXUXUXUXUXUXUXUXUXUXUXUXUXUXUXUXUXUXUXUX"
};
