/* XPM */
static char *Boing[] = {
/* columns rows colors chars-per-pixel */
"64 48 60 1",
"  c #303E74",
". c #303E75",
"X c #303F75",
"o c #313F75",
"O c #323F75",
"+ c #313F76",
"@ c #314075",
"# c #324075",
"$ c #314076",
"% c #324076",
"& c #334076",
"* c #334176",
"= c #334177",
"- c #344176",
"; c #344177",
": c #344277",
"> c #354277",
", c #354377",
"< c #354278",
"1 c #354378",
"2 c #364378",
"3 c #364478",
"4 c #364479",
"5 c #374479",
"6 c #374579",
"7 c #384579",
"8 c #384679",
"9 c #38457A",
"0 c #38467A",
"q c #39467A",
"w c #39477A",
"e c #39467B",
"r c #39477B",
"t c #3A477A",
"y c #3A477B",
"u c #3A487B",
"i c #3B487B",
"p c #3B487C",
"a c #3C497C",
"s c #3C4A7D",
"d c #3D4A7D",
"f c #3D4B7D",
"g c #3E4B7D",
"h c #3E4B7E",
"j c #3F4C7E",
"k c #414D7F",
"l c #EC4744",
"z c #ED4744",
"x c #ED4845",
"c c #EC4946",
"v c #EC4947",
"b c #EC4A47",
"n c #EC4B48",
"m c #ED4C48",
"M c #EC4C49",
"N c #EC4D4A",
"B c #ED4D4A",
"V c #ED4F4C",
"C c #445182",
"Z c None",
/* pixels */
"ZZZZZZZZZZZZZZZZZZZZZZZZZZZZZZZZZZZZZZZZZZZZZZZZZZZZZZZZZZZZZZZZ",
"ZZZZZZZZZZZZZZZZZZZZZZZZZZZZZZZZZZZZZZZZZZZZZZZZZZZZZZZZZZZZZZZZ",
"ZZZZZZZZZZZZZZZZZZZZZZZZZZZZZZZZZZZZZZZZZZZZZZZZZZZZZZZZZZZZZZZZ",
"ZZZZZZZZZZZZZZZZZZZZZZZZZZZZZZZZZZZZZZZZZZZZZZZZZZZZZZZZZZZZZZZZ",
"ZZZZZZZZZZZZZZZZZZZZZZZZZZZZZZZZZZZZZZZZZZZZZZZZZZZZZZZZZZZZZZZZ",
"ZZZZZZZZZZZZZZZZZZZZZZZZZZZZZZZZZZZZZZZZZZZZZZZZZZZZZZZZZZZZZZZZ",
"ZZZZZZZZZZZZZZZZZZZZZZZZZZZZZZZZZZZZZZZZZZZZZZZZZZZZZZZZZZZZZZZZ",
"ZZZZZZZZZZZZZZZZZZZZZZZZZZZZZZZZZZZZZZZZZZZZZZZZZZZZZZZZZZZZZZZZ",
"ZZZZZZZZZZZZZZZZZZZZZZZZZZZZZZZZZZZZZZZZZZZZZZZZZZZZZZZZZZZZZZZZ",
"ZZZZZZZZZZZZZZZZZZZZZZZZZZZZZZZZZZZZZZZZZZZZZZZZZZZZZZZZZZZZZZZZ",
"ZZZZZp33jZZZZZZZZZZZZZZZZZZZZZZZZZZZZZZZZZZZZZZZZZZZZZZZZZZZZZZZ",
"ZZZ%%%oo%%%:3ZZZZZZZZZZZZZZZZZZnvvBZZZZZZZZZZZZZZZZZZZZZZZZZZZZZ",
"ZZqoo%o%%ooooo2ZZZZZZZZZZZZZZZvllvlvZZZZZZZZZZZZZZZZZZZZZZZZZZZZ",
"ZZf%o%ooooooooo2ZZZZZZZZZZZZZBlvllllBZZZZZZZZZZZZZZZZZZZZZZZZZZZ",
"ZZuoooo23%ooooooqZZZZZZZZZZZZvllllllvZZZZZZZZZZZZZZZZZZZZZZZZZZZ",
"ZZ:o%%%ZZZZ2oooo2ZZZZZZZZZZZZvllvlllvZZZZZZZZZZZZZZZZZZZZZZZZZZZ",
"ZZqooo%ZZZZZ%%oo%ZZZZZZZZZZZZvllllvlvZZZZZZZZZZZZZZZZZZZZZZZZZZZ",
"ZZqo%o:ZZZZZ2ooo2ZZZZZZZZZZZZnllvlllvZZZZZZZZZZZZZZZZZZZZZZZZZZZ",
"ZZ2o%o%ZZZZZ2ooo2ZZZZZqqqqZZZVllllllBZZZZZZZZZZZZZZq2%%%%%qZZZZZ",
"ZZ:o%%:ZZZZZooooqZZZ3%o%o%%2ZZBllllvZZZZZZZZZZZZZq:oo%ooooo:ZZZZ",
"ZZ3o%o2ZZZZ2ooo2ZZq%oo%%%%oo:ZZBnBBZZZZZZZZq:qZZ3ooooo%ooooo2ZZZ",
"ZZ3%oo%3q3%ooo%ZZq%oooooooooo:ZZZZZZq::qZZZ%%%Z2ooooooooooo%oqZZ",
"ZZ%%oo%ooooo%qZZZ%oo%%3qq:%ooo3Zq2ZZ%ooouZZoo%3oooo%2qf3:o%%o:ZZ",
"ZZ%o%oo%o%oo%3ZZ:%oo2ZZZZZZ%oo%C:oZZoo%oqZZooooooo2ZZZZZZq%%%2ZZ",
"ZZ3ooooo%%ooooo%%oo:ZZZZZZZZ%%of:oZ:o%oo2ZZ%ooooo3ZZZZZZZZZZZZZZ",
"ZZ%oo3ZZZ3:ooooooo%qZZZZZZZZ3oo2ooZfo%:o2ZZ%o%oo:ZZZZZZZZZZZZZZZ",
"ZZ%%ouZZZZZ3oo%o%o%ZZZZZZZZZuoooo%Zqoquo%ZZ%oo%o3ZZZZZZZZZZZZZZZ",
"ZZ%%o2ZZZZZZ2oo%%o%ZZZZZZZZZZoooo%Z:o3fo%ZZ%o%o%ZZZZZZZqq322:%qZ",
"ZZ%%%:ZZZZZZ3oo%oo%ZZZZZZZZZq%o%%%Z3o:fooqZ:o%%%ZZZZ2oooooooo%ZZ",
"ZZ%o%uZZZZZZ3o%%%ooqZZZZZZZZ2ooq%:Z3 oZ%o2Z%oo%ouZZZ3%22%:ooo:ZZ",
"ZZ%%%fZZZZZZ:ooo%oo%ZZZZZZZqoo%f%:Z:%:Z: %Z2oooo3ZZZZZZZZp%oo3ZZ",
"ZZ%%oZZZZZZqooo%%ooo:ZZZZZq%oo:Z%%Z:o3Z: oC%o%%o:ZZZZZZZZ2oo%ZZZ",
"ZZ%ooZZZZZ3%oo%%ooooo%333:%oo%ZZ::Z3oqZ3oof:ooooo3ZZZZZZ3ooo:ZZZ",
"Z2oo%ZZZq2%oo%oooo::oooo%oo%%qZZZZZ3o3Zuoo%%o2%ooo3qZZq%ooo%ZZZZ",
"Zqooo22ooooo%%%oo:ZZ3%oooo%%uZZZZZZ%o:ZZ%%ooo3Z:oo%%%%ooooo3ZZZZ",
"Zpooooo%oo%oooo%3ZZZZZqqq3ZZZZZZZZZ23qZZ%oooo3ZZ:%ooooooo%qZZZZZ",
"Z2oooo%%oooo%:3ZZZZZZZZZZZZZZZZZZZZZZZZZjffffZZZZZq::%::qZZZZZZZ",
"Z3%%%%%%:233ZZZZZZZZZZZZZZZZZZZZZZZZZZZZZZZZZZZZZZZZZZZZZZZZZZZZ",
"ZZZZZZZZZZZZZZZZZZZZZZZZZZZZZZZZZZZZZZZZZZZZZZZZZZZZZZZZZZZZZZZZ",
"ZZZZZZZZZZZZZZZZZZZZZZZZZZZZZZZZZZZZZZZZZZZZZZZZZZZZZZZZZZZZZZZZ",
"ZZZZZZZZZZZZZZZZZZZZZZZZZZZZZZZZZZZZZZZZZZZZZZZZZZZZZZZZZZZZZZZZ",
"ZZZZZZZZZZZZZZZZZZZZZZZZZZZZZZZZZZZZZZZZZZZZZZZZZZZZZZZZZZZZZZZZ",
"ZZZZZZZZZZZZZZZZZZZZZZZZZZZZZZZZZZZZZZZZZZZZZZZZZZZZZZZZZZZZZZZZ",
"ZZZZZZZZZZZZZZZZZZZZZZZZZZZZZZZZZZZZZZZZZZZZZZZZZZZZZZZZZZZZZZZZ",
"ZZZZZZZZZZZZZZZZZZZZZZZZZZZZZZZZZZZZZZZZZZZZZZZZZZZZZZZZZZZZZZZZ",
"ZZZZZZZZZZZZZZZZZZZZZZZZZZZZZZZZZZZZZZZZZZZZZZZZZZZZZZZZZZZZZZZZ",
"ZZZZZZZZZZZZZZZZZZZZZZZZZZZZZZZZZZZZZZZZZZZZZZZZZZZZZZZZZZZZZZZZ",
"ZZZZZZZZZZZZZZZZZZZZZZZZZZZZZZZZZZZZZZZZZZZZZZZZZZZZZZZZZZZZZZZZ"
};
