/* XPM */
static char *CADENA_DIAL[] = {
/* columns rows colors chars-per-pixel */
"64 48 95 2",
"   c #002C73",
".  c #012C73",
"X  c #002D73",
"o  c #012D73",
"O  c #002C74",
"+  c #012C74",
"@  c #002D74",
"#  c #012D74",
"$  c #022D74",
"%  c #022E74",
"&  c #032E74",
"*  c #032E75",
"=  c #042E74",
"-  c #042F74",
";  c #042E75",
":  c #042F75",
">  c #052F75",
",  c #053075",
"<  c #063175",
"1  c #063076",
"2  c #073176",
"3  c #083175",
"4  c #093175",
"5  c #083176",
"6  c #083276",
"7  c #093276",
"8  c #083277",
"9  c #093277",
"0  c #093377",
"q  c #0A3376",
"w  c #0B3376",
"e  c #0A3377",
"r  c #0B3377",
"t  c #0B3477",
"y  c #0C3477",
"u  c #093378",
"i  c #0B3478",
"p  c #0C3478",
"a  c #0C3578",
"s  c #0D3578",
"d  c #0E3579",
"f  c #0E3678",
"g  c #0E3679",
"h  c #0F3679",
"j  c #0F3779",
"k  c #103779",
"l  c #10377A",
"z  c #10387A",
"x  c #11387A",
"c  c #12387A",
"v  c #12397A",
"b  c #143B7B",
"n  c #183D7C",
"m  c #1B3F7D",
"M  c #1E417F",
"N  c #1E427F",
"B  c #20437F",
"V  c #5CA426",
"C  c #5DA426",
"Z  c #5CA526",
"A  c #5DA526",
"S  c #5CA427",
"D  c #5DA427",
"F  c #5CA527",
"G  c #5DA527",
"H  c #5DA528",
"J  c #5EA528",
"K  c #5EA529",
"L  c #5FA529",
"P  c #5FA629",
"I  c #5FA52A",
"U  c #5FA62A",
"Y  c #5FA62B",
"T  c #60A62B",
"R  c #60A72B",
"E  c #60A52C",
"W  c #60A62C",
"Q  c #61A62C",
"!  c #61A62D",
"~  c #61A72D",
"^  c #62A62D",
"/  c #62A72D",
"(  c #61A72E",
")  c #62A72E",
"_  c #63A72F",
"`  c #64A830",
"'  c #64A831",
"]  c #1D4180",
"[  c #1F4380",
"{  c #204380",
"}  c #204481",
"|  c #244682",
" . c #264782",
".. c #274883",
"X. c None",
/* pixels */
"X.X.X.X.X.X.X.X.X.X.X.X.X.X.X.X.X.X.X.X.X.X.X.X.X.X.X.X.X.X.X.X.X.X.X.X.X.X.X.X.X.X.X.X.X.X.X.X.X.X.X.X.X.X.X.X.X.X.X.X.X.X.X.X.",
"X.X.X.X.X.X.X.X.X.X.X.X.X.X.X.X.X.X.X.X.X.X.X.X.X.X.X.X.X.X.X.X.X.X.X.X.X.X.X.X.X.X.X.X.X.X.X.X.X.X.X.X.X.X.X.X.X.X.X.X.X.X.X.X.",
"X.X.X.X.X.X.X.X.X.X.X.X.X.X.X.X.X.X.X.X.X.X.X.X.X.X.X.X.X.X.X.X.X.X.X.X.X.X.X.X.X.X.X.X.X.X.X.X.X.X.X.X.X.X.X.X.X.X.X.X.X.X.X.X.",
"X.X.X.X.X.X.X.X.X.X.X.X.X.X.X.X.X.X.X.X.X.X.X.X.X.X.X.X.X.X.X.X.X.X.X.X.X.X.X.X.X.X.X.X.X.X.X.X.X.X.X.X.X.X.X.X.X.X.X.X.X.X.X.X.",
"X.X.X.X.X.X.X.X.X.X.X.X.X.X.X.X.X.X.X.X.X.X.X.X.X.X.X.X.X.X.X.X.X.X.X.X.X.X.X.X.X.X.X.X.X.X.X.X.X.X.X.X.X.X.X.X.X.X.X.X.X.X.X.X.",
"X.X.X.X.X.X.X.X.X.X.X.X.X.X.X.X.X.X.X.X.X.X.X.X.X.X.X.X.X.X.X.X.X.X.X.X.X.X.X.X.X.X.X.X.X.X.X.X.X.X.X.X.X.X.X.X.X.X.X.X.X.X.X.X.",
"X.X.X.X.X.X.X.X.X.X.X.X.X.X.X.X.X.X.X.X.X.X.X.X.X.X.X.X.X.X.X.X.X.X.X.X.X.X.X.X.X.X.X.X.X.X.X.X.X.X.X.X.X.X.X.X.X.X.X.X.X.X.X.X.",
"X.X.X.X.X.X.X.X.X.X.X.X.X.X.X.X.X.X.X.X.X.X.X.X.X.X.X.X.X.X.X.X.X.X.X.X.X.X.X.X.X.X.X.X.X.X.X.X.X.X.X.X.X.X.X.X.X.X.X.X.X.X.X.X.",
"X.X.X.X.X.X.X.X.X.X.X.X.X.X.X.X.X.X.X.X.X.X.X.X.X.X.X.X.X.X.X.X.X.X.X.X.X.X.X.X.X.X.X.X.X.X.X.X.X.X.X.X.X.X.X.X.X.X.X.X.X.X.X.X.",
"X.X.X.X.X.X.X.X.X.X.X.X.X.4 4 4 4 4 4 X.X.X.` K J R J J / X.X.X.X.X.X.X.X.X.X.X.X.X.X.X.X.X.X.X.X.X.X.X.X.X.E E E E E E X.X.X.X.",
"X.X.X.X.X.X.X.X.X.X.X.X.d O         O X.X.X./ G G G G G K X.X.X.X.X.X.X.X.X.X.X.X.X.X.X.X.N X.X.X.X.X.X.X.E G G G G G G X.X.X.X.",
"X.X.X.X.X.X.X.X.X.X.X.X.d O O O     2 X.X.X./ G G G G G K X.X.X.X.X.X.X...X.X.X.X.X.] X.X...B X.X. .X.X.X.E G G G G G G X.X.X.X.",
"X.X.X.X.X.X.X.X.X.X.X.X.d O O O     O X.X.X./ G G G G G K X.X.X.X.X.X.} } X.X.X.X.X.N X.X.X.M X.X.} { X.X.E K G G G G G X.X.X.X.",
"X.X.X.X.X.X.X.X.X.X.X.X.d O O O     2 X.X.X./ K K K K G J X.X.X.X.X.X.X.X.X.X.X.X.X.X.X.X.X.X.X.X.X.X.X.X.E G G G G G K X.X.X.X.",
"X.X.X.X.X.X.X.X.X.X.X.X.d O O O     , X.X.X.X.X.X.X.X.X.X.X.X.X.X.X.X.X.X.X.X.X.X.X.X.X.X.X.X.X.X.X.X.X.X.E G G G G G G X.X.X.X.",
"X.X.X.X.X.X.X.X.X.X.X.X.d O O O     , X.X.X.X.X.X.X.X.X.X.X.X.X.X.X.X.X.X.X.X.X.X.X.X.X.X.X.X.X.X.X.X.X.X.E G G G G G K X.X.X.X.",
"X.X.X.X.X.v d d v v X.X.d O O O O O ; X.X.X.X.X.X.X.X.X.X.X.X.X.X.X.X.X.X.X./ T E / E E X.X.X.X.X.X.X.X.X._ G G G G G G X.X.X.X.",
"X.X.X.y ; O     O O ; d v O O O O O O X.X.X.X.T J J J / / X.X.X.X.X.X.T K G G G G G G G G K E X.X.X.X.X.X.T G G G G G G X.X.X.X.",
"X.X.4           O O O O O O O O O O ; X.X.X./ G V V G V K X.X.X.X.X.G G G G G G G G G G G G V G X.X.X.X.X._ G G G G G G X.X.X.X.",
"X.d   O         O O O O O O O O O O ; X.X.X./ G V G V G K X.X.X.X.T G G G G G G G G G G G G G V K X.X.X.X.E G G G G G G X.X.X.X.",
"X.2 O O         O O O O O O O O     O X.X.X./ G G G G G J X.X.X.X.X.K G G G G G G G G G G G G G G T X.X.X.E G G G G G G X.X.X.X.",
"v O O O 2 ;     O 2 O O O O O O     2 X.X.X./ G G G G G J X.X.X.X.X.X.T G G K K K K G G G G G G G G X.X.X._ G G G G G G X.X.X.X.",
"d   O 4 X.X.2   4 X.X.2     O O     2 X.X.X./ G G G G G J X.X.X.X.X.X.X.K T X.X.X.X.X.K G G G G G G X.X.X.) G G G G G G X.X.X.X.",
"2   O 4 X.X.X.  4 X.X.v ;   O       O X.X.X./ G G G G G J X.X.X.X.X.X.X.X.X.X.X.X.X.X.X.G G G G G G E X.X.E G G G G G T X.X.X.X.",
"2     O d X.X.k ; d X.X.d           O X.X.X./ G G G G G J X.X.X.X.X.X.X.X.X.X.X.X.X.X.X.K G G G G G _ X.X._ G G G G G G X.X.X.X.",
"u   O O O v X.X.y ; X.X.X.d         2 X.X.X./ G G G G G J X.X.X.X.X.X.X.X./ / E K T T T G G G G G G _ X.X.T G G G G G G X.X.X.X.",
"u   O O   ; X.X.X.4 2 X.X.X.4 O     O X.X.X.R G V G V V J X.X.X.X.X.X.K G G G G G G G G G G G G G G _ X.X._ G G G G G G X.X.X.X.",
"u   O O     2 X.X.X.O 2 X.X.X.O     ; X.X.X./ G G V V V K X.X.X.X.E K G G G G G G G G G G G G G G G _ X.X.T G G G G G G X.X.X.X.",
"u   O O O O d X.X.v O d X.X.k O     O X.X.X./ G V V V V G X.X.X.X.G G G G G G G G G G G G G G G G G _ X.X._ G G G G G G X.X.X.X.",
"u   O O O 4 X.X.X.; 4 X.X.X.O   O   2 X.X.X./ G V G V V K X.X.X.T G G G G G G K T T T K G G G G G G _ X.X.T G G G G G G X.X.X.X.",
"2 O O O 2 X.X.X.2 2 X.X.X.2   O O O ; X.X.X./ G G G V V K X.X.X.K G G G G G E X.X.X.X.X.G G G G G G _ X.X._ G G G G G K X.X.X.X.",
"2 O O ; X.X.X.4 ; X.X.X.4 O     O   O X.X.X./ G V V G V K X.X.X.K G G G G G X.X.X.X.X.X.G G G G G G _ X.X.E G G G G G G X.X.X.X.",
"y     d X.X.4   i X.X.4 O O O O     O X.X.X./ V G G G G K X.X.X.G G G G G G / X.X.X.X.E G G G G G G / X.X.X.G G G G V G E X.X.X.",
"v     ; k d O O ; k i O O O O O     2 X.X.X./ V G G G G K X.X.X.K G G G G G G T / E T G G G G G G G / X.X.X.K G G G G V G K K / ",
"X.O         O O O O O O O O O O     , X.X.X./ V V V G G K X.X.X.R G G G G G G G G G G G G G G G G G ` X.X.X.K G G G G V G G G K ",
"X.4   O O O O O O O O O O O O O     , X.X.X./ G V G G G K X.X.X.X.G G G G G G G G G G G G G G G G K E X.X.X.E G G G V G G G G R ",
"X.X.2 O O O O O O O O O ; O O O     O X.X.X./ G G V V V K X.X.X.X./ G G G G G G G G G G G G G G G G _ X.X.X.X.T G G G G G G G K ",
"X.X.X.4 O O O O O O O 4 n O O O     ; X.X.X./ K V V V V K X.X.X.X.X./ K G G G G G K K ` K G G G G G _ X.X.X.X.X.K K G G G G G K ",
"X.X.X.X.b i u u 4 d b X.X.4 2 4 2 4 t X.X.X.` K E K K K / X.X.X.X.X.X.X./ T K K K / X.X.E T K T K T X.X.X.X.X.X.X.X.` / J E K / ",
"X.X.X.X.X.X.X.X.X.X.X.X.X.X.X.X.X.X.X.X.X.X.X.X.X.X.X.X.X.X.X.X.X.X.X.X.X.X.X.X.X.X.X.X.X.X.X.X.X.X.X.X.X.X.X.X.X.X.X.X.X.X.X.X.",
"X.X.X.X.X.X.X.X.X.X.X.X.X.X.X.X.X.X.X.X.X.X.X.X.X.X.X.X.X.X.X.X.X.X.X.X.X.X.X.X.X.X.X.X.X.X.X.X.X.X.X.X.X.X.X.X.X.X.X.X.X.X.X.X.",
"X.X.X.X.X.X.X.X.X.X.X.X.X.X.X.X.X.X.X.X.X.X.X.X.X.X.X.X.X.X.X.X.X.X.X.X.X.X.X.X.X.X.X.X.X.X.X.X.X.X.X.X.X.X.X.X.X.X.X.X.X.X.X.X.",
"X.X.X.X.X.X.X.X.X.X.X.X.X.X.X.X.X.X.X.X.X.X.X.X.X.X.X.X.X.X.X.X.X.X.X.X.X.X.X.X.X.X.X.X.X.X.X.X.X.X.X.X.X.X.X.X.X.X.X.X.X.X.X.X.",
"X.X.X.X.X.X.X.X.X.X.X.X.X.X.X.X.X.X.X.X.X.X.X.X.X.X.X.X.X.X.X.X.X.X.X.X.X.X.X.X.X.X.X.X.X.X.X.X.X.X.X.X.X.X.X.X.X.X.X.X.X.X.X.X.",
"X.X.X.X.X.X.X.X.X.X.X.X.X.X.X.X.X.X.X.X.X.X.X.X.X.X.X.X.X.X.X.X.X.X.X.X.X.X.X.X.X.X.X.X.X.X.X.X.X.X.X.X.X.X.X.X.X.X.X.X.X.X.X.X.",
"X.X.X.X.X.X.X.X.X.X.X.X.X.X.X.X.X.X.X.X.X.X.X.X.X.X.X.X.X.X.X.X.X.X.X.X.X.X.X.X.X.X.X.X.X.X.X.X.X.X.X.X.X.X.X.X.X.X.X.X.X.X.X.X.",
"X.X.X.X.X.X.X.X.X.X.X.X.X.X.X.X.X.X.X.X.X.X.X.X.X.X.X.X.X.X.X.X.X.X.X.X.X.X.X.X.X.X.X.X.X.X.X.X.X.X.X.X.X.X.X.X.X.X.X.X.X.X.X.X.",
"X.X.X.X.X.X.X.X.X.X.X.X.X.X.X.X.X.X.X.X.X.X.X.X.X.X.X.X.X.X.X.X.X.X.X.X.X.X.X.X.X.X.X.X.X.X.X.X.X.X.X.X.X.X.X.X.X.X.X.X.X.X.X.X."
};
