/* XPM */
static char *Canal_Catala_Barcelona[] = {
/* columns rows colors chars-per-pixel */
"64 48 40 1",
"  c #AAAAAF",
". c #ACACB1",
"X c #B1B1B6",
"o c #B5B5B9",
"O c #BABABE",
"+ c #BDBDC1",
"@ c #9AD5F2",
"# c #A0D7F2",
"$ c #A3D8F2",
"% c #ACDCF4",
"& c #B1DEF4",
"* c #B6E0F5",
"= c #BBE2F5",
"- c #C2C2C5",
"; c #C6C6C9",
": c #CACACD",
"> c #CECED1",
", c #D3D3D6",
"< c #D6D6D8",
"1 c #DBDBDD",
"2 c #DFDFE1",
"3 c #C3E6F7",
"4 c #C8E7F7",
"5 c #CBE9F7",
"6 c #CDEAF8",
"7 c #D4EDF9",
"8 c #D9EEF9",
"9 c #DEF1FA",
"0 c #E4E4E5",
"q c #E7E7E8",
"w c #EBEBEC",
"e c #EFEFF0",
"r c #E4F3FB",
"t c #EBF6FC",
"y c #EFF8FC",
"u c #F3F3F4",
"i c #F5F7F9",
"p c #F4FAFD",
"a c #FEFEFE",
"s c None",
/* pixels */
"ssssssssssssssssssssssssssssssssssssssssssssssssssssssssssssssss",
"ssssssssssssssssssssssssssssssssssssssssssssssssssssssssssssssss",
"ssssssssssssssssssssssssssssssssssssssssssssssssssssssssssssssss",
"ssssssssssssssssssssssssssssssssssssssssssssssssssssssssssssssss",
"ssssssssssssssssssssssssssssssssssssssssssssssssssssssssssssssss",
"ssssssssssssssssssssssssssssssssssssssssssssssssssssssssssssssss",
"ssssssssssssssssssssssssssssssssssssssssssssssssssssssssssssssss",
"ssssssssssssssssssssssssssssssssssssssssssssssssssssssssssssssss",
"saaaaaaaaaaaaaaaaaaaaaaaaaaaaaaaaaaaaaaaaaaaaaaaaaaaaaaaaaaaaaas",
"saaaaaaaaaaaaaaaaaaaaaaaaaaaaaaaaaaaaaaaaaaaaaaaaaaaaaaaaaaaaaas",
"saaaaaaaaaaaaaaaaaaaaaaaaaaaaaaaaaaaaaaaaaaaaaaaaaaaaaaaaaaaaaas",
"saaaaaaaaaaaaiaaaaaaaauaaaaaaaaaaaaaaaaaaaaaaaaaaaaaaaaaaaaaaaas",
"saaaaaaaaaaauuiaiuaaaaaaaaaaaaaappppppaaaaaaaaaaaaaaaaaaaaaaaaas",
"saaaaaaaew1<>:<e0::,<0eaaaaaaaap3&%%*9aaaaaaaaaaaaaaaaaaaaaaaaas",
"saaaaau1-oX   +w,X  XXO,eiaaaaar%@@@@4aaaaaaaaaaaaaaaaaaaaaaaaas",
"saaaae:X.  .. Ow,X     X;quaaaar%@@@@4paaaaaaaaaaaaaaaaaaaaaaaas",
"saaaw:.    X  Ow<.  ..  .-qaaaa9%@@@@4paaaaaaaaaaaaaaaaapaaaaaas",
"saaa,...   ..X-e<o. .  ...:uaat6#@@@@&rtrtyyyyttpaaaaaatrrrtpaas",
"saaqO .  X+;<1que2,:-X. . o0uy=#@@@@@@###$$$##$%7aaaaa9&###%9aas",
"saa1X...o,euaaaaaaaau1O....>ut%@@@@@@@@@@@$#@@@@=paaaa3@@@@%raas",
"saa:....;uaaaaaaaaaaau,X...+wt%@@@@@@@@@@@3=@@@@%taaay%@@@@=paas",
"sau-...X<uaaaaaaaaiaaaqO ..X1p=%@@@@@$&&%&87@@@@#8aaa9#@@@#7aaas",
"sau+ . X2aiaaaaaaaaaaau-.  .,ap7%@@@@3titypy&@@@@3ppp3@@@@%raaas",
"sau-   o0aaaaaaaaaaaaau;  . ,par%@@@@6paaaap4@@@@%tat*@@@@3paaas",
"sau-  .oqaaaaaaaaaaaaau: ...>aat%@@@@4aaaaaa9$@@@#7ar%@@@#7aaaas",
"sau- . X0aaaaaaaaaaaaae-   .,aar%@@@@6paaaaay*@@@@3p4@@@@&yaaaas",
"sau- . X<auaaaaaaaaaaawO   X<aat%@@@@4aaaaaaa3@@@@&9=@@@@4paaaas",
"sai:. ..>uaaaaaaaaaiaa1X   oqaat%@@@@4aaaapaa9$@@@#3$@@@$raaaaas",
"saa,... Oquaaaaaaaaaaq-. . -uaat%@@@#4aaaaaaay*@@@@#@@@@*yaaaaas",
"saaqo.. .O,qweuaueeq<-X ..X<aaat%@@@@3paaaaaaa6@@@@@@@@@4aaaaaas",
"saau;.....XXoO>u2-oX.. ...-waaat%@@@@&rpptpaapr%@@@@@@@%raaaaaas",
"saaa0O....    Ow<.  . ...o1aaaai&@@@@@%*=&7paap=@@@@@@@=paaaaaas",
"saaaa2O...... +w,....   o,uaaaaa4@@@@@@@@@3paaa7#@@@@@@7aaaaaaas",
"saaiau0;o. .  +q,.   .X-1uaaaaaat&@@@@@@@@3ppapr%@@@@@%taaaaaaas",
"saaaaaauq,;+oX;w1ooO-,2uaaaaaaaaar3%#@@@#%7aaaap4%%%%&6paaaaaaas",
"saaaaaaaaauuqqqauqquuaaaaaaaaaaaaaayr8889rpaaaaapyyyyppaaaaaaaas",
"saaaaaaaaaaaaaaaaaaaaaaaaaaaaaaaaaaaaaaaaaaaaaaaaaaaaaaaaaaaaaas",
"saaaaaaaaaaaaaaaaaaaaaaaaaaaaaaaaaaaaaaaaaaaaaaaaaaaaaaaaaaaaaas",
"saaaaaaaaaaaaaaaaaaaaaaaaaaaaaaaaaaaaaaaaaaaaaaaaaaaaaaaaaaaaaas",
"saaaaaaaaaaaaaaaaaaaaaaaaaaaaaaaaaaaaaaaaaaaaaaaaaaaaaaaaaaaaaas",
"ssssssssssssssssssssssssssssssssssssssssssssssssssssssssssssssss",
"ssssssssssssssssssssssssssssssssssssssssssssssssssssssssssssssss",
"ssssssssssssssssssssssssssssssssssssssssssssssssssssssssssssssss",
"ssssssssssssssssssssssssssssssssssssssssssssssssssssssssssssssss",
"ssssssssssssssssssssssssssssssssssssssssssssssssssssssssssssssss",
"ssssssssssssssssssssssssssssssssssssssssssssssssssssssssssssssss",
"ssssssssssssssssssssssssssssssssssssssssssssssssssssssssssssssss",
"ssssssssssssssssssssssssssssssssssssssssssssssssssssssssssssssss"
};
