/* XPM */
static char *Canal_Catala_Barcelona[] = {
/* columns rows colors chars-per-pixel */
"64 48 38 1",
"  c #ABABB0",
". c #ACACB1",
"X c #B1B1B6",
"o c #B5B5BA",
"O c #BABABF",
"+ c #BEBEC2",
"@ c #9AD5F2",
"# c #A1D8F3",
"$ c #A5D9F3",
"% c #ABDCF4",
"& c #B2DFF5",
"* c #B8E1F5",
"= c #BCE3F6",
"- c #C2C2C6",
"; c #C7C7CA",
": c #CCCCCF",
"> c #CFCFD2",
", c #D2D2D5",
"< c #D7D7DA",
"1 c #DBDBDD",
"2 c #DFDFE1",
"3 c #C3E6F7",
"4 c #CAE9F8",
"5 c #CEEAF8",
"6 c #D4EDF9",
"7 c #D9EFFA",
"8 c #DEF1FA",
"9 c #E3E3E5",
"0 c #E8E8E9",
"q c #EBEBEC",
"w c #EFEFF1",
"e c #E4F3FB",
"r c #EBF6FC",
"t c #EFF8FC",
"y c #F4F4F4",
"u c #F5FAFD",
"i c #F8F8F8",
"p c #FFFFFF",
/* pixels */
"pppppppppppppppppppppppppppppppppppppppppppppppppppppppppppppppp",
"pppppppppppppppppppppppppppppppppppppppppppppppppppppppppppppppp",
"pppppppppppppppppppppppppppppppppppppppppppppppppppppppppppppppp",
"pppppppppppppppppppppppppppppppppppppppppppppppppppppppppppppppp",
"pppppppppppppppppppppppppppppppppppppppppppppppppppppppppppppppp",
"pppppppppppppppppppppppppppppppppppppppppppppppppppppppppppppppp",
"pppppppppppppppppppppppppppppppppppppppppppppppppppppppppppppppp",
"pppppppppppppppppppppppppppppppppppppppppppppppppppppppppppppppp",
"pppppppppppppppppppppppppppppppppppppppppppppppppppppppppppppppp",
"pppppppppppppppppppppppppppppppppppppppppppppppppppppppppppppppp",
"pppppppppppppppppppppppppppppppppppppppppppppppppppppppppppppppp",
"pppppppppppppppppppppppppppppppppppppppppppppppppppppppppppppppp",
"ppppppppppiiyyiiyyyiipppppppppppteeerupppppppppppppppppppppppppp",
"pppppppy9<;-OO1y:O+->1qipppppppt&@@@#4pppppppppppppppppppppppppp",
"pppppy1+X.   .,w+   ..o>qipppppe%@@@@=uppppppppppppppppppppppppp",
"ppppy:X   ....,y+  ..  .+9pppppe%@@@@=uppppppppppppppppppppppppp",
"pppi>. .......,y+ ..... .+qppppe$@@@@*uppppppppppppppppppppppppp",
"ppp1X.... ...X<y;...  ....:ipue4@@@@@%7eeeeeeeeetppppppte888eupp",
"ppy-.....+:<90ypy91,-X....o0ir&@@@@@@@@@@@@@@@@@&uppppu=@@@@%rpp",
"pp0o....;qipppppppppy<o....,ir%@@@@@@@@@@@$%@@@@#eppppr$@@@@*upp",
"pp1....o0ppppppppppppi:....+wr%@@@@@@@@@@@&4@@@@@5pppp6@@@@@6ppp",
"pp,....-yppppppppppppp2X...X9u=%@@@@@#&&&&5e%@@@@*uppu=@@@@%rppp",
"pp:....:ipppppppppppppqo ...<pu8$@@@@=tuuuuu3@@@@$eppe$@@@@=uppp",
"pp:. ..,ipppppppppppppyO ...<ppr%@@@@3pppppp8#@@@@6uu7@@@@@6pppp",
"pp:....,ppppppppppppppyO ...<ppr%@@@@3upppppu&@@@@=uu3@@@@%rpppp",
"pp>....:ipppppppppppppqo ...<ppr%@@@@3ppppppp4@@@@%rt%@@@@3upppp",
"pp,... -yppppppppppppp9X   .2ppr%@@@@3ppppppp8#@@@@67#@@@#eppppp",
"pp1... +wppppppppppppi,... oqppr%@@@@=uppppppu&@@@@*=@@@@%uppppp",
"pp9X...X<ippppppppppp0O....;ippr%@@@@=uppppppp4@@@@##@@@@4pppppp",
"ppy+... o,0yiippiiyq1+.....1pppr%@@@@*upppppppe$@@@@@@@@$epppppp",
"ppi,......oO+;9i<-Oo.. ...+ypppt%@@@@%epppppppu*@@@@@@@@*upppppp",
"pppq+.....   .,y+ .  ....o1ppppu&@@@@@%33*5uppp6@@@@@@@@6ppppppp",
"pppi9O........,y+ ......o,ippppp3@@@@@@@@@&tpppr%@@@@@@%rppppppp",
"ppppi9-X. ....,w+ .. ..O1yppppppe%@@@@@@@@&upppu=@@@@@@=uppppppp",
"ppppppy9:OX...,y+..Xo-<qipppppppp7&@@@@@@@*upppp7$@@@@$7pppppppp",
"ppppppppiyq2<<qi9<2qyippppppppppppue53=336rpppppueeeeeeupppppppp",
"pppppppppppppppppppppppppppppppppppppppppppppppppppppppppppppppp",
"pppppppppppppppppppppppppppppppppppppppppppppppppppppppppppppppp",
"pppppppppppppppppppppppppppppppppppppppppppppppppppppppppppppppp",
"pppppppppppppppppppppppppppppppppppppppppppppppppppppppppppppppp",
"pppppppppppppppppppppppppppppppppppppppppppppppppppppppppppppppp",
"pppppppppppppppppppppppppppppppppppppppppppppppppppppppppppppppp",
"pppppppppppppppppppppppppppppppppppppppppppppppppppppppppppppppp",
"pppppppppppppppppppppppppppppppppppppppppppppppppppppppppppppppp",
"pppppppppppppppppppppppppppppppppppppppppppppppppppppppppppppppp",
"pppppppppppppppppppppppppppppppppppppppppppppppppppppppppppppppp",
"pppppppppppppppppppppppppppppppppppppppppppppppppppppppppppppppp",
"pppppppppppppppppppppppppppppppppppppppppppppppppppppppppppppppp"
};
