/* XPM */
static char *Canal_Catala_Barcelona[] = {
/* columns rows colors chars-per-pixel */
"64 48 42 1",
"f c None",
"  c #AAAAAF",
". c #ABABB0",
"X c #B1B1B5",
"o c #B5B5BA",
"O c #B9B9BD",
"+ c #BDBDC1",
"@ c #9AD5F2",
"# c #A0D7F3",
"$ c #A3D8F3",
"% c #AADBF3",
"& c #B1DEF4",
"* c #B5E0F5",
"= c #BAE2F5",
"- c #C2C2C6",
"; c #C5C5C9",
": c #C9C9CC",
"> c #CDCDD0",
", c #D2D2D5",
"< c #D6D6D8",
"1 c #D9D9DC",
"2 c #DEDEE0",
"3 c #DFE0E2",
"4 c #C3E6F6",
"5 c #C7E8F7",
"6 c #C8E8F7",
"7 c #C6E7F8",
"8 c #CBE9F8",
"9 c #D3ECF8",
"0 c #D9EFFA",
"q c #DCF0FA",
"w c #E2E2E3",
"e c #E6E6E8",
"r c #EAEBEC",
"t c #EFEFF0",
"y c #E5F3FB",
"u c #EAF6FC",
"i c #EEF8FC",
"p c #F3F3F4",
"a c #F7F7F8",
"s c #F3F9FC",
"d c #FEFEFE",
/* pixels */
"fddddddddddddddddddddddddddddddddddddddddddddddddddddddddddddddd",
"fddddddddddddddddddddddddddddddddddddddddddddddddddddddddddddddd",
"fddddddddddddddddddddddddddddddddddddddddddddddddddddddddddddddd",
"fddddddddddddddddddddddddddddddddddddddddddddddddddddddddddddddd",
"fddddddddddddddddddddddddddddddddddddddddddddddddddddddddddddddd",
"fddddddddddddddddddddddddddddddddddddddddddddddddddddddddddddddd",
"fddddddddddddddddddddddddddddddddddddddddddddddddddddddddddddddd",
"fddddddddddddddddddddddddddddddddddddddddddddddddddddddddddddddd",
"fddddddddddddddddddddddddddddddddddddddddddddddddddddddddddddddd",
"fdddddddddddaappaappaaddddddddddduyyusdddddddddddddddddddddddddd",
"fdddddddddpr1>;-wp>-:,wpadddddddy&$$$=sddddddddddddddddddddddddd",
"fdddddddae:O....,r+...o-1addddddq#@@@%uddddddddddddddddddddddddd",
"fdddddda2+. ....,rO.....o<pddddd0$@@@%uddddddddddddddddddddddddd",
"fdddddde+.......,rO......o1adddd0#@@@%uddddddddddddddddddddddddd",
"fdddddp:........,rO.......+rdddd9#@@@$uddddddddddddddddddddddddd",
"fddddd2X........,rO........,adds8@@@@$ydddddddddddddddddssdddddd",
"fdddda:......Xo+2p:oX......+tds8%@@@@@*447777778udddddy6444qdddd",
"fddddrO....o:1etadprw,+....Xway%@@@@@@@@@@@@@@@@8ddddd4@@@@=sddd",
"fddddwX...o1pddddddddaw+....,ay$@@@@@@@@@@#$@@@@=dddds&@@@@7dddd",
"fdddd<....;pdddddddddda<X...-py$@@@@@@@@@@%=@@@@&sdddy$@@@#qdddd",
"fdddd>....<adddddddddddrO...Ory%@@@@@@@@@@*9#@@@%uddd0@@@@%udddd",
"fddda:...X2ddddddddddddp-...X3i=%@@@@@&***9y%@@@@qddd5@@@@*sdddd",
"fddda;...oedddddddddddda:....1di8@@@@%qsiiss*@@@@6dds*@@@@6sdddd",
"fddda;...ordddddddddddda>....<ddq$@@@%uddddd8@@@@*sdu%@@@$0ddddd",
"fddda;...Orddddddddddddd,....<ddq$@@@%udddddq#@@@%udy$@@@%yddddd",
"fddda;...Orddddddddddddd,....<ddq$@@@%udddddu%@@@$qd9@@@@*sddddd",
"fddda;...orddddddddddddd>....<ddq$@@@%uddddds*@@@@9s4@@@@8dddddd",
"fddda:...Xwdddddddddddda;....1ddq$@@@%udddddd5@@@@4u*@@@$qdddddd",
"fddda:...X2ddddddddddddp+...Xwddq$@@@%udddddd0@@@@&0%@@@%udddddd",
"fdddd,....<ddddddddddddeo...orddq$@@@%uddddddu%@@@%4@@@@*sdddddd",
"fdddd1....;pdddddddddda<....-pddq$@@@%udddddds*@@@@$@@@@8ddddddd",
"fddddwX...o<pddddddddaw+....>dddq$@@@%uddddddd5@@@@@@@@#qddddddd",
"fddddrO....o>weradpe2,+....X2dddq$@@@$yddddddd0@@@@@@@@%uddddddd",
"fdddda:......Xo+wp:OX......+rdddy$@@@@9sddddddu%@@@@@@@=sddddddd",
"fddddd1X........,rO........,adddy$@@@@%8979sdds*@@@@@@@8dddddddd",
"fdddddp;........,rO.......+eddddu%@@@@@@@@*sddd7@@@@@@$qdddddddd",
"fddddddwO.......,rO......o1adddds=@@@@@@@@&sdddq#@@@@@%udddddddd",
"fdddddda1+......,rO.....o<pdddddd9#@@@@@@@&sdddy%@@@@@=sdddddddd",
"fdddddddae:O....,rO ..o-1pddddddds4#@@@@@@*sddds*@@@@@8ddddddddd",
"fdddddddddae<:++1p:+:<wpaddddddddds9=$##$&9dddddq44446uddddddddd",
"fddddddddddddapradppadddddddddddddddsyyyyidddddddssddddddddddddd",
"fddddddddddddddddddddddddddddddddddddddddddddddddddddddddddddddd",
"fddddddddddddddddddddddddddddddddddddddddddddddddddddddddddddddd",
"fddddddddddddddddddddddddddddddddddddddddddddddddddddddddddddddd",
"fddddddddddddddddddddddddddddddddddddddddddddddddddddddddddddddd",
"fddddddddddddddddddddddddddddddddddddddddddddddddddddddddddddddd",
"fddddddddddddddddddddddddddddddddddddddddddddddddddddddddddddddd",
"fddddddddddddddddddddddddddddddddddddddddddddddddddddddddddddddd"
};
