/* XPM */
static char *CATALUNYA_R__DIO[] = {
/* columns rows colors chars-per-pixel */
"64 48 12 1",
"  c #47535A",
". c #47535B",
"X c #45545B",
"o c #46545B",
"O c #47545B",
"+ c #E10025",
"@ c #E20024",
"# c #E20025",
"$ c #FCBE00",
"% c #FCBF00",
"& c #FCC000",
"* c None",
/* pixels */
"****************************************************************",
"****************************************************************",
"****************************************************************",
"****************************************************************",
"****************************************************************",
"****************************************************************",
"****************************************************************",
"****************************************************************",
"****************************************************************",
"****************************************************************",
"****************************************************************",
"**OOOO***OOO**OOOOO**OOO***OOO***OOO*OOO*OOO**OOOOOO**OO**OOO***",
"*OOOOO**OOOO**OOOOO**OOOO**OOO***OOO*OOO*OOO**OOO*OOOOOO**OOOO**",
"OOOOOO**OOOOO*OOOOO*OOOOO**OOO***OOO*OOO*OOOO*OOO*OOOOO**OOOOO**",
"OOO*****OOOOO**OOO**OOOOO**OOO***OOO*OOO*OOOOOOOO**OOOO**OOOOO**",
"OOO****OOO*OO**OOO**OO*OOO*OOO***OOO*OOO*OOOOOOOO**OOO***OO*OOO*",
"OOOOOO*OOOOOOO*OOO*OOOOOOO*OOOOO*OOOOOOO*OOOOOOOO***OO**OOOOOOO*",
"*OOOOOOOOOOOOO*OOO*OOOOOOO*OOOOO*OOOOOO**OOO*OOOO***OO**OOOOOOO*",
"**OOOOOOO***OO*OOO*OO***OOOOOOOO**OOOO***OO***OO****OO**OO***OOO",
"****************************************************************",
"*********************************#******************************",
"******************************####********##********************",
"****************************######*****###**********************",
"$$$$$$$$$$$$$$$$$$$$$*****########***###****&$$$$$$$$$$$$$$$$$$$",
"$$$$$$$$$$$$$$$$$$$$&***####**########******$$$$$$$$$$$$$$$$$$$$",
"**********************###*****######****************************",
"********************##********####******************************",
"******************##*****O**************************************",
"*************************O**************************************",
"**************OOOOO*****OOO***OOOOO***OOO***OOOO****************",
"**************OOOOOO***OOOO***OOOOOO**OOO*OOOOOOO***************",
"**************OOOOOO***OOOOO**OOOOOOO*OOO*OOOOOOOO**************",
"**************OOOOOO***OOOOO**OOO*OOO*OOO*OOO**OOO**************",
"**************OOOOOO**OOO*OO**OOO*OOO*OOO*OO***OOO**************",
"**************OOOOO***OOOOOOO*OOOOOOO*OOO*OOOOOOOO**************",
"**************OOOOOO**OOOOOOO*OOOOOO**OOO*OOOOOOO***************",
"**************OO**OOOOOO***OOOOOOOO***OOO***OOOO****************",
"****************************************************************",
"****************************************************************",
"****************************************************************",
"****************************************************************",
"****************************************************************",
"****************************************************************",
"****************************************************************",
"****************************************************************",
"****************************************************************",
"****************************************************************",
"****************************************************************"
};
