/* XPM */
static char *CATALUNYA_INFORMACI__[] = {
/* columns rows colors chars-per-pixel */
"64 48 142 2",
"   c #44525B",
".  c #45535B",
"X  c #46535A",
"o  c #47535A",
"O  c #46535B",
"+  c #44545B",
"@  c #45545B",
"#  c #45555B",
"$  c #47545A",
"%  c #46545B",
"&  c #47545B",
"*  c #43525C",
"=  c #42535C",
"-  c #43535C",
";  c #42535D",
":  c #44525C",
">  c #45535C",
",  c #43545C",
"<  c #44545C",
"1  c #49545B",
"2  c #48555B",
"3  c #49555B",
"4  c #4B545B",
"5  c #4A555B",
"6  c #4A565B",
"7  c #4B575B",
"8  c #4C5759",
"9  c #4D545B",
"0  c #4F545A",
"q  c #4A565C",
"w  c #4D585A",
"e  c #4F5A5B",
"r  c #525B57",
"t  c #565E56",
"y  c #595F57",
"u  c #50535A",
"i  c #555359",
"p  c #575359",
"a  c #50545A",
"s  c #51555B",
"d  c #52545A",
"f  c #5A5358",
"g  c #5A5359",
"h  c #5E5358",
"j  c #535C58",
"k  c #754E54",
"l  c #7B4E52",
"z  c #635257",
"x  c #645257",
"c  c #695156",
"v  c #6F5055",
"b  c #605258",
"n  c #5F6354",
"m  c #6F6D4F",
"M  c #746F49",
"N  c #78734C",
"B  c #79744C",
"V  c #616554",
"C  c #626554",
"Z  c #6E6D50",
"A  c #CE393F",
"S  c #D7373C",
"D  c #DA363B",
"F  c #DD343A",
"G  c #DF343A",
"H  c #D0393E",
"J  c #D2383E",
"K  c #D3383E",
"L  c #E82F36",
"P  c #E43037",
"I  c #E53037",
"U  c #E63037",
"Y  c #E73037",
"T  c #E83037",
"R  c #E33239",
"E  c #E23339",
"W  c #E43038",
"Q  c #E43138",
"!  c #E53138",
"~  c #E63138",
"^  c #E43238",
"/  c #E0353A",
"(  c #897C3D",
")  c #BF3E43",
"_  c #C63C41",
"`  c #C43D42",
"'  c #CA3B40",
"]  c #CB3B40",
"[  c #8B4A4F",
"{  c #8F494E",
"}  c #9E464B",
"|  c #92494E",
" . c #96484D",
".. c #944C4F",
"X. c #98484C",
"o. c #98484D",
"O. c #99484D",
"+. c #814C51",
"@. c #834C51",
"#. c #884B50",
"$. c #8D4C51",
"%. c #8E4C51",
"&. c #A3464A",
"*. c #A64449",
"=. c #AC4348",
"-. c #B34146",
";. c #BA4044",
":. c #837840",
">. c #817844",
",. c #827947",
"<. c #897E46",
"1. c #928035",
"2. c #938135",
"3. c #988434",
"4. c #92823E",
"5. c #9D8A3C",
"6. c #BA9926",
"7. c #AC9130",
"8. c #A99035",
"9. c #AA9134",
"0. c #D8AB17",
"q. c #DDAE14",
"w. c #D5A91B",
"e. c #D6AA1A",
"r. c #D2A81F",
"t. c #D5AA1C",
"y. c #E9B40E",
"u. c #F9BD03",
"i. c #FCBF00",
"p. c #FDBF00",
"a. c #F8BD06",
"s. c #F1B909",
"d. c #E9B511",
"f. c #C49F22",
"g. c #C5A022",
"h. c #C7A123",
"j. c #C9A221",
"k. c #FEC000",
"l. c #FFC100",
"z. c #FFC200",
"x. c #FDC002",
"c. c None",
/* pixels */
"c.c.c.c.c.c.c.c.c.c.c.c.c.c.c.c.c.c.c.c.c.c.c.c.c.c.c.c.& & & & & & & & & c.c.c.c.c.c.c.c.c.c.c.c.c.c.c.c.c.c.c.c.c.c.c.c.c.c.c.",
"c.c.c.c.c.c.c.c.c.c.c.c.c.c.c.c.c.c.c.c.c.c.c.c.c.& & & & & & & & & & & & & & & c.c.c.c.c.c.c.c.c.c.c.c.c.c.c.c.c.c.c.c.c.c.c.c.",
"c.c.c.c.c.c.c.c.c.c.c.c.c.c.c.c.c.c.c.c.c.c.c.& & & & & & & & & & & & & & & & & & & c.c.c.c.c.c.c.c.c.c.c.c.c.c.c.c.c.c.c.c.c.c.",
"c.c.c.c.c.c.c.c.c.c.c.c.c.c.c.c.c.c.c.c.c.& & & & & & & & & & & & & & & & & & & & & & c.c.c.c.c.c.c.c.c.c.c.c.c.c.c.c.c.c.c.c.c.",
"c.c.c.c.c.c.c.c.c.c.c.c.c.c.c.c.c.c.c.c.& & & & & & & & & & & & & & & & & & & & & & & & & c.c.c.c.c.c.c.c.c.c.c.c.c.c.c.c.c.c.c.",
"c.c.c.c.c.c.c.c.c.c.c.c.c.c.c.c.c.c.c.& & & & & & & & & & & & & & & & & & & & & & & & & & & c.c.c.c.c.c.c.c.c.c.c.c.c.c.c.c.c.c.",
"c.c.c.c.c.c.c.c.c.c.c.c.c.c.c.c.c.c.& & & & & & & & & & & & & & & & & & & & & & & & & & & & & c.c.c.c.c.c.c.c.c.c.c.c.c.c.c.c.c.",
"c.c.c.c.c.c.c.c.c.c.c.c.c.c.c.c.c.& & & & & & & & & & & & & & & & & & & & & & & & & & & & & & c.c.c.c.c.c.c.c.c.c.c.c.c.c.c.c.c.",
"c.c.c.c.c.c.c.c.c.c.c.c.c.c.c.c.c.& & & & & & & o o o o o o o o & & & & o o o o o o o o & & & & c.c.c.c.c.c.c.c.c.c.c.c.c.c.c.c.",
"c.c.c.c.c.c.c.c.c.c.c.c.c.c.c.c.& & & & & & & & o o o o o o o o & & & & q s o o o o o o & & & & & c.c.c.c.c.c.c.c.c.c.c.c.c.c.c.",
"c.c.c.c.c.c.c.c.c.c.c.c.c.c.c.c.& & & & & & & & o o o o o o o o & & & b *.%.& o o o o o & & & & & c.c.c.c.c.c.c.c.c.c.c.c.c.c.c.",
"c.c.c.c.c.c.c.c.c.c.c.c.c.c.c.& & & & & & & & & o o o o o o o o & g  .K T X.< 2 . q 2 o & & & & & & c.c.c.c.c.c.c.c.c.c.c.c.c.c.",
"c.c.c.c.c.c.c.c.c.c.c.c.c.c.c.& & & & & & & & & o o o o o o + u #.' ! Y ! X.< < >.h.7.t < & & & & & c.c.c.c.c.c.c.c.c.c.c.c.c.c.",
"c.c.c.c.c.c.c.c.c.c.c.c.c.c.& & & & & & & & & o o o o o + 9 l ) R ! ! ! T X.< j 0.l.l.( . & & & & & c.c.c.c.c.c.c.c.c.c.c.c.c.c.",
"c.c.c.c.c.c.c.c.c.c.c.c.c.c.& & & & & & & & o o o o + 5 v -.G Y ! ! ! ! ! X.< w 6.u.y.M . & & & & & & c.c.c.c.c.c.c.c.c.c.c.c.c.",
"c.c.c.c.c.c.c.c.c.c.c.c.c.c.& & & & & & & & o o & & z *.D Y W W ! ! ! ! T X.< q C <.N 9 . . & & & & & c.c.c.c.c.c.c.c.c.c.c.c.c.",
"c.c.c.c.c.c.c.c.c.c.c.c.c.c.& & & & & & & & & & g X.K Y Y R W W ! ! ! ! ! o.; Z r.w.w.( . o o o & & & c.c.c.c.c.c.c.c.c.c.c.c.c.",
"c.c.c.c.c.c.c.c.c.c.c.c.c.c.& & & & & & o & i #.' ! Y Y W W W W ! ! ! ! ! o.* B a.i.i.2.* o o o & & & c.c.c.c.c.c.c.c.c.c.c.c.c.",
"c.c.c.c.c.c.c.c.c.c.c.c.c.c.& & & & & & & 5 ../ T Y ! ! W W W W ! ! ! ! T o.; C q.i.l.2.* o o o & & & c.c.c.c.c.c.c.c.c.c.c.c.c.",
"c.c.c.c.c.c.c.c.c.c.c.c.c.c.& & & & & & & & u +.` ! Y ! W W W W ! ! ! ! ! o.< q f.l.l.( * o o o & & & c.c.c.c.c.c.c.c.c.c.c.c.c.",
"c.c.c.c.c.c.c.c.c.c.c.c.c.c.& & & & & & & & & & d { A ! Y ! ! ! ! ! ! ! T o.< q f.l.i.2.* . . o & & & c.c.c.c.c.c.c.c.c.c.c.c.c.",
"c.c.c.c.c.c.c.c.c.c.c.c.c.c.& & & & & & & & & & & < h } S Y ! ! ! ! ! ! ! X.< j j.i.i.3.. o 2 o & & & c.c.c.c.c.c.c.c.c.c.c.c.c.",
"c.c.c.c.c.c.c.c.c.c.c.c.c.c.& & & & & & & & & & & & & & c =.F Y ! ! ! ! T X.* ,.s.i.i.t.y . o o & & & c.c.c.c.c.c.c.c.c.c.c.c.c.",
"c.c.c.c.c.c.c.c.c.c.c.c.c.c.& & & & & & & & & & & & & & & 5 k ;.R T ! ! !  .* 4.l.l.l.d.n . o o & & c.c.c.c.c.c.c.c.c.c.c.c.c.c.",
"c.c.c.c.c.c.c.c.c.c.c.c.c.c.c.& & & & & & & & & & & & & & & & 9 +.` R I I O.* m 8.8.8.5.j . o o & & c.c.c.c.c.c.c.c.c.c.c.c.c.c.",
"c.c.c.c.c.c.c.c.c.c.c.c.c.c.c.& & & & & & & & & & & & & & & & & < g | K T O.< & . . . . q < o o & & c.c.c.c.c.c.c.c.c.c.c.c.c.c.",
"c.c.c.c.c.c.c.c.c.c.c.c.c.c.c.c.& & & & & & & & & & & & & & & & . o < h &.%.< & & o & & . o o o & c.c.c.c.c.c.c.c.c.c.c.c.c.c.c.",
"c.c.c.c.c.c.c.c.c.c.c.c.c.c.c.c.& & & & & & & & & & & & & & & & 5 o o o 5 s & & & & & & . 2 o o & c.c.c.c.c.c.c.c.c.c.c.c.c.c.c.",
"c.c.c.c.c.c.c.c.c.c.c.c.c.c.c.c.c.& & & & & & & & & & & & & & & & & & & & & & & & & & & & & & & c.c.c.c.c.c.c.c.c.c.c.c.c.c.c.c.",
"c.c.c.c.c.c.c.c.c.c.c.c.c.c.c.c.c.& & & & & & & & & & & & & & & & & & & & & & & & & & & & & & c.c.c.c.c.c.c.c.c.c.c.c.c.c.c.c.c.",
"c.c.c.c.c.c.c.c.c.c.c.c.c.c.c.c.c.c.& & & & & & & & & & & & & & & & & & & & & & & & & & & & & c.c.c.c.c.c.c.c.c.c.c.c.c.c.c.c.c.",
"c.c.c.c.c.c.c.c.c.c.c.c.c.c.c.c.c.c.c.& & & & & & & & & & & & & & & & & & & & & & & & & & & c.c.c.c.c.c.c.c.c.c.c.c.c.c.c.c.c.c.",
"c.c.c.c.c.c.c.c.c.c.c.c.c.c.c.c.c.c.c.c.& & & & & & & & & & & & & & & & & & & & & & & & & c.c.c.c.c.c.c.c.c.c.c.c.c.c.c.c.c.c.c.",
"c.c.c.c.c.c.c.c.c.c.c.c.c.c.c.c.c.c.c.c.c.& & & & & & & & & & & & & & & & & & & & & & & c.c.c.c.c.c.c.c.c.c.c.c.c.c.c.c.c.c.c.c.",
"c.c.c.c.c.c.c.c.c.c.c.c.c.c.c.c.c.c.c.c.c.c.c.& & & & & & & & & & & & & & & & & & & c.c.c.c.c.c.c.c.c.c.c.c.c.c.c.c.c.c.c.c.c.c.",
"c.c.c.c.c.c.c.c.c.c.c.c.c.c.c.c.c.c.c.c.c.c.c.c.c.& & & & & & & & & & & & & & & c.c.c.c.c.c.c.c.c.c.c.c.c.c.c.c.c.c.c.c.c.c.c.c.",
"c.c.c.c.c.c.c.c.c.c.c.c.c.c.c.c.c.c.c.c.c.c.c.c.c.c.c.& & & & & & & & & & c.c.c.c.c.c.c.c.c.c.c.c.c.c.c.c.c.c.c.c.c.c.c.c.c.c.c.",
"c.c.c.c.c.c.c.c.c.c.c.c.c.c.c.c.c.c.c.c.c.c.c.c.c.c.c.c.c.c.c.c.c.c.c.c.c.c.c.c.c.c.c.c.c.c.c.c.c.c.c.c.c.c.c.c.c.c.c.c.c.c.c.c.",
"c.c.c.c.c.c.c.c.c.c.c.c.c.c.c.c.c.c.c.c.c.c.c.c.c.c.c.c.c.c.c.c.c.c.c.c.c.c.c.c.c.c.c.c.c.c.c.c.c.c.c.c.c.c.c.c.c.c.c.c.c.c.c.c.",
"c.c.c.c.c.c.c.c.c.c.c.c.c.c.c.c.c.c.c.c.c.c.c.& c.c.c.c.c.c.& c.c.c.c.c.c.c.c.c.c.c.c.c.c.c.c.c.c.c.c.c.c.c.c.c.c.c.c.c.c.c.c.c.",
"c.c.c.c.c.c.c.c.c.c.c.c.c.c.& & & & c.& & & c.& c.c.& & & c.& c.& & & & c.& & & & & & & & c.& & & c.c.c.c.c.c.c.c.c.c.c.c.c.c.c.",
"c.c.c.c.c.c.c.c.c.c.c.c.c.c.& c.c.c.& & & & c.& c.& & & & c.& c.& & & & c.& & & & c.& & c.c.& & & c.c.c.c.c.c.c.c.c.c.c.c.c.c.c.",
"c.c.c.c.c.c.c.c.c.c.c.c.c.c.c.& & c.c.& & & c.& c.c.& & & & & c.c.& & & c.& & c.& c.& & c.c.& & & c.c.c.c.c.c.c.c.c.c.c.c.c.c.c.",
"c.c.c.c.c.c.c.c.c.c.c.c.c.c.c.c.c.c.c.c.c.c.c.c.c.c.c.c.c.c.c.c.c.c.c.c.c.c.c.c.c.c.& c.c.c.c.c.c.c.c.c.c.c.c.c.c.c.c.c.c.c.c.c.",
"c.c.c.c.c.c.c.c.c.c.c.c.c.& c.c.c.c.c.c.& & c.c.c.c.c.c.c.c.c.c.c.c.c.c.c.c.c.c.c.c.c.c.c.c.& c.c.c.c.c.c.c.c.c.c.c.c.c.c.c.c.c.",
"c.c.c.c.c.c.c.c.c.c.c.c.c.& & c.& & & c.& & c.& & & c.& & c.& & & & & & & c.& & & c.& & & c.& c.c.& & & c.c.c.c.c.c.c.c.c.c.c.c.",
"c.c.c.c.c.c.c.c.c.c.c.c.c.& & c.& c.& c.& & c.& c.& c.& & c.c.& c.& c.& & c.& & & c.& c.c.c.& & & & c.& c.c.c.c.c.c.c.c.c.c.c.c.",
"c.c.c.c.c.c.c.c.c.c.c.c.c.& & & & & & & & & c.& & & c.& & c.& & c.& & & & & & & & c.& & & c.& & c.& & & c.c.c.c.c.c.c.c.c.c.c.c."
};
