/* XPM */
static char *CatRadio[] = {
/* columns rows colors chars-per-pixel */
"64 48 64 1",
"  c #47545B",
". c #49565D",
"X c #4C595F",
"o c #4E5B61",
"O c #535F65",
"+ c #556167",
"@ c #576269",
"# c #5A656C",
"$ c #5E696F",
"% c #5F6B71",
"& c #626D73",
"* c #687378",
"= c #6A757A",
"- c #E20126",
"; c #E40D30",
": c #E5193A",
"> c #E83351",
", c #E9415D",
"< c #EB4F68",
"1 c #ED637A",
"2 c #FDD043",
"3 c #FDD148",
"4 c #FDDB71",
"5 c #707A80",
"6 c #737D82",
"7 c #EF7387",
"8 c #EF7488",
"9 c #7B858A",
"0 c #818A8F",
"q c #858E92",
"w c #899196",
"e c #8F979B",
"r c #939A9E",
"t c #979FA3",
"y c #9CA3A7",
"u c #A2A9AC",
"i c #A8AEB1",
"p c #ADB2B5",
"a c #B4B9BC",
"s c #F18698",
"d c #F396A6",
"f c #F6ACB8",
"g c #FEE185",
"h c #BABFC1",
"j c #F7B8C2",
"k c #BEC2C5",
"l c #C5C9CC",
"z c #CCD0D2",
"x c #CFD2D4",
"c c #D2D5D7",
"v c #D6D9DB",
"b c #DBDDDF",
"n c #F9CDD4",
"m c #DDDFE1",
"M c #FADDE1",
"N c #DEE1E2",
"B c #E3E5E6",
"V c #E9EBEC",
"C c #FCE7EB",
"Z c #F2F0F1",
"A c #F4F4F5",
"S c #FEF6F6",
"D c #F8F8F9",
"F c #FFFFFF",
/* pixels */
"FFFFFFFFFFFFFFFFFFFFFFFFFFFFFFFFFFFFFFFFFFFFFFFFFFFFFFFFFFFFFFFF",
"FFFFFFFFFFFFFFFFFFFFFFFFFFFFFFFFFFFFFFFFFFFFFFFFFFFFFFFFFFFFFFFF",
"FFFFFFFFFFFFFFFFFFFFFFFFFFFFFFFFFFFFFFFFFFFFFFFFFFFFFFFFFFFFFFFF",
"FFFFFFFFFFFFFFFFFFFFFFFFFFFFFFFFFFFFFFFFFFFFFFFFFFFFFFFFFFFFFFFF",
"FFFFFFFFFFFFFFFFFFFFFFFFFFFFFFFFFFFFFFFFFFFFFFFFFFFFFFFFFFFFFFFF",
"FFFFFFFFFFFFFFFFFFFFFFFFFFFFFFFFFFFFFFFFFFFFFFFFFFFFFFFFFFFFFFFF",
"FFFFFFFFFFFFFFFFFFFFFFFFFFFFFFFFFFFFFFFFFFFFFFFFFFFFFFFFFFFFFFFF",
"FFFFFFFFFFFFFFFFFFFFFFFFFFFFFFFFFFFFFFFFFFFFFFFFFFFFFFFFFFFFFFFF",
"FFFFFFFFFFFFFFFFFFFFFFFFFFFFFFFFFFFFFFFFFFFFFFFFFFFFFFFFFFFFFFFF",
"FFFFFFFFFFFFFFFFFFFFFFFFFFFFFFFFFFFFFFFFFFFFFFFFFFFFFFFFFFFFFFFF",
"FFFFFFFFFFFFFFFFFFFFFFFFFFFFFFFFFFFFFFFFFFFFFFFFFFFFFFFFFFFFFFFF",
"Fv9X 9AFa++=Za+++++kB&+@lFFwO*VFN&OrA9O6v&O9Am%Oy9O$ciO+pB*+@kFF",
"b*   &ZD0  Xla     aa   eFF9 #BFbO wA= *c@ .abO uko w= &Vh.  wFF",
"q  9yqZB# o exe@ @ex0 o &VF9 #BFbO wA= *c@  *lO uDq X..aFq o $BF",
"# $BFAFa #0 %VA= =AB# qO.kF9 #BFbO wA= *c@ o.0# uFv#  9AB# q+ hF",
"# #NFAA9 *i..hA= =Aa Xp& qD9 #BFbO qA= =c@ 9#oX uFFr .lFa Xi& qD",
"q  =eqz@ X+  qZ= =Z9  @X #N0 o9wh% $eO 9v@ yu   uFFu ocF9  @X #b",
"b*   *y  &5@ #v= =x@ #5&  p0    hr    .pB+ yV=  uFFu ocB@ @5&  u",
"Fme=*et69bDp66lr6rk66aDv96uy6666xZu5*6aDV96aFl66hFFh69Nz66aDv96r",
"FFFAADDDDFFFDDDDDDDDDFFFDDDDDDDDFSFDADFFFDDFFDADFFFFDDFDDDFFFDDD",
"FFFFFFFFFFFFFFFFFFFFFFFFFFFFFFFMs7SFFFFFFFFCfsnFFFFFFFFFFFFFFFFF",
"FFFFFFFFFFFFFFFFFFFFFFFFFFFFFn8>-,SFFFFFCj7<snFFFFFFFFFFFFFFFFFF",
"FFFFFFFFFFFFFFFFFFFFFFFFFFSn1:---,SFFSn8>>sMFFFFFFFFFFFFFFFFFFFF",
"422222222222222222224SFFSf<;->>--,Cns>:>dCFg22222222222222222224",
"433333333333333333334SCf,;:1fC7--:,;;<fSFFFg33333333333333333334",
"FFFFFFFFFFFFFFFFFFFFCd>:<fCFFF7---:1nSFFFFFFFFFFFFFFFFFFFFFFFFFF",
"FFFFFFFFFFFFFFFFFFMs>,snAAFFFF7->8nFFFFFFFFFFFFFFFFFFFFFFFFFFFFF",
"FFFFFFFFFFFFFFFFFf<8nSFFi9VFFFdsMFFFFFFFFFFFFFFFFFFFFFFFFFFFFFFF",
"FFFFFFFFFFFFFFDDDMCFFFFFmtmFFFADDDFFFFDDDFFFDZAFFFFFFFFFFFFFFFFF",
"FFFFFFFFFFFFFm9666evFFFz660VFB9669rcFAq=rDDa9&=rmFFFFFFFFFFFFFFF",
"FFFFFFFFFFFFFco    *VFFe  .hFm+    +kZ& 6AyX    &bFFFFFFFFFFFFFF",
"FFFFFFFFFFFFFco qq .lFV& o qFm+ &9o =N& 6x@ +w6  eFFFFFFFFFFFFFF",
"FFFFFFFFFFFFFco 99 oxFk.O9 #BN+ qD0 Ol* 6p  uFB% *AFFFFFFFFFFFFF",
"FFFFFFFFFFFFFco   XyDFw &pX aN+ qDw Ol* 6p  iFV& *AFFFFFFFFFFFFF",
"FFFFFFFFFFFFFco #X.aFB$ X#. 9v+ *eO &b* 6zO $y0. wFFFFFFFFFFFFFF",
"FFFFFFFFFFFFFco w= $bh. $*@ #h@    oaZ& 6Ay.    &vFFFFFFFFFFFFFF",
"FFFFFFFFFFFFFv&@ip#@tr@%lAi@#y*###6aDA6@9DAi&XO9cFFFFFFFFFFFFFFF",
"FFFFFFFFFFFFFFFFFFFFFFFFFFFFFFFFFFFFFFFFFFFFFFFFFFFFFFFFFFFFFFFF",
"FFFFFFFFFFFFFFFFFFFFFFFFFFFFFFFFFFFFFFFFFFFFFFFFFFFFFFFFFFFFFFFF",
"FFFFFFFFFFFFFFFFFFFFFFFFFFFFFFFFFFFFFFFFFFFFFFFFFFFFFFFFFFFFFFFF",
"FFFFFFFFFFFFFFFFFFFFFFFFFFFFFFFFFFFFFFFFFFFFFFFFFFFFFFFFFFFFFFFF",
"FFFFFFFFFFFFFFFFFFFFFFFFFFFFFFFFFFFFFFFFFFFFFFFFFFFFFFFFFFFFFFFF",
"FFFFFFFFFFFFFFFFFFFFFFFFFFFFFFFFFFFFFFFFFFFFFFFFFFFFFFFFFFFFFFFF",
"FFFFFFFFFFFFFFFFFFFFFFFFFFFFFFFFFFFFFFFFFFFFFFFFFFFFFFFFFFFFFFFF",
"FFFFFFFFFFFFFFFFFFFFFFFFFFFFFFFFFFFFFFFFFFFFFFFFFFFFFFFFFFFFFFFF",
"FFFFFFFFFFFFFFFFFFFFFFFFFFFFFFFFFFFFFFFFFFFFFFFFFFFFFFFFFFFFFFFF",
"FFFFFFFFFFFFFFFFFFFFFFFFFFFFFFFFFFFFFFFFFFFFFFFFFFFFFFFFFFFFFFFF",
"FFFFFFFFFFFFFFFFFFFFFFFFFFFFFFFFFFFFFFFFFFFFFFFFFFFFFFFFFFFFFFFF"
};
