/* XPM */
static char *esRadio[] = {
/* columns rows colors chars-per-pixel */
"64 48 64 1",
"  c #060709",
". c #07080A",
"X c #0B0B0D",
"o c #0E0F11",
"O c #0F1012",
"+ c #121315",
"@ c #17181A",
"# c #191A1C",
"$ c #1F2022",
"% c #262729",
"& c #37383A",
"* c #3E3F40",
"= c #404042",
"- c #474749",
"; c #565658",
": c #656566",
"> c #6C6D6E",
", c #707071",
"< c #787879",
"1 c #B22F2F",
"2 c #B33232",
"3 c #B63B3B",
"4 c #B84040",
"5 c #BA4444",
"6 c #BD4C4C",
"7 c #BF5252",
"8 c #C25B5B",
"9 c #C66565",
"0 c #C86A6A",
"q c #CB7474",
"w c #CE7B7B",
"e c #7E8081",
"r c #7F8081",
"t c #848485",
"y c #888889",
"u c #8B8B8C",
"i c #909091",
"p c #939394",
"a c #98999A",
"s c #9FA0A0",
"d c #A9A9AA",
"f c #B3B4B4",
"g c #BBBBBC",
"h c #D38888",
"j c #D99797",
"k c #DEA6A6",
"l c #DFA9A9",
"z c #E1AEAE",
"x c #E3B4B4",
"c c #E6BABA",
"v c #C7C7C8",
"b c #D6D6D6",
"n c #DCDCDD",
"m c #EBC8C8",
"M c #EFD3D3",
"N c #F2DBDB",
"B c #E0E0E0",
"V c #E8E8E8",
"C c #F5E5E5",
"Z c #F7EAEA",
"A c #F8ECEC",
"S c #F4F4F4",
"D c #FBF2F2",
"F c #FFFFFF",
/* pixels */
"FFFFFFFFFFFFFFFFFFFFFFFFFFFFFFFFFFFFFFFFFFFFFFFFFFFFFFFFFFFFFFFF",
"FFFFFFFFFFFFFFFFFFFFFFFFFFFFFFFFFFFFFFFFFFFFFFFFFFFFFFFFFFFFFFFF",
"FFFFFFFFFFFFFFFFFFFFFFFFFFFFFFFFFFFFFFFFFFFFFFFFFFFFFFFFFFFFFFFF",
"FFFFFFFFFFFFFFFFFFFFFFFFFFFFFFFFFFFFFFFFFFFFFFFFFFFFFFFFFFFFFFFF",
"FFFFFFFFFFFFFFFFFFFFFFFFFFFFFFFFFFFFFFFFFFFFFFFFFFFFFFFFFFFFFFFF",
"FFFFFFFFFFFFFFFFFFFFFFFFFFFFFFFFFFFFFFFFFFFFFFFFFFFFFFFFFFFFFFFF",
"FFFFFFFFFFFFFFFFFFFFFFFFFFFFFFFFFFFFFFFFFFFFFFFFFFFFFFFFFFFFFFFF",
"FFFFFFFFFFFFFFFFFFFFFFFFFFFFFFFFFFFFFFFFFFFFFFFFFFFFFFFFFFFFFFFF",
"FFFFFFFFFFFFFFFFFFFFFFFFFFFFFFFFFFFFFFFFFFFFFFFFFFFFFFFFFFFFFFFF",
"FFFFFFFFFFFFFFFFFFFFFFFFFFFFFFFFFFFFFFFFFFFFFFFFFFFFFFFFFFFFFFFF",
"FFFFFFFFFFFFFFFFFFFFFFFFFFFFFFFFFFFFFFFFFFFFFFFFFFFFFFFFFFFFFFFF",
"FFFFFFFFFFFFFFFFFFFFFFFFFFFFFFFFFFFFFFFFFFFFFFFFFFFFFFFFFFFFFFFF",
"FFFFFFFFFFFFFFFFFFFFFFFFFFFFFFFFFFFFFFFFFFFFFFFFFFFFFFFFFFFFFFFF",
"FFFFFFFFFFFFFFFFFFFFFFFFFFFFFFFFFFFFFFFFFFFFFFFFFFFFFFFFFFFFFFFF",
"FFFzqZFFFFFFFFFFFFFFFFFFFFFFFFFFFFFFFFFFFFFFFFFFFFFFFFFFFFFFFFFF",
"FFM61hFFFFFFFFFFFFFFFFFFFFFFFFFFFFFFFFFFFFFFFFFFFFFFFFFFFFFFFFFF",
"FD915mFFFFFFFFFFFFFFFFFFFFFFFFFFFFFFFFFFFFFFFFFFFFFFFFFFFFFFFFFF",
"Fl22lFFmZFFFFFFFFFFFFFFFFFFFFFFFFFFFFFFFFFFFFFFFFFFFSBVSFFFFFFFF",
"A810DFm5qAFFFFFFFFFFFFFFFFd;;;;;,gFFFFFFFFFFFFFFa;:Va$%gFFFFFFFF",
"c32xFA817NFFFFFFFFFFFFFFFF<  ..  @dFFFFFFFFFFFFF> #bp+#gFFFFFFFF",
"w17ZFz22xFFFmjhjNFFDchhkCF<  <g>. ;FSvptpvSFSf<a; #bg>,bFSvutdVF",
"71qFFq19DFFl32426mFh24528Ze  pVu. ;St+.O.+iFs+ O+ #bu ofF<+..X-b",
"31jFA71jFFN51qM919M51wlhlDe  @%O +dS>-,d% -V= %d- #bu Xgfo :a+ ;",
"21kFN51xFFx1158415m81235wCe  #+ XpFFb,-&+ &v% -S> #bu Xf> XfV% +",
"21kFN51xFFz119jhwhCmq7521je  p<  <Fn& %u& &v% -S> #bu Xf> XfV% +",
"31jFZ61jFFN519mq5qmwqxl61he  dv@ %VfX :v% &n& %d* #bu XgdX tf+ -",
"71qFF010DFFz51215xA022327Me  dS- .ab% X%$ &Vpo o# #bu XfS:XX+ &v",
"w17ZFk13cFFFMkjkNFFDcjjzCFvtybFvttfFv<>dftpSSd>iftiVvtynFSd,>aVF",
"c32xFC818CFFFFFFFFFFFFFFFFFFFFFFFFFFFFFFFFFFFFFFFFFFFFFFFFFFFFFF",
"A819DFx39CFFFFFFFFFFFFFFFFFFFFFFFFFFFFFFFFFFFFFFFFFFFFFFFFFFFFFF",
"Fl22kFFcCFFFFFFFFFFFFFFFFFFFFFFFFFFFFFFFFFFFFFFFFFFFFFFFFFFFFFFF",
"FD915mFFFFFFFFFFFFFFFFFFFFFFFFFFFFFFFFFFFFFFFFFFFFFFFFFFFFFFFFFF",
"FFM61hFFFFFFFFFFFFFFFFFFFFFFFFFFFFFFFFFFFFFFFFFFFFFFFFFFFFFFFFFF",
"FFFzqZFFFFFFFFFFFFFFFFFFFFFFFFFFFFFFFFFFFFFFFFFFFFFFFFFFFFFFFFFF",
"FFFFFFFFFFFFFFFFFFFFFFFFFFFFFFFFFFFFFFFFFFFFFFFFFFFFFFFFFFFFFFFF",
"FFFFFFFFFFFFFFFFFFFFFFFFFFFFFFFFFFFFFFFFFFFFFFFFFFFFFFFFFFFFFFFF",
"FFFFFFFFFFFFFFFFFFFFFFFFFFFFFFFFFFFFFFFFFFFFFFFFFFFFFFFFFFFFFFFF",
"FFFFFFFFFFFFFFFFFFFFFFFFFFFFFFFFFFFFFFFFFFFFFFFFFFFFFFFFFFFFFFFF",
"FFFFFFFFFFFFFFFFFFFFFFFFFFFFFFFFFFFFFFFFFFFFFFFFFFFFFFFFFFFFFFFF",
"FFFFFFFFFFFFFFFFFFFFFFFFFFFFFFFFFFFFFFFFFFFFFFFFFFFFFFFFFFFFFFFF",
"FFFFFFFFFFFFFFFFFFFFFFFFFFFFFFFFFFFFFFFFFFFFFFFFFFFFFFFFFFFFFFFF",
"FFFFFFFFFFFFFFFFFFFFFFFFFFFFFFFFFFFFFFFFFFFFFFFFFFFFFFFFFFFFFFFF",
"FFFFFFFFFFFFFFFFFFFFFFFFFFFFFFFFFFFFFFFFFFFFFFFFFFFFFFFFFFFFFFFF",
"FFFFFFFFFFFFFFFFFFFFFFFFFFFFFFFFFFFFFFFFFFFFFFFFFFFFFFFFFFFFFFFF",
"FFFFFFFFFFFFFFFFFFFFFFFFFFFFFFFFFFFFFFFFFFFFFFFFFFFFFFFFFFFFFFFF",
"FFFFFFFFFFFFFFFFFFFFFFFFFFFFFFFFFFFFFFFFFFFFFFFFFFFFFFFFFFFFFFFF",
"FFFFFFFFFFFFFFFFFFFFFFFFFFFFFFFFFFFFFFFFFFFFFFFFFFFFFFFFFFFFFFFF",
"FFFFFFFFFFFFFFFFFFFFFFFFFFFFFFFFFFFFFFFFFFFFFFFFFFFFFFFFFFFFFFFF"
};
