/* XPM */
static char *EUROPA_FM[] = {
/* columns rows colors chars-per-pixel */
"64 48 64 1",
"  c #010101",
". c #0A0503",
"X c #0D0D0D",
"o c #140A06",
"O c #1C0E05",
"+ c #191919",
"@ c #230E01",
"# c #271308",
"$ c #331807",
"% c #361A0A",
"& c #3B1D0A",
"* c #3F220F",
"= c #252224",
"- c #2D2C2C",
"; c #322F2E",
": c #353433",
"> c #3D3D3D",
", c #41200A",
"< c #43210B",
"1 c #4C250C",
"2 c #542A0D",
"3 c #572B0D",
"4 c #68340E",
"5 c #773B0F",
"6 c #673410",
"7 c #7B3D11",
"8 c #444444",
"9 c #4D4D4D",
"0 c #4D4F50",
"q c #535455",
"w c #5A5A5A",
"e c #686868",
"r c #7C7B7A",
"t c #813E10",
"y c #894411",
"u c #974D15",
"i c #984B13",
"p c #A34F11",
"a c #A75214",
"s c #AB5415",
"d c #B85B15",
"f c #C15F16",
"g c #C86318",
"h c #D56917",
"j c #DA6C18",
"k c #E27018",
"l c #E97319",
"z c #ED7519",
"x c #F1771A",
"c c #F5791A",
"v c #F97C1A",
"b c #94867B",
"n c #868788",
"m c #918B86",
"M c #9A9A9A",
"N c #A2A3A3",
"B c #B7B7B7",
"V c #C1C1C1",
"C c #CBCBCB",
"Z c #D7D7D7",
"A c #E9E9E9",
"S c #F3F3F3",
"D c #F8F8F8",
"F c #FFFFFF",
/* pixels */
"FFFFFFFFFFFFFFFFFFFFFFFFFFFFFFFFFFFFFFFFFFFFFFFFFFFFFFFFFFFFFFFF",
"FFFFFFFFFFFFFFFFFFFFFFFFFFFFFFFFFFFFFFFFFFFFFFFFFFFFFFFFFFFFFFFF",
"FFFFFFFFFFFFFFFFFFFFFFFFFFFFFFFFFFFFFFFFFFFFFFFFFFFFFFFFFFFFFFFF",
"FFFFFFFFFFFFFFFFFFFFFFFFFFFFFFFFFFFFFFFFFFFFFFFFFFFFFFFFFFFFFFFF",
"FFFFFFFFFFFFFFFFFFFFFFFFFFFFFFFFFFFFFFFFFFFFFFFFFFFFFFFFFFFFFFFF",
"FFFFFFFFFFFFFFFFFFFFFFFFFFFFFFFFFFFFFFFFFFFFFFFFFFFFFFFFFFFFFFFF",
"FFFFFFFFFFFFFFFFFFFFFFFFFFFFFFFFFFFFFFFFFFFFFFFFFFFFFFFFFFFFFFFF",
"FFFFFFFFFFFFFFFFFFFFFFFFFFFFFFFFFFFFFFFFFFFFFFFFFFFFFFFFFFFFFFFF",
"FFFFFFFFFFFFFFFFFFFFFFFFFFFFFFFFFFFFFFFFFFFFFFFFFFFFFFFFFFFFFFFF",
"FFFFFFFFFFFFFFFFFFFFFFFFFFFFFFFFFFFFFFFFFFFFFFFFFFFFFFFFFFFFFFFF",
"FFFFFFFFFFFFFFFFFFFFFFFFFFFFFFFFFFFFFFFFFFFFFFFFFFFFFFFFFFFFFFFF",
"FFFFFFFFFFFFFFFFFFFFFFFFFFFFFFFFFFFFFFFFFFFFFFFFFFFFFFFFFFFFFFFF",
"FFFFFFFFFFFFFFFFFFFFFFFFFFFFFFFFFFFFFFFFFFFFFFFFFFFFFFFFFFFFFFFF",
"FFFFFFFFFFFFFFFFFFFFFFFFFFFFFFFFFFFFFFFFFFFFFFFFFFFFFFFFFFFFFFFF",
"FFFFFFFFFFFFFFFFFFFFFFFFFFFFFFFFFFFFFFFFFFFFFFFFFFFFFFFFFFFFFFFF",
"FFFFFFFFFFFFFFFFFFFFFFFFFFFFFFFFFFFFFFFFFFFFFFFFFFFFFFFFFFFFFFFF",
"FFFFFFFFFFFFFFFFFFFFFFFFFFFFFFFFFFFFFFFFFFFFFFFFFFFFFFFFFFFFFFFF",
"FFFFFFFFFFFFFFFFFFFFFFFFFFFFFFFFFFFFFFFFFFFFFFFFFFFFFFFFFFFFFFFF",
"FFFFFFFFFFFFFFFFFFFFFFFFFFFFFFFFFFFFFFFFFFFFFFFFFFFFFFFFFFFFFFFF",
"Vw9qqqqqq9MSn90000000q000009000q00000q00000q00000q999999999q99wV",
"e         :C=%2322#%, .1##111,o #111O.,322$ O121# -wwww>:>  +9+e",
"w         -C=avzzz5pf.Oj76cxzxyOdczxs#hczxj&axzxgOnFSSSMNC+ wS9w",
"w:> >; 1# -C=sh1,,#ag.Oj75l3<gd&zy,ij&hs&6z6hi%7z$nAq>>-MFm8ZF9w",
"wer ne i1 -C=slss7.ag.Oj77xiyji%z3 7j&hhisz6hs1yz$nDBBMXMFSASD9w",
"wer@ne=u3#-C=szdfy.ag.Oj74vjhxy%z3 7j&hlhhi$hczxz$nDVBMXNZMCrS9w",
"webimmMuyi;C=sg<&&Oah,2l75k%odd&zt%ij&hioo Ojp&7z$nZ+.. NC++8S9w",
"webpmmNuyi;C=avllz55czxz25k# sd#gczcd#hy   Ojy 3l$nZ+   NCX 8S9w",
"e-:,:>8*%&:C=,4444$o2441.$3. ,1.$343#.3%   .3% #3o:qX   >9. +w+e",
"VwqqqqqqqqMSmqqqqqqqqqqqqqqqqqqqqqqqqqqqqqqqqqqqqqqqqqqqqqqqqqwV",
"FFFFFFFFFFFFFFFFFFFFFFFFFFFFFFFFFFFFFFFFFFFFFFFFFFFFFFFFFFFFFFFF",
"FFFFFFFFFFFFFFFFFFFFFFFFFFFFFFFFFFFFFFFFFFFFFFFFFFFFFFFFFFFFFFFF",
"FFFFFFFFFFFFFFFFFFFFFFFFFFFFFFFFFFFFFFFFFFFFFFFFFFFFFFFFFFFFFFFF",
"FFFFFFFFFFFFFFFFFFFFFFFFFFFFFFFFFFFFFFFFFFFFFFFFFFFFFFFFFFFFFFFF",
"FFFFFFFFFFFFFFFFFFFFFFFFFFFFFFFFFFFFFFFFFFFFFFFFFFFFFFFFFFFFFFFF",
"FFFFFFFFFFFFFFFFFFFFFFFFFFFFFFFFFFFFFFFFFFFFFFFFFFFFFFFFFFFFFFFF",
"FFFFFFFFFFFFFFFFFFFFFFFFFFFFFFFFFFFFFFFFFFFFFFFFFFFFFFFFFFFFFFFF",
"FFFFFFFFFFFFFFFFFFFFFFFFFFFFFFFFFFFFFFFFFFFFFFFFFFFFFFFFFFFFFFFF",
"FFFFFFFFFFFFFFFFFFFFFFFFFFFFFFFFFFFFFFFFFFFFFFFFFFFFFFFFFFFFFFFF",
"FFFFFFFFFFFFFFFFFFFFFFFFFFFFFFFFFFFFFFFFFFFFFFFFFFFFFFFFFFFFFFFF",
"FFFFFFFFFFFFFFFFFFFFFFFFFFFFFFFFFFFFFFFFFFFFFFFFFFFFFFFFFFFFFFFF",
"FFFFFFFFFFFFFFFFFFFFFFFFFFFFFFFFFFFFFFFFFFFFFFFFFFFFFFFFFFFFFFFF",
"FFFFFFFFFFFFFFFFFFFFFFFFFFFFFFFFFFFFFFFFFFFFFFFFFFFFFFFFFFFFFFFF",
"FFFFFFFFFFFFFFFFFFFFFFFFFFFFFFFFFFFFFFFFFFFFFFFFFFFFFFFFFFFFFFFF",
"FFFFFFFFFFFFFFFFFFFFFFFFFFFFFFFFFFFFFFFFFFFFFFFFFFFFFFFFFFFFFFFF",
"FFFFFFFFFFFFFFFFFFFFFFFFFFFFFFFFFFFFFFFFFFFFFFFFFFFFFFFFFFFFFFFF",
"FFFFFFFFFFFFFFFFFFFFFFFFFFFFFFFFFFFFFFFFFFFFFFFFFFFFFFFFFFFFFFFF",
"FFFFFFFFFFFFFFFFFFFFFFFFFFFFFFFFFFFFFFFFFFFFFFFFFFFFFFFFFFFFFFFF",
"FFFFFFFFFFFFFFFFFFFFFFFFFFFFFFFFFFFFFFFFFFFFFFFFFFFFFFFFFFFFFFFF"
};
