/* XPM */
static char *IB_[] = {
/* columns rows colors chars-per-pixel */
"64 48 48 1",
"  c #CD0F8C",
". c #CE128E",
"X c #CF1890",
"o c #CF1A91",
"O c #D01F93",
"+ c #D12496",
"@ c #D32B99",
"# c #D5369E",
"$ c #D638A0",
"% c #D63CA2",
"& c #D742A4",
"* c #D845A6",
"= c #D948A7",
"- c #DA4EAA",
"; c #DB54AD",
": c #DC59B0",
"> c #DD5DB1",
", c #DF64B5",
"< c #E06AB8",
"1 c #E06BB8",
"2 c #E06DB9",
"3 c #E274BC",
"4 c #E37ABF",
"5 c #E47FC1",
"6 c #E584C4",
"7 c #E78AC7",
"8 c #E78DC9",
"9 c #E890CA",
"0 c #E893CB",
"q c #EA9BCF",
"w c #EB9FD1",
"e c #ECA5D4",
"r c #EEABD7",
"t c #EEAFD9",
"y c #EFB4DB",
"u c #F0B8DD",
"i c #F1BBDF",
"p c #F2BFE0",
"a c #F3C5E3",
"s c #F4CCE7",
"d c #F6D6EB",
"f c #F7DAED",
"g c #F8DFEF",
"h c #F9E4F2",
"j c #FBECF6",
"k c #FCF0F8",
"l c #FDF5FA",
"z c #FFFFFF",
/* pixels */
"zzzzzzzzzzzzzzzzzzzzzzzzzjsw4>*%%&>4wajzzzzzzzzzzzzzzzzzzzzzzzzz",
"zzzzzzzzzzzzzzzzzzzzzzla6*+.        .+*5alzzzzzzzzzzzzzzzzzzzzzz",
"zzzzzzzzzzzzzzzzzzzzkt;o                o;rkzzzzzzzzzzzzzzzzzzzz",
"zzzzzzzzzzzzzzzzzzza;X                    .;izzzzzzzzzzzzzzzzzzz",
"zzzzzzzzzzzzzzzzzj6+                        +6jzzzzzzzzzzzzzzzzz",
"zzzzzzzzzzzzzzzzf:.                          .:fzzzzzzzzzzzzzzzz",
"zzzzzzzzzzzzzzzs&                              %szzzzzzzzzzzzzzz",
"zzzzzzzzzzzzzzs%                                #szzzzzzzzzzzzzz",
"zzzzzzzzzzzzzf&     .,qqqw6O1wqqqqqq93=o....     &fzzzzzzzzzzzzz",
"zzzzzzzzzzzzj>      -lzzzzf@yzzzzzzzzzka,o        >jzzzzzzzzzzzz",
"zzzzzzzzzzzz8.      ,zzzzzd@yzzzzzzzzzzzle+       .7zzzzzzzzzzzz",
"zzzzzzzzzzzs+       3zzzzzd@yzzzzzzzzzzzzzeo       +azzzzzzzzzzz",
"zzzzzzzzzzl,        >lzzzzd@yzzzzzzzzzzzzzl,        >lzzzzzzzzzz",
"zzzzzzzzzzio        X8ssssr+9dsssddjzzzzzzzio       oyzzzzzzzzzz",
"zzzzzzzzzl,          .++++O.oOOOoo+#4jzzzzzj%        >lzzzzzzzzz",
"zzzzzzzzzd+         X3yyyy0O    ...  ,zzzzzl;        +szzzzzzzzz",
"zzzzzzzzz0.         ;lzzzzf+         #hzzzzz:         7zzzzzzzzz",
"zzzzzzzzl;          <zzzzzd+         #hzzzzl-         -lzzzzzzzz",
"zzzzzzzzf@          <zzzzzd+      .  ,zzzzzh#         @dzzzzzzzz",
"zzzzzzzzyo          <zzzzzd+ ......O,hzzzzzy.         otzzzzzzzz",
"zzzzzzzz8.          <zzzzzd@2ewwwwrslzzzzzj-          .6zzzzzzzz",
"zzzzzzzz1           <zzzzzd@yzzzzzzzzzzzzh,.          .,zzzzzzzz",
"zzzzzzzz>           <zzzzzd@yzzzzzzzzzzzj,.            ;zzzzzzzz",
"zzzzzzzz;          .<zzzzzd@yzzzzzzzzzzzzg3.           -zzzzzzzz",
"zzzzzzzz;           1zzzzzd@yzzzzzzzzzzzzzl6.          ;zzzzzzzz",
"zzzzzzzz>           1zzzzzd@4tyyyyyajzzzzzzj-          ;zzzzzzzz",
"zzzzzzzz2           2zzzzzd+ ......o*yzzzzzzr.         ,zzzzzzzz",
"zzzzzzzz7.          1zzzzzd+         +izzzzzg@         6zzzzzzzz",
"zzzzzzzzyo          ,zzzzzd+          3zzzzzk&        otzzzzzzzz",
"zzzzzzzzf@          1zzzzzd+          ,zzzzzl;        @dzzzzzzzz",
"zzzzzzzzl;          1zzzzzd+          3zzzzzl;        -lzzzzzzzz",
"zzzzzzzzz0.         1zzzzzd+         .tzzzzzj&        7zzzzzzzzz",
"zzzzzzzzzd+         ,zzzzzd+      . o4lzzzzzd+       Oszzzzzzzzz",
"zzzzzzzzzl,.        ,zzzzzd+&>>>>>,4ilzzzzzz9.      .:lzzzzzzzzz",
"zzzzzzzzzzyo      . 3zzzzzd@yzzzzzzzzzzzzzzh%       oyzzzzzzzzzz",
"zzzzzzzzzzl>      ..,zzzzzd@yzzzzzzzzzzzzzl4.       :lzzzzzzzzzz",
"zzzzzzzzzzza+       ,zzzzzd@yzzzzzzzzzzzzl7o       +azzzzzzzzzzz",
"zzzzzzzzzzzz7.      ,zzzzzd@yzzzzzzzzzzzg3..      .6zzzzzzzzzzzz",
"zzzzzzzzzzzzj>      #slllld@tzlllllkjdy4#.       .;jzzzzzzzzzzzz",
"zzzzzzzzzzzzzf&.     @-;;;*.%;;;;;-&#+.          #dzzzzzzzzzzzzz",
"zzzzzzzzzzzzzzs#                                #szzzzzzzzzzzzzz",
"zzzzzzzzzzzzzzzs%                            . %azzzzzzzzzzzzzzz",
"zzzzzzzzzzzzzzzzd;.                         ..;dzzzzzzzzzzzzzzzz",
"zzzzzzzzzzzzzzzzzj6+                        o5jzzzzzzzzzzzzzzzzz",
"zzzzzzzzzzzzzzzzzzzi;.                    .-izzzzzzzzzzzzzzzzzzz",
"zzzzzzzzzzzzzzzzzzzzjt-o .             .o-ejzzzzzzzzzzzzzzzzzzzz",
"zzzzzzzzzzzzzzzzzzzzzzja4&o.  .  .  .o&4ajzzzzzzzzzzzzzzzzzzzzzz",
"zzzzzzzzzzzzzzzzzzzzzzzzzjaq3:&##%:3qajzzzzzzzzzzzzzzzzzzzzzzzzz"
};
