/* XPM */
static char *Intereconom__a[] = {
/* columns rows colors chars-per-pixel */
"64 48 23 1",
"  c #067389",
". c #09778C",
"X c #0B7A8E",
"o c #127A8F",
"O c #0E7D91",
"+ c #107F93",
"@ c #138295",
"# c #168599",
"$ c #18879A",
"% c #1B8A9D",
"& c #1E8DA1",
"* c #1F90A2",
"= c #208FA3",
"- c #2391A5",
"; c #2894A7",
": c #2794A8",
"> c #2996AA",
", c #2D9AAE",
"< c #2E9CB0",
"1 c #319EB1",
"2 c #33A0B3",
"3 c #38A1B4",
"4 c None",
/* pixels */
"4444444444444444444444444444444444444444444444444444444444444444",
"4444444444444444444444444444444444X.X.44444444444444444444444444",
"444444444444444444444444444444444X.....+444444444444444444444444",
"4444444444444444444444444444444+OXXOXOXXO+@444444444444444444444",
"444444444444444444444444444444++O@OO+++O+OO@+@@@4444444444444444",
"44444444444444444444444444444###@@@@#@@#@$@@@@@#@444444444444444",
"444444444444444444444444 444%###$$$$$$$$$#######$$44444444444444",
"444444444444444444444444 o44%%%%%%%%%%%%%%%%%%%%%%44444444444444",
"44444444444444444444444..X44=&&&&&%&%=&&&&&&%=&&&=-4444444444444",
"44444444444444444444444X.X44:==-------=======--===;4444444444444",
"44444444444444444444444XXX444>>:::::>>>>>>>;>:::;->4444444444444",
"44444444444444444444444+XXO44444444444444444444>,>,4444444444444",
"44444444444444444444444OOOOO444444444444444444441,<4444444444444",
"44444444444444444444.44OOOOOO@@%$#@@++XXXoXX++444424444444444444",
"4444444444444444444. 444@O+OOOOO@OOXXOOX+XXXXOO+44444444444444+4",
"444444444444444444X..X44@O@@O@@++++++++++++O+XXOO444444444444+X4",
"444444444444444444X.X.444$@@@O@@@+@+@+++++++++++OO44444444444OO4",
"44444444444444444XXXXXX444#@@@@@@@@@@@@+@@+++++++O@@44444444OOO4",
"4444444444444444OXOXXOXO4444$@#@#@@@@#@@@@+@@@++@@@O@O@44#@+OO+4",
"444444444444444@OOOOOOOXO@44444%####@#@#@@##+#+#@@@@@@O@@O++@O44",
"444444444444444OX@@@@O@OOOO4444%#@######$@$@#@##@#@@@@@@@@@@@@44",
"44444444444444@@@@X@@OO@O@@O444%#&@&####$$$$#####$#####@@@@@@444",
"44444444444444@@@@@@@@@@@@@@44%%&@&&$&$#$#$$####$$######$@#$4444",
"4444444444444$@@@@@@@@@@@@@$44&%&&&@#&&&$&$&%%%%$$$#$$&#$$444444",
"4444444444444$@@@@#@@@###@#$44&&&&&&&&#&%%%%%%%%&$$&444444444444",
"4444444444444$$$$$#$$$#####%44&&&&&&&&&&%%=%=%%%%$&4444444444444",
"444444444444%$$$$$$$$$$$$$$%44-&&&&&&&&&%===%%=%&$&4444444444444",
"444444444444%$$%%$%%$%$$%$%&44-*&&**&&&&&=====%=&&44444444444444",
"444444444444%%%%%%%%%%%%%%%&44:--=--**-*===-&&*&&-44444444444444",
"44444444444-%%%%%%%%44*&%%%%444----------===---**444444444444444",
"44444444444=%&&&&&*44444*&%%-44>-;--:-----=-----:444444444444444",
"44444444444&*&&&&444444444-&*444:;::::::-:;:---:4444444444444444",
"44444444444&&&**44444444444-*-44,:>>>>>>>>:::-:>4444444444444444",
"4444444444-----44444444444444:444,>>>>>>>>>>>:>44444444444444444",
"4444444444----:444444444444444444<,>>,>>>>>>>>,44444444444444444",
"444444444>-:--4444444444444444444<,,,,,,>,,,>,444444444444444444",
"44444444,:::>44444444444444444444,,<,,,,,,,><1444444444444444444",
"4444444,:>::>44444444444444444444<<<<<<<<<<<<3444444444444444444",
"444444,::>>>,444444444444444444441,<<<<<<<<<<4444444444444444444",
"44444,,,,,>,4444444444444444444444<<<<,<<<<<<4444444444444444444",
"4444,,,,,,,,44444444444444444444444<<<<<<<<<44444444444444444444",
"444,,<,,,<,244444444444444444444444422<<<<2444444444444444444444",
"442,<<<<<<<44444444444444444444444444444344444444444444444444444",
"442,<<<2<<<44444444444444444444444444444444444444444444444444444",
"441<,<<<<<<44444444444444444444444444444444444444444444444444444",
"441<<<<<<<244444444444444444444444444444444444444444444444444444",
"4442111124444444444444444444444444444444444444444444444444444444",
"4444444444444444444444444444444444444444444444444444444444444444"
};
