/* XPM */
static char *La___[] = {
/* columns rows colors chars-per-pixel */
"64 48 63 1",
"  c #F17A3B",
". c #EB3F5F",
"X c #E5087E",
"o c #E71876",
"O c #EA3069",
"+ c #ED4C57",
"@ c #F06846",
"# c #EF7D7B",
"$ c #F7AF1B",
"% c #F7B11A",
"& c #F4912D",
"* c #F6A623",
"= c #F7B325",
"- c #F8B937",
"; c #F7B149",
": c #F9C559",
"> c #FACC6D",
", c #B7298D",
"< c #AB3490",
"1 c #AA3590",
"2 c #AD3C94",
"3 c #B13290",
"4 c #DB0A85",
"5 c #CD1688",
"6 c #E50083",
"7 c #E60B87",
"8 c #E7168C",
"9 c #E71F91",
"0 c #D32992",
"q c #E92885",
"w c #E92895",
"e c #EA379C",
"r c #B3489B",
"t c #B958A3",
"y c #BE66AB",
"u c #EC47A4",
"i c #EC4DA7",
"p c #ED54AB",
"a c #EE5DAF",
"s c #EE66B3",
"d c #F175B9",
"f c #CE87BD",
"g c #F6A6A9",
"h c #FBD78E",
"j c #FCDEAA",
"k c #FCE4B3",
"l c #F388C4",
"z c #F096CB",
"x c #F49ACD",
"c c #D7A1CB",
"v c #F2ADD6",
"b c #F8B9DC",
"n c #EFC6DE",
"m c #FDEECF",
"M c #F9C8E3",
"N c #EDD3E7",
"B c #FAD8EC",
"V c #F2E1EF",
"C c #FEF8EA",
"Z c #FCE9F4",
"A c #FFFBF6",
"S c #FEF6FA",
"D c #FFFFFF",
/* pixels */
"DDDDDDDDDDDDDDDDDDDDSVncfyytrr22222rrtyyfccnVSDDDDDDDDDDDDDDDDDD",
"DDDDDDDDDDDDDDDDDZnfyt23<<<<<<<<1<<<<111112rtyfcNZDDDDDDDDDDDDDD",
"DDDDDDDDDDDDDDSNft05444444455,,3<11<1<1111111111rtfvVDDDDDDDDDDD",
"DDDDDDDDDDDDSns0466666666666666455,<<111<11111111<<2tfnSDDDDDDDD",
"DDDDDDDDDDDBs866666666666666666666645,<<<<<1111<1111112ybSDDDDDD",
"DDDDDDDDDSzw6666666666666666666666666645,<<11<1<111111112yNDDDDD",
"DDDDDDDDZs7666668aw666666666666678887666645<<1<<1111111111rcSDDD",
"DDDDDDDBu666668abSu66666666669plbMMMvli866645,<<111111111112cSDD",
"DDDDDDBu66667pbSDSu66666666wlBSDDDDDDDSMd866665,<<11111111112cDD",
"DDDDDZi6667pbSDDDSu6666667aBDDDDDDDDDDDDDMu666645<11<11<11111tND",
"DDDDDd667pbSDDDDDSu666667dSDDDDDDDDDDDDDDDZs666664,<11<<111111fD",
"DDDDb86wvSDDDDDDDSu66667lSDDDDDDDDDDDDDDDDDSs6666665,1<<111111tD",
"DDDSp66iSDDDDDDDDSu6666sSDDDDDDDDDDDDDDDDDDDZu6666664,<<<111112D",
"DDDb766iSDDDDDDDDSu666wBDDDDDDDBxdsdxZDDDDDDDM866666665<1<11112D",
"DDDs666iSDDDDDDDDSu666zDDDDDDZlw66666wxSDDDDDDd666666665<<<111rD",
"DDBw666iSDDSDDDDDSu66wZDDDDDZa666666667dSDDDDDM866666666431<11yD",
"DDv7666pSZllDDDDDSu66dDDDDDSd66666666667zDDDDDSi66666666643<<1cD",
"DDd6666uxe6aDDDDDSu67vDDDDDM866666666666wBDDDDDl66666666665<<rND",
"DDu66667766aDDDDDSu68MDDDDDd6666666666666xDDDDDv766666666665<fDD",
"DDw66666666aDDDDDSuXwZDDDDSu6666666666666sDDDDDM866666666666rVDD",
"DD866666666aDDDDDSuXeZDDDDZe6666666666666iSDDDDB866666666667#CDD",
"DD766666666aDDDDDSuXwZDDDDZe6666666666666pSDDDDM86666666666+=kDD",
"DD766666666aDDDDDSuX9BDDDDSa6666666666666lDDDDDb7666666666O*%>AD",
"DD766666666aDDDDDSu67bDDDDDx6666666666668MDDDDDx666666666o&%$-mD",
"DD966666666aDDDDDSu66lDDDDDZe66666666666aSDDDDDs66666666o&%$$=kD",
"DDe66666666aDDDDDSu66iSDDDDDMw666666666eBDDDDDZw6666666o&%$$$%hD",
"DDs66666666aDDDDDSu668bDDDDDDbe6666666uMDDDDDDx6666666o&%$$$$$hD",
"DDg76666666aDDDDDSu666pSDDDDDDBle98wuxZDDDDDDZe666666O&%$$$$$=jD",
"DDBq6666666aDDDDDSu6667xDDDDDDDDSBBBSDDDDDDDDd666666O&%$$$$$$-mD",
"DDCi6666666aDDDDDSu6666wMDDDDDDDDDDDDDDDDDDDv866666+*%$$$$$$$>DD",
"DDDgX666666aDDDDDSu66666eMDDDDDDDDDDDDDDDDDv96666X@$%$$$$$$$-mDD",
"DDDkO666666aDDDDDSu666666wvSDDDDDDDDDDDDDSz86666o $$$$$$$$$=hDDD",
"DDDC;X66666aDDDDDSu66666668sBDDDDDDDDDDSMp76666.&%$$$$$$$$$>ADDD",
"DDDDh+66666ellllllw6666666669svBSSDSZBva86666o@$%$$$$$$$$%>CDDDD",
"DDDDm&o666666666666666666666667wepape9666666O&%$$$$$$$$$=hCDDDDD",
"DDDDA>@66666666666666666666666666666666666o@*%$$$$$$$$$-jADDDDDD",
"DDDDDm=+666666666666666666666666666666666O&%%$$$$$$$$%:mDDDDDDDD",
"DDDDDA>*O666666666666666666666666666666o@*%$$$$$$$$$-hCDDDDDDDDD",
"DDDDDDm-*O666666666666666666666666666X+&%$$$$$$$$$=>mDDDDDDDDDDD",
"DDDDDDDj=*.6666666666666666666666666O $%$$$$$$$$=>mADDDDDDDDDDDD",
"DDDDDDDA>%*@X666666666666666666666O@*%$$$$$$$$=>kADDDDDDDDDDDDDD",
"DDDDDDDDC:$$&O76666666666666666XO *%$$$$$$$$->mADDDDDDDDDDDDDDDD",
"DDDDDDDDDm:$%$ .o66666666666XO+&$%%$$$$$$%-hmADDDDDDDDDDDDDDDDDD",
"DDDDDDDDDDC:$$%$&@+OooooOO+@&*%%$$$$$$$=:jCDDDDDDDDDDDDDDDDDDDDD",
"DDDDDDDDDDDCh=$$%%%$*****$%%%$$$$$$$=;hmADDDDDDDDDDDDDDDDDDDDDDD",
"DDDDDDDDDDDDAk:=$$$$$%%%$$$$$$$$$=->kCDDDDDDDDDDDDDDDDDDDDDDDDDD",
"DDDDDDDDDDDDDDCk:-%$$$$$$$$$$$=;>kCDDDDDDDDDDDDDDDDDDDDDDDDDDDDD",
"DDDDDDDDDDDDDDDDAmh>-=====-;>hmCDDDDDDDDDDDDDDDDDDDDDDDDDDDDDDDD"
};
