/* XPM */
static char *La__[] = {
/* columns rows colors chars-per-pixel */
"64 48 64 1",
"  c #1C3DDD",
". c #2639DF",
"X c #2B3CDE",
"o c #1F3BE1",
"O c #2536E1",
"+ c #0E4ED8",
"@ c #1746DB",
"# c #075ED5",
"$ c #2A46DC",
"% c #3649DE",
"& c #2956DB",
"* c #3A55DE",
"= c #0469D4",
"- c #1968D8",
"; c #0274D4",
": c #037CD5",
"> c #0C7AD6",
", c #177AD8",
"< c #2F71DB",
"1 c #3949E1",
"2 c #455ADF",
"3 c #486BDF",
"4 c #4B5CE1",
"5 c #566AE2",
"6 c #5670E2",
"7 c #687BE4",
"8 c #6E7BE6",
"9 c #0B82D6",
"0 c #1887D8",
"q c #268ADA",
"w c #2F90DC",
"e c #3898DD",
"r c #449CDF",
"t c #5193E2",
"y c #718CE7",
"u c #4EA6E1",
"i c #57AAE3",
"p c #6EB2E6",
"a c #7FC2E9",
"s c #8D96EB",
"d c #8998EA",
"f c #99A8ED",
"g c #8EB4EC",
"h c #A9B6F0",
"j c #AEB6F1",
"k c #89C7EB",
"l c #98CDEE",
"z c #B9C8F2",
"x c #A8D3F0",
"c c #B9D7F3",
"v c #BBE4F3",
"b c #C8CCF5",
"n c #C9D8F6",
"m c #D6DBF8",
"M c #C9E9F6",
"N c #D7E9F8",
"B c #DCF3F9",
"V c #E2E0F9",
"C c #E6EBFA",
"Z c #F1EFFC",
"A c #EAF6FB",
"S c #F4F6FD",
"D c #F5FAFD",
"F c #FFFFFF",
/* pixels */
"FFFFFFFFFFFFFFFFFFFFFFFFFFFFFFFFFFFFDDDDDFFFFFFFFFFFFFFFFFFFFFFF",
"FFFFFFFFFFFFFFFFFFFFFFFFFFDDDSSSSAAAAAAAADDDDFFFFFFFFFFFFFFFFFFF",
"FFFFFFFFFFFFFFFFFFFFFFDDSAACCCNNNNMMMMNNBBAAADDFFFFFFFFFFFFFFFFF",
"FFFFFFFFFFFFFFFFFFFFDSACCNNmnncccxxxxcccMMMBBAADDFFFFFFFFFFFFFFF",
"FFFFFFFFFFFFFFFFFFDSACNmncczxllgggggkkllxxcvMNBAADFFFFFFFFFFFFFF",
"FFFFFFFFFFFFFFFFDSCNNnczxhgggppppiiipppppklxxvMBAADFFFFFFFFFFFFF",
"FFFFFFFFFFFFFFDSANmnzzhggppytttttrrrrruiippakxcMNBADFFFFFFFFFFFF",
"FFFFFFFFFFFFFDZCmbzhfdyyyttttewwwwwwweeeruiipalxvNBADFFFFFFFFFFF",
"FFFFFFFFFFFFSCNnzhfdyyt663<<<<<<,qqqqqqwweerippkxvMBADFFFFFFFFFF",
"FFFFFFFFFFFSCmbjfdyy7633<<<<<-,,,,,,,000qqweeuipkxvNBADFFFFFFFFF",
"FFFFFFFFFFSCmzhfdy7633**&&-----,,,>>>,,000qqweripkxvBAADFFFFFFFF",
"FFFFFFFFFSCmzhfyy653**&&&&---tznng>>>>>>9000qweripkxMBADFFFFFFFF",
"FFFFFFFFDCmzhsy7632**&&&&&+-pCFFFc>;;>>>>>900qweripkcMBADFFFFFFF",
"FFFFFFFFZmbjfy7642*%$$$$@+<zFFFFFc>;;;;::>9900qweuiplvBADFFFFFFF",
"FFFFFFFSCbjfd7642*%$$$$@@yNFFFFFFc==;;;::::9900qweupkxMBADFFFFFF",
"FFFFFFFZmzfd8642*%$$$$@$fSFFFFFFFc===;;;::::9900qeriplMBADFFFFFF",
"FFFFFFDCbhsy752*%$$$.. @fFFFFFFFFc===;;;;:::99900weupkcNAAFFFFFF",
"FFFFFFZmzfd752*%%$X...  &mFDCFFFFc====;;;::::9900qeuiaxMBADFFFFF",
"FFFFFDCbhsy642%%$XX... @@yCdyFFFFc====;;;::::9990qwriplMBADFFFFF",
"FFFFFSNzfd752*%$XX...   @@<+yFFFFc=====;;::::99900weuplvNADFFFFF",
"FFFFFSmzfy752*%$XX....  @@++yFFFFc=====;;:::::9900weupkvMAAFFFFF",
"FFFFFAnhdy642%%XX.....  @@++yFFFFc=#===;;:::::9900qeupkcMBADFFFF",
"FFFFDCnhdy62*%$XX.....  @@++yFFFFc##====;;::::9900qeupkxMBADFFFF",
"FFFFDCbfd752*%$XX.....  @@++yFFFFc###===;;;:::9900qeupkxMBADFFFF",
"FFFFDCzfy752*%$XX..OOOO @@++yFFFFc###===;;;:::9900weupkcMBADFFFF",
"FFFFDCzfy752*%$XX..OOOOo @++yFFFFc###===;;;:::9900weuplvMBADFFFF",
"FFFFDCzfy752*%$XX.OOOOOOo@@+yFFFFc###===;;;:::990qweiplvMBADFFFF",
"FFFFDCcfd752*%$XX.OOOOOOo @+yFFFFc###====;;::>900qeriaxvNAAFFFFF",
"FFFFFCnhdy62*%$XX..OOOOOO @@yFFFFc###====;;:>>900weupkxMBADFFFFF",
"FFFFFAnhdy64*%%XXX.OOOOOO  @yFFFFc###====;;>>>00qeriplvMBADFFFFF",
"FFFFFSNzfy752*%$XX..OOOOO   yFFFFc###====;;>>90qweupkxvNBADFFFFF",
"FFFFFFNzfy762*%%XXX.OOOO..  yFFFFc###====;>>,00weriplcMBADFFFFFF",
"FFFFFFAnhdy652*%$XXX..... $5jFFFFNt-#====>>,00qeripkxvNBADFFFFFF",
"FFFFFFDNzfy7642%%$XXX...XybZFFFFFFDnp-==>>,,qqwripkxvMBADFFFFFFF",
"FFFFFFFCnhdy752*%%$XXXX.1mFFFFFFFFFFC<--,,,qqerupklcMBAADFFFFFFF",
"FFFFFFFDNzfdy652*%%%XXXX1mFFFFFFFFFFC<--,,qweripklxMNBADFFFFFFFF",
"FFFFFFFFAmzfyy6522%%%$XX%sjhhhhhhhhhg<-<<qweripklcMNBADFFFFFFFFF",
"FFFFFFFFFCnjfy86542*%%%%$$$$$$$$$&&&&<<<weruppkxcMNAADDFFFFFFFFF",
"FFFFFFFFFDCbjfdy75422*%%%%%%%$$%&&&<<<<tttipglxcMBAADFFFFFFFFFFF",
"FFFFFFFFFFSCbjfdy7654422***********336ttipgkxcMNBADDFFFFFFFFFFFF",
"FFFFFFFFFFFSCbjfsy876554442222243366tyypggxcnNBADDFFFFFFFFFFFFFF",
"FFFFFFFFFFFFSCmzjfsdy8765555556667yyydglzcnNCASDFFFFFFFFFFFFFFFF",
"FFFFFFFFFFFFFDZmbjjfssdy888888yyyydffzznmNCASFFFFFFFFFFFFFFFFFFF",
"FFFFFFFFFFFFFFFZCmbjjhffsssssssfffhzznNNCASDFFFFFFFFFFFFFFFFFFFF",
"FFFFFFFFFFFFFFFFSZCmbbjjjjjjjjjjzbnmNCASSDFFFFFFFFFFFFFFFFFFFFFF",
"FFFFFFFFFFFFFFFFFFSZCVmmbbbbbbnmmNCASSDFFFFFFFFFFFFFFFFFFFFFFFFF",
"FFFFFFFFFFFFFFFFFFFFDSZZCCCCCCCZZSDDFFFFFFFFFFFFFFFFFFFFFFFFFFFF",
"FFFFFFFFFFFFFFFFFFFFFFFFDSSSSSDFFFFFFFFFFFFFFFFFFFFFFFFFFFFFFFFF"
};
