/* XPM */
static char *La__[] = {
/* columns rows colors chars-per-pixel */
"64 48 64 1",
"F c None",
"  c #1B3CDD",
". c #2B3BDE",
"X c #2439DE",
"o c #303FDE",
"O c #2536E0",
"+ c #1E3CE0",
"@ c #1644DA",
"# c #0653D5",
"$ c #2A45DC",
"% c #3548DE",
"& c #3A55DD",
"* c #2957DA",
"= c #0367D4",
"- c #037BD4",
"; c #0576D4",
": c #1673D7",
"> c #2C6FDB",
", c #365AE0",
"< c #4258DE",
"1 c #436BDE",
"2 c #4759E0",
"3 c #5468E1",
"4 c #506EE1",
"5 c #6579E4",
"6 c #6B79E5",
"7 c #0A81D5",
"8 c #1786D8",
"9 c #2589DA",
"0 c #2992DB",
"q c #3898DD",
"w c #3688DC",
"e c #438EDF",
"r c #4E8BE1",
"t c #7588E6",
"y c #6E8EE5",
"u c #58A7E3",
"i c #49A3E0",
"p c #66B4E5",
"a c #72B1E7",
"s c #41A0DF",
"d c #7DC1E9",
"f c #8694E9",
"g c #8E97EA",
"h c #96A6EC",
"j c #8EB1EB",
"k c #ABB4EF",
"l c #92CBEC",
"z c #B8C7F2",
"x c #A9D7F0",
"c c #B6D6F2",
"v c #A5CAEF",
"b c #BBE3F3",
"n c #C9D6F5",
"m c #CDD3F5",
"M c #C8E8F5",
"N c #D6E7F8",
"B c #D9F1F8",
"V c #E4E8FA",
"C c #E8F4FB",
"Z c #F4F9FD",
"A c #FEFEFE",
"S c #F3F5FD",
"D c #F0EEFC",
/* pixels */
"FAAAAAAAAAAAAAAAAAAAAAAAAAAAAAAAAAAAAAAAAAAAAAAAAAAAAAAAAAAAAAAA",
"FAAAAAAAAAAAAAAAAAAAAAAAAAAAAAAAAAAZZZAAAAAAAAAAAAAAAAAAAAAAAAAA",
"FAAAAAAAAAAAAAAAAAAAAAAAAAAZZZSSCCCCCCSZZAAAAAAAAAAAAAAAAAAAAAAA",
"FAAAAAAAAAAAAAAAAAAAAAAAAZSCCVNNNMMMNBBCCZAAAAAAAAAAAAAAAAAAAAAA",
"FAAAAAAAAAAAAAAAAAAAAAAZSCVNnnccxvvxxcMNBCZAAAAAAAAAAAAAAAAAAAAA",
"FAAAAAAAAAAAAAAAAAAAAAZCVNnczvjjjjjjllxcMBCSAAAAAAAAAAAAAAAAAAAA",
"FAAAAAAAAAAAAAAAAAAAAZCNnzvjjaauuuuupallxbBCZAAAAAAAAAAAAAAAAAAA",
"FAAAAAAAAAAAAAAAAAAASVmzkjjyyrreeeesiuualxbBCZAAAAAAAAAAAAAAAAAA",
"FAAAAAAAAAAAAAAAAAASVnzhfyyrrwwww990qqsupdxbBCZAAAAAAAAAAAAAAAAA",
"FAAAAAAAAAAAAAAAAASVmkhty541>>>:::89990qiplxMBSAAAAAAAAAAAAAAAAA",
"FAAAAAAAAAAAAAAAAZVmkht541,>>>::::::8890qiplxBCZAAAAAAAAAAAAAAAA",
"FAAAAAAAAAAAAAAAADmkht541&***:>ru:;;:8880qiplMBSAAAAAAAAAAAAAAAA",
"FAAAAAAAAAAAAAAASNzht53<&***#>cASe;;;-7880quaxBCZAAAAAAAAAAAAAAA",
"FAAAAAAAAAAAAAAAVmkf53<&*$$@>cAAZe;;;--7890iplMBZAAAAAAAAAAAAAAA",
"FAAAAAAAAAAAAAAZNkgt3<&%$$@,zAAAZe=;;--7780qudxBCAAAAAAAAAAAAAAA",
"FAAAAAAAAAAAAAADmkt52&%$$@&zAAAAZe=;;;--7880ipvMCZAAAAAAAAAAAAAA",
"FAAAAAAAAAAAAAZVzg63<%$$$ 4SAAAAZe==;;--7780qulMCZAAAAAAAAAAAAAA",
"FAAAAAAAAAAAAASmkf52&%$XX $nAZAAZe==;;--7789qudbBSAAAAAAAAAAAAAA",
"FAAAAAAAAAAAAADnht3<%$.XX @yNjZAZe==;;---7780iaxBCAAAAAAAAAAAAAA",
"FAAAAAAAAAAAAAVzg63&%$.XX @*1rAAZe===;---7780spxNCZAAAAAAAAAAAAA",
"FAAAAAAAAAAAAZNkf52%%.XXX @@#rAAZe===;---7780splMCZAAAAAAAAAAAAA",
"FAAAAAAAAAAAAZNkt3<%$.XXX @@#rAAZe===;---7780qplMCZAAAAAAAAAAAAA",
"FAAAAAAAAAAAAZmht3<%$.XXX @@#rAAZe#==;---7780qplMCZAAAAAAAAAAAAA",
"FAAAAAAAAAAAASnht3<%..XOOX @#rAAZe#===;--7780qplMCZAAAAAAAAAAAAA",
"FAAAAAAAAAAAASnht3&%..XOOO @#rAAZe#===;---780splMCZAAAAAAAAAAAAA",
"FAAAAAAAAAAAASnht3&%..OOOO+@#rAAZe#===;---780spxMCZAAAAAAAAAAAAA",
"FAAAAAAAAAAAASnht3&%..OOOOO@@rAAZe#===;;--780iaxMCZAAAAAAAAAAAAA",
"FAAAAAAAAAAAAZnht3<%..OOOOO @rAAZe#===;;-789qudxMCZAAAAAAAAAAAAA",
"FAAAAAAAAAAAAZmht4<%$.XOOOO @rAAZe#===;;-789qulbBCZAAAAAAAAAAAAA",
"FAAAAAAAAAAAAANkt4<%$..OOOO  5AAZr#===;;-880splbBCAAAAAAAAAAAAAA",
"FAAAAAAAAAAAAAVvf52&%..OOOOX 5AAZr#===;;;89quaxMBZAAAAAAAAAAAAAA",
"FAAAAAAAAAAAAACzg53&%$..OOOX 5AAZr#===;;880splcNCZAAAAAAAAAAAAAA",
"FAAAAAAAAAAAAAZnht3<%%..XOOo5mAAAcr===::89quaxbBCZAAAAAAAAAAAAAA",
"FAAAAAAAAAAAAAANkf53&%$..XXhZAAAAADr=:::9qiplxMCZAAAAAAAAAAAAAAA",
"FAAAAAAAAAAAAAACzht32&%o...kAAAAAAAa=::9wsuaxMBCZAAAAAAAAAAAAAAA",
"FAAAAAAAAAAAAAAZmkf53<%%o..kSDDDDDDy::9weualbNCZAAAAAAAAAAAAAAAA",
"FAAAAAAAAAAAAAAAVzht52<%%$$<3334414>>>weualcMBCZAAAAAAAAAAAAAAAA",
"FAAAAAAAAAAAAAAAZNkgt32<%%%$$$$$$**>>wrualxMBCZAAAAAAAAAAAAAAAAA",
"FAAAAAAAAAAAAAAAADnkf6332<&%%%%&&&>1rrpalcMBCZAAAAAAAAAAAAAAAAAA",
"FAAAAAAAAAAAAAAAAZVnhf65322<<<<<114ryajvcMCSZAAAAAAAAAAAAAAAAAAA",
"FAAAAAAAAAAAAAAAAAZNzkgt6533333445yyjvcnNCZAAAAAAAAAAAAAAAAAAAAA",
"FAAAAAAAAAAAAAAAAAASNnkhft665556ttgjznNVSZAAAAAAAAAAAAAAAAAAAAAA",
"FAAAAAAAAAAAAAAAAAAASNmkkhgffffghhvnNNCZAAAAAAAAAAAAAAAAAAAAAAAA",
"FAAAAAAAAAAAAAAAAAAAASVmmkkkkkkkznmNCSZAAAAAAAAAAAAAAAAAAAAAAAAA",
"FAAAAAAAAAAAAAAAAAAAAAZDVmmmmmmmNVCSZAAAAAAAAAAAAAAAAAAAAAAAAAAA",
"FAAAAAAAAAAAAAAAAAAAAAAASDVVVVVVDZZAAAAAAAAAAAAAAAAAAAAAAAAAAAAA",
"FAAAAAAAAAAAAAAAAAAAAAAAAAZSSSZZAAAAAAAAAAAAAAAAAAAAAAAAAAAAAAAA",
"FAAAAAAAAAAAAAAAAAAAAAAAAAAAAAAAAAAAAAAAAAAAAAAAAAAAAAAAAAAAAAAA"
};
