/* XPM */
static char *La__[] = {
/* columns rows colors chars-per-pixel */
"64 48 82 1",
"  c #43BBC6",
". c #45BEC9",
"X c #4BBDCB",
"o c #55BDCD",
"O c #45C2CD",
"+ c #4BC1CE",
"@ c #47C6D1",
"# c #4AC6D3",
"$ c #47C8D4",
"% c #49CAD5",
"& c #4ACEDA",
"* c #53C6D4",
"= c #51C9D5",
"- c #51CEDA",
"; c #5ECDD9",
": c #4BD2DE",
"> c #55D3DF",
", c #5BD2DD",
"< c #60C2D1",
"1 c #67CBD5",
"2 c #6AC9D4",
"3 c #70C7D5",
"4 c #79C8DA",
"5 c #6CD3DF",
"6 c #4CD5E1",
"7 c #52D5E1",
"8 c #5DD6E1",
"9 c #55D8E3",
"0 c #63D6E1",
"q c #6BD5E1",
"w c #65DAE5",
"e c #6ADAE4",
"r c #72D7E2",
"t c #75DEE6",
"y c #7ADDE6",
"u c #74DFE8",
"i c #7BE0E9",
"p c #84D7DF",
"a c #90D4DF",
"s c #98D4DF",
"d c #84D4E0",
"f c #8CD7E3",
"g c #85DBE4",
"h c #8CDAE5",
"j c #9AD6E3",
"k c #92D8E5",
"l c #9BDBE5",
"z c #ABDCE6",
"x c #AFDAE8",
"c c #82E2EA",
"v c #97E0E6",
"b c #9CE1E7",
"n c #94E3EA",
"m c #9BE3E9",
"M c #AEE3E7",
"N c #A4E4EA",
"B c #A5E8EC",
"V c #B0E0E6",
"C c #B5E5EA",
"Z c #B8E5E8",
"A c #B5EAEE",
"S c #BDEAEE",
"D c #B7ECF0",
"F c #BEEDF0",
"G c #C8ECEE",
"H c #D1EBEE",
"J c #C5EFF0",
"K c #CBEDF0",
"L c #D4EFF1",
"P c #C6F0F1",
"I c #CCF1F1",
"U c #D3F1F2",
"Y c #DBF3F4",
"T c #E3F4F4",
"R c #EAF6F6",
"E c #EFF8F6",
"W c #F0F7F6",
"Q c #F1F8F7",
"! c #F9FAF7",
"~ c #F6F9F8",
"^ c #FBFBF9",
"/ c None",
/* pixels */
"////////////////////////////////////////////////////////////////",
"////////////////////////////////////////////////////////////////",
"////////////////////////////////////////////////////////////////",
"////////////////////////////////////////////////////////////////",
"///////////////////////////////666666666666/////////////////////",
"///////////////////////////666666666666666669///////////////////",
"///////////////////////666666666666666666666666/////////////////",
"/////////////////////666666666666696666666666666////////////////",
"///////////////////666666666666666666666666666666///////////////",
"/////////////////666666666666666669666666666666669//////////////",
"////////////////66666766666666666666666666666666666/////////////",
"///////////////666666666966666666666666666666666669/////////////",
"//////////////666666666666669wiciuw96666666666666666////////////",
"/////////////666666666:6669wmJYYYYPBi966666666666666////////////",
"////////////666666666:6:66uFR!^!^^^QPc96666666666666////////////",
"////////////666666::6::::qF~^^~RQ~^^~Ii66666666666669///////////",
"///////////6666:6:::::::>mR^!EFnnPQ^^WB96666666666669///////////",
"///////////666666:::::::5G!!QAq76iU!^~Pw6666666666696///////////",
"///////////666::::::&::&5STWLy&669D^^^Kw6666666666666///////////",
"//////////666:6:::::&&&%-5flh,&&&wP^^!Jw6666666666669///////////",
"//////////66:::::::&&%%%&#&--&%&8mR^^QB966666666666666//////////",
"//////////6:::::&:%&%%%%#@$$$$%>kY^^!Uy666666666666666//////////",
"//////////66::::&%%%%%##@@@@@#;mY^^~Rn6:66666666666666//////////",
"//////////:::::&:%%%@#OOOOO.@;NT^^~RN8::6666666666666///////////",
"//////////6:::&:%%%@OOOOOO +1MR!^^YN,:&::666666666669///////////",
"//////////::::&%%%@@OOOO  +2ZE!!~Yv,::::::66666666666///////////",
"//////////6::%%:%%@OOO    2ZE!^~Uh-%%&&::66:666666666///////////",
"//////////:::::%%@@O+    <VE^^~Hg=#%%%::::66666666696///////////",
"//////////:::&%%@@OOO   XsR!!!Hd*#%%:&::::66666666669///////////",
"//////////:::&&%@@OOO   3H!!^QSkffhhhgq>666666666666////////////",
"///////////::&%%%@OO    aW!!^!ERRRRRTTC0666666666666////////////",
"///////////:&&%%@@OO   +VW!!^^^^^^^^^^J066666666666/////////////",
"///////////:&:&%@@@..  oxRQEWWWWQQQQEES0::666666666/////////////",
"///////////::&&%$@@O.  X4jjjjjllllllmng>::66666666//////////////",
"////////////:&&%$@@.O..  XXXX++#*#-%-7:::6:6666766//////////////",
"////////////:&&%$#@@@..    ...OO@@$&&&&:::6666666///////////////",
"/////////////:&&&$@@OO.....@OOO@@$%&&&6::6666666////////////////",
"/////////////:&&&$%$@O@O..@.OOO#$$&&&&&6:666666/////////////////",
"//////////////:&&%%%$@@@@.@@@@@%%&&&&:6::66666//////////////////",
"///////////////:&&&%$$@$@@@@$@%%%&&&::&66666////////////////////",
"////////////////:&&%&%%%%%%%%%%%&&&:::6666//////////////////////",
"/////////////////:&&&%%%%%%%%%&&&::::::6////////////////////////",
"///////////////////:&&:&&%&&:&&&::::////////////////////////////",
"/////////////////////&:&&:&&&:://///////////////////////////////",
"////////////////////////////////////////////////////////////////",
"////////////////////////////////////////////////////////////////",
"////////////////////////////////////////////////////////////////",
"////////////////////////////////////////////////////////////////"
};
