/* XPM */
static char *LA_OTRA[] = {
/* columns rows colors chars-per-pixel */
"64 48 189 2",
"   c #CC102A",
".  c #CD102A",
"X  c #CD112B",
"o  c #CD112C",
"O  c #CD122C",
"+  c #CD122D",
"@  c #CD132D",
"#  c #CD132E",
"$  c #CD142E",
"%  c #CD142F",
"&  c #CD152F",
"*  c #CE142E",
"=  c #CE142F",
"-  c #CE152F",
";  c #CE162F",
":  c #CE1630",
">  c #CE1730",
",  c #CE1731",
"<  c #CE1831",
"1  c #CE1832",
"2  c #CE1932",
"3  c #CE1933",
"4  c #CE1A33",
"5  c #CF1A33",
"6  c #CF1A34",
"7  c #CF1B34",
"8  c #CF1C34",
"9  c #CF1C35",
"0  c #CF1C36",
"q  c #CF1D36",
"w  c #CF1D37",
"e  c #CF1E37",
"r  c #CF1F38",
"t  c #D01E37",
"y  c #D01F37",
"u  c #D01F38",
"i  c #D02038",
"p  c #D02039",
"a  c #D02139",
"s  c #D0213A",
"d  c #D0223A",
"f  c #D0223B",
"g  c #D0233B",
"h  c #D1233B",
"j  c #D1233C",
"k  c #D0243C",
"l  c #D1243C",
"z  c #D1243D",
"x  c #D1253D",
"c  c #D1253E",
"v  c #D1263E",
"b  c #D1273E",
"n  c #D1263F",
"m  c #D1273F",
"M  c #D12740",
"N  c #D22940",
"B  c #D22941",
"V  c #D22A41",
"C  c #D22A42",
"Z  c #D22B42",
"A  c #D22B43",
"S  c #D32B43",
"D  c #D22C43",
"F  c #D22D44",
"G  c #D22D45",
"H  c #D32E45",
"J  c #D32F46",
"K  c #D32F47",
"L  c #D33047",
"P  c #D33147",
"I  c #D33148",
"U  c #D33248",
"Y  c #D43249",
"T  c #D43349",
"R  c #D4334A",
"E  c #D4344B",
"W  c #D4354C",
"Q  c #D4364C",
"!  c #D5364D",
"~  c #D5374D",
"^  c #D4374E",
"/  c #D4384E",
"(  c #D5384E",
")  c #D5394F",
"_  c #D53A50",
"`  c #D53B51",
"'  c #D63C51",
"]  c #D63C52",
"[  c #D64055",
"{  c #D74459",
"}  c #D84459",
"|  c #D8465B",
" . c #D8485D",
".. c #D94A5F",
"X. c #D94C60",
"o. c #D94D60",
"O. c #DA4E61",
"+. c #DA4E62",
"@. c #DA5064",
"#. c #DA5164",
"$. c #DA5265",
"%. c #DA5266",
"&. c #DA5367",
"*. c #DB5467",
"=. c #DB5568",
"-. c #DC5A6C",
";. c #DC5C6D",
":. c #DD5D6F",
">. c #DE6173",
",. c #DE6273",
"<. c #DE6475",
"1. c #DF6879",
"2. c #DF6A7A",
"3. c #DF6A7B",
"4. c #E06C7C",
"5. c #E27786",
"6. c #E27887",
"7. c #E27988",
"8. c #E37B8A",
"9. c #E37D8B",
"0. c #E47F8D",
"q. c #E58391",
"w. c #E58693",
"e. c #E58694",
"r. c #E58794",
"t. c #E68996",
"y. c #E68A97",
"u. c #E78D9A",
"i. c #E997A2",
"p. c #E99AA5",
"a. c #EA9FA9",
"s. c #EA9FAA",
"d. c #EBA0AA",
"f. c #EBA2AC",
"g. c #EBA3AD",
"h. c #ECA5AF",
"j. c #ECA6B0",
"k. c #ECA7B1",
"l. c #EEADB6",
"z. c #EEB2BA",
"x. c #EFB3BB",
"c. c #EFB4BD",
"v. c #F0BCC3",
"b. c #F1C0C7",
"n. c #F2C3CA",
"m. c #F2C4CA",
"M. c #F2C4CB",
"N. c #F3C8CE",
"B. c #F3C9CF",
"V. c #F4CBD1",
"C. c #F4CCD2",
"Z. c #F5D2D7",
"A. c #F6D5D9",
"S. c #F6D5DA",
"D. c #F6D7DB",
"F. c #F6D8DC",
"G. c #F7D9DD",
"H. c #F7DBDF",
"J. c #F8E1E4",
"K. c #F9E6E9",
"L. c #FAE7E9",
"P. c #FAE7EA",
"I. c #FAEAEC",
"U. c #FAEAED",
"Y. c #FAEBED",
"T. c #FBECEE",
"R. c #FBEDEF",
"E. c #FBEFF1",
"W. c #FCF0F2",
"Q. c #FCF2F4",
"!. c #FCF3F4",
"~. c #FCF3F5",
"^. c #FCF4F5",
"/. c #FCF4F6",
"(. c #FDF5F6",
"). c #FDF6F7",
"_. c #FDF7F7",
"`. c #FDF7F8",
"'. c #FDF8F8",
"]. c #FEFAFA",
"[. c #FEFBFB",
"{. c #FEFBFC",
"}. c #FEFCFC",
"|. c #FEFDFD",
" X c #FEFDFE",
".X c #FEFEFE",
"XX c #FFFEFF",
"oX c #FFFFFF",
"OX c None",
/* pixels */
"OXOXOXOXOXOXOXOXOXOXOXOXOXOXOXOXOXOXOXOXOXOX$ $ $ $ $ $ $ $ $ $ $ : $ $ 0 E : $ $ $ OXOXOXOXOXOXOXOXOXOXOXOXOXOXOXOXOXOXOXOXOXOX",
"OXOXOXOXOXOXOXOXOXOXOXOXOXOXOXOXOXOXOXOXOX4 $ : $ $ : $ $ : $ $ $ $ $ + Y 9.u $ $ $ 4 OXOXOXOXOXOXOXOXOXOXOXOXOXOXOXOXOXOXOXOXOX",
"OXOXOXOXOXOXOXOXOXOXOXOXOXOXOXOXOXOXOXOXOX: $ $ $ $ $ $ $ $ $ $ $ $ $ + >.A.[ + $ $ $ i OXOXOXOXOXOXOXOXOXOXOXOXOXOXOXOXOXOXOXOX",
"OXOXOXOXOXOXOXOXOXOXOXOXOXOXOXOXOXOXOXOX0 $ $ $ $ $ $ $ $ $ $ $ $ $ $ 4 s.[.9.+ $ $ $ 0 OXOXOXOXOXOXOXOXOXOXOXOXOXOXOXOXOXOXOXOX",
"OXOXOXOXOXOXOXOXOXOXOXOXOXOXOXOXOXOXOXOX4 $ $ : : $ $ $ $ $ : $ $ $ + U A..Xv.x + $ $ : OXOXOXOXOXOXOXOXOXOXOXOXOXOXOXOXOXOXOXOX",
"OXOXOXOXOXOXOXOXOXOXOXOXOXOXOXOXOXOXOXOX: $ $ $ $ $ $ $ $ $ $ $ $ $ + <.^..XY.X.+ $ $ : i OXOXOXOXOXOXOXOXOXOXOXOXOXOXOXOXOXOXOX",
"OXOXOXOXOXOXOXOXOXOXOXOXOXOXOXOXOXOXOXi $ $ $ $ $ $ $ $ : $ $ $ $ $ 4 f..X.X.Xu.$ $ $ $ 6 OXOXOXOXOXOXOXOXOXOXOXOXOXOXOXOXOXOXOX",
"OXOXOXOXOXOXOXOXOXOXOXOXOXOXOXOXOXOXOX6 $ $ $ $ $ $ $ : $ $ $ $ $ + Q F..X.X.XV.F + $ $ 4 OXOXOXOXOXOXOXOXOXOXOXOXOXOXOXOXOXOXOX",
"OXOXOXOXOXOXOXOXOXOXOXOXOXOXOXOXOXOXOX: $ $ $ $ $ $ $ $ $ $ $ $ $ + 1.`..X.X.X!.:.+ $ $ : i OXOXOXOXOXOXOXOXOXOXOXOXOXOXOXOXOXOX",
"OXOXOXOXOXOXOXOXOXOXOXOXOXOXOXOXOXOXu $ $ $ $ $ $ $ $ $ $ $ $ $ $ 6 k..X.X.X.X.Xd.4 $ $ $ 6 OXOXOXOXOXOXOXOXOXOXOXOXOXOXOXOXOXOX",
"OXOXOXOXOXOXOXOXOXOXOXOXOXOXOXOXOXOX6 $ $ $ + $ + + + + + + X +   Q F..X.X.X.X.XF.Q   + + $ OXOXOXOXOXOXOXOXOXOXOXOXOXOXOXOXOXOX",
"OXOXOXOXOXOXOXOXOXOXOXOXOXOXOXOXOXOX4 $ : Q X.X.X.X.X.............w.[..X.X.X.X.X`.y.X.@.#.#.OXOXOXOXOXOXOXOXOXOXOXOXOXOXOXOXOXOX",
"OXOXOXOXOXOXOXOXOXOXOXOXOXOXOXOXOXi $ $ $ | c.Y.R.R.Y.Y.Y.Y.Y.Y.I.!..X.X.X.X.X.X.X^.R.R.E.R.R.OXOXOXOXOXOXOXOXOXOXOXOXOXOXOXOXOX",
"OXOXOXOXOXOXOXOXOXOXOXOXOXOXOXOXOX6 $ $ $ + Q f.^..X.X.X.X.X.X.X.X.X.X.X.X.X.X.X.X.X.X.X.X.X.XOXOXOXOXOXOXOXOXOXOXOXOXOXOXOXOXOX",
"OXOXOXOXOXOXOXOXOXOXOXOXOXOXOXOXOX4 : + $ $ + i 7.J..X.X.X.X.X.X.X.X.X.X.X.X.X.X.X.X.X.X.X.X.XOXOXOXOXOXOXOXOXOXOXOXOXOXOXOXOXOX",
"OXOXOXOXOXOXOXOXOXOXOXOXOXOXOXOXOX: $ : $ $ $ $ : #.n..X.X.X.X.X.X.X.X.X.X.X.X.X.X.X.X.X.X.X.XW.OXOXOXOXOXOXOXOXOXOXOXOXOXOXOXOX",
"OXOXOXOXOXOXOXOXOXOXOXOXOXOXOXOX0 $ $ $ $ : $ $ $ $ E s.!..X.X.X.X.X.X.X.X.X.X.X.X.X.X.X.X.XJ.0.OXOXOXOXOXOXOXOXOXOXOXOXOXOXOXOX",
"OXOXOXOXOXOXOXOXOXOXOXOXOXOXOXOX4 $ $ $ $ $ $ $ $ $ + i 5.J..X.X.X.X.X.X.X.X.X.X.X.X.X.X.XV.#.4 OXOXOXOXOXOXOXOXOXOXOXOXOXOXOXOX",
"OXOXOXOXOXOXOXOXOXOXOXOXOXOXOXOX$ $ $ $ $ : $ $ $ $ $ $ : #.m.[..X.X.X.X.X.X.X.X.X.X.X^.k.Q + $ 0 OXOXOXOXOXOXOXOXOXOXOXOXOXOXOX",
"OXOXOXOXOXOXOXOXOXOXOXOXOXOXOX0 $ $ $ $ $ $ $ $ $ $ $ : $ X X.P..X.X.X.X.X.X.X.X.X.X.Xn.C + $ $ 4 OXOXOXOXOXOXOXOXOXOXOXOXOXOXOX",
"OXOXOXOXOXOXOXOXOXOXOXOXOXOXOX4 $ $ $ $ $ $ $ $ $ $ $ $ $ + >.^..X.X.X.X.X.X.X.X.X.X.XF.( + $ $ $ OXOXOXOXOXOXOXOXOXOXOXOXOXOXOX",
"OXOXOXOXOXOXOXOXOXOXOXOXOXOXOX4 $ $ $ $ $ $ $ : $ $ $ $ $ : p..X.X.X.X.X.X.X.X.X.X.X.X`.1.+ $ $ 4 OXOXOXOXOXOXOXOXOXOXOXOXOXOXOX",
"OXOXOXOXOXOXOXOXOXOXOXOXOXOXOXOX0 $ $ $ $ $ $ $ $ $ $ $ + D C..X.X.X.X.X.X.X.X.X.X.X.X.Xh.6 $ 6 OXOXOXOXOXOXOXOXOXOXOXOXOXOXOXOX",
"OXOXOXOXOXOXOXOXOXOXOXOXOXOXOXOXOXi 4 $ $ $ $ $ $ $ $ $ + *.W..X.X.X.X.X{.R..X.X.X.X.X.XF._ 4 OXOXOXOXOXOXOXOXOXOXOXOXOXOXOXOXOX",
"OXOXOXOXOXOXOXOXOXOXOXOXOXOXOXOXOXOXOX4 $ $ $ $ $ $ $ $ $ y..X.X.X.X.XW.i.*.l.`..X.X.X.X^.w.OXOXOXOXOXOXOXOXOXOXOXOXOXOXOXOXOXOX",
"OXOXOXOXOXOXOXOXOXOXOXOXOXOXOXOXOXOXOXOX0 : $ $ $ $ $ $ x v..X.X.X.XA.4.0 + x q.P..X.X[.OXOXOXOXOXOXOXOXOXOXOXOXOXOXOXOXOXOXOXOX",
"OXOXOXOXOXOXOXOXOXOXOXOXOXOXOXOXOXOXOXOXOXi : $ $ $ $ + | P..X.X[.x.[ $ + $ $ 4 -.V.^.OXOXOXOXOXOXOXOXOXOXOXOXOXOXOXOXOXOXOXOXOX",
"OXOXOXOXOXOXOXOXOXOXOXOXOXOXOXOXOXOXOXOXOXOXOX4 $ $ $ + 6..X.XP.w.C + $ $ $ $ $ 4 OXOXOXOXOXOXOXOXOXOXOXOXOXOXOXOXOXOXOXOXOXOXOX",
"OXOXOXOXOXOXOXOXOXOXOXOXOXOXOXOXOXOXOXOXOXOXOXOX0 : $ 0 x..XB.-.4 $ $ $ $ $ : 6 OXOXOXOXOXOXOXOXOXOXOXOXOXOXOXOXOXOXOXOXOXOXOXOX",
"OXOXOXOXOXOXOXOXOXOXOXOXOXOXOXOXOXOXOXOXOXOXOXOXOXi $ ' Z.f.Q $ $ $ $ $ $ : t OXOXOXOXOXOXOXOXOXOXOXOXOXOXOXOXOXOXOXOXOXOXOXOXOX",
"OXOXOXOXOXOXOXOXOXOXOXOXOXOXOXOXOXOXOXOXOXOXOXOXOXOXOX:.4.i + $ $ $ $ $ 4 OXOXOXOXOXOXOXOXOXOXOXOXOXOXOXOXOXOXOXOXOXOXOXOXOXOXOX",
"OXOXOXOXOXOXOXOXOXOXOXOXOXOXOXOXOXOXOXOXOXOXOXOXOXOXOXOXi $ $ $ $ $ $ 6 OXOXOXOXOXOXOXOXOXOXOXOXOXOXOXOXOXOXOXOXOXOXOXOXOXOXOXOX",
"OXOXOXOXOXOXOXOXOXOXOXOXOXOXOXOXOXOXOXOXOXOXOXOXOXOXOXOXOXi 4 $ $ : t OXOXOXOXOXOXOXOXOXOXOXOXOXOXOXOXOXOXOXOXOXOXOXOXOXOXOXOXOX",
"OXOXOXOXOXOXOXOXOXOXOXOXOXOXOXOXOXOXOXOXOXOXOXOXOXOXOXOXOXOXOX6 4 OXOXOXOXOXOXOXOXOXOXOXOXOXOXOXOXOXOXOXOXOXOXOXOXOXOXOXOXOXOXOX",
"OXOXOXOXOXOXOXOXOXOXOXOXOXOXOXOXOXOXOXOXOXOXOXOXOXOXOXOXOXOXOXOXOXOXOXOXOXOXOXOXOXOXOXOXOXOXOXOXOXOXOXOXOXOXOXOXOXOXOXOXOXOXOXOX",
"OXOXOXOXOXOXOXOXOXOXOXOXOXOXOXOXOXOXOXOXOXOXOXOXOXOXOXOXOXOXOXOXOXOXOXOXOXOXOXOXOXOXOXOXOXOXOXOXOXOXOXOXOXOXOXOXOXOXOXOXOXOXOXOX",
"OXOXOXOXOXOXOXOXOXOXOXOXOXOXOXOXOXOXOXOXOXOXOXOXOXOXOXOXOXOXOXOXOXOXOXOXOXOXOXOXOXOXOXOXOXOXOXOXOXOXOXOXOXOXOXOXOXOXOXOXOXOXOXOX",
"OXOXOXOXOXOXOXOXOXOXOXOXOXOXOXOXOXOXOXOXOXOXOXOXOXOXOXOXOXOXOXOXOXOXOXOXOXOXOXOXOXOXOXOXOXOXOXOXOXOXOXOXOXOXOXOXOXOXOXOXOXOXOXOX",
"OXOXOXOXOXOXOXOXOXOXOXOXOXOXOXOXOXOXOXOXOXOXOXOXOXOXOXOXU U L OXOXOXOXOXOXOXOXOXOXOXOXOXOXOXOXOXOXOXOXOXOXOXOXOXOXOXOXOXOXOXOXOX",
"OXOXOXOXOXOXOXOXOXOXOXOXOXOX_ M OXOXOXOXOXOXOXOXOXOXOXi i x i u L OXOXOXx OXOXOXOXOXOXOXOXOXOXOXOXOXOXOXOXOXOXOXOXOXOXOXOXOXOXOX",
"OXOXOXOXOXOXOXOXOXOXOXOXOXOXQ x OXOXOXOXOXOXOXOXOXOXi C OXOXOXC 0 OXOXOXu ( OXOXOXOXOXOXOXOXOXOXOXOXOXOXOXOXOXOXOXOXOXOXOXOXOXOX",
"OXOXOXOXOXOXOXOXOXOXOXOXOXOX( x OXOXC 0 i j x x OXF i OXOXOXOXOXx C OXF : i OXY u x OXOXi u i C j OXOXOXOXOXOXOXOXOXOXOXOXOXOXOX",
"OXOXOXOXOXOXOXOXOXOXOXOXOXOX( x OXU 0 OXOXOX0 0 OXx C OXOXOXOXOXL j OXOXi _ OXC t OXOXx x OXOXF 4 OXOXOXOXOXOXOXOXOXOXOXOXOXOXOX",
"OXOXOXOXOXOXOXOXOXOXOXOXOXOXQ x OXC C OXOXOXC u OXC x OXOXOXOXOXF i OXOXj OXOXD C OXOX0 OXOXOXOXi OXOXOXOXOXOXOXOXOXOXOXOXOXOXOX",
"OXOXOXOXOXOXOXOXOXOXOXOXOXOXQ x OXM C OXOXOXD u OXU i OXOXOXOXOXx C OXOXx OXOXC C OXOXt OXOXOXOXx OXOXOXOXOXOXOXOXOXOXOXOXOXOXOX",
"OXOXOXOXOXOXOXOXOXOXOXOXOXOX( x OXU i OXOXOXt 0 OXOXi x OXOXOXx i OXOXOXi OXOXC C OXOXx x OXOXY 6 OXOXOXOXOXOXOXOXOXOXOXOXOXOXOX",
"OXOXOXOXOXOXOXOXOXOXOXOXOXOX' C OXOXx i x C x i OXOXOXi u i u i OXOXOXOXC OXOXL P OXOXOXu i x x i OXOXOXOXOXOXOXOXOXOXOXOXOXOXOX",
"OXOXOXOXOXOXOXOXOXOXOXOXOXOXOXOXOXOXOXU L OXOXOXOXOXOXOXOXU Y OXOXOXOXOXOXOXOXOXOXOXOXOXOXY E OXOXOXOXOXOXOXOXOXOXOXOXOXOXOXOXOX"
};
