/* XPM */
static char *LA_OTRA[] = {
/* columns rows colors chars-per-pixel */
"64 48 57 1",
"  c #CE152F",
". c #CE1731",
"X c #CF1B34",
"o c #D01F38",
"O c #D1253D",
"+ c #D32D44",
"@ c #D43148",
"# c #D5354C",
"$ c #D5394F",
"% c #D63C52",
"& c #D74157",
"* c #D84459",
"= c #D8465B",
"- c #D9495E",
"; c #DA4D61",
": c #DB5265",
"> c #DC576A",
", c #DC5B6D",
"< c #DD5F71",
"1 c #DE6375",
"2 c #E0697A",
"3 c #E06D7D",
"4 c #E27685",
"5 c #E37887",
"6 c #E47C8B",
"7 c #E5818F",
"8 c #E58593",
"9 c #E68996",
"0 c #E78D9A",
"q c #E8919D",
"w c #E8939F",
"e c #E996A2",
"r c #EA9BA6",
"t c #EB9EA9",
"y c #ECA3AD",
"u c #ECA7B0",
"i c #EDABB5",
"p c #EEAFB8",
"a c #EFB4BC",
"s c #F0B8C0",
"d c #F1BCC3",
"f c #F2C1C8",
"g c #F2C3CA",
"h c #F4C9CF",
"j c #F5CED3",
"k c #F5D1D6",
"l c #F6D6DA",
"z c #F7DADE",
"x c #F8DDE1",
"c c #F8DFE3",
"v c #F9E3E6",
"b c #FAE7E9",
"n c #FBEBED",
"m c #FCEFF1",
"M c #FDF3F5",
"N c #FDF8F8",
"B c #FFFFFF",
/* pixels */
"BBBBBBBBBBBBBBBBBBBBN>               %=    #vBBBBBBBBBBBBBBBBBBB",
"BBBBBBBBBBBBBBBBBBBBl+               6r    XaBBBBBBBBBBBBBBBBBBB",
"BBBBBBBBBBBBBBBBBBBBt               ogx+    4BBBBBBBBBBBBBBBBBBB",
"BBBBBBBBBBBBBBBBBBBN<               =mB2    %bBBBBBBBBBBBBBBBBBB",
"BBBBBBBBBBBBBBBBBBBz+               8BBaX   XaBBBBBBBBBBBBBBBBBB",
"BBBBBBBBBBBBBBBBBBBy.              OhBBn%    4BBBBBBBBBBBBBBBBBB",
"BBBBBBBBBBBBBBBBBBN1               -MBBB8    %bBBBBBBBBBBBBBBBBB",
"BBBBBBBBBBBBBBBBBBx@               wBBBBhO   XaBBBBBBBBBBBBBBBBB",
"BBBBBBBBBBBBBBBBBBu.              OkBBBBM:    4BBBBBBBBBBBBBBBBB",
"BBBBBBBBBBBBBBBBBB2               >NBBBBBr    %bBBBBBBBBBBBBBBBB",
"BBBBBBBBBBBBBBBBBv#  .            rBBBBBBz+   XaBBBBBBBBBBBBBBBB",
"BBBBBBBBBBBBBBBBBp.  =wrrrrreeeeerbBBBBBBNattttjBBBBBBBBBBBBBBBB",
"BBBBBBBBBBBBBBBBB3   o5bBBBBBBBBBBBBBBBBBBBBBBBNBBBBBBBBBBBBBBBB",
"BBBBBBBBBBBBBBBBv$     -gBBBBBBBBBBBBBBBBBBBBBBBNBBBBBBBBBBBBBBB",
"BBBBBBBBBBBBBBBBaX      +eMBBBBBBBBBBBBBBBBBBBBBNBBBBBBBBBBBBBBB",
"BBBBBBBBBBBBBBBB4        .1zBBBBBBBBBBBBBBBBBBBBvMBBBBBBBBBBBBBB",
"BBBBBBBBBBBBBBBb%          %aBBBBBBBBBBBBBBBBBBd-dBBBBBBBBBBBBBB",
"BBBBBBBBBBBBBBBsX           O9nBBBBBBBBBBBBBBMwO 5BBBBBBBBBBBBBB",
"BBBBBBBBBBBBBBB5              ,zBBBBBBBBBBBBv1.  &bBBBBBBBBBBBBB",
"BBBBBBBBBBBBBBb&               yBBBBBBBBBBBBa    XaBBBBBBBBBBBBB",
"BBBBBBBBBBBBBBaX              +lBBBBBBBBBBBBv#    3BBBBBBBBBBBBB",
"BBBBBBBBBBBBBBj;              >NBBBBBBBBBBBBB3   %aBBBBBBBBBBBBB",
"BBBBBBBBBBBBBBBb5o            wBBBBBBBBBBBBBBaXX1zBBBBBBBBBBBBBB",
"BBBBBBBBBBBBBBBBNi#          OjBBBBBBvzBBBBBBv;wMBBBBBBBBBBBBBBB",
"BBBBBBBBBBBBBBBBBBl,.        ;MBBBBBd=@uNBBBBNvBBBBBBBBBBBBBBBBB",
"BBBBBBBBBBBBBBBBBBBm0O       8BBBBn9O .X4vBBNBBBBBBBBBBBBBBBBBBB",
"BBBBBBBBBBBBBBBBBBBBBd&     ogBBBj>      =hNBBBBBBBBBBBBBBBBBBBB",
"BBBBBBBBBBBBBBBBBBBBBBv3X   &nBMt+      .:kBBBBBBBBBBBBBBBBBBBBB",
"BBBBBBBBBBBBBBBBBBBBBBBNt+  5Bz2X      O7nBBBBBBBBBBBBBBBBBBBBBB",
"BBBBBBBBBBBBBBBBBBBBBBBBBj:Xaa%       %aNBBBBBBBBBBBBBBBBBBBBBBB",
"BBBBBBBBBBBBBBBBBBBBBBBBBBnw4O      X1zBBBBBBBBBBBBBBBBBBBBBBBBB",
"BBBBBBBBBBBBBBBBBBBBBBBBBBBBp$     OwMBBBBBBBBBBBBBBBBBBBBBBBBBB",
"BBBBBBBBBBBBBBBBBBBBBBBBBBBBBz1X  =sBBBBBBBBBBBBBBBBBBBBBBBBBBBB",
"BBBBBBBBBBBBBBBBBBBBBBBBBBBBBBMw+2vBBBBBBBBBBBBBBBBBBBBBBBBBBBBB",
"BBBBBBBBBBBBBBBBBBBBBBBBBBBBBBBBzMBBBBBBBBBBBBBBBBBBBBBBBBBBBBBB",
"BBBBBBBBBBBBBBBBBBBBBBBBBBBBBBBBBBBBBBBBBBBBBBBBBBBBBBBBBBBBBBBB",
"BBBBBBBBBBBBBBBBBBBBBBBBBBBBBBBBBBBBBBBBBBBBBBBBBBBBBBBBBBBBBBBB",
"BBBBBBBBBBBBBBBBBBBBBBBBBBBBBBBBBBBBBBBBBBBBBBBBBBBBBBBBBBBBBBBB",
"BBBBBBBBBBBBBBdyNBBBBBBBBBBve21wxBBBhrMBBBBBBBBBBBBBBBBBBBBBBBBB",
"BBBBBBBBBBBBBB4=nBBBBBBBBBj=+>,+&hBBw%bBBBBBBBBBBBBBBBBBBBBBBBBB",
"BBBBBBBBBBBBBB5=MBby8axgNn:%gNNh=;nM2+aNggiNNg9wlhzBBBBBBBBBBBBB",
"BBBBBBBBBBBBBB5=Nv>O=%$$baOpBBBBaOal@.,x=O>my+#&%+0BBBBBBBBBBBBB",
"BBBBBBBBBBBBBB5=MqOpMl-+ve@xBBBBb#9B8@ln%:vx#1vnwX9BBBBBBBBBBBBB",
"BBBBBBBBBBBBBB5=n1>NBBr@ve+zBBBBx@0Be%nn%0BaOfBBb%9BBBBBBBBBBBBB",
"BBBBBBBBBBBBBB5=n1,NBBe+vgOeBBBBrOdBw%nn%wBaOgBBb%9BBBBBBBBBBBBB",
"BBBBBBBBBBBBBB4=MwOiMk=+vN3+rxvt+3MBw%nn%qBx$1vn0X9BBBBBBBBBBBBB",
"BBBBBBBBBBBBBB6;Mb,O=**$vBb3O##O3bBBr=nn=eBBy+$=-+0BBBBBBBBBBBBB",
"BBBBBBBBBBBBBBksNBbr7axaMBBMd99dMBBBzdNNszBBNs8ezdlBBBBBBBBBBBBB"
};
