/* XPM */
static char *laSexta_[] = {
/* columns rows colors chars-per-pixel */
"64 48 42 1",
"  c #E22E89",
". c #E3338C",
"X c #E4398F",
"o c #E43D92",
"O c #E54495",
"+ c #E64898",
"@ c #E64D9A",
"# c #E7529D",
"$ c #E857A0",
"% c #E859A1",
"& c #E85DA3",
"* c #E963A7",
"= c #EA66A9",
"- c #EB6CAC",
"; c #EB72AF",
": c #EC75B1",
"> c #ED7CB5",
", c #EE85BA",
"< c #EF8CBE",
"1 c #F090C0",
"2 c #F091C1",
"3 c #F095C3",
"4 c #F19BC7",
"5 c #F29FC9",
"6 c #F2A5CC",
"7 c #F3AACF",
"8 c #F4AED1",
"9 c #F4B3D4",
"0 c #F5B9D7",
"q c #F6BDDA",
"w c #F7C5DE",
"e c #F8CBE1",
"r c #F8CEE3",
"t c #F9D3E6",
"y c #FAD7E9",
"u c #FADDEC",
"i c #FBE2EF",
"p c #FCE7F2",
"a c #FCEBF4",
"s c #FDF1F7",
"d c #FEF6FA",
"f c #FFFFFF",
/* pixels */
"ffffffffffffffffffffffffffffffffffffffffffffffffffffffffffffffff",
"fffffffffffffffffffffffsptq6,,affa>,6qtpsfffffffffffffffffffffff",
"ffffffffffffffffsptw7<>*@OX. @pffi+ .XO@*>28wypsffffffffffffffff",
"ffffffffdsitq6<:&@o.         @pffi+        ..o@&:26qtisdffffffff",
"fdait06<;&+o.                @pffi+                .o@&;<60tiadf",
"4;%+o.                       @pffi+                       .o+%;4",
"@                .oo         @pffi+                            $",
"#           @>* o7t>         @pffi+                            $",
"#          Xqf, -da#         @pffi+           X#--&O.          $",
"#          *si@ 8f9.         @pffi+         X>waddsy5#         $",
"#          6f6 #pd-          @pffi+        o6dfffffffi:.       $",
"#         +ud= <fro          @pffi+       .4ffffffffffa:       $",
"#         >fwXorf<           @pffi+       =sfffffffffffu#      $",
"#        Xqf, -di@           @pffi+      .9ffffffddfffff5      $",
"#        &si@.9f6            @pffi+      +iffffa2*;qffffyO     $",
"#        4f7 #pd,@X          @pffi+      &sffff2   Oefffd=     $",
"#       Oyd= 2ffap9@         @pffi+      ;dfffs&    ,ffff>     $",
"#       >feXotfffffwo        @pffi+      $80qeq@    -dfff<     $",
"@      .qf, ;dawqyff>        @pffi+        ..XX.    :ffff,     $",
"@      %ai@.9f3..Owfwo       @pffi+                .7ffff>     $",
"@      3f7 #ap#   :dd-       @pffi+                &afffa$     $",
"@     Otd- 3fr==@ otf9.      @pffi+               OwffffwX     $",
"#     ;deoOtffddt+ <fa%      @pffi+              .4ffffd;      $",
"@    .9f< :dfffff, @if4      @pffi+              :sffff8.      $",
"@    #ap@.0f0220fro 6fu+     @pffi+             #uffffy@       $",
"#    <f8 %ai@  @id; &af,     @pffi+            o0ffffs:        $",
"#   .wd- 4f6.   6f0..0fwX    @pffi+           .3fffff5.        $",
"#   oyuOOyd*    *sa% :fp@    @pffi+           -affffeO         $",
"#   oyuOOua$    +if; *da#    @pffi+          @yffffa*          $",
"@   .wd= 6f2    >fi@ >fp@    @pffi+         X9fffff<           $",
"@    <f6 =dto  Xwf6 Xqfeo    @pffi+         <dffff0o           $",
"@    #au+Xed,@+:da& =sf<     @pffi+        *pffffu#            $",
"@    .0f> <fdpiaf0..7fu@     @pffi+       +rffffd>     ...     $",
"@     :fq.@iffffd; #pf4      @pffi+      .7ffffft;:,2469q;     $",
"#     Oua& -670w6o 4fa$      @pffi+      =sfffffddfffffff<     $",
"#      6f4    .X. +uf8.      @pffi+      :fffffffffffffff<     $",
"#      *su#       ,fs=       @pffi+      :fffffffffffffff<     $",
"#      Xwfy63,:=$-ufqX       @pffi+      :fffffffffffffff<     $",
"#       -afffffdadfd;        @pffi+      :ffffffdsautw84<#     $",
"@       .>ysdffffff7X        @pffi+      =tw973>-*#Oo..        $",
"@         O%-,26qw<o         @pffi+      .o..                  $",
"@               ..           @pffi+                            $",
"2-#OX.                       @pffi+                       .XO#=3",
"fdauw84>=#OX.                @pffi+                .XO$-,49wuadf",
"ffffffffdaue94,-$+X.         @pffi+         .X+%-,49euadffffffff",
"fffffffffffffffdaue05,;%+o.  @pffi+  .o+&;,60riadfffffffffffffff",
"ffffffffffffffffffffffdaue94:>affp:>49euadffffffffffffffffffffff",
"ffffffffffffffffffffffffffffffffffffffffffffffffffffffffffffffff"
};
