/* XPM */
static char *Libertad_Digital_TV[] = {
/* columns rows colors chars-per-pixel */
"64 48 60 1",
"  c #AB2025",
". c #AD252A",
"X c #AF2A2E",
"o c #B02C31",
"O c #B12F33",
"+ c #B23237",
"@ c #B3363B",
"# c #B53A3F",
"$ c #B63E42",
"% c #B84145",
"& c #B84347",
"* c #B9464A",
"= c #BB4A4E",
"- c #BC4E52",
"; c #BE5256",
": c #BF565A",
"> c #C0585C",
", c #C15A5E",
"< c #C25E62",
"1 c #C46265",
"2 c #C56669",
"3 c #C76A6D",
"4 c #C96F72",
"5 c #CA7275",
"6 c #CC777A",
"7 c #CD7A7D",
"8 c #CF7F82",
"9 c #CF8183",
"0 c #D08386",
"q c #D2878A",
"w c #D38A8D",
"e c #D58F92",
"r c #D69295",
"t c #D89799",
"y c #D8989A",
"u c #D99B9D",
"i c #DB9FA1",
"p c #DCA3A5",
"a c #DEA7A9",
"s c #E0ABAD",
"d c #E0ADAF",
"f c #E1AFB1",
"g c #E3B4B5",
"h c #E4B7B9",
"j c #E6BCBD",
"k c #E8C1C2",
"l c #E9C4C6",
"z c #EAC7C9",
"x c #ECCCCD",
"c c #EDCFD1",
"v c #EFD4D5",
"b c #F0D7D8",
"n c #F2DCDD",
"m c #F3DFE0",
"M c #F5E3E4",
"N c #F7EAEB",
"B c #F9EEEF",
"V c #F9F0F0",
"C c #FBF4F4",
"Z c #FFFFFF",
/* pixels */
"ZZZZZZZZZZZZZZZZZZZZZZZZZZMku6<--;16ykMZZZZZZZZZZZZZZZZZZZZZZZZZ",
"ZZZZZZZZZZZZZZZZZZZZZZZNg6*o         o*5gNZZZZZZZZZZZZZZZZZZZZZZ",
"ZZZZZZZZZZZZZZZZZZZZZMy=.               .=tMZZZZZZZZZZZZZZZZZZZZ",
"ZZZZZZZZZZZZZZZZZZZCp*                     &pCZZZZZZZZZZZZZZZZZZ",
"ZZZZZZZZZZZZZZZZZZv2.         .XXX.         .1vZZZZZZZZZZZZZZZZZ",
"ZZZZZZZZZZZZZZZZZj&       X-7uglxlhi7-o       &hZZZZZZZZZZZZZZZZ",
"ZZZZZZZZZZZZZZZZa+      $0zBZZZZZZZZZBz0$      +pZZZZZZZZZZZZZZZ",
"ZZZZZZZZZZZZZZZao     @qnZZZZZZZZZZZZZZZnw@     opZZZZZZZZZZZZZZ",
"ZZZZZZZZZZZZZZh+     ,zZZZZZZZZZZZZZZZZZZZx<     ogZZZZZZZZZZZZZ",
"ZZZZZZZZZZZZZv$    .7NZZZZZZMkprwepkMZZZZZZN8.    $xZZZZZZZZZZZZ",
"ZZZZZZZZZZZZB1    .qCZZZZCl6&X     X&6kCZZZZCw.    ,BZZZZZZZZZZZ",
"ZZZZZZZZZZZZu.    8CZZZZv4o           X3vZZZZC0.    tZZZZZZZZZZZ",
"ZZZZZZZZZZZn$    1BZZZZd$               #aZZZZB2    $bZZZZZZZZZZ",
"ZZZZZZZZZZZw    $vZZZZuo      .o+o.      XtCZZZv$    0ZZZZZZZZZZ",
"ZZZZZZZZZZm$   .tZZZZpX     *0hvbvh0*.    XiZZZZp.   #nZZZZZZZZZ",
"ZZZZZZZZZZp    -NZZZz@    @rMZZZZZZZNt@    +kZZZN;    uZZZZZZZZZ",
"ZZZZZZZZZC1    uZZZB<    *kZZZZZZZZZZZl=    :NZZZp    ,CZZZZZZZZ",
"ZZZZZZZZZv@   #nZZZs.   $zZZZZZZZZZZZZZx$   .pZZZM$   +xZZZZZZZZ",
"ZZZZZZZZZp.   3ZZZC,   .aZZZZCjq6qjCZZZZsX   :CZZZ4   .pZZZZZZZZ",
"ZZZZZZZZZ6    uZZZzo   1CZZZn3X   .2nZZZC2   XlZZZp    5ZZZZZZZZ",
"ZZZZZZZZZ;   XlZZZt   .fZZZN,       :MZZZg.   rZZZlX   =ZZZZZZZZ",
"ZZZZZZZZZ#   @nZZZ5   #MZZZr         wZZZM$   3ZZZM#   @ZZZZZZZZ",
"ZZZZZZZZZo   &NZZC,   :CZZB-         =BZZC,   ;CZZB=   XZZZZZZZZ",
"ZZZZZZZZZ.   =BZZC-   3ZZZn@         +bZZZ4   =BZZC-   .ZZZZZZZZ",
"ZZZZZZZZZ.   =BZZC-   3ZZZn@         +bZZZ4   =BZZC-   .ZZZZZZZZ",
"ZZZZZZZZZo   &NZZC:   ,CZZB-         =BZZC<   ;CZZB=   XZZZZZZZZ",
"ZZZZZZZZZ#   @nZZZ4   $MZZZe         wZZZM$   3ZZZM#   @ZZZZZZZZ",
"ZZZZZZZZZ;   XlZZZt   .gZZZM:       ;MZZZh.   eZZZxo   =ZZZZZZZZ",
"ZZZZZZZZZ6    iZZZzo   1CZZZn2.   .<vZZZC3   XkZZZp    4ZZZZZZZZ",
"ZZZZZZZZZp.   3ZZZC:   XaZZZZCh948gBZZZZgX   ;BZZZ5   .yZZZZZZZZ",
"ZZZZZZZZZv@   $nZZZa.   $xZZZZZZZZZZZZZv&    pZZZM$   +xZZZZZZZZ",
"ZZZZZZZZZC<    iZZZB:    =zZZZZZZZZZZZx=    :NZZZp    ,CZZZZZZZZ",
"ZZZZZZZZZZi    -NZZZl@    @yNZZZZZZZNu#    +jZZZB;    yZZZZZZZZZ",
"ZZZZZZZZZZn$   .uZZZZiX    .=wjvnvjw=.    XuZZZZp.   #nZZZZZZZZZ",
"ZZZZZZZZZZZq    $vZZZCtX      .+@+.      XrCZZZb&    8ZZZZZZZZZZ",
"ZZZZZZZZZZZb$    2BZZZZa#               @pCZZZC3    #vZZZZZZZZZZ",
"ZZZZZZZZZZZZy     0CZZZZx3X           X2xZZZZCq.    rZZZZZZZZZZZ",
"ZZZZZZZZZZZZB<    .wCZZZZCj5$.     .$4jCZZZZCr.    >NZZZZZZZZZZZ",
"ZZZZZZZZZZZZZc$    .8NZZZZZZMjuw0wujMZZZZZZB0.    #xZZZZZZZZZZZZ",
"ZZZZZZZZZZZZZZgo     <xZZZZZZZZZZZZZZZZZZZv1.    odZZZZZZZZZZZZZ",
"ZZZZZZZZZZZZZZZpo     @eMZZZZZZZZZZZZZZZMr#     oiZZZZZZZZZZZZZZ",
"ZZZZZZZZZZZZZZZZp+      &wxCZZZZZZZZZCxw&      oiZZZZZZZZZZZZZZZ",
"ZZZZZZZZZZZZZZZZZg$       o;8pjxxxjp9;o       $gZZZZZZZZZZZZZZZZ",
"ZZZZZZZZZZZZZZZZZZv1.         .Xoo.         .<cZZZZZZZZZZZZZZZZZ",
"ZZZZZZZZZZZZZZZZZZZCi&                     &yBZZZZZZZZZZZZZZZZZZ",
"ZZZZZZZZZZZZZZZZZZZZZnr*.               .&enZZZZZZZZZZZZZZZZZZZZ",
"ZZZZZZZZZZZZZZZZZZZZZZZNf4&X         X&3sMZZZZZZZZZZZZZZZZZZZZZZ",
"ZZZZZZZZZZZZZZZZZZZZZZZZZZMjr4,;--,4rjMZZZZZZZZZZZZZZZZZZZZZZZZZ"
};
