/* XPM */
static char *MTV[] = {
/* columns rows colors chars-per-pixel */
"64 48 64 1",
"F c None",
"  c #742F16",
". c #6B2224",
"X c #705827",
"o c #685428",
"O c #2E334B",
"+ c #135473",
"@ c #19607B",
"# c #2C525A",
"$ c #675C58",
"% c #273C38",
"& c #991B1D",
"* c #871C18",
"= c #A5181D",
"- c #B6181E",
"; c #86271A",
": c #8D3018",
"> c #A91920",
", c #BD1A20",
"< c #B41820",
"1 c #8F1C21",
"2 c #C01A20",
"3 c #C11A1F",
"4 c #985716",
"5 c #8C4D17",
"6 c #946D1C",
"7 c #986216",
"8 c #966513",
"9 c #B47815",
"0 c #A87015",
"q c #91762B",
"w c #896E63",
"e c #BC8717",
"r c #BD850E",
"t c #AB8532",
"y c #C68913",
"u c #D49410",
"i c #DA9A13",
"p c #CD8F10",
"a c #EBA513",
"s c #F4AB13",
"d c #F8AD13",
"f c #FBB013",
"g c #E19D12",
"h c #106895",
"j c #0A6EA1",
"k c #0575B1",
"l c #206A92",
"z c #227AAB",
"x c #2881B1",
"c c #5B92AF",
"v c #5A91AE",
"b c #6A8B9E",
"n c #0089D2",
"m c #008CD8",
"M c #0084CB",
"N c #A8A9A8",
"B c #CFD0D0",
"V c #E5E5E7",
"C c #FEFEFE",
"Z c #F3F3F3",
"A c #EFEFF1",
"S c #DEDFE0",
"D c #C0BEBF",
/* pixels */
"FCCCCCCCCCCCCCCCCCCCCCCCCCCCCCCCCCCCCCCCCCCCCCCCCCCCCCCCCCCCCCCC",
"FCCCCCCCCoXXXXXXXXXXXXo$BCCCCCCCBoXXXXXXXXXXXXo$VCCCCCCCCCCCCCCC",
"FCCCCCCCC6sssssssssssssXlbBCCCCAwisssssssssssdp+vSCCCCCCCCCCCCCC",
"FCCCCCCCC6fffffffffffffg#klbSCCNefffffffffffffu@MxBCCCCCCCCCCCCC",
"FCCCCCCCC6ffffffffffffffehmklSBqdfffffffffffffu@mMbCCCCCCCCCCCCC",
"FCCCCCCCC6ffffffffffffffdXkmMvwgffffffffffffffu@mncCCCCCCCCCCCCC",
"FCCCCCCCC6fffffffffffffffg#Mm+9fffffffffffffffu@mncCCCCCCCCCCCCC",
"FCCCCCCCC6ffffffffffffffffehkXdfffffffffffffffu@mncCB$wVCCCCCCCC",
"FCCCCCCCC6ffffffffffffffffdX%gffffffffffffffffu@mncB.=*wCCCCCCCC",
"FCCCCCCCC6fffffffffffffffffapfffffffffffsadfffu@mnvw-2-.CCCCCCCC",
"FCCCCCCCC6fffffffffffffffffffffffffffffs4 0dffu@mn@12,,.CCCCCCCC",
"FCCCCCCCC6fffffffffffffffffffffffffffff0;<;iffu@mnO=2,-.CCCCCCCC",
"FCCCCCCCC6ffffffffffffffffffffffffsias0;,21uffu@mj.3,2=wCCCCCCCC",
"FCCCCCCCC6fffffffffffffffffffffffs7 55;,2>5affu@nO-,2-.BCCCCCCCC",
"FCCCCCCCC6fffffffffffffffffffffffy;,=&2<1 ufffu@j.32=.DCCCCCCCCC",
"FCCCCCCCC6fffffffffffffffffffffff9>222= 0affffu+O-2-oBCCCCCCCCCC",
"FCCCCCCCC6ffffffffffffffffffffffd4>,2=5iffffffu%.221NCCCCCCCCCCC",
"FCCCCCCCC6fffffffffffffffffffffa7;,,2:ifsdffffu.-2-wZCCCCCCCCCCC",
"FCCCCCCCC6ffffffffffffffffffffa5&,2,2:i9 5afff9*221DCCCCCCCCCCCC",
"FCCCCCCCC6fffffffffffffffffffs5&2><,2:e =*9ffs5=2-$ZCCCCCCCCCCCC",
"FCCCCCCCC6ffffffffffffffffffd0&,; ;,2&0;2=4ffp*,2*$CCCCCCCCCCCCC",
"FCCCCCCCC6fffffffffffffffffg7;<;0a5<2&0;2-5ff8=2-.bCCCCCCCCCCCCC",
"FCCCCCCCC6ffffffffffffffffp &,;9ff4<2&9:,-5da -2=+cCCCCCCCCCCCCC",
"FCCCCCCCC6fffffffffffffffd4>2&0fff0>2&9:--:sy*23.jcCCCCCCCCCCCCC",
"FCCCCCCCC6ffffffffffffssfs5,<5afds9=2&e5-,;a4=2-OMcCCCCCCCCCCCCC",
"FCCCCCCCC6ffffffffffffy0ff4>&9ffy09=2=98=2;y:-2&hncCCCCCCCCCCCCC",
"FCCCCCCCC6ffffffffffffe%ufi 5afao6y&2=99&2&X*2-.kncCCCCCCCCCCCCC",
"FCCCCCCCC6ffffffffffffehoafaaffqhqy&2>9u*2-.=2=#nncCCCCCCCCCCCCC",
"FCCCCCCCC6ffffffffffffejh6ffffy@Mqy&2=9a;,,,,2.+mncCCCCCCCCCCCCC",
"FCCCCCCCC6ffffffffffffejn#yffa$MMqy&2=9d:-,,,-.+mncCCCCCCCCCCCCC",
"FCCCCCCCC6ffffffffffffejmjXafqkmh6y&2=9f4=2,2&X@mncCCCCCCCCCCCCC",
"FCCCCCCCC6ffffffffffffejmxNqylklbt9=2>9f0&2,2*0@mncCCCCCCCCCCCCC",
"FCCCCCCCC6ffffffffffffejmxVN%bNBSt0>2=9fp*2,,;r@mncCCCCCCCCCCCCC",
"FCCCCCCCC6ffffffffffffejmxVABZCCVt7<2=9fa;,,-:p@mncCCCCCCCCCCCCC",
"FCCCCCCCC6ffffffffffffejmxVCCCCCVt4<2&efs5-,-5p@mncCCCCCCCCCCCCC",
"FCCCCCCCC6ffffffffffffejmxVCCCCCVt4<2&eff8&2-5u@mncCCCCCCCCCCCCC",
"FCCCCCCCC6ffffffffffffejmxVCCCCCVt4<2=0ffp ,=7u@mncCCCCCCCCCCCCC",
"FCCCCCCCC6ffffffffffffejmxVCCCCCVt4<2<4ffd8. pu@mncCCCCCCCCCCCCC",
"FCCCCCCCC6ffffffffffffejmxVCCCCCVt7>2<5dffspufu@mncCCCCCCCCCCCCC",
"FCCCCCCCC6ffffffffffffejmxVCCCCCVt9=2,5sffffffu@mncCCCCCCCCCCCCC",
"FCCCCCCCC6ffffffffffffejmxVCCCCCVty&2<5dffffffu@mncCCCCCCCCCCCCC",
"FCCCCCCCC6ffffffffffffejmxVCCCCCVta:&*0fffffffu@mncCCCCCCCCCCCCC",
"FCCCCCCCC6ffffffffffffejmxVCCCCCVtfy79sfffffffu@mncCCCCCCCCCCCCC",
"FCCCCCCCC6ffffffffffffejmzVCCCCCVtffffffffffffu@mnvCCCCCCCCCCCCC",
"FCCCCCCCC6ffffffffffffejkbZCCCCCVtffffffffffffu@nlNCCCCCCCCCCCCC",
"FCCCCCCCC6aaaaaaaaaaase@bACCCCCCVqaaaaaaaaaaaay+zBCCCCCCCCCCCCCC",
"FCCCCCCCCoXXXXXXXXXXXXobZCCCCCCCV$XXXXXXXXXXXXo$SCCCCCCCCCCCCCCC",
"FCCCCCCCCCCCCCCCCCCCCCCCCCCCCCCCCCCCCCCCCCCCCCCCCCCCCCCCCCCCCCCC"
};
