/* XPM */
static char *NEOX[] = {
/* columns rows colors chars-per-pixel */
"64 48 33 1",
"r c None",
"  c #000000",
". c #0B0B0B",
"X c #121212",
"o c #1A1A1A",
"O c #232323",
"+ c #2B2B2B",
"@ c #333333",
"# c #3A3A3A",
"$ c #444444",
"% c #4B4B4B",
"& c #535353",
"* c #5A5A5A",
"= c #646464",
"- c #6D6D6D",
"; c #727272",
": c #7C7C7C",
"> c #838383",
", c #8C8C8C",
"< c #949494",
"1 c #9B9B9B",
"2 c #A4A4A4",
"3 c #ABABAB",
"4 c #B4B4B4",
"5 c #BABABA",
"6 c #C3C3C3",
"7 c #CCCCCC",
"8 c #D4D4D4",
"9 c #DCDCDC",
"0 c #E1E1E1",
"q c #EBEBEB",
"w c #F4F4F4",
"e c #FEFEFE",
/* pixels */
"reeeeeeeeeeeeeeeeeeeeeeeeeeeeeeeeeeeeeeeeeeeeeeeeeeeeeeeeeeeeeee",
"reeeeeeeeeeeeeeeeeeeeeeeeeeeeeeeeeeeeeeeeeeeeeeeeeeeeeeeeeeeeeee",
"reeeeeeeeeeeeeeeeeeeeeeeeeeeeeeeeeeeeeeeeeeeeeeeeeeeeeeeeeeeeeee",
"reeeeeeeeeeeeeeeeeeeeeeeeeeeeeeeeeeeeeeeeeeeeeeeeeeeeeeeeeeeeeee",
"reeeeeeeeeeeeeeeeeeeeeeeeeeeeeeeeeeeeeeeeeeeeeeeeeeeeeeeeeeeeeee",
"reeeeeeeeeeeeeeeeeeeeeeeeeeeeeeeeeeeeeeeeeeeeeeeeeeeeeeeeeeeeeee",
"reeeeeeeeeeeeeeeeeeeeeeeeeeeeeeeeeeeeeeeeeeeeeeeeeeeeeeeeeeeeeee",
"reeeeeeeeeeeeeeeeeeeeeeeeeeeeeeeeeeeeeeeeeeeeeeeeeeeeeeeeeeeeeee",
"reeeeeeeeeeeeeeeeeeeeeeeeeeeeeeeeeeeeeeeeeeeeeeeeeeeeeeeeeeeeeee",
"reeeeeeeeeeeeeeeeeeeeeeeeeeeeeeeeeeeeeeeeeeeeeeeeeeeeeeeeeeeeeee",
"reeeeeeeeeeeeeeeeeeeeeeeeeeeeeeeeeeeeeeeeeeeeeeeeeeeeeeeeeeeeeee",
"reeeeeeeeeeeeeeeeeeeeeeeeeeeeeeeeeeeeeeeeeeeeeeeeeeeeeeeeeeeeeee",
"reeeeeeeeeeeeeeeeeeeeeeeeeeeeeeeeeeeeeeeeeeeeeeeeeeeeeeeeeeeeeee",
"reeeeeeeeeeeeeeeeeeeeeeeeeeeeeeeeeeeeeeeeeeeeeeeeeeeeeeeeeeeeeee",
"reeeeeeeeeeeeeeeeeeeeeeeeeeeeeeeeeeeeeeeeeeeeeeeeeeeeeeeeeeeeeee",
"reeeeeeeeeeew6;&=2qeeeeeeeq2=&-5weeeeeee9,*&>8eeee5138eeeee8214e",
"reeeeeeeeeew:X    %8eeeee9&.   .;qeeeee5@    O2eew%  o:qeq;o  $e",
"reeeeeeeeee:       $0eeeq%       ;weee6O      X3ew%    =0*    $e",
"reeeeeeeee5X        ;eee:        .3eeq$        +9e%    .#     $e",
"reeeeeeeew&   .OX   o7e8O   XO.   $we2.   oo    >w%           $e",
"reeeeeeee7X  O206%   >e,   $603+  .5e&  .;89,X  @q63,+     @<36e",
"reeeeeeee<  .2eee9@  $q&  +8eee4X  >0O  *weee:  .6eee6o   O7eeee",
"reeeeeeee=  $weeee,  O7+  $22221O  *5. .5eeee8o  1eeee;   >eeeee",
"reeeeeeee%  ;eeeee6. o3o           $1  O0eeeew$  :eeee4  .5eeeee",
"ree6,4wew$  ,eeeee8X X2o           #,  @qeeeee*  ;eeee6. X8eeeee",
"re<X .:ew$  ,eeeee8o X2o           $<  +qeeeew%  :eeee5. .6eeeee",
"r7O   X5e$  ,eeeee8o X4+  @;;;;;;;;14. X6eeee0O  <eeee>   <eeeee",
"r:     ;w$  ,eeeee8o X6%  #qeeeeeeee8o  -eeee<  .5eee9+   @0eeee",
"r%     $q$  ,eeeee8o X7>   =0wwwwweew$  X<qw3o  +0985$     %589e",
"r$     $q$  ,eeeee8o X77X   +%%%%%:we<   .#$X   -w*X.       .X&e",
"r=     *w$  ,eeeee8o X7e=         $we0@        o7e%     O     $e",
"r3.    1e$  ,eeeee8o X7e9@        $wee3X      .,ew%    %6$    $e",
"rw*   $qw$  ,eeeee8o X7ee6@       $weee1o    .>wew%  .*9e8&.  $e",
"re0-@*8ee<-;5eeeeeq:-:0eee9:#@@@@@=weeee6=#@*4weee1-:4weeew4:-<e",
"reewqweeeeeeeeeeeeeeeeeeeeeewqqqqqqeeeeeeeqqweeeeeeeeeeeeeeeeeee",
"reeeeeeeeeeeeeeeeeeeeeeeeeeeeeeeeeeeeeeeeeeeeeeeeeeeeeeeeeeeeeee",
"reeeeeeeeeeeeeeeeeeeeeeeeeeeeeeeeeeeeeeeeeeeeeeeeeeeeeeeeeeeeeee",
"reeeeeeeeeeeeeeeeeeeeeeeeeeeeeeeeeeeeeeeeeeeeeeeeeeeeeeeeeeeeeee",
"reeeeeeeeeeeeeeeeeeeeeeeeeeeeeeeeeeeeeeeeeeeeeeeeeeeeeeeeeeeeeee",
"reeeeeeeeeeeeeeeeeeeeeeeeeeeeeeeeeeeeeeeeeeeeeeeeeeeeeeeeeeeeeee",
"reeeeeeeeeeeeeeeeeeeeeeeeeeeeeeeeeeeeeeeeeeeeeeeeeeeeeeeeeeeeeee",
"reeeeeeeeeeeeeeeeeeeeeeeeeeeeeeeeeeeeeeeeeeeeeeeeeeeeeeeeeeeeeee",
"reeeeeeeeeeeeeeeeeeeeeeeeeeeeeeeeeeeeeeeeeeeeeeeeeeeeeeeeeeeeeee",
"reeeeeeeeeeeeeeeeeeeeeeeeeeeeeeeeeeeeeeeeeeeeeeeeeeeeeeeeeeeeeee",
"reeeeeeeeeeeeeeeeeeeeeeeeeeeeeeeeeeeeeeeeeeeeeeeeeeeeeeeeeeeeeee",
"reeeeeeeeeeeeeeeeeeeeeeeeeeeeeeeeeeeeeeeeeeeeeeeeeeeeeeeeeeeeeee",
"reeeeeeeeeeeeeeeeeeeeeeeeeeeeeeeeeeeeeeeeeeeeeeeeeeeeeeeeeeeeeee",
"reeeeeeeeeeeeeeeeeeeeeeeeeeeeeeeeeeeeeeeeeeeeeeeeeeeeeeeeeeeeeee"
};
