/* XPM */
static char *NEOX[] = {
/* columns rows colors chars-per-pixel */
"64 48 32 1",
"  c #010101",
". c #0C0C0C",
"X c #141414",
"o c #1C1C1C",
"O c #242424",
"+ c #2D2D2D",
"@ c #343434",
"# c #3E3E3E",
"$ c #444444",
"% c #4C4C4C",
"& c #545454",
"* c #5B5B5B",
"= c #646464",
"- c #6D6D6D",
"; c #737373",
": c #7D7D7D",
"> c #858585",
", c #8D8D8D",
"< c #939393",
"1 c #9E9E9E",
"2 c #A4A4A4",
"3 c #ACACAC",
"4 c #B5B5B5",
"5 c #BCBCBC",
"6 c #C5C5C5",
"7 c #CDCDCD",
"8 c #D4D4D4",
"9 c #DDDDDD",
"0 c #E4E4E4",
"q c #ECECEC",
"w c #F4F4F4",
"e c #FFFFFF",
/* pixels */
"eeeeeeeeeeeeeeeeeeeeeeeeeeeeeeeeeeeeeeeeeeeeeeeeeeeeeeeeeeeeeeee",
"eeeeeeeeeeeeeeeeeeeeeeeeeeeeeeeeeeeeeeeeeeeeeeeeeeeeeeeeeeeeeeee",
"eeeeeeeeeeeeeeeeeeeeeeeeeeeeeeeeeeeeeeeeeeeeeeeeeeeeeeeeeeeeeeee",
"eeeeeeeeeeeeeeeeeeeeeeeeeeeeeeeeeeeeeeeeeeeeeeeeeeeeeeeeeeeeeeee",
"eeeeeeeeeeeeeeeeeeeeeeeeeeeeeeeeeeeeeeeeeeeeeeeeeeeeeeeeeeeeeeee",
"eeeeeeeeeeeeeeeeeeeeeeeeeeeeeeeeeeeeeeeeeeeeeeeeeeeeeeeeeeeeeeee",
"eeeeeeeeeeeeeeeeeeeeeeeeeeeeeeeeeeeeeeeeeeeeeeeeeeeeeeeeeeeeeeee",
"eeeeeeeeeeeeeeeeeeeeeeeeeeeeeeeeeeeeeeeeeeeeeeeeeeeeeeeeeeeeeeee",
"eeeeeeeeeeeeeeeeeeeeeeeeeeeeeeeeeeeeeeeeeeeeeeeeeeeeeeeeeeeeeeee",
"eeeeeeeeeeeeeeeeeeeeeeeeeeeeeeeeeeeeeeeeeeeeeeeeeeeeeeeeeeeeeeee",
"eeeeeeeeeeeeeeeeeeeeeeeeeeeeeeeeeeeeeeeeeeeeeeeeeeeeeeeeeeeeeeee",
"eeeeeeeeeeeeeeeeeeeeeeeeeeeeeeeeeeeeeeeeeeeeeeeeeeeeeeeeeeeeeeee",
"eeeeeeeeeeeeeeeeeeeeeeeeeeeeeeeeeeeeeeeeeeeeeeeeeeeeeeeeeeeeeeee",
"eeeeeeeeeeeeeeeeeeeeeeeeeeeeeeeeeeeeeeeeeeeeeeeeeeeeeeeeeeeeeeee",
"eeeeeeeeeeeeeeeeeeeeeeeeeeeeeeeeeeeeeeeeeeeeeeeeeeeeeeeeeeeeeeee",
"eeeeeeeeeeeeeeeeeeeeeeeeeeeeeeeeeeeeeeeeeeeeeeeeeeeeeeeeeeeeeeee",
"eeeeeeeeeeeeeeeeeeeeeeeeeeeeeeeeeeeeeeeeeeeeeeeeeeeeeeeeeeeeeeee",
"eeeeeeeeeeeeeq870eeeeeeeeeeq879weeeeeeeeew879weeeeewwweeeeeeewww",
"eeeeeeeeeee8:@oXO*5eeeeee0>#oXO&3weeeeeq<$oXO%2wee8$#%:7eeq2*#@;",
"eeeeeeeeee4O      X>weee6@      .-qeee8%      .*0e6.   o,7%    $",
"eeeeeeeee6o        .,ee8+         ;we0$         *w6.    .o     $",
"eeeeeeeew%  .&23;X  o8e=   $14>O  .4e>   @<4,+   10>:&X     @;:2",
"eeeeeeee6.  -weee2.  >9o  %0www4o  =0@  #9eee8+  $weee2X   %0eee",
"eeeeeeee<  o9eeeew&  &3   O$####X  @4X  3eeeee<  o9eeee=  X6eeee",
"ew4,10ee:  #weeeee:  $<            O1. .7eeeee4. X7eeee,  O0eeee",
"q-.  @7e:  #weeeee>  $1   XOOOOOOOO%4. .4eeeee1  o9eeee-  X7eeee",
"<.    &e:  #weeeee>  $6X  &90000000q0+  %qeee0#  #weee5o   =qeee",
"&     O0:  #weeeee>  #q*  .=5888889ee:   %473$   <q21;o     %<15",
"*     O0:  #weeeee>  #w6O   .XXXXX$qe9@   .X.   $q6.     .     %",
"3X    ;e:  #weeeee>  #we4O        @qee6@       $8e6.   .;4@    $",
"e1O.X=0e,OO*weeeee<OO*wee8-O......#qeee9:+..X@>0ee7+O@=4we0,$OO=",
"ee957weeq990eeeeeeq990eeeee95444446eeeeee05460eeeew09qeeeeeew090",
"eeeeeeeeeeeeeeeeeeeeeeeeeeeeeeeeeeeeeeeeeeeeeeeeeeeeeeeeeeeeeeee",
"eeeeeeeeeeeeeeeeeeeeeeeeeeeeeeeeeeeeeeeeeeeeeeeeeeeeeeeeeeeeeeee",
"eeeeeeeeeeeeeeeeeeeeeeeeeeeeeeeeeeeeeeeeeeeeeeeeeeeeeeeeeeeeeeee",
"eeeeeeeeeeeeeeeeeeeeeeeeeeeeeeeeeeeeeeeeeeeeeeeeeeeeeeeeeeeeeeee",
"eeeeeeeeeeeeeeeeeeeeeeeeeeeeeeeeeeeeeeeeeeeeeeeeeeeeeeeeeeeeeeee",
"eeeeeeeeeeeeeeeeeeeeeeeeeeeeeeeeeeeeeeeeeeeeeeeeeeeeeeeeeeeeeeee",
"eeeeeeeeeeeeeeeeeeeeeeeeeeeeeeeeeeeeeeeeeeeeeeeeeeeeeeeeeeeeeeee",
"eeeeeeeeeeeeeeeeeeeeeeeeeeeeeeeeeeeeeeeeeeeeeeeeeeeeeeeeeeeeeeee",
"eeeeeeeeeeeeeeeeeeeeeeeeeeeeeeeeeeeeeeeeeeeeeeeeeeeeeeeeeeeeeeee",
"eeeeeeeeeeeeeeeeeeeeeeeeeeeeeeeeeeeeeeeeeeeeeeeeeeeeeeeeeeeeeeee",
"eeeeeeeeeeeeeeeeeeeeeeeeeeeeeeeeeeeeeeeeeeeeeeeeeeeeeeeeeeeeeeee",
"eeeeeeeeeeeeeeeeeeeeeeeeeeeeeeeeeeeeeeeeeeeeeeeeeeeeeeeeeeeeeeee",
"eeeeeeeeeeeeeeeeeeeeeeeeeeeeeeeeeeeeeeeeeeeeeeeeeeeeeeeeeeeeeeee",
"eeeeeeeeeeeeeeeeeeeeeeeeeeeeeeeeeeeeeeeeeeeeeeeeeeeeeeeeeeeeeeee",
"eeeeeeeeeeeeeeeeeeeeeeeeeeeeeeeeeeeeeeeeeeeeeeeeeeeeeeeeeeeeeeee",
"eeeeeeeeeeeeeeeeeeeeeeeeeeeeeeeeeeeeeeeeeeeeeeeeeeeeeeeeeeeeeeee"
};
