/* XPM */
static char *ONA_FM[] = {
/* columns rows colors chars-per-pixel */
"64 48 64 1",
"  c #010101",
". c #0C0B0B",
"X c #1B0D00",
"o c #171717",
"O c #2C1501",
"+ c #272727",
"@ c #3B3B3B",
"# c #572900",
"$ c #733601",
"% c #484848",
"& c #5A5A5A",
"* c #635041",
"= c #6A6A6A",
"- c #7B736C",
"; c #787878",
": c #8C4304",
"> c #A85309",
", c #C75D01",
"< c #D46300",
"1 c #EC6E00",
"2 c #EC7009",
"3 c #ED720B",
"4 c #F17000",
"5 c #F07001",
"6 c #ED7613",
"7 c #ED7919",
"8 c #EE7E23",
"9 c #9D7758",
"0 c #EF832B",
"q c #EF8935",
"w c #F18A35",
"e c #DA8744",
"r c #E8914A",
"t c #F19448",
"y c #F29C57",
"u c #F2A15E",
"i c #F3A566",
"p c #F5B078",
"a c #888888",
"s c #979898",
"d c #B7A394",
"f c #A5A5A5",
"g c #ADADAD",
"h c #BABABA",
"j c #F6B887",
"k c #F7BF92",
"l c #F7C499",
"z c #F8CCA9",
"x c #F9D1AF",
"c c #FAD6B9",
"v c #C8C8C8",
"b c #D7D8D8",
"n c #FADDC5",
"m c #E7DDD6",
"M c #FBE1CD",
"N c #FCE6D4",
"B c #FCEADC",
"V c #E7E7E7",
"C c #FDEFE3",
"Z c #F9F1EA",
"A c #FDF4EC",
"S c #F3F3F3",
"D c #FEF9F4",
"F c #FFFFFF",
/* pixels */
"FFFFFFFFFFFFFFFFFFFFFFFFFFFFFFFFFFFFFFFFFFFFFFFFFFFFFFFFFFFFFFFF",
"FFFFFFFFFFFFFFFFFFFFFFFFFFFFFFFFFFFFFFFFFFFFFFFFFFFFFFFFFFFFFFFF",
"FFFFFFFFFFFFFFFFFFFFFFFFFFFFFFFFFFFFFFFFFFFFFFFFFFFFFFFFFFFFFFFF",
"FFFFFFFFFFFFFFFFFFFFFFFFFFFFFFFFFFFFFFFFFFFFFFFFFFFFFFFFFFFFFFFF",
"FFFFFFFFFFFFFFFFFFFFFFFFFFFFFFFFFFFFFFFFFFFFFFFFFFFFFFFFFFFFFFFF",
"FFFFFFFFFFFFFFFFFFFFFFFFFFFFFFFFFFFFFFFFFFFFFFFFFFFFFFFFFFFFFFFF",
"FFFFFFFFFFFFFFFFFFFFFFFFFFFFFFFFFFFFFFFFFFFFFFFFFFFFFFFFFFFFFFFF",
"FFFFFFFFFFFFFFFFFFFFFFFFFFFFFFFAccnnnnMAFFFFFFFFFFFFFFFFFFFFFFFF",
"FFFFFFFFFFFFFFFFFFFFFFFFFFFFFFFn8666778cFFFFFFFFFFFFFFFFFFFFFFFF",
"FFFFFFFFFFFFFFFFFFFFFFFFFFFFFFFn6111112cFFFFFFFFFFFFFFFFFFFFFFFF",
"FFFFFFFFFFFFFFFFFFFFFFFFFFDAFFFn6111116nFFFFFFFFFFFFFFFFFFFFFFFF",
"FFFFFFFFFFFFFFFFFFDZBnzkpittBFFM7111117MFFFFFFFFFFFFFFFFFFFFFFFF",
"FFFFFFFFFFFFFFFFBitq86211112xFFN7111117NFFFFFFFFFFFFFFFFFFFFFFFF",
"FFFFFFFFFFFFFFFFc61111111111jFFN8111118BFFFFFFFFFFFFFFFFFFFFFFFF",
"FFFFFFFFFFFFFFFFn61111111111yFFB8111110BFFFFFFFFFFFFFFFFFFFFFFFF",
"FFFFFFFFFFFFFFFFM71111111111qAFB0111110CFFFFFFFFFFFFFFFFFFFFFFFF",
"FFFFFFFFFFFFFFFFN711111111117NFB011111qAFFbs;;hSFFFFFFFFFFFFFFFF",
"FFFFFFDSVbbVVSFFB811111111112xFCq11111tAFg+   .=VFFFFFFFFFFFFFFF",
"FFFFDVbvgggghvVDB011111111111jFAq11111tDv+      =SFFFFFFFFFFFFFF",
"FFFVvhfsa;;;ashbm011111106111yFAq11111tZ&       ohFFFFFFFFFFFFFF",
"FFVffs;%+ooo@=aghe111111y0111qAAq11111yvo        =FFFFFFFFFFFFFF",
"FSsaa&o      .%agd711111iy1117MDw11111y9         +bFFFFFFFFFFFFF",
"Fg=;%.         @as911111pp1112zDw11111r@    +.    sFFFFFFFFFFFFF",
"S&%%o          .%;*<1111pz2111pDt11114>.    a@    %SFFFFFFFFFFFF",
"b++o            o%o>4111jN7111yAt11111#    ov=    .hFFFFFFFFFFFF",
"g.               . :4111jAq1110By1111,X    @Sf.    =FFFFFFFFFFFF",
"f.                 $4111kFu1116ny1111$     ;Fb+    +bFFDCDFFFFFF",
"g.                 :4111kFk1112ly111<O     %==o     sFFjqxFFFFFF",
"vo                 >4111lFc2111pu114>               %SB08zcxcccD",
"S%                O<1111lFB8111yu111#               .vz27q78687z",
"Fs                $11111lFDt111qy11,X                ;Zwyi0j6p7l",
"FV%              O,11112zFFp1116w14:                 +mwipql7l8l",
"FFv+            o9111112zFFl2111211#     @======o    ovcnMxCzCzN",
"FFFh+          +gl111113zFFn6111111$    ohFFFFFD&    +bFFFFFFFFF",
"FFFFb=o      o&vFl111113xFFCq111111,O  .;SFFFFFFv+  .aFFFFFFFFFF",
"FFFFFDva&%%&avSFFz211112cFFDy1111111<:-gSFFFFFFFFbaahSFFFFFFFFFF",
"FFFFFFFFDSSDFFFFFz211116cFFFj111111110CFFFFFFFFFFFFFFFFFFFFFFFFF",
"FFFFFFFFFFFFFFFFFc311117nFFFx2111127qiAFFFFFFFFFFFFFFFFFFFFFFFFF",
"FFFFFFFFFFFFFFFFFn611117nFFFN860tpzMAFFFFFFFFFFFFFFFFFFFFFFFFFFF",
"FFFFFFFFFFFFFFFFFMwwtiplAFFFDxnCDFFFFFFFFFFFFFFFFFFFFFFFFFFFFFFF",
"FFFFFFFFFFFFFFFFFDBADFFFFFFFFFFFFFFFFFFFFFFFFFFFFFFFFFFFFFFFFFFF",
"FFFFFFFFFFFFFFFFFFFFFFFFFFFFFFFFFFFFFFFFFFFFFFFFFFFFFFFFFFFFFFFF",
"FFFFFFFFFFFFFFFFFFFFFFFFFFFFFFFFFFFFFFFFFFFFFFFFFFFFFFFFFFFFFFFF",
"FFFFFFFFFFFFFFFFFFFFFFFFFFFFFFFFFFFFFFFFFFFFFFFFFFFFFFFFFFFFFFFF",
"FFFFFFFFFFFFFFFFFFFFFFFFFFFFFFFFFFFFFFFFFFFFFFFFFFFFFFFFFFFFFFFF",
"FFFFFFFFFFFFFFFFFFFFFFFFFFFFFFFFFFFFFFFFFFFFFFFFFFFFFFFFFFFFFFFF",
"FFFFFFFFFFFFFFFFFFFFFFFFFFFFFFFFFFFFFFFFFFFFFFFFFFFFFFFFFFFFFFFF",
"FFFFFFFFFFFFFFFFFFFFFFFFFFFFFFFFFFFFFFFFFFFFFFFFFFFFFFFFFFFFFFFF"
};
