/* XPM */
static char *ONDA_RAMBLA_PUNTO_RADIO[] = {
/* columns rows colors chars-per-pixel */
"64 48 49 1",
"  c #010101",
". c #0A0402",
"X c #0C0C0C",
"o c #1B0C04",
"O c #141414",
"+ c #1D1D1D",
"@ c #220F04",
"# c #2A1305",
"$ c #301608",
"% c #242424",
"& c #272829",
"* c #2C2C2C",
"= c #343434",
"- c #3D3D3D",
"; c #4F250B",
": c #56270C",
"> c #434343",
", c #4C4C4C",
"< c #545454",
"1 c #5B5B5B",
"2 c #646464",
"3 c #6D6D6D",
"4 c #747474",
"5 c #7D7D7D",
"6 c #823911",
"7 c #A74B14",
"8 c #A84A16",
"9 c #BA5215",
"0 c #D25B17",
"q c #D86017",
"w c #E26317",
"e c #FD6D17",
"r c #FE6E18",
"t c #838383",
"y c #8C8C8C",
"u c #949494",
"i c #9B9B9B",
"p c #A3A3A3",
"a c #ADADAD",
"s c #B4B4B4",
"d c #BCBCBC",
"f c #C5C5C5",
"g c #CCCCCC",
"h c #D4D4D4",
"j c #DBDBDB",
"k c #E3E3E3",
"l c #EBEBEB",
"z c #F4F4F4",
"x c #FFFFFF",
/* pixels */
"xxxxxxxxxxxxxxxxxxxxxxxxxxxxxxxxxxxxxxxxxxxxxxxxxxxxxxxxxxxxxxxx",
"xxxxxxxxxxxxxxxxxxxxxxxxxxxxxxxxxxxxxxxxxxxxxxxxxxxxxxxxxxxxxxxx",
"xxxxxxxxxxxxxxxxxxxxxxxxxxxxxxxxxxxxxxxxxxxxxxxxxxxxxxxxxxxxxxxx",
"xxxxxxxxxxxxxxxxxxxxxxxxxxxxxxxxxxxxxxxxxxxxxxxxxxxxxxxxxxxxxxxx",
"xxxxxxxxxxxxxxxxxxxxxxxxxxxxxxxxxxxxxxxxxxxxxxxxxxxxxxxxxxxxxxxx",
"xxxxxxxxxxxxxxxxxxxxxxxxxxxxxxxxxxxxxxxxxxxxxxxxxxxxxxxxxxxxxxxx",
"xxxxxxxxxxxxxxxxxxxxxxxxxxxxxxxxxxxxxxxxxxxxxxxxxxxxxxxxxxxxxxxx",
"xxxxxxxxxxxxxxxxxxxxxxxxxxxxxxxxxxxxxxxxxxxxxxxxxxxxxxxxxxxxxxxx",
"xxxxxxxxxxxxxxxxxxxxxxxxxxxxxxxxxxxxxxxxxxxxxxxxxxxxxxxxxxxxxxxx",
"xxxxxxxxxxxxxxxxxxxxxxxxxxxxxxxxxxxxxxxxxxxxxxxxxxxxxxxxxxxxxxxx",
"xxxxxxxxxxxxxxxxxxxxxxxxxxxxxxxxxxxxxxxxxxxxxxxxxxxxxxxxxxxxxxxx",
"xxxxxxxxxxxxxxxxxxxxxxxxxxxxxxxxxxxxxxxxxxxxxxxxxxxxxxxxxxxxxxxx",
"xxxxxxxxxxxxxxxxxxxxxxxxxxxxxxxxxxxxxxxxxxxxxxxxxxxxxxxxxxxxxxxx",
"xxxxxxxxxxxxxxxxxxxxxxxxxxxxxxxxxxxxxxxxxxxxxxxxxxxxxxxxxxxxxxxx",
"xxxxxxxxxxxxxxxxxxxxxxxxxxxxxxxxxxxxxxxxxxxxxxxxxxxxxxxxxxxxxxxx",
"xxxxxxxxxxxxxxxxxxxxxxxxxxxxxxxxxxxxxxxxxxxxxxxxxxxxxxxxxxxxxxxx",
"xxxxxxxxxxxxxxxxxxxxxxxxxxxxxxxxxxxxxxxxxxxxxxxxxxxxxxxxxxxxxxxx",
"                                                                ",
"  O--X X=X .+ +--%   .=O  =--*.  +-O X=*  %-OO---+ X=X    &=.   ",
" %y23tX&f1 +t 3u2t2  =s1 Ofhdht  tz4 %jh+ pz<,kffg-=h=   Ofk=   ",
" 4,  4,&yu++y 3, Xy= 23t.Oh4.2j+Xdgs.%jk,+gl<,j%+gt=k=   -hh4   ",
"Xy+  ,4*4,4+y 3,  12.y%t&Xgu>ugO=h2g%%fat,ff1,kttg>=k=   4a5a.  ",
"Xu+  >4*4Xt<t 3,  <3&p=y1Xgjhk> 3f=g1%f4suys1,lpig,=k=  .st,h%  ",
".y=  12*4 =pu 3,  4,1i2tyOg4=j, alflu&f>fj<s1,h+ pp-k=  %jhfz<  ",
" <y&=u&*5  ta 43%<tOy* Xu=g3 is*h3*4g-g&pj%d1,lttj5=li545h>=su  ",
" .<t5- +,  +1 >t41OX1X  ,=4- *t>5O +5=4O>2X3=*uuu2X+yuuy42  >3. ",
"                          OOX. ..  XOO.OX  .@o  XOX . .OX ..O.  ",
"                         X,=,= =,&+*<-==-O 6w0; ---X>&+>-*=-=>X ",
"                         O1=,- -,>=+=+>X%=#wee9.>>,%,>%+O,,- >+ ",
"                         O>OO>O>>+1+=+-+=&@qer8 -=>->,-%&>>>O,O ",
"                         .O  %-+O.+XOXX==. :97$ O.+% X%=*XO+-%  ",
"                                            ..                  ",
"xxxxxxxxxxxxxxxxxxxxxxxxxxxxxxxxxxxxxxxxxxxxxxxxxxxxxxxxxxxxxxxx",
"xxxxxxxxxxxxxxxxxxxxxxxxxxxxxxxxxxxxxxxxxxxxxxxxxxxxxxxxxxxxxxxx",
"xxxxxxxxxxxxxxxxxxxxxxxxxxxxxxxxxxxxxxxxxxxxxxxxxxxxxxxxxxxxxxxx",
"xxxxxxxxxxxxxxxxxxxxxxxxxxxxxxxxxxxxxxxxxxxxxxxxxxxxxxxxxxxxxxxx",
"xxxxxxxxxxxxxxxxxxxxxxxxxxxxxxxxxxxxxxxxxxxxxxxxxxxxxxxxxxxxxxxx",
"xxxxxxxxxxxxxxxxxxxxxxxxxxxxxxxxxxxxxxxxxxxxxxxxxxxxxxxxxxxxxxxx",
"xxxxxxxxxxxxxxxxxxxxxxxxxxxxxxxxxxxxxxxxxxxxxxxxxxxxxxxxxxxxxxxx",
"xxxxxxxxxxxxxxxxxxxxxxxxxxxxxxxxxxxxxxxxxxxxxxxxxxxxxxxxxxxxxxxx",
"xxxxxxxxxxxxxxxxxxxxxxxxxxxxxxxxxxxxxxxxxxxxxxxxxxxxxxxxxxxxxxxx",
"xxxxxxxxxxxxxxxxxxxxxxxxxxxxxxxxxxxxxxxxxxxxxxxxxxxxxxxxxxxxxxxx",
"xxxxxxxxxxxxxxxxxxxxxxxxxxxxxxxxxxxxxxxxxxxxxxxxxxxxxxxxxxxxxxxx",
"xxxxxxxxxxxxxxxxxxxxxxxxxxxxxxxxxxxxxxxxxxxxxxxxxxxxxxxxxxxxxxxx",
"xxxxxxxxxxxxxxxxxxxxxxxxxxxxxxxxxxxxxxxxxxxxxxxxxxxxxxxxxxxxxxxx",
"xxxxxxxxxxxxxxxxxxxxxxxxxxxxxxxxxxxxxxxxxxxxxxxxxxxxxxxxxxxxxxxx",
"xxxxxxxxxxxxxxxxxxxxxxxxxxxxxxxxxxxxxxxxxxxxxxxxxxxxxxxxxxxxxxxx",
"xxxxxxxxxxxxxxxxxxxxxxxxxxxxxxxxxxxxxxxxxxxxxxxxxxxxxxxxxxxxxxxx"
};
