/* XPM */
static char *ONDA_CERO[] = {
/* columns rows colors chars-per-pixel */
"64 48 64 1",
"F c None",
"  c #1E1A1B",
". c #211D1E",
"X c #14331E",
"o c #182B1E",
"O c #20211F",
"+ c #231F20",
"@ c #1C2A20",
"# c #1E2620",
"$ c #193321",
"% c #143921",
"& c #232121",
"* c #2D292A",
"= c #282526",
"- c #312D2E",
"; c #322E30",
": c #353132",
"> c #3B3839",
", c #2C302C",
"< c #413D3E",
"1 c #095A26",
"2 c #065423",
"3 c #0E4822",
"4 c #354439",
"5 c #056428",
"6 c #026B29",
"7 c #026325",
"8 c #00722A",
"9 c #423F40",
"0 c #494647",
"q c #595757",
"w c #4F504F",
"e c #5D625E",
"r c #646262",
"t c #6D6C6B",
"y c #676766",
"u c #787576",
"i c #706E6E",
"p c #615F5F",
"a c #3D4A41",
"s c #807D7E",
"d c #827F80",
"f c #898787",
"g c #979596",
"h c #908E8F",
"j c #A8A6A7",
"k c #B9B7B8",
"l c #B0AEAF",
"z c #A09E9F",
"x c #C0BFBF",
"c c #CCCBCB",
"v c #C5C4C4",
"b c #D4D3D4",
"n c #DBDBDB",
"m c #D8D6D7",
"M c #D0CFCF",
"N c #E3E2E2",
"B c #EBEBEB",
"V c #E8E7E7",
"C c #F4F3F3",
"Z c #FEFEFE",
"A c #F8F7F8",
"S c #F0EFEF",
"D c #C1BFC0",
/* pixels */
"F888888888888888888888888888888888888888888888888888888888888888",
"F888888888888888888888886666688888888888886666655556888888888888",
"F8888888888888888665723%XoXXX%%%%%%%%XXXXXXXX$@@###%588888888888",
"F88888888888523%XX@=,>wruuffhgghfffffuuuuudfhjjjjjg>288888888888",
"F88888888888%:wtshjkcNCAZZZZZZZZZZZZZZZZZZZZZZZZZZAq388888888888",
"F88888888886%lCZZZZZZZZZZZZZZZAAZZZZZZZZZZZZZZZZZZAr388888888888",
"F888888888864mZZZZZZZZZZZZCmlsrqyuglvbVAZZZZZZZZZZZt288888888888",
"F888888888864NZZZZZZZZZAMhq:&     .+=-9qfvCZZZZZZZAr288888888888",
"F888888888870BZZZZZZZCkr-. ............  *qjCZZZZZAe288888888888",
"F88888888881wCZZZZZAvr= .................. &ymZZZZAe288888888888",
"F88888888881wCZZZZVf- ...................... 9kZZZAe188888888888",
"F88888888882qAZZZkw&=....++..>*...==......=;. :kZZCq788888888888",
"F88888888882pAZZj-wlxr...th=.jd .-jvg0... tv>. <mZCw788888888888",
"F88888888882yZZl*=vZZc-.&lZf*kj. 0SAAN0..:cZu . fZCw788888888888",
"F88888888882tZBw 0BCcCw =vZAkng  wAktCs .uCNl&. wCCw788888888888",
"F88888888882tZl& 0CciCr *ccmZZu  wAj0Bf :bnjn:..0BB0788888888888",
"F88888888882tZf  0CkiAp :nfwnZi  rZxvBq iAAACw  qAB0788888888888",
"F88888888882tZu .0BclC0 :bu rnq  uZZbr++lnifVi  hZVa788888888888",
"F88888888882tZh..*vZZc-.&0:.+<*..0gf>..+uq .tw >mZN4788888888888",
"F88888888882tZc;..qbmr......................  <kZZN4788888888888",
"F88888888882tZZf...::..................... .>fnZZZN4788888888888",
"F88888888882tZZN0 ......................&>rjNZZZZZN4788888888888",
"F88888888882tZZZcr-.  ..................wgljkvbNBCm4788888888888",
"F88888888882iZZZZAbgtq-........  +*;>>>-==&.&=;<0w0=588888888888",
"F88888888882yBBBVnmckj0  +=**:0rfjvbNNNbji>...... .@588888888888",
"F88888888881*0000>-*=.=wujDvcmBAZZZZZZZZZAng0......@588888888888",
"F88888888881O...... ;tkBZZZZZZZZZZZZZZZZZZZZNg0....@588888888888",
"F88888888881&.....=icAZZZZZABmNZZZAmxbAZZZZZZZVf-..@688888888888",
"F88888888881&....>lAZkjZZZmr0*uZZZl:&;jZZZBjlAZZl:.@688888888888",
"F88888888881&...>vZZk-tZZZl.*:fZZZf+w&qAZCi.*kZZZg&@688888888888",
"F88888888881&..=lZZV0+gZZZj:lbBZZZu;j:uZZl&. hZZZB0o688888888888",
"F88888888881&. iAZZj.iCZZZg&0qnZZZt&>:vZZt:u&hZZZZto688888888888",
"F88888888881&.-cZZZu.kZZZZf.&=cZZAq  uZZS0ql=jZZZAqo688888888888",
"F88888888881& rAZZZi.lZZZZu0kkCZZB0. rAZB0=::bZZZc;$688888888888",
"F88888888881O.gZZZZg wkCZZu:fhnZZV>qr*cZCw  uAZZVq.$688888888888",
"F88888888881O&kZZZZb: *vZZu  .kZZN>fc*jZZg*qnZZNr..$688888888888",
"F88888888881O.zZZZZZz::cZZf>>wnZZChcAknZZAcVZAkw...$688888888888",
"F88888888881&.0cZZZZAbcAZZBNNBZZZZZZZZZZZZZAcu*....$688888888888",
"F88888888881&..<lCZZZZZZZZZZZZZZZZZZZZZCnkhq-......$688888888888",
"F88888888881&...=rkNAZZZZZZZZZZZZACnkhtw>=. .......$688888888888",
"F88888888881&.... =<quhjkkkkkklgftw:=.  ...........$688888888888",
"F88888888881&.......  .+======&.   ................$688888888888",
"F88888888881&......................................%688888888888",
"F88888888881O.....................O&#@@$$$$$$$$$@#&3888888888888",
"F88888888882O.O&#@@@@@@@@@$$$%3332155666666666666556888888888888",
"F88888888885%311566666666666888888888888888888888888888888888888",
"F888888888865666666666666666666666666666666666666666688888888888",
"F888888888888888888888888888888888888888888888888888888888888888"
};
