/* XPM */
static char * Popular TV_xpm[] = {
"64 48 14 1",
" 	c None",
".	c #353C54",
"+	c #0E6C3A",
"@	c #46499D",
"#	c #6765AD",
"$	c #717781",
"%	c #76779B",
"&	c #82B391",
"*	c #A3A6B8",
"=	c #F9B526",
"-	c #CCD3D8",
";	c #F8DE8F",
">	c #FBFAED",
",	c #FBFDFB",
",,,,,,,,,,,,,,,,,,,,,,,,,,,,,,,,,,,,,,,,,,,,,,,,,,,,,,,,,,,,,,,,",
",,,,,,,,,,,,,,,,,,,,,,,,,,,,,,,,,,,,,,,,,,,,,,,,,,,,,,,,,,,,,,,,",
",,,,,,,,,,,,,,,,,,,,,,,,,,,,,>,,,,,,,,,,,,,,,,,,,,,,,,,,,,,,,,,,",
",,,,,,,,,,,,,,,,,,>>>>;;;>,--,,,,,,,,,,,,,,,,,,,,,,,,,,,,,,,,,,,",
",,,,,,,,,,,,,,,,,>;;=====;-%#**,,,,,,,,,,,,,,,,,,,,,,,,,,,,,,,,,",
",,,,,,,,,,,,,,,>;=========>%###%*,,,,,,,,,,,,,,,,,,,,,,,,,,,,,,,",
",,,,,,,,,,,,,,,;;=========>*#####*-,,,,,,,,,,,,,,,,,,,,,,,,,,,,,",
",,,,,,,,,,,,,-*;=========;>*#@#@##%-,,>,,,,,,,,,,,,,,,,,,,,,,,,,",
",,,,,,,,,,,,%##>=========;>%########*,,,,,,,,,,,,,,,,,,,,,,,,,,,",
",,,,,,,,,,,*#@#-;========>-*##%####@#*,,,,,,,,,,,,,,,,,,,,,,,,,,",
",,,,,,,,,,-#@@@-;=======>,%##%#%######,,,,,,,,,,,,,,,,,,,,,,,,,,",
",,>,,,,,,,%@@@@*>=====;>--##*#########*-,,,,,,,,,,,,,,,,,,,,,,,,",
",,,,,,,,,-#@@@@%-;=;;>>*%##*##*######@#-,,,,,,,,,,,,,,,,,,,,,,,,",
",,,,,,,,-%@@@@@#->>--**####*########@#@%-,,,,,,,,,,,,,,,,,,,,,,,",
",,,,,,,,*@@@@@@#**-%#####*###*#*#####@@#*,,,,,,,,,,,,,,,,,,,,,,,",
",,,,,,,,%@@@@@@@##########*#####%#####@#*,,,,,,,,,,,,,,,,,,,,,,,",
">,,,,>,-%@@@@@@#@@#@########*####%####@#*,,,,,,,,,,,,,,,,,,,,,,,",
",,,,,,,-#@@@@@@@#@#####*###########@#@@%-,,,,,,,,,,,,,,,,,,,,,,,",
">,,,,>,*#@@@@@@@###@######*#*#######@@#*,->,,,,,,,,,,,,,,,,,,,,,",
",,,,,,,*@@@@@@@@@@##################@#%>-&>,,,,,,,,,,,,,,,,,,,,,",
",,,,,>,*@@@@@@@@#@#@##############@@#%,&&&,,,,,,,,,,,,,,,,,,,,,,",
",,,,,,,*#@@#@@@@@@@###############@@#--++&,,,,,,,,,,,,,,,,,,,,,,",
",,,,,>,*#@@@@@@@@@#@#############@@#-,&++-,,,,,,,,,,,,,,,,,,,,,,",
",,,,,,,*#@@@@@@@@@#@@@########@#@@#*,&+++-,,,,,,,,,,,,,,,,,,,,,,",
",,,,>,,-#@@@@@@@@@@##@#@#@##@@#@@%-,&++++>,,,,,,,,,,,,,,,,,,,,,,",
",,,,,,,,%@@@@@#@@@@@@#@@#@##@@@##-,&++++&,,,,,,,,,,,,,,,,,,,,,,,",
",,,,,,,,-@@@@@@@@@@#@@@@@@@@@##*,>++++++&,,,,,,,,,,,,,,,,,,,,,,,",
",,,,,,,,-%@@@@@@@@@@@@@@@@@##*,,&++++++&-,,,,,,,,,,,,,,,,,,,,,,,",
",,,,,,,,,*@@@#@@@@@@@@@@@#**,-&&+++++++&,,,,,,,,,,,,,,,,,,,,,,,,",
",,,,,,,,,-%@@@@@@@@@@##**---&&++++++++&-,,,,,,,,,,,,,,,,,,,,,,,,",
",,,,,,,,,,-#@@@@#@@@@%-,-&&+++++++++++->,,,,,,,,,,,,,,,,,,,,,,,,",
",,,,,,,,,,,*#@@@#@@@@*,&+++++++++++++&>,,,,,,,,,,,,,,,,,,,,,,,,,",
",,,,,,,,,,>>*#@@@@#@@#,&++++++++++++&,,,,,,,,,,,,,,,,,,,,,,,,,,,",
",,,,,,,,,,,,,*#@@@@@@@-&+++++++++++&,,,,,,,,,,,,,,,,,,,,,,,,,,,,",
",,,,,,,,,,,,,,*%@@@@@@*-&++++++++&-,,,,,,,,,,,,,,,,,,,,,,,,,,,,,",
",,,,,,,,,,,,,,,-*%@@@@#-++++++++&-,,,,,,,,,,,,,,,,,,,,,,,,,,,,,,",
",,,,,,,,,,,,>,,,,-*#%@%--++++&&->,,,,,,,,,,,,,,,>,,,,,,,,,,,,,,,",
",,,,,,,,,,,>,,,,,,,,--*->&&&->,,,,,,,,,,,,,,,,,,,,,,,,,,,,,,,,,,",
",,,,,,,,,,,,>,,,,,,,,,,,,>>>,,-*,,,,,,,,,,,,,,,,,>,,,,,,,,,,,,,,",
",,,,,,,,,-,,,,,-,,,,,-,,,,,>,,*.*,,,,-,,,,-,,,,,,*%$,,,,,,,,,,,,",
",>>,,,-*$**--*%*$-**$**--$-,**%.*,-*$*$--$**$-,,,$.%--$-,**,,,,,",
",,,,,,*.$*.**.$-.*%.$*.*$.--.$%.-,*.**.$*.-$.*,,,%.$-*.*-..-,,,,",
",,,,,,$.*-.$.%*-.$$.--.%$.*-.$*.*,$.--.%$.,-.%,>,*.*,*.*-.%,,,,,",
",,,,,,*.%*.*$.$*.*%%%*.**.*-.$%.*>*.**.$%.----,,,-.$-*.**.*,,,,,",
",,,,,,*.$**,--***-*.$**>-****--**,,**-*--*,,,,,,,-**--$**-,,,,,,",
",,,,,,-#*,,,>>>->>*$--,,,,-,,>>>-,,,>-,,,,,,,,,,>>>->>->-,,,,,,,",
",,,,,,--,,,>>,,,,>>->,,>>,,,,,,>>,,,,,,,,,,,,,,>,,>,,,>,>,,,,,,,",
",,,,,>,,,,,,,,,,,,,,,,,,,>,,,>>,,,>,,>>,,,,,,,,,,,,,,,,,,,,,,,,,"};
