/* XPM */
static char *Popular_TV[] = {
/* columns rows colors chars-per-pixel */
"64 48 17 1",
"  c #FAAE59",
". c #FBAE59",
"X c #F8AD5B",
"o c #F9AD5B",
"O c #F9AE5A",
"+ c #F8AE5B",
"@ c #F9AE5B",
"# c #FAAE5A",
"$ c #6C96CB",
"% c #6D96CB",
"& c #6D97CB",
"* c #6E97CA",
"= c #6E97CB",
"- c #6A96CD",
"; c #6B96CD",
": c #6C96CC",
"> c None",
/* pixels */
">>>>>>>>>>>>>>>>>>>>>>>>>>>>>>>>>>>>>>>>>>>>>>>>>>>>>>>>>>>>>>>>",
">>>>>>>>>>>>>>>>>>>>>>>>>>>>>>>>>>>>>>>>>>>>>>>>>>>>>>>>>>>>>>>>",
">>>>>>>>>>>>>>>>>>>>>>>>>>>>>>>>>>>>>>>>>>>>>>>>>>>>>>>>>>>>>>>>",
">>>>>>>>>>>>>@@@@>>*>>>>>>>>>>>>>>>>>>>>>>>>>>>>>>>>>>>>>>>>>>>>",
">>>>>>>>>>@@@@@@@>>****>>>>>>>>>>>>>>>>>>>>>>>>>>>>>>>>>>>>>>>>>",
">>>>>>>>@@@@@@@@@.>******>>>>>>>>>>>>>>>>>>>>>>>>>>>>>>>>>>>>>>>",
">>>>>>>>@@@@@@@@@@>%******>>>>>>>>>>>>>>>>>>>>>>>>>>>>>>>>>>>>>>",
">>>>>*>>@@@@@@@@@>>********>>>>>>>>>>>>>>>>>>>>>>>>>>>>>>>>>>>>>",
">>>>*%%>@@@@@@@@@>>*********>>>>>>>>>>>>>>>>>>>>>>>>>>>>>>>>>>>>",
">>>%*%%>>@@@@@@@>>%**********>>>>>>>>>>>>>>>>>>>>>>>>>>>>>>>>>>>",
">>>****;>@@@@@@>>%****%*******>>>>>>>>>>>>>>>>>>>>>>>>>>>>>>>>>>",
">>****%%>@@@.>>>***************>>>>>>>>>>>>>>>>>>>>>>>>>>>>>>>>>",
">>******>>>>>>%****************>>>>>>>>>>>>>>>>>>>>>>>>>>>>>>>>>",
">********>>>********************>>>>>>>>>>>>>>>>>>>>>>>>>>>>>>>>",
">*******************************>>>>>>>>>>>>>>>>>>>>>>>>>>>>>>>>",
"********************************>>>>>>>>>>>>>>>>>>>>>>>>>>>>>>>>",
"*******%***********************>>>>>>>>>>>>>>>>>>>>>>>>>>>>>>>>>",
"******************************>>>>>>>>>>>>>>>>>>>>>>>>>>>>>>>>>>",
"******************************>>@>>>>>>>>>>>>>>>>>>>>>>>>>>>>>>>",
"*****************************>>@@>>>>>>>>>>>>>>>>>>>>>>>>>>>>>>>",
"****************************>>@@@>>>>>>>>>>>>>>>>>>>>>>>>>>>>>>>",
"**%************************>>@@@>>>>>>>>>>>>>>>>>>>>>>>>>>>>>>>>",
"**************************>>>@@@>>>>>>>>>>>>>>>>>>>>>>>>>>>>>>>>",
">************************>>>@@@@>>>>>>>>>>>>>>>>>>>>>>>>>>>>>>>>",
">**********************%>>@@@@@@>>>>>>>>>>>>>>>>>>>>>>>>>>>>>>>>",
">*********************>>>@@@@@@>>>>>>>>>>>>>>>>>>>>>>>>>>>>>>>>>",
">>****%*********%%%%>>>@@@@@@@@>>>>>>>>>>>>>>>>>>>>>>>>>>>>>>>>>",
">>**************%>>>>.@@@@@@@@>>>>>>>>>>>>>>>>>>>>>>>>>>>>>>>>>>",
">>>***********>>>>>@@@@@@@@@@>>>>>>>>>>>>>>>>>>>>>>>>>>>>>>>>>>>",
">>>>*********>>>@@@@@@@@@@@@@>>>>>>>>>>>>>>>>>>>>>>>>>>>>>>>>>>>",
">>>>>***%****%>@@@@@@@@@@@@@>>>>>>>>>>>>>>>>>>>>>>>>>>>>>>>>>>>>",
">>>>>>*******%>@@@@@@@@@@@@>>>>>>>>>>>>>>>>>>>>>>>>>>>>>>>>>>>>>",
">>>>>>>*******>>@@@@@@@@@>>>>>>>>>>>>>>>>>>>>>>>>>>>>>>>>>>>>>>>",
">>>>>>>>******;>@@@@@@@@>>>>>>>>>>>>>>>>>>>>>>>>>>>>>>>>>>>>>>>>",
">>>>>>>>>>>***%>@@@@@>>>>>>>>>>>>>>>>>>>>>>>>>>>>>>>>>>>>>>>>>>>",
">>>>>>>>>>>>>>>>>>>>>>>>>>>>>>>>>>>>>>>>>>>>>>>>>>>>>>>>>>>>>>>>",
">>>>>>>>>>>>>>>>>>>>>>>>>>>>>>>>>>>>>>>>>>>>>>>>>>>>>>>>>>>>>>>>",
">>>>>>>>>>>>>>>>>>>>>>>>>>>>>>>>>>>>>>>>>>>>>>>>>>>>>>>>>>>>>>>>",
">>>>>>>>>>>>>>>>>>>>>>>>>>>>>>>>>>>>>>>>>>>>>>>>>>>>>>>>>>>>>>>>",
">>>>>>>>>>>>>>>>>>>>>>>>>>>>>>>>>>>>>>>>>>>>>>>>>>>>>>>>>>>>>>>>",
">>>>>>>>>>>>>>>>>>>>>>>>>>>>>>>>>>>>>>>>>>>>>>>>>>>>>>>>>>>>>>>>",
">>>>>>>>>>>>>>>>>>>>>>>>>>>>>>>>>>>>>>>>>>>>>>>>>>>>>>>>>>>>>>>>",
">>**>>*>**>>**>>*>>*>>*>>>>>>*>>>>>>**>>>**>>*>>>>>>>>>**>>*>>>*",
">>**>**>*>>>>*>>**>*>>*>>>*>>*>>>>>***>>>**>>*>>>>>>>>>>>>>>*>*>",
">>*%>>>>**>>>*>>*>>>>>*>>>*>>*>>>>>****>>****>>>>>>>>>>>>>>>***>",
">>*>>>>>>*****>>*>>>>>*****>>****>*>>>*>>*>>*>>>>>>>>>>>>>>>>*>>",
">>>>>>>>>>>>>>>>>>>>>>>>>>>>>>>>>>>>>>>>>>>>>>>>>>>>>>>>>>>>>>>>",
">>>>>>>>>>>>>>>>>>>>>>>>>>>>>>>>>>>>>>>>>>>>>>>>>>>>>>>>>>>>>>>>"
};
