/* XPM */
static char *RAC___[] = {
/* columns rows colors chars-per-pixel */
"64 48 64 1",
"  c #050302",
". c #0C0302",
"X c #1A0604",
"o c #230704",
"O c #2C0805",
"+ c #3A0906",
"@ c #490B07",
"# c #580E08",
"$ c #650E08",
"% c #711009",
"& c #78120B",
"* c #84120B",
"= c #8D140C",
"- c #97140C",
"; c #AA170E",
": c #B5170C",
"> c #BF170C",
", c #B4190E",
"< c #BD190E",
"1 c #BB1B10",
"2 c #C11308",
"3 c #C1170C",
"4 c #C21A0F",
"5 c #C41C11",
"6 c #C42116",
"7 c #C4251B",
"8 c #C6291F",
"9 c #C52E24",
"0 c #C93026",
"q c #C9342B",
"w c #CA3D34",
"e c #CC4037",
"r c #C8433A",
"t c #CA443B",
"y c #CE4B43",
"u c #D0534B",
"i c #D2564E",
"p c #D45C54",
"a c #D0615A",
"s c #D6645C",
"d c #D76C65",
"f c #D8736C",
"g c #DB7C76",
"h c #DE837D",
"j c #DF8983",
"k c #DD9591",
"l c #E18F8A",
"z c #E39A95",
"x c #E4A29E",
"c c #E7A9A5",
"v c #E9AEAA",
"b c #EAB2AE",
"n c #ECBAB7",
"m c #EEC2BF",
"M c #EDC6C3",
"N c #F0CCCA",
"B c #F2D1CF",
"V c #F3D4D2",
"C c #F4DCDA",
"Z c #F7E5E4",
"A c #F9EDEC",
"S c #FBF5F4",
"D c #FCF8F8",
"F c #FFFFFF",
/* pixels */
"FFFFFFFFFFFCkptttttrtrrrrtrrrrrrrrtttttrrrttrtttrtakCFFFFFFFFFFF",
"FFFFFFFFFDct6444444444444544445444444444545444544445ynFFFFFFFFFF",
"FFFFFFFFFx844444444444454444444454444444455444455>4349vFFFFFFFFF",
"FFFFFFFFMq44444443455544444444444554444444455444445444wBFFFFFFFF",
"FFFFFFFFd5443445545445544454444445544445544434444444444gFFFFFFFF",
"FFFFFFFFq454>4554445444444445544444344444444>5454444454rFFFFFFFF",
"FFFFFFFF534444554444444443445444444454444544444444444558FFFFFFFF",
"FFFFFFFF544444444444444444454443445444544444345454444445FFFFFFFF",
"FFFFFFFF444454444443>44445455544444444544444454455554>34FFFFFFFF",
"FFFFFFFF444444444<<54:,<45<,;;,54444544,;;,4444454554454FFFFFFFF",
"FFFFFFFF4>4444444-@;%Oo*4=@ooXO&<4445:%Oooo#-44444544555FFFFFFFF",
"FFFFFFFF344544445* +X+@-,OO%-*+.&434,@.@*=$X+:4443544444FFFFFFFF",
"FFFFFFFF455545445* X*<<>4-;544;o+<44% $<545=-<4444444444FFFFFFFF",
"FFFFFFFF444445444* @54344444<<1@o,4<+O,45444444445445444FFFFFFFF",
"FFFFFFFF444444444* &54>44:=#@++.o;5;X#444444455444>44444FFFFFFFF",
"FFFFFFFF4444>>344* *5445;@.O@$$OX;5;X$455554455443>44444FFFFFFFF",
"FFFFFFFF4434>4444* *4444$.%,444@X;4;X@444444554444444444FFFFFFFF",
"FFFFFFFF334554444* *444<@o1544,OX;5<+o;44444444444544554FFFFFFFF",
"FFFFFFFF444545444* *4444#X-44<$ o;54*.@,44<*%<4444444445FFFFFFFF",
"FFFFFFFF545544444* *5444=Xo$%@o+X;54<#.O$%@.@:4544444444FFFFFFFF",
"FFFFFFFF4444434>4-+-4444<=@OO@-=#;444<*@OO+%,44444444544FFFFFFFF",
"FFFFFFFF>45444444<<<445455<,:44444343444:,<5444444444544FFFFFFFF",
"FFFFFFFF444444544444444544444445444444344444444544454444FFFFFFFF",
"FFFFFFFF44>444444444444444554334344444>44455444444455334FFFFFFFF",
"FFFFFFFF4555444435555434444359qq7434333455666655555444>4FFFFFFFF",
"FFFFFFFF44453444tzcvcw34445icBZCnhq444>tcvvvvvvvvvd44544FFFFFFFF",
"FFFFFFFF4544446dCFFFSi3456gAFFFFFFMe343pSFFFFFFFFFz>4434FFFFFFFF",
"FFFFFFFF444440zSFFFFSi>44sAFFFFFFFFn943sSFFFFFFFFFz>4444FFFFFFFF",
"FFFFFFFF4445ymFFFFFFSi349MFFFZvmDFFDf43fDFFZVVVVVVg34445FFFFFFFF",
"FFFFFFFF4430NFFFFFFFSi33pSFFAs58cFFFn7>fDFFg900000744344FFFFFFFF",
"FFFFFFFF5445hDFAxCFFSi33lFFFb643iAFFZw>gFFDs4553>3444454FFFFFFFF",
"FFFFFFFF44548vCd0BFFSi35vFFFg3549BFFSi2jFFDnccldw4444445FFFFFFFF",
"FFFFFFFF44444qt39VFFSi38mFFDs3445nFFDd2jFFFFFFFDCg644454FFFFFFFF",
"FFFFFFFF545444349VFFSi39BFFSp3445vFFDd2lFFDSDFFFFSg44454FFFFFFFF",
"FFFFFFFF445444440VFFSp39BFFSp3445bFFDd4hbjdpdzZFFFCq4444FFFFFFFF",
"FFFFFFFF4344>4449BFFSi37nFFFs3345MFFDd475>3333pAFFSi3444FFFFFFFF",
"FFFFFFFF444445430VFFSi35cFFFj443qCFFSu2347444>6MFFDs3455FFFFFFFF",
"FFFFFFFF444454550VFFSi33hFFFM8>3sSFFCq9plvw343qVFFDp3544FFFFFFFF",
"FFFFFFFF445444559VFFSi34yAFFSh0tMFFFc7cSFFbt9wxDFFZe3444FFFFFFFF",
"FFFFFFFF444445440VFFSu346vFFFSVZFFFSp3gDFFFZBZFFFFc64444FFFFFFFF",
"FFFFFFFF4444444>9VFFSi343yCFFFFFFFFz649vFFFFFFFFFVt45444FFFFFFFF",
"FFFFFFFF444444449VFFSi3444pNDFFFFAz84430zAFFFFFSny455457FFFFFFFF",
"FFFFFFFF945>44546fjjhq444440fcnnzi5455445yjbnbzp8344444qFFFFFFFF",
"FFFFFFFFa45445554333445444>3454543444544434455434444555fFFFFFFFF",
"FFFFFFFFn944445444544444444445444444454544455544444444qMFFFFFFFF",
"FFFFFFFFDl64444444444445544545434454444554544444544457zFFFFFFFFF",
"FFFFFFFFFSkq54454443444344454444344444>4444443444445wzDFFFFFFFFF",
"FFFFFFFFFFDMfr909999999999999999999999999999999999tgNDFFFFFFFFFF"
};
