/* XPM */
static char *Radio_Cl__sica[] = {
/* columns rows colors chars-per-pixel */
"64 48 64 1",
"F c None",
"  c #B4182D",
". c #BB1729",
"X c #A41D36",
"o c #B41D33",
"O c #9D213C",
"+ c #BB273A",
"@ c #A8223A",
"# c #D80C17",
"$ c #D6111D",
"% c #EB060C",
"& c #E6080E",
"* c #E40A11",
"= c #ED0F15",
"- c #C71322",
"; c #D71924",
": c #E91B21",
"> c #C52636",
", c #D32A36",
"< c #D8232D",
"1 c #E83037",
"2 c #AD364D",
"3 c #9E2742",
"4 c #D13643",
"5 c #E63D44",
"6 c #B64357",
"7 c #B85367",
"8 c #BA6577",
"9 c #D64752",
"0 c #D5515D",
"q c #D14552",
"w c #EC4B51",
"e c #CB5967",
"r c #EB5D62",
"t c #CF6875",
"y c #EB6C72",
"u c #BD6F81",
"i c #C57585",
"p c #D37884",
"a c #E77B82",
"s c #D48894",
"d c #E99399",
"f c #F4979A",
"g c #EE878C",
"h c #EB9CA1",
"j c #DCA8B2",
"k c #F5A6A9",
"l c #F5B6B9",
"z c #E9ADB3",
"x c #D39AA6",
"c c #E7BCC3",
"v c #EAC5CB",
"b c #F6C7CA",
"n c #F6D8DB",
"m c #F0D0D4",
"M c #F4DDE0",
"N c #EFDDE1",
"B c #FAE3E4",
"V c #FBECED",
"C c #F5E5E8",
"Z c #FCF4F4",
"A c #FEFEFE",
"S c #FCF7F8",
"D c #FAEEF0",
/* pixels */
"FAAAAAAAAAAAAAAAAAAAAAAAAAAAAAAAAAAAAAAAAAAAAAAAAAAAAAAAAAAAAAAA",
"FAAAAAAAAAAAAAAAAAAAAAAAAAAAAAAAAAAAAAAAAAAAAAAAAAAAAAAAAAAAAAAA",
"FAAAAAAAAAAAAAAAAAAAAAAAAAAAAAAAAAAAAAAAAAAAAAAAAAAAAAAAAAAAAAAA",
"FAAAAAAAAAAAAADcMAvjAAAAAAAAAAAAAAVlbAAAcyZAAAAAABfVAAAAAAAAAAAA",
"FAAAAAAAAAAAASt+jA82CAAAAAAAAAAAAAg-dAAb40VAAAAAAg*kAAAAAAAAAAAA",
"FAAAAAAAAAAAAApojA82CAAAAAAAAAAAAAl;dAAgyBAAAAAAAf=kAAAAAAAAAAAA",
"FASSCSCcvSAASZz@jANvAAABBAAAAAAVnSM,dASbznAAABmVAVlVAAVnZAVblBAA",
"Fs8i7z2X@xAZp66ojDsiDAh44hAAAAvq>an,dAd;$,bAb5;rVfrbAb5:yVr=%wBA",
"F6OO7vts27Sz@62ojm32Cm+>>>vAAV9400n,dAkyy;gAr9a5nw*lZw1w5Vyyw=kA",
"FxO8NSSAs6Vp2nc@jA82Cd.zz.sAAc>znan,dASAV5yZ5gSbSf*lb:knyZSAb:fA",
"FjOjAAci22Ct6Sv@jAu2Cp+MB>tAAh>nAZM,dAVdr;yS0,zSAk*lk:bAZAngw=fA",
"FxOjAc3X@2CeeAv@jAu2Cp4CC4tAAd>BAAM,dAa$;$yAl,$ySk*lf:nAAVw%=%gA",
"FxOzAi2ji2Ce7Av@xAu2Cp+BC>tAAd>nAAB,dD49l5rAAnw;nk*lf:bAAb=yk:gA",
"FxOzAt7Ss2Ct2CzoxAu2Cs+mm>sAAz-zAAB,gB,gS9rVgZl;bk*ll=hAAl=ln:gA",
"FiOxAs3i2@zxX72osC73mv+ee>cAAB44ydV4,h94y;4b5yr1na*gB11ygb:ww%wA",
"F628ZN77i6jm2@62ej22sSs++sSAAAz4>aSa;dz40r9ba<<fBw:wZk1:yZg1rw1A",
"FCCCAAZDSVSAnvVmnZNNVASmvSAAAAABnSAZnZAVZZDASnnSAMnBAABnZASBSVZA",
"FAAAAAAAAAAAAAAAAAAAAAAAAAAAAAAAAAAAAAAAAAAAAAAAAAAAAAAAAAAAAAAA",
"FDmVAAZMVAABMAAACmnSAAAAAAAASnbbBAAAAAAAAAAAAAAAAAAAAAAAAAAAAAAA",
"F838Dc72tSv22cCp4>>tMAAAAAAmr<::1yVAAAAAAAAAAAAAAAAAAAAAAAAAAAAA",
"F3O3i2XX6Vs  te..---0ZAAAAb1##**&&rVAAAAAAAAAAAAAAAAAAAAAAAAAAAA",
"FOOXXXXX6Vp  ....----lAAAVw###**&&%yAAAAAAAAAAAAAAAAAAAAAAAAAAAA",
"FOOXXXXX7Zp  ....----gAAAd###1yr:&%:bAAAAAAAAAAAAAAAAAAAAAAAAAAA",
"FOOXXX@2sAp  ..qpq---tAAB5##wnASk:%%yAAAAAAAAAAAAAAAAAAAAAAAAAAA",
"FOOXX6jnSAp  .tCAb>--0SAz$#;lAAAAr%%1VAAAAAAAAAAAAAAAAAAAAAAAAAA",
"FOOX3cAAAAp  +vAAZq--9ZAy##wZAAAAk&%=bAAAAAAAAAAAAAAAAAAAAAAAAAA",
"FOOX7ZAAAAp  +nAAS0--9ZD5##aAAAAAb:%%kAAAAAAAAAAAAAAAAAAAAAAAAAA",
"FOOXtAAAAAp  +nAAS0--9Zn<##fAAAAAn:%%gAAAAAAAAAAAAAAAAAAAAAAAAAA",
"FOOXiAAAAAp  +nAAS0--9Zb;##dZVVVVb:%%gAAAAAAAAAAAAAAAAAAAAAAAAAA",
"FOOXiAAAAAp  +nAAS0--9Sz$##<111111&%%gAAAAAAAAAAAAAAAAAAAAAAAAAA",
"FOOXiAAAAAp  +nAAS0--9Sk$#####**&&%%%gAAAAAAAAAAAAAAAAAAAAAAAAAA",
"FOOXiAAAAAp  +nAAS0--9Sk$#####**&&%%%kAAAAAAAAAAAAAAAAAAAAAAAAAA",
"FOOXiAAAAAp  +nAAS0--9Sk$#####**&&%%wBAAAAAAAAAAAAAAAAAAAAAAAAAA",
"FOOXiAAAAAp  +nAAS0--9Sz$##rhffffffkBAAAAAAAAAAAAAAAAAAAAAAAAAAA",
"FOOXiAAAAAp  +nAAS0--9Sl;##kAAAAAAAAAAAAAAAAAAAAAAAAAAAAAAAAAAAA",
"FOOXiAAAAAp  +nAAS0--9Zb;##dAAAAAAAAAAAAAAAAAAAAAAAAAAAAAAAAAAAA",
"FOOXiAAAAAp  2MAAS0--9ZB,##yAAAAAAAAAAAAAAAAAAAAAAAAAAAAAAAAAAAA",
"F3OXiAAAAAs  4CAAAe--0SZ9##1BAAAAAAAAAAAAAAAAAAAAAAAAAAAAAAAAAAA",
"Fi26cAAAAAv2otSAAAh>;hAAa###aSAAAAASZAAAAAAAAAAAAAAAAAAAAAAAAAAA",
"FSCCAAAAAAAmvCAAAASmbZAAl;##$aBAASbrrVAAAAAAAAAAAAAAAAAAAAAAAAAA",
"FAAAAAAAAAAAAAAAAAAAAAAAZ9####1yyr:%:nAAAAAAAAAAAAAAAAAAAAAAAAAA",
"FAAAAAAAAAAAAAAAAAAAAAAAAk;###**&&%%1BAAAAAAAAAAAAAAAAAAAAAAAAAA",
"FAAAAAAAAAAAAAAAAAAAAAAAASy###**&&%%yAAAAAAAAAAAAAAAAAAAAAAAAAAA",
"FAAAAAAAAAAAAAAAAAAAAAAAAAVy$#**&&&wBAAAAAAAAAAAAAAAAAAAAAAAAAAA",
"FAAAAAAAAAAAAAAAAAAAAAAAAAAZkw:*:5fVAAAAAAAAAAAAAAAAAAAAAAAAAAAA",
"FAAAAAAAAAAAAAAAAAAAAAAAAAAAAAAAAAAAAAAAAAAAAAAAAAAAAAAAAAAAAAAA",
"FAAAAAAAAAAAAAAAAAAAAAAAAAAAAAAAAAAAAAAAAAAAAAAAAAAAAAAAAAAAAAAA",
"FAAAAAAAAAAAAAAAAAAAAAAAAAAAAAAAAAAAAAAAAAAAAAAAAAAAAAAAAAAAAAAA"
};
