/* XPM */
static char *Radio_Ciutat_Badalona[] = {
/* columns rows colors chars-per-pixel */
"64 48 64 1",
"F c None",
"  c #000000",
". c #0B0202",
"X c #0B0A0A",
"o c #130304",
"O c #1A0506",
"+ c #1C0709",
"@ c #1D1C1C",
"# c #121212",
"$ c #240608",
"% c #2C080A",
"& c #230507",
"* c #330A0C",
"= c #3B0B0D",
"- c #201F1F",
"; c #252525",
": c #373737",
"> c #302F2F",
", c #470E11",
"< c #5C1115",
"1 c #541115",
"2 c #430D10",
"3 c #681418",
"4 c #7C181D",
"5 c #73161B",
"6 c #782025",
"7 c #444444",
"8 c #4B4B4B",
"9 c #484747",
"0 c #545454",
"q c #5B5B5B",
"w c #585757",
"e c #504F4F",
"r c #616161",
"t c #6A6A6A",
"y c #777777",
"u c #605F5F",
"i c #82191E",
"p c #8B1B21",
"a c #851A20",
"s c #921C22",
"d c #981E24",
"f c #A11F26",
"g c #A82128",
"h c #B4232B",
"j c #95292F",
"k c #C3262E",
"l c #AA3B41",
"z c #B74D52",
"x c #D5676D",
"c c #EA7C81",
"v c #7F8080",
"b c #848484",
"n c #919191",
"m c #989797",
"M c #A8A8A8",
"N c #B9B9B9",
"B c #EF9BA0",
"V c #D5D5D5",
"C c #C2C2C2",
"Z c #FFDBDD",
"A c #FEFEFE",
"S c #FFF3F4",
"D c #F4EAEA",
/* pixels */
"FAAAAAAAAAAAAAAAAAAAAAAAAAAAAAAAAAAAAAAAAAAAAAAAAAAAAAAAAAAAAAAA",
"FAAAAAAAAAAAAAAAAAAAAAAAAAAAAAAAAAAAAAAAAAAAAAAAAAAAAAAAAAAAAAAA",
"FAAAAAAAAAAAAAAAAAAAAAAAAAAAAAAAAAAAAAAAAAAAAAAAAAAAAAAAAAAAAAAA",
"FAAVMMnnnnmmmmmmmmmmmmmmmmmmmmmmmmmmmmmmmmmmmnnnnnnnnnnnnnnnnnnA",
"FAVq;@X..XXXXXXXXXXXXXXXXXXXXXXXXXXXXXXXXXXXXX.................A",
"FDt.                                          wbbbbbbbbbbbbbbbbA",
"FN;                                           MAAAAAAAAAAAAAAAAA",
"FnX                                           MAAAAAAAAAAAAAAAAA",
"Fy.                                           MAAAAAAAAAAAAAAAAA",
"Fy                                            MAAAAAAAAAAAAAAAAA",
"Fr        =%       . o.                       0yyyyyyyyyyyyyyyyA",
"Fr        ,4.      ,%5=                                        A",
"Fr        .2.      3=2$                                        A",
"Fr   .$=& =1$+. %1%3=O. &,*                   9ttttttttttttttttA",
"Fr   +di*,d4aao*siad=<$&lcx1                  MAAAAAAAAAAAAAAAAA",
"Fr   $g%Op%.,gO41.%g=3%6BSZzo                 MAAAAAAAAAAAAAAAAA",
"Fr   $p.=5  oi%io  5=3=zDAAB*                 MAAAAAAAAAAAAAAAAA",
"Ft   $4 =3  .5%4.  3=3=zSAAB=                 nVVVVVVVVVVVVVVVVA",
"Ft   $4 %i. $p$a$ .p=3*lZASx%                 #;@@@@@@@@@@@@@@@A",
"Ft   $4 .i3%5go<4%1h=5%<BZBj.                                  A",
"Ft   O1  $ip31..3s51$,O.6zj$                                   A",
"Ft    .   oO .  .O.  ..O.O.                    ................A",
"Ft                    2do      $,         o<. yMMMMMMMMMMMMMMMMA",
"Ft                    *ao      =4         $dO MAAAAAAAAAAAAAAAAA",
"Fr                     .       =4    .    &dO MAAAAAAAAAAAAAAAAA",
"Fr               2ai, O2+2   *1ph1..<s5$2O5k5O8yyyyyyyyyyyyyyyyA",
"Fr              1gaih1*p=p.  5pdh3.3haddf%ika+                 A",
"Fr             +f2  23=s=p.  5<=4 %g* oakO$dO                  A",
"Fr             14    .*s=p.  5<=4 35   *gO+dO                  A",
"Fr             5<     *s=p.  5<=4 41   osO+dO                  A",
"Fr             5<     *s=p.  5<=4 41   osO+dO #;@@@@@@@@@@@@@@@A",
"Fr             <a    .*s*do  41=4 34   *gO+dO nVVVVVVVVVVVVVVVVA",
"Fr             $g=  ,3=sOd2 $g*=4 %f* oihO+dO nVVVVVVVVVVVVVVVVA",
"Fr              1hiah,*p.<hpga.=4  3h4sdfO+sO #@@@@@@@@@@@@@@@@A",
"Fr              .1ai2 o= .<p5O O=  .<p3&2..2.                  A",
"Fr                .        .         .                         A",
"Fr                                                             A",
"Fr                                                             A",
"Fr                                            X################A",
"Fr                                            bCCCCCCCCCCCCCCCCA",
"Fr                   X.       X   X          .qmmvbbbybbynmbbbbA",
"Fr                   :-. XX .-:.XX7XX  X  X   @tr#>:..::.08:X;:A",
"Fr                   wr9;wr>8t07q007r:9q>:q9  >80;t8 Xy9 t9y#qwA",
"Fr                   w>7q>9r:>r8;rq0;qr:08;qX #tt:y7 >y7 8:t7tqA",
"Fr                   8;:t;:u:;q9@qq0@q0@08#wX  977brXebq 778t80A",
"Fr                   wyt9yywtyqtyy0ryw8;8ryy@##8;#:89@99X98:w>0A",
"FAAAAAAAAAAAAAAAAAAAAAAAAAAAAAAAAAAAAAAAAAAAAAAAAAAAAAAAAAAAAAAA",
"FAAAAAAAAAAAAAAAAAAAAAAAAAAAAAAAAAAAAAAAAAAAAAAAAAAAAAAAAAAAAAAA"
};
