/* XPM */
static char *RADIO_MARCA[] = {
/* columns rows colors chars-per-pixel */
"64 48 42 1",
"  c #DD0027",
". c #D5062A",
"X c #DD0029",
"o c #D40B2C",
"O c #DB0B2E",
"+ c #D8102A",
"@ c #DE0730",
"# c #D50D33",
"$ c #DC0C32",
"% c #C51434",
"& c #D61132",
"* c #DC1236",
"= c #D71238",
"- c #DC143A",
"; c #D31C3B",
": c #DA1A3B",
"> c #E00026",
", c #E0032A",
"< c #E10B2D",
"1 c #E10C33",
"2 c #E30E39",
"3 c #E11136",
"4 c #E11837",
"5 c #D71742",
"6 c #E11542",
"7 c #304D8F",
"8 c #38508D",
"9 c #2E4B96",
"0 c #2D4A9A",
"q c #334D95",
"w c #384D94",
"e c #324C99",
"r c #394D9B",
"t c #2D5197",
"y c #2E5199",
"u c #345094",
"i c #395090",
"p c #35519A",
"a c #3F569B",
"s c #405190",
"d c #42559C",
"f c None",
/* pixels */
"ffffffffffffffffffffffffffffqr0ypeffffffffffffffffffffffffffffff",
"fffffffffffffffffffffffffqe0000000rfffffffffffffffffffffffffffff",
"ffffffffffffffffffffffwq000eetpffdffffffffffffffffffffffffffffff",
"ffffffffffffffffffffu0900qfff:ffffffffffffffffffffffffffffffffff",
"fffffffffffffffffffq00efff<$*-$fffwerfffffffffffffffffffffffffff",
"ffffffffffffffffffe0quffffOfff1fffq000rqffffffffffffffffffffffff",
"ffffffffffffffffp909fff=ff$fff<fffffee000effffffffffffffffffffff",
"fffffffffffffffpq0pffff<*f=*31fffffffffee09uffffffffffffffffffff",
"fffffffffffffff000f+O*ff&ffffffffffffffffe00efffffffffffffffffff",
"ffffffffffffff00ef&ffOfffffy9t00e00eqrfffff00qffffffffffffffffff",
"fffffffffffffe0efOfffO&ffw000009000000eqffffq0qfffffffffffffffff",
"ffffffffffffu0eff1=f21fu9e00000000000000effffe0wffffffffffffffff",
"ffffffffffff90qfffO$3fe0000000000000000009wfffe0wfffffffffffffff",
"fffffffffffq9efffff;fe00000000000990000090erfff0efffffffffffffff",
"fffffffffffe0fffffffq000000qtq09ee9eut000009fffiqsffffffffffffff",
"ffffffffffw09f*=$*ffe00009qffffffffffffw0090ufffffffffffffffffff",
"ffffffffffe0yf$f=ffe0900000f##....o..off900eff.XO......%ffffffff",
"ffffffffffe0ff&=*fft0900000fOX        $fe00ef&X XXXXX X&ffffffff",
"ffffffffff0efff$3fu0000000yfX XX      Ofe90tfO  XXXX X $ffffffff",
"fffffffffr0rffff5f0000000y0fX XX  XXX Off90ffXX XXXX  X+ffffffff",
"fffffffffp0effffff00000000yfXXX, X   , Of90f1XXXXXXX,X Offffffff",
"fffffffffe0pf3-*ff00000000yf, XXXXXX X Xfyef,XXXXX,X X Offffffff",
"fffffffffp0f1&*$ff0000y000yfOX,XXXXX,  XffffXXXXXXXX XX;ffffffff",
"fffffffffe0f*f6ffp0000y000efffOXX  XXXXX$ff1XXXXX,XX>Xffffffffff",
"fffffffffp0f-f-ffq0000e000pwffXXX , XX, OffXXX XXXX X.ffffffffff",
"fffffffffe0a4*$$ffe000000000ffXX, XXXX ,Xf*,,XXX,XXXXXffffffffff",
"fffffffffe0effffff0000000000ffOXX XXXXXX OO XXXX XXX Xffffffffff",
"fffffffffp0rffffff9000000000ffXXX XXXX X XX X XXXXXXX.ffffffffff",
"ffffffffff0effffffq000000000ffXX, XXXXXX X XXX   XXX .ffffffffff",
"ffffffffffe0fffffff900000000ffXXX XXXXX> ,X XXXXX  XXXffffffffff",
"ffffffffffe0qffffffe00000000ff@XX X O* X X  XX&OXX>XX.ffffffffff",
"ffffffffffu0qffqqfff99000000ff@X, X O:XXX    O;X > XXXffffffffff",
"fffffffffff8fff00rffw0000000ffXOX X OfXXXX   @f.X    .ffffffffff",
"fffffffffffffffw90fffe000000ffXXX X>OfO, XX XffX>   XXffffffffff",
"ffffffffffffffff70qfffqe0000ffXX, X OffX XXXOff.   XX.ffffffffff",
"fffffffffffffffff90rfffq0000ffXXX X>Off$XXXX#ffX   XXXffffffffff",
"ffffffffffffffffffq0rffffq90ffXXX XX@ff$XX Xfff.>X X Xffffffffff",
"ffffffffffffffffffw90wfffffqffXXX X @fffXXXOfff.  >XXXffffffffff",
"ffffffffffffffffffffe0erffffff,XXXX Offf1X,3fffX  XXX.ffffffffff",
"fffffffffffffffffffffe0eqfffff,XX XX<fff2XXffffO   XX.ffffffffff",
"ffffffffffffffffffffffqe0eqfff,XX X 1ffff,OffffX   X Xffffffffff",
"ffffffffffffffffffffffffqq7f1, XXXX XX*ff$*ff1,XX X   O*ffffffff",
"ffffffffffffffffffffffffffff@XXXXXX XX&ffffff$ XXX,    &ffffffff",
"ffffffffffffffffffffffffffff@XXXXXX>X &ffffff@ X ,XX  XOffffffff",
"ffffffffffffffffffffffffffffX  X, X>, &ffffff$  XX,  > Offffffff",
"ffffffffffffffffffffffffffff< XXXX   X&ffffffO XXXX    Offffffff",
"ffffffffffffffffffffffffffffXXXX XX   $ffffffO XXX X   Offffffff",
"ffffffffffffffffffffffffffff-$$$$$$$$$;ffffff-O@@$$$$$&-ffffffff"
};
