/* XPM */
static char *TV_del_Besos[] = {
/* columns rows colors chars-per-pixel */
"64 48 64 1",
"F c None",
"  c #94C32F",
". c #94C431",
"X c #96C836",
"o c #99CA3C",
"O c #96C638",
"+ c #9DCA47",
"@ c #A7D458",
"# c #A1CD4D",
"$ c #AED665",
"% c #B1DA6B",
"& c #B0D66B",
"* c #B5D972",
"= c #B8DB78",
"- c #0A98DA",
"; c #0698DC",
": c #199BD8",
"> c #239BD7",
", c #24A2DE",
"< c #2AA1DB",
"1 c #35A6DE",
"2 c #0299E3",
"3 c #009BE8",
"4 c #1A9FE0",
"5 c #37AAE1",
"6 c #2EA9E2",
"7 c #51B5E6",
"8 c #56B5E6",
"9 c #49AFE3",
"0 c #68B9E3",
"q c #51AEDD",
"w c #78C4EA",
"e c #6DC1EA",
"r c #A8A9AB",
"t c #B4B4B6",
"y c #C2E28B",
"u c #C8E598",
"i c #CDE7A1",
"p c #D9ECB8",
"a c #D1E8AA",
"s c #C3DF8F",
"d c #87CBEC",
"f c #93D1F0",
"g c #93CFED",
"h c #ACD9EF",
"j c #B6E0F4",
"k c #BAE0F4",
"l c #D0D0D1",
"z c #E4F2CD",
"x c #E8F4D3",
"c c #E9F4D7",
"v c #E1EFC6",
"b c #C9E7F6",
"n c #DAEEF9",
"m c #E7E7E7",
"M c #F2F9E6",
"N c #E2F2FA",
"B c #EAF5FC",
"V c #F9FCF5",
"C c #F1F9FD",
"Z c #FEFEFE",
"A c #F4F4F3",
"S c #EFF5E6",
"D c #BDDD83",
/* pixels */
"FZZZZZZZZZZZZZZZZZZZZZZZZZZZZZZZZZZZZZZZZZZZZZZZZZZZZZZZZZZZZZZZ",
"FZZZZZZZZZZZZZZZZZZZZZz&%cZZZZZZu%%%%%%%%%%%%%=ypMZZZZZZZZZZZZZZ",
"FZZZZZZZZZZZZZZZmmVZZV*OO=VZZZZZ=OXXXXXXXXXXXXXXo@iVZZZZZZZZZZZZ",
"FZZZZZZZZZZZZZZAtrlZZc+..+MZZZZZ*.................OyVZZZZZZZZZZZ",
"FZZZZZZZZZZZZZZmrrlZZc+..+MZZZZZ*.   ...........  .opZZZZZZZZZZZ",
"FZZZZZZZZZZZZZZmrrlZZV&OO*VZZZZZ*.  .XXXXXXXXXX..  .&VZZZZZZZZZZ",
"FZZZZZZZZZZZZZZZllACBZz**cZZZZZZ*. X*yyyyyyyuuy*+. .+xZZZZZZZZZZ",
"FZZZZZZZZZZZZZZZZZj95wBVVZZZZZZZ*. oxZZZZZZZZZZZz#. .aZZZZZZZZZZ",
"FZZZZZZZZZZZZZZZZb,;2;eZZZZZZZZZ*. oxZZZZZZZZZZZZu. .yZZZZZZZZZZ",
"FZZZZZZZZZZZZZZZZ0;232:bZZZZZZZZ*. oxZZZZZZZZZZZZpO .*ZZZZZZZZZZ",
"FZZZZZZZZZZZZZZZB123332fZVAVZZZZ*. oxZZZZZZZZZZZZzO .$ZZZZZZZZZZ",
"FZZZZZZZZZZZZMVZn,23332dZltlVZZZ*. oxZZZZZZZZZZZZzo .@ZZZZZZZZZZ",
"FZZZZZZZZZZZi@$xB123332fmrrrmZZZ*. oxZZZZZZZZZZZZzo .@ZZZZZZZZZZ",
"FZZZZZZZZZZz+OO*V0;2324blrrrlZZZ*. oxZZZZZZZZZZZZzo .@ZZZZZZZZZZ",
"FZZZZZZZZZZuO..#Mb<;2-wZmrrrlZZZ*. oxZZZZZZZZZZZZzo .@ZZZZZZZZZZ",
"FZZZZZZZZZZuO..#MZb89dCZAlrtAZZZ*. oxZZZZZZZZZZZZzo .@ZZZZZZZZZZ",
"FZZZZZZZZZZv+.O%VZZZCZZZZAmAZZZZ*. oxZZZZZZZZZZZZvO .$ZZZZZZZZZZ",
"FZZZZZZZZZZVu#$zZZZZASZZZZZZZZZZ*. oxZZZZZZZZZZZZu. .=ZZZZZZZZZZ",
"FZZZZZZZZZZZVMMZZZZAttAZZZZZZZZZ*. oxZZZZZZZZZZZc#. .iZZZZZZZZZZ",
"FZZZZZZZZZZZZZZZZZZAtrmZZZZZZZZZ*. Xyiiiiuiiiiiu$. .+xZZZZZZZZZZ",
"FZZZZZZZZZZZZZZZZZZZllVZZZZZZZZZ*.  .XXXXXXXXXXX.. .=VZZZZZZZZZZ",
"FZZZZZZZZZZCCCCCCCCCCCCCCZZZZZZZ*.   ...........   +zZZZZZZZZZZZ",
"FZZZZZZZZZZ95555555551559bZZZZZZ*.   ...........   +cZZZZZZZZZZZ",
"FZZZZZZZZZZ>-----;;-----:bZZZZZZ*.  ..XXXXXXXX...  .yZZZZZZZZZZZ",
"FZZZZZZZZZZfgffgw:6dfffgfNZZZNCZ*. .$**********%+. .#cZZZZZZZZZZ",
"FZZZZZZZZZZZZZZZN,7ZZZZZZZZZBqbZ*. ozZVVVVVVVVVZp+. OaZZZZZZZZZZ",
"FZZZZZZZZZZZZZZZN,7ZZZZZZZZZN1jZ*. oxZZZZZZZZZZZZD. .=ZZZZZZZZZZ",
"FZZZZZZZZZZZZZZZN,7ZZZZZZZZZN5jZ*. oxZZZZZZZZZZZZpO .@ZZZZZZZZZZ",
"FZZZZZZZZZZZZZZZN,7ZZZZZZZZZN6jZ*..oxZZZZZZZZZZZZzo .@ZZZZZZZZZZ",
"FZZZZZZZZZZZZZZZN,7ZZZZZZZZZN1jZ*..oxZZZZZZZZZZZZzo .@ZZZZZZZZZZ",
"FZZZZZZZZZZZZZZZN,7ZZBhdddddw,jZ*..oxZZZZZZZZZZZZzo .@ZZZZZZZZZZ",
"FZZZZZZZZZZZZZZZN,7ZC0:::::::-jZ*..oxZZZZZZZZZZZZzo .@ZZZZZZZZZZ",
"FZZZZZZZZZZZZZZZN,7Zh>gbbbbbj<jZ*..oxZZZZZZZZZZZZzo .@ZZZZZZZZZZ",
"FZZZZZZZZZZZZZZZN,7Z0qCZZZZZN6jZ*..oxZZZZZZZZZZZZzo .@ZZZZZZZZZZ",
"FZZZZZZZZZZZZZZZN,7C8wZZZZZZN6jZ*..oxZZZZZZZZZZZZzo .@ZZZZZZZZZZ",
"FZZZZZZZZZZZZZZZN,7C8wZZZZZZN6jZ*..oxZZZZZZZZZZZZzo .@ZZZZZZZZZZ",
"FZZZZZZZZZZZZZZZN,7C8wZZZZZZN6jZ*..oxZZZZZZZZZZZZzo .@ZZZZZZZZZZ",
"FZZZZZZZZZZZZZZZN,7C8wZZZZZZN6jZ*..oxZZZZZZZZZZZZzO .@ZZZZZZZZZZ",
"FZZZZZZZZZZZZZZZN,7C8wZZZZZZN6jZ*..oxZZZZZZZZZZZZpO .%ZZZZZZZZZZ",
"FZZZZZZZZZZZZZZZN,7C8wZZZZZZN6jZ*. oxZZZZZZZZZZZZs. .=ZZZZZZZZZZ",
"FZZZZZZZZZZZZZZZN,7C8wZZZZZZN5jZ*. ozVVVVVVVVVVMp+. .iZZZZZZZZZZ",
"FZZZZZZZZZZZZZZZN,7C8wZZZZZZN1kZ*. .@%%%%%%%%%$@o. .+xZZZZZZZZZZ",
"FZZZZZZZZZZZZZZZN,7C8wZZZZZZN1kZ*.  ..XXXXXXXX...  .=VZZZZZZZZZZ",
"FZZZZZZZZZZZZZZZN,7Z08ZZZZZZb<bZ*.   ..........  ..+zZZZZZZZZZZZ",
"FZZZZZZZZZZZZZZZN,7Zg>hNBBBn01BZ*.................+pZZZZZZZZZZZZ",
"FZZZZZZZZZZZZZZZN<7ZNq:1151<:gZZ=oOOOOOOOOOOOXXo#=zZZZZZZZZZZZZZ",
"FZZZZZZZZZZZZZZZB8wZZnd89999gCZZpuuuuuuuuuuuuuupcVZZZZZZZZZZZZZZ",
"FZZZZZZZZZZZZZZZZZZZZZZZZZZZZZZZZZZZZZZZZZZZZZZZZZZZZZZZZZZZZZZZ"
};
