/* XPM */
static char *TV_del_Besos[] = {
/* columns rows colors chars-per-pixel */
"64 48 39 1",
"  c #94C32F",
". c #94C432",
"X c #95CA35",
"o c #96C639",
"O c #98C73F",
"+ c #97CA3A",
"@ c #99CB3C",
"# c #99C545",
"$ c #9ACD42",
"% c #9CCD48",
"& c #9CD144",
"* c #1591CE",
"= c #1A92CE",
"- c #0D95D7",
"; c #0C98D7",
": c #0597DC",
"> c #0A96DA",
", c #0598DE",
"< c #0C99DC",
"1 c #1394D4",
"2 c #1996D4",
"3 c #149AD5",
"4 c #1A9AD7",
"5 c #1396DA",
"6 c #1A97DA",
"7 c #139BDC",
"8 c #1A9BDA",
"9 c #2097D4",
"0 c #229BDB",
"q c #019AE4",
"w c #009BE8",
"e c #149EE0",
"r c #A6A7A9",
"t c #A7A8AA",
"y c #AAABAD",
"u c #B1ACAE",
"i c #AFAFB2",
"p c #B1B1B3",
"a c None",
/* pixels */
"aaaaaaaaaaaaaaaaaaaaaaaaaaaaaaaaaaaaaaaaaaaaaaaaaaaaaaaaaaaaaaaa",
"aaaaaaaaaaaaaaaaaa%$$aaaaaaaaaaa&$@$@&&@&@&@@&&@&@&&&&&aaaaaaaaa",
"aaaaaaaaaiaaaaaaa#oo.+aaaaaaaaaa@o..XXX.X.X.X.XX.X.XoXoo@$&aaaaa",
"aaaaaaaaytyyaaaa#o  .o$aaaaaaaaa+..      .   .         ...o$aaaa",
"aaaaaaayrrryaaaa$o. .o$aaaaaaaaao       ....     .   .    ..@aaa",
"aaaaaaaayyyiaaaaa$oo.+aaaaaaaaaao    X.Xo@XooX@@X@@ooo.     o@aa",
"aaaaaaaaaipaaaaaaa&$%aaaaaaaaaaaX   .@$&&&&&&&&&&&&&&&@@.   .oaa",
"aaaaaaaaaaaa7<eeaaaaaaaaaaaaaaaao   Xaaaaaaaaaaaaaaaaaaa#    .aa",
"aaaaaaaaaaa>>,q,>7aaaaaaaaaaaaaao  .Xaaaaaaaaaaaaaaaaaaaa.    +a",
"aaaaaaaaaa1>qqqqq:aaaaaaaaaaaaaao  .Xaaaaaaaaaaaaaaaaaaaao.   +a",
"aaaaaaaaa5>qwwqqq:<aaaaaaaaaaaaa@   @aaaaaaaaaaaaaaaaaaaa+.  .+a",
"aaaaaaaaa5>qwwwwqqeaaauiyaaaaaaaX.  @aaaaaaaaaaaaaaaaaaaa@.  .Xa",
"aaa%#$aaa1-qqwwwq:7aatttttaaaaaaX   .aaaaaaaaaaaaaaaaaaaa@.  .Xa",
"aa#o.o+$aa-:qqqqq,aaytttttaaaaaa@   @aaaaaaaaaaaaaaaaaaaaX.   Xa",
"a#o.  .+aa6>:qq,<eaaytttttaaaaaa.   Xaaaaaaaaaaaaaaaaaaaa@.   Xa",
"a#o  ..Oaaaa67eeaaaaayyyyyaaaaaa@   Xaaaaaaaaaaaaaaaaaaaa@.  XXa",
"aaO...o#aaaaaaaaaaaaaaapaaaaaaaa@.  @aaaaaaaaaaaaaaaaaaaa@.   oa",
"aa%$O+$aaaaaaaaaaaaaaaaaaaaaaaaa.   Xaaaaaaaaaaaaaaaaaaaao    +a",
"aaaaaaaaaaaaaaiyiaaaaaaaaaaaaaaa@   XaaaaaaaaaaaaaaaaaaaO.. ..@a",
"aaaaaaaaaaaaaaytyaaaaaaaaaaaaaaa@  ..@aaaaaaaaaaaaaaaaa@..  .oaa",
"aaaaaaaaaaaaaauuuaaaaaaaaaaaaaaa.   XX@@@@@@@@@@@@XX@X+.    .+aa",
"aaaaaaaaaaaaaaaaaaaaaaaaaaaaaaaa@       X.  ..  .....X     .oaaa",
"a088eee8eeeeeeeeee888aaaaaaaaaaa@          ...  . .        .$aaa",
"a87<;;;;<<,,;;;;;;<<7aaaaaaaaaaa.      ........X......     .oaaa",
"a887e7777<::7777eee38aaaaaaaaaaa@    @@@@@@@@@@@@@@@@@+.     #aa",
"aaaaaaaaa7,;aaaaaaaaaaaaaaa0aaaa.  ..@aaaaaaaaaaaaaaaaa$.    oaa",
"aaaaaaaaa<<<aaaaaaaaaaaaaaa46aaa@   @aaaaaaaaaaaaaaaaaaa#.  ..+a",
"aaaaaaaaa7:eaaaaaaaaaaaaaaa78aaa.  .@aaaaaaaaaaaaaaaaaaaao   .+a",
"aaaaaaaaa7><aaaaaaaaaaaaaaa57aaa@.  Xaaaaaaaaaaaaaaaaaaaa+    Xa",
"aaaaaaaaa7:eaaaaaaaaaaaaaaa57aaa@   XaaaaaaaaaaaaaaaaaaaaXX   Xa",
"aaaaaaaaa7><aaaaaaaaaaaaaaa<7aaa.   @aaaaaaaaaaaaaaaaaaaa@.   Xa",
"aaaaaaaaa7<<aaaa94448388433;7aaa@   @aaaaaaaaaaaaaaaaaaaa@.  .+a",
"aaaaaaaaa7:,aaa*=4488888843;7aaa@   @aaaaaaaaaaaaaaaaaaaa&.   +a",
"aaaaaaaaa7>eaaa*=aaaaaaaaaa>7aaa.   .aaaaaaaaaaaaaaaaaaaa@X   +a",
"aaaaaaaaa7,7aa*1aaaaaaaaaaa7eaaa@  .@aaaaaaaaaaaaaaaaaaaa@X   Xa",
"aaaaaaaaa7<<aa55aaaaaaaaaaa<7aaa.  .@aaaaaaaaaaaaaaaaaaaa@.  .+a",
"aaaaaaaaa7><aa75aaaaaaaaaaa77aaa@.  Xaaaaaaaaaaaaaaaaaaaa+X  .Xa",
"aaaaaaaaa7,<aa5eaaaaaaaaaaa<7aaa..  Xaaaaaaaaaaaaaaaaaaaa+    Xa",
"aaaaaaaaa7<<aa5eaaaaaaaaaaa77aaa.. .@aaaaaaaaaaaaaaaaaaaa+   XXa",
"aaaaaaaaa7<<aa55aaaaaaaaaaa57aaa@.  Xaaaaaaaaaaaaaaaaaaaa+   XXa",
"aaaaaaaaa7><aa57aaaaaaaaaaa57aaaX . Xaaaaaaaaaaaaaaaaaaa$o   .#a",
"aaaaaaaaa7><aa-7aaaaaaaaaaa58aaaX   X@aaaaaaaaaaaaaaaaa$o    .aa",
"aaaaaaaaa7:<aa55aaaaaaaaaaa56aaaX.  X.o@@$&@@@@@@@@@@@X.    .+aa",
"aaaaaaaaa6>eaa25aaaaaaaaaaa15aaa..     X.. XX. X.X...       oaaa",
"aaaaaaaaa7><aa21aaaaaaaaaaa-6aaa@    .       X  .        ..+%aaa",
"aaaaaaaaa8;<aaa*2aaaaaaaaa11aaaa@. . ... . X. X... X.....+@aaaaa",
"aaaaaaaaa257aaaa22668888622aaaaa$@@@@@@@@@@@@@@@@@@X@+@@$aaaaaaa",
"aaaaaaaaaa80aaaaaa00808880aaaaaaaaaaaaaaaaaaaaaaaaaaaaaaaaaaaaaa"
};
