/* XPM */
static char *TV_L_Hospitalet[] = {
/* columns rows colors chars-per-pixel */
"64 48 64 1",
"  c #1A171B",
". c #1C191D",
"X c #1F1C20",
"o c #211E22",
"O c #242125",
"+ c #282529",
"@ c #2D2B2E",
"# c #312E32",
"$ c #333034",
"% c #3D3A3D",
"& c #413F42",
"* c #4C4A4D",
"= c #585558",
"- c #5A585A",
"; c #646265",
": c #757476",
"> c #7B797C",
", c #E31818",
"< c #E31919",
"1 c #E42323",
"2 c #E52C2C",
"3 c #E63434",
"4 c #E73B3B",
"5 c #E84040",
"6 c #E84444",
"7 c #E94C4C",
"8 c #EA5454",
"9 c #EB5B5B",
"0 c #EC6363",
"q c #ED6D6D",
"w c #EE7474",
"e c #EF7E7E",
"r c #878688",
"t c #969597",
"y c #989799",
"u c #A8A7A8",
"i c #B8B8B9",
"p c #F08383",
"a c #F08686",
"s c #F18E8E",
"d c #F29393",
"f c #F39C9C",
"g c #F4A5A5",
"h c #F5ABAB",
"j c #F6B3B3",
"k c #F7BCBC",
"l c #C6C5C6",
"z c #C8C8C9",
"x c #CBCACB",
"c c #D0CFD0",
"v c #D6D5D6",
"b c #DDDDDE",
"n c #F8C2C2",
"m c #F8C7C7",
"M c #F9CBCB",
"N c #FAD4D4",
"B c #FBDCDC",
"V c #E4E4E4",
"C c #EDECED",
"Z c #FCE3E3",
"A c #FDECEC",
"S c #F2F2F2",
"D c #FEF3F3",
"F c #FFFFFF",
/* pixels */
"FFFFFFFFFFFFFFFFFFFFFFFFDNdq82,,,,17qsMAFFFFFFFFFFFFFFFFFFFFFFFF",
"FFFFFFFFFFFFFFFFFFFFFFBf92,,,,,,,,,,,,27dBFFFFFFFFFFFFFFFFFFFFFF",
"FFFFFFFFFFFFFFFFFFFFBa3,,,,,,,,,,,,,,,,,,3eNFFFFFFFFFFFFFFFFFFFF",
"FFFFFFFFFFFFFFFFFFDf4,,,,,,,,,,,,,,,,,,,,,,3sAFFFFFFFFFFFFFFFFFF",
"FFFFFFFFFFFFFFFFFN0,,,,,,,,,14777741,,,,,,,,,8MFFFFFFFFFFFFFFFFF",
"FFFFFFFFFFFFFFFFn5,,,,,,,30gnZDDDDZmhq4,,,,,,,3hFFFFFFFFFFFFFFFF",
"FFFFFFFFFFFFFFFh3,,,,,,6fBFFFFFFFFFFFFZg7,,,,,,1fFFFFFFFFFFFFFFF",
"FFFFFFFFFFFFFFj2,,,,,3dAFFFFFFFFFFFFFFFFAf4,,,,,1fFFFFFFFFFFFFFF",
"FFFFFFFFFFFFFm3,,,,,9MFFFFFFFFFFFFFFFFFFFFB0,,,,,1jFFFFFFFFFFFFF",
"FFFFFFFFFFFFZ7,,,,,qAFFFFFFFFFFFFFFFFFFFFFFAp1,,,,4NFFFFFFFFFFFF",
"FFFFFFFFFFFDw,,,,,wAFFFFFFFFFFFFFFFFFFFFFFFFDs1,,,,0DFFFFFFFFFFF",
"FFFFFFFFFFFj1,,,,qAFFFFFFFFFFFFFFFFFFFFFFFFFFDe,,,,,fFFFFFFFFFFF",
"FFFFFFFFFFA8,,,,7ZFFFFFFFFFFFFFFFFFFFFFFFFFFFFA9,,,,4ZFFFFFFFFFF",
"FFFFFFFFFFg,,,,2kFFFFFFFFFFFFFFFFFFFFFFFFFFFFFFN3,,,,sFFFFFFFFFF",
"FFFFFFFFFD8,,,,eFFVt:rvFFAdwsNFFSu:rzFFFFbt:rbFFd,,,,6ZFFFFFFFFF",
"FFFFFFFFFn1,,,3NFS-.  &bFq,,,8DF>.  @lFFS-. .*CFZ6,,,,jFFFFFFFFF",
"FFFFFFFFFp,,,,wFFV#   ozD5,,,6DF=    tFFV&   #VFFd,,,,qFFFFFFFFF",
"FFFFFFFFA8,,,1nFFV$   ozD5,,,6DF=    tFFV&   #VFFN2,,,4BFFFFFFFF",
"FFFFFFFFN2,,,7AFFV$   ozD5,,,6DF=    tFFV&   #VFFD9,,,1kFFFFFFFF",
"FFFFFFFFh1,,,qFFFV$   ozD5,,,6DF=    tFFV&   #VFFFs,,,,aFFFFFFFF",
"FFFFFFFFe,,,,gFFFV$   ozD5,,,6DF=    tFFV&   #VFFFk,,,,qFFFFFFFF",
"FFFFFFFFw,,,,nFFFV$   ozD7,,,6DF=    >cxi$   #VFFFM1,,,9FFFFFFFF",
"FFFFFFFF0,,,1mFFFV$   ozFk837hFF=    O@@+    #VFFFB4,,,4FFFFFFFF",
"FFFFFFFF9,,,2NFFFV$   ozFFDZAFFF=            #VFFFA6,,,4FFFFFFFF",
"FFFFFFFF9,,,2NFFFV$   XlFFFFFFFF=            #VFFFA6,,,4FFFFFFFF",
"FFFFFFFF0,,,1MFFFV$   XlFFFFFFFF=    @%%%o   #VFFFB4,,,4FFFFFFFF",
"FFFFFFFFw,,,,nFFFV$   XlFFFFFFFF=    rSSv%   #VFFFM1,,,9FFFFFFFF",
"FFFFFFFFe,,,,gFFFV$   XlFFFFFFFF=    tFFV&   #VFFFk,,,,qFFFFFFFF",
"FFFFFFFFh1,,,qFFFV$   XlFDDDDFFF=    tFFV&   #VFFFs,,,,aFFFFFFFF",
"FFFFFFFFN2,,,7AFFV$   .*----=;vF=    tFFV&   #VFFD9,,,1kFFFFFFFF",
"FFFFFFFFA8,,,1nFFV$           :D=    tFFV&   #VFFN2,,,4BFFFFFFFF",
"FFFFFFFFFp,,,,wFFV%           -S=    tFFV&   #VFFd,,,,qFFFFFFFFF",
"FFFFFFFFFn1,,,3NFFt@OOOOOOOOO@iF>.  @iFFS=   *CFZ6,,,,jFFFFFFFFF",
"FFFFFFFFFD8,,,,eFFDbxxxxxxxxxvFFCy:>iFFFFvr:rvFFd,,,,6ZFFFFFFFFF",
"FFFFFFFFFFg,,,,2kFFFFFFFFFFFFFFFFFFFFFFFFFFFFFFN3,,,,sFFFFFFFFFF",
"FFFFFFFFFFA8,,,,7ZFFFFFFFFFFFFFFFFFFFFFFFFFFFFA9,,,,4ZFFFFFFFFFF",
"FFFFFFFFFFFj1,,,,qAFFFFFFFFFFFFFFFFFFFFFFFFFFDe,,,,,fFFFFFFFFFFF",
"FFFFFFFFFFFDw,,,,,wAFFFFFFFFFFFFFFFFFFFFFFFFDs1,,,,0DFFFFFFFFFFF",
"FFFFFFFFFFFFZ7,,,,,qAFFFFFFFFFFFFFFFFFFFFFFAp1,,,,4NFFFFFFFFFFFF",
"FFFFFFFFFFFFFm3,,,,,9MFFFFFFFFFFFFFFFFFFFFB0,,,,,1jFFFFFFFFFFFFF",
"FFFFFFFFFFFFFFj2,,,,,3dAFFFFFFFFFFFFFFFFAf4,,,,,1fFFFFFFFFFFFFFF",
"FFFFFFFFFFFFFFFh3,,,,,,6fBFFFFFFFFFFFFZg7,,,,,,1fFFFFFFFFFFFFFFF",
"FFFFFFFFFFFFFFFFn5,,,,,,,30gnZDDDDZmhq4,,,,,,,3hFFFFFFFFFFFFFFFF",
"FFFFFFFFFFFFFFFFFN0,,,,,,,,,14777741,,,,,,,,,8MFFFFFFFFFFFFFFFFF",
"FFFFFFFFFFFFFFFFFFDf4,,,,,,,,,,,,,,,,,,,,,,3sAFFFFFFFFFFFFFFFFFF",
"FFFFFFFFFFFFFFFFFFFFBa3,,,,,,,,,,,,,,,,,,3eNFFFFFFFFFFFFFFFFFFFF",
"FFFFFFFFFFFFFFFFFFFFFFBf92,,,,,,,,,,,,27dBFFFFFFFFFFFFFFFFFFFFFF",
"FFFFFFFFFFFFFFFFFFFFFFFFDNdq82,,,,17qsMAFFFFFFFFFFFFFFFFFFFFFFFF"
};
