/* XPM */
static char *TV_[] = {
/* columns rows colors chars-per-pixel */
"64 48 64 1",
"  c #000000",
". c #0C0C0C",
"X c #131313",
"o c #1B1B1B",
"O c #242424",
"+ c #2A2A2A",
"@ c #343434",
"# c #3C3C3C",
"$ c #434343",
"% c #4E4E4E",
"& c #555555",
"* c #5D5D5D",
"= c #656565",
"- c #6B6B6B",
"; c #737373",
": c #7E7E7E",
"> c #FF3D3E",
", c #FF3F40",
"< c #FF4344",
"1 c #FF4748",
"2 c #FF4B4C",
"3 c #FF5050",
"4 c #FF5354",
"5 c #FF5B5B",
"6 c #FF5F60",
"7 c #FF6464",
"8 c #FF6B6C",
"9 c #FF7070",
"0 c #FF7474",
"q c #FF7878",
"w c #FF7D7E",
"e c #858585",
"r c #8C8C8C",
"t c #969696",
"y c #9D9D9D",
"u c #A3A3A3",
"i c #ACACAC",
"p c #B5B5B5",
"a c #BCBCBC",
"s c #FF8585",
"d c #FF8B8C",
"f c #FF9393",
"g c #FF9A9B",
"h c #FFA5A6",
"j c #FFA8A8",
"k c #FFACAD",
"l c #FFB0B0",
"z c #FFB4B4",
"x c #FFBBBB",
"c c #C3C3C3",
"v c #CCCCCC",
"b c #D3D3D3",
"n c #DBDBDB",
"m c #FFC4C4",
"M c #FFCCCC",
"N c #FFD4D4",
"B c #FFDBDB",
"V c #E6E6E6",
"C c #EDEDED",
"Z c #FFE3E4",
"A c #FFEDED",
"S c #F3F3F3",
"D c #FFF4F5",
"F c #FFFFFF",
/* pixels */
"FFFFFFFFFFFFFFFFFFFFFFFFFFFFFFFFFFFFFny=#OX.  .o@=unFFFFFFFFFFFF",
"FFFFFFFFFFFFFFFFFFFFFFFFFFFFFFFFFFDc=O.           .O-vFFFFFFFFFF",
"FFFFFFFFFFFFFFFFFFFFFFFFFFFFFFFFFn=X                 X;VFFFFFFFF",
"FFFFFFFFFFFFFFFFFFFFFFFFFFFFFFFFc@                     #cFFFFFFF",
"FFFFFFFFFFFFFFFFFFFFFFFFFFFFFFFaO                       OpFFFFFF",
"FFFFFFFFFFFFFFFFFFFFFFFFFFFFFFb+                         opFFFFF",
"FFFFFFFFFFFFFFFFFFFFFFFFFFFFFC%                           +bFFFF",
"FFFFFFFFFFFFFFFFFFFFFFFFFFFFFt                             *SFFF",
"FFFgZFFFFFFFFFFFFFFFFFFFFFFFn+                             .pFFF",
"FFF>5hAFFFFFFFFFFFFFFFFFFFFF:             .#&%@.            &DFF",
"FFF>>>7zDFFFFFFFFFFFFFFFFFFC@            $aSFFCa$           obFF",
"FFF>>>><9mDFFFFFFFFFFFFFFFFa.           $VFFFFFFn+           yFF",
"FFF>>>>>>1wNFFFFFFFFFFFFFFFr           XcFFFFFFFF:           ;FF",
"FFFw2>>>>>>2dBFFFFFFFFFFFFFeO+++++++++O=DFFFFFFFFp.          =FF",
"FFFDMq<>>>>>>4gZFFFFFFFFFFFSVVVVVVVVVVVSFFFFFFFFFvX          -FF",
"FFFFFDx8,>>>>>>5kAFFFFFFFFFFFFFFFFFFFFFFFFFFFFFFFv.          eFF",
"FFFhZFFAk5>>>>>><8xDFFFFFFFFFFFFFFFFFFFFFFFFFFFFFy          .iFF",
"FFF>6zDFFZg4>>>>>><qMFFFFFFFFFFFFFFFFFFFFFFFFFFFV#          +nFF",
"FFF>><8mDFFBd2>>>>>>1sBFFFFFFFFFFFFFFFFFFFFFFFSc$           -FFF",
"FFF>>>>1wNFFFMw1>>>>>>3fZFFFFFFFFFFFFFFFbyyte;$X           XcFFF",
"FFF>>>>>>2fZFFDm8<>>>>>>5hAFFFFFFFFFFFFFr                  eFFFF",
"FFFq1>>>>>>4hAFFDz7>>>>>>>7zDFFFFFFFFFFFr                 =SFFFF",
"FFFDm0<>>>>>>7zDFFAh4>>>>>><0mDFFFFFFFFFr               .-CFFFFF",
"FFFFFDz7,>>>>><0mDFFZf2>>>>>><sAFFFFFFFFr              .eSFFFFFF",
"FFFNDFFAj5>>>>>>1sNFFFNs1>>><8xDFFFFFFFFr               +ySFFFFF",
"FFF2sBFFFZg4>>>>>>2fZFFDm0<5kAFFFFFFFFFFr                .;SFFFF",
"FFF>>4gZFFFBd2>>>>>>5jAFFDMZFFFFFFFFFFFFr                  :FFFF",
"FFF>>>>5kAFFFMw1>>>>>>7xFFFFFFFFFFFFFFFFu@@+OX             .pFFF",
"FFF>>>>>,8xDFFDm9<>>><7xFFFFFFFFFFFFFFFFDSSCVvu*.           $CFF",
"FFFf4>>>>><qMFFFDz7<7lAFFFFFFFFFFFFFFFFFFFFFFFFFuX          .uFF",
"FFFFBs1>>>>>2dBFFFAmAFFFFFFFFFFFFFFFFFFFFFFFFFFFF=           &FF",
"FFFFFFM0<>>>>>4gAFFFFFFFFFFFFFFFFFFFFFFFFFFFFFFFFy           OFF",
"FFFxDFFDx7,>>><wZFFFFFFFFFFFFFFFFFFFFFFFFFFFFFFFFi           .FF",
"FFF<0MFFFAh5<8mDFFFFFFFFFFFctttttttttttaFFFFFFFFFi            FF",
"FFF>>2dZFFFZmDFFFFFFFFFFFFF:           @VFFFFFFFFe           .FF",
"FFF>>>>4jDFFFFFFFFFFFFFFFFFy            rFFFFFFFC$           OFF",
"FFF>>>>1dAFFFFFFFFFFFFFFFFFc.           XuDFFFFV;            &FF",
"FFF>><qMFFFFFFFFFFFFFFFFFFFC+            .&ryr=+            .uFF",
"FFF<8xDFFFFFFFFFFFFFFFFFFFFF;                               @VFF",
"FFFzAFFFFFFFFFFFFFFFFFFFFFFFcX                              tFFF",
"FFFFFFFFFFFFFFFFFFFFFFFFFFFFF-                             %CFFF",
"FFFFFFFFFFFFFFFFFFFFFFFFFFFFFn+                           +vFFFF",
"FFFFFFFFFFFFFFFFFFFFFFFFFFFFFFpo                         opFFFFF",
"FFFFFFFFFFFFFFFFFFFFFFFFFFFFFFFio                       +aFFFFFF",
"FFFFFFFFFFFFFFFFFFFFFFFFFFFFFFFFc#                     %bFFFFFFF",
"FFFFFFFFFFFFFFFFFFFFFFFFFFFFFFFFFV:O                 +tSFFFFFFFF",
"FFFFFFFFFFFFFFFFFFFFFFFFFFFFFFFFFFFne#X           .#tVFFFFFFFFFF",
"FFFFFFFFFFFFFFFFFFFFFFFFFFFFFFFFFFFFFCae&+o. .X+&eaCFFFFFFFFFFFF"
};
