/* XPM */
static char * TVE 1_xpm[] = {
"64 48 14 1",
" 	c None",
".	c #253087",
"+	c #2D3376",
"@	c #2E3AB0",
"#	c #3C48DE",
"$	c #4C58ED",
"%	c #616BE6",
"&	c #767376",
"*	c #71719D",
"=	c #7F88F7",
"-	c #AEAAA8",
";	c #A5A9E6",
">	c #D9D4D4",
",	c #FDFFFB",
",,,,,,,,,,,,,,,,,,,,,,,,,,,,,,,,,,,,,,,,,,,,,,,,,,,,,,,,,,,,,,,,",
",,,,,,,,,,,,,,,,,,,,,,,,,,,,,,,,,,,,,,,,,,,,,,,,,,,,,,,,,,,,,,,,",
",,,,,,,,,,------>>>>>>>>>>>>>>>>>>>>>>>>>>>>>>--------&,,,,,,,,,",
",,,,,,,,,,--->>>>>>>>>>>>,,,,,,,,,,,,,,>>>>>>>>>------&,,,,,,,,,",
",,,,,,,,,,--..+.......%%%%%%%%%%%%%%%%%.%........+++*-&,,,,,,,,,",
",,,,,,,,,,--@##############$#$#$#################@@#*-&,,,,,,,,,",
",,,,,,,,,,--@@######$$$$$$$#############$$######@@@@*-&,,,,,,,,,",
",,,,,,,,,,--@#######$$$$$$#%>>>>>>>>>>;#$#######@@@@*-&,,,,,,,,,",
",,,,,,,,,,>-@######$$$$$$$%>,,,,,,,,,,;#$$#######@@@*-&,,,,,,,,,",
",,,,,,,,,,>-######$$$$$$$$,,,%%%%%%%;,;#$$#######@@@*--,,,,,,,,,",
",,,,,,,,,,>>#####$$$$$$$$>,,######$$=,;#$$$######@@@*--,,,,,,,,,",
",,,,,,,,,,>>####$$$$$$$$>,,$###$$$$$;,;#$$$######@@@*--,,,,,,,,,",
",,,,,,,,,,>>###$$$$$$$$>,,%#$#$$$$$$;,;#$$$######@@@*--,,,,,,,,,",
",,,,,,,,,,>>###$$$$$$$=,,$####$$$$%%;,;#$$$######@@@*--,,,,,,,,,",
",,,,,,,,,,>>###$$$$$$$=,,>,,,=$$$%%%;,;#$$$$#####@@@*--,,,,,,,,,",
",,,,,,,,,,>>##$$$$$$$$=,,,,,,=$$$%%%;,;#$$$$#####@@@*--,,,,,,,,,",
",,,,,,,,,,>>##$$$$$$$$%%%%%>,=$$%%%%;,;#$$$$#####@@@*--,,,,,,,,,",
",,,,,,,,,,>>#$$$$$$$$$$%%%$;,=$%%%%%;,;#$$$$#####@@@*--,,,,,,,,,",
",,,,,,,,,,>>#$$$$$$$$%%%%%$;,=$%%%=%;,;#$$$$#####@@@*--,,,,,,,,,",
",,,,,,,,,,>>#$$$$$$$%%%%%%$>,=$%%==%;,;#$$$$####@@@@*--,,,,,,,,,",
",,,,,,,,,,>>#$$$$$$$%%%%%%$>,=$%%==%;,;#$$$#####@@@@*--,,,,,,,,,",
",,,,,,,,,,>>#$$$$$$$%%%%%%$>,=%%%==%;,;#$$$####@@@@@*-&,,,,,,,,,",
",,,,,,,,,,>>#$$$$$$$$%%%%%$>,=%%===%;,;#$$#####@@@@@*-&,,,,,,,,,",
",,,,,,,,,,>>#$$$$$$$$%%%%%$;,=%%===%;,;#$$#####@@@@@*-&,,,,,,,,,",
",,,,,,,,,,>>#$$$$$$$$%%%%%$;,=%%===%;,;#$$####@@@@@@*-&,,,,,,,,,",
",,,,,,,,,,>>#$$$$$$$$$$$$%#;,=%%===%;,;######@@@@@@@*-&,,,,,,,,,",
",,,,,,,,,,>>#$$$$$$$$$$$$%#;,=%%%%=%;,;######@@@@@@@*-&,,,,,,,,,",
",,,,,,,,,,,>##$$$$$$$$$$$$#;,=%=%=%%;,;#####@@@@@@@@*-&,,,,,,,,,",
",,,,,,,,,,>>###$$$$$$$$$$$#;,=%%%%%%;,;####@@@@@@@.@*-&,,,,,,,,,",
",,,,,,,,,,>>#####$$$$$$$$$#;,=%%%%%%;,*###@@@@@@@..@*-&,,,,,,,,,",
",,,,,,,,,,>>#####$$$$$$$$$#;,=%%%%%$;>*###@@@@@@@...*-&,,,,,,,,,",
",,,,,,,,,,>>@#####$$$$$$$$#;,=%%%%%$=>*#@@@@@@@@....*-&,,,,,,,,,",
",,,,,,,,,,>-#########$$$$$#;,;%%%%$$=>*#@@@@@@@@....*-&,,,,,,,,,",
",,,,,,,,,,>-#############$#;,=%%$$$#=-*#@@@@@.......*&&,,,,,,,,,",
",,,,,,,,,,--@##############;,=$$$$$#=-*@@@@@@.......*&&,,,,,,,,,",
",,,,,,,,,,--@@#############;,=$$$$$#=>*@@@@@@.......*&&,,,,,,,,,",
",,,,,,,,,,--@@@@###########;,=$$$$$#=>*@@@@.........*&&,,,,,,,,,",
",,,,,,,,,,--@@@@@@@@@#@#@@#;>=#$$$##=>*@@@..........*&&,,,,,,,,,",
",,,,,,,,,,--@@@@@@@@@@@@@@#;>=######=>*@@...........*&&,,,,,,,,,",
",,,,,,,,,,--@@@@@@@@@@@@@@#*>*%%%%@@*>*@.........+.+*&&,,,,,,,,,",
",,,,,,,,,,--.@@@@@@@@@@@@@@*------>>->*@.........+++*&&,,,,,,,,,",
",,,,,,,,,,--.@.@@@@@@@@@@@@*----------*.........++++*&&,,,,,,,,,",
",,,,,,,,,,--.@.@@@@@@@@@@@@.++....++.+.........+++++*&&,,,,,,,,,",
",,,,,,,,,,-&.@.@@@@@@@@@@@@@@@@@@@@@@............+..*&&,,,,,,,,,",
",,,,,,,,,,&&&&&&&&&&&&&&&-----------&&&&&&&&&&&&&&&&&&&,,,,,,,,,",
",,,,,,,,,,&&&&&&&&&&&&&&&&--------&&&&&&&&&&&&&&&&&&&&&,,,,,,,,,",
",,,,,,,,,,---------------------------------------------,,,,,,,,,",
",,,,,,,,,,,,,,,,,,,,,,,,,,,,,,,,,,,,,,,,,,,,,,,,,,,,,,,,,,,,,,,,"};
