/* XPM */
static char *Valles_Visio[] = {
/* columns rows colors chars-per-pixel */
"64 48 134 2",
"   c #A6C30C",
".  c #A8C40E",
"X  c #A7C310",
"o  c #A8C413",
"O  c #AAC519",
"+  c #ADC723",
"@  c #AEC825",
"#  c #AFC929",
"$  c #B0CA26",
"%  c #B0C92B",
"&  c #B4CC34",
"*  c #B6CD3C",
"=  c #B9D23C",
"-  c #B7CF44",
";  c #B8CF45",
":  c #BACF4A",
">  c #B9D044",
",  c #BBD14B",
"<  c #BFD453",
"1  c #BFD158",
"2  c #C1D255",
"3  c #C3D45B",
"4  c #C5D766",
"5  c #C7D966",
"6  c #C7D76A",
"7  c #C7D86A",
"8  c #C8D96A",
"9  c #CBDB75",
"0  c #CDDD7C",
"q  c #AC4FD5",
"w  c #AC52D5",
"e  c #AE59D6",
"r  c #AE5AD8",
"t  c #B15DD6",
"y  c #B35FD9",
"u  c #B260D6",
"i  c #B568D7",
"p  c #B362D9",
"a  c #B76BDD",
"s  c #B86DDA",
"d  c #BA72DC",
"f  c #BE7BDD",
"g  c #BD76E3",
"h  c #BB78E3",
"j  c #C07DE0",
"k  c #CEDE84",
"l  c #CFDB8D",
"z  c #D0DF83",
"x  c #D3DE8D",
"c  c #D4DE94",
"v  c #CFE181",
"b  c #D1E183",
"n  c #D4E28C",
"m  c #D6E292",
"M  c #D8E494",
"N  c #D7E399",
"B  c #D8E49A",
"V  c #DBE89C",
"C  c #D6E1A5",
"Z  c #DBE5A3",
"A  c #DFE8A2",
"S  c #DBE4AB",
"D  c #DFE9AB",
"F  c #DEE3B4",
"G  c #DFE7B8",
"H  c #E3EAB5",
"J  c #E4ECBB",
"K  c #BF80E1",
"L  c #C284DE",
"P  c #C485E1",
"I  c #C58AE0",
"U  c #CB94E3",
"Y  c #D19FEA",
"T  c #CFA2E4",
"R  c #D4A7E6",
"E  c #D4AAE6",
"W  c #D6AEE8",
"Q  c #D9B3EB",
"!  c #DCB9EC",
"~  c #D3D2D3",
"^  c #D8D7D5",
"/  c #D9D9D5",
"(  c #D7D4D9",
")  c #D8D6D8",
"_  c #DDDCDD",
"`  c #DFE0DE",
"'  c #E2E6C4",
"]  c #E7EEC3",
"[  c #E9EFC6",
"{  c #E2E5CD",
"}  c #E5EACB",
"|  c #EAEEC8",
" . c #EAF0C4",
".. c #ECF1CE",
"X. c #E4E6D2",
"o. c #E6EAD5",
"O. c #E9ECD4",
"+. c #E3E4DC",
"@. c #E6E8DA",
"#. c #EAEBDC",
"$. c #EDF2D4",
"%. c #EEF2D8",
"&. c #F2F5DB",
"*. c #DBDAE0",
"=. c #E1CEE7",
"-. c #E1C6EC",
";. c #E2CAEE",
":. c #E2DDE2",
">. c #E8D6EE",
",. c #E9DDED",
"<. c #E3C5F0",
"1. c #E5CAF3",
"2. c #E7D2F3",
"3. c #E9D3F1",
"4. c #ECDCF3",
"5. c #E4E3E3",
"6. c #EAEBE6",
"7. c #EBE4EC",
"8. c #EBECE9",
"9. c #F3F4E1",
"0. c #F6F8E4",
"q. c #F5F5ED",
"w. c #F6F8EC",
"e. c #F8F9EC",
"r. c #EDE0F4",
"t. c #F1E3F4",
"y. c #F2EDF2",
"u. c #F6F6F5",
"i. c #F7F9F2",
"p. c #FAFAF5",
"a. c #F7F4F8",
"s. c #F9F6F9",
"d. c #FBFBFB",
"f. c None",
/* pixels */
"f.f.f.f.f.f.f.f.f.f.f.f.f.f.f.f.f.f.f.f.f.f.f.f.f.f.f.f.f.f.f.f.f.f.f.f.f.f.f.f.f.f.f.f.f.f.f.f.f.f.f.f.f.f.f.f.f.f.f.f.f.f.f.f.",
"f.f.f.f.f.f.f.f.f.f.f.f.f.f.f.f.f.f.f.f.f.f.p.&.] [ [ [ [ [  .| |  .[ [  . .| | | | | | |  .| | |  .| |  ...w.d.d.f.f.f.f.f.f.f.",
"f.f.f.f.f.f.f.f.f.f.f.f.f.f.f.f.f.f.f.f.f.f.&.5 @ @ @ @ @ @ @ @ # # @ # # @ # # $ $ # $ $ # $ # # # % % $ * 9  .p.d.f.f.f.f.f.f.",
"f.f.f.f.f.f.f.f.f.f.f.f.f.f.f.f.f.f.f.f.f.p.M $ .   . . . . . . . .         . . .         . . .   . . .   . o & B e.f.f.f.f.f.f.",
"f.f.f.f.f.f.f.f.f.f.f.f.f.f.f.f.f.f.f.f.p.H &         .     .                                               .   @ V p.f.f.f.f.f.",
"f.f.f.f.f.f.f.f.f.f.f.f.f.f.f.f.f.f.f.f.e.b = > > > ; ; ; > ; , ; ; ; ; - - - * > > = > - ; ; ; > > ; ; ; & X .   > &.f.f.f.f.f.",
"f.f.f.f.f.f.f.f.f.f.d.d.d.d.d.d.d.d.d.d.p.&.O.O.O.O.O.O.O.O.O.O.O.O.O.O.$.%.%.&.&.&.&.&.%.%.%.$.O.O.O.O.O.J 3 X . + H d.f.f.f.f.",
"f.f.f.f.f.f.f.d.d.0. .J J J J J J J J J J e.8.~ f.f.f.f.f.f.f.f.f.f.f.f.` w.J H H H H H J 9.y.( ~ ~ ~ ~ / 8.B O   O D d.f.f.f.f.",
"f.f.f.f.f.f.d.0.A 2 # @ @ + @ + $ + # + % B 8.f.f.f.f.f.f.f.f.f.f.f.f.f.8.D & + @ + + + - J _ f.f.f.f.f.f.5.B O   O Z d.f.f.f.f.",
"f.f.f.f.f.f.e.n $ .   .             .     , $.8.f.f.f.f.f.f.f.f.f.f.f.f.%.<     .       9 @.f.f.f.f.f.f.f.f.B O   O Z d.f.f.f.f.",
"f.f.f.f.f.d.D #     . o O O o o X X X X . O n q.f.f.f.f.f.f.f.f.f.f.f.u.B O X X . X   & G f.f.f.f.f.f.f.f.f.B O   O Z d.f.f.f.f.",
"f.f.f.f.f.p.7     o 2 n n n m 7 O . X X .   ; ..d.f.f.f.f.f.f.f.f.f.f.%.,   X X X . X k +.f.f.f.f.f.f.f.f.f.B O   o Z d.f.f.f.f.",
"f.f.f.f.f.i.3   . ; } 5.^ / 5.| ,   o o X . o n i.f.f.f.f.f.f.f.f.f.u.M O . . . .   * { f.f.f.f.f.f.f.f.f.f.V O   O Z d.f.f.f.f.",
"f.f.f.f.f.q.3   . 3 #.f.f.f.f.6.M O   . X X   = ..d.f.f.f.f.f.f.f.f.$., . . X X   O x 5.f.f.f.f.f.f.f.f.f.f.B O   o Z s.f.f.f.f.",
"f.f.f.f.f.i.2     3 %.f.f.f.f.+.$.2   X X X . o b p.f.f.f.f.f.f.f.p.n o   X . .   > { f.f.f.f.f.f.f.f.f.f.f.B O   O Z d.f.f.f.f.",
"f.f.f.f.f.q.3     3 6.f.f.f.f.f.8.Z + X X X o o &  .d.f.f.f.f.f.f. .* . . X X . O m 5.f.f.f.f.f.f.f.f.f.f.f.B o   O Z d.f.f.f.f.",
"f.f.f.f.f.q.3     3 9.f.f.f.f.f._ #.3 . o o . . X 0 w.f.f.f.f.f.w.v o . X X X X 1 X.f.f.f.f.f.f.f.f.f.f.f.f.B O   o Z u.f.f.f.f.",
"f.f.f.f.f.w.3     3 9.f.f.f.f.f.f.6.D $ . . X .   % J d.f.f.f.d.] & . X X X . @ C :.f.f.f.f.f.f.f.f.f.f.f.f.B O . O Z d.f.f.f.f.",
"f.f.f.f.f.w.3     3 9.f.f.f.f.f.f.f.#.5 X . X .   X 7 w.f.f.f.w.9 X . . X X . 1 { f.f.f.f.f.f.f.f.f.f.f.f.f.B O . O Z p.f.f.f.f.",
"f.f.f.f.f.w.1   . 3 9.f.f.f.f.f.f.f.5.H & . . X . . # H d.f.d.J &   . X X . @ F ` f.f.f.f.f.f.f.f.f.f.f.f.f.B O   o Z d.f.f.f.f.",
"f.f.f.f.f.q.3     3 &.f.f.f.f.f.f.f.f.#.9 o X X .     4 9.d.0.7 X X X X     6 #.f.f.f.f.f.f.f.f.f.f.f.f.f.f.B O . O Z s.f.f.f.f.",
"f.f.f.f.f.q.3     3 9.f.f.f.f.f.f.f.f.:.G & . . . .   + D p.H $   X X X   % F *.f.f.f.f.f.f.f.f.f.f.f.f.f.f.B O   o Z d.f.f.f.f.",
"f.f.f.f.f.q.3     3 9.f.f.f.f.f.f.f.f.f.5.0 o . o X   X 4 ..8 .   X X X X 9 +.f.f.f.f.f.f.f.f.f.f.f.f.f.f.f.B O   o Z u.f.f.f.f.",
"f.f.f.f.f.w.<   . 3 &.f.f.f.f.f.f.f.f.f.*.' -     o X . + 3 #   X X X   & J _ f.f.f.f.f.f.f.f.f.f.f.f.f.f.f.B O . O Z d.f.f.f.f.",
"f.f.f.f.f.q.3     3 &.f.f.f.f.f.f.f.f.f.f.5.x O . . X X . o   X X X X X 0 w.u.u.d.f.f.f.f.f.f.f.f.d.d.d.d.d.B O   O Z s.f.f.f.f.",
"f.f.f.f.f.q.3     3 9.f.f.f.f.f.f.f.f.f.f.f.X.:   . X X . . . X X X   = } 2.;.;.1.a.f.f.f.f.f.f.s.4.;.<.;.y.V o   O Z s.f.f.f.f.",
"f.f.f.f.f.q.<   . 2 9.f.f.f.f.f.f.f.f.f.f.f.5.N O . X X X X X X X   O n y.T u u d ;.d.f.f.f.f.f.4.P u p P r.V O   O Z s.f.f.f.f.",
"f.f.f.f.f.w.3   . 3 9.f.f.f.f.f.f.f.f.f.f.f.f.{ 2   . X X X X   X   : } y.1.a q w I t.f.f.f.f.s.W r q r W s.V O   o Z s.f.f.f.f.",
"f.f.f.f.f.q.3   . 2 9.f.f.f.f.f.f.f.f.f.f.f.f.+.S @               + N 5.f.y.T w q y ! d.f.f.f.4.f q w h 4.u.M O . O Z u.f.f.f.f.",
"f.f.f.f.f.q.1     3 9.f.f.f.f.f.f.f.f.f.f.f.f.f.o.c 4 4 4 4 6 4 4 x @.f.f.5.3.g q q L t.f.f.s.R e q u ! 7.8.B o . O Z s.f.f.f.f.",
"f.f.f.f.f.q.3   . 3 9.f.f.f.f.f.f.f.f.f.f.f.f.f.f.5.#.#.#.#.#.#.@.#.f.f.f.f.t.R e q t ! s.f.4.d w w L ,.f.f.V o   o Z u.f.f.f.f.",
"f.f.f.f.f.q.3 .   3 9.f.f.f.f.f.f.f.f.f.f.f.f.f.f.f.f.f.f.f.f.f.f.f.f.f.f.f.5.>.f q w h 4.s.T e q p ! 5.f.f.B O   O Z u.f.f.f.f.",
"f.f.f.f.f.q.<   . 2 9.f.f.f.f.f.f.f.f.f.f.f.f.f.f.f.f.f.f.f.f.f.f.f.f.f.f.f.f.7.W t w r Q 3.s q w U >.f.f.f.V O   O Z u.f.f.f.f.",
"f.f.f.f.f.q.3   . 3 9.f.f.f.f.f.f.f.f.f.f.f.f.f.f.f.f.f.f.f.f.f.f.f.f.f.f.f.f._ >.j w q d L e q i -._ f.f.f.N O   O C u.f.f.f.f.",
"f.f.f.f.f.q.3   . 2 9.f.f.f.f.f.f.f.f.f.f.f.f.f.f.f.f.f.f.f.f.f.f.f.f.f.f.f.f.f.7.Q t q w w w w U :.f.f.f.f.N O   O C u.f.f.f.f.",
"f.f.f.f.f.q.1     3 9.f.f.f.f.f.f.f.f.f.f.f.f.f.f.f.f.f.f.f.f.f.f.f.f.f.f.f.f.f.f.4.L w q q q d =.f.f.f.f.f.m O   O B s.f.f.f.f.",
"f.f.f.f.f.q.3     2 9.f.f.f.f.f.f.f.f.f.f.f.f.f.f.f.f.f.f.f.f.f.f.f.f.f.f.f.f.f.f.7.-.j g g g E 7.f.f.f.f.d.V O   o V u.f.f.f.f.",
"f.f.f.f.f.q.3 .   - | p.d.p.p.p.p.p.d.p.p.p.p.d.p.d.p.p.p.p.p.p.p.p.p.p.p.p.i.u.u.i.a.t.r.r.r.y.u.i.i.i.i.9.9 o   + S f.f.f.f.f.",
"f.f.f.f.f.8.9 X . X 2 0 z z k k z z b z z z z z z z z z z z z z z z z z z z z b z z z b b v k 0 z z z z z 7 + X   * ' f.f.f.f.f.",
"f.f.f.f.f.5.Z %   . .   .   .     . . . . . .   .     .   .     .             . .     . . X     .   . .   X     O 9 #.f.f.f.f.f.",
"f.f.f.f.f.f.#.m #   X               .                                                                         O 6 { _ f.f.f.f.f.",
"f.f.f.f.f.f./ +.S 7 4 4 7 4 8 8 8 8 8 8 8 8 6 6 7 7 6 7 7 6 7 7 8 8 6 4 7 7 4 7 4 6 6 4 7 7 6 8 6 6 6 6 4 6 6 l +.) f.f.f.f.f.f.",
"f.f.f.f.f.f.f.f.f./ +.6.8.8.8.8.8.8.8.8.8.8.6.8.8.8.6.8.6.6.8.6.6.8.6.8.8.6.8.6.6.8.8.8.8.6.6.8.6.6.6.6.5.6.+.~ f.f.f.f.f.f.f.f.",
"f.f.f.f.f.f.f.f.f.f.f.f.f.f.f.f.f.f.f.f.f.f.f.f.f.f.f.f.f.f.f.f.f.f.f.f.f.f.f.f.f.f.f.f.f.f.f.f.f.f.f.f.f.f.f.f.f.f.f.f.f.f.f.f.",
"f.f.f.f.f.f.f.f.f.f.f.f.f.f.f.f.f.f.f.f.f.f.f.f.f.f.f.f.f.f.f.f.f.f.f.f.f.f.f.f.f.f.f.f.f.f.f.f.f.f.f.f.f.f.f.f.f.f.f.f.f.f.f.f.",
"f.f.f.f.f.f.f.f.f.f.f.f.f.f.f.f.f.f.f.f.f.f.f.f.f.f.f.f.f.f.f.f.f.f.f.f.f.f.f.f.f.f.f.f.f.f.f.f.f.f.f.f.f.f.f.f.f.f.f.f.f.f.f.f.",
"f.f.f.f.f.f.f.f.f.f.f.f.f.f.f.f.f.f.f.f.f.f.f.f.f.f.f.f.f.f.f.f.f.f.f.f.f.f.f.f.f.f.f.f.f.f.f.f.f.f.f.f.f.f.f.f.f.f.f.f.f.f.f.f.",
"f.f.f.f.f.f.f.f.f.f.f.f.f.f.f.f.f.f.f.f.f.f.f.f.f.f.f.f.f.f.f.f.f.f.f.f.f.f.f.f.f.f.f.f.f.f.f.f.f.f.f.f.f.f.f.f.f.f.f.f.f.f.f.f."
};
