/* XPM */
static char * VEO_xpm[] = {
"64 48 14 1",
" 	c None",
".	c #0A0B07",
"+	c #191A18",
"@	c #292B2A",
"#	c #23647B",
"$	c #5D5F5C",
"%	c #898986",
"&	c #4FA6C1",
"*	c #27B7E5",
"=	c #A2ABAA",
"-	c #58D1F2",
";	c #B3CFD3",
">	c #BBF3F9",
",	c #FDFFFC",
",,,,,,,,,,,,,,,,,,,,,,,,,,,,,,,,,,,,,,,,,,,,,,,,,,,,,,,,,,,,,,,,",
",,,,,,,,,,,,,,,,,,,,,,,,,,,,,,,,,,,,,,,,,,,,,,,,,,,,,,,,,,,,,,,,",
",,,,,,,,,,,,,,,,,,,,,,,,,,,,,,,,,,,,,,,,,,,,,,,,,,,,,,,,,,,,,,,,",
",,,,,,,,,,,,,,,,,,,,,,,,,,,,,,,,,,,,,,,,,,,,,,,,,,,,,,,,,,,,,,,,",
",,,,,,,,,,,,,,,,,,,,,,,,,,,,,,,,,,,,,,,,,,,,,,,,,,,,,,,,,,,,,,,,",
",,,,,,,,,,,,,,,,,,,,,,,,,,,,,,,,,,,,,,,,,,,,,,,,,,,,,,,,,,,,,,,,",
",,,,,,,,,,,,,,,,,,,,,,,,,,,,,,,,,,,,,,,,,,,,,,,,,,,,,,,,,,,,,,,,",
",,,,,,,,,,,,,,,,,,,,,,,,,,,,,,,,,,,,,,,,,,,,,,,,,,,,,,,,,,,,,,,,",
",,,,,,,,,,,,,,,,,,,,,,,,,,,,,,,,,,,,,,,,,,,,,,,,,,,,,,,,,,,,,,,,",
",,,,,,,,,,,,,,,,,,,,,,,,,,,,,,,,,,,,,,,,,,,,,,,,,,,,,,,,,,,,,,,,",
",,,,,,,,,,,,,,,,,,,,,,,,,,,,,,,,,,,,,,,,,,,,,,,,,,,,,,,,,,,,,,,,",
",,,,,,,,,,,,,,,,,,,,,,,,,,,,,,,,,,,,,,,,,,,,,,,,,,,,,,,,,,,,,,,,",
",,,,,,,,,,,,,,,,,,,,,,,,,,,,,,,,,,,,,,,,,,,,,,,,,,,,,,,,,,,,,,,,",
",,,,,,,,,,,,,,,,,,,,,,,,,,,,,,,,,,,,,,,,,,,,,,,,,,,,,,,,,,,,,,,,",
",,,,,,,,,,,,,,,,,,,,,,,,,,,,,,,,,,,,,,,,,,,,,,,>>>>>>>,,,,,,,,,,",
",,=.@@@$,,,,,,,,,@@@@=,,%@@@@@@@@@@@@=,,,,,,,;&******&&,,,,,,,,,",
",,,@.@+@,,,,,,,,$.@+@,,,$.@@++++++++.%,,,,,,-******-****-,,,,,,,",
",,,=.@@.%,,,,,,,.@@.%,,,$+@@@@@@@@@@.=,,,,>&****-&&&-****&,,,,,,",
",,,,+@@+@,,,,,,=.@@.,,,,$+@+$,,,,,,,,,,,,,&***-#@@@@#*****&,,,,,",
",,,,=.@@.=,,,,,.@@.%,,,,$+@+$,,,,,,,,,,,,-***&@%%+@@++#***&>,,,,",
",,,,,@+@@+,,,,;.@@+,,,,,$+@+$,,,,,,,,,,,,****#$,,@+@@@+&-***,,,,",
",,,,,%.@@+;,,,@+@+$,,,,,$+@+$,,,,,,,,,,,;***&.@,,+@@@@+#****,,,,",
",,,,,,@+@.$,,=.@@.=,,,,,$+@@+%%%%%%%%,,,&***#++++@@@@@@@&***;,,,",
",,,,,,%.@@.;,$.@+@,,,,,,$+@@@.......+,,,&***@+@@@@@@@@@+&***;,,,",
",,,,,,,.@@.%,.@@.;,,,,,,$+@@+++++++.+,,,&***@@@@@@@@@@@+&***-,,,",
",,,,,,,%.@@+$+@+@,,,,,,,$+@+$========,,,&***#+@@@@@@@@@+&***;,,,",
",,,,,,,,.@@@+@@.=,,,,,,,$+@+$,,,,,,,,,,,&***&.@@@@@@@@+@****;,,,",
",,,,,,,,%.@@@@@+,,,,,,,,$+@+$,,,,,,,,,,,;****@+@@@@@@@+#****,,,,",
",,,,,,,,,+@@@@+$,,,,,,,,$+@+$,,,,,,,,,,,,***-&.+@@@@@.#-***-,,,,",
",,,,,,,,,@+@@@.,,,,,,,,,$+@+$,,,,,,,,,,,,-*****#++++@#-***&,,,,,",
",,,,,,,,,,.@@+$,,,,,,,,,$+@@+$$$$$$$$=,,,,&*****&###&****&>,,,,,",
",,,,,,,,,,$+@.;,,,,,,,,,$+@@@+++++++.%,,,,,*******-******-,,,,,,",
",,,,,,,,,,=..$,,,,,,,,,,$............%,,,,,,&**********&;,,,,,,,",
",,,,,,,,,,,%$=,,,,,,,,,,=============;,,,,,,,>&&****&&->,,,,,,,,",
",,,,,,,,,,,,,,,,,,,,,,,,,,,,,,,,,,,,,,,,,,,,,,,>>--->>,,,,,,,,,,",
",,,,,,,,,,,,,,,,,,,,,,,,,,,,,,,,,,,,,,,,,,,,,,,,,,,,,,,,,,,,,,,,",
",,,,,,,,,,,,,,,,,,,,,,,,,,,,,,,,,,,,,,,,,,,,,,,,,,,,,,,,,,,,,,,,",
",,,,,,,,,,,,,,,,,,,,,,,,,,,,,,,,,,,,,,,,,,,,,,,,,,,,,,,,,,,,,,,,",
",,,,,,,,,,,,,,,,,,,,,,,,,,,,,,,,,,,,,,,,,,,,,,,,,,,,,,,,,,,,,,,,",
",,,,,,,,,,,,,,,,,,,,,,,,,,,,,,,,,,,,,,,,,,,,,,,,,,,,,,,,,,,,,,,,",
",,,,,,,,,,,,,,,,,,,,,,,,,,,,,,,,,,,,,,,,,,,,,,,,,,,,,,,,,,,,,,,,",
",,,,,,,,,,,,,,,,,,,,,,,,,,,,,,,,,,,,,,,,,,,,,,,,,,,,,,,,,,,,,,,,",
",,,,,,,,,,,,,,,,,,,,,,,,,,,,,,,,,,,,,,,,,,,,,,,,,,,,,,,,,,,,,,,,",
",,,,,,,,,,,,,,,,,,,,,,,,,,,,,,,,,,,,,,,,,,,,,,,,,,,,,,,,,,,,,,,,",
",,,,,,,,,,,,,,,,,,,,,,,,,,,,,,,,,,,,,,,,,,,,,,,,,,,,,,,,,,,,,,,,",
",,,,,,,,,,,,,,,,,,,,,,,,,,,,,,,,,,,,,,,,,,,,,,,,,,,,,,,,,,,,,,,,",
",,,,,,,,,,,,,,,,,,,,,,,,,,,,,,,,,,,,,,,,,,,,,,,,,,,,,,,,,,,,,,,,",
",,,,,,,,,,,,,,,,,,,,,,,,,,,,,,,,,,,,,,,,,,,,,,,,,,,,,,,,,,,,,,,,"};
