/* XPM */
static char *VEO_[] = {
/* columns rows colors chars-per-pixel */
"64 48 75 1",
"  c #0D4757",
". c #0F495A",
"X c #144654",
"o c #1A4653",
"O c #154957",
"+ c #1C4A56",
"@ c #134C5C",
"# c #1B4D5B",
"$ c #16505F",
"% c #1C505F",
"& c #26454E",
"* c #2D464D",
"= c #31444A",
"- c #34484F",
"; c #234954",
": c #2D4B53",
"> c #224D5A",
", c #2A4E59",
"< c #344D55",
"1 c #394E54",
"2 c #314F58",
"3 c #22515F",
"4 c #2D525C",
"5 c #365057",
"6 c #385057",
"7 c #35535C",
"8 c #3C535A",
"9 c #124F60",
"0 c #145263",
"q c #1C5463",
"w c #165668",
"e c #1B5768",
"r c #17586B",
"t c #1B5B6C",
"y c #1B5E71",
"u c #225463",
"i c #2D5762",
"p c #245867",
"a c #2B5865",
"s c #235C6B",
"d c #2C5D6B",
"f c #355B66",
"g c #3B5B65",
"h c #345E69",
"j c #385F6A",
"k c #225F70",
"l c #1D6275",
"z c #1F6579",
"x c #2D606F",
"c c #32616E",
"v c #3B616B",
"b c #236374",
"n c #2C6373",
"m c #216679",
"M c #2A6778",
"N c #226A7E",
"B c #2A6A7C",
"V c #346572",
"C c #3A6876",
"Z c #346A79",
"A c #435156",
"S c #40555B",
"D c #435D65",
"F c #416069",
"G c #246D82",
"H c #2A6D80",
"J c #257186",
"K c #2C7185",
"L c #277489",
"P c #29768B",
"I c #2A798E",
"U c #337487",
"Y c #327588",
"T c #2C7B91",
"R c None",
/* pixels */
"RRRRRRRRRRRRRRRRRRRRRRRRRRRRRRRRRRRRRRRRRRRRRRRRRRRRRRRRRRRRRRRR",
"RRRRRRRRRRRRRRRRRRRRRRRRRRRRRRRRRRRRRRRRRRRRRRRRRRRRRRRRRRRRRRRR",
"RRRRRRRRRRRRRRRRRRRRRRRRRRRRRRRRRRRRRRRRRRRRRRRRRRRRRRRRRRRRRRRR",
"RRRRRRRRRRRRRRRRRRRRRRRRRRRRRRRRRRRRRRRRRRRRRRRRRRRRRRRRRRRRRRRR",
"RRRRRRRRRRRRRRRRRRRRRRRRRRRRRRRRRRRRRRRRRRRRRRRRRRRRRRRRRRRRRRRR",
"RRRRRRRRRRRRRRRRRRRRRRRRRRRRRRRRRRRRRRRRRRRRRRRRRRRRRRRRRRRRRRRR",
"RRRRRRRRRRRRRRRRRRRRRRRRRRRRRRRRRRRRRRRRRRRRRRRRRRRRRRRRRRRRRRRR",
"RRRRRRRRRRRRRRRRRRRRRRRRRRRRRRRRRRRRRRRRRRRRRRRRRRRRRRRRRRRRRRRR",
"RRRRRRRRRRRRRRRRRRRRRRRRRRRRRRRRRRRRRRRRRRRRRRRRRRRRRRRRRRRRRRRR",
"RRRRRRRRRRRRRRRRRRRRRRRRRRRRRRRRRRRRRRRRRRRRRRRRRRRRRRRRRRRRRRRR",
"RRRRRRRRRRRRRRRRRRRRRRRRRRRRRRRRRRRRRRRRRRRRRRRRRRRRRRRRRRRRRRRR",
"RRRRRRRRRRRRRRRRRRRRRRRRRRRRRRRRRRRRRRRRRRRRRRRRRRRRRRRRRRRRRRRR",
"RRRRRRRRRRRRRRRRRRRRRRRRRRRRRRRRRRRRRRRRRRRRRRRRRRRRRRHBHBGBBBRR",
"RRRRRRRRRRRRRRRRRRRRRRRRRRRRRRRRRRRRRRRRRRRRRRRRITTTTTTTTIITITKR",
"RRRRRRRRRRRRRRRRRRRRRRRRRRRRRRRRRRRRRRRRRRRRRRRRPTTTTTITPIPIPPKR",
"RRRRRRRRRRRRRRRRRRRRRRRRRRRRRRRRRRRRRRRRRRRRRRRRPLLPLLLLLLLLLPHR",
"RRRRRRRRRRRRRRRRRRRRRRRKPPRRRRRRRRRRRRRRRRRRRRRRhhfjhhfffMJJJHVR",
"RUTTTTRRRRRRRRIIIIBRPITTTTTPKRRRRRRRRRRRRRRVKRRRRRRRRRRRdBGGGhRR",
"RCTTTTRRRRRRRRTTTICKIIIITLPPLPRRRRRRRRRRRRRRZBRRRRRRRRRRGGNNhRRR",
"RRYTTTYRRRRRRKIIIKUPLPPPLLLLLLLRRRRRRGBGNBNNGGmmmRRRRRRmzNzxRRRR",
"RRCITTPRRRRRRPLLLLLLLLMhgfnHJJJGRRRnVVvvvFFDdnfvcnsRRRkzzzbRRRRR",
"RRRPTTPRRRRRRLLLJLJJJn6RRR1hNGGGbRbRRRRRRRRRhbRRRRRRRRbllyfRRRRR",
"RRRBLLLBRRRRBJGGJGGGM6RRRRRRxNNzbnnRRRRRRRRRhbRRRRRRRsyyysRRRRRR",
"RRRcJGJHRRRRGGGGNGNGnnMMMMMnxzzzmzxRRRRRRRRRhkRRRRRRRtyttiRRRRRR",
"RRRRBGGGRRRRNNNmzzzNzzzzzzlzllllllsRRttttttsstttsqRRutrtuRRRRRRR",
"RRRRnzzzmRRbzmzqlzlzlzzllllylyltyttsdaffgDDDfq7ggfjhsw00uRRRRRRR",
"RRRRfbzzbRRbllb7yllltstttttttttttrq1RRRRRRRRgpSRRRRRq000>RRRRRRR",
"RRRRRklllRuyyls8ttytu16565<11111<qtRRRRRRRRRRuRRRRRR9090RRRRRRRR",
"RRRRRayyyssttyuRsttreRRRRRRR####4a0uRRRRRRRRquRRRRR3@.9#RRRRRRRR",
"RRRRRRttrttrreRR4twee0RRRRR0q000%8%0qq@@@%u%@@u#0#R>@..@RRRRRRRR",
"RRRRRRurrrrrwuRRRu0000000#0000902R<@@>66888<O<S884RO@..+RRRRRRRR",
"RRRRRR>w00000>RRRR39099@@9@9@.@4RRR4@@>RRRR7#RRRO>RO   oRRRRRRRR",
"RRRRRRRq0090%RRRRR<>@..@.@.@.@:RRRRR:@ @@RRO#+@X+RRO   XRRRRRRRR",
"RRRRRRR>#O@#>RRRRRRR:+@@. @O;<RRRRRRR1;oXXXXXX;:RRR>oXXoRRRRRRRR",
"RRRRRRRR====RRRRRRRRRR<&&&<=RRRRRRRRRRRA1:<-*1RRRRRR==RRRRRRRRRR",
"RRRRRRRRRRRRRRRRRRRRRRRRRRRRRRRRRRRRRRRRRRRRRRRRRRRRRRRRRRRRRRRR",
"RRRRRRRRRRRRRRRRRRRRRRRRRRRRRRRRRRRRRRRRRRRRRRRRRRRRRRRRRRRRRRRR",
"RRRRRRRRRRRRRRRRRRRRRRRRRRRRRRRRRRRRRRRRRRRRRRRRRRRRRRRRRRRRRRRR",
"RRRRRRRRRRRRRRRRRRRRRRRRRRRRRRRRRRRRRRRRRRRRRRRRRRRRRRRRRRRRRRRR",
"RRRRRRRRRRRRRRRRRRRRRRRRRRRRRRRRRRRRRRRRRRRRRRRRRRRRRRRRRRRRRRRR",
"RRRRRRRRRRRRRRRRRRRRRRRRRRRRRRRRRRRRRRRRRRRRRRRRRRRRRRRRRRRRRRRR",
"RRRRRRRRRRRRRRRRRRRRRRRRRRRRRRRRRRRRRRRRRRRRRRRRRRRRRRRRRRRRRRRR",
"RRRRRRRRRRRRRRRRRRRRRRRRRRRRRRRRRRRRRRRRRRRRRRRRRRRRRRRRRRRRRRRR",
"RRRRRRRRRRRRRRRRRRRRRRRRRRRRRRRRRRRRRRRRRRRRRRRRRRRRRRRRRRRRRRRR",
"RRRRRRRRRRRRRRRRRRRRRRRRRRRRRRRRRRRRRRRRRRRRRRRRRRRRRRRRRRRRRRRR",
"RRRRRRRRRRRRRRRRRRRRRRRRRRRRRRRRRRRRRRRRRRRRRRRRRRRRRRRRRRRRRRRR",
"RRRRRRRRRRRRRRRRRRRRRRRRRRRRRRRRRRRRRRRRRRRRRRRRRRRRRRRRRRRRRRRR",
"RRRRRRRRRRRRRRRRRRRRRRRRRRRRRRRRRRRRRRRRRRRRRRRRRRRRRRRRRRRRRRRR"
};
