/* XPM */
static char *VOTV[] = {
/* columns rows colors chars-per-pixel */
"64 48 64 1",
"F c None",
"  c #3D4643",
". c #404946",
"X c #434B48",
"o c #49504E",
"O c #4C5451",
"+ c #535957",
"@ c #5A605E",
"# c #5D6462",
"$ c #616664",
"% c #636866",
"& c #646A68",
"* c #686E6C",
"= c #6D7371",
"- c #757A78",
"; c #6B716F",
": c #F0660D",
"> c #F1680E",
", c #F16B13",
"< c #F26E18",
"1 c #F2711D",
"2 c #F27726",
"3 c #F37E33",
"4 c #7B807F",
"5 c #F3843A",
"6 c #F38944",
"7 c #F59455",
"8 c #F5904D",
"9 c #F69F66",
"0 c #F7A672",
"q c #7D8280",
"w c #848988",
"e c #949897",
"r c #8E9291",
"t c #9CA09E",
"y c #9EA2A1",
"u c #A5A9A7",
"i c #B6B9B8",
"p c #AEB1B0",
"a c #F8B589",
"s c #F8B990",
"d c #BDC0BF",
"f c #F9C5A3",
"g c #FAD3B9",
"h c #F9C29E",
"j c #BFC2C1",
"k c #CBCDCC",
"l c #C3C5C4",
"z c #D2D4D3",
"x c #DADCDB",
"c c #D7D8D7",
"v c #CED0CF",
"b c #FCDBC5",
"n c #FCE5D6",
"m c #DFE0E0",
"M c #E3E4E3",
"N c #EAEBEB",
"B c #E7E8E8",
"V c #FDECE1",
"C c #FEF2EB",
"Z c #F3F3F3",
"A c #FEFEFE",
"S c #FDF9F5",
"D c #EFF0EF",
/* pixels */
"FAAAAAAAAAAAAAAAAAAAAAAAAAAAAAAAAAAAAAAAAAAAAAAAAAAAAAAAAAAAAAAA",
"FAAAAAAAAAAAAAAAAAAAAAAAAAAAAAAAAAAAAAAAAAAAAAAAAAAAAAAAAAAAAAAA",
"FAAAAAAAAAAAAAAAAAAAAAAAAAAAAAAAAAAAAAAAAAAAAAAAAAAAAAAAAAAAAAAA",
"FAAAAAAAAAAAAAAAAAAAAAAAAAAAAAAAAAAAAAAAAAAAAAAAAAAAAAAAAAAAAAAA",
"FAAAAAAAAAAAAAAAAAAAAAAAAAAAAAAAAAAAAAAAAAAAAAAAAAAAAAAAAAAAAAAA",
"FAAAAAAAAAAAAAAAAAAAAAAAAAAAAAAAAAAAAAAAAAAAAAAAAAAAAAAAAAAAAAAA",
"FAAAAAAAAAAAAAAAAAAAAAAAAAAAAAAAAAAAAAAAAAAAAAAAAAAAAAAAAAAAAAAA",
"FAAAAAAAAAAAAAAAAAAAAAAAAAAAAAAAAAAAAAAAAAAAAAAAAAAAAAAAAAAAAAAA",
"FAAAAAAAAAAAAAAAAAAAAAAAAAAAAAAAAAAAAz-BAAAAAAAAAAAAAAAAAAAAAAAA",
"FAAAAAAAAAAAAAAAAAAAAAAAAAAAAAAAAAAAAk$MAAAAAAAAAAAAAAAAAAAAAAAA",
"FAAAAAAAAAAAAAAAAAAAAAAAAAAAAAAAAAAAAk$MAAAAAAAAAAAAAAAAAAAAAAAA",
"FAAAAAAAAAAAAAAAAAAAAAAAAAAAAAAAAAAAAk$MAAAAAAAAAAAAAAAAAAAAAAAA",
"FAAAAAAAAAAAAAAAAAAAAAAAAAAAAAAAAAAAAk$MAAAAAAAAAAAAAAAAAAAAAAAA",
"FAAAAAAAAAAAAAAAAAAAAAAAAAAAAAAAAAAAAk$MAAAAAAAAAAAAAAAAAAAAAAAA",
"FxzzzzzzxAAAAAAAAAAAAAAnfaasbSAAAAAAAk@lxxxxBANxSAAAAAAAAAAAAMmA",
"FrXooOOo@xAAAAAAAAAAAAV5>:::17bAAAAAAkOOOOoX-Zi+vAAAAAAAAAAAN%wA",
"FlX      uAAAAAAAAAAAAf:::::::2gAAAAAk+-q4--wNxOuAAAAAAAAAAAkXpA",
"FZ= .... *DAAAAAAAAAAS7::::::::2bAAAAk$MASSSSAZ*-SAAAAAAAAAAtOxA",
"FAu..XXX.XjAAAAAAAAAAn2:::::::::8CAAAk%MAAAAAAAe+MAAAAAAAAAZ==ZA",
"FAx+.XXXX.wSAAAAAAAAAa::::::::::,hAAAk%MAAAAAAAjXlAAAAAAAAAm+yAA",
"FASwXXXXXX+cAAAAAAAAC6:::::::::::6CAAk%MAAAAAAAM+eAAAAAAAAAdOkAA",
"FAAjoXXXXXXyAAAAAAAAg<::::::::>>:<gAAk%MAAAAAAAS-*ZAAAAAAAAe#NAA",
"FAAN&XXXXXX&NAAAAAAA0::::>>>>>>>>>aAAk%MAAAAAAAAuOcAAAAAAAZ*wAAA",
"FAAAtXXXXXXXiAAAAAAV3:::>>>>>>>>>:7SAk&MAAAAAAAAzopAAAAAAAc+pAAA",
"FAAAzOXXXXXXqSAAAAAf,>>>>>>>>>>>>>5CAk&MAAAAAAAAN#wAAAAAAAp+cAAA",
"FAAAZ-XXXXXX+zAAAAS7>>>>>>>>>>>>>>2nAk&MAAAAAAAAAw#NAAAAAAw;ZAAA",
"FAAAApXXXXXXXeAAAAn2>>>>>>>>>>>>>>2nAk&MAAAAAAAAAiokAAAAAN$eAAAA",
"FAAAAx+.XXXXX#BAAAs,>>>>>>>>>>>>>>2nAk%MAAAAAAAAAx+uAAAAAk+iAAAA",
"FAAAASw.XXXXXXiAAC6>>>>>>>>,>>>>>>2nAk%MAAAAAAAAAZ=-SAAAAu+mAAAA",
"FAAAAAdX.XXXX.-ZAg1>>>>>>>>>>>>>>>2nAk%MAAAAAAAAAAe@MAAAS--ZAAAA",
"FAAAAAN$.XXXX.OkAa,>>>>>>>>>>>>>>>5CAk%MAAAAAAAAAAlOlAAAM+tAAAAA",
"FAAAAAAe.XXXX..yAs,>>>>>>>>>>>>>>>8SAk%MAAAAAAAAAAB#eAAAdOkAAAAA",
"FAAAAAAzO.XXX.XiAg<>>>>>>>>>>>>>>>0AAk%MAAAAAAAAAASw;ZAAe#NAAAAA",
"FAAAAAAZ-.XXX.&NAV3>>::>>>>>>>>>><gAAk$mAAAAAAAAAAAp+cAZ*qSAAAAA",
"FAAAAAAApX.XXXeAAA9>::::>>>>>::::6CAAc+vAAAAAAAAAAAz+pAcOuAAAAAA",
"FAAAAAAAB#.XXOvAAAg<:::::>>>::::,sAAAN$uAAAAAAAAAAAN&wApOzAAAAAA",
"FAAAAAAAAr..X=ZAAAS7::::::>:::::6CAAAAw+xAAAAAAAAAAAw$Bw&ZAAAAAA",
"FAAAAAAAAkO.XuAAAAAb3:::::>::::2gAAAAAvO&izzzMAAAAAAiOp#rAAAAAAA",
"FAAAAAAAAZ-.+xAAAAAAg3::::>:::2fAAAAAAAp+.XX.wAAAAAAx++oiAAAAAAA",
"FAAAAAAAAAiOrSAAAAAAAn92>>>>,6gAAAAAAAAAcuwwwiAAAAAASr+-NAAAAAAA",
"FAAAAAAAAASkNAAAAAAAAASba779fVAAAAAAAAAAAAAAAAAAAAAAAZzBAAAAAAAA",
"FAAAAAAAAAAAAAAAAAAAAAAAAAAAAAAAAAAAAAAAAAAAAAAAAAAAAAAAAAAAAAAA",
"FAAAAAAAAAAAAAAAAAAAAAAAAAAAAAAAAAAAAAAAAAAAAAAAAAAAAAAAAAAAAAAA",
"FAAAAAAAAAAAAAAAAAAAAAAAAAAAAAAAAAAAAAAAAAAAAAAAAAAAAAAAAAAAAAAA",
"FAAAAAAAAAAAAAAAAAAAAAAAAAAAAAAAAAAAAAAAAAAAAAAAAAAAAAAAAAAAAAAA",
"FAAAAAAAAAAAAAAAAAAAAAAAAAAAAAAAAAAAAAAAAAAAAAAAAAAAAAAAAAAAAAAA",
"FAAAAAAAAAAAAAAAAAAAAAAAAAAAAAAAAAAAAAAAAAAAAAAAAAAAAAAAAAAAAAAA",
"FAAAAAAAAAAAAAAAAAAAAAAAAAAAAAAAAAAAAAAAAAAAAAAAAAAAAAAAAAAAAAAA"
};
