/* XPM */
static const char *const night1_xpm[] = {
"63 21 3 1",
" 	c None",
".	c #000000",
"+	c #FFFFFF",
".......+++++++++++++++++++++++++++++++++++++++++++++++++.......",
".....++++++++++++++++++..+++++++++++++++++++++++++++++++++.....",
"....++++++++++++++++++++...++++++++++++++++++++++++++++++++....",
"...++++++++++++++++++++++...++++++++++++++++++++++++++++++++...",
"..++++++++++++++++++++++++...++++++++++++++++++++++++++++++++..",
".+++++++++++++++++++++++++...+++++++++++++.+++++++++++++++++++.",
".+++++++++++++++++++++++++....+++++++++++...++++++++++++++++++.",
".+++++++++++++++++++++++++....++++++++++.....+++++++++++++++++.",
"++++++++++++++++++++++++++.....++++++++.......+++++++++++++++++",
"++++++++++++++++++++++++++.....+++++++.........++++++++++++++++",
"+++++++++++++++++++++++++......++++++...........+++++++++++++++",
"+++++++++++++++++++++++++......+++++.............++++++++++++++",
"++++++++++++.+++++++++++.......++++...............+++++++++++++",
".+++++++++++..++++++++++......++++.................+++++++++++.",
".++++++++++++..++++++++.......+++...................++++++++++.",
".++++++++++++....+++.........+++++++++++++++++++++++++++++++++.",
"..++++++++++++..............+++++++++++++++++++++++++++++++++..",
"...++++++++++++............+++++++++++++++++++++++++++++++++...",
"....++++++++++++..........+++++++++++++++++++++++++++++++++....",
".....+++++++++++++......++++++++++++++++++++++++++++++++++.....",
".......+++++++++++++++++++++++++++++++++++++++++++++++++......."};
