/* XPM */
static char * b_volumefull_x_xpm[] = {
"1 37 20 1",
" 	c #F5F5F5",
".	c #E0E0E0",
"+	c #DEDEDE",
"@	c #DBDBDB",
"#	c #D8D8D8",
"$	c #000000",
"%	c #306A39",
"&	c #378643",
"*	c #3C9149",
"=	c #296332",
"-	c #183A1D",
";	c #1C4222",
">	c #1E4825",
",	c #204D27",
"'	c #22522A",
")	c #25592D",
"!	c #403E3E",
"~	c #575757",
"{	c #A0A0A0",
"]	c #676767",
" ",
".",
"+",
"@",
"#",
"$",
"$",
"%",
"&",
"*",
"*",
"*",
"*",
"*",
"*",
"*",
"=",
"-",
"-",
"-",
"-",
";",
";",
">",
",",
"'",
")",
")",
")",
",",
"!",
"~",
"{",
"{",
"{",
"{",
"]"};
