/* XPM */
static char * button_green_xpm[] = {
"1 35 25 1",
" 	c #0C700C",
".	c #0C7F0C",
"+	c #0C900C",
"@	c #0CA50C",
"#	c #0CB10C",
"$	c #0CBC0C",
"%	c #0CC20C",
"&	c #0CC50C",
"*	c #0CC30C",
"=	c #0CB60C",
"-	c #0CB70C",
";	c #0CB80C",
">	c #0CBA0C",
",	c #0CBE0C",
"'	c #0CC00C",
")	c #0CC80C",
"!	c #0DCB0D",
"~	c #10CE10",
"{	c #12D012",
"]	c #15D315",
"^	c #17D517",
"/	c #19D719",
"(	c #1BD91B",
"_	c #1DDB1D",
":	c #1EDC1E",
" ",
".",
"+",
"@",
"#",
"$",
"%",
"&",
"&",
"&",
"&",
"&",
"&",
"&",
"*",
"=",
"-",
";",
">",
"$",
",",
"'",
"*",
"&",
")",
"!",
"~",
"{",
"]",
"^",
"/",
"(",
"_",
":",
":"};
