/* XPM */
static char * 24H TVE_xpm[] = {
"80 80 16 1",
" 	c #0081C5",
".	c #0A81BF",
"+	c #167DB5",
"@	c #247AAC",
"#	c #0190CA",
"$	c #3789B5",
"%	c #4DA2D4",
"&	c #5CA2C8",
"*	c #74ACC8",
"=	c #78B3DA",
"-	c #8BC0E7",
";	c #9AC3E2",
">	c #A6D3F1",
",	c #AED3E7",
"'	c #D8F4FC",
")	c #F9FEFD",
"...  ......................#.# #   #.........#.##### #.#.#.#.# # ##.#.#.########",
".. .       .  #  #   # # #    # #.# ######### #  #  # # # # # # #  # ####.# ####",
" . .  ##. # # ##  #  # #  ##  # # #    # #  # ## ######################## ######",
"# # #.  #. #     # ## # # # ## # # ##### ######## ## ## ############# ##########",
"#  # ## #  ##### # ## ### ## ### ####.### # # ##################################",
".##  #.# ###  # # #  ## ## ## #### ################# ##### ########%############",
" ### #.# # ## ####### ######### ####### ##### ############################%##%##",
"#  ######## ##$#$###### ## ######## ##### ##########%%##%%%########%%%%%%%####%#",
"### # # # $%&>,,,,,;&$###### #########%&===*&%#####%>,,,,>>%%#%#%%>,,,,,>-%%#%#%",
"#########$&,'')))))'',&#############$#>''''''&#%##%-')))))'%#%###&')))))'>%#%%#%",
"### ####$>'')))))))))''-############&;''')')'=####%=')))))'&%#%%#%'))))))>$%%#%%",
"#######$>')))))))))))))'=##%##%##%#%*'))))))'=#%#%$>))))))'=#%#%#%'))))))>%%%%%%",
"#### ##&'))))))''))))))),&###%#%##%=')))))))'=%#%#%=')))))'=#%%%%%'))))))>$%#%%%",
"######$,'))))'>=*>')))))'=%#%##%#%*')))))))))=%#%#%;))))))'=#%%%%&'))))))>%%%%%%",
"##%###$'))))),$#$$>)))))';##%#%%#*'))))))))))=%%%%%-')))))'=%%%%$&'))))))>%%%%%%",
"###%##&'))))'*%#%$*'))))',%%%#%#&''))),)))))'*#%#%%;)))))))*&*&***'))))))>&%%%%%",
"#%##%#='))'''&$#%%*'))))'*%#%%%&,)))',*)))))';%%%%%;')))))))))'))))))))))>=%%%%%",
"#%#%%#&>>,,,>%%#%&')))))'*%%%%%,')'),**')))))*%%%%&-))))))))'))))))))))))>%-%-%=",
"%#%#%%%&%&&$&%%&&,'))))),&%%%&,)))),*&*')))));%%%%&>')))))))))))))))))))),=%%=%=",
"%%#%%#%#%#%%%$&*'))))))'*%%%%,')))'*&&;'))))';%=%&&>))))))))))))))))))))),=%==%=",
"%%%#%%%%%%%%%&,')))))''=&%%&;')))';*&&*))))));&&=%&>')))))))))))))))))))),===%-%",
"%%%%%%%%%%%&;'))))))',&%%%%&,))))),',''))))))''>=&=;)))))))')')')')))))))>======",
"%%%%%%%%%%&,')))))',;&%=%=%=,))))))))))))))))))'===;))))))),;-;;;;))))))),==%-==",
"%%%%%%%%%*')))))'';&%%=%%%%*,))))))))))))))))))';&=>)))))))*==&===')))))),--%===",
"%%%%=%%==,)))))),*==&=&=====,))))))))))))))))))'===;)))))));=====;')))))),-=---=",
"=%=%%%=*,)))))))',,,,,,>>-==,))')))'))))))))))))===>')))))';=====;')))))),=-==--",
"%%=%=%=,)))))))))))))))));==;;,;;,,;;,,)))))),,;*==,)))))));=-=-=;'))))))';=-=--",
"%=%===='))))))))))))))))),===*=*&*=***,))))));*-==;,'))))));=-=-=;')))))),;-----",
"==%=%=;)))))))))))))))))),=====-====-=;))))));=-==-,))))))';---=;;'))))))'=;--;;",
"%-%===>)))))))))))))))))),=======-====,'))))),=;=-;>)))))));=;-;;;))))))),;-;;--",
"====%=>'''''''''''''''''';=-=--=-=---=,'''''';-;=;;;''''''';;;=-;;''''''),;;-;;;",
"-%==-==;;;;;;;;;;;;;;;;;;;=--=-=--=--;-;;;;;;;--;-;;;;;;;;;;--;;;;;,;,;;,;;;;;;;",
"=--%-==============-=;==;=-----------;;;;;;;;;=-;--;;;;;;;;;;;;;;;;;;;,;;;;;>;;>",
"-==-=--=-=-=-=---;-=;=;;-=----------;--;=;;;;;;;-;;;;;;;;;;;;;;;;;;;;;;;,>,;,,,;",
"--=-=-=-=;=-;=-=-;=-;=--;--;-;-;-;;-;;-;;;;;-;;;;;;;;;;;;;;;;;;>;,,;>>;>;;,;;;,,",
"-=----;-;-;;-;;;;-;;--;--;;-;-;-;;;;-;;;;;;;;;;;;>;>;,>;>;,;>>;,,;>;,>,,,,>,,,>;",
"------;=--=---=-;=--;-;;--;-;-;----;-;;-->;>>>>>>>>>;>>>>>>>>>;>,,;>,;>,,,,,,,,,",
";;;;;--;;;;;;;;;-;;;----------=--%-%-%-%%%%%%%%%-%----->-->>>>>>>>,,,,,>,,,>,,,,",
"--;-;;----------==%=%%%%##..                         .+.#.%.%%===--->>>>>>'>,'>,",
";;-;;----=%%%###  .      . .... .. .   + + .... ......             . #%%==->>>,>",
"--=%%%#.. ...  .        +     .    ... .                 +         .     ...%%==",
"%#... . ..           +           .      . +    ..   . +       . .   .          .",
".. .     .. .  . .. .      .  .         .   + . .   .   +  +    .  .  .  ..  +  ",
"    + ..     +   + . . +    .  . ..   .  .   .   ..     .     .        .    .   ",
".     .    . ++@++++ +    .    .  ..     . .      . ..   . .   .   .  .  + . .. ",
". . +      ..=,>>>>$. .      .     .. .. . ....       ... .          . . ..    .",
".   . .  + .+>')))'&.   +       .  ..  .  . .....     . . .    .  + .  .  ...   ",
" + . .      +>))))'$     . . . . .. .            .  . .. .     +    . .  .   .. ",
" .   .. .+++@>))))'&@@@+@@+@@@+@+.++++    + ++++++   + @++@+@@+@@++++. .      . ",
"  + .   +#&&*,)))))*&&*&&&&&&*&&&&*&*&$+   $&&**&*&@@%&*&&&*&*&**&**&@          ",
".    .. +%'')')))))))'')''''''''''''''%+ +.='''''',%@,''')'''''''''''&.  ...  . ",
" +     .+&')))))))))))))))))))))))))))*+..$,)))))';@*'))))))))))))))'&  . . .   ",
" .   . .+&'))))))))))))))))))))))))))'*. +*')))))'&@')))))))))))))))'&+  .  . . ",
". +   ..+%')))))))))))))))))))))))))))&..$,))))))*@*')))))))))))))))'&    ..    ",
".       +%,''')))))'''''')))))))''''''&..&')))))'&$,))))))''''')))))'$+     .   ",
". +    . #%&*'))))';&*&=*,))))));*&=*%#+@>)))))',@*')))))'***=*'))))'&    .     ",
".      ..  .@>))))'$++..@=')))))*@++.+ +&')))))'$$,)))))),$@@@$,))))'&@   . ... ",
". +    .  .++>)))))$   . $')))))'$+    +;)))))'>$*'))))))),,,,')))))'&+         ",
".  + .  .   @>')))'%.  . +=))))))>@+   @')))))'&@,))))))))))))))))))'$.  ..   . ",
".   . ..    @>))))'$    .+$')))))'$+ .+-)))))),@*'))))))))))))))))))'& ..   .  .",
". +       + @>))))'$  .  .+;')))))>$.+$''))))'&@,'))))))))))))))))))'$. .   .   ",
"    ..     .@>))))'$   +  +&')))))'&@+='))))),@*')))))))))))))))))))'&+.     . .",
". .  ...    @>')))'%   .   @,)))))),$$,)))))'*@,))))))',,,>>>>>>>>>>>#  ..      ",
". . .   + ..+>))))'$@++++++@&')))))'*&'))))),@&'))))))*$$$$$$$$$$$@$@+ .  .  .  ",
".  .       +@>)))))*$&$&$&&$$>))))))'')))))'*@>')))))'*$*&*$*$*&&*&&$@    .   . ",
".+  .   .  .+>)))))''''''''%+*')))))))))))',$@=)))))'))''''''''''''',++    . .  ",
" . ..       @>)))))))))))',@+$,)))))))))))'*++$')))))))))))))))))))'=.....    . ",
"   . . .    +>)))))))))))'=+ $;')))))))))),$. +>'))))))))))))))))))'++     .    ",
".. .    .  .@>'))))))))))'#+ +$')))))))))'*+  +&')))))))))))))))))'*.       . . ",
" . ..+  .  ++>'')')')')''*@  .+-'''')'''',$+   $-')'')')'')'')'''''@.  ... .    ",
" . .  .   ..+&==*=*======#+   .$=-*==;*==&..   +$=*;*===*==*==*;==&+.. .    . . ",
". . .   +  .  .+ ...++.+++ .    .+..+.....   .. ..++.+.+..+..+.++ +   . .  .    ",
". . . .  .  ..       .     .      .   ..  .      .   .          .     . .     . ",
" . .  .  .     . ..      .   ..          .    .     .   .  .       .     .  .   ",
".. ..  .  . .. .         . .    . ..      . .   . .  ..          . .  .  .. . . ",
"...  .  .         ..     .    ..    .  ...  .      ..   .  ..       ..     .    ",
"  .    .  . . ..   ..... . .    .   ..                  .   .... .    ..    . . ",
".. ..  .   . .  .         .  .             .   .    ...  .      .               ",
" .  .   .               .  .    ...   ....   . ....   .  ..   .  ....  .. .   . ",
". .  .. ............... .. . ....   ... .. .. ..   ... ...........  ...  ..... ."};
