/* XPM */
static char *___TV[] = {
/* columns rows colors chars-per-pixel */
"80 80 52 1",
"b c None",
"  c #D85E14",
". c #D96016",
"X c #D9621A",
"o c #DA6620",
"O c #DB6924",
"+ c #DC6D2A",
"@ c #DD702E",
"# c #DD7333",
"$ c #DE7638",
"% c #DF793C",
"& c #E07B3F",
"* c #E07D42",
"= c #E18046",
"- c #E1844B",
"; c #E28750",
": c #E38A54",
"> c #E48C58",
", c #E4905E",
"< c #E59462",
"1 c #E6996B",
"2 c #E89E72",
"3 c #E8A075",
"4 c #E9A47B",
"5 c #EAA982",
"6 c #EBAE89",
"7 c #ECB18D",
"8 c #EDB492",
"9 c #EEB897",
"0 c #EEBA9B",
"q c #EFBEA0",
"w c #F0BFA1",
"e c #F0C0A4",
"r c #F1C5AA",
"t c #F2C8AF",
"y c #F2CAB3",
"u c #F3CEB8",
"i c #F4D1BC",
"p c #F5D5C2",
"a c #F6D8C6",
"s c #F6DBCB",
"d c #F7DED0",
"f c #F7E0D1",
"g c #F8E1D4",
"h c #F9E5DA",
"j c #F9E8DE",
"k c #FAEBE2",
"l c #FBEFE8",
"z c #FBF2EC",
"x c #FCF6F1",
"c c #FDF8F5",
"v c #FEFEFE",
/* pixels */
"b...............................................................................",
"b...............................................................................",
"b...............................................................................",
"b...............................................................................",
"b...............................................................................",
"b...............................................................................",
"b...............................................................................",
"b...............................................................................",
"b...............................................................................",
"b...............................................................................",
"b...............................................................................",
"b...............................................................................",
"b...............................................................................",
"b...............................................................................",
"b...............................................................................",
"b...............................................................................",
"b...................        ....................................................",
"b................. .+;1563,$X ...........                            ...........",
"b............... .&7gxcxxcckr>X .........=34444445555555556667777777<o..........",
"b.............. O5kzi4>=*-1ekxr* ...... :jccccccccccxxxcccxxxxzzzzzzx4..........",
"b............. $yzr-O@-,<:$o$6kh,......Xya,::::::::;;;;;;;----=*==*=0d@ ........",
"b............ %ak1O-0gxcvcky1+=pl1.... +g1                          &h= ........",
"b........... #ag-$9zvvvvvvvvci-@rl< .. #g> ........................ #g- ........",
"b.......... orh-*avvvvvvvvvvvvk1+yh* . #g> ........................ #g- ........",
"b...........4l>*dvvvvvvvvvvvvvvz1#auO  #g: ........................ #g- ........",
"b......... *j7#avvvvvvvvvvvvvvvvl:;k3  #g: ........................ #g- ........",
"b.........Xea#qvvvvvvvvvvvvvvvvvvd$7g# #g: ........................ #g; ........",
"b........ -k<,xvvvvvvvvvvvvvvvvvvv0$g5 #g> ........................ #g; ........",
"b.........0i#avvvvvvvvvvvvvvvvvvvvz-5f+#g> ........................ #g; ........",
"b....... #g11cvvvvvvvvvvvvvvvvvvvvve&h<@g> ....     ............... #g; ........",
"b....... 1g%uvvvcjaakvvvvvzkkkkkkjxl*er#g> ....O%%%O............... #g; ........",
"b........ee-zvvg1#OO$3kvvv5#######7v4<g-g> ... 3llk< .............. #g; ........",
"b...... +s14vvj-      >lvc:       4vu*g2f> ... 6vvv1 .............. #g; ........",
"b...... =h=yvv5 ..  ...9vz* ..... 4vk*ieg> ... 6vvv1 .    ...    .. #g; ........",
"b...... 1a*hvl% .o-$.. :ck# ..XXX.5vc>8sh> ...X8vvv4OXOOOO...O++O.. #g: ........",
"b...... 7y-xvpo .5xs$  $lfO +9yyytgvv43kk> . Oelvvvkp:rssrO +yfg8X. #g: ........",
"b.......e9<vvr. +fvc,  #kiX =zcxvvvvv0,zz: . +gvvvvvc>uvvz% -xvv8 . #g: ........",
"b......Xy53vv0XX*zvx-  $le. *4-=<ivvvy;xc: . +fvvvvvx-6vvc, 1vvc< . #g: ........",
"b......Xi35vvkiisvvuO  :c6 .X.   +tvvi-zc: ..X>ivvve<O>cvv5 8vvl% . #g: ........",
"b......op26vvvvvvvg* .Xqv2 .    . *kvp-zc: ... 8vvv1  $kvvroyvvpO . #g: ........",
"b......op26vvvvvvf- . <xc<..O26# .Xyvp-zc: ... 8vvv2 .Xivvs%gvv0... #g: ........",
"b......Xi34vvvvva*  .<kvvsyricv9.. 6vu-zc: ... 8vvv2 . 7vvl1zvv1 .. #g: ........",
"b......Xy52vvvvs&  X2zvvvvvvvvvaO  3vr:xc: ... 8vvv2 . ,cvcycvz* .. #g: ........",
"b.......e0,cvvk;  O7xvvvvxjakvvio. 4v8<zz> ... 8vvv3 . $kvvxvvsO .. #g: ........",
"b...... 6y-zvv5 . *9w00yp:#O1zx3 . 8v34hj> ... 7vvvr*o Xivvvvvw.... #f: ........",
"b...... <s&gvg# ...... #u#  X-:X..oic:0ig> ... 5vvvvk=  7vvvvv2 ... #g: ........",
"b...... *g-rv0........ #h4 ..  .. ;xj&p8f> ... 2vvvvx-  ,cvvvz= ... #g: ........",
"b...... Oa13v4         #kh=  ..  #ivr=h<d> ... =lvvvx-  $kvvvf+ ... #f> ........",
"b........0r*k5#$$$$$$$$:kvf<+XX+,pvv12s*d> ....X1isdi% .X8iii5X.... @d> ........",
"b....... <g&rzkkkkkkkkkzvvvxsyufxvvh$y9@f> ..... o++OX...XXXXX..... @f> ........",
"b....... @d3>cvvvvvvvvvvvvvvvvvvvvv7=h:+f> .......   .............. @f> ........",
"b.........7a#uvvvvvvvvvvvvvvvvvvvvj%8pO+f> ........................ @d> ........",
"b........ *h1;zvvvvvvvvvvvvvvvvvvv4*h2 @f> ........................ @d> ........",
"b..........8s#6vvvvvvvvvvvvvvvvvvu@wp+ @d> ........................ @d> ........",
"b......... $g8+yvvvvvvvvvvvvvvvvg*<k<  @d> ........................ @d> ........",
"b.......... 1l1#ivvvvvvvvvvvvvvh-*h0X. @d> ........................ @d> ........",
"b...........X9k>#rcvvvvvvvvvvva=$ap@ . +d> ........................ @d> ........",
"b........... +th<O3gvvvvvvvvk8#*pf* .. +s> ........................ @f> ........",
"b............ @yz5+#3uhkljp6*o<gf- ... Oa4             .............:h* ........",
"b............. +9zp<+o@$$#OO:rzu& ......7k97778888888889999000000weeguO ........",
"b.............. X<azg03<<28azh4+ ...... #tlzzzzzzzzzzzzllkkkkkkkkkkki= .........",
"b................ +1yhzzzzkp5$. ........ O************%&%%%%%$$$$$##O ..........",
"b.................  X#->>;$O  ...........                            ...........",
"b....................       ....................................................",
"b...............................................................................",
"b...............................................................................",
"b...............................................................................",
"b...............................................................................",
"b...............................................................................",
"b...............................................................................",
"b...............................................................................",
"b...............................................................................",
"b...............................................................................",
"b...............................................................................",
"b...............................................................................",
"b...............................................................................",
"b...............................................................................",
"b...............................................................................",
"b...............................................................................",
"b..............................................................................."
};
