/* XPM */
static char *_XL[] = {
/* columns rows colors chars-per-pixel */
"80 80 33 1",
"r c None",
"  c #000000",
". c #0A0A0A",
"X c #131313",
"o c #1C1C1C",
"O c #232323",
"+ c #2A2A2A",
"@ c #333333",
"# c #3B3B3B",
"$ c #444444",
"% c #4C4C4C",
"& c #515151",
"* c #5C5C5C",
"= c #646464",
"- c #6B6B6B",
"; c #717171",
": c #7B7B7B",
"> c #848484",
", c #8A8A8A",
"< c #939393",
"1 c #9A9A9A",
"2 c #A2A2A2",
"3 c #ABABAB",
"4 c #B5B5B5",
"5 c #BCBCBC",
"6 c #C3C3C3",
"7 c #CBCBCB",
"8 c #D3D3D3",
"9 c #DADADA",
"0 c #E4E4E4",
"q c #EBEBEB",
"w c #F3F3F3",
"e c #FEFEFE",
/* pixels */
"reeeeeeeeeeeeeeeeeeeeeeeeeeeeeeeeeeeeeeeeeeeeeeeeeeeeeeeeeeeeeeeeeeeeeeeeeeeeeee",
"reeeeeeeeeeeeeeeeeeeeeeeeeeeeeeeeeeeeeeeeeeeeeeeeeeeeeeeeeeeeeeeeeeeeeeeeeeeeeee",
"reeeeeeeeeeeeeeeeeeeeeeeeeeeeeeeeeeeeeeeeeeeeeeeeeeeeeeeeeeeeeeeeeeeeeeeeeeeeeee",
"reeeeeeeeeeeeeeeeeeeeeeeeeeeeeeeeeeeeeeeeeeeeeeeeeeeeeeeeeeeeeeeeeeeeeeeeeeeeeee",
"reeeeeeeeeeeeeeeeeeeeeeeeeeeeeeeeeeeeeeeeeeeeeeeeeeeeeeeeeeeeeeeeeeeeeeeeeeeeeee",
"reeeeeeeeeeeeeeeeeeeeeeeeeeeeeeeeeeeeeeeeeeeeeeeeeeeeeeeeeeeeeeeeeeeeeeeeeeeeeee",
"reeeeeeeeeeeeeeeeeeeeeeeeeeeeeeeeeeeeeeeeeeeeeeeeeeeeeeeeeeeeeeeeeeeeeeeeeeeeeee",
"reeeeeeeeeeeeeeeeeeeeeeeeeeeeeeeeeeeeeeeeeeeeeeeeeeeeeeeeeeeeeeeeeeeeeeeeeeeeeee",
"reeeeeeeeeeeeeeeeeeeeeeeeeeeeeeeeeeeeeeeeeeeeeeeeeeeeeeeeeeeeeeeeeeeeeeeeeeeeeee",
"reeeeeeeeeeeeeeeeeeeeeeeeeeeeeeeeeeeeeeeeeeeeeeeeeeeeeeeeeeeeeeeeeeeeeeeeeeeeeee",
"reeeeeeeeeeeeeeeeeeeeeeeeeeeeeeeeeeeeeeeeeeeeeeeeeeeeeeeeeeeeeeeeeeeeeeeeeeeeeee",
"reeeeeeeeeeeeeeeeeeeeeeeeeeeeeeeeeeeeeeeeeeeeeeeeeeeeeeeeeeeeeeeeeeeeeeeeeeeeeee",
"reeeeeeeeeeeeeeeeeeeeeeeeeeeeeeeeeeeeeeeeeeeeeeeeeeeeeeeeeeeeeeeeeeeeeeeeeeeeeee",
"reeeeeeeeeeeeeeeeeeeeeeeeeeeeeeeeeeeeeeeeeeeeeeeeeeeeeeeeeeeeeeeeeeeeeeeeeeeeeee",
"reeeeeeeeeeeeeeeeeeeeeeeeeeeeeeeeeeeeeeeeeeeeeeeeeeeeeeeeeeeeeeeeeeeeeeeeeeeeeee",
"reeeeeeeeeeeeeee0>&&&&&&&&&&&&*>6weeeeeeeeeeeeeeeeee8;&&&&&%-0eeeeeeeeeeeeeeeeee",
"reeeeeeeeeeeeee0&               o-8eeeeeeeeeeeeeeee8#       X6eeeeeeeeeeeeeeeeee",
"reeeeeeeeeeeeee,                  @5eeeeeeeeeeeeeew*        $qeeeeeeeeeeeeeeeeee",
"reeeeeeeeeeeeeq#                   O5eeeeeeeeeeeee1.       X5eeeeeeeeeeeeeeeeeee",
"reeeeeeeeeeeee6X                    @9eeeeeeeeeee7O        :eeeeeeeeeeeeeeeeeeee",
"reeeeeeeeeeeee>                      =weeeeeeeeew*        $0eeeeeeeeeeeeeeeeeeee",
"reeeeeeeeeeeew$                      .2eeeeeeeee<.       o5eeeeeeeeeeeeeeeeeeeee",
"reeeeeeeeeeee8o                       +8eeeeeee7O        >eeeeeeeeeeeeeeeeeeeeee",
"reeeeeeeeeeee2                         =weeeeeq&        $0eeeeeeeeeeeeeeeeeeeeee",
"reeeeeeeeeeee4X                        .2eeeee<.       o5eeeeeeeeeeeeeeeeeeeeeee",
"reeeeeeeeeeeew3<<<<<<<<<<<<<<<;o        +8eee7O        >eeeeeeeeeeeeeeeeeeeeeeee",
"reeeeeeeeeeeeeeeeeeeeeeeeeeeeee3X        *weq&        $qeeeeeeeeeeeeeeeeeeeeeeee",
"reeeeeeeeeeeeeeeeeeeeeeeeeeeeeee>        .,9:.       o6eeeeeeeeeeeeeeeeeeeeeeeee",
"reeeeeeeeeeeeeeeeeeeeeeeeeeeeeee0$        .O.        >eeeeeeeeeeeeeeeeeeeeeeeeee",
"reeeeeeeeeeeeeeeeeeeeeeeeeeeeeeee5o                 %qeeeeeeeeeeeeeeeeeeeeeeeeee",
"reeeeeeeeeeeeeeeeeeeeeeeeeeeeeeeee>                o6eeeeeeeeeeeeeeeeeeeeeeeeeee",
"reeeeeeeeeeeeeeeeeeeeeeeeeeeeeeeeeq$               ,eeeeeeeeeeeeeeeeeeeeeeeeeeee",
"reeeeeeeeeeeeeeeeeeeeeeeeeeeeeeeeee6o             %qeeeeeeeeeeeeeeeeeeeeeeeeeeee",
"reeeeeeeeeeeeeeeeeeeeeeeeeeeeeeeeeee>            o6eeeeeeeeeeeeeeeeeeeeeeeeeeeee",
"reeeeeeeeeeeeeeeeeeeeeeeeeeeeeeeeeeeq%           >eeeeeeeeeeeeeeeeeeeeeeeeeeeeee",
"reeeeeeeee01:::::::::::::::>7eeeeeeee6o         o9eeeeeeeeeeeeeeeeeeeeeeeeeeeeee",
"reeeeeeee0&                 O4eeeeeeee,         +0eeeeeeeeeeeeeeeeeeeeeeeeeeeeee",
"reeeeeeee:                   @9eeeeeeeq%        X6eeeeeeeeeeeeeeeeeeeeeeeeeeeeee",
"reeeeeee0+                    -weeeeeee6o        &weeeeeeeeeeeeeeeeeeeeeeeeeeeee",
"reeeeeee4.                    .3eeeeeeee,        .<eeeeeeeeeeeeeeeeeeeeeeeeeeeee",
"reeeeeee;                      @9eeeeeeeq%        O7eeeeeeeeeeeeeeeeeeeeeeeeeeee",
"reeeeeeq@                       =weeeeeee6o        &qeeeeeeeeeeeeeeeeeeeeeeeeeee",
"reeeeee5.                       .2eeeeeeee,.       .<eeeeeeeeeeeeeeeeeeeeeeeeeee",
"reeeeee,                         +8eeeeeeeq&        O7eeeeeeeeeeeeeeeeeeeeeeeeee",
"reeeeee<                          =weeeeeee7O        &qeeeeeeeeeeeeeeeeeeeeeeeee",
"reeeeee0,::::::::::::::>:$        .2eeeeeeee<.       .,eeeeeeeeeeeeeeeeeeeeeeeee",
"reeeeeeeeeeeeeeeeeeeeeeee0$        +8eeeeeeeq&        O7eeeeeeeeeeeeeeeeeeeeeeee",
"reeeeeeeeeeeeeeeeeeeeeeeee5X        =weeeeeee7O        %qeeeeeeeeeeeeeeeeeeeeeee",
"reeeeeeeeeeeeeeeeeeeeeeeeee:        .2eeeeeeee<.       .,eeeeeeeeeeeeeeeeeeeeeee",
"reeeeeeeeeeeeeeeeeeeeeeeeee9O        +8eeeeeeeq&        o6eeeeeeeeeeeeeeeeeeeeee",
"reeeeeeeeeeeeeeeeeeeeeeeeeew#         *weeeeeee7O        %qeeeeeeeeeeeeeeeeeeeee",
"reeeeeeeeeeeeeeeeeeeeeeeeee9O         .1eeeeeeee<.        ,eeeeeeeeeeeeeeeeeeeee",
"reeeeeeeeeeeeeeeeeeeeeeeeee>           +8eeeeeeew*        o6eeeeeeeeeeeeeeeeeeee",
"reeeeeeeeeeeeeeeeeeeeeeeee6o            *weeeeeee7O        %qeeeeeeeeeeeeeeeeeee",
"reeeeeeeeeeeeeeeeeeeeeeee0$             .1eeeeeeee1.        :weeeeeeeeeeeeeeeeee",
"reee02,,,,,,,,,,,,,,,,,,,%               +8eeeeeeew*        .&>,,,,,,,,,,,,,,<9e",
"ree9%.                                    *weeeeeee8O                         =e",
"ree-                                      .1eeeeeeee1.                        &e",
"re8o                            X#o        O8eeeeeeew*                        ,e",
"re1                            .,w4o        *weeeeeee8+                      o7e",
"rw*                            *wee,        .<eeeeeeee1.                     %we",
"r9+                           O7eeeq%        O7eeeeeeew=                     ,ee",
"r2.                          .1eeeee6o        &weeeeeee0%                   X7ee",
"r=                           *weeeeee,.       .1eeeeeeee9&.                 &wee",
"r=                          $8eeeeeeeq=.       *eeeeeeeeeq,@.              @7eee",
"r7=************************:8eeeeeeeeeq<=******3eeeeeeeeeee91-************:7eeee",
"reeeeeeeeeeeeeeeeeeeeeeeeeeeeeeeeeeeeeeeeeeeeeeeeeeeeeeeeeeeeeeeeeeeeeeeeeeeeeee",
"reeeeeeeeeeeeeeeeeeeeeeeeeeeeeeeeeeeeeeeeeeeeeeeeeeeeeeeeeeeeeeeeeeeeeeeeeeeeeee",
"reeeeeeeeeeeeeeeeeeeeeeeeeeeeeeeeeeeeeeeeeeeeeeeeeeeeeeeeeeeeeeeeeeeeeeeeeeeeeee",
"reeeeeeeeeeeeeeeeeeeeeeeeeeeeeeeeeeeeeeeeeeeeeeeeeeeeeeeeeeeeeeeeeeeeeeeeeeeeeee",
"reeeeeeeeeeeeeeeeeeeeeeeeeeeeeeeeeeeeeeeeeeeeeeeeeeeeeeeeeeeeeeeeeeeeeeeeeeeeeee",
"reeeeeeeeeeeeeeeeeeeeeeeeeeeeeeeeeeeeeeeeeeeeeeeeeeeeeeeeeeeeeeeeeeeeeeeeeeeeeee",
"reeeeeeeeeeeeeeeeeeeeeeeeeeeeeeeeeeeeeeeeeeeeeeeeeeeeeeeeeeeeeeeeeeeeeeeeeeeeeee",
"reeeeeeeeeeeeeeeeeeeeeeeeeeeeeeeeeeeeeeeeeeeeeeeeeeeeeeeeeeeeeeeeeeeeeeeeeeeeeee",
"reeeeeeeeeeeeeeeeeeeeeeeeeeeeeeeeeeeeeeeeeeeeeeeeeeeeeeeeeeeeeeeeeeeeeeeeeeeeeee",
"reeeeeeeeeeeeeeeeeeeeeeeeeeeeeeeeeeeeeeeeeeeeeeeeeeeeeeeeeeeeeeeeeeeeeeeeeeeeeee",
"reeeeeeeeeeeeeeeeeeeeeeeeeeeeeeeeeeeeeeeeeeeeeeeeeeeeeeeeeeeeeeeeeeeeeeeeeeeeeee",
"reeeeeeeeeeeeeeeeeeeeeeeeeeeeeeeeeeeeeeeeeeeeeeeeeeeeeeeeeeeeeeeeeeeeeeeeeeeeeee",
"reeeeeeeeeeeeeeeeeeeeeeeeeeeeeeeeeeeeeeeeeeeeeeeeeeeeeeeeeeeeeeeeeeeeeeeeeeeeeee",
"reeeeeeeeeeeeeeeeeeeeeeeeeeeeeeeeeeeeeeeeeeeeeeeeeeeeeeeeeeeeeeeeeeeeeeeeeeeeeee"
};
