/* XPM */
static char *___LATINO[] = {
/* columns rows colors chars-per-pixel */
"80 80 256 2",
"   c #030103",
".  c #0B0203",
"X  c #030008",
"o  c #0B0B0B",
"O  c #130404",
"+  c #1B0504",
"@  c #150806",
"#  c #1C0806",
"$  c #13090A",
"%  c #1C0B0A",
"&  c #14070A",
"*  c #141515",
"=  c #1C1C1C",
"-  c #171818",
";  c #19100D",
":  c #230505",
">  c #240C0A",
",  c #2B0D0B",
"<  c #280806",
"1  c #350C0A",
"2  c #2B120E",
"3  c #24130F",
"4  c #33130E",
"5  c #3C130E",
"6  c #2C1410",
"7  c #231715",
"8  c #341411",
"9  c #3C1412",
"0  c #3C1A15",
"q  c #341A15",
"w  c #210F10",
"e  c #242424",
"r  c #2C2C2C",
"t  c #26282C",
"y  c #333333",
"u  c #3B3B3B",
"i  c #353A3A",
"p  c #2F322F",
"a  c #1F2020",
"s  c #45120E",
"d  c #4C150E",
"f  c #54150E",
"g  c #431511",
"h  c #431914",
"j  c #4B1B15",
"k  c #421C19",
"l  c #4B1B16",
"z  c #561C16",
"x  c #470F0B",
"c  c #651C15",
"v  c #7E1F14",
"b  c #4B231B",
"n  c #45211A",
"m  c #53241B",
"M  c #5A241B",
"N  c #5C291D",
"B  c #63231C",
"V  c #6B251A",
"C  c #74281B",
"Z  c #70301E",
"A  c #761B28",
"S  c #4B2521",
"D  c #5B2C24",
"F  c #5B3225",
"G  c #443D38",
"H  c #59353B",
"J  c #642D24",
"K  c #6A2B24",
"L  c #742D24",
"P  c #7A2D22",
"I  c #6A3528",
"U  c #75352A",
"Y  c #783828",
"T  c #6E3736",
"R  c #5A1C28",
"E  c #3F423F",
"W  c #40403D",
"Q  c #7D412E",
"!  c #3D3B41",
"~  c #3B4043",
"^  c #444444",
"/  c #4B4B4B",
"(  c #464B48",
")  c #535353",
"_  c #5B5C5B",
"`  c #5B5854",
"'  c #514D4B",
"]  c #6E5150",
"[  c #636363",
"{  c #6B6B6B",
"}  c #747474",
"|  c #7C7C7C",
" . c #726C6A",
".. c #6D6160",
"X. c #872B1C",
"o. c #93311E",
"O. c #98182C",
"+. c #AE1A30",
"@. c #8D3C2E",
"#. c #863828",
"$. c #933C2E",
"%. c #983827",
"&. c #8C3D33",
"*. c #843933",
"=. c #943D33",
"-. c #8A2B27",
";. c #B13A24",
":. c #A9332D",
">. c #854232",
",. c #8C4434",
"<. c #8A483A",
"1. c #934233",
"2. c #9D4335",
"3. c #984A3C",
"4. c #9C513C",
"5. c #9E402F",
"6. c #AA442C",
"7. c #B5472D",
"8. c #A44334",
"9. c #A44C3B",
"0. c #A84A37",
"q. c #B44A34",
"w. c #BC4B3A",
"e. c #B64835",
"r. c #AA523D",
"t. c #B8563B",
"y. c #C44B2E",
"u. c #C8553A",
"i. c #D3563B",
"p. c #D25A3C",
"a. c #D85738",
"s. c #CB4C36",
"d. c #E9573E",
"f. c #F2583F",
"g. c #CF633E",
"h. c #D6633D",
"j. c #B63247",
"k. c #995346",
"l. c #914E4C",
"z. c #AE5542",
"x. c #A85744",
"c. c #B25444",
"v. c #B45A44",
"b. c #BC5B43",
"n. c #BD5D4B",
"m. c #B85646",
"M. c #B64D4E",
"N. c #BA6449",
"B. c #BF6552",
"V. c #AF6B53",
"C. c #936E71",
"Z. c #B76E6A",
"A. c #A85863",
"S. c #CB5444",
"D. c #C45B43",
"F. c #C75A48",
"G. c #D45D43",
"H. c #DA5E45",
"J. c #D45C4B",
"K. c #D75948",
"L. c #C5584B",
"P. c #E55C44",
"I. c #E75C47",
"U. c #F35741",
"Y. c #CD6145",
"T. c #C4644E",
"R. c #CB644A",
"E. c #C5684B",
"W. c #D36445",
"Q. c #DD6144",
"!. c #D3644C",
"~. c #DC644B",
"^. c #DD6B4D",
"/. c #D46B4B",
"(. c #D7734D",
"). c #C56453",
"_. c #CC6554",
"`. c #C36A55",
"'. c #CD6C55",
"]. c #C56C59",
"[. c #CA6C5B",
"{. c #C7635A",
"}. c #D26C55",
"|. c #DC6D53",
" X c #DB6D59",
".X c #D66B57",
"XX c #CA735C",
"oX c #C97459",
"OX c #DB7254",
"+X c #D4745C",
"@X c #DB745D",
"#X c #D27A5D",
"$X c #DB7C5A",
"%X c #D37354",
"&X c #E36244",
"*X c #E3644C",
"=X c #E36A4D",
"-X c #EB6042",
";X c #E26C54",
":X c #E66754",
">X c #E27354",
",X c #E3745A",
"<X c #E2795D",
"1X c #EA7358",
"2X c #CB7762",
"3X c #D37B63",
"4X c #DB7B63",
"5X c #D67C6B",
"6X c #DA7E6B",
"7X c #D77364",
"8X c #CD6776",
"9X c #D2766C",
"0X c #E37C64",
"qX c #E77A66",
"wX c #E17F72",
"eX c #C4576D",
"rX c #DB815D",
"tX c #DB8265",
"yX c #D5846D",
"uX c #DC836C",
"iX c #D68769",
"pX c #CB8476",
"aX c #D48572",
"sX c #DC8573",
"dX c #D58C75",
"fX c #DC8973",
"gX c #DC897B",
"hX c #DB9174",
"jX c #DB937C",
"kX c #D89679",
"lX c #D68A6C",
"zX c #E38266",
"xX c #E4836C",
"cX c #E48A6C",
"vX c #E9876B",
"bX c #E28473",
"nX c #E58A74",
"mX c #E98C74",
"MX c #E48C7B",
"NX c #EB8C79",
"BX c #E2937A",
"VX c #EB937B",
"CX c #E59475",
"ZX c #E98C70",
"AX c #EA805F",
"SX c #CF7888",
"DX c #868887",
"FX c #979899",
"GX c #9B8884",
"HX c #B2958C",
"JX c #D98D83",
"KX c #DA9685",
"LX c #C89485",
"PX c #E49885",
"IX c #D7A196",
"UX c None",
/* pixels */
"UXUXUXUXUXUXUXUXUXUXUXUXUXUXUXUXUXUXUXUXUXUXUXUXUXUXUXUXUXUXUXUXUXUXUXUXUXUXUXUXUXUXUXUXUXUXUXUXUXUXUXUXUXUXUXUXUXUXUXUXUXUXUXUXUXUXUXUXUXUXUXUXUXUXUXUXUXUXUXUX",
"UXUXUXUXUXUXUXBXBXBXPXUXUXUXUXUXUXUXUXUXUXUXUXUXUXUXUXUXUXUXUXUXUXUXUXUXUXUXUXUXUXUXUXUXUXUXUXUXUXUXUXUXUXUXUXUXUXUXUXUXUXUXUXUXUXUXUXUXUXUXUXUXUXUXUXUXUXUXUXUX",
"UXUXUXUXUXhX4X+X@X$XuXsXgXwXwXbXbXxXxXuXbXmXNXNXnXnXnXnXNXmXNXMXVXVXVXVXVXPXPXPXKXUXUXUXUXUXUXUXUXUXUXUXUXUXUXUXUXUXUXUXUXUXUXUXUXUXUXUXUXUXUXUXUXUXUXUXUXUXUXUX",
"UXUXUXUXUXuX}.G.p.Y.T.{.{.{.{._.}.}.}.%X X7X7X@X X+X@X7X@X7X4X6X4X4X4X4XuXyXyXaXyXaXaXaXdXaXaXdXdXdXdXdXkXdXdXfXjXjXjXkXkXkXjXjXkXJXkXkXdXdXsXaXpXLXUXUXUXUXUXUX",
"UXUXUXUXUXxX|.G.s.7.%.$.*.&.=.l.2.2.9.r.x.z.c.z.c.c.c.v.n.B.n.n.n.n.L.n.B.).n.B.B.B.B.B.`.`.`.`.].].[.2X[.2X2X2X3X3X#XrX2X#X3X2X3X9X2X#X[.}..X{.[.9XUXUXUXUXUXUX",
"UXUXUXUXUXxX;XH.7.X.z s k 0 k j b b m N J J J J J K K U U U *.U U *.*.*.*.#.@.&.@.@.$.$.$.$.=.=.2.2.=.x.z.z.c.M.c.t.v.t.v.b.b.n.n.n.v.r.q.w.S.S._.8XJXUXUXUXUXUX",
"UXUXUXUXUXvX,XH.7.C 1 + O O & & @ @ @ % % % % > > > , , 6 6 4 4 9 9 9 9 9 s s s x s x d f d f f z f c c c A K L P P C P P P #.#.#.#.P Z C %.w.S.J.8XUXUXUXUXUXUX",
"UXUXUXUXUXcX>XQ.7.c : O . .   . .       .   .     . .   . . . . O X . O . . O . O O + O + + + + : + : : : > , w , , , 2 2 2 , 4 8 2 2 > , B 8.S.J.qXUXUXUXUXUXUX",
"UXUXUXUXUXzX>XQ.7.C < . .   .                                   X                             .   . .               . . X .   . . .     O l 8.S.J.0XUXUXUXUXUXUX",
"UXUXUXUXUXvX>XQ.7.C < O .   .       . . .                           X             X             X                 X X X X X     .       @ M 0.S.K.<XUXUXUXUXUXUX",
"UXUXUXUXUXZX1X&Xy.C < . . .   .                       X                           X X X         X                 X X X X               > B 6.i.I.,XUXUXUXUXUXUX",
"UXUXUXUXUXZX1X&Xw.P 1 .                   .           X X   X       X             X X X X   X X X                 X   X X .           . < Z q.i.H.<XUXUXUXUXUXUX",
"UXUXUXUXUXNXqX*Xw.L 1 .     X           X     X X X X   X   X X X                 X X X                                 X               , Z 7.p.&X0XUXUXUXUXUXUX",
"UXUXUXUXUXNXqX:XS.-.1 O   X               X       X X X X X X . X X X X   . O o O .         X   X                                       2 Y t.p.^.qXUXUXUXUXUXUX",
"UXUXUXUXUXNX<X:XS.%.5 O o   X                   X   X X X   .   . o & o 3 e b b 4 # O .     X X X                       .             o 4 Y t.g.|.zXUXUXUXUXUXUX",
"UXUXUXUXUXNXqX:XS.%.s O   X                             . & $ % 6 q S F Q Q k.4.U 9 + .   X X X X           . o $ @ % ; 2 6 4 2 2 3 # > h #.t.g.|.cXUXUXUXUXUXUX",
"UXUXUXUXUXVXqX:XK.%.g O   X                     . O @ > 2 0 m I Q <.k.x.N.`.}./.c.c < O X X X X X       & > 4 b D D K U T =.&.&.*.U L K P 6.y.h.(.cXUXUXUXUXUXUX",
"UXUXUXUXUXPXzX:XK.$.d O   X               . @ ; 2 0 m J Y 1.4.v.N.`.].+X$XOX>X>XF.C 1 O . X X X   . @ 4 b U 1.9.c.m.L.J.J.J.J.J.K.S.S.:.7.s.a.h.>XCXUXUXUXUXUXUX",
"UXUXUXUXUXPXvX:XY.2.d +           O @ # 2 n m I Q ,.4.r.N.N.oX#XiXiXcXcXcXzX1X>XJ.#.5 O X X X . @ 4 N >.x.F.!..X~.~.*X*X*XI.I.I.I.I.I.H.a.a.a.h.<XUXUXUXUXUXUXUX",
"UXUXUXUXUXUXxX>XG.6.f + . . @ % 3 0 m Z Y <.4.x.N.N.oX#XrXiXlXhXhXUXUXUXUXvX1X=XG.$.5 @   X O 2 M @.t.Y.~.*X*X*X*X&XI.&XI.P.U.I.P.P.P.P.P.a.a.h.<XUXUXUXUXUXUXUX",
"UXUXUXUXUXUXzX>Xp.7.V x 4 5 b D Q <.4.x.N.N.B.2X3XtXiXlXCXVXUXUXUXUXUXUXUXVX1X=XR.1.9 O . # h U r.W.=X=X&XH.*X~.~.^.=X=X:X=X=X1X1X1X1X1X;X~.g./.iXUXUXUXUXUXUXUX",
"UXUXUXUXUXUXzX=Xp.y.%.X.#.,.3.x.x.V.V.oX#XiXaXhXjXBXUXUXUXUXUXUXUXUXUXUXUXUXzX>XR.$.s > 2 m ,.u.&X*X&XQ.H.~.|.@X0XzXxXvXvXvXUXUXUXUXNXNXcXtXtXuXUXUXUXUXUXUXUXUX",
"UXUXUXUXUXUXrX/.h.p.s.D.n.B.].XXrXrXiXlXkXkXUXUXUXUXUXUXUXUXUXUXUXUXUXUXUXUXwX XW.6.B d Z 0.Y.=X&X&XQ.^.>X4XbXBXUXUXUXUXUXUXUXUXUXUXUXUXUXUXUXUXUXUXUXUXUXUXUXUX",
"UXUXUXUXUXUXrX(.g.W._.+X7X9X6XbXhXUXUXUXUXUXUXUXUXUXUXUXUXUXUXUXUXUXUXUXUXUXwX:XH.y.o.%.t.W.~.&X&XQ.;X<XvXUXUXUXUXUXUXUXUXUXUXUXUXUXUXUXUXUXUXUXUXUXUXUXUXUXUXUX",
"UXUXUXUXUXUXhXrX%XrXrXaXJXJXUXUXUXUXUXUXUXUXUXUXUXUXUXUXUXUXUXUXUXUXUXUXUXUXbX:XI.i.s.a.P.-X&XQ.=X>XzXUXUXUXUXUXUXUXUXUXUXUXUXUXUXUXUXUXUXUXUXUXUXUXUXUXUXUXUXUX",
"UXUXUXUXUXUXUXkXhXhXUXUXUXUXUXUXUXUXUXUXUXUXUXUXUXUXUXUXUXUXUXUXUXUXUXUXUXUXbX;XI.U.f.U.-X&XQ.^.<XUXUXUXUXUXUXUXUXUXUXUXUXUXUXUXUXUXUXUXUXUXUXUXUXUXUXUXUXUXUXUX",
"UXUXUXUXUXUXUXUXUXUXUXUXUXUXUXl.] *.k.Z.UXUXUXUXUXUXUXUXUXUXUXUXUXUXUXUXUXUXbX,XI.U.f.f.P.Q.|.0XUXUXUXUXUXUXUXUXUXUXUXUXUXUXUXUXUXUXUXUXUXUXUXUXUXUXUXUXUXUXUXUX",
"UXUXUXUXUXUXUXUXUXUXUXUXUX..] H A A &.M.UXUXUXUXUXUXUXUXUXUXUXUXUXUXUXUXUXUXnX;XP.U.f.U.P.|.4XUXUXUXUXUXUXUXUXUXUXUXUXUXUXUXUXUXUXUXUXUXUXUXUXUXUXUXUXUXUXUXUXUX",
"UXUXUXUXUXUXUXUXUXUXUXUX..H R A O.O.+.j.8XUXUXUXUXUXUXUXUXUXUXUXUXUXUXUXUXUXnXOXP.d.d.I.;X0XUXUXUXUXUXUXUXUXUXUXUXUXUXUXUXUXUXUXUXUXUXUXUXUXUXUXUXUXUXUXUXUXUXUX",
"UXUXUXUXUXUXUXUXUXUXUXUX .T A -.+.+.+.+.8XUXUXUXUXUXUXUXUXUXUXUXUXUXUXUXUXUXZX|.a.d.P.*XqXUXUXUXUXUXUXUXUXUXUXUXUXUXUXUXUXUXUXUXUXUXUXUXUXUXUXUXUXUXUXUXUXUXUXUX",
"UXUXUXUXUXUXUXUXUXUXUXUXC.A.l.j.j.j.+.j.8XUXUXUXUXUXUXUXUXUXUXUXUXUXUXUXUXUXhXOXG.i.~.qXUXUXUXUXUXUXUXUXUXUXUXUXUXUXUXUXUXUXUXUXUXUXUXUXUXUXUXUXUXUXUXUXUXUXUXUX",
"UXUXUXUXUXUXUXUXUXUXUXUXUXUXSXeXeXL.eXeXSXUXUXUXUXUXUXUXUXUXUXUXUXUXUXUXUXUXjX#XY.!.4XUXUXUXUXUXUXUXUXUXUXUXUXUXUXUXUXUXUXUXUXUXUXUXUXUXUXUXUXUXUXUXUXUXUXUXUXUX",
"UXUXUXUXUXUXUXUXUXUXUXUXUXUXUXUXUXSXSXSXUXUXUXUXUXUXUXUXUXUXUXUXUXUXUXUXUXUXUXaX3X5XUXUXUXUXUXUXUXUXUXUXUXUXUXUXUXUXUXUXUXUXUXUXUXUXUXUXUXUXUXUXUXUXUXUXUXUXUXUX",
"UXUXUXUXUXUXUXUXUXUXUXUXUXUXUXUXUXUXUXUXUXUXUXUXUXUXUXUXUXUXUXUXUXUXUXUXUXUXUXUXKXUXUXUXUXUXUXUXUXUXUXUXUXUXUXUXUXUXUXUXUXUXUXUXUXUXUXUXUXUXUXUXUXUXUXUXUXUXUXUX",
"UXUXUXUXUXUXUXUXUXUXUXUXUXUXUXUXUXUXUXUXUXUXUXUXUXUXUXUXUXUXUXUXUXUXUXUXUXUXUXUXUXUXUXUXUXUXUXUXUXUXUXUXUXUXUXUXUXUXUXUXUXUXUXUXUXUXUXUXUXUXUXUXUXUXUXUXUXUXUXUX",
"UXUXUXUXUXUXUXUXUXUXUXUXUXUXUXUXUXUXUXUXUXUXUXUXUXUXUXUXUXUXUXUXUXUXUXUXUXUXUXUXUXUXUXUXUXUXUXUXUXUXUXUXUXUXUXUXUXUXUXUXUXUXUXUXUXUXUXUXUXUXUXUXUXUXUXUXUXUXUXUX",
"UXUXUXUXUXUXUXUXUXUXUXUXUXUXUXUXUXUXUXUXUXUXUXUXUXUXUXUXUXUXUXUXUXUXUXUXUXUXUXUXUXUXUXUXUXUXUXUXUXUXUXUXUXUXUXUXUXUXUXUXUXUXUXUXUXUXUXUXUXUXUXUXUXUXUXUXUXUXUXUX",
"UXUXUXUXUXUXUXUXUXUXUXUXUXUXUXUXUXUXUXUXUXUXUXUXUXUXUXUXUXUXUXUXUXUXUXUXUXUXUXUXUXUXUXUXUXUXUXUXUXUXUXUXUXUXUXUXUXUXUXUXUXUXUXUXUXUXUXUXUXUXUXUXUXUXUXUXUXUXUXUX",
"UXUXUXUXUXUXUXUXJXbXbXbXnXJXKXBXUXUXUXUXUXUXUXUXUXUXUXUXUXUXUXUXUXUXUXUXUXUXUXUXUXUXUXUXUXUXUXUXUXUXUXUXUXUXUXUXUXUXUXUXUXUXUXUXUXUXUXUXUXUXUXUXUXUXUXUXUXUXUXUX",
"UXUXUXUXUXUXUXUXwX X.X X|.+X3X#X4X$XwXbXUXUXUXUXUXUXUXUXUXUXUXUXUXUXUXUXUXUXUXUXUXUXUXUXUXUXUXUXUXUXUXUXUXUXUXUXUXUXUXUXUXUXUXUXUXUXUXUXUXUXUXUXUXUXUXUXUXUXUXUX",
"UXUXUXUXUXUXUXUX#XW.p.i.u.b.b.E.R./.~. XuXUXUXUXUXUXUXUXUXUXUXUXUXUXUXUXUXUXUXUXUXUXKXUXUXUXUXUXUXUXUXUXUXUXUXUXUXUXUXUXUXUXUXUXUXUXUXUXUXUXUXUXUXUXUXUXUXUXUXUX",
"UXUXUXUXUXUXUXUX$Xh.a.y.;.-.#.$.6.u.a.Q.@XMXUXUXUXUXUXUXUXUXUXUXUXUXUXUXUXUXUXUXKXaX3X#X#XrXiXyXUXUXUXUXUXUXUXUXUXUXUXUXUXUXUXUXUXUXUXUXUXUXUXUXUXUXUXUXUXUXUXUX",
"UXUXUXUXUXUXUXUX$XQ.a.;.v f x x Z 6.a.h.OXZXUXUXUXUXUXUXUXUXUXUXUXUXUXUXUXUXUXUXdXXXR.W.g.E.E.'.3XfXUXUXUXUXUXUXUXUXUXUXUXUXUXUXUXUXUXUXUXUXUXUXUXUXUXUXUXUXUXUX",
"UXUXUXUXUXUXUXUX4X~.a.:.c < : : g >.y.h.OXhXUXUXUXUXUXUXUXUXUXUXUXUXUXUXUXUXUXUXgX XQ.a.y.7.q.N.'.4XbXUXUXUXUXUXUXUXUXUXUXUXUXUXUXUXUXUXUXUXUXUXUXUXUXUXUXUXUXUX",
"UXUXUXUXUXUXUXUXqX=XG.;.c < O O 2 Q t.W.(.cXUXUXUXUXUXUXUXUXUXUXUXUXUXUXUXUXUXUXmX;XI.i.;.X.X.0.L.}.7XwXnXUXUXUXUXUXUXUXUXUXUXUXUXUXUXUXUXUXUXUXUXUXLXUXUXUXUXUX",
"UXUXUXUXUXUXUXUXzX;XH.7.c : O . 3 I b.W.(.cXUXUXUXUXUXUXUXUXUXUXUXUXUXUXUXUXUXUXNX1XI.s.:.f d V ,.v._.|.@XzXnXUXUXUXUXUXUXUXUXUXUXUXUXUXUXUXUXUXaX2X2XpXUXUXUXUX",
"UXUXUXUXUXUXUXUXzX=XG.6.c : . . 3 I n.!.=XzXZXPXPXPXPXUXUXUXUXUXUXUXUXUXUXUXUXUXmX1XU.K.o.x : > h Y 0.D.J.|.@XyXfXjXKXPXUXUXUXUXUXUXUXUXkXBXiX3X%XR.E.3XUXUXUXUX",
"UXUXUXUXUXUXUXUXxX=XG.;.c : .   w F z./.^.OX<X4X6X5XwX6XaX5XwXgXfXfXbXnXMXbXnXvX1X1X:XI.%.x + . @ 4 M #.8.t.B.].XX2X3XyXuX6X6X6X6XyXyXyXiX#X%XR.Y.S.Y.4XUXUXUXUX",
"UXUXUXUXUXUXUXUXxX;XG.7.c : .   o k >.t.t.Y.g.D.T.T.).).).{._._._.'.}.}..X X X;X:XI.*XS.#.5 @     O : 5 M Z *.l.k.x.N.N.R._._.R._._.{.{.).v.q.t.u.p.W.0XUXUXUXUX",
"UXUXUXUXUXUXUXUXvX;XJ.e.B < .   . % n Z Y #.>.#.@.$.$.=.=.2.=.8.8.8.0.0.0.0.c.w.S.m.c.1.M < O .     . O : 2 0 b D I #.>.1.8.8.8.8.2.2.1.&.#.P %.e.S.H.0XUXUXUXUX",
"UXUXUXUXUXUXUXUXnX>XJ.e.c < . .   . + < 4 5 5 0 h g g j k l l l l m z m z J B B B K M h , O .           . . o @ > > 4 0 l z m z z k k k 9 1 x V 5.S.~.0XUXUXUXUX",
"UXUXUXUXUXUXUXUXbX>XJ.w.C < O .     . . O . O O O O O O O O $ O & @ @ @ & + # # % + @ . . .     X             .   . . . & @ @ $ O & & . . . + l 1.S.~.qXUXUXUXUX",
"UXUXUXUXUXUXUXUXsX.XJ.w.X.f < < : # # @ @ + @ @ & @ $ @ @ & . . & O O o O o . & O X O X o o . o o   . .         .                   X X     O h @.D.~.0XUXUXUXUX",
"UXUXUXUXUXUXUXUXsX}.S.S.:.X.K c M M M M m b z m b b b b b n n n h 0 k 0 0 0 0 q 8 8 8 q q q 6 3 6 2 2 3 6 7 3 3 3 ; ; % % % @ @ % $ o $ $ $ # l @.D.~.0XUXUXUXUX",
"UXUXUXUXUXUXUXUXfX+XL.S.m.M.M.x.x.k.9.9.4.4.3.4.3.k.3.3.3.3.l.3.<.<.<.>.>.>.>.*.>.>.Q Q Q Q Q Q Y Q Z Y Q Q I I F F F F N N N M m S S S S l z L 8.u.!.0XUXUXUXUX",
"UXUXUXUXUXUXUXUXUXaX9X.X.X9X9X[.2XoXoXoXXX[.oX'.[.[.[.[.].[.{.`.{.`.`.`.).T.E.E.E.E._.E.N.N.t.t.N.t.b.b.t.b.t.t.t.t.r.r.t.r.q.0.0.0.9.9.k.8.8.q.s.u.H.@XUXUXUXUX",
"UXUXUXUXUXUXUXUXUXIXKXMXMXJXMXgXgXfXfXfXnXfXnXsXbXbXwXbXsX5X2XoX6X6XsXwX6X0XzX0XrXrXrXiXrXrXrXrXrXAX<X<X>X@X@X@X#X@X@X@X+XOX.X%X}.}.}.}.'._._.!.!.Y.!.7XUXUXUXUX",
"UXUXUXUXUXUXUXUXGXGXHXUXUXUXUXUXUXUXUXUXUXUXUXUXUXUXUXUXUXpXA.Z.5XUXUXUXUXUXUXUXpXV.V.Z.hXUXUXCXCXCXZXmXmXNXNXMXNXBXNXMXnXbXnXnXnXfXfXcXsXcXbXuX6X5X5XfXUXUXUXUX",
"UXUXUXUXUXUXUXUX_ ` [ UXUXUXUXUXUXUXUXUXUXUXUXUXUXUXUXUXUXC.] l.UXUXUXUXUXUXUXUXUX] W ] UXUXUXUXUXUXUXUXUXUXUXUXUXUXUXUXUXUXUXUXUXUXUXUXUXUXUXUXUXUXUXUXUXUXUXUX",
"UXUXUXUXUXUXUXUX^ y ' UXUXUXUXUXUXUXUXUXUXUXUXUXUXUXUXUXUXUX' W UXUXUXUXUXUXUXUXUXW e i UXUXUXUXUXUXUXUXUXUXUXUXUXUXUXUXUXUXUXUXUXUXUXUXUXUXUXUXUXUXUXUXUXUXUXUX",
"UXUXUXUXUXUXUXUX! t ( UXUXUXUXUXUXUXUXUXUXUXUXUXUXUXUXUXUX_ E W _ UXUXUXUXUXUXUXUX) u ( { UXUXUXUXUXUXUXUXUXUXUXUXUXUXUXUXUXUXUXUXUXUXUXUXUXUXUXUXUXUXUXUXUXUXUX",
"UXUXUXUXUXUXUXUX! t ~ UXUXUXUXUXUXUXUXUXUXUXUXUXUXUXUXUXUX) p p ' UXUXUXUXUXUXUXUXUXUX} UXUXUXUXUXUXUXUXUXUXUXUXUXUXUXUXUXUXUXUXUXUXUXUXUXUXUXUXUXUXUXUXUXUXUXUX",
"UXUXUXUXUXUXUXUXu e i UXUXUXUXUXUXUXUXUXUXUXUXUXUXUXUXUX[ E = a ^ UXUXUXUXUXUXUXUXUXUXUXUXUXUXUXUXUXUXUXUXUXUXUXUXUXUXUXUXUXUXUXUXUXUXUXUXUXUXUXUXUXUXUXUXUXUXUX",
"UXUXUXUXUXUXUXUXu a y UXUXUXUXUXUXUXUXUXUXUXUXUXUXUXDX{ W a o o r [ DXFXFXUXUXUXUXUXUXUXUXUXUXUXUXUXUXUXUXUXUXUXUXUXUXUXUXUXUXUXUXUXUXUXUXUXUXUXUXUXUXUXUXUXUXUX",
"UXUXUXUXUXUXUXUXG a r UXUXUXUXUXUXUXUXUXUXUXUXUXUXUXDX[ y *     e ) | FXFXUXUXUXUXUXUXUXUXUXUXUXUXUXUXUXUXUXUXUXUXUXUXUXUXUXUXUXUXUXUXUXUXUXUXUXUXUXUXUXUXUXUXUX",
"UXUXUXUXUXUXUXUX^ a t ) UXUXUXUXUXUXUXUXUXUXUXUXUXUXUX{ ^ = o * y { UXUXUXUXUXUXUXUXUXUXUXUXUXUXUXUXUXUXUXUXUXUXUXUXUXUXUXUXUXUXUXUXUX) ) ) ) ) UXUXUXUXUXUXUXUX",
"UXUXUXUXUXUXUXUX^ e t ` UXUXUXUXUXUXUXUXUXUXUXUXUXUXUXUX` p * t ) UXUXUXUXUXUXUXUXUXUXUXUXUXUXUXUXUXUXUXUXUX) / ( ) UXUXUXUXUXUXUX^ y e - * = e p ^ ) UXUXUXUXUX",
"UXUXUXUXUXUXUXUX( e e ) UXUXUXUXUXUXUXUXUXUX_ ) _ UXUXUXUXu r E UXUXUXUXUXUXUXUXUXUXUXUXUXUXUXUXUXUXUXUXUX) u r a p ) UXUXUXUX/ i t 7 a = = - = 7 t y ^ [ UXUXUX",
"UXUXUXUXUXUXUXUX) r e / UXUXUXUXUXUXUXUXUX^ p 7 r / UXUXUX/ ^ ) UXUXUXUXUXUXUXUXUXUX} | UXUX{ [ UXUXUXUX) / ^ u 7 a ( UXUXUXE r r y ^ ^ ^ ^ ^ ^ ^ y e e / UXUXUX",
"UXUXUXUXUXUXUXUX_ y a ^ UXUXUXUXUXUXUX/ u t - o $ r ) UXUX_ _ { UXUXUXUXUXUXUXUXUX{ / [ UXUXu ^ UXUXUX) / ) _ ) y e / UXUXu e r ^ UXUXUXUXUXUXUXUX_ y = u UXUXUX",
"UXUXUXUXUXUXUXUXUXy = ^ UXUXUXUXUXUXu p t y i e o a ^ UXUX{ { UXUXUXUXUXUXUXUXUXUX/ u ) UXUXe t / ) ( ^ ' UXUX) y y { UXu = t ^ UXUXUXUXUXUXUXUXUXUXu a u UXUXUX",
"UXUXUXUXUXUXUXUXUXu = u UXUXUXUX) u e t G [ _ p o a / UXUX} } UXUXUXUXUXUXUXUXUXUX^ y / UX) e * e p y ^ UXUXUX/ r / | ) e = G UXUXUXUXUXUXUXUXUXUX' p t / UXUXUX",
"UXUXUXUXUXUXUXUXUX! e y UXUXUX) i t y )  .{ ^ = o a ' UXUX} | UXUXUXUXUXUXUXUXUX[ y y ) UX` e o o - y ) UXUXUX^ u [ | ! * t UXUXUXUXUXUXUXUXUXUXUXy r u UXUXUXUX",
"UXUXUXUXUXUXUXUXUX^ e y UXUX/ y = y _ } _ y = o X e ) UXUX[ [ UXUXUXUXUXUXUXUXUX_ p i UXUX) e o o t ( UXUXUX[ ^ ^ | } r * ^ UXUXUXUXUXUXUXUXUX/ y e u ) UXUXUXUX",
"UXUXUXUXUXUXUXUXUX^ t y UXUXu * $ y ) ^ r e t e - t ) UXUX/ ^ / UXUXUX[ } UXUXUX) y ^ UXUX` e o 7 ^ UXUXUXUX` i ^ DX} e e ) UXUXUXUXUXUXUXUX^ r t y / UXUXUXUXUX",
"UXUXUXUXUXUXUXUXUX^ y ^ UX[ t o o a r r p u / ) y y ' UXUX^ t r ^ ^ u ^ { UXUXUX[ ! ) UXUX) e = u UXUXUXUXUX) p u | } y = u UXUXUXUX_ ) ^ y r r u / UXUXUXUXUXUX",
"UXUXUXUXUXUXUXUXUX' u ) UX{ r * * e y ! ' UXUXUX^ u / UXUX/ e o - e r ^ UXUXUXUX{ ` { UXUX[ ^ E ` UXUXUXUXUX) y u { | ^ e e u ^ / ^ ^ u y y u ^ UXUXUXUXUXUXUXUX",
"UXUXUXUXUXUXUXUXUX[ ) [ UXUX/ u u / ) UXUXUXUXUX_ / _ UXUX` y * = t ^ UXUXUXUXUXUX| | UXUXUX{ { UXUXUXUXUXUXUX/ ^ { UXUX^ y r y u u ^ ^ ^ ) UXUXUXUXUXUXUXUXUXUX",
"UXUXUXUXUXUXUXUXUXUX} UXUXUXUXUXUXUXUXUXUXUXUXUX{ { UXUXUXUX) ^ ^ ) UXUXUXUXUXUXUXUXUXUXUXUXUXUXUXUXUXUXUXUXUX{ { UXUXUXUX) / / ) _ _ UXUXUXUXUXUXUXUXUXUXUXUXUX",
"UXUXUXUXUXUXUXUXUXUXUXUXUXUXUXUXUXUXUXUXUXUXUXUXUXUXUXUXUXUXUXUXUXUXUXUXUXUXUXUXUXUXUXUXUXUXUXUXUXUXUXUXUXUXUXUXUXUXUXUXUXUXUXUXUXUXUXUXUXUXUXUXUXUXUXUXUXUXUXUX"
};
