/* XPM */
static char *_madrid[] = {
/* columns rows colors chars-per-pixel */
"80 80 59 1",
"  c #722F82",
". c #763585",
"X c #783887",
"o c #793988",
"O c #7C3D8A",
"+ c #7F428D",
"@ c #81458F",
"# c #834891",
"$ c #864C94",
"% c #885096",
"& c #8A5297",
"* c #8C5599",
"= c #8F599B",
"- c #915D9E",
"; c #9360A0",
": c #9765A2",
"> c #9867A4",
", c #9B6CA6",
"< c #9D6FA8",
"1 c #9F71AA",
"2 c #A276AD",
"3 c #A57AAF",
"4 c #A77DB1",
"5 c #A980B2",
"6 c #AC85B5",
"7 c #AF88B8",
"8 c #B08AB9",
"9 c #B38FBB",
"0 c #B693BE",
"q c #B896C0",
"w c #B997C1",
"e c #BC9CC3",
"r c #BFA1C6",
"t c #C0A3C7",
"y c #C2A5C9",
"u c #C6ABCC",
"i c #C9AFCF",
"p c #CAB0D0",
"a c #CCB4D2",
"s c #D0B9D5",
"d c #D2BCD7",
"f c #D4BFD9",
"g c #D6C3DB",
"h c #D9C6DD",
"j c #DBCADF",
"k c #DECEE2",
"l c #DFD1E3",
"z c #E2D5E6",
"x c #E5D8E8",
"c c #E7DBE9",
"v c #E9DFEC",
"b c #ECE3EE",
"n c #EFE8F1",
"m c #F0E9F2",
"M c #F3EDF4",
"N c #F6F2F7",
"B c #F8F4F9",
"V c #F9F7FA",
"C c #FFFFFF",
/* pixels */
"CCCCCCCCCCCCCCCCCCCCCCCCCCCCCCCCCCCCCCCCCCCCCCCCCCCCCCCCCCCCCCCCCCvge24zCCCCCCCC",
"CCCCCCCCCCCCCCCCCCCCCCCCCCCCCCCCCCCCCCCCCCCCCCCCCCCCCCCCCCCCCCCCVe*O   0CCCCCCCC",
"CCCCCCCCCCCCCCCCCCCCCCCCCCCCCCCCCCCCCCCCCCCCCCCCCCCCCCCCCVvMCCCCgX     9CCCCCCCC",
"CCCCCCCCCCCCCCCCCCCCCCCCCCCCCCCCCCCCCCCCCCCCCCCCCCCCCCNhw1*3MCCCt      9CCCCCCCC",
"CCCCCCCCCCCCCCCCCCCCCCCCCCCCCCCCCCCCCCCCCCCCCCCCCCCCCC9o.  XkCCCr      9CCCCCCCC",
"CCCCCCCCCCCCCCCCCCCCCCCCCCCCCCCCCCCCCCCCCCCCCVba7yVCCb$    XhCCCr      9CCCCCCCC",
"CCCCCCCCCCCCCCCCCCCCCCCCCCCCCCCCCCCCCCCCCCCCm3+X OvCCc@    XhCCCr      9CCCCCCCC",
"CCCCCCCCCCCCCCCCCCCCCCCCCCCCCCCCCCCCCNzujCCCi.   XcCCc@    XhCCCr      9CCCCCCCC",
"CCCCCCCCCCCCCCCCCCCCCCCCCCCCCCCCCCCCa=O.=mCC0    XcCCc@    XhCCCr      0CCCCCCCC",
"CCCCCCCCCCCCCCCCCCCCCCCCCCCCCNkthCCM-   %bCC0    XcCCc@    XhCCCt     +sCCCCCCCC",
"CCCCCCCCCCCCCCCCCCCCCCCCCCCCl-o.-VCb&   %bCC0    XcCCc@    XkCCCj#.$:3sVCCCCCCCC",
"CCCCCCCCCCCCCCCCCCCCCVke6jCC9   &VCb&   %bCC0    XcCCc@    *mCCCVkfzMCCCCCCCCCCC",
"CCCCCCCCCCCCCCCCVbMCCa+. 9CC6   *VCb&   %bCC0    ocCCN,O#-3jCCCCCCCCCCCCCCCCCCCC",
"CCCCCCCCCCCCCCCd1=9VC9   7CC6   *VCb&   %bCC0   .:MCCCbjznCCCCCCCCCCCCCCCCCCCCCC",
"CCCCCCCCCMfrkCM&  :VC9   7CC6   *VCb&   %nCCj--10cCCCCCCCCCCCCNbkdssszCCCCCCCCCC",
"CCCCCCCCC4X 6CnO  >VC9   7CC6   &VCM= .O6VCCCbnVCCCCCCCVNMkae4>*@.   $uCCCCCCCCC",
"CCCCCCCCCO  5VnO  >VC9   6CC6   :VCCa6uhNCCCCCCCCCmchae6-#OX.         *cCCCCCCCC",
"CCCCCCCCC#  5VnO  >VC9   9CCu#-6kCCCCCCCCCCVNbju92:&O                 .aCCCCCCCC",
"CCCCCCCCC$  5VnO  :VCe.@:kCCVMNVCCCCCVbzgu01=+O.                       0CCCCCCCC",
"CCCCCCCCC&  5VM#.o0CCbfkbCCCCCVVMcgt6<-$o                              9CCCCCCCC",
"CCCCCCCCC& .eCVayhNCCCCCCVvkdy6,$Oo.                                   9CCCCCCCC",
"CCCCCCCCCsrsMCCCCCVNMzae4,*@.       .O+++OX                            9CCCCCCCC",
"CCCCCCCCCCCCCMvhaw6:#OX.         .=6ikbMMcs8=.                         9CCCCCCCC",
"CCCCCCCCCVze3:&O               .,sbCCCCCCCCCbe$                        9CCCCCCCC",
"CCCCCCCCCy@.                  &uMCCCCCCCCCCCCCl>.                      9CCCCCCCC",
"CCCCCCCCC=                  .;kCCCCCCCCCCCCCCCCb:                      9CCCCCCCC",
"CCCCCCCCCo                  >bCCCCCCCCCCCCCCCCCCk@                     9CCCCCCCC",
"CCCCCCCCC                  &kCCCCCCCVVVCCCCCCCCCV4                     9CCCCCCCC",
"CCCCCCCCC                 .pCCCCCCbu4<6gVCCCCCCCCiX                    9CCCCCCCC",
"CCCCCCCCC                 :MCCCCCk:.   OuCCCCCCCCgO                    9CCCCCCCC",
"CCCCCCCCC                .tCCCCCb*      *MCCCCCCCgO                    9CCCCCCCC",
"CCCCCCCCC                okCCCCCu.      $bCCCCCCCdO                    9CCCCCCCC",
"CCCCCCCCC                *bCCCCCe.      :NCCCCCCCe.                    9CCCCCCCC",
"CCCCCCCCC                *bCCCCCkO     #sCCCCCCCM,                     9CCCCCCCC",
"CCCCCCCCC                @zCCCCCBi*. @<hCCCCCCCCaX                     9CCCCCCCC",
"CCCCCCCCC                .uCCCCCCCvgskNCCCCCCCCb-                      9CCCCCCCC",
"CCCCCCCCC                 :nCCCCCCCCCCCCCCCCCCv2                       9CCCCCCCC",
"CCCCCCCCC                 .0VCCCCCCCCCCCCCCCCCe.                       9CCCCCCCC",
"CCCCCCCCC                  #zCCCCCCCCCCCCCCCCCmt#                      9CCCCCCCC",
"CCCCCCCCC                 #aVCCCCCCCCCCCCCCCCCCCg=                     9CCCCCCCC",
"CCCCCCCCC                +sCCCCCCCCCCCCCCCCCCCCCCz=                    9CCCCCCCC",
"CCCCCCCCC               .wVCCCCCCVnkkkvVCCCCCCCCCCh#                   9CCCCCCCC",
"CCCCCCCCC               -MCCCCCCk6#OOO+>iNCCCCCCCCCe.                  9CCCCCCCC",
"CCCCCCCCC              .yCCCCCCu#       X4nCCCCCCCCn&                  9CCCCCCCC",
"CCCCCCCCC              #zCCCCCgO         .4VCCCCCCCC9                  9CCCCCCCC",
"CCCCCCCCC              >mCCCCC1           OdCCCCCCCCf.                 9CCCCCCCC",
"CCCCCCCCC              1VCCCCn*            0CCCCCCCCzo                 9CCCCCCCC",
"CCCCCCCCC              <NCCCCM=            9CCCCCCCCc@                 9CCCCCCCC",
"CCCCCCCCC              =bCCCCC6           .uCCCCCCCCko                 9CCCCCCCC",
"CCCCCCCCC              ohCCCCCz$          =bCCCCCCCCa                  9CCCCCCCC",
"CCCCCCCCC               6VCCCCCg*       .-kCCCCCCCCC4                  9CCCCCCCC",
"CCCCCCCCC               @jCCCCCCc9%OXXO*0bCCCCCCCCCc$                  9CCCCCCCC",
"CCCCCCCCC                :bCCCCCCCMjaakMCCCCCCCCCCB3.                  9CCCCCCCC",
"CCCCCCCCC                .4MCCCCCCCCCCCCCCCCCCCCCBwX                   9CCCCCCCC",
"CCCCCCCCC.                .2vCCCCCCCCCCCCCCCCCCCNqo                    9CCCCCCCC",
"CCCCCCCCC#                  -dVCCCCCCCCCCCCCCCCc3X                     9CCCCCCCC",
"CCCCCCCCC6X                  O3gMCCCCCCCCCCCCz0$                       9CCCCCCCC",
"CCCCCCCCCMs9<*+O..             O>qhbNBVVNMcp4$.                        9CCCCCCCC",
"CCCCCCCCCCCCBMbhp04,=#X          .o+=>33:&O.                           9CCCCCCCC",
"CCCCCCCCChikBCCCCCCBbzgiw3:$Oo.                                        9CCCCCCCC",
"CCCCCCCCC-.OtCCgujNCCCCCCVNMzdy92:&+.                                  9CCCCCCCC",
"CCCCCCCCC&  4VM$ O0VCbscMCCCCCCCCMckdy91=+OX.                          0CCCCCCCC",
"CCCCCCCCC$  5VnO  >VCwoO=jCCMzvBCCCCCCCVNbkaw6<-$o                     yCCCCCCCC",
"CCCCCCCCC$  5VnO  >VC9   9CCr#*,dCCCCBVCCCCCCCVnzgae5>%Oo.            OgCCCCCCCC",
"CCCCCCCCCO  5VnO  >VC9   7CC6   -VCCe<7yxCCCCCCCCCCCVNMcgu93>*@.     .4NCCCCCCCC",
"CCCCCCCCC2. 6VnO  >VC9   7CC6   &VCM&   >NCCBgsvmCCCCCCCCCCCMbkfu0446unCCCCCCCCC",
"CCCCCCCCCbi8gCM&  :VC9   7CC6   *VCb&   $bCCaooO&iVCCCCCCCCCCCCCCCVVVCCCCCCCCCCC",
"CCCCCCCCCCCCCCVa<$6VC9   7CC6   *VCb&   %bCC0   .$bCCCu30izBCCCCCCCCCCCCCCCCCCCC",
"CCCCCCCCCCCCCCCCVmVCCp@  9CC6   *VCb&   %bCC0    XcCCb$ ..O6BCCCCVVCCCCCCCCCCCCC",
"CCCCCCCCCCCCCCCCCCCCCVkiexCC0   &VCb&   %bCC0    XcCCc@    OzCCCb4,4wabCCCCCCCCC",
"CCCCCCCCCCCCCCCCCCCCCCCCCCCCc<&X>VCb&   %bCC0    XcCCc@    XhCCCi   .X=zCCCCCCCC",
"CCCCCCCCCCCCCCCCCCCCCCCCCCCCCVcgxCCV1   $bCC0    XcCCc@    XhCCCe      wCCCCCCCC",
"CCCCCCCCCCCCCCCCCCCCCCCCCCCCCCCCCCCCz7>$,MCCw    XcCCc@    XhCCCt      9CCCCCCCC",
"CCCCCCCCCCCCCCCCCCCCCCCCCCCCCCCCCCCCCCNxbCCCgO   .cCCc@    XhCCCr      9CCCCCCCC",
"CCCCCCCCCCCCCCCCCCCCCCCCCCCCCCCCCCCCCCCCCCCCVa2-@:MCCc@    XhCCCr      9CCCCCCCC",
"CCCCCCCCCCCCCCCCCCCCCCCCCCCCCCCCCCCCCCCCCCCCCCCnkbCCCN-    XhCCCr      9CCCCCCCC",
"CCCCCCCCCCCCCCCCCCCCCCCCCCCCCCCCCCCCCCCCCCCCCCCCCCCCCCh<%X #bCCCr      9CCCCCCCC",
"CCCCCCCCCCCCCCCCCCCCCCCCCCCCCCCCCCCCCCCCCCCCCCCCCCCCCCCBxgugVCCCa      9CCCCCCCC",
"CCCCCCCCCCCCCCCCCCCCCCCCCCCCCCCCCCCCCCCCCCCCCCCCCCCCCCCCCCCCCCCCb1.    0CCCCCCCC",
"CCCCCCCCCCCCCCCCCCCCCCCCCCCCCCCCCCCCCCCCCCCCCCCCCCCCCCCCCCCCCCCCCba9:oOaCCCCCCCC"
};
