/* XPM */
static char *_tv[] = {
/* columns rows colors chars-per-pixel */
"80 80 64 1",
"D c None",
"  c #D6241C",
". c #CC241D",
"X c #CE2D27",
"o c #D3433B",
"O c #D35652",
"+ c #DA716C",
"@ c #D46159",
"# c #075EB1",
"$ c #1363AC",
"% c #0865BA",
"& c #1366B5",
"* c #136AB5",
"= c #246CB9",
"- c #2774BB",
"; c #2E70B2",
": c #0366C2",
"> c #186EC0",
", c #2877C2",
"< c #367BC2",
"1 c #286EC1",
"2 c #487CBD",
"3 c #3781BB",
"4 c #3885C6",
"5 c #358BC8",
"6 c #4788C6",
"7 c #4992C9",
"8 c #5794CB",
"9 c #5794CE",
"0 c #669ACD",
"q c #689DD2",
"w c #7297C8",
"e c #69A2D3",
"r c #76A7D4",
"t c #79ACD4",
"y c #68AAD8",
"u c #5285BE",
"i c #EAAFAC",
"p c #E2938E",
"a c #87B4DA",
"s c #97B9DA",
"d c #85ABD3",
"f c #91BBE1",
"g c #A3BCDC",
"h c #97C5E2",
"j c #94D1E3",
"k c #A6CAE4",
"l c #AAD2E8",
"z c #B9D6EA",
"x c #B3CBE5",
"c c #BBE4F3",
"v c #A4C4DD",
"b c #F1D2D0",
"n c #C5DAEA",
"m c #D0DFEE",
"M c #CAE5F2",
"N c #D7E9F3",
"B c #D4E8F1",
"V c #E9F5F7",
"C c #F8FBFA",
"Z c #EFECED",
"A c #F4E2DD",
"S c #EDC5BF",
"F c #E0857A",
/* pixels */
"D;$&>%%%&&&>%%&%%*%*%**:*%%%%&>&%&&%*%%%*%%%%%*%5%%%%%*:%*%%%%%%::::>:%*:5%%**$$",
"D$$&&&:%%::&%::&%%%%%:%%:>>%%%%:%::&:%%>:*:5%%:%%%%%%::*%:%%:*%5::>:::%%%%%%%%$$",
"D=&%%::%::&:%%%:%:%%:%>::%:%:::%:%&:%%::%:::%:%%%%:%:%%:5%:::%%:5::::%>::%%%%%$$",
"D$&::::%:::::::%%:::%:%:%%:%%:%:::::::%::::::%::::::%:::%::%::%::::::::%::%%%%$$",
"D&&::::::::::%::%::%%%%%%%%%%%::%::::::::::::::::::::::::::::::::::::::::%::%%*$",
"D&%%:::::::::::%::%%%%%%%%%*#%%%::::::::::::::::::5:::::::::::::::::::::::%:::#$",
"D&&:::::::::::%:%%%%%&;--3**%%%%%::::::::::::::::::::::::::::::::::::::::::::%%$",
"D&%%::::::::%:%%%%%,70wtttt075&#%%:::::::::::::::::::::::::::::::::::::::::::%%*",
"D&%%:::::::%::%#%-0akzmmMMMzla83%%%%::::::::::::::::::::::::::::::::::::::::%%%#",
"D&%:::::::::%%%%<txmVCCCCCCCVVza6*%%:::%:::::::::::::::::::::::::::::::::::::%#$",
"D&%:::::::::%%%6hMCCCCCCCCCCCCZZk8*%:%%::%:::::%::::::::::::::::::::::::::::%%%$",
"D&#%::::::::%%4gNVCCCCCCCCCCCCCCNz8%%%::::::::::::::::::::::::::::::::::::::::%#",
"D$%%:::::::%%,fNCCCCCCCCCCCCCCCCCVv6%%%::%:::::::::::::::::::::::::::::::::::%%*",
"D&%%:::::::%*eNCCCCCCCCCCCCCCCCCCCVs,%::::%::::::::::::::::::::::::::::::::::%%*",
"D&%%:::::%:%6zVCCCCCCCCCCCCCCCCCCCVme&::::%:%::::::::::::::::5:::::::::::::5:%#*",
"D$%:::::::%=sVCCCCCCCCCCCCCCCCCCCCCCx<>::::%::::::::::::::::::::::::::::::::%%%$",
"D&%%::::::%6mCCCCCCCCCCCCCCCCCCCCCCCNr:::%:%#:::::::::::::::::::::::::::::5:::%*",
"D$%%::::::>tVCCCCCCCCCCCAACCCCCCCCCCVf1::::::::::::::::::5:::::::::::::::::::%%#",
"D$%%::::::,lVCCCCCCCCZbiiiSAZCCCCCCCCm7::::%::#::::::::::::::::::::::::::::::%*#",
"D&%%::::::6MCCCCCCCCCbp@O@FiACCCCCCCCNe:%::%::::::::::::::::::::::::::::::::%%%%",
"D&>::::::%eNCCCCCCCCApoXXXX@iCCCCCCCCVt>%:::::::::::::::::::::::::::::::::::::**",
"D&:::::::>tVCCCCCCCZioX.X .X+bCCCCCCCCl>%:::::::::::::::::::::::::::::::::::::::",
"D&>::::::&sCCCCCCCCb+XX.    OiCCCCCCCCz,#%%:::::::::::::::::::::::::::::::::::>>",
"D&:::::::*sCCCCCCCZioXX.     +ZCCCCCCCz1#::::::::::::::::::5::::::::::::::::::::",
"D&&::::::=gCCCCCCCZiXXX      +bCCCCCCCn<:1::::::::::::::::::::::::::::::::::%%%$",
"D$&:::::%=sCCCCCCCZpXX       @bCCCCCCCn<:::::::::::::::::::::::::::::::5:::::%%#",
"D&%:::::#=sCCCCCCCZpXX       @bCCCCCCCz<:::::::::::::::::::::::::::::::::::::%%$",
"D&&%:::%%=sCCCCCCCZiX        @bCCCCCCCz<:::::::::::::::::::::::::::::::::::::%%$",
"D&%%::::%&aCCCCCCCCiXX      .+ACCCCCCCl,:::::::::::::::::::::::::::::::::::::%%%",
"D&%%::::%%rVCCCCCCCb@.      XpZCCCCCCVh>:::::::::::::::::::::::::::::::::::::%%$",
"D$%%:::::%9NVCCCCCCApXX     ObZCCCCCCVr>::::::::::::::::::::::::::::::::::::::%$",
"D&%%::::::<zCCCCCCCZb@XX   OpZCCCCCCCM9%:::::::::::::::::::::::::::::::::::::%%#",
"D$#%::::::>fVCCCCCCCAS+oXoOpbCCCCCCCCz3%:::::::::::::::::::::::::::::::::::::%%$",
"D&%%::::::%0BCCCCCCCCASpFFibZCCCCCCCVt*%:::::::::::::::::::::::::::::::::::::%%&",
"D&%%#::::%%,lVCCCCCZCCAAAAACCCCCCCCCn7%::::::::::::::::::::::::::::::::::::::%%#",
"D$%#::::::%*rNVCCCCCCCCACCCCCCCCCCCZa*%%:::::::::>::::::::::::::::::::::::::::%#",
"D$%%%::::%%%;gVCCCCZZCCCCCCZCCCCCCZn6%%:::::::%%>1>:::::::::::::::::::::::::::&&",
"D*%%::::::%%&wNCCCCCCCCCCCCCCCCCCCVd;%%:::::::%%<q71%%::::::::::::::::::::::::#&",
"D$*%%:::::%%;wNCZCCCCCCCCCCCCCCCCCVs;%%::::::%%5fnl9&%:::::::::::::::::::::::>:#",
"D$%%::::::%%8nVCCCCCCCCCCCCCCCCCCCCmw1%::::::%5aNVNk<%:::::::::::::::::::::::::&",
"D*%%:::::%%4lVCCCCCCCCCCCCCCCCCCCCCVz8&:::::%%5jCVVM6%%:::::::::::::::::::::%%*#",
"D&%%::::::1sNCVCCCCCCCCCCVCCCCCCCCCCVk<:::::%#5cCCCV8%%::::::::::::::::::::::%%$",
"D&%%::::%*0MCCCCCCCCCCZNNVVCCCCCCCCCCNr*::::%#5cCVCVq&::::::::::::::::::%::::%%#",
"D&&%:::%%-hVCCCCCZCCCBjatthnVCCCCCCCCCx3%:::*#7MCCVC0%%%::::::::::%:::%::%%%:%%$",
"D&%::::%:9BCCCCCCCCCBt75-35tzVCCCCCCCCNr>::%%#7MCCCVq&::%::>11::%::::%:>**%>%%%%",
"D&&%:::%>tVCCCCCCCCVa3%%%%%*emCCCCCCCCCs1%:%%$8BCCCVr>&:%::2qq<:::::::>686*%%%%$",
"D&%%::%#>lCCCCCCCCVk4%%%%%%#-sVCCCCCCCCn<%%%-3dVCZCCg96>%%1fnnf1:::::&5hzh9>%%%$",
"D&%#::::<MCCCCCCCCZe&%%%%%%%$7nCCCCCCCCN9%%*8jnZCCCCmxf9&#9mZZm9&%%%:>tVVVj,#%%&",
"D&&%%::%7VCCCCCCCCn<#:%::%:%#3jVCCCCCCCVy*#6lVZCCCCCVVVl3*aVCCVa1%:%%<zVVCc4#%%$",
"D&%:::%:qVCCCCCCCCg=%:%::::%%*0BCCCCCCCCa$$0NCCCCCCCCCVN8;aVVVVl1::%&9NCCVc5%%&#",
"D&%%:::*aVCCCCCCCVd&&:::::%%%#uBCCCCCCCCv;#rVCCCCCCCCZVV0$aVCCCB2:%%&wVCCVc5#%%$",
"D&%%::::fVCCCCCCCVr#::::::::*$umCCCCCCCCv;%9BVVCCCCCCCVM8$dZCCZV9&:%>aVCCCl,%%#&",
"D&%%:::>hCCCCCCCCVr#::::::::%%uBCCCCCCCCx3#3gNCCCCCCCNMs<$9BCCVVq>:%,lCVVCa=%%#$",
"D$%%::%>jCCCCCCCCVr#>>:::::%%%uBCCCCCCCCx3%%6azVCCCZnht3&%<lVCCVf1#%4MCCCVq%%%%&",
"D&%%::%>jZCCCCCCCCd1::::::::%*8BCCCCCCCCx,%%&;rNCCCCs53*%%=hVCCCn<&&6NCCVm6%%%%#",
"D&&%%::%hVCCCCCCCZg1:::::::%%*yVCCCCCCCCx,%%%#7MCCCC0$#%%::eNCCVm6$$rVCCCk=%%%%#",
"D&%%:::>aVCCCCCCCCm6&:::::::%-hCCCCCCCCCg1%%&#6MCCCC0%%%:::2nCCCVe*=vVCVVa%%:%%%",
"D$%::::&rCCCCCCCCCVa1%::::%#&8MCCCCCCCCCs=:%##7MCCVCe%%:%::1kCCVVa*;nCCCN9%%:%%$",
"D&%::::%0ZCCCCCCCCCn7>%:&%%&;kVCCCCCCCCCa>%%%#7MCCCCe%:%::>&aVCCCk;uBCVCM4%::%%&",
"D&#%:%%%2NVCCCCCCCCVk6&#&#&6aNCCCCCCCCVVe%%%&#7MCCCV0%%::::%9NCVCn20NCCVh>%::%%#",
"D&&%%::%,zCCCCCCCCCCNg09699gNCCCCCCCCCCM9#%%:#7MCCCCq%:%>::%<zCCCNwsNCCVr>%:::#$",
"D&%%::%%=fVCCCCCCCCCCNnkkkzNCCCCCCCCCCCk<%:%:%7MCCCCq%%:::::>fVCCVvnVCVB6::::%%$",
"D&%%:::%*qNCCCCCCCCCCCCVVVCCCCCCCCCCCVVa&%:%>#7NCVVCq%%::::%%qNCCCBNCCCz-%%::%%&",
"D&&:%::%%<lCCCCCCCCCCCCCCCCCCCCCCCCCCCm9%%%::#7NCCCCq%%%::::%7MCCCZVCVVd=#:::%#$",
"D&%%%%:%#&tVCCCCCCCCCCCCCCCCCCCCCCCVCVh-%%:::%7MCCVCq%::::%%%1kCCCCCZCN8%%::%%%$",
"D$%%::::%%7nVCCCCCCCCCCCCCCCCCCCCCCCCM9%%%:::#7MCCCCq:%:::::>&dVCCCCCCn4%::::%%$",
"D&&%:::::%=rNVCCCCCCCCCCCCCCCCCCCCCCVf,%&::::%5MCCCVq::::::::#9NVCCCCCg-:::::%#$",
"D*&%%%::::#<kVCVCCCCCCCCCCCCCCCCCCCVz7%%:::::#7MCCCCq%::::::%&<nCCCCZVa&::::::%&",
"D$%%:::::%#%9xVCCCCCCCCCCCCCCCCCCCVMt*%%::::>%7MCCCV0%::::::%%>gVCCCCN9%::::::%$",
"D&%%%:%::%:%>qzZCCCCCCCCCCCCCCCCCCMa,%%:::::%%5cCCVV9:::::::%%%tNVCCCz4%::::::%%",
"D&%%%::::::%%1qnZCCCCCCCCCCCCCCCCMt4%%%::::%%%4lVVVM7%::::%:::&<MCCVVf>::::::%%$",
"D&%%:%:::::::#1wzNCCCCCCCCCCCCCVzt<%%:::::::%%>aVCVl5%:::::::::1hNVVM9&::::::%%$",
"D$&%:::::::%%#&19gmNVCCZCCCCVNNkq-&:%:::::::%%%9lBne>::::::::::>7kMca1:%::::%%%%",
"D&%%%::%:::::%:&&<qszNVZVVZNMkr4*%%:::%::::::::1708-1:::::::::::*477,::::::::%%$",
"D$%%:::::::::%:&%>1<9qdddddq97-%%%%::::::::::::&&1=%::::::::::::%&*>%%:::::%%%%$",
"D$&%%:%:%::::%::%%:%&>11111>*&%%%%%%%:%::::::%%%%%&:::::::::::%::%%%%%::::%:%%&$",
"D$$$#%:%%:%%:%:%::&%&&&&&&&%%%%%%%%::%%%%%:%:%%%%%%::::%#::#:::%:%%&%:%%%%%%%%$$",
"D$$$%$%%%&&:%&&#&#%&#&%#%&&&%&#&%%#%%%%%%%%%%%%%%&%%%&:#:#%%%&%%%%#%&%%%%%%%%#$$",
"D$$$$$##&#%#&&#&&#&##&&$&#&&&&&&$##%%%%$%%#%#&#&&#&&&#&$#&#%&#%#&&&#&#%$%%%%$$$$",
"D;$$#&&$$&&$&$&$&$&&&$$$$$$#&#$$$&$$$$%$$$$$$$$#&&#&&$#&$#$&#&&&%$$$$$$$$$$$$$$$"
};
