/* XPM */
static char * ANTENA 3_xpm[] = {
"80 74 14 1",
" 	c None",
".	c #EF8000",
"+	c #EC8300",
"@	c #EB8800",
"#	c #ED8A17",
"$	c #ED8F1A",
"%	c #EE9127",
"&	c #ED962A",
"*	c #EF9835",
"=	c #EC9B2C",
"-	c #ED9C36",
";	c #EBA037",
">	c #F09F41",
",	c #EDA342",
"                                                                                ",
"                                                                                ",
"                                                                                ",
"                               -&&$#+.#  +++#$$=-                               ",
"                           &$+........+  +........+$&                           ",
"                       -$+............-  &............+$;                       ",
"                     &+..............$    #..............+&                     ",
"                  ,$................+     ,.................$                   ",
"                 #..................&      $..................$                 ",
"               $...................@        +...................%               ",
"             -+....................,        &....................+>             ",
"            $.....................$          @.....................$            ",
"           +.....................+           ,......................@           ",
"         ,+......................&            $......................+,         ",
"        >.......................@              +.......................,        ",
"       -........................,              &.......................+,       ",
"      ,........................$                #.......................+       ",
"      +.......................+                 ,........................+      ",
"     #........................&                  $........................#     ",
"    &........................@                    +........................&    ",
"    .........................,                    *........................+    ",
"   #........................$                      #........................$   ",
"  -........................+                       ,.........................   ",
"  #........................&                        $........................$  ",
"  ........................#                          +........................  ",
" &........................,                          &........................& ",
" #.......................$                            #.......................$ ",
" .......................+                              .......................+ ",
"-.......................&                              $....................... ",
"&......................@                                +......................=",
"&......................,                                -......................&",
"$.....................$                                  #.....................$",
"#....................+                                    .....................#",
"#....................&           =%#.......+#&-           $....................#",
"$...................#         -#................$-         +...................&",
"&...................        &+....................+-       -...................&",
"&..................$      -+........................@,      #..................-",
",.................+      $............................&      .................. ",
" .................-     @..............................#     &................+ ",
" $...............#    ,+................................+     +...............$ ",
" &...............    ,+..................................+    -...............- ",
"  ..............$    +....................................+    #.............+  ",
"  $............+    @......................................#    .............&  ",
"   ............-   $........................................&   %...........+   ",
"   %..........#   -..........................................    +..........&   ",
"    +.........    +..........................................#   -.........+    ",
"    -........%   -............................................-   #........,    ",
"     $......+    +............................................#    .......&     ",
"      #.....-   -..............................................    &.....#      ",
"       +...#    $..............................................&    +...@       ",
"        +..     ...............................................+    -..+        ",
"         +%    -................................................     #+         ",
"               &................................................&               ",
"               $................................................$               ",
"               +................................................$               ",
"               .................................................+               ",
"               =+..............................................+-               ",
"                 #............................................$                 ",
"                  -.........................................+-                  ",
"                    #......................................$                    ",
"                     -+..................................+-                     ",
"                       #................................$                       ",
"                        -+............................+;                        ",
"                          #..........................$                          ",
"                           -+......................+;                           ",
"                             $....................$                             ",
"                              -+................+,                              ",
"                                #..............$                                ",
"                                 -+..........+,                                 ",
"                                   $........$                                   ",
"                                    -+....+,                                    ",
"                                      $..%                                      ",
"                                       -,                                       ",
"                                                                                "};
