/* XPM */
static char *ARAGON_TV[] = {
/* columns rows colors chars-per-pixel */
"80 80 85 1",
"  c #040001",
". c #0C0301",
"X c #0F0801",
"o c #000308",
"O c #140201",
"+ c #1C0401",
"@ c #130B01",
"# c #1A0F01",
"$ c #1C1101",
"% c #240501",
"& c #2B0601",
"* c #340601",
"= c #3B0701",
"- c #380802",
"; c #231501",
": c #271801",
"> c #2B1A01",
", c #331F01",
"< c #352001",
"1 c #3B2401",
"2 c #410701",
"3 c #430801",
"4 c #4C0901",
"5 c #530901",
"6 c #5C0A01",
"7 c #630B01",
"8 c #6C0C01",
"9 c #740C01",
"0 c #7B0C01",
"q c #402702",
"w c #422901",
"e c #492D01",
"r c #4F3101",
"t c #543401",
"y c #583701",
"u c #5D3A01",
"i c #643E01",
"p c #674101",
"a c #6C4301",
"s c #714701",
"d c #764A01",
"f c #7E4F01",
"g c #7E5001",
"h c #840D01",
"j c #8C0E00",
"k c #920E01",
"l c #9C0F00",
"z c #8C1101",
"x c #A20F01",
"c c #A41000",
"v c #AA1000",
"b c #B41000",
"n c #BC1200",
"m c #C21200",
"M c #CD1200",
"N c #D31200",
"B c #DD1300",
"V c #E41300",
"C c #EB1300",
"Z c #EB1A00",
"A c #F01400",
"S c #845301",
"D c #895600",
"F c #8E5901",
"G c #925C00",
"H c #9B6200",
"J c #A26600",
"K c #A66900",
"L c #AC6D00",
"P c #B57300",
"I c #BA7600",
"U c #BD7800",
"Y c #C57C00",
"T c #C87E00",
"R c #CD8200",
"E c #D18500",
"W c #DA8A00",
"Q c #E18E00",
"! c #E59100",
"~ c #EB9500",
"^ c #F09700",
"/ c #F39A00",
"( c #FC9E00",
") c #FEA000",
"_ c None",
/* pixels */
"________________________________________________________________________________",
"____________                       4mZZZZCZZZZZZZZZZZCZZZZZZZZZzX  _____________",
"____________                     .6nCCZCCCCCCCCCCCCCCCCCCCCCCCV9   _____________",
"____________      .             O9MCCCCZCCCCCCCCCCCCCCCCCCCCCCB6   _____________",
"____________                   %jBCCCCCCCCCCCCCCCCCCCCCCCCCCCCM2   _____________",
"____________                  -xVCCCCCCCCCCCCCCCCCCCCVCCCCCCCCn&   _____________",
"____________                 4bCCCCCCCCCCCCCCCCCCCCCCCCCCCCCCCv+   _____________",
"____________        .      +8MCCCCCCCCCCCCCCCCCCCCCCCCCCCCCCZCk    _____________",
"____________              +0NCCCCCCCCCCCCCCCCCCCCCCCCCCCCCCCCV9    _____________",
"____________o            &kVCCCCCCCCCCCCCCCCCCCCCCCCCCCCCCCCCB6    _____________",
"____________            3vCCCCCCCCCCCCCCVCCCCCCZCCCCCCCCCCCCCN=    _____________",
"____________          .5nCCCCCCCCCCCCCCCCCCCCVBVCCVCCCCCCCCCZn%    _____________",
"____________          +xACCCCCCCCCCCCCCCCCCCCvjNCCCCCCCCCCCCCvO    _____________",
"____________          .8VCCCCCCVCCVCCCCCCCCVl*9BCCCCCCCCCCCCCj.    _____________",
"____________           +xCCCCCCCCCCCCCCCCCVj% jCCCCCCCCCCCCCV9o    _____________",
"____________      wy.   4MCCCCCCCCCCCCCCCB0% +vACCCCCCCCCCCCB6     _____________",
"____________o   XuTRw   @9BCCCCCCCCCCCCCN9+  *mACCCCCCCCCCCCN=     _____________",
"____________   #dW)(K$   +kVCCCCCCCCCCCM6.   4NACCCCCCCCCCCCm%     _____________",
"____________  :G!(((~dX   &vCCCCCCCCCCm5.    7BCCCCCCCCCCCCCv+     _____________",
"____________.1L/)((()Wr    =bCCCCCCCCb3     .hCCCCCCCCCVCVCCj      _____________",
"____________sU((((((((I<    3nCCCCCVv*      +cCCCCCCCCCCCCCV9      _____________",
"____________^(((((((((/K:    4bCCCVl&       *bACCCCCCCCCCCCB5      _____________",
"____________(((((((((()^G$    =vCBj%        4NCCCCCCCCCCCCCN=      _____________",
"____________(((((((((())~F$    *z9+         7VCCCCCCCCCCCCCm%      _____________",
"____________((((()/)(((/)~D$    OO          hCCCCCCCCCCCCCCvO      _____________",
"____________((((((((((((()^G:              +xCCCCCCCCCCCCCCj       _____________",
"____________(((((((((((((()/J<             &bACCCCCCCCCCCCC8.      _____________",
"____________((((((((((((((((/Pe.           3MACCCCCCCCCCCCB5       _____________",
"____________((((((((((((((((((Rp@   .      6VACCCCCCCCCCCCN=       _____________",
"____________(((((((((((((((((((!G>        .0CCCCCVCCCCCCCCn%       _____________",
"____________((((((((((((((((((((/Uy@      @7nBCCCCCCCCCCCCxO       _____________",
"____________((((((((((((((((((((()QF<.      &6kbNVCCCACACAjO       _____________",
"____________((((((/)()(((((((((((((/Ts>.      .%49kbmNBBVV8        _____________",
"____________(((((())/^))(((((((((((()^Is<X        .%*46800-        _____________",
"____________(((((()^LSR)((((((((((((())/TDr;                       _____________",
"____________((((()~F>.rU(((((((((((((/)))/WLgr;.                   _____________",
"____________(((()Ws#   1J^)((((((((((((((())/WIGpe>#.              _____________",
"____________((((Yt.     ;gW((((((((()(((((((()(/~WYLHSapy;         _____________",
"____________((/L1        @tI/((((((((((((((((((()))(//^~R1         _____________",
"____________)!G:           :DW(((((((((((((((((((((())))E<   .     _____________",
"____________Td@             @eL!()(((((((((((((((((((())P;         _____________",
"____________>@            .   #iP~()(((((((((((((((((())H@         _____________",
"____________       .       .    ;aP!())((((((((((((((((/fX         _____________",
"____________                      :pLW/)(((((((((((((()^i          _____________",
"____________         .              $tFT/((((((((((((()Qt          _____________",
"____________       .                  XrW((((((((((((()R<          _____________",
"____________                 .         w!((((((((((((()I>          _____________",
"____________                  .        u^((((((((((()))H@          _____________",
"____________       .                   S/((((((((((((((DX          _____________",
"____________          .               XH((((((((((((()~a           _____________",
"____________      .                   $I((((((((((((()Qy           _____________",
"____________            .   .         ,R((((((((((((()Rq           _____________",
"____________                          r!((((((((((((()I: .         _____________",
"____________                          p~((((((((((((()K$           _____________",
"____________                          D/((((((((((((((FX           _____________",
"____________o                        .J(((((((()(/(((^d            _____________",
"________________________________________________________________________________",
"________________________________________________________________________________",
"________________________________________________________________________________",
"________________________________________________________________________________",
"___________________oo____________ooo_____oo_____________________________________",
"______________o____o_o____o_____o___o__o___oo__o____o___________________________",
"______________oo___o__o___oo___o______o_____o__oo___o___________________________",
"_____________o_o___o_____o____________o______oo__o__o___________________________",
"_____________o_oo__ooo___o__o_______ooo______oo___o_o___________________________",
"____________oo_oo__o_o__oo_oo__o____o_o_____o______oo___________________________",
"____________o______o____o____o_oo___o__o___oo_______o___________________________",
"_________________________________oo______oo_____________________________________",
"________________________________________________________________________________",
"________________________________________________________o_______________________",
"________________________________________________________________________________",
"_____________________________________________oo________ooo______________________",
"___________oooooooooo_oo___ooooooo___oo_oo__oooo_oo__oooooo__ooo___oo___________",
"____________ooo__oo___oo___ooo___oo__oo_oo_ooo___oo__oo__ooo_oooo__oo___________",
"_____________oo__ooo__oo___oooo__oo_oo__oo__ooo__oo_oo____oo_ooooo_oo___________",
"_____________oo__oooo_oo___oooo___oooo__oo__oooo_ooooo____ooooooooooo___________",
"_____________oo__oo___oo___oo_____oooo__oo____oo_oo__oo___oo_oo__oooo___________",
"_____________oo__oooo_oooo_oooo___ooo___oo__oooo_oo__ooooooo_oo___ooo___________",
"_____________o___oooo__ooo_oooo____oo___oo__oooo__o___ooooo___o____oo___________",
"________________________________________________________________________________"
};
