/* XPM */
static char *CADENA_DIAL[] = {
/* columns rows colors chars-per-pixel */
"80 80 63 1",
"  c #012D74",
". c #083277",
"X c #0D367A",
"o c #143C7D",
"O c #183F7F",
"+ c #5DA527",
"@ c #5EA629",
"# c #61A72D",
"$ c #63A82F",
"% c #67AA34",
"& c #68AB36",
"* c #6EAE3E",
"= c #76B348",
"- c #7AB54E",
"; c #84BB5C",
": c #8ABE63",
"> c #8EC068",
", c #92C26E",
"< c #9BC779",
"1 c #1D4482",
"2 c #274B87",
"3 c #35578F",
"4 c #476598",
"5 c #506D9D",
"6 c #5B75A3",
"7 c #677FA9",
"8 c #6A82AB",
"9 c #788DB2",
"0 c #7E92B6",
"q c #8498BA",
"w c #A0CA80",
"e c #A4CC86",
"r c #B1D498",
"t c #BCD9A6",
"y c #C3DEAF",
"u c #C7E0B4",
"i c #CDE3BD",
"p c #8EA0C0",
"a c #8EA1C0",
"s c #97A7C4",
"d c #A8B6CE",
"f c #AEBBD1",
"g c #BAC5D8",
"h c #C3CCDD",
"j c #D2E6C4",
"k c #D8E9CB",
"l c #DBEBCF",
"z c #E0EDD6",
"x c #E3EFDA",
"c c #E6F1DE",
"v c #C8D1E0",
"b c #CDD5E2",
"n c #D4DBE6",
"m c #D6DCE7",
"M c #DEE4EC",
"N c #E3E7EF",
"B c #EAF3E3",
"V c #EFF6E9",
"C c #F2F8EE",
"Z c #E9ECF2",
"A c #EFF1F5",
"S c #F5F8F6",
"D c #FFFFFF",
/* pixels */
"DDDDDDDDDDDDDDDDDDDDDDDDDDDDDDDDDDDDDDDDDDDDDDDDDDDDDDDDDDDDDDDDDDDDDDDDDDDDDDDD",
"DDDDDDDDDDDDDDDDDDDDDDDDDDDDDDDDDDDDDDDDDDDDDDDDDDDDDDDDDDDDDDDDDDDDDDDDDDDDDDDD",
"DDDDDDDDDDDDDDDDDDDDDDDDDDDDDDDDDDDDDDDDDDDDDDDDDDDDDDDDDDDDDDDDDDDDDDDDDDDDDDDD",
"DDDDDDDDDDDDDDDDDDDDDDDDDDDDDDDDDDDDDDDDDDDDDDDDDDDDDDDDDDDDDDDDDDDDDDDDDDDDDDDD",
"DDDDDDDDDDDDDDDDDDDDDDDDDDDDDDDDDDDDDDDDDDDDDDDDDDDDDDDDDDDDDDDDDDDDDDDDDDDDDDDD",
"DDDDDDDDDDDDDDDDDDDDDDDDDDDDDDDDDDDDDDDDDDDDDDDDDDDDDDDDDDDDDDDDDDDDDDDDDDDDDDDD",
"DDDDDDDDDDDDDDDDDDDDDDDDDDDDDDDDDDDDDDDDDDDDDDDDDDDDDDDDDDDDDDDDDDDDDDDDDDDDDDDD",
"DDDDDDDDDDDDDDDDDDDDDDDDDDDDDDDDDDDDDDDDDDDDDDDDDDDDDDDDDDDDDDDDDDDDDDDDDDDDDDDD",
"DDDDDDDDDDDDDDDDDDDDDDDDDDDDDDDDDDDDDDDDDDDDDDDDDDDDDDDDDDDDDDDDDDDDDDDDDDDDDDDD",
"DDDDDDDDDDDDDDDDDDDDDDDDDDDDDDDDDDDDDDDDDDDDDDDDDDDDDDDDDDDDDDDDDDDDDDDDDDDDDDDD",
"DDDDDDDDDDDDDDDDDDDDDDDDDDDDDDDDDDDDDDDDDDDDDDDDDDDDDDDDDDDDDDDDDDDDDDDDDDDDDDDD",
"DDDDDDDDDDDDDDDDDDDDDDDDDDDDDDDDDDDDDDDDDDDDDDDDDDDDDDDDDDDDDDDDDDDDDDDDDDDDDDDD",
"DDDDDDDDDDDDDDDDDDDDDDDDDDDDDDDDDDDDDDDDDDDDDDDDDDDDDDDDDDDDDDDDDDDDDDDDDDDDDDDD",
"DDDDDDDDDDDDDDDDDDDDDDDDDDDDDDDDDDDDDDDDDDDDDDDDDDDDDDDDDDDDDDDDDDDDDDDDDDDDDDDD",
"DDDDDDDDDDDDDDDDDDDDDDDDDDDDDDDDDDDDDDDDDDDDDDDDDDDDDDDDDDDDDDDDDDDDDDDDDDDDDDDD",
"DDDDDDDDDDDDDDDDDDDDDDDDDDDDDDDDDDDDDDDDDDDDDDDDDDDDDDDDDDDDDDDDDDDDDDDDDDDDDDDD",
"DDDDDDDDDDDDDDDDDDDDDDDDDDDDDDDDDDDDDDDDDDDDDDDDDDDDDDDDDDDDDDDDDDDDDDDDDDDDDDDD",
"DDDDDDDDDDDDDDDDDDDDDDDDDDDDDDDDDDDDDDDDDDDDDDDDDDDDDDDDDDDDDDDDDDDDDDDDDDDDDDDD",
"DDDDDDDDDDDDDDDDDDDDDDDDDDDDDDDDDDDDDDDDDDDDDDDDDDDDDDDDDDDDDDDDDDDDDDDDDDDDDDDD",
"DDDDDDDDDDDDDDDDDDDDDDDDDDDDDDDDDDDDDDDDDDDDDDDDDDDDDDDDDDDDDDDDDDDDDDDDDDDDDDDD",
"DDDDDDDDDDDDDDDDDDDDDDDDDDDDDDDDDDDDDDDDDDDDDDDDDDDDDDDDDDDDDDDDDDDDDDDDDDDDDDDD",
"DDDDDDDDDDDDDDDDDDDDDDDDDDDDDDDDDDDDDDDDDDDDDDDDDDDDDDDDDDDDDDDDDDDDDDDDDDDDDDDD",
"DDDDDDDDDDDDDDDf44444446ZDDB=@#%$$$$uDDDDDDDDDDDDDDDDDDDDDDDDDDDDDB,>>>>>>>kDDDD",
"DDDDDDDDDDDDDDDp       1MDDB*+++++++yDDSfanDMfDAsshDfsfSdNmnDngDDDz%++++++@uDDDD",
"DDDDDDDDDDDDDDDp       1MDDB*+++++++yDDbqbgDs6AN0n9AqgNS60ffDa7SDDz%++++++@uDDDD",
"DDDDDDDDDDDDDDDp       1MDDB*+++++++yDDhsDSA9qgNqSqZ9qhS007fA9qhDDz%++++++@uDDDD",
"DDDDDDDDDDDDDDDp       1MDDB*+++++++yDDm0ffh7q0M9g0A0fnSqm5fg80qDDz%++++++@uDDDD",
"DDDDDDDDDDDDDDDp       1MDDB*++++++@yDDDhdZmNDbAfdmDhdgSbSmMmZSbDDz%++++++@uDDDD",
"DDDDDDDDDDDDDDDp       1MDDSutttttttcDDDDDDDDDDDDDDDDDDDDDDDDDDDDDz%++++++@uDDDD",
"DDDDDDDDDDDDDDDp       1MDDDDDDDDDDDDDDDDDDDDDDDDDDDDDDDDDDDDDDDDDz%++++++@uDDDD",
"DDDDDDDZmnMADDDa       1MDDDDDDDDDDDDDDDDDDDDDDSCBBBBCSDDDDDDDDDDDz%++++++@uDDDD",
"DDDDZs621o137gDa       1MDDDDDDDDDDDDDDDDDDDVu<;=****=;<tcDDDDDDDDz%++++++@uDDDD",
"DDDf3        X89       1MDDV<,,,,,,,kDDDDDSt-@++++++++++@*wxDDDDDDz%++++++@uDDDD",
"DDao           X       1MDDB*+++++++yDDDDc,@+++++++++++++++=iDDDDDz%++++++@uDDDD",
"Dgo                    1MDDB*+++++++yDDDS,++++++++++++++++++*iDDDDz%++++++@uDDDD",
"S5                     1MDDB*+++++++yDDDDi=++++++++++++++++++-BDDDz%++++++@uDDDD",
"ho                     1MDDB*+++++++yDDDDDj=++++++++++++++++++rDDDz%++++++@uDDDD",
"q    oo    Xo          1MDDB*+++++++yDDDDDDj=+++$*==%+++++++++;SDDz%++++++@uDDDD",
"5   2gh3  Ofb5         1MDDB*+++++++yDDDDDDDk=@,jBVVle%+++++++*cDDz%++++++@uDDDD",
"3   4SDv2 2ZDM3        1MDDB*+++++++yDDDDDDDDktSDDDDDDe+++++++$kDDz%++++++@uDDDD",
"2   XdDDfo qDDb2       1MDDB*+++++++yDDDDDDDDDDDDDDDDDi#++++++#jDDz%++++++@uDDDD",
"O    1gDDsXodDDfO      1MDDB*+++++++yDDDDDDDDDDSSCCCCSj$++++++#jDDz%++++++@uDDDD",
"X     3nDS0 1gDDsX     1MDDB*+++++++yDDDDDDDct<;------=@++++++#jDDz%++++++@uDDDD",
"X      4NDA6 3nDS0     1MDDB*+++++++yDDDDDVe=@++++++++++++++++#jDDz%++++++@uDDDD",
"X       6ADM2 4NDA4    1MDDB*+++++++yDDDDx;+++++++++++++++++++#jDDz%++++++@uDDDD",
"X       3NDA3 2nDD6    1MDDB*+++++++yDDDC:++++++++++++++++++++#jDDz%++++++@uDDDD",
"X      2hDDq ofDDdX    1MDDB*+++++++yDDDt@++++++++++++++++++++#jDDz%++++++@uDDDD",
"X     ofDDsX.sDDg1     1MDDB*+++++++yDDS;+++++++$;<<<<>@++++++#jDDz%++++++@uDDDD",
"O    XsDDg1 9SDb2      1MDDB*+++++++yDDx&++++++$tSDDDDl%++++++#jDDz%++++++@uDDDD",
"2    9SDb2 6ADN4       1MDDB*+++++++yDDk$++++++-CDDDDDi#++++++#jDDz%++++++@uDDDD",
"3   3ADN4 2MDA6        1MDDB*+++++++yDDk$++++++=VDDDDDe+++++++#jDDz&+++++++tDDDD",
"6   3NZ6  2nS9         1MDDB*+++++++yDDz%++++++@eBSSBr%+++++++#jDDc*+++++++=ruuu",
"q    33.   23.         1MDDB*+++++++yDDV=+++++++@=;-*@++++++++#jDDC-+++++++++++$",
"vO                     1MDDB*+++++++yDDD<+++++++++++++++++++++#jDDDe+++++++++++$",
"S6                     1MDDB*+++++++yDDDj%++++++++++++++++++++#jDDDl*++++++++++$",
"Dv1                    1MDDB*+++++++yDDDS<++++++++++++++++++++#jDDDDr@+++++++++$",
"DDdO          .3.      1MDDB*+++++++yDDDDV,@++++++++++-&++++++#jDDDDSe#++++++++$",
"DDDg4X       OqfX      1MDDB*+++++++yDDDDDCr=@++++++%<l=++++++#jDDDDDSy-$++++++$",
"DDDDAd62o.o28hDn54444446ZDDV,:::::::jDDDDDDDxr:=&*=,iSC<::::::>zDDDDDDDVie,::::>",
"DDDDDDDDDDDDDDDDDDDDDDDDDDDDDDDDDDDDDDDDDDDDDDDDDDDDDDDDDDDDDDDDDDDDDDDDDDDDDDDD",
"DDDDDDDDDDDDDDDDDDDDDDDDDDDDDDDDDDDDDDDDDDDDDDDDDDDDDDDDDDDDDDDDDDDDDDDDDDDDDDDD",
"DDDDDDDDDDDDDDDDDDDDDDDDDDDDDDDDDDDDDDDDDDDDDDDDDDDDDDDDDDDDDDDDDDDDDDDDDDDDDDDD",
"DDDDDDDDDDDDDDDDDDDDDDDDDDDDDDDDDDDDDDDDDDDDDDDDDDDDDDDDDDDDDDDDDDDDDDDDDDDDDDDD",
"DDDDDDDDDDDDDDDDDDDDDDDDDDDDDDDDDDDDDDDDDDDDDDDDDDDDDDDDDDDDDDDDDDDDDDDDDDDDDDDD",
"DDDDDDDDDDDDDDDDDDDDDDDDDDDDDDDDDDDDDDDDDDDDDDDDDDDDDDDDDDDDDDDDDDDDDDDDDDDDDDDD",
"DDDDDDDDDDDDDDDDDDDDDDDDDDDDDDDDDDDDDDDDDDDDDDDDDDDDDDDDDDDDDDDDDDDDDDDDDDDDDDDD",
"DDDDDDDDDDDDDDDDDDDDDDDDDDDDDDDDDDDDDDDDDDDDDDDDDDDDDDDDDDDDDDDDDDDDDDDDDDDDDDDD",
"DDDDDDDDDDDDDDDDDDDDDDDDDDDDDDDDDDDDDDDDDDDDDDDDDDDDDDDDDDDDDDDDDDDDDDDDDDDDDDDD",
"DDDDDDDDDDDDDDDDDDDDDDDDDDDDDDDDDDDDDDDDDDDDDDDDDDDDDDDDDDDDDDDDDDDDDDDDDDDDDDDD",
"DDDDDDDDDDDDDDDDDDDDDDDDDDDDDDDDDDDDDDDDDDDDDDDDDDDDDDDDDDDDDDDDDDDDDDDDDDDDDDDD",
"DDDDDDDDDDDDDDDDDDDDDDDDDDDDDDDDDDDDDDDDDDDDDDDDDDDDDDDDDDDDDDDDDDDDDDDDDDDDDDDD",
"DDDDDDDDDDDDDDDDDDDDDDDDDDDDDDDDDDDDDDDDDDDDDDDDDDDDDDDDDDDDDDDDDDDDDDDDDDDDDDDD",
"DDDDDDDDDDDDDDDDDDDDDDDDDDDDDDDDDDDDDDDDDDDDDDDDDDDDDDDDDDDDDDDDDDDDDDDDDDDDDDDD",
"DDDDDDDDDDDDDDDDDDDDDDDDDDDDDDDDDDDDDDDDDDDDDDDDDDDDDDDDDDDDDDDDDDDDDDDDDDDDDDDD",
"DDDDDDDDDDDDDDDDDDDDDDDDDDDDDDDDDDDDDDDDDDDDDDDDDDDDDDDDDDDDDDDDDDDDDDDDDDDDDDDD",
"DDDDDDDDDDDDDDDDDDDDDDDDDDDDDDDDDDDDDDDDDDDDDDDDDDDDDDDDDDDDDDDDDDDDDDDDDDDDDDDD",
"DDDDDDDDDDDDDDDDDDDDDDDDDDDDDDDDDDDDDDDDDDDDDDDDDDDDDDDDDDDDDDDDDDDDDDDDDDDDDDDD",
"DDDDDDDDDDDDDDDDDDDDDDDDDDDDDDDDDDDDDDDDDDDDDDDDDDDDDDDDDDDDDDDDDDDDDDDDDDDDDDDD",
"DDDDDDDDDDDDDDDDDDDDDDDDDDDDDDDDDDDDDDDDDDDDDDDDDDDDDDDDDDDDDDDDDDDDDDDDDDDDDDDD",
"DDDDDDDDDDDDDDDDDDDDDDDDDDDDDDDDDDDDDDDDDDDDDDDDDDDDDDDDDDDDDDDDDDDDDDDDDDDDDDDD"
};
