/* XPM */
static char *CADENA_DIAL[] = {
/* columns rows colors chars-per-pixel */
"80 80 64 1",
"F c None",
"  c #012D74",
". c #0B3579",
"X c #073176",
"o c #133B7D",
"O c #5DA527",
"+ c #5DA528",
"@ c #62A72D",
"# c #65A931",
"$ c #6BAC3A",
"% c #74B146",
"& c #75B247",
"* c #86BB5D",
"= c #80B855",
"- c #8BBE64",
"; c #8EC068",
": c #98C575",
"> c #9BC77A",
", c #91C26D",
"< c #1C4281",
"1 c #264A86",
"2 c #33558D",
"3 c #3C5C93",
"4 c #2D508A",
"5 c #496799",
"6 c #516D9D",
"7 c #5A75A2",
"8 c #637CA7",
"9 c #405F94",
"0 c #183F80",
"q c #6A81AA",
"w c #758BB1",
"e c #798EB3",
"r c #879ABB",
"t c #8FA0BF",
"y c #A4CB85",
"u c #B6D69E",
"i c #B1D397",
"p c #ACD090",
"a c #BAD8A4",
"s c #C3DDAF",
"d c #CAE1B9",
"f c #93A5C2",
"g c #9CABC7",
"h c #A4B2CB",
"j c #AEBBD1",
"k c #A5B2CB",
"l c #B9C4D6",
"z c #C2CBDC",
"x c #C7D0DF",
"c c #D5E7C8",
"v c #DEECD2",
"b c #E3EFD9",
"n c #CBD3E1",
"m c #D4DBE6",
"M c #DCE1EB",
"N c #E1E6EE",
"B c #E3E8EF",
"V c #EBF3E4",
"C c #E7EBF1",
"Z c #F3F5F8",
"A c #FEFEFE",
"S c #F3F6F6",
"D c #EFF4F0",
/* pixels */
"FAAAAAAAAAAAAAAAAAAAAAAAAAAAAAAAAAAAAAAAAAAAAAAAAAAAAAAAAAAAAAAAAAAAAAAAAAAAAAAA",
"FAAAAAAAAAAAAAAAAAAAAAAAAAAAAAAAAAAAAAAAAAAAAAAAAAAAAAAAAAAAAAAAAAAAAAAAAAAAAAAA",
"FAAAAAAAAAAAAAAAAAAAAAAAAAAAAAAAAAAAAAAAAAAAAAAAAAAAAAAAAAAAAAAAAAAAAAAAAAAAAAAA",
"FAAAAAAAAAAAAAAAAAAAAAAAAAAAAAAAAAAAAAAAAAAAAAAAAAAAAAAAAAAAAAAAAAAAAAAAAAAAAAAA",
"FAAAAAAAAAAAAAAAAAAAAAAAAAAAAAAAAAAAAAAAAAAAAAAAAAAAAAAAAAAAAAAAAAAAAAAAAAAAAAAA",
"FAAAAAAAAAAAAAAAAAAAAAAAAAAAAAAAAAAAAAAAAAAAAAAAAAAAAAAAAAAAAAAAAAAAAAAAAAAAAAAA",
"FAAAAAAAAAAAAAAAAAAAAAAAAAAAAAAAAAAAAAAAAAAAAAAAAAAAAAAAAAAAAAAAAAAAAAAAAAAAAAAA",
"FAAAAAAAAAAAAAAAAAAAAAAAAAAAAAAAAAAAAAAAAAAAAAAAAAAAAAAAAAAAAAAAAAAAAAAAAAAAAAAA",
"FAAAAAAAAAAAAAAAAAAAAAAAAAAAAAAAAAAAAAAAAAAAAAAAAAAAAAAAAAAAAAAAAAAAAAAAAAAAAAAA",
"FAAAAAAAAAAAAAAAAAAAAAAAAAAAAAAAAAAAAAAAAAAAAAAAAAAAAAAAAAAAAAAAAAAAAAAAAAAAAAAA",
"FAAAAAAAAAAAAAAAAAAAAAAAAAAAAAAAAAAAAAAAAAAAAAAAAAAAAAAAAAAAAAAAAAAAAAAAAAAAAAAA",
"FAAAAAAAAAAAAAAAAAAAAAAAAAAAAAAAAAAAAAAAAAAAAAAAAAAAAAAAAAAAAAAAAAAAAAAAAAAAAAAA",
"FAAAAAAAAAAAAAAAAAAAAAAAAAAAAAAAAAAAAAAAAAAAAAAAAAAAAAAAAAAAAAAAAAAAAAAAAAAAAAAA",
"FAAAAAAAAAAAAAAAAAAAAAAAAAAAAAAAAAAAAAAAAAAAAAAAAAAAAAAAAAAAAAAAAAAAAAAAAAAAAAAA",
"FAAAAAAAAAAAAAAZrqqqqqqqzAAA,#######aAAAAAAAAAAAAAAAAAAAAAAAAAAAAAayyyyyyycAAAAA",
"FAAAAAAAAAAAAAAZ3       fAAA;OOOOOOOuAAAZNAAZZAZMBAANMDZZAZAAZAAAS*OOOOOO+uAAAAA",
"FAAAAAAAAAAAAAAZ3       fAAA;OOOOOOOuAAZe8lAlfAn78zC8wlneZfZZeBAAS*OOOOOOOuAAAAA",
"FAAAAAAAAAAAAAAZ3       fAAA;OOOOOOOuAAntMlArqAxgnrNrZAn2zrZM5zAAS*OOOOOOOuAAAAA",
"FAAAAAAAAAAAAAAZ3       fAAA;OOOOOOOuAAzhAAZrrNnhNrN6eMn8erZlrhAAS*OOOOOOOuAAAAA",
"FAAAAAAAAAAAAAAZ3       fAAA;OOOOOOOuAAzgACm8wlnhNrNenZnfw7ZrewZAS*OOOOOOOuAAAAA",
"FAAAAAAAAAAAAAAZ3       fAAA;OOOOOOOuAAMwfhjqetxeffBwzNngl5Nqr8MAS*OOOOOOOuAAAAA",
"FAAAAAAAAAAAAAAZ3       fAAA;OOOOOOOuAAAjrBzNZlMrrBZrelNxZjBlAxMAS*OOOOOOOuAAAAA",
"FAAAAAAAAAAAAAAZ3       fAAA>%%%%%%%sAAAAAAAAAAAAAAAAAAAAAAAAAAAAS*OOOOOOOuAAAAA",
"FAAAAAAAAAAAAAAZ3       fAAADVVVVVVVSAAAAAAAAAAAAAAAAAAAAAAAAAAAAS*OOOOOOOuAAAAA",
"FAAAAAAAAAAAAAAZ3       fAAAAAAAAAAAAAAAAAAAAAAAAAAAAAAAAAAAAAAAAS*OOOOOOOuAAAAA",
"FAAAAAAAAAAAAAAZ3       fAAAAAAAAAAAAAAAAAAAAAAAAAAAAAAAAAAAAAAAAS*OOOOOOOuAAAAA",
"FAAAAAAMjtrhnZAZ3       fAAAAAAAAAAAAAAAAAAAAASbdsaascVAAAAAAAAAAS*OOOOOOOuAAAAA",
"FAAAANe1X   o7mZ3       fAAAAAAAAAAAAAAAAAAAVi=$@OOO+#%,dSAAAAAAAS*OOOOOOOuAAAAA",
"FAAAn3        4l3       fAAAspppppppcAAAAAAc&+OOOOOOOOOO@;vAAAAAAS*OOOOOOOuAAAAA",
"FAAm2          1<       fAAA;O++++++uAAAAAd$OOOOOOOOOOOOOO&cAAAAAS*OOOOOOOuAAAAA",
"FAZ7                    fAAA;OOOOOOOuAAAAc$OOOOOOOOOOOOOOOO&bAAAAS*OOOOOOOuAAAAA",
"FAl.                    fAAA;OOOOOOOuAAAS*OOOOOOOOOOOOOOOOOO:AAAAS*OOOOOOOuAAAAA",
"FA8                     fAAA;OOOOOOOuAAAAy+OOOOOOOOOOOOOOOOO#cAAAS*OOOOOOOuAAAAA",
"FN4                     fAAA;OOOOOOOuAAAAD*OOOOOOOOOOOOOOOOOOyAAAS*OOOOOOOuAAAAA",
"Fl.                     fAAA;OOOOOOOuAAAAAc$OOOOOOOOOOOOOOOOO&DAAS*OOOOOOOuAAAAA",
"Fr                      fAAA;OOOOOOOuAAAAAAu@OOOOOOOOOOOOOOOO#cAAS*OOOOOOOuAAAAA",
"F8   .85   .85          fAAA;OOOOOOOuAAAAAAS,OO#;iup*@OOOOOOO+sAAS*OOOOOOOuAAAAA",
"F5   6ZN2  6ZN2         fAAA;OOOOOOOuAAAAAAAb%$sSAAASy+OOOOOOOpAAS*OOOOOOOuAAAAA",
"F4   qAAhX qAAhX        fAAA;OOOOOOOuAAAAAAAAsaAAAAAAV%OOOOOOO>AAS*OOOOOOOuAAAAA",
"F1   2CAZ6 2CAZ6        fAAA;OOOOOOOuAAAAAAAAAAAAAAAAA,OOOOOOO>AAS*OOOOOOOuAAAAA",
"F<    rAAzo rAAzo       fAAA;OOOOOOOuAAAAAAAAAAAAAAAAAyOOOOOOO:AAS*OOOOOOOuAAAAA",
"Fo    1mAAw 1mAAw       fAAA;OOOOOOOuAAAAAAAAAAAAAAAAAyOOOOOOO:AAS*OOOOOOOuAAAAA",
"Fo     8ZAM4 8ZAM4      fAAA;OOOOOOOuAAAAAAAAbu>,;;;;;%OOOOOOO:AAS*OOOOOOOuAAAAA",
"F.     .lAAf .lAAfX     fAAA;OOOOOOOuAAAAAAVy$+OOOOOOOOOOOOOOO:AAS*OOOOOOOuAAAAA",
"F.      5DAD5 5CAD5     fAAA;OOOOOOOuAAAAAv=OOOOOOOOOOOOOOOOOO:AAS*OOOOOOOuAAAAA",
"F.      XfAAjX fAAjX    fAAA;OOOOOOOuAAAAV=OOOOOOOOOOOOOOOOOOO:AAS*OOOOOOOuAAAAA",
"F.       9ZAm0 3ZAm<    fAAA;OOOOOOOuAAAAyOOOOOOOOOOOOOOOOOOOO:AAS*OOOOOOOuAAAAA",
"F.       rAAjX rAAjX    fAAA;OOOOOOOuAAAb$OOOOOOOOOOOOOOOOOOOO:AAS*OOOOOOOuAAAAA",
"F.      3CAD5 3CAD5     fAAA;OOOOOOOuAAAiOOOOOOOOOOOOOOOOOOOOO:AAS*OOOOOOOuAAAAA",
"F.     .jAAf .jAAfX     fAAA;OOOOOOOuAAS-OOOOOOOO#%%%%#OOOOOOO:AAS*OOOOOOOuAAAAA",
"Fo     7ZAM4 7ZAM4      fAAA;OOOOOOOuAAV%OOOOOOO-cVVVV>OOOOOOO:AAS*OOOOOOOuAAAAA",
"F<    <nAAw <nAAw       fAAA;OOOOOOOuAAv#OOOOOO%bAAAAAyOOOOOOO:AAS*OOOOOOOuAAAAA",
"F<    rAAzo rAAzo       fAAA;OOOOOOOuAAc#OOOOOO,AAAAAAyOOOOOOO:AAS*OOOOOOOuAAAAA",
"F1   4BAZ6 2BAZ6        fAAA;OOOOOOOuAAc@OOOOOO:AAAAAA-OOOOOOO:AAS*OOOOOOOuAAAAA",
"F3   qAAhX qAAhX        fAAA;OOOOOOOuAAc#OOOOOO=DAAAAv$OOOOOOO:AAA-OOOOOOO>AAAAA",
"F6   6ZB2  6ZN2         fAAA;OOOOOOOuAAv#OOOOOO@uSAAb-OOOOOOOO:AAA;OOOOOOO#pssdA",
"Fw   .86   .86          fAAA;OOOOOOOuAAV%OOOOOOO#-y,%+OOOOOOOO:AAA>OOOOOOOO+++#A",
"FhX                     fAAA;OOOOOOOuAAS=OOOOOOOOOOOOOOOOOOOOO:AAAuOOOOOOOOOOO@A",
"Fn<                     fAAA;OOOOOOOuAAA>OOOOOOOOOOOOOOOOOOOOO:AAAc@OOOOOOOOOO@A",
"FZ5                     fAAA;OOOOOOOuAAAs@OOOOOOOOOOOOOOOOOOOO:AAAD&OOOOOOOOOO@A",
"FAf                     fAAA;OOOOOOOuAAAV&OOOOOOOOOOOOOOOOOOOO:AAAAiOOOOOOOOOO@A",
"FAN4                    fAAA;OOOOOOOuAAAAi+OOOOOOOOOOOOOOOOOOO:AAAAV&OOOOOOOOO@A",
"FAAg.          .1       fAAA;OOOOOOOuAAAAD*OOOOOOOOOO@&+OOOOOO:AAAAAs#OOOOOOOO@A",
"FAAZe.        Xeq       fAAA;OOOOOOOuAAAAAv&OOOOOOOOO,u+OOOOOO:AAAAAAi#OOOOOOO@A",
"FAAAZf1      orZw       fAAA;OOOOOO+uAAAAAAb:#OOOOO@:Ds+OOOOOO:AAAAAAAd=#+OOOO@A",
"FAAAAAnw2o.17lZAk8qqqqq8lAAAa>>>>>>>cAAAAAAASd:&%&-sSAvy>>>>>>sAAAAAAAADdiy>>>yA",
"FAAAAAAAAAAAAAAAAAAAAAAAAAAAAAAAAAAAAAAAAAAAAAAAAAAAAAAAAAAAAAAAAAAAAAAAAAAAAAAA",
"FAAAAAAAAAAAAAAAAAAAAAAAAAAAAAAAAAAAAAAAAAAAAAAAAAAAAAAAAAAAAAAAAAAAAAAAAAAAAAAA",
"FAAAAAAAAAAAAAAAAAAAAAAAAAAAAAAAAAAAAAAAAAAAAAAAAAAAAAAAAAAAAAAAAAAAAAAAAAAAAAAA",
"FAAAAAAAAAAAAAAAAAAAAAAAAAAAAAAAAAAAAAAAAAAAAAAAAAAAAAAAAAAAAAAAAAAAAAAAAAAAAAAA",
"FAAAAAAAAAAAAAAAAAAAAAAAAAAAAAAAAAAAAAAAAAAAAAAAAAAAAAAAAAAAAAAAAAAAAAAAAAAAAAAA",
"FAAAAAAAAAAAAAAAAAAAAAAAAAAAAAAAAAAAAAAAAAAAAAAAAAAAAAAAAAAAAAAAAAAAAAAAAAAAAAAA",
"FAAAAAAAAAAAAAAAAAAAAAAAAAAAAAAAAAAAAAAAAAAAAAAAAAAAAAAAAAAAAAAAAAAAAAAAAAAAAAAA",
"FAAAAAAAAAAAAAAAAAAAAAAAAAAAAAAAAAAAAAAAAAAAAAAAAAAAAAAAAAAAAAAAAAAAAAAAAAAAAAAA",
"FAAAAAAAAAAAAAAAAAAAAAAAAAAAAAAAAAAAAAAAAAAAAAAAAAAAAAAAAAAAAAAAAAAAAAAAAAAAAAAA",
"FAAAAAAAAAAAAAAAAAAAAAAAAAAAAAAAAAAAAAAAAAAAAAAAAAAAAAAAAAAAAAAAAAAAAAAAAAAAAAAA",
"FAAAAAAAAAAAAAAAAAAAAAAAAAAAAAAAAAAAAAAAAAAAAAAAAAAAAAAAAAAAAAAAAAAAAAAAAAAAAAAA",
"FAAAAAAAAAAAAAAAAAAAAAAAAAAAAAAAAAAAAAAAAAAAAAAAAAAAAAAAAAAAAAAAAAAAAAAAAAAAAAAA",
"FAAAAAAAAAAAAAAAAAAAAAAAAAAAAAAAAAAAAAAAAAAAAAAAAAAAAAAAAAAAAAAAAAAAAAAAAAAAAAAA",
"FAAAAAAAAAAAAAAAAAAAAAAAAAAAAAAAAAAAAAAAAAAAAAAAAAAAAAAAAAAAAAAAAAAAAAAAAAAAAAAA"
};
