/* XPM */
static char *Canal_Catala_Barcelona[] = {
/* columns rows colors chars-per-pixel */
"80 80 39 1",
"  c #ABABB0",
". c #ACACB1",
"X c #B1B1B6",
"o c #B6B6BA",
"O c #BABABE",
"+ c #BFBFC3",
"@ c #9AD5F2",
"# c #A1D8F3",
"$ c #A5D9F3",
"% c #ACDCF4",
"& c #B1DFF5",
"* c #B6E1F5",
"= c #BCE3F6",
"- c #C2C2C6",
"; c #C7C7CA",
": c #CACACD",
"> c #CECED1",
", c #D3D3D5",
"< c #D7D7D9",
"1 c #DADADD",
"2 c #DFDFE1",
"3 c #C4E6F7",
"4 c #C8E8F7",
"5 c #CAE9F8",
"6 c #CDEAF8",
"7 c #D5EDF9",
"8 c #DAEFFA",
"9 c #DFF1FA",
"0 c #E4E4E6",
"q c #E7E7E9",
"w c #EDEDEE",
"e c #EFEFF0",
"r c #E5F4FB",
"t c #EBF6FC",
"y c #EFF8FD",
"u c #F4F4F4",
"i c #F5FAFD",
"p c #F8F8F8",
"a c #FFFFFF",
/* pixels */
"aaaaaaaaaaaaaaaaaaaaaaaaaaaaaaaaaaaaaaaaaaaaaaaaaaaaaaaaaaaaaaaaaaaaaaaaaaaaaaaa",
"aaaaaaaaaaaaaaaaaaaaaaaaaaaaaaaaaaaaaaaaaaaaaaaaaaaaaaaaaaaaaaaaaaaaaaaaaaaaaaaa",
"aaaaaaaaaaaaaaaaaaaaaaaaaaaaaaaaaaaaaaaaaaaaaaaaaaaaaaaaaaaaaaaaaaaaaaaaaaaaaaaa",
"aaaaaaaaaaaaaaaaaaaaaaaaaaaaaaaaaaaaaaaaaaaaaaaaaaaaaaaaaaaaaaaaaaaaaaaaaaaaaaaa",
"aaaaaaaaaaaaaaaaaaaaaaaaaaaaaaaaaaaaaaaaaaaaaaaaaaaaaaaaaaaaaaaaaaaaaaaaaaaaaaaa",
"aaaaaaaaaaaaaaaaaaaaaaaaaaaaaaaaaaaaaaaaaaaaaaaaaaaaaaaaaaaaaaaaaaaaaaaaaaaaaaaa",
"aaaaaaaaaaaaaaaaaaaaaaaaaaaaaaaaaaaaaaaaaaaaaaaaaaaaaaaaaaaaaaaaaaaaaaaaaaaaaaaa",
"aaaaaaaaaaaaaaaaaaaaaaaaaaaaaaaaaaaaaaaaaaaaaaaaaaaaaaaaaaaaaaaaaaaaaaaaaaaaaaaa",
"aaaaaaaaaaaaaaaaaaaaaaaaaaaaaaaaaaaaaaaaaaaaaaaaaaaaaaaaaaaaaaaaaaaaaaaaaaaaaaaa",
"aaaaaaaaaaaaaaaaaaaaaaaaaaaaaaaaaaaaaaaaaaaaaaaaaaaaaaaaaaaaaaaaaaaaaaaaaaaaaaaa",
"aaaaaaaaaaaaaaaaaaaaaaaaaaaaaaaaaaaaaaaaaaaaaaaaaaaaaaaaaaaaaaaaaaaaaaaaaaaaaaaa",
"aaaaaaaaaaaaaaaaaaaaaaaaaaaaaaaaaaaaaaaaaaaaaaaaaaaaaaaaaaaaaaaaaaaaaaaaaaaaaaaa",
"aaaaaaaaaaaaaaaaaaaaaaaaaaaaaaaaaaaaaaaaaaaaaaaaaaaaaaaaaaaaaaaaaaaaaaaaaaaaaaaa",
"aaaaaaaaaaaaaaaaaaaaaaaaaaaaaaaaaaaaaaaaaaaaaaaaaaaaaaaaaaaaaaaaaaaaaaaaaaaaaaaa",
"aaaaaaaaaaaaaaaaaaaaaaaaaaaaaaaaaaaaaaaaaaaaaaaaaaaaaaaaaaaaaaaaaaaaaaaaaaaaaaaa",
"aaaaaaaaaaaaaaaaaaaaaaaaaaaaaaaaaaaaaaaaaaaaaaaaaaaaaaaaaaaaaaaaaaaaaaaaaaaaaaaa",
"aaaaaaaaaaaaaaaaaaaaaaaaaaaaaaaaaaaaaaaaaaaaaaaaaaaaaaaaaaaaaaaaaaaaaaaaaaaaaaaa",
"aaaaaaaaaaaaaaaaaaaaaaaaaaaaaaaaaaaaaaaaaaaaaaaaaaaaaaaaaaaaaaaaaaaaaaaaaaaaaaaa",
"aaaaaaaaaaaaaaaaaaaaaaaaaaaaaaaaaaaaaaaaaaaaaaaaaaaaaaaaaaaaaaaaaaaaaaaaaaaaaaaa",
"aaaaaaaaaaaaaaaaaaaaaaaaaaaaaaaaaaaaaaaaaaaaaaaaaaaaaaaaaaaaaaaaaaaaaaaaaaaaaaaa",
"aaaaaaaaaaaaaaaaaaaaaaaaaaaaaaaaaaaaaaaaaaaaaaaaaaaaaaaaaaaaaaaaaaaaaaaaaaaaaaaa",
"aaaaaaaaaaaaaaaaaaaaaaaaaaaaaaaaaaaaaaaaaaaaaaaaaaaaaaaaaaaaaaaaaaaaaaaaaaaaaaaa",
"aaaaaaaaaaaaaaaaaaaaaaaaaaaaaaaaaaaaaaaaaaaaaaaaaaaaaaaaaaaaaaaaaaaaaaaaaaaaaaaa",
"aaaaaaaaaaaaaaaaaaaaaaaaaaaaaaaaaaaaaaaaaaaaaaaaaaaaaaaaaaaaaaaaaaaaaaaaaaaaaaaa",
"aaaaaaaaaaaaaaaaaaaaaaaaaaaaaaaaaaaaaaaaaaaaaaaaaaaaaaaaaaaaaaaaaaaaaaaaaaaaaaaa",
"aaaaaaaaaaaaaapppppppppaaaaaaaaaaaaaaaaaiiiiiiiaaaaaaaaaaaaaaaaaaaaaaaaaaaaaaaaa",
"aaaaaaaaaapw01,:;>wp<;:,<0wupaaaaaaaaaai3%$%%%3iaaaaaaaaaaaaaaaaaaaaaaaaaaaaaaaa",
"aaaaaaapw1;OX... oqu-.  .XO-<waaaaaaaaar%@@@@@$raaaaaaaaaaaaaaaaaaaaaaaaaaaaaaaa",
"aaaaaau1+.   ....o0u-. ...  .-2uaaaaaaar%@@@@@$raaaaaaaaaaaaaaaaaaaaaaaaaaaaaaaa",
"aaaaau<o. . .....o0u-. .... ..o,uaaaaair%@@@@@$raaaaaaaaaaaaaaaaaaaaaaaaaaaaaaaa",
"aaaap<o.... .....o0u-. ......  o1paaaair%@@@@@$raaaaaaaaaaaaaaaaaaaaaaaaaaaaaaaa",
"aaaa0o..... .....Oqu-. .........Oqpaaii7$@@@@@@8iiiaaaaaaaaaaaaaaaaaaiiiiiiiaaaa",
"aaau;........XO+-,up1-OoX.. .....>upi9*%@@@@@@@$&&&&&&&&&&&&5yaaaaaai7*&%%%=raaa",
"aaa0o .....-<0wppaaaappuq<+......Oqpi6@@@@@@@@@@@@@@@@@@@@@@$8aaaaaar%@@@@@#8aaa",
"aap<......;wpaaaaaaaaaaaapq;.....X<pi6@@@@@@@@@@@@@@@%%@@@@@@4aaaaaa7@@@@@@&taaa",
"aap:.....o0paaaaaaaaaaaaaap0O.....-ei6@@@@@@@@@@@@@@@34@@@@@@*iaaaai=@@@@@@5iaaa",
"aau-.....-eaaaaaaaaaaaaaaaau;.....o0i7#@@@@@@@@@@@@@$79%@@@@@%raaaat%@@@@@$9aaaa",
"aawO.....:uaaaaaaaaaaaaaaaap<.... .<ay73$@@@@@#488888yi=@@@@@@7aaaa7@@@@@@*yaaaa",
"aawO  ...,paaaaaaaaaaaaaaaaa2X  ...,aaar%@@@@@%raaaaaai7@@@@@@*iaii=@@@@@#6iaaaa",
"aawO  . .<paaaaaaaaaaaaaaaaa0o ....,aaat%@@@@@%raaaaaaat%@@@@@$riiy&@@@@@$raaaaa",
"aawO ....<aaaaaaaaaaaaaaaaaaqo ....,aaat%@@@@@%raaaaaaai3@@@@@@7ii9$@@@@@*iaaaaa",
"aawO ....,paaaaaaaaaaaaaaaaa0X ....,aaat%@@@@@%taaaaaaaa8#@@@@@=ii4@@@@@@7aaaaaa",
"aaw+ ....:paaaaaaaaaaaaaaaaa1.    .,aaat%@@@@@%taaaaaaaat%@@@@@%ry*@@@@@%taaaaaa",
"aau-.....;uaaaaaaaaaaaaaaaap>.  . X1aaar%@@@@@%taaaaaaaai3@@@@@@78$@@@@@3iaaaaaa",
"aau;. .. +waaaaaaaaaaaaaaaaw+.... Owaaar%@@@@@$raaaaaaaaa8#@@@@@==@@@@@@7aaaaaaa",
"aap,.....X<paaaaaaaaaaaaaap<X ....:paaat%@@@@@$raaaaaaaaay%@@@@@#$@@@@@&taaaaaaa",
"aaa0X.....O<wpaaaaaaaaaapu<O.....X1aaaat%@@@@@$raaaaaaaaai4@@@@@@@@@@@@3iaaaaaaa",
"aaae+......X-,<10wpau01,>-X......+waaaat%@@@@@#8aaaaaaaaaar$@@@@@@@@@@#9aaaaaaaa",
"aaap,X .........X-wu:X..  . ....X<paaaay&@@@@@@3tiaiiiaaaai*@@@@@@@@@@*iaaaaaaaa",
"aaaaw-.......... o0u-...........;waaaaai*@@@@@@@%==&%8iaaaa6@@@@@@@@@@6aaaaaaaaa",
"aaaap0+..........o0u-..... .. .-qpaaaaai3@@@@@@@@@@@@3iaaaar%@@@@@@@@%raaaaaaaaa",
"aaaaap0-X........o0e-........X;qpaaaaaaar$@@@@@@@@@@@3iaaaii=@@@@@@@@=iaaaaaaaaa",
"aaaaaapw<+X.   ..o0e+     .X+<wpaaaaaaaai6$@@@@@@@@@@3iaaaii7@@@@@@@@7iaaaaaaaaa",
"aaaaaaaapu0>-OX..Oqu;.XoO->2epaaaaaaaaaaai8=$@@@@@@@$7aaaaaat=$$$$$$=taaaaaaaaaa",
"aaaaaaaaaaaapuq010upq20wupaaaaaaaaaaaaaaaaaay8544568riaaaaaaaiytyyiiiaaaaaaaaaaa",
"aaaaaaaaaaaaaaaaaaaaaaaaaaaaaaaaaaaaaaaaaaaaaaaaaaaaaaaaaaaaaaaaaaaaaaaaaaaaaaaa",
"aaaaaaaaaaaaaaaaaaaaaaaaaaaaaaaaaaaaaaaaaaaaaaaaaaaaaaaaaaaaaaaaaaaaaaaaaaaaaaaa",
"aaaaaaaaaaaaaaaaaaaaaaaaaaaaaaaaaaaaaaaaaaaaaaaaaaaaaaaaaaaaaaaaaaaaaaaaaaaaaaaa",
"aaaaaaaaaaaaaaaaaaaaaaaaaaaaaaaaaaaaaaaaaaaaaaaaaaaaaaaaaaaaaaaaaaaaaaaaaaaaaaaa",
"aaaaaaaaaaaaaaaaaaaaaaaaaaaaaaaaaaaaaaaaaaaaaaaaaaaaaaaaaaaaaaaaaaaaaaaaaaaaaaaa",
"aaaaaaaaaaaaaaaaaaaaaaaaaaaaaaaaaaaaaaaaaaaaaaaaaaaaaaaaaaaaaaaaaaaaaaaaaaaaaaaa",
"aaaaaaaaaaaaaaaaaaaaaaaaaaaaaaaaaaaaaaaaaaaaaaaaaaaaaaaaaaaaaaaaaaaaaaaaaaaaaaaa",
"aaaaaaaaaaaaaaaaaaaaaaaaaaaaaaaaaaaaaaaaaaaaaaaaaaaaaaaaaaaaaaaaaaaaaaaaaaaaaaaa",
"aaaaaaaaaaaaaaaaaaaaaaaaaaaaaaaaaaaaaaaaaaaaaaaaaaaaaaaaaaaaaaaaaaaaaaaaaaaaaaaa",
"aaaaaaaaaaaaaaaaaaaaaaaaaaaaaaaaaaaaaaaaaaaaaaaaaaaaaaaaaaaaaaaaaaaaaaaaaaaaaaaa",
"aaaaaaaaaaaaaaaaaaaaaaaaaaaaaaaaaaaaaaaaaaaaaaaaaaaaaaaaaaaaaaaaaaaaaaaaaaaaaaaa",
"aaaaaaaaaaaaaaaaaaaaaaaaaaaaaaaaaaaaaaaaaaaaaaaaaaaaaaaaaaaaaaaaaaaaaaaaaaaaaaaa",
"aaaaaaaaaaaaaaaaaaaaaaaaaaaaaaaaaaaaaaaaaaaaaaaaaaaaaaaaaaaaaaaaaaaaaaaaaaaaaaaa",
"aaaaaaaaaaaaaaaaaaaaaaaaaaaaaaaaaaaaaaaaaaaaaaaaaaaaaaaaaaaaaaaaaaaaaaaaaaaaaaaa",
"aaaaaaaaaaaaaaaaaaaaaaaaaaaaaaaaaaaaaaaaaaaaaaaaaaaaaaaaaaaaaaaaaaaaaaaaaaaaaaaa",
"aaaaaaaaaaaaaaaaaaaaaaaaaaaaaaaaaaaaaaaaaaaaaaaaaaaaaaaaaaaaaaaaaaaaaaaaaaaaaaaa",
"aaaaaaaaaaaaaaaaaaaaaaaaaaaaaaaaaaaaaaaaaaaaaaaaaaaaaaaaaaaaaaaaaaaaaaaaaaaaaaaa",
"aaaaaaaaaaaaaaaaaaaaaaaaaaaaaaaaaaaaaaaaaaaaaaaaaaaaaaaaaaaaaaaaaaaaaaaaaaaaaaaa",
"aaaaaaaaaaaaaaaaaaaaaaaaaaaaaaaaaaaaaaaaaaaaaaaaaaaaaaaaaaaaaaaaaaaaaaaaaaaaaaaa",
"aaaaaaaaaaaaaaaaaaaaaaaaaaaaaaaaaaaaaaaaaaaaaaaaaaaaaaaaaaaaaaaaaaaaaaaaaaaaaaaa",
"aaaaaaaaaaaaaaaaaaaaaaaaaaaaaaaaaaaaaaaaaaaaaaaaaaaaaaaaaaaaaaaaaaaaaaaaaaaaaaaa",
"aaaaaaaaaaaaaaaaaaaaaaaaaaaaaaaaaaaaaaaaaaaaaaaaaaaaaaaaaaaaaaaaaaaaaaaaaaaaaaaa",
"aaaaaaaaaaaaaaaaaaaaaaaaaaaaaaaaaaaaaaaaaaaaaaaaaaaaaaaaaaaaaaaaaaaaaaaaaaaaaaaa",
"aaaaaaaaaaaaaaaaaaaaaaaaaaaaaaaaaaaaaaaaaaaaaaaaaaaaaaaaaaaaaaaaaaaaaaaaaaaaaaaa",
"aaaaaaaaaaaaaaaaaaaaaaaaaaaaaaaaaaaaaaaaaaaaaaaaaaaaaaaaaaaaaaaaaaaaaaaaaaaaaaaa"
};
