/* XPM */
static char *Canal__[] = {
/* columns rows colors chars-per-pixel */
"80 80 3 1",
"  c #D32224",
". c #D42224",
"X c None",
/* pixels */
"XXXXXXXXXXXXXXXXXXXXXXXXXXXXXXXXXXXXXX....XXXXXXXXXXXXXXXXXXXXXXXXXXXXXXXXXXXXXX",
"XXXXXXXXXXXXXXXXXXXXXXXXXXXXXXX..................XXXXXXXXXXXXXXXXXXXXXXXXXXXXXXX",
"XXXXXXXXXXXXXXXXXXXXXXXXXXXX........................XXXXXXXXXXXXXXXXXXXXXXXXXXXX",
"XXXXXXXXXXXXXXXXXXXXXXXXX..............................XXXXXXXXXXXXXXXXXXXXXXXXX",
"XXXXXXXXXXXXXXXXXXXXXXX..................................XXXXXXXXXXXXXXXXXXXXXXX",
"XXXXXXXXXXXXXXXXXXXXX......................................XXXXXXXXXXXXXXXXXXXXX",
"XXXXXXXXXXXXXXXXXXX..........................................XXXXXXXXXXXXXXXXXXX",
"XXXXXXXXXXXXXXXXXX............................................XXXXXXXXXXXXXXXXXX",
"XXXXXXXXXXXXXXXX................................................XXXXXXXXXXXXXXXX",
"XXXXXXXXXXXXXXX..................................................XXXXXXXXXXXXXXX",
"XXXXXXXXXXXXXX....................................................XXXXXXXXXXXXXX",
"XXXXXXXXXXXXX......................................................XXXXXXXXXXXXX",
"XXXXXXXXXXXX........................................................XXXXXXXXXXXX",
"XXXXXXXXXXX..........................................................XXXXXXXXXXX",
"XXXXXXXXXX............................................................XXXXXXXXXX",
"XXXXXXXXX..............................................................XXXXXXXXX",
"XXXXXXXX................................................................XXXXXXXX",
"XXXXXXXX...........................XXXXXXXXXX...........................XXXXXXXX",
"XXXXXXX.........................XXXXXXXXXXXXXXXX.........................XXXXXXX",
"XXXXXX........................XXXXXXXXXXXXXXXXXXXX........................XXXXXX",
"XXXXXX......................XXXXXXXXXXXXXXXXXXXXXXXX......................XXXXXX",
"XXXXX.....................XXXXXXXXXXXXXXXXXXXXXXXXXXXX.....................XXXXX",
"XXXXX....................XXXXXXXXXXXXXXXXXXXXXXXXXXXXXX....................XXXXX",
"XXXX....................XXXXXXXXXXXXXXXXXXXXXXXXXXXXXXXX....................XXXX",
"XXXX...................XXXXXXXXXXXXXXXXXXXXXXXXXXXXXXXXXX...................XXXX",
"XXX...................XXXXXXXXXXXXXXXXXXXXXXXXXXXXXXXXXXXX...................XXX",
"XXX..................XXXXXXXXXXXXXXXXXXXXXXXXXXXXXXXXXXXXXX..................XXX",
"XXX..................XXXXXXXXXXXXXXXXXXXXXXXXXXXXXXXXXXXXXX..................XXX",
"XX..................XXXXXXXXXXXXXXXXXXXXXXXXXXXXXXXXXXXXXXXX..................XX",
"XX..................XXXXXXXXXXXXXXXXXXXXXXXXXXXXXXXXXXXXXXXX..................XX",
"XX.................XXXXXXXXXXXXXXXXXXXXXXXXXXXXXXXXXXXXXXXXXX.................XX",
"X..................XXXXXXXXXXXXXXXXXXXXXXXXXXXXXXXXXXXXXXXXXX..................X",
"X.................XXXXXXXXXXXXXXXXXXXXXXXXXXXXXXXXXXXXXXXXXXXX.................X",
"X.................XXXXXXXXXXXXXXXXXXXX....XXXXXXXXXXXXXXXXXXXX.................X",
"X.................XXXXXXXXXXXXXXXXXX........XXXXXXXXXXXXXXXXXX.................X",
"X................XXXXXXXXXXXXXXXXXX..........XXXXXXXXXXXXXXXXXX................X",
"X................XXXXXXXXXXXXXXXXX............XXXXXXXXXXXXXXXXX................X",
"X................XXXXXXXXXXXXXXXXX............XXXXXXXXXXXXXXXXX................X",
".................XXXXXXXXXXXXXXXX..............XXXXXXXXXXXXXXXX.................",
".................XXXXXXXXXXXXXXXX..............XXXXXXXXXXXXXXXX.................",
".................XXXXXXXXXXXXXXXX..............XXXXXXXXXXXXXXXX.................",
".................XXXXXXXXXXXXXXXX..............XXXXXXXXXXXXXXXX.................",
"X................XXXXXXXXXXXXXXXX..............XXXXXXXXXXXXXXXX................X",
"X................XXXXXXXXXXXXXXXXX............XXXXXXXXXXXXXXXXX................X",
"X................XXXXXXXXXXXXXXXXXX..........XXXXXXXXXXXXXXXXXX................X",
"X.................XXXXXXXXXXXXXXXXXX........XXXXXXXXXXXXXXXXXX.................X",
"X.................XXXXXXXXXXXXXXXXXXX......XXXXXXXXXXXXXXXXXXX.................X",
"X.................XXXXXXXXXXXXXXXXXXXXXXXXXXXXXXXXXXXXXXXXXXXX.................X",
"X..................XXXXXXXXXXXXXXXXXXXXXXXXXXXXXXXXXXXXXXXXXX..................X",
"XX.................XXXXXXXXXXXXXXXXXXXXXXXXXXXXXXXXXXXXXXXXXX.................XX",
"XX.................XXXXXXXXXXXXXXXXXXXXXXXXXXXXXXXXXXXXXXXXXX.................XX",
"XX..................XXXXXXXXXXXXXXXXXXXXXXXXXXXXXXXXXXXXXXXX..................XX",
"XX...................XXXXXXXXXXXXXXXXXXXXXXXXXXXXXXXXXXXXXX...................XX",
"XXX..................XXXXXXXXXXXXXXXXXXXXXXXXXXXXXXXXXXXXXX..................XXX",
"XXX...................XXXXXXXXXXXXXXXXXXXXXXXXXXXXXXXXXXXX...................XXX",
"XXXX...................XXXXXXXXXXXXXXXXXXXXXXXXXXXXXXXXXXX..................XXXX",
"XXXX....................XXXXXXXXXXXXXXXXXXXXXXXXXXXXXXXXX...................XXXX",
"XXXX.....................XXXXXXXXXXXXXXXXXXXXXXXXXXXXXXXX...................XXXX",
"XXXXX.....................XXXXXXXXXXXXXXXXXXXXXXXXXXXXXX...................XXXXX",
"XXXXXX......................XXXXXXXXXXXXXXXXXXXXXXXXXXXX..................XXXXXX",
"XXXXXX.......................XXXXXXXXXXXXXXXXXXXXXXXXXX...................XXXXXX",
"XXXXXXX........................XXXXXXXXXXXXXXXXXXXXXXX...................XXXXXXX",
"XXXXXXX...........................XXXXXXXXXXXXXXXXXXXX...................XXXXXXX",
"XXXXXXXX...........................XXXXXXXXXXXXXXXXXX...................XXXXXXXX",
"XXXXXXXXX.........................XXXXXXXXXXXXXXXXXXX..................XXXXXXXXX",
"XXXXXXXXXX........................XXXXXXXXXXXXXXXXXX..................XXXXXXXXXX",
"XXXXXXXXXX ......................XXXXXXXXXXXXXXXXXXX..................XXXXXXXXXX",
"XXXXXXXXXXX......................XXXXXXXXXXXXXXXXXX..................XXXXXXXXXXX",
"XXXXXXXXXXXX....................XXXXXXXXXXXXXXXXXXX.................XXXXXXXXXXXX",
"XXXXXXXXXXXXX...................XXXXXXXXXXXXXXXXXX................ XXXXXXXXXXXXX",
"XXXXXXXXXXXXXXX................XXXXXXXXXXXXXXXXXXX...............XXXXXXXXXXXXXXX",
"XXXXXXXXXXXXXXXX...............XXXXXXXXXXXXXXXXXX...............XXXXXXXXXXXXXXXX",
"XXXXXXXXXXXXXXXXX.............XXXXXXXXXXXXXXXXXX...............XXXXXXXXXXXXXXXXX",
"XXXXXXXXXXXXXXXXXXX...........XXXXXXXXXXXXXXXXXX.............XXXXXXXXXXXXXXXXXXX",
"XXXXXXXXXXXXXXXXXXXX.........XXXXXXXXXXXXXXXXXX.............XXXXXXXXXXXXXXXXXXXX",
"XXXXXXXXXXXXXXXXXXXXXX......XXXXXXXXXXXXXXXXXXX...........XXXXXXXXXXXXXXXXXXXXXX",
"XXXXXXXXXXXXXXXXXXXXXXXX....XXXXXXXXXXXXXXXXXX..........XXXXXXXXXXXXXXXXXXXXXXXX",
"XXXXXXXXXXXXXXXXXXXXXXXXXXXXXXXXXXXXXXXXXXXXXX.......XXXXXXXXXXXXXXXXXXXXXXXXXXX",
"XXXXXXXXXXXXXXXXXXXXXXXXXXXXXXXXXXXXXXXXXXXXX.....XXXXXXXXXXXXXXXXXXXXXXXXXXXXXX",
"XXXXXXXXXXXXXXXXXXXXXXXXXXXXXXXXXXXXXXXXXXXXXXXXXXXXXXXXXXXXXXXXXXXXXXXXXXXXXXXX"
};
