/* XPM */
static char *Canal_Catala_Barcelona[] = {
/* columns rows colors chars-per-pixel */
"80 80 41 1",
"d c None",
"  c #AAAAAF",
". c #ABABB0",
"X c #B0B0B5",
"o c #B5B5B9",
"O c #B9B9BD",
"+ c #BDBDC1",
"@ c #9AD5F2",
"# c #A0D7F2",
"$ c #A3D8F3",
"% c #ABDCF3",
"& c #B1DEF4",
"* c #B5E0F5",
"= c #BCE2F5",
"- c #C1C1C5",
"; c #C6C6C9",
": c #CACACD",
"> c #CDCDD0",
", c #D2D2D5",
"< c #D6D6D8",
"1 c #DADADC",
"2 c #DEDEE0",
"3 c #C3E5F6",
"4 c #C7E8F7",
"5 c #C8E8F7",
"6 c #C7E7F8",
"7 c #CBE9F8",
"8 c #D4EDF9",
"9 c #D8EEF9",
"0 c #DCF0FA",
"q c #E2E2E4",
"w c #E6E6E8",
"e c #EBEBEC",
"r c #EEEEF0",
"t c #E4F3FB",
"y c #EBF6FC",
"u c #EEF8FC",
"i c #F4F4F4",
"p c #F6F7F8",
"a c #F4F9FC",
"s c #FEFEFE",
/* pixels */
"dsssssssssssssssssssssssssssssssssssssssssssssssssssssssssssssssssssssssssssssss",
"dsssssssssssssssssssssssssssssssssssssssssssssssssssssssssssssssssssssssssssssss",
"dsssssssssssssssssssssssssssssssssssssssssssssssssssssssssssssssssssssssssssssss",
"dsssssssssssssssssssssssssssssssssssssssssssssssssssssssssssssssssssssssssssssss",
"dsssssssssssssssssssssssssssssssssssssssssssssssssssssssssssssssssssssssssssssss",
"dsssssssssssssssssssssssssssssssssssssssssssssssssssssssssssssssssssssssssssssss",
"dsssssssssssssssssssssssssssssssssssssssssssssssssssssssssssssssssssssssssssssss",
"dsssssssssssssssssssssssssssssssssssssssssssssssssssssssssssssssssssssssssssssss",
"dsssssssssssssssssssssssssssssssssssssssssssssssssssssssssssssssssssssssssssssss",
"dsssssssssssssssssssssssssssssssssssssssssssssssssssssssssssssssssssssssssssssss",
"dsssssssssssssssssssssssssssssssssssssssssssssssssssssssssssssssssssssssssssssss",
"dsssssssssssssssssssssssssssssssssssssssssssssssssssssssssssssssssssssssssssssss",
"dsssssssssssssssssssssssssssssssssssssssssssssssssssssssssssssssssssssssssssssss",
"dsssssssssssssssssssssssssssssssssssssssssssssssssssssssssssssssssssssssssssssss",
"dsssssssssssssssssssssssssssssssssssssssssssssssssssssssssssssssssssssssssssssss",
"dsssssssssssssssssssssssssssssssssssssssssssssssssssssssssssssssssssssssssssssss",
"dsssssssssssssssssssssssssssssssssssssssssssssssssssssssssssssssssssssssssssssss",
"dsssssssssssssssssssssssssssssssssssssssssssssssssssssssssssssssssssssssssssssss",
"dsssssssssssssssssssssssssssssssssssssssssssssssssssssssssssssssssssssssssssssss",
"dsssssssssssssssssssssssssssssssssssssssssssssssssssssssssssssssssssssssssssssss",
"dsssssssssssssssssssssssssssssssssssssssssssssssssssssssssssssssssssssssssssssss",
"dssssssssssssssspppipspipppssssssssssssssayyuuaassssssssssssssssssssssssssssssss",
"dsssssssssssspiw2<>>qpq>,<2wipssssssssssa4%%%%*0ssssssssssssssssssssssssssssssss",
"dsssssssssspe1;OoX.X<i,X.Xo+>1essssssssst%@@@@@5asssssssssssssssssssssssssssssss",
"dsssssssssi2-o.. ...,i>.  ...o:wpssssssst%@@@@@3asssssssssssssssssssssssssssssss",
"dssssssssi<O........,i>.......X;qpsssssst%@@@@@3asssssssssssssssssssssssssssssss",
"dssssssspq+.........,i>........X;esssssat%@@@@@3asssssssssssssssssssssssssssssss",
"dssssssse;..........,i>.........X,issssa0%@@@@@3asssssssssssssssssssssssssssssss",
"dssssssp<X..........,i>..........+wssssa0$@@@@@=asssssssssssssssssssssssssssssss",
"dsssssse+..........X,i,..........X,pssaa8$@@@@@*uaaassssssssssssssssaaaaaaasssss",
"dsssssp1X........oo+2p2+XX........-esay4&@@@@@@$===333333335tsssssss03====8assss",
"dsssssi:......o->1qeisiwq<:+X.....oqpa9$@@@@@@@@@@@@@@@@@@@@3asssssa=@@@@@*ussss",
"dssssse+.....O,wipssssssspiq;X.....,pa8@@@@@@@@@@@@@@@@@@@@@&ussssst%@@@@@*assss",
"dssssswO.....>isssssssssssspq+.....;ia8@@@@@@@@@@@@@@%%@@@@@$tsssss9#@@@@@5assss",
"dsssss2o....oqpsssssssssssssp,X....Owa8@@@@@@@@@@@@@@==@@@@@#0sssss7@@@@@$0sssss",
"dsssss<X....-rsssssssssssssssqo....o2a8@@@@@@@@@@@@@@48$@@@@@7ssssa=@@@@@%ysssss",
"dssssp,.....;issssssssssssssse+.....,p0%#@@@@@@@$$$$%8t%@@@@@=asssy%@@@@@*asssss",
"dssssp:.....>psssssssssssssssi;.....;pa83$@@@@@&89889yu=@@@@@&ysss0$@@@@@5asssss",
"dssssp:.....,psssssssssssssssp:.....-psa0%@@@@@3asssasa7@@@@@$tssa7@@@@@$9ssssss",
"dssssp:....X1psssssssssssssssp,.....-psst%@@@@@4assssss0$@@@@@8aaa3@@@@@%tssssss",
"dssssp:....X1sssssssssssssssss<.....-psst%@@@@@4assssssy%@@@@@4aaa=@@@@@*ussssss",
"dssssp:....X1sssssssssssssssss<.....-psst%@@@@@5assssssa=@@@@@*usy&@@@@@4assssss",
"dssssp:....X1sssssssssssssssss,.....-psst%@@@@@5assssssa7@@@@@%ys0$@@@@$9sssssss",
"dssssp>.....,psssssssssssssssp>.....-psst%@@@@@5asssssss9#@@@@$0a8@@@@@%ysssssss",
"dssssp>.....>psssssssssssssssi;.....;psst%@@@@@5sssssssst%@@@@@7a3@@@@@=asssssss",
"dssssp,.....:isssssssssssssssi-.....:psst%@@@@@5ssssssssa*@@@@@=t&@@@@@7ssssssss",
"dsssss<.....;issssssssssssssswO.....<ssst%@@@@@4asssssssa3@@@@@&8$@@@@#9ssssssss",
"dsssss1X....+esssssssssssssss1X....oqssst%@@@@@4assssssss8@@@@@$=#@@@@%tssssssss",
"dsssssqo....o1psssssssssssssi:.....+essst%@@@@@3asssssssst$@@@@@$@@@@@=assssssss",
"dssssse+.....-qpsssssssssssi1O.....;issst%@@@@@3assssssssa*@@@@@@@@@@@5assssssss",
"dsssssi;.....X-1eiipssspiew<O.....X<psssy%@@@@@=assssssssa4@@@@@@@@@@#8sssssssss",
"dsssssp,.......O-;><ese<:-+o......Owssssy%@@@@@*ysssssssss8#@@@@@@@@@%tsssssssss",
"dssssssqo....... ..o1p<o.. .......;issssy%@@@@@%9aaauasssst%@@@@@@@@@=asssssssss",
"dssssssi;...........,i>..........o1pssssu&@@@@@@%373=0asssa&@@@@@@@@@7ssssssssss",
"dssssssp1o..........,i>..........;esssssa*@@@@@@@@#@@3asssa3@@@@@@@@$0ssssssssss",
"dsssssssi>X.........,i>.........+2psssssa4@@@@@@@@@@@3asssa9#@@@@@@@%yssssssssss",
"dssssssssw;X........,i>........O<isssssss0$@@@@@@@@@@3asssat%@@@@@@@=assssssssss",
"dsssssssspq:o.......,i>.......O<rssssssssa=@@@@@@@@@@3asssay*@@@@@@@7assssssssss",
"dssssssssspe<-o.. ..,i>.  .XO;1issssssssss0*@@@@@@@@@3assssa3@@@@@@$0sssssssssss",
"dssssssssssspe1>-OoO<p<oo+;,qepsssssssssssat3%#@@@@$&9sssssst=&&&**4ysssssssssss",
"dsssssssssssssspeq11ese1qeipssssssssssssssssat733368tassssssauyyyuuaasssssssssss",
"dsssssssssssssssssssssssssssssssssssssssssssssssssssssssssssssssssssssssssssssss",
"dsssssssssssssssssssssssssssssssssssssssssssssssssssssssssssssssssssssssssssssss",
"dsssssssssssssssssssssssssssssssssssssssssssssssssssssssssssssssssssssssssssssss",
"dsssssssssssssssssssssssssssssssssssssssssssssssssssssssssssssssssssssssssssssss",
"dsssssssssssssssssssssssssssssssssssssssssssssssssssssssssssssssssssssssssssssss",
"dsssssssssssssssssssssssssssssssssssssssssssssssssssssssssssssssssssssssssssssss",
"dsssssssssssssssssssssssssssssssssssssssssssssssssssssssssssssssssssssssssssssss",
"dsssssssssssssssssssssssssssssssssssssssssssssssssssssssssssssssssssssssssssssss",
"dsssssssssssssssssssssssssssssssssssssssssssssssssssssssssssssssssssssssssssssss",
"dsssssssssssssssssssssssssssssssssssssssssssssssssssssssssssssssssssssssssssssss",
"dsssssssssssssssssssssssssssssssssssssssssssssssssssssssssssssssssssssssssssssss",
"dsssssssssssssssssssssssssssssssssssssssssssssssssssssssssssssssssssssssssssssss",
"dsssssssssssssssssssssssssssssssssssssssssssssssssssssssssssssssssssssssssssssss",
"dsssssssssssssssssssssssssssssssssssssssssssssssssssssssssssssssssssssssssssssss",
"dsssssssssssssssssssssssssssssssssssssssssssssssssssssssssssssssssssssssssssssss",
"dsssssssssssssssssssssssssssssssssssssssssssssssssssssssssssssssssssssssssssssss",
"dsssssssssssssssssssssssssssssssssssssssssssssssssssssssssssssssssssssssssssssss",
"dsssssssssssssssssssssssssssssssssssssssssssssssssssssssssssssssssssssssssssssss",
"dsssssssssssssssssssssssssssssssssssssssssssssssssssssssssssssssssssssssssssssss"
};
