/* XPM */
static char *CATALUNYA_INFORMACI__[] = {
/* columns rows colors chars-per-pixel */
"80 80 64 1",
"F c None",
"  c #46535B",
". c #49555C",
"X c #4C585B",
"o c #56575A",
"O c #7A5055",
"+ c #735256",
"@ c #6C5357",
"# c #596059",
"$ c #6A694E",
"% c #4E5A61",
"& c #515D64",
"* c #59656B",
"= c #57636A",
"- c #5E6A70",
"; c #626D73",
": c #6A747A",
"> c #697479",
", c #DA373C",
"< c #E43138",
"1 c #C93D41",
"2 c #904D50",
"3 c #B04448",
"4 c #847A46",
"5 c #C54044",
"6 c #AE9331",
"7 c #98863D",
"8 c #F8BD02",
"9 c #EBB50A",
"0 c #CFA724",
"q c #CCA422",
"w c #FEC000",
"e c #727C82",
"r c #7B8489",
"t c #788287",
"y c #848C91",
"u c #8B9398",
"i c #91999D",
"p c #818A8F",
"a c #959DA1",
"s c #9AA1A5",
"d c #9EA5A8",
"f c #A3AAAD",
"g c #A0A7AA",
"h c #A7AEB1",
"j c #ACB2B5",
"k c #AFB5B8",
"l c #B4B9BC",
"z c #B1B7BA",
"x c #B9BEC1",
"c c #BDC2C4",
"v c #C4C8CA",
"b c #CBCED0",
"n c #CED1D3",
"m c #D5D8DA",
"M c #DCDEE0",
"N c #DEE0E1",
"B c #E2E4E5",
"V c #EAECEC",
"C c #E6E8E8",
"Z c #F2F3F3",
"A c #FEFEFE",
"S c #F7F7F8",
"D c #EEEFF0",
/* pixels */
"FAAAAAAAAAAAAAAAAAAAAAAAAAAAAAAAAAAAAAAAAAAAAAAAAAAAAAAAAAAAAAAAAAAAAAAAAAAAAAAA",
"FAAAAAAAAAAAAAAAAAAAAAAAAAAAAAAAAAVci:&  .=esbZAAAAAAAAAAAAAAAAAAAAAAAAAAAAAAAAA",
"FAAAAAAAAAAAAAAAAAAAAAAAAAAAAAAACj:&.       .=rxZAAAAAAAAAAAAAAAAAAAAAAAAAAAAAAA",
"FAAAAAAAAAAAAAAAAAAAAAAAAAAAAASl>.             %tbAAAAAAAAAAAAAAAAAAAAAAAAAAAAAA",
"FAAAAAAAAAAAAAAAAAAAAAAAAAAAACu%                 =fZAAAAAAAAAAAAAAAAAAAAAAAAAAAA",
"FAAAAAAAAAAAAAAAAAAAAAAAAAAAme.                   XuVAAAAAAAAAAAAAAAAAAAAAAAAAAA",
"FAAAAAAAAAAAAAAAAAAAAAAAAAAm:                      .pVAAAAAAAAAAAAAAAAAAAAAAAAAA",
"FAAAAAAAAAAAAAAAAAAAAAAAAAN:                        .yDAAAAAAAAAAAAAAAAAAAAAAAAA",
"FAAAAAAAAAAAAAAAAAAAAAAAAVr                          .aSAAAAAAAAAAAAAAAAAAAAAAAA",
"FAAAAAAAAAAAAAAAAAAAAAAASa.                           %xAAAAAAAAAAAAAAAAAAAAAAAA",
"FAAAAAAAAAAAAAAAAAAAAAAAc&                             ;mAAAAAAAAAAAAAAAAAAAAAAA",
"FAAAAAAAAAAAAAAAAAAAAAAC:                               ySAAAAAAAAAAAAAAAAAAAAAA",
"FAAAAAAAAAAAAAAAAAAAAAAg.                               %vAAAAAAAAAAAAAAAAAAAAAA",
"FAAAAAAAAAAAAAAAAAAAAAN-                                 tZAAAAAAAAAAAAAAAAAAAAA",
"FAAAAAAAAAAAAAAAAAAAAAs                                  %cAAAAAAAAAAAAAAAAAAAAA",
"FAAAAAAAAAAAAAAAAAAAAC;                                   rSAAAAAAAAAAAAAAAAAAAA",
"FAAAAAAAAAAAAAAAAAAAAz.                      ..           &nAAAAAAAAAAAAAAAAAAAA",
"FAAAAAAAAAAAAAAAAAAASr                      X2@            sAAAAAAAAAAAAAAAAAAAA",
"FAAAAAAAAAAAAAAAAAAAm=                     o3,O            :DAAAAAAAAAAAAAAAAAAA",
"FAAAAAAAAAAAAAAAAAAAj                     @3<<O            %nAAAAAAAAAAAAAAAAAAA",
"FAAAAAAAAAAAAAAAAAASp                   .21<<<O   #$X       fAAAAAAAAAAAAAAAAAAA",
"FAAAAAAAAAAAAAAAAAAV;                  o2,<<<<O  $097.      rSAAAAAAAAAAAAAAAAAA",
"FAAAAAAAAAAAAAAAAAAn%                 o3<<<<<<O .6ww9#      ;VAAAAAAAAAAAAAAAAAA",
"FAAAAAAAAAAAAAAAAAAz                .+1<<<<<<<O Xqww9$      &mAAAAAAAAAAAAAAAAAA",
"FAAAAAAAAAAAAAAAAAAs               X2,<<<<<<<<O  6ww0o      .cAAAAAAAAAAAAAAAAAA",
"FAAAAAAAAAAAAAAAAASp              o3<<<<<<<<<<O  #6q$        fAAAAAAAAAAAAAAAAAA",
"FAAAAAAAAAAAAAAAAAZe             @3<<<<<<<<<<<O .Xo#X        iAAAAAAAAAAAAAAAAAA",
"FAAAAAAAAAAAAAAAAAV;           .O1<<<<<<<<<<<<O #qqqq#       yAAAAAAAAAAAAAAAAAA",
"FAAAAAAAAAAAAAAAAAB-          X2,<<<<<<<<<<<<<O $9ww9$       tSAAAAAAAAAAAAAAAAA",
"FAAAAAAAAAAAAAAAAAM*         o3<<<<<<<<<<<<<<<O $98w9$       eZAAAAAAAAAAAAAAAAA",
"FAAAAAAAAAAAAAAAAAm=        @5<<<<<<<<<<<<<<<<O $9ww9$       eZAAAAAAAAAAAAAAAAA",
"FAAAAAAAAAAAAAAAAAm=        @1<<<<<<<<<<<<<<<<O X6ww9$       eZAAAAAAAAAAAAAAAAA",
"FAAAAAAAAAAAAAAAAAm*         o3<<<<<<<<<<<<<<<O  6ww9$       eZAAAAAAAAAAAAAAAAA",
"FAAAAAAAAAAAAAAAAAB-          X2,<<<<<<<<<<<<<O  6ww9$       tSAAAAAAAAAAAAAAAAA",
"FAAAAAAAAAAAAAAAAAC;           .O1<<<<<<<<<<<<O  6ww9$       rSAAAAAAAAAAAAAAAAA",
"FAAAAAAAAAAAAAAAAAD:             @3<<<<<<<<<<<O  6ww9$       uAAAAAAAAAAAAAAAAAA",
"FAAAAAAAAAAAAAAAAASr              o3<<<<<<<<<<O X6w89$       dAAAAAAAAAAAAAAAAAA",
"FAAAAAAAAAAAAAAAAAAi               X2,<<<<<<<<O $9888qX      lAAAAAAAAAAAAAAAAAA",
"FAAAAAAAAAAAAAAAAAAh                .O1<<<<<<<O 4888wqX     %bAAAAAAAAAAAAAAAAAA",
"FAAAAAAAAAAAAAAAAAAvX                 @3<<<<<<O 48wwwqX     *BAAAAAAAAAAAAAAAAAA",
"FAAAAAAAAAAAAAAAAAAB*                  o2,<<<<O $00006X     eZAAAAAAAAAAAAAAAAAA",
"FAAAAAAAAAAAAAAAAAASe                   .2,<<<O Xo###o      aAAAAAAAAAAAAAAAAAAA",
"FAAAAAAAAAAAAAAAAAAAs                     +1<<O            .cAAAAAAAAAAAAAAAAAAA",
"FAAAAAAAAAAAAAAAAAAAb%                     o3,O            -CAAAAAAAAAAAAAAAAAAA",
"FAAAAAAAAAAAAAAAAAAAD:                      X2+            yAAAAAAAAAAAAAAAAAAAA",
"FAAAAAAAAAAAAAAAAAAAAs                       ..           XcAAAAAAAAAAAAAAAAAAAA",
"FAAAAAAAAAAAAAAAAAAAAm=                                   >VAAAAAAAAAAAAAAAAAAAA",
"FAAAAAAAAAAAAAAAAAAAASy                                   fAAAAAAAAAAAAAAAAAAAAA",
"FAAAAAAAAAAAAAAAAAAAAAb&                                 ;BAAAAAAAAAAAAAAAAAAAAA",
"FAAAAAAAAAAAAAAAAAAAAASy                                .fAAAAAAAAAAAAAAAAAAAAAA",
"FAAAAAAAAAAAAAAAAAAAAAAm=                               :VAAAAAAAAAAAAAAAAAAAAAA",
"FAAAAAAAAAAAAAAAAAAAAAAAd.                             &cAAAAAAAAAAAAAAAAAAAAAAA",
"FAAAAAAAAAAAAAAAAAAAAAAAVe                             iSAAAAAAAAAAAAAAAAAAAAAAA",
"FAAAAAAAAAAAAAAAAAAAAAAAAm-                           eVAAAAAAAAAAAAAAAAAAAAAAAA",
"FAAAAAAAAAAAAAAAAAAAAAAAAAc=                         ;mAAAAAAAAAAAAAAAAAAAAAAAAA",
"FAAAAAAAAAAAAAAAAAAAAAAAAAAk&                       -bAAAAAAAAAAAAAAAAAAAAAAAAAA",
"FAAAAAAAAAAAAAAAAAAAAAAAAAASz=                     ;bAAAAAAAAAAAAAAAAAAAAAAAAAAA",
"FAAAAAAAAAAAAAAAAAAAAAAAAAAAAv;                  .emAAAAAAAAAAAAAAAAAAAAAAAAAAAA",
"FAAAAAAAAAAAAAAAAAAAAAAAAAAAAAmy%               =sVAAAAAAAAAAAAAAAAAAAAAAAAAAAAA",
"FAAAAAAAAAAAAAAAAAAAAAAAAAAAAAASce%           =ynSAAAAAAAAAAAAAAAAAAAAAAAAAAAAAA",
"FAAAAAAAAAAAAAAAAAAAAAAAAAAAAAAAAZvi>=%...%=esnSAAAAAAAAAAAAAAAAAAAAAAAAAAAAAAAA",
"FAAAAAAAAAAAAAAAAAAAAAAAAAAAAAAAAAAAVmvlllvMZAAAAAAAAAAAAAAAAAAAAAAAAAAAAAAAAAAA",
"FAAAAAAAAAAAAAAAAAAAAAAAAAAAAAAAAAAAAAAAAAAAAAAAAAAAAAAAAAAAAAAAAAAAAAAAAAAAAAAA",
"FAAAAAAAAAAAAAAAAAAAAAAAAAAAAADSAAAAZkkZAAAAAAAAAAAAAAAAAAAAAAAAAAAAAAAAAAAAAAAA",
"FAAAAAAAAAAAAAAAAAAAAAAAAAAAAnuZAAAAVt*BAAAAAAAAAAAAAAAAAAAAAAAAAAAAAAAAAAAAAAAA",
"FAAAAAAAAAAAAAAAAAASvhxnBjgnZr=vmhfmAl-bzvvkBbkcjmvjbcknldcSAAAAAAAAAAAAAAAAAAAA",
"FAAAAAAAAAAAAAAAAAAz=>&ihye;n:%hdy:>Vx-c;ta%ch%*=ey.ap*iyy=vAAAAAAAAAAAAAAAAAAAA",
"FAAAAAAAAAAAAAAAAAStrVlcbir&ma;Vvie=Nx-Butn=vC=ga>m;sudBay&fAAAAAAAAAAAAAAAAAAAA",
"FAAAAAAAAAAAAAAAAASerZbmeru&ms;m:yp=ml*Buev=cB*jf;Vs-;mg;s%dAAAAAAAAAAAAAAAAAAAA",
"FAAAAAAAAAAAAAAAAAAk=e*jt:t.us%d:ee.ye.fs&;.rs.ta%lm&eSg-y%:BAAAAAAAAAAAAAAAAAAA",
"FAAAAAAAAAAAAAAAAAAScsxZMhllvNhnmhlzxlknBjlzxvkxnkmZ:fAVkzllDAAAAAAAAAAAAAAAAAAA",
"FAAAAAAAAAAAAAAAAACmAAAAAAAmvZAAAAAAAAAAAAAAAAAAAASf;mAABmAANvZAAAAAAAAAAAAAAAAA",
"FAAAAAAAAAAAAAAAAAjeZAAAAAm;>nAAAAAAAAAAAAAAAAAAAASkkSAAdpSSifSAAAAAAAAAAAAAAAAA",
"FAAAAAAAAAAAAAAAAAxhZNBmBAf=vSmnZSMCBCNNMmZmBASmnVAANmBDlzAVfnSAAAAAAAAAAAAAAAAA",
"FAAAAAAAAAAAAAAAAA;tn:--eMe.jl-*im>::h:*;*e->Nce>rZx-;;z>yZi-;jAAAAAAAAAAAAAAAAA",
"FAAAAAAAAAAAAAAAAAi>Va;g=mf*neuz*ni%sCs=z>ej=vNfu*meyvymytn*zu*AAAAAAAAAAAAAAAAA",
"FAAAAAAAAAAAAAAAAAf:Zfen*mz;m>jm=bd>ZAh;VraB-vf>e=n>hANSitv*mj&AAAAAAAAAAAAAAAAA",
"FAAAAAAAAAAAAAAAAAt*cr-l=fu&vy:y;nt-nDr=crev*ittu%jy>aene;c;y:eAAAAAAAAAAAAAAAAA",
"FAAAAAAAAAAAAAAAAAeesrejtuy:zme>xme:zBt:fsexrrjeresmr;gmtevl>tnAAAAAAAAAAAAAAAAA",
"FAAAAAAAAAAAAAAAAAAAAAAAAAAAAAAAAAAAAAAAAAAAAAAAAAAAAAAAAAAAAAAAAAAAAAAAAAAAAAAA"
};
