/* XPM */
static char *Clan[] = {
/* columns rows colors chars-per-pixel */
"80 80 77 1",
"  c #D724F5",
". c #D923F5",
"X c #D62AF5",
"o c #D92DF5",
"O c #D533F4",
"+ c #DA32F4",
"@ c #D63CF4",
"# c #DB3BF4",
"$ c #E13FF4",
"% c #D458EF",
"& c #D643F4",
"* c #DB45F4",
"= c #D649F2",
"- c #DC4AF4",
"; c #D752F1",
": c #DC54F4",
"> c #D158F4",
", c #DA5BF3",
"< c #E343F4",
"1 c #E34CF5",
"2 c #E352F4",
"3 c #E35BF4",
"4 c #D973EE",
"5 c #D062F4",
"6 c #DD64F4",
"7 c #D769F2",
"8 c #DC6CF4",
"9 c #CF74F4",
"0 c #DD72F4",
"q c #D87AF4",
"w c #E164F5",
"e c #E967F3",
"r c #E46CF4",
"t c #E869F4",
"y c #E274F5",
"u c #E975F5",
"i c #E57CF4",
"p c #DA82F2",
"a c #DB8CF4",
"s c #E485F5",
"d c #EB85F4",
"f c #E38AF5",
"g c #E98FF4",
"h c #E594F4",
"j c #EB94F5",
"k c #E69EF5",
"l c #EC9BF5",
"z c #E4A5F4",
"x c #EBA3F4",
"c c #E7ACF5",
"v c #EBADF5",
"b c #F0ACF6",
"n c #E6B2F4",
"m c #ECB3F4",
"M c #E0BCF4",
"N c #ECBBF5",
"B c #F2B7F2",
"V c #F2B8F5",
"C c #E0C0F4",
"Z c #ECC4F5",
"A c #EDC9F5",
"S c #F3C4F6",
"D c #F2CDF6",
"F c #EDD0F5",
"G c #EFDEF5",
"H c #F2D4F5",
"J c #F3DBF6",
"K c #F4DDF8",
"L c #F5E3F6",
"P c #F6ECF7",
"I c #F8EEF7",
"U c #F7EDF8",
"Y c #F8EEF8",
"T c #F7F2F7",
"R c #F8F4F7",
"E c #F8F1F8",
"W c None",
/* pixels */
"WWWWWWWWWWWWWWWWWWWWWWWWWWWWWWWWWWWWWWWWWWWWWWWWWWWWWWWWWWWWWWWWWWWWWWWWWWWWWWWW",
"WWWWWWWWWWWWWWWWWWWWWWWWWWWWWWWWWWWWWWWWWWWWWWWWWWWWWWWWWWWWWWWWWWWWWWWWWWWWWWWW",
"WWWWWWWWWWWWWWWWWWWWWWWWWWWWWWWWWWWWWWWWWWWWWWWWWWWWWWWWWWWWWWWWWWWWWWWWWWWWWWWW",
"WWWWWWWWWWWWWWWWWWWWWWWWWWWWWWWWWWWWWWWWWWWWWWWWWWWWWWWWWWWWWWWWWWWWWWWWWWWWWWWW",
"WWWWWWWWWWWWWWWWWWWWWWWWWWWWWWWWWWWWWWWWWWWWWWWWWWWWWWWWWWWWWWWWWWWWWWWWWWWWWWWW",
"WWWWWWWWWWWWWWWWWWWWWWWWWWWWWWWWWWWWWWWWWWWWWWWWWWWWWWWWWWWWWWWWWWWWWWWWWWWWWWWW",
"WWWWWWWWWWWWWWWWWWWWWWWWWWWWWWWWWWWWWWWWWWWWWWWWWWWWWWWWWWWWWWWWWWWWWWWWWWWWWWWW",
"WWWWWWWWWWWWWWWWWWWWWWWWWWWWWWWWWWWWWWWWWWWWWWWWWWWWWWWWWWWWWWWWWWWWWWWWWWWWWWWW",
"WWWWWWWWWWWWWWWWWWWWWWWWWWWWWWWWWWWWWWWWWWWWWWWWWWWWWWWWWWWWWWWWWWWWWWWWWWWWWWWW",
"WWWWWWWWWWWWWWWWWWWWWWWWWWWWWWWWWWWWWWWWWWWWWWWWWWWWWWWWWWWWWWWWWWWWWWWWWWWWWWWW",
"WWWWWWWWWWWWWWWWWWWWWWWWWWWWWWWWWWWWWWWWWWWWWWWWWWWWWWWWWWWWWWWWWWWWWWWWWWWWWWWW",
"WWWWWWWWWWWWWWWWWWWWWWWWWWWWWWWWWWWWWWWWWWWWWWWWWWWWWWWWWWWWWWWWWWWWWWWWWWWWWWWW",
"WWWWWWWWWWWWWWWWWWWWWWWWWWWWWWWWWWWWWWWWWWWWWWWWWWWWWWWWWWWWWWWWWWWWWWWWWWWWWWWW",
"WWWWWWWWWWWWWWWWWWWWWWWWWWWWWWWWWWWWWWWWWWWWWWWWWWWWWWWWWWWWWWWWWWWWWWWWWWWWWWWW",
"WWWWWWWWWWWWWWWWWWWWWWWWWWWWWWWWWWWWWWWWWWWWWWWWWWWWWWWWWWWWWWWWWWWWWWWWWWWWWWWW",
"WWWWWWWWWWWWWWWWWWWWWWWWWWWWWWWWWWWWWWWWWWWWWWWWWWWWWWWWWWWWWWWWWWWWWWWWWWWWWWWW",
"WWWWWWWWWWWWWWWWWWWWWWWWWWWWWWWWWWWWWWWWWWWWWWWWWWWWWWWWWWWWWWWWWWWWWWWWWWWWWWWW",
"WWWWWWWWWWWWWWWWWWWWWWWWWWWWWWWWWWWWWWWWWWWWWWWWWWWWWWWWWWWWWWWWWWWWWWWWWWWWWWWW",
"WWWWWWWWWWWWWWWWWWWWWWWWWWWWWWWWWWWWWWWWWWWWWWWWWWWWWWWWWWWWWWWWWWWWWWWWWWWWWWWW",
"WWWWWWWWWWWWWWWWWWWWWWWWWWWWWWWWWWWWWWWWWWWWWWWWWWWWWWWWWWWWWWWWWWWWWWWWWWWWWWWW",
"WWWWWWWWWWWWWWWWWWWWWWWWWWWWWWWWWWWWWWWWWWWWWWWWWWWWWWWWWWWWWWWWWWWWWWWWWWWWWWWW",
"WWWWWWWWWWWWWWWWWWWWWWWWWWWWWWWWWWWWWWWWWWWWWWWWWWWWWWWWWWWWWWWWWWWWWWWWWWWWWWWW",
"WWWWWWWWWWWWWWWWWWWWWWWWWWWWWWWWWWWWWWWWWWWWWWWWWWWWWWWWWWWWWWWWWWWWWWWWWWWWWWWW",
"WWWWWWWWWWWWWWWWWWWWWWWWWWWWWW...........WWWWWWWWWWWWWWWWWWWWWWWWWWWWWWWWWWWWWWW",
"WWWWWWWWWWWWWWWWWWWWWWWWWW......................WWWWWWWWWWWWWWWWWWWWWWWWWWWWWWWW",
"WWWWWWWWWWWWWWWWWWWWWWW..............................WWWWWWWWWWWWWWWWWWWWWWWWWWW",
"WWWWWWWWWWWWWWWWWWWWW...................................WWWWWWWWWWWWWWWWWWWWWWWW",
"WWWWWWWWWWWWWWWWWWWW......................................WWWWWWWWWWWWWWWWWWWWWW",
"WWWWWWWWWWWWWWWWWWW.........................................WWWWWWWWWWWWWWWWWWWW",
"WWWWWWWWWWWWWWWWWW............................................WWWWWWWWWWWWWWWWWW",
"WWWWWWWWWWWWWWWWW.............. .oo............................WWWWWWWWWWWWWWWWW",
"WWWWWWWWWWWWWWWWW.............+-ri:.............................WWWWWWWWWWWWWWWW",
"WWWWWWWWWWWWWWWW..............:vJJso ... ........................WWWWWWWWWWWWWWW",
"WWWWWWWWWWWWWWWW..............-cPUho....  .......................WWWWWWWWWWWWWWW",
"WWWWWWWWWWWWWWWW.........X##+oX0LUh+   o+++o. .......o+o..........WWWWWWWWWWWWWW",
"WWWWWWWWWWWWWWWW.......X,fxcj6o6JUh+.o3sjlge+  +2ee1eddu$.........WWWWWWWWWWWWWW",
"WWWWWWWWWWWWWWWW......O8NLUUUc*wJPgo.*xJLKLHd+.3BJHBSJPJu+........WWWWWWWWWWWWWW",
"WWWWWWWWWWWWWWWW......:NEKccLZ:wJPjo.+fxssSTS1.1BTTDlxJTB<........WWWWWWWWWWWWWW",
"WWWWWWWWWWWWWWWW.....opLUc-:cz-wJUj+  +@o+gPH3..eLIg$<bTS1........WWWWWWWWWWWWWW",
"WWWWWWWWWWWWWWWW.....#kULsoo--+6KUjo. @:yimTH3..eJLu.+jIS1........WWWWWWWWWWWWWW",
"WWWWWWWWWWWWWWWW.....&cEG0 ...X6JUl+ -hSFHLTH, .tLLu.olIS2........WWWWWWWWWWWWWW",
"WWWWWWWWWWWWWWWW.....&nRK0  ...6JUh+ofLLvsvPH3 .tLLu.$lTS1........WWWWWWWWWWWWWW",
"WWWWWWWWWWWWWWWWW....&zELaO ...8KUlO#vTA;osLH6  uKLu.$lES1........WWWWWWWWWWWWWW",
"WWWWWWWWWWWWWWWWW....OaLEZ8:,-X6JEN8;vTA6=kPJe ouLLdo+lIHe.......WWWWWWWWWWWWWWW",
"WWWWWWWWWWWWWWWWW ...X5MUUFCAh#:ARPZ4hLLNvHILx*-bUUN2$lPLd$......WWWWWWWWWWWWWWW",
"WWWWWWWWWWWWWWWWWW....O9MLLLKz&@hGLA4>zHJZnDHm:3bSSb3$dSSb1.....WWWWWWWWWWWWWWWW",
"WWWWWWWWWWWWWWWWWW  ..XO>qaa0:o.@7p7@X&54%=,6;o+----$.$232$....WWWWWWWWWWWWWWWWW",
"WWWWWWWWWWWWWWWWWWW......XoXX... XXX            ...............WWWWWWWWWWWWWWWWW",
"WWWWWWWWWWWWWWWWWWWW..........................................WWWWWWWWWWWWWWWWWW",
"WWWWWWWWWWWWWWWWWWWW........................................WWWWWWWWWWWWWWWWWWWW",
"WWWWWWWWWWWWWWWWWWWWW......................................WWWWWWWWWWWWWWWWWWWWW",
"WWWWWWWWWWWWWWWWWWWWWWW..................................WWWWWWWWWWWWWWWWWWWWWWW",
"WWWWWWWWWWWWWWWWWWWWWWWW...............................WWWWWWWWWWWWWWWWWWWWWWWWW",
"WWWWWWWWWWWWWWWWWWWWWWWWW............................WWWWWWWWWWWWWWWWWWWWWWWWWWW",
"WWWWWWWWWWWWWWWWWWWWWWWWWWW.......................WWWWWWWWWWWWWWWWWWWWWWWWWWWWWW",
"WWWWWWWWWWWWWWWWWWWWWWWWWWWWWW.................WWWWWWWWWWWWWWWWWWWWWWWWWWWWWWWWW",
"WWWWWWWWWWWWWWWWWWWWWWWWWWWWWWWWWW........WWWWWWWWWWWWWWWWWWWWWWWWWWWWWWWWWWWWWW",
"WWWWWWWWWWWWWWWWWWWWWWWWWWWWWWWWWWWWWWWWWWWWWWWWWWWWWWWWWWWWWWWWWWWWWWWWWWWWWWWW",
"WWWWWWWWWWWWWWWWWWWWWWWWWWWWWWWWWWWWWWWWWWWWWWWWWWWWWWWWWWWWWWWWWWWWWWWWWWWWWWWW",
"WWWWWWWWWWWWWWWWWWWWWWWWWWWWWWWWWWWWWWWWWWWWWWWWWWWWWWWWWWWWWWWWWWWWWWWWWWWWWWWW",
"WWWWWWWWWWWWWWWWWWWWWWWWWWWWWWWWWWWWWWWWWWWWWWWWWWWWWWWWWWWWWWWWWWWWWWWWWWWWWWWW",
"WWWWWWWWWWWWWWWWWWWWWWWWWWWWWWWWWWWWWWWWWWWWWWWWWWWWWWWWWWWWWWWWWWWWWWWWWWWWWWWW",
"WWWWWWWWWWWWWWWWWWWWWWWWWWWWWWWWWWWWWWWWWWWWWWWWWWWWWWWWWWWWWWWWWWWWWWWWWWWWWWWW",
"WWWWWWWWWWWWWWWWWWWWWWWWWWWWWWWWWWWWWWWWWWWWWWWWWWWWWWWWWWWWWWWWWWWWWWWWWWWWWWWW",
"WWWWWWWWWWWWWWWWWWWWWWWWWWWWWWWWWWWWWWWWWWWWWWWWWWWWWWWWWWWWWWWWWWWWWWWWWWWWWWWW",
"WWWWWWWWWWWWWWWWWWWWWWWWWWWWWWWWWWWWWWWWWWWWWWWWWWWWWWWWWWWWWWWWWWWWWWWWWWWWWWWW",
"WWWWWWWWWWWWWWWWWWWWWWWWWWWWWWWWWWWWWWWWWWWWWWWWWWWWWWWWWWWWWWWWWWWWWWWWWWWWWWWW",
"WWWWWWWWWWWWWWWWWWWWWWWWWWWWWWWWWWWWWWWWWWWWWWWWWWWWWWWWWWWWWWWWWWWWWWWWWWWWWWWW",
"WWWWWWWWWWWWWWWWWWWWWWWWWWWWWWWWWWWWWWWWWWWWWWWWWWWWWWWWWWWWWWWWWWWWWWWWWWWWWWWW",
"WWWWWWWWWWWWWWWWWWWWWWWWWWWWWWWWWWWWWWWWWWWWWWWWWWWWWWWWWWWWWWWWWWWWWWWWWWWWWWWW",
"WWWWWWWWWWWWWWWWWWWWWWWWWWWWWWWWWWWWWWWWWWWWWWWWWWWWWWWWWWWWWWWWWWWWWWWWWWWWWWWW",
"WWWWWWWWWWWWWWWWWWWWWWWWWWWWWWWWWWWWWWWWWWWWWWWWWWWWWWWWWWWWWWWWWWWWWWWWWWWWWWWW",
"WWWWWWWWWWWWWWWWWWWWWWWWWWWWWWWWWWWWWWWWWWWWWWWWWWWWWWWWWWWWWWWWWWWWWWWWWWWWWWWW",
"WWWWWWWWWWWWWWWWWWWWWWWWWWWWWWWWWWWWWWWWWWWWWWWWWWWWWWWWWWWWWWWWWWWWWWWWWWWWWWWW",
"WWWWWWWWWWWWWWWWWWWWWWWWWWWWWWWWWWWWWWWWWWWWWWWWWWWWWWWWWWWWWWWWWWWWWWWWWWWWWWWW",
"WWWWWWWWWWWWWWWWWWWWWWWWWWWWWWWWWWWWWWWWWWWWWWWWWWWWWWWWWWWWWWWWWWWWWWWWWWWWWWWW",
"WWWWWWWWWWWWWWWWWWWWWWWWWWWWWWWWWWWWWWWWWWWWWWWWWWWWWWWWWWWWWWWWWWWWWWWWWWWWWWWW",
"WWWWWWWWWWWWWWWWWWWWWWWWWWWWWWWWWWWWWWWWWWWWWWWWWWWWWWWWWWWWWWWWWWWWWWWWWWWWWWWW",
"WWWWWWWWWWWWWWWWWWWWWWWWWWWWWWWWWWWWWWWWWWWWWWWWWWWWWWWWWWWWWWWWWWWWWWWWWWWWWWWW",
"WWWWWWWWWWWWWWWWWWWWWWWWWWWWWWWWWWWWWWWWWWWWWWWWWWWWWWWWWWWWWWWWWWWWWWWWWWWWWWWW"
};
