/* XPM */
static char *CNN_[] = {
/* columns rows colors chars-per-pixel */
"80 80 64 1",
"F c None",
"  c #7A2B2C",
". c #7D1C1A",
"X c #890D13",
"o c #920D16",
"O c #841413",
"+ c #8B1314",
"@ c #871719",
"# c #921216",
"$ c #8B100D",
"% c #87211E",
"& c #881A23",
"* c #921A25",
"= c #8B2124",
"- c #882729",
"; c #922B33",
": c #943639",
"> c #8B2F31",
", c #90423B",
"< c #923B44",
"1 c #994747",
"2 c #9A5857",
"3 c #924B4E",
"4 c #A6595B",
"5 c #A14649",
"6 c #A85B62",
"7 c #A76766",
"8 c #B47878",
"9 c #AA7271",
"0 c #9E6461",
"q c #B1837C",
"w c #B67D83",
"e c #8C8C8C",
"r c #939393",
"t c #9C9C9B",
"y c #999A97",
"u c #B78D8B",
"i c #B4B4B4",
"p c #A9A6A6",
"a c #B2A59E",
"s c #C69A97",
"d c #C89090",
"f c #CAA49D",
"g c #C9A5A3",
"h c #D7B9B8",
"j c #CEB1AC",
"k c #CB9CA2",
"l c #D7C2BC",
"z c #DBC5C1",
"x c #DBDBDB",
"c c #CDC9C8",
"v c #E3C9C8",
"b c #E8D6D6",
"n c #E7D3CC",
"m c #E3E3E3",
"M c #EAEBEB",
"N c #F3E9E7",
"B c #F4F3F3",
"V c #F5FDFB",
"C c #FEFEFE",
"Z c #F9F8F6",
"A c #F2F5F2",
"S c #EAE1DE",
"D c #E0BFC2",
/* pixels */
"FCCCCCCCCCCCCCCCCCCCCCCCCCCCCCCCCCCCCCCCCCCCCCCCCCCCCCCCCCCCCCCCCCCCCCCCCCCCCCCC",
"FCCCCCCCCCCCCCCCCCCCCCCCCCCCCCCCCCCCCCCCCCCCCCCCCCCCCCCCCCCCCCCCCCCCCCCCCCCCCCCC",
"FCCCCCCCCCCCCCCCCCCCCCCCCCCCCCCCCCCCCCCCCCCCCCCCCCCCCCCCCCCCCCCCCCCCCCCCCCCCCCCC",
"FCCCCCCCCCCCCCCCCCCCCCCCCCCCCCCCCCCCCCCCCCCCCCCCCCCCCCCCCCCCCCCCCCCCCCCCCCCCCCCC",
"FCCCCCCCCCCCCCCCCCCCCCCCCCCCCCCCCCCCCCCCCCCCCCCCCCCCCCCCCCCCCCCCCCCCCCCCCCCCCCCC",
"FCCCCCCCCCCCCCCCCCCCCCCCCCCCCCCCCCCCCCCCCCCCCCCCCCCCCCCCCCCCCCCCCCCCCCCCCCCCCCCC",
"FCCCCCCCCCCCCCCCCCCCCCCCCCCCCCCCCCCCCCCCCCCCCCCCCCCCCCCCCCCCCCCCCCCCCCCCCCCCCCCC",
"FCCCCCCCCCCCCCCCCCCCCCCCCCCCCCCCCCCCCCCCCCCCCCCCCCCCCCCCCCCCCCCCCCCCCCCCCCCCCCCC",
"FCCCCCCCCCCCCCCCCCCCCCCCCCCCCCCCCCCCCCCCCCCCCCCCCCCCCCCCCCCCCCCCCCCCCCCCCCCCCCCC",
"FCCCCCCCCCCCCCCCCCCCCCCCCCCCCCCCCCCCCCCCCCCCCCCCCCCCCCCCCCCCCCCCCCCCCCCCCCCCCCCC",
"FCCCCCCCCCCCCCCCCCCCCCCCCCCCCCCCCCCCCCCCCCCCCCCCCCCCCCCCCCCCCCCCCCCCCCCCCCCCCCCC",
"FCCCCCCCCCCCCCCCCCCCCCCCCCCCCCCCCCCCCCCCCCCCCCCCCCCCCCCCCCCCCCCCCCCCCCCCCCCCCCCC",
"FCCCCCCCCCCCCCCCCCCCCCCCCCCCCCCCCCCCCCCCCCCCCCCCCCCCCCCCCCCCCCCCCCCCCCCCCCCCCCCC",
"FCCCCCCCCCCCCCCCCCCCCCCCCCCCCCCCCCCCCCCCCCCCCCCCCCCCCCCCCCCCCCCCCCCCCCCCCCCCCCCC",
"FCCCCCCCCCCCCCCCCCCCCCCCCCCCCCCCCCCCCCCCCCCCCCCCCCCCCCCCCCCCCCCCCCCCCCCCCCCCCCCC",
"FCCCCCCCCCCCCCCCCCCCCCCCCCCCCCCCCCCCCCCCCCCCCCCCCCCCCCCCCCCCCCCCCCCCCCCCCCCCCCCC",
"FCCCCCCCCCCCCCCCCCCCCCCCCCCCCCCCCCCCCCCCCCCCCCCCCCCCCCCCCCCCCCCCCCCCCCCCCCCCCCCC",
"FCCCCCCCCCCCCCCCCCCCCCCCCCCCCCCCCCCCCCCCCCCCCCCCCCCCCCCCCCCCCCCCCCCCCCCCCCCCCCCC",
"FCCCCCCCCCCCCCCCCCCCCCCCCCCCCCCCCCCCCCCCCCCCCCCCCCCCCCCCCCCCCCCCCCCCCCCCCCCCCCCC",
"FCCCCCCCCCCCCCCCCCCCCCCCCCCCCCCCCCCCCCCCCCCCCCCCCCCCCCCCCCCCCCCCCCCCCCCCCCCCCCCC",
"FCCCCCCVVCCCCCCCCCVCVCCCCCCCCCCCCCCCCCCCCCCCCCCCCCCCCCCCCCCCCCCCCCCCCCCCCCCCCCCC",
"FCCCCCCCCCVVVVVCCVVCVVCCCCCCCCCCCCCCCCCCCCCVCCCCCCZCCCCCCCCCCCCCCCCCCCCCCCCCCCCC",
"FCCCCCCCCCCVVVCCCVVCVVCCCCCCCCCCCCCCCCCCCCVVVVVVCCBxxxxxxxxxxxxxxxxxxxxxxxmCCCCC",
"FCCCCCCCCCCCCCCVVVCCVVVCCCCCCCCVVCCCVCCCCVVCVVVVCCMtrrrrrrrrrrrrrrrrrrrrrrpBCCCC",
"FCCCCCCCCVVVCCCVVCCVVZZCCVVCCCVVCZCCVVVCCVZZCCZCCCMyeeeeeeeeeeeeeeeeeeeeeetBCCCC",
"FCCCCCCCVVVVMbvDhhbVZbjhNZVVCVVZBvjvBVVVCVnhvShlNCMyeeeeeeeeerrrreeeeeeeeetBCCCC",
"FCCCCCCVZZSg0<-=- uVv2  7bZVZVVBu .:gBCCCA9.0g  zCMteeeeeeercxxxxcreeeeeeetBCCCC",
"FCCCCCVVZv2&@##+#XuM0@++@9NZCCZh @#O hZCCA7X2s@-lVMteeeeeeermCCCCmreeeeeeetBCCCC",
"FCCCCZVZl3+oXo#++ouj o@o+ hVZVB0O+ooO7MCCV7$4s+=lCMteeeeeeermCCCCmreeeeeeetBCCCC",
"FCCCCZZb2O#@2wddddcuO#24+@9AZVb:+>6;o-lVZV7$4s+=zCMyeeeeeeermCCCCmreeeeeeetBCCCC",
"FCCCVVBu@#:gbvhjjjz7O:lz1O;vZCv-@8nu&+8BZV7$4s+=zCMyeeeeeeermCCCCmreeeeeeetBCCCC",
"FCCCCVl>o:jz9:-==-u4O0gud@+dVCh=@gqj<+:bVV7$4s+=zCMyeeeeeeermCCCCmreeeeeeetBCCCC",
"FCCCCB9+=sl,O$O$oo84O6d3j:$2MVh#%g1uwO@aVV7$4s+=zCMyeeeeeeermCCCCmreeeeeeetBCCCC",
"FCCCCb>o2v2O#+@&*&84O6d&s9+-hVh#@g55j>O2NV7$4s+=zCMteeeeeeermCCCCmreeeeeeetBCCCC",
"FCCCCg@#fu&#*6dkssl4X6s@2f=+8Ah*%g5*f6O;vZ7$4s+=zCMteeeeeeermCCCCmreeeeeeetBCCCC",
"FCCCZ9$,h1o*uMVVVVM4o6s@-g4X:bh*%f1O7s&+uZ7$4s+=zCMteeeeeeermCCCCmreeeeeeetBCCCC",
"FCCCN5o7g&@7NVZZZCB4X7s@+9s@@fl*=f5O;j5O3b7X4s+=zCMtepiiiiiiMCCCCMiiiiiipetBCCCC",
"FCCCb:+u8+-hVVCCVCB4X6s&$>h1O0j**g1++8u@@g9X2s+=zCMtrmZZZZZZCCCCCCZZZZZCxetBCCCC",
"FCCCn>@g4$5NVVCCVCB4X6s&$.u8O>q=*g1OO<j:+07X4s+=zCMtrmCCCCCCCCCCCCCCCCCCxetBCCCC",
"FCCCv=%g1$8ZCCCCCCB4X6s@#O3j>#1%=g5O+*d9@><X4s@=zCMtrmCCCCCCCCCCCCCCCCCCxetBCCCC",
"FCCCz*=g<+uVCCVCCCB4X6s@$#&g7o@O=k5O+o4j-@@+4s@=zCMtrmCCCCCCCCCCCCCCCCCCxetBCCCC",
"FCCCv*=g<+uVCCVCCCB4X4s@$#o7f-#+=g1+OO-j2O++4s@=zCMtrmCCCCZCCCCCCCCCCCCCxetBCCCC",
"FCCCv=%g1$9ZZCCCZCB4X4s@@=o;j3+o%g1+>.@8s&$+4sO=zCMtrmCCCCCCCCCCCCCCCCCCxetBCCCC",
"FCCCb>@g7+3NZVCCVCB4X4s@-7++wu&o%g1O4,O:h1$+4s+=zCMyrmCCCCCCZCCCCZCCCCCCxetBCCCC",
"FCCCm:Ouq+-hVVCCVCB4X4s+>g>+<j:+%g5.88O@uq++2s+=zCMtrxBBBBBBZCCCCZBBBBBBxetBCCCC",
"FCCCB4O7j*O0NVVVZVB2$4s#;v9@&a8@=k5Oql-+3j;O4s+=zCMtetppppppMCCCCmpppppptetBCCCC",
"FCCCVw+:z3..9bBAAVM2$6s#;nj-#4j-&g1O8N4O=g7O2sO=zCMteeeeeeermCCCCmreeeeeeetBCCCC",
"FCCCCj&@sa=+@:788w9-o6s@;nN3+*f4*f1O8Zg@o7g*2sO=zCMteeeeeeermCCCCmreeeeeeetBCCCC",
"FCCCCm1X2x9@@OO@@OO$$4s@;nZu@+9s;f1O8Zb1+;j34s@=zCMteeeeeeermCCCCmreeeeeeetBCCCC",
"FCCCCAu@&un9 +ooO$$$$4d@>nCn>O:j3k1O8VVuO+uu6s+=zCMteeeeeeermCCCCmreeeeeeetBCCCC",
"FCCCCZn,o-amf4:<:;;>>9d@>bVB9#&uaj5O8VVv>o1jusO-zCMteeeeeeermCCCCmreeeeeeetBCCCC",
"FCCCCZAu&@ wvbnnnvvnnn0+:bVCh*o1zh;O8VZN7+#un8O-zCMteeeeeeermCCCCmreeeeeeetBCCCC",
"FCCCCZVN7@o#:698989986=+5NVCN2$@23@+uVZVj&$>7>O:bCMteeeeeeermCCCCmreeeeeeetBCCCC",
"FCCCCCCVb7.O@@@OO++O@++@8ZVCZs@++@+=jVZVm1++++O4NCMyeeeeeeermCCCCmreeeeeeetBCCCC",
"FCCCCCCCZSw>@+++++++++O1vCCCZb2@+++2SZCVZg-+#+-sZCMyeeeeeeermCCCCmreeeeeeetBCCCC",
"FCCCCCCVZZNh82<:;;;;;:2hBVCCVVz3..1hAZCVVNu-.-9NVCNyeeeeeeericcccireeeeeeetBCCCC",
"FCCCCCCVVCVVBNbvvvvvvvSZVVCCVVZbgsnAVVCVVZNhsjNAVCNyeeeeeeeeeeeeeeeeeeeeeetBCCCC",
"FCCCCCCVVCCCCCCCCVVVVVVVVCCCZCZZZZZVVCCVZCZZVVVVVCMyeeeeeeeeeeeeeeeeeeeeeetBCCCC",
"FCCCCCCCCCCCVVVVVCCCCCCCCCCVVCCVVVCCCCCVCCVVVVCCCCBiiiiiiiiiiiiiiiiiiiiiiiiZCCCC",
"FCCCCCCCCCVVVVZZZCCCCCCCCCCVVVVCCCCCCCCVVVVCCCCCCCZAZZZZZZZZZZZZZZZZZZZZZZZCCCCC",
"FCCCCCCCCCCCCCCZCCCCCCCCCCCCVVCCCCCCCCCCVVCCCCCCCCVCCCCCCCCCCCCCCCCCCCCCCCCCCCCC",
"FCCCCCCCCCCCCCCVCCCCCCCCVCCCCCCCCVVCCCCCCCCCCVVCCVVCCCCCCCCCCCCCCCCCCCCCCCCCCCCC",
"FCCCCCCCCCCCCCCCCCCCCCCCCCCCCCCCCCCCCCCCCCCCCCCCCCCCCCCCCCCCCCCCCCCCCCCCCCCCCCCC",
"FCCCCCCCCCCCCCCCCCCCCCCCCCCCCCCCCCCCCCCCCCCCCCCCCCCCCCCCCCCCCCCCCCCCCCCCCCCCCCCC",
"FCCCCCCCCCCCCCCCCCCCCCCCCCCCCCCCCCCCCCCCCCCCCCCCCCCCCCCCCCCCCCCCCCCCCCCCCCCCCCCC",
"FCCCCCCCCCCCCCCCCCCCCCCCCCCCCCCCCCCCCCCCCCCCCCCCCCCCCCCCCCCCCCCCCCCCCCCCCCCCCCCC",
"FCCCCCCCCCCCCCCCCCCCCCCCCCCCCCCCCCCCCCCCCCCCCCCCCCCCCCCCCCCCCCCCCCCCCCCCCCCCCCCC",
"FCCCCCCCCCCCCCCCCCCCCCCCCCCCCCCCCCCCCCCCCCCCCCCCCCCCCCCCCCCCCCCCCCCCCCCCCCCCCCCC",
"FCCCCCCCCCCCCCCCCCCCCCCCCCCCCCCCCCCCCCCCCCCCCCCCCCCCCCCCCCCCCCCCCCCCCCCCCCCCCCCC",
"FCCCCCCCCCCCCCCCCCCCCCCCCCCCCCCCCCCCCCCCCCCCCCCCCCCCCCCCCCCCCCCCCCCCCCCCCCCCCCCC",
"FCCCCCCCCCCCCCCCCCCCCCCCCCCCCCCCCCCCCCCCCCCCCCCCCCCCCCCCCCCCCCCCCCCCCCCCCCCCCCCC",
"FCCCCCCCCCCCCCCCCCCCCCCCCCCCCCCCCCCCCCCCCCCCCCCCCCCCCCCCCCCCCCCCCCCCCCCCCCCCCCCC",
"FCCCCCCCCCCCCCCCCCCCCCCCCCCCCCCCCCCCCCCCCCCCCCCCCCCCCCCCCCCCCCCCCCCCCCCCCCCCCCCC",
"FCCCCCCCCCCCCCCCCCCCCCCCCCCCCCCCCCCCCCCCCCCCCCCCCCCCCCCCCCCCCCCCCCCCCCCCCCCCCCCC",
"FCCCCCCCCCCCCCCCCCCCCCCCCCCCCCCCCCCCCCCCCCCCCCCCCCCCCCCCCCCCCCCCCCCCCCCCCCCCCCCC",
"FCCCCCCCCCCCCCCCCCCCCCCCCCCCCCCCCCCCCCCCCCCCCCCCCCCCCCCCCCCCCCCCCCCCCCCCCCCCCCCC",
"FCCCCCCCCCCCCCCCCCCCCCCCCCCCCCCCCCCCCCCCCCCCCCCCCCCCCCCCCCCCCCCCCCCCCCCCCCCCCCCC",
"FCCCCCCCCCCCCCCCCCCCCCCCCCCCCCCCCCCCCCCCCCCCCCCCCCCCCCCCCCCCCCCCCCCCCCCCCCCCCCCC",
"FCCCCCCCCCCCCCCCCCCCCCCCCCCCCCCCCCCCCCCCCCCCCCCCCCCCCCCCCCCCCCCCCCCCCCCCCCCCCCCC",
"FCCCCCCCCCCCCCCCCCCCCCCCCCCCCCCCCCCCCCCCCCCCCCCCCCCCCCCCCCCCCCCCCCCCCCCCCCCCCCCC"
};
