/* XPM */
static char * cnn+_xpm[] = {
"80 80 17 1",
" 	c None",
".	c #000005",
"+	c #000100",
"@	c #00000F",
"#	c #03001C",
"$	c #04002C",
"%	c #0B003A",
"&	c #330000",
"*	c #B80004",
"=	c #B60016",
"-	c #CE000E",
";	c #D00200",
">	c #DB0001",
",	c #EA0003",
"'	c #F40000",
")	c #FC0004",
"!	c #FF0000",
"                                                                                ",
"                                                                                ",
"                                                                                ",
"                                                                                ",
"                                                                                ",
"                                                                                ",
"                                                                                ",
"                                                                                ",
"                                                                                ",
"                                                                                ",
"                                                                                ",
"                                                                                ",
"                                                                                ",
"                                                                                ",
"                                                                                ",
"                                                                                ",
"                                                                                ",
"                                                                                ",
"                                                                                ",
"                                                                                ",
"                                                                                ",
"                                                                                ",
"                                                                                ",
"  ;,,,,,,,,,,,,,,,,,,,,,,,,,,,,,,,,,,,,,,,,,,,,,,,*&+++++.++++++++++++++++++++  ",
"  ;!!!!!!!!!!!!!!!!!!!!!!!!!!!!!!!!!!!!!!!!!!!!!!!;&++++++++++++++++++++++++++  ",
"  ;'!!!!!!!!!!!!!!!!!!!!!!!!!!!!!!!!!!!!!!!!!!!!));&++++++++++++++++++++++++++  ",
"  >))))))))))))))))))))))))))))))))))))))))))))!)!;&++++++++++......++++++++++  ",
"  ;!!!!!!!!!!!',,'''!)','!!!!!!)',')!!!!)'')''!)!)>&+++.+++++.@@@@@@.+++++++++  ",
"  ;))))))))',>'',,''),,,',))))),',,,'))),),,,,))))>&++..++++.@$$$###.+++++++++  ",
"  ;!!!!!!!)>;      ,>    >'!!)'>   ,,!!,>     ,!));&++..++++.@     $.+++++++++  ",
"  ;)))))),>        ;>     >'!)>     >,!,-     ,!!)>&++..+++++@      .+++++++++  ",
"  ;!!!!!)>         -      ,,)),      ,),-     >)));&++++++++..     $.+++++++++  ",
"  ;))))!,          *   =   >''   =   ,),-     ,!!)>&++++++++.@     $.++..+++++  ",
"  ;!!!!'>   =           =  -,'    =   ,'-     ,)));&++++++++..     $.++..+++++  ",
"  ;))))'   =            =   ;,        >,;     ,!!)>&+++++++..@     $.+...+++++  ",
"  ;!!!)>  *        ;     =  >,     =   ;-     ,)));&++..++....     #.......+++  ",
"  ;))!'>  ;   ;,'',;     *   >      =  ;*     ,!!)>&++...+....      .......+++  ",
"  ;!!),      >,))))>      *  -;     *  **     ,)));&++.                   ..++  ",
"  ;)!!'     >,!))))>      *          *  *     ,!!)>&++.                   ..++  ",
"  ;!)',     >))!)))>  =    *         *        ,)));&++.                   @.++  ",
"  ;!!!'     >))!!!)>       *                  ,!!)>&++.                   @.++  ",
"  ;)!',     >)!)))!,        *         =       ,))!;&++@                   @..+  ",
"  ;)!!'     -,!!!)'>  =     *         =-      ,!))>&++@                   @.++  ",
"  ;!!!,      >'))!)>     =   ;         *      ,)!!;&++.#                  @.++  ",
"  ;))!',  ;  ,>,,),;     ;;  *     >*         ,)))>&++.@@###@@     %$$$###@+++  ",
"  ;!!!';  =    >-;;*  ;  >>  -*    ,;   =     ,!!!;&++..@.@@@@     %@#@@@.++++  ",
"  ;))))>   =          ;  >>   *     >>  =     ,)))>&+.++.+++..     %++...+++++  ",
"  ;!!)))>  =*         ;  >',        ,>    >   >!!);&+++++.+++@     $.+..++++++  ",
"  ;)!)))>   **       ==  >',   **   >,>   =   ,)!)>&+++++.+++.     %.+++++++++  ",
"  ;!)!)!'>          -=   >!,>   *  ,,!,   *   >!));&+++++++++@     $.+++++++++  ",
"  ;!)!)!!,,              >!),      ,'!',      ,!!)>&++++++++.@     $.+++++++++  ",
"  ;)!)!)!',;            ',!)'>     >))'>     >')));&+++++++++@     $.+++++++++  ",
"  ;)!)!!!!),>>-        >,'))),>   >'!))'>   ;,!!))-&++++++++.@%    @.+++++++++  ",
"  ;!)!))!))!)>>>>>>,>,>,'!!)!!,>>>'))!!''>>>,)))!);&+++++++++.@#@@@@.+++++++++  ",
"  ;!)!!)!)!!!'!)))'!')'!))!)!!!!!')!))!)!))))!!)));&+++++++++.+@@++.++++++++++  ",
"  ;)!))!)!))!!)!)!))!!))!!)!)!)''!!)!!!!!!)))))!));&+++++++++...+..+++++++++++  ",
"  ;)!!)!)!!)!!)!)!!))!!))!)!)!!!!)!)))))))))!!)!));&++++++++++++++++++++++++++  ",
"  ;)))))))))))))')')))))))))))))))))))))))))))))));&+..+++..++++++++++++++++++  ",
"  *,,,,,,,,>,,>,,,,,,,,,,,,,,,,,,,,,,,,,,,,,>,,,,,*&.+..++...++++++.++++++++++  ",
"   ,,),,,,,),,),,,',,',',',),,',,'''''''),,,,',))  &+.+.++.@.++++++.+++++++++   ",
"                                                                                ",
"                                                                                ",
"                                                                                ",
"                                                                                ",
"                                                                                ",
"                                                                                ",
"                                                                                ",
"                                                                                ",
"                                                                                ",
"                                                                                ",
"                                                                                ",
"                                                                                ",
"                                                                                ",
"                                                                                ",
"                                                                                ",
"                                                                                ",
"                                                                                ",
"                                                                                ",
"                                                                                ",
"                                                                                "};
