/* XPM */
static char *CUATRO[] = {
/* columns rows colors chars-per-pixel */
"80 80 33 1",
"r c None",
"  c #FF0000",
". c #FF0B0B",
"X c #FF1313",
"o c #FF1C1C",
"O c #FF2424",
"+ c #FF2B2B",
"@ c #FF3333",
"# c #FF3B3B",
"$ c #FF4444",
"% c #FF4949",
"& c #FF5353",
"* c #FF5B5B",
"= c #FF6262",
"- c #FF6C6C",
"; c #FF7272",
": c #FF7A7A",
"> c #FF8383",
", c #FF8C8C",
"< c #FF9393",
"1 c #FF9B9B",
"2 c #FFA3A3",
"3 c #FFAAAA",
"4 c #FFB1B1",
"5 c #FFBBBB",
"6 c #FFC4C4",
"7 c #FFCBCB",
"8 c #FFD3D3",
"9 c #FFDBDB",
"0 c #FFE3E3",
"q c #FFEBEB",
"w c #FFF3F3",
"e c #FFFEFE",
/* pixels */
"r                                                                               ",
"r                                                                               ",
"r                                                                               ",
"r                                                                               ",
"r                                                                               ",
"r                                                                               ",
"r                                                                               ",
"r                                                                               ",
"r                                                                               ",
"r                                                                               ",
"r                                                                               ",
"r                                                                               ",
"r                                                                               ",
"r                                                                               ",
"r                                                                               ",
"r                                                                               ",
"r                                                                               ",
"r                                                                               ",
"r                                                                               ",
"r                                                                               ",
"r                                                                               ",
"r                                                                               ",
"r                                                                               ",
"r                                                                               ",
"r                                                                               ",
"r                                                                               ",
"r                                                                               ",
"r                                                                               ",
"r                                           .+O.                                ",
"r                                           :qq=                         O12+   ",
"r                                           1ee>                         2ee4.  ",
"r                                           1ee>                        o9eeq+  ",
"r         o@@.    ..     .X.      o##O.    .1ee> .   ..  o#X            O0eew#  ",
"r       X>9wq5$  $67;   .<75+   #29ww02+  #50ee955# +57$@7w3.  O:33:+   X7ee9o  ",
"r      .2eeeee0+ -ee4   X8ew$  %0eeeeee6o ;eeeeeee- %we>5ee8X *9eeee9*   =qw:   ",
"r      -eeeeeee& -ee4   X8ew$  1eeeweeee- ;eeeeeee- %we8wee8X&qeeeeeeq&  .#$.   ",
"r     X7eeq<,9e& -ee4   X8ew$  1e7;%=9ee3 $7qee077$ %weeeww7@8eeeeeeee8O        ",
"r     $wew=  +4# -ee4   X8ew$  *>o   -ee6. .2ee,..  %weew-@$>eeeeeeeeee>        ",
"r     ;ee7X   X. -ee4   X8ew$        $we8X  1ee>    %wee<  X7eeeeeeeeee7X       ",
"r     <ee2       -ee4   X8ew$       .$we8X  1ee>    %weq@  #weeeeeeeeeew#       ",
"r     3ee,       -ee4   X8ew$   .%,458ee8X  1ee>    %we8X  *eeeeeeeeeeee*       ",
"r     4ee:       -ee4   X8ew$  X1weeeeee8X  1ee>    %we8X  ;eeeeeeeeeeee;       ",
"r    .4ee>       -ee4   X8ew$  >eeew0qee8X  1ee>    %we8X  ;eeeeeeeeeeee;       ",
"r     3ee<       -ee4   X8ew$ o9ee2#o&we8X  1ee>    %we8X  =eeeeeeeeeeee=       ",
"r     1ee4.      -ee6.  O9ew$ #we9O  #we8X  1ee>    %we8X  #weeeeeeeeeew$       ",
"r     :ee0+   =@ *ee0+ .<eew$ %ee6.  $we8X  1ee1    %we8X  o8eeeeeeeeee8o       ",
"r     $wee2+O:w* $wee1@>weew$ $we9O X3ee8X  ,ee8##O %we8X   ,eeeeeeeeee,        ",
"r     X7eee00ee= O0eeeweeeew$ +0ee4-4eee8X  -eeeqw- %we8X   +0eeeeeeee0@        ",
"r      -eeeeeee&  2eeeee04ew$ .3eeeeewqe8X  @qeeee; %we8X    -weeeeeew-         ",
"r      .<weeee3X  @9eeeq*;ew$  #9eeew,3e8X  .<eeee* $we7X    .;qeeeeq;.         ",
"r       .*252*X    @152$ O:-X   @<54=.$:*    X;33;X X->%       #<66<#           ",
"r          .         .            ..                             ..             ",
"r                                                                               ",
"r                                                                               ",
"r                                                                               ",
"r                                                                               ",
"r                                                                               ",
"r                                                                               ",
"r                                                                               ",
"r                                                                               ",
"r                                                                               ",
"r                                                                               ",
"r                                                                               ",
"r                                                                               ",
"r                                                                               ",
"r                                                                               ",
"r                                                                               ",
"r                                                                               ",
"r                                                                               ",
"r                                                                               ",
"r                                                                               ",
"r                                                                               ",
"r                                                                               ",
"r                                                                               ",
"r                                                                               ",
"r                                                                               ",
"r                                                                               ",
"r                                                                               ",
"r                                                                               ",
"r                                                                               "
};
