/* XPM */
static char *Disney_Channel[] = {
/* columns rows colors chars-per-pixel */
"80 80 64 1",
"  c #080808",
". c #181818",
"X c #20201E",
"o c #282828",
"O c #30332F",
"+ c #393838",
"@ c #3F4040",
"# c #484848",
"$ c #525050",
"% c #585857",
"& c #686868",
"* c #70716E",
"= c #787878",
"- c #4C7F92",
"; c #2C86AC",
": c #3485A2",
"> c #3888AB",
", c #2C8BB5",
"< c #2A8AB9",
"1 c #368BB5",
"2 c #3A93B9",
"3 c #468BA9",
"4 c #4F92AC",
"5 c #5694A9",
"6 c #4996B7",
"7 c #579AB6",
"8 c #699CB0",
"9 c #6BA5B7",
"0 c #76A8BB",
"q c #2D8FC2",
"w c #469AC6",
"e c #55A5C6",
"r c #73AFC7",
"t c #6CBAE3",
"y c #7CC4E0",
"u c #888888",
"i c #929190",
"p c #979797",
"a c #8CAFB9",
"s c #A8A9A9",
"d c #AFB0AE",
"f c #B9B9B9",
"g c #C0C0BF",
"h c #88B7C9",
"j c #93BBC9",
"k c #A8BEC2",
"l c #96C6D4",
"z c #A6CAD6",
"x c #B6CED7",
"c c #B6D8E3",
"v c #AAE1EE",
"b c #CAC9C9",
"n c #C6D7DB",
"m c #D8D8D8",
"M c #C8DCE4",
"N c #D4DEE3",
"B c #CFE8EE",
"V c #D8E7EB",
"C c #E7E9E9",
"Z c #E4EEF2",
"A c #EAF4F6",
"S c #F4F5F5",
"D c #F5FAFB",
"F c #FFFFFF",
/* pixels */
"FFFFFFFFFFFFFFFFFFFFFFFFFFFFFFFFFFFFFFFFFFFFFFFFFFFFFFFFFFFFFFFFFFFFFFFFFFFFFFFF",
"FFFFFFFFFFFFFFFFFFFFFFFFFFFFFFFFFFFFFFFFFFFFFFFFFFFFFFFFFFFFFFFFFFFFFFFFFFFFFFFF",
"FFFFFFFFFFFFFFFFFFFFFFFFFFFFFFFFFFFFFFFFFFFFFFFFFFFFFFFFFFFFFFFFFFFFFFFFFFFFFFFF",
"FFFFFFFFFFFFFFFFFFFFFFFFFFFFFFFFFFFFFFFFFFFFFFFFFFFFFFFFFFFFFFFFFFFFFFFFFFFFFFFF",
"FFFFFFFFFFFFFFFFFFFFFFFFFFFFFFFFFFFFFFFFFFFFFFFFFFFFFFFFFFFFFFFFFFFFFFFFFFFFFFFF",
"FFFFFFFFFFFFFFFFFFFFFFFFFFFFFFFFFFFFFFFFFFFFFFFFFFFFFFFFFFFFFFFFFFFFFFFFFFFFFFFF",
"FFFFFFFFFFFFFFFFFFFFFFFFFFFFFFFFFFFFFFFFFFFFFFFFFFFFFFFFFFFFFFFFFFFFFFFFFFFFFFFF",
"FFFFFFFFFFFFFFFFFFFFFFFFFFFFFFFFFFFFFFFFFFFFFFFFFFFFFFFFFFFFFFFFFFFFFFFFFFFFFFFF",
"FFFFFFFFFFFFFFFFFFFFFFFFFFFFFFFFFFFFFFFFFFFFFFFFFFFFFFFFFFFFFFFFFFFFFFFFFFFFFFFF",
"FFFFFFFFFFFFFFFFFFFFFFFFFFFFFFFFFFFFFFFFFFFFFFFFFFFFFFFFFFFFFFFFFFFFFFFFFFFFFFFF",
"FFFFFFFFFFFFFFFFFFFFFFFFFFFFFFFFFFFFFFFFFFFFFFFFFFFFFFFFFFFFFFFFFFFFFFFFFFFFFFFF",
"FFFFFFFFFFFFFFFFFFFFFFFFFFFFFFFFFFFFFFFFFFFFFFFFFFFFFFFFFFFFFFFFFFFFFFFFFFFFFFFF",
"FFFFFFFFFFFFFFFFFFFFFFFFFFFFFFFFFFFFFFFFFFFFFFFFFFFFFFFFFFFFFFFFFFFFFFFFFFFFFFFF",
"FFFFFFFFFFFFFFFFFFFFFFFFFFFFFFFFFFFFFFFFFFFFFFFFFFFFFFFFFFFFFFFFFFFFFFFFFFFFFFFF",
"FFFFFFDZVnnxnnVADFFFFFFFFFFFFFFFFFFFFFFFFFFFFFFFFFFFFFFFFFFFFFFFFFFFFFFFFFFFFFFF",
"FFDZxja000aaaa88azVDFFFFFFFFFFFFFFFFFFFFFFFFFFFFFFFFFFFFFFFFFFFFFFFFFFFFFFFFFFFF",
"Zxr74rlvvBBBBBMzr440xAFFFFFFFFFFFFFFFFFFFFFFFFFFFFFFFFFFFFFFFFFFFFFFFFFFFFFFFFFF",
"7>2etyyrr9999rhlvlr619cDFFFFFFFFFFFFFFFFFFFFFFFFFFFFFFFFFFFFFFFFFFFFFFFFFFFFFFFF",
"<qwww1>;;;,;,,1167rew13hVFFFFFFFFFFFFFFFFFFFFFFFFFFFFFFFFFFFFFFFFFFFFFFFFFFFFFFF",
"q<<,1,,<<qq<<<<,;;12q1,;7MFFFFFFFFFFFFFFFFFFFFFFFFFFFFFFFFFFFFFFFFFFFFFFFFFFFFFF",
"<<<<<<<<<<,1111,,<<<<<<<;4xFFFFFFFFFFFFFFFFFFFFFFFFFFFFFFFFFFFFFFFFFFFFFFFFFFFFF",
"<<<<<<,1124477662121<<<<<<3xFFFFFFFFFFFFFFFFFFFFFFFFFFFFFFFFFFFFFFFFFFFFFFFFFFFF",
"<<<<,>38hxMBVBBczh9611,<qq,4cFFFFFFFFFFFFFFFFFFFFFFFFFFFFFFFFFFFFFFFFFFFFFFFFFFF",
",<<;4rcZDFFFFFFFFDZcr3>,<q<,7VFFFFFFFFFFFFFFFFFFFFFFFFFFFFFFFFFFFFFFFFFFFFFFFFFF",
"<;>rMDFFFFFFFFFFFFFFAc9>,<q<;9AFFFFFFFFFFFFFFFFFFFFFFFFFFFFFFFFFFFFFFFFFFFFFFFFF",
";7xAFFFFFFFFFFFFFFFFFDVh3,<<<>lFFFFFFFFFFFFFFFFFFFFFFFFFFFFFFFFFFFFFFFFFFFFFFFFF",
"rBFFFFFFFFFFFFFFFFFFFFFAl3,<<,4VFFFFFFFFFFFFFFFFFFFFFFFFFFFFFFFFFFFFFFFFFFFFFFFF",
"AFFFFFFFFFFFFFFFFFFFFFFFAl>,,,;hFFFFFFFFFFFFFFFFFFFFFFFFFFFFFFFFFFFFFFFFFFFFFFFF",
"FFFFFFFFFFFFFFFFFFFFFFFFFA0>1<,6ZFFFFFFFFFFFFFFFFFFFFFFFFFFFFFFFFFFFFFFFFFFFFFFF",
"FFFFFFFFFFFFFFFFFFFFFFFFFFM5><<1xFFFFFFFFFFFFFFFFFFFFFFFFFFFFFFFFFFFFFFFFFFFFFFF",
"FFFFFFFFFFFFFFFFFFFFFFFFFFDz><<,hFFFFFFFFFFFFFFFFFFFFFFFFFFFFFFFFFFFFFFFFFFFFFFF",
"FFFFFFFFFFFFFFFFFFFFFFFFFFFZ8;<,7AFFFFFFFFFFFFFFFFFFFFFDDDFFFFFFFFFFFFFFFFFFFFFF",
"FFFFFFFFFFFFFFFFFFFFFFFFFFFFz>,<>VFFFFFFFFFFFFFFFFSNxaa00rhzMZDFFFFFFFFFFFFFFFFF",
"FFFFFFFFFFFFFFFFFFFFFFFFFFFFB41<;cFFFFFFFFFFFFFFCk089re61,<,17rcAFFFFFFFFFFFFFFF",
"FFFFFFFFFFFFFFFFFFFFFFFFFFFFA0><,zFFFFFFFFFFFFDx80llrewqqq<<<1>>9xSFFFFFFFFFFFFF",
"FFFFFFFFFFFFFFFFFFFFFFFFFFFFDj>q,zFFFFFFFFFFFAa8lr6>>;;>>>333>>1110MFFFFFFFFFFFF",
"FFFFFFFFFFFFFFFFFFFFFFFFFFFFFc3w1zFFFFFFFFFFAa7t6;;;>4rzcMNMclr711>4lAFFFFFFFFFF",
"FFFFFFFFFFFFFFFFFFFFFFFFFFFFFN3e>zFFFFFFFFFSa3w,;;>7lBDFFFFFFDAVz9>,1rZFFFFFFFFF",
"FFFFFFFFFFFFFFFFFFFFFFFFFFFFFV4e>xFFFFFFFFFl1qq<;>hBDFFFFFFFFFFFFVl7210VFFFFFFFF",
"FFFFFFFFFFFFFFFFFFFFFFFFFFFFFZ5e3nFFFFFFFFM6<qq>3lAFFFFFFFFFFFFFFFDMr439VFFFFFFF",
"FFFFFFFFFFFFFFFFFFFFFFFFFFFFFZ5e4VFFFFFFFS9<q<,3zDFFFFFFFFFFFFFFFFFFVh3>0AFFFFFF",
"FFFFFFFFFFFFFFFFFFFFFFFFFFFFFV5r8ZFFFFFFFx><q1>jDFFFFFFFFFFFFFFFFFFFFZr3>hDFFFFF",
"FFFFFFFFFFFFFFFFFFFFFFFFFFFFFM5r0DFFFFFFD9;<q60AFFFFFFFFFFFFFFFFFFFFFFZ033xFFFFF",
"FFFFFFFFFFFFFFFFFFFFFFFFFFFFFx57jFFFFFFFN3,,w4cFFFFFFFFFFFFFFFFFFFFFFFFM937VFFFF",
"FFFFFFFFFFFFFFFFFFFFFFFFFFFFDj58MFFFFFFFj>;670AFFFFFFFFFFFFFFFFFFFFFFFFDz43hDFFF",
"FFFFFFFFFFFFFFFFFFFFFFFFFFFFA990AFFFFFFD0,,e5xFFFFFFFFFFFFFFFFFFFFFFFFFFAr36MFFF",
"FFFFFFFFFFFFFFFFFFFFFFFFFFFFB59kFFFFFFFA7,2e8ZFFFFFFFFFFFFFFFFFFFFFFFFFFFc71rDFF",
"FFFFFFFFFFFFFFFFFFFFFFFFFFFDl80VFFFFFFFV6,67aDFFFFFFFFFFFFFFFFFFFFFFFFFFFA026MFF",
"FFFFFFFFFFFFFFFFFFFFFFFFFFFZ89hSFFFFFFFV6,e4lFFFFFFFFFFFFFFFFFFFFFFFFFFFFFz31jFF",
"FFFFFFFFFFFFFFFFFFFFFFFFFFDz3w6rhzMZDFFB6,e3zFFFFFFFFFFFFFFFFFFFFFFFFFFFFFB41eAF",
"FFFFFFFFFFFFFFFFFFFFFFFFFFZ8:;,,1>>7hnDB2;e5cFFFFFFFFFFFFFFFFFFFFFFFFFFFFFA01wMF",
"FFFFFFFFFFFFFFFFFFFFFFFFFFN83>>>>111>30l2;75MFFFFFFFFFFFFFFFFFFFFFFFFFFFFFDj1wzF",
"FFFFFFFFFFFFFFFFFFFFFFFFFFDVVBclhr762>2w<;r8MFFFFFFFFFFFFFFFFFFFFFFFFFFFFFFz>ejD",
"FFFFCsu=*=usmSFFFFFFFFFFFFFFFFFFDZBzr73,<,e9xFFFFFFFFFFFFFFFFFFFFFFFFFFFFFFc>whA",
"FFFC&$%%%+o..$pmFFFFFFFFSmfmDFFFFFFFAMh71>67zFFFFFFFFFFFFFFFFFFFFFFFFFFFFFFc3whC",
"FFFm*bDSSCbs*O.OumFFFFFN=O.+iCFFFFFFFFAcr334jDFFFFFFFFFFFFFFFFFFFFFFFFFFFFFc>2rV",
"FFFFSDFFFFFFDmp#.+sSFFC&$.X&+iFFFFFFFFFFAz5:8AFFFFFFFFFFFFFFFFFFFFFFFFFFFFFx>1rV",
"FFFFFFFFFFFSCFFCio.=CFd+#+dm%sFFFFFFFFFFFDM85VFFFFFFFFFFFFFFFFFFFFFFFFFFFFFz>>hV",
"BDFFFFFFFFFd*SFFFb$ &Cd..us%=CFFFFFFFFFFFFFVxZFFFFFFFFFFFFFFFFFFFFFFFFFFFFDh;>lV",
"5zDFFFFFFFFuOmFFFFC& *b+.o+uCFFFFFFFFDFFFFFFFFFFFFFFFFFFFFFFFFFFFFFFFFFFFFA9>6lC",
";>hZFFFFFFS%.bSSFFFC% udddmFDSCCSDFFSpbFFDSSSFFDSFFFFFFFFFFFFFFFFFFFFFFFFFB4>7zS",
",,;7MFFFCf=o @$%ubSFboombsSb*$##$fmmS&$Cf*%$$dSssDbbDFFFFFFFFFFFFFFFFFFFFFl>;exD",
",2638ADs#o.  oo. .iSD& u=$soO#$&ub=+mp.fso.++uf@fpo+bFFFFFFFFFFFFFFFFFFFFZ9;,rnF",
",we5zDx&iff#.dmbi+OmFp *&#u.%=ufCC+ &fo=m@#dmC&&i.%%iFFFFFFFFFFFFFFFFFFFDz>,2hCF",
",;-jDFbpSFS$.bFFC&&CFu =%Ob=OO++$dO#oi+%* o+ib+&X+b&uFFFFFFFFFFFFFFFFFFFB51<elDF",
";:hAFFDp=mS$.bFFSbCFm+.s%of*&+#u+&op%o.$#Offmfo..ps+gFFFFFFFFFFFFFFFFFFAr>127NFF",
">0AFFFFCu$i@.bFFFFSb$ &C%od&u&#Oo&ofbo &oo=$*go .%o*SFFFFFFFFFFFFFFFFFAj>,<1jDFF",
"7BFFFFFFSd$. *pspu%. &CF=#md#ooOuf$mFd=b$  oibo  .*CFFFFFFFFFFFFFFFFFAh31<;7ZFFF",
"zDFFFFFFFFC# .....o$sCFFCbDFCmbmDDCDFFDFb=ibDs oufSFNkVDFFFFFFFFFFFDM9>22,6MFFFF",
"AFFFFFFFFFFs%fbssfbCFFFFFFFFFFFFFFFFFFFFFFFFD= %SFFFx55aMADDFFFFDAMh53eq14xFFFFF",
"FFFFFFFFFFFDSFmi*ifsSfpCs=mmubmpdiCfssiispbFC# iFFFFV09337rlccczj83:4r6;7nFFFFFF",
"FFFFFFFFFFFFFS*#i**+d%#f+o*p %iO%.u*#o#=uOuFmO.fFFFFDj42,;;;1>>>>37ee330VFFFFFFF",
"FFFFFFFFFFFFFS$*Cfu.%o+&O&O*o%+O%$%O#o#upOuSbo#CFFFFFc3<<<;,<,,<2e745anSFFFFFFFF",
"FFFFFFFFFFFFFDp+$$=$m=##%u#$+f%+&=fO$+#=u##&s+&DFFFFFZ7;<<,,677erhzMZDFFFFFFFFFF",
"FFFFFFFFFFFFFFDmfmCmDCmmCDmmbSmbmmDbmbffbbffCffFFFFFFDr;<<24zAASDFFFFFFFFFFFFFFF",
"FFFFFFFFFFFFFFFFFFFFFFFFFFFFFFFFFFFFFFFFFFFFFFFFFFFFFFz><<rlaFFFFFFFFFFFFFFFFFFF",
"FFFFFFFFFFFFFFFFFFFFFFFFFFFFFFFFFFFFFFFFFFFFFFFFFFFFFFM3<<rl8DFFFFFFFFFFFFFFFFFF",
"FFFFFFFFFFFFFFFFFFFFFFFFFFFFFFFFFFFFFFFFFFFFFFFFFFFFFFV5<<7z8ZFFFFFFFFFFFFFFFFFF",
"FFFFFFFFFFFFFFFFFFFFFFFFFFFFFFFFFFFFFFFFFFFFFFFFFFFFFFA9,<4v8NFFFFFFFFFFFFFFFFFF",
"FFFFFFFFFFFFFFFFFFFFFFFFFFFFFFFFFFFFFFFFFFFFFFFFFFFFFFArew8chNFFFFFFFFFFFFFFFFFF"
};
