/* XPM */
static char *ETB_[] = {
/* columns rows colors chars-per-pixel */
"80 80 55 1",
"  c #0093D0",
". c #0A97D2",
"X c #0E99D3",
"o c #139BD4",
"O c #1C9FD5",
"+ c #1FA0D6",
"@ c #24A2D7",
"# c #2AA5D8",
"$ c #2EA7D9",
"% c #31A8D9",
"& c #35A9DA",
"* c #3CADDB",
"= c #44B0DD",
"- c #46B1DD",
"; c #4BB3DE",
": c #51B5DF",
"> c #57B8E0",
", c #58B8E0",
"< c #5CBAE1",
"1 c #64BDE2",
"2 c #6CBFE6",
"3 c #6EC1E5",
"4 c #74C3E7",
"5 c #7AC6E6",
"6 c #7EC8E7",
"7 c #78C4E8",
"8 c #7CC6E9",
"9 c #80C8E9",
"0 c #81CAE8",
"q c #85CAEA",
"w c #8CCDEB",
"e c #91CFEC",
"r c #94D1EC",
"t c #9CD5EE",
"y c #A2D7EF",
"u c #A6D9EF",
"i c #A7D9F0",
"p c #ABDBF0",
"a c #ACDBF1",
"s c #B3DFF2",
"d c #B6E0F2",
"f c #BBE2F3",
"g c #C4E5F5",
"h c #C9E8F6",
"j c #CDE9F6",
"k c #D4EDF7",
"l c #D7EEF8",
"z c #D8EFF8",
"x c #DAEFF9",
"c c #DEF1F9",
"v c #E4F3FA",
"b c #ECF7FC",
"n c #EFF8FC",
"m c #F4FAFD",
"M c #FFFFFF",
/* pixels */
"MMMMMMMMMMMMMMMMMMMMMMMMMMMMMMMMMMMMMMMMMMMMMMMMMMMMMMMMMMMMMMMMMMMMMMMMMMMMMMMM",
"MMMMMMMMMMMMMMMMMMMMMMMMMMMMMMMMMMMMMMMMMMMMMMMMMMMMMMMMMMMMMMMMMMMMMMMMMMMMMMMM",
"MMMMMMMMMMMMMMMMMMMMMMMMMMMMMMMMMMMMMMMMMMMMMMMMMMMMMMMMMMMMMMMMMMMMMMMMMMMMMMMM",
"MMMMMMMMMMMMMMMMMMMMMMMMMMMMMMMMMMMMMMMMMMMMMMMMMMMMMMMMMMMMMMMMMMMMMMMMMMMMMMMM",
"MMMMMMMMMMMMMMMMMMMMMMMMMMMMMMMMMMMMMMMMMMMMMMMMMMMMMMMMMMMMMMMMMMMMMMMMMMMMMMMM",
"MMMMMMMMMMMMMMMMMMMMMMMMMMMMMMMMMMMMMMMMMMMMMMMMMMMMMMMMMMMMMMMMMMMMMMMMMMMMMMMM",
"MMMMMMMMMMMMMMMMMMMMMMMMMMMMMMMMMMMMMMMMMMMMMMMMMMMMMMMMMMMMMMMMMMMMMMMMMMMMMMMM",
"MMMMMMMMMMMMMMMMMMMMMMMMMMMMMMMMMMMMMMMMMMMMMMMMMMMMMMMMMMMMMMMMMMMMMMMMMMMMMMMM",
"MMMMMMMMMMMMMMMMMMMMMMMMMMMMMMMMMMMMMMMMMMMMMMMMMMMMMMMMMMMMMMMMMMMMMMMMMMMMMMMM",
"MMMMMMMMMMMMMMMMMMMMMMMMMMMMMMMMMMMMMMMMMMMMMMMMMMMMMMMMMMMMMMMMMMMMMMMMMMMMMMMM",
"MMMMMMMMMMMMMMMMMMMMMMMMMMMMMMMMMMMMMMMMMMMMMMMMMMMMMMMMMMMMMMMMMMMMMMMMMMMMMMMM",
"MMMMMMMMMMMMMMMMMMMMMMMMMMMMMMMMMMMMMMMMMMMMMMMMMMMMMMMMMMMMMMMMMMMMMMMMMMMMMMMM",
"MMMMMMMMMMMMMMMMMMMMMMMMMMMMMMMMMMMMMMMMMMMMMMMMMMMMMMMMMMMMMMMMMMMMMMMMMMMMMMMM",
"MMMMMMMMMMMMMMMMMMMMMMMMMMMMMMMMMMMMMMMMMMMMMMMMMMMMMMMMMMMMMMMMMMMMMMMMMMMMMMMM",
"MMMMMMMMMMMMMMMMMMMMMMMMMMMMMMMMMMMMMMMMMMMMMMMMMMMMMMMMMMMMMMMMMMMMMMMMMMMMMMMM",
"MMMMMMMMMMMMMMMMMMMMMMMMMMMMMMMMMMMMMMMMMMMMMMMMMMMMMMMMMMMMMMMMMMMMMMMMMMMMMMMM",
"MMMMMMMMMMMMMMMMMMMMMMMMMMMMMMMMMMMMMMMMMMMMMMMMMMMMMMMMMMMMMMMMMMMMMMMMMMMMMMMM",
"MMMMMMMMMMMMMMMMMMMMMMMMMMMMMMMMMMMMMMMMMMMMMMMMMMMMMMMMMMMMMMMMMMMMMMMMMMMMMMMM",
"MMMMMMMMMMMMMMMMMMMMMMMMMMMMMMMMMMMMMMMMMMMMMMMMMMMMMMMMMMMMMMMMMMMMMMMMMMMMMMMM",
"MMMMMMMMMMMMMMMMMMMMMMMMMMMMMMMMMMMMMMMMMMMMMMMMMMMMMMMMMMMMMMMMMMMMMMMMMMMMMMMM",
"MMMMMMMMMMMMMMMMMMMMMMMvkp3uMMMMMMMMMMMMMMMMMMMMMMMMMMMMMMMMMMMMMMMMMMMMMMMMMMMM",
"MMMMMMMMMMMMMMMMMMMmjs3*OX <mMMMMMMMMMMMMMMMMMMMMMMMMMMMMMMMMMMMMMMMMMMMMMMMMMMM",
"MMMMMMMMMMMMMMMMMMs-o.    .rMMMMMMMMMMMMMMMMMMMMMMMMMMMMMMMnvcxcvmMMMMMMMMMMMMMM",
"MMMMMMMMMMMMMMMMMm;       ogMMMMMMMMMMMMMMMMMMMMMMMMMMMmcftq87478qtfvMMMMMMMMMMM",
"MMMMMMMMMMMMMMMMMm4       .<kMMMMMMMMMMMMMMMMMMMMMMMMmjt7222222222228tlMMMMMMMMM",
"MMMMMMMMMMMMMMmhtgcw#       &gMMMMMMMMMMMMMMMMMMMMMMvt42222222222222227ivMMMMMMM",
"MMMMMMMMMMMMMn7o o1vc3X      OyMMMMMMMMMMMMMMMMMMMMh922222222222222222220kMMMMMM",
"MMMMMMMMMMMMMso   .tMmd-      owbMMMMMMMMMMMMMMMMMf42222230tsggfuq32222227gMMMMM",
"MMMMMMMMMMMMMw     4MMMb5.     .4mMMMMMMMMMMMMMMMf422222wgbMMMMMMbgq2222227hMMMM",
"MMMMMMMMMMMMMfO   oaMMMMmr@     .1vMMMMMMMMMMMMMj722224pbMMMMMMMMMMvw2222226xMMM",
"MMMMMMMMMMMMMm0$@#wmMMMMMMd%      3mMMMMMMMMMMMvw222226bMMMMMMMMMMMMk8222222enMM",
"MMMMMMMMMMMMMMmbvvmMMMMMMMMc:     XtMMMMMMMMMMma2222220bMMMMbbMMMMMMmp2222224sMM",
"MMMMMMMMMMMMMMMMMMMMMMMMMMMMx:     $jMMMMMMMMMx73222229bMmhtqqabMMMMMj4222222qvM",
"MMMMMMMMMMMMMMMMMMMMMMMMMMMMMl*     2mMMMMMMMMi22222229vct42222pmMMMMv82222222sM",
"MMMMMMMMMMMMMMMMMMMMMMMMMMMMMMg$    OfMMMMMMMbq22222227y62222224cMMMMb62222222wb",
"MMMMMMMMMMMMMMMMMMMMMMMMMMMMMMMyo    1mMMMMMMh422222222322222222hMMMMv822222227k",
"MMMMMMMMMMMMMMMMMMMMMMMMMMMMMMMb,    OjMMMMMMa222222222222222223jMMMMk422222222s",
"MMMMMMMMMMMMMMMMMMMMMMMMMMMMMMMMao   .tMMMMMmr222222222222222227cMMMMs222222222r",
"MMMMMMMMMMMmcpuxMMMMMMMMMMMMMMMMv*    1MMMMMmq22222222222222222rmMMMbw222222222q",
"MMMMMMMMMcy<@. @0bMMMMMMMMMMMMMMM4    *nMMMMb922222222222222224gMMMMh42222222228",
"MMMMMMva1@.     .5MMMMMMMMMMMMMMMt    @vMMMMb62222222222222222ebMMMnr22222222228",
"MMMbs3$.         1mMMMMbmMMMMMMMMa    @cMMMMb02222222222222224hMMMMg422222222228",
"Mg4&.          $0xMMmj4&5mMMMMMMMt    @cMMMMmq222222222222222ymMMMvq22222222222q",
"s@          .&rvMMmg1O  @xMMMMMMm<    #vMMMMmr22222222222222qvMMMmi222222222222r",
"*         .-tvMMmg<o    OzMMMMMMk@    -mMMMMMa22222222222224gMMMMj7222222222222s",
"@       X-unMMMj3o      *bMMMMMMr.    1MMMMMMj4222222222222ymMMMvq2222222222227k",
"1.    X;smMMMl4O       .wMMMMMMk%     6MMMMMMbq22222222222qvMMMmy2222222222222wn",
"x,..o:smMMMvq@        .1bMMMMMb1     XsMMMMMMMa22222222224hMMMMvtqqqqwq4222223sM",
"MnfshmMMMvr&         $tmMMMMMmw.     *vMMMMMMMx6222222222amMMMMmmnnnnmve22222qvM",
"MMMMMMMvt*         o3cMMMMMMmro      qMMMMMMMMma22222222ebMMMMMMMMMMMMmt22224fMM",
"MMMMMbw&.         ;fmMMMMMMmwX      OhMMMMMMMMMvw2222226xMMMMMMMMMMMMMMt2222rnMM",
"MMMMm5.         @wbMMMMMMMx1X       3mMMMMMMMMMMk822224gMMMMMMMMMMMMMMmt2220xMMM",
"MMMMhO        X<kMMMMMMMMu&        $jMMMMMMMMMMMMg4222wvmmmmmmmmmmmmmmbw228jMMMM",
"MMMMs.       &pmMMMMMMMMro        XtMMMMMMMMMMMMMMg7224wwwwwwwwwwwwwwwq427jMMMMM",
"MMMMx$     +6vMMMMMMMMMc%         <mMMMMMMMMMMMMMMMjq2222222222222222222wlMMMMMM",
"MMMMMtO  X:gMMMMMMMMMMMjo        $hMMMMMMMMMMMMMMMMMvy42222222222222225abMMMMMMM",
"MMMMMMgw0dmMMMMMMMMMMMMz@       OaMMMMMMMMMMMMMMMMMMMmkt8222222222228yxMMMMMMMMM",
"MMMMMMMMMMMMMMMMMMMMMMMm6.     orMMMMMMMMMMMMMMMMMMMMMMMvftw67776wygvMMMMMMMMMMM",
"MMMMMMMMMMMMMMMMMMMMMMMMb3X   @tmMMMMMMMMMMMMMMMMMMMMMMMMMMmbvvvbmMMMMMMMMMMMMMM",
"MMMMMMMMMMMMMMMMMMMMMMMMMmp115jMMMMMMMMMMMMMMMMMMMMMMMMMMMMMMMMMMMMMMMMMMMMMMMMM",
"MMMMMMMMMMMMMMMMMMMMMMMMMMMMMMMMMMMMMMMMMMMMMMMMMMMMMMMMMMMMMMMMMMMMMMMMMMMMMMMM",
"MMMMMMMMMMMMMMMMMMMMMMMMMMMMMMMMMMMMMMMMMMMMMMMMMMMMMMMMMMMMMMMMMMMMMMMMMMMMMMMM",
"MMMMMMMMMMMMMMMMMMMMMMMMMMMMMMMMMMMMMMMMMMMMMMMMMMMMMMMMMMMMMMMMMMMMMMMMMMMMMMMM",
"MMMMMMMMMMMMMMMMMMMMMMMMMMMMMMMMMMMMMMMMMMMMMMMMMMMMMMMMMMMMMMMMMMMMMMMMMMMMMMMM",
"MMMMMMMMMMMMMMMMMMMMMMMMMMMMMMMMMMMMMMMMMMMMMMMMMMMMMMMMMMMMMMMMMMMMMMMMMMMMMMMM",
"MMMMMMMMMMMMMMMMMMMMMMMMMMMMMMMMMMMMMMMMMMMMMMMMMMMMMMMMMMMMMMMMMMMMMMMMMMMMMMMM",
"MMMMMMMMMMMMMMMMMMMMMMMMMMMMMMMMMMMMMMMMMMMMMMMMMMMMMMMMMMMMMMMMMMMMMMMMMMMMMMMM",
"MMMMMMMMMMMMMMMMMMMMMMMMMMMMMMMMMMMMMMMMMMMMMMMMMMMMMMMMMMMMMMMMMMMMMMMMMMMMMMMM",
"MMMMMMMMMMMMMMMMMMMMMMMMMMMMMMMMMMMMMMMMMMMMMMMMMMMMMMMMMMMMMMMMMMMMMMMMMMMMMMMM",
"MMMMMMMMMMMMMMMMMMMMMMMMMMMMMMMMMMMMMMMMMMMMMMMMMMMMMMMMMMMMMMMMMMMMMMMMMMMMMMMM",
"MMMMMMMMMMMMMMMMMMMMMMMMMMMMMMMMMMMMMMMMMMMMMMMMMMMMMMMMMMMMMMMMMMMMMMMMMMMMMMMM",
"MMMMMMMMMMMMMMMMMMMMMMMMMMMMMMMMMMMMMMMMMMMMMMMMMMMMMMMMMMMMMMMMMMMMMMMMMMMMMMMM",
"MMMMMMMMMMMMMMMMMMMMMMMMMMMMMMMMMMMMMMMMMMMMMMMMMMMMMMMMMMMMMMMMMMMMMMMMMMMMMMMM",
"MMMMMMMMMMMMMMMMMMMMMMMMMMMMMMMMMMMMMMMMMMMMMMMMMMMMMMMMMMMMMMMMMMMMMMMMMMMMMMMM",
"MMMMMMMMMMMMMMMMMMMMMMMMMMMMMMMMMMMMMMMMMMMMMMMMMMMMMMMMMMMMMMMMMMMMMMMMMMMMMMMM",
"MMMMMMMMMMMMMMMMMMMMMMMMMMMMMMMMMMMMMMMMMMMMMMMMMMMMMMMMMMMMMMMMMMMMMMMMMMMMMMMM",
"MMMMMMMMMMMMMMMMMMMMMMMMMMMMMMMMMMMMMMMMMMMMMMMMMMMMMMMMMMMMMMMMMMMMMMMMMMMMMMMM",
"MMMMMMMMMMMMMMMMMMMMMMMMMMMMMMMMMMMMMMMMMMMMMMMMMMMMMMMMMMMMMMMMMMMMMMMMMMMMMMMM",
"MMMMMMMMMMMMMMMMMMMMMMMMMMMMMMMMMMMMMMMMMMMMMMMMMMMMMMMMMMMMMMMMMMMMMMMMMMMMMMMM",
"MMMMMMMMMMMMMMMMMMMMMMMMMMMMMMMMMMMMMMMMMMMMMMMMMMMMMMMMMMMMMMMMMMMMMMMMMMMMMMMM"
};
