/* XPM */
static char *Euskadi_Irratia[] = {
/* columns rows colors chars-per-pixel */
"80 80 63 1",
"  c #EE2E24",
". c #EF372E",
"X c #F2483F",
"o c #F25047",
"O c #F5857F",
"+ c #0093D0",
"@ c #0193D0",
"# c #0A97D2",
"$ c #0E99D2",
"% c #149BD3",
"& c #1D9FD5",
"* c #1FA0D6",
"= c #24A2D6",
"- c #2BA4D7",
"; c #2DA6D8",
": c #32A7D9",
"> c #35A9D9",
", c #3DACDB",
"< c #43AFDB",
"1 c #47B1DD",
"2 c #4BB2DD",
"3 c #53B5DF",
"4 c #5BB8DF",
"5 c #5DBAE1",
"6 c #62BAE0",
"7 c #64BDE2",
"8 c #6BBFE2",
"9 c #6EC1E4",
"0 c #73C3E5",
"q c #7BC6E5",
"w c #7EC8E7",
"e c #F7938D",
"r c #FAB8B5",
"t c #83C9E7",
"y c #87CBE7",
"u c #8DCEE9",
"i c #91CFE9",
"p c #95D1EB",
"a c #9CD4EC",
"s c #A3D7ED",
"d c #A6D9EE",
"f c #ABDAEE",
"g c #B4DDEF",
"h c #AEDDF0",
"j c #B4DFF1",
"k c #B8E0F1",
"l c #BCE2F2",
"z c #E1D9DF",
"x c #E2DCE2",
"c c #C4E5F4",
"v c #CAE7F4",
"b c #CDE9F5",
"n c #D4ECF6",
"m c #DBEFF8",
"M c #DBF0F8",
"N c #DEF0F8",
"B c #DEF1F9",
"V c #E4F3FA",
"C c #ECF7FB",
"Z c #EFF8FC",
"A c #F4F6F9",
"S c #F4FAFD",
"D c #FFFFFF",
/* pixels */
"DDDDDDDDDDDDDDDDDDDDDDDDDDDDDDDDDDDDDDDDDDDDDDDDDDDDDDDDDDDDDDDDDDDDDDDDDDDDDDDD",
"DDDDDDDDDDDDDDDDDDDDDDDDDDDDDDDDDDDDDDDDDDDDDDDDDDDDDDDDDDDDDDDDDDDDDDDDDDDDDDDD",
"DDDDDDDDDDDDDDDDDDDDDDDDDDDDDDDDDDDDDDDDDDDDDDDDDDDDDDDDDDDDDDDDDDDDDDDDDDDDDDDD",
"DDDDDDDDDDDDDDDDDDDDDDDDDDDDDDDDDDDDDDDDDDDDDDDDDDDDDDDDDDDDDDDDDDDDDDDDDDDDDDDD",
"DDDDDDDDDDDDDDDDDDDDDDDDDDDDDDDDDDDDDDDDDDDDDDDDDDDDDDDDDDDDDDDDDDDDDDDDDDDDDDDD",
"DDDDDDDDDDDDDDDDDDDDDDDDDDDDDDDDDDDDDDDDDDDDDDDDDDDDDDDDDDDDDDDDDDDDDDDDDDDDDDDD",
"DDDDDDDDDDDDDDDDDDDDDDDDDDDDDDDDDDDDDDDDDDDDDDDDDDDDDDDDDDDDDDDDDDDDDDDDDDDDDDDD",
"DDDDDDDDDDDDDDDDDDDDDDDDDDDDDDDDDDDDDDDDDDDDDDDDDDDDDDDDDDDDDDDDDDDDDDDDDDDDDDDD",
"DDDDDDDDDDDDDDDDDDDDDDDDDDDDDDDDDDDDDDDDDDDDDDDDDDDDDDDDDDDDDDDDDDDDDDDDDDDDDDDD",
"DDDDDDDDDDDDDDDDDDDDDDDDDDDDDDDDDDDDDDDDDDDDDDDDDDDDDDDDDDDDDDDDDDDDDDDDDDDDDDDD",
"DDDDDDDDDDDDDDDDDDDDDDDDDDDDDDDDDDDDDDDDDDDDDDDDDDDDDDDDDDDDDDDDDDDDDDDDDDDDDDDD",
"DDDDDDDDDDDDDDDDDDDDDDDDDDDDDDDDDDDDDDDDDDDDDDDDDDDDDDDDDDDDDDDDDDDDDDDDDDDDDDDD",
"DDDDDDDDDDDDDDDDDDDDDDDDDDDDDDDDDDDDDDDDDDDDDDDDDDDDDDDDDDDDDDDDDDDDDDDDDDDDDDDD",
"DDDDDDDDDDDDDDDDDDDDDDDDDDDDDDDDDDDDDDDDDDDDDDDDDDDDDDDDDDDDDDDDDDDDDDDDDDDDDDDD",
"DDDDDDDDDDDDDDDDDDDDDDDDDDDDDDDDDDDDDDDDDDDDDDDDDDDDDDDDDDDDDDDDDDDDDDDDDDDDDDDD",
"DDDDDDDDDDDDDDDDDDDDDDDDDDDDDDDDDDDDDDDDDDDDDDDDDDDDDDDDDDDDDDDDDDDDDDDDDDDDDDDD",
"DDDDDDDDDDDDDDDDDDDDDDDDDDDDDDDDDDDDDDDDDDDDDDDDDDDDDDDDDDDDDDDDDDDDDDDDDDDDDDDD",
"DDDDDDDDDDDDDDDDDDDDDDDDDDDDDDDDDDDDDDDDDDDDDDDDDDDDDDDDDDDDDDDDDDDDDDDDDDDDDDDD",
"DDDDDDDDDDDDDDDDDDDDDDDDDDDDDDDDDDDDDDDDDDDDDDDDDDDDDDDDDDDDDDDDDDDDDDDDDDDDDDDD",
"DDDDDDDDDDDDDDDDDDDDDDDDDDDDDDDDDDDDDDDDDDDDDDDDDDDDDDDDDDDDDDDDDDDDDDDDDDDDDDDD",
"DDDDDDDDDDDDDDDDDDDDDDDDDDDDDDDDDDDDDDDDDDDDDDDDDDDDDDDDDDDDDDDDDDDDDDDDDDDDDDDD",
"DDDDDDDDDDDDDDDDDDDDDDDDDDDDDDDDDDDDDDDDDDDDDDDDDDDDDDDDDDDDDDDDDDDDDDDDDDDDDDDD",
"DDDDDDDDDDDDDDDDDDDDDDDDDDDDDDDDDDDDDDDDDDDDDDDDDDDDDDDDDDDDDDDDDDDDDDDDDDDDDDDD",
"DDDDDDDDDDDDDDDDDDDDDDDDDDDDDDDDDDDDDDDDDDDDDDDDDDDDDDDDDDDDDDDDDDDDDDDDDDDDDDDD",
"DDDDDDDDDDDDDDDDDDDDDDDDDDDDDDDDDDDDDDDDDDDDDDDDDDDDDDDDDDDDDDDDDDDDDDDDDDDDDDDD",
"DDDDDDDDDDDDDDDDDDDDDDDDDDDDDDDDDDDDDDDDDDDDDDDDDDDDDDDDDDDDDDDDDDDDDDDDDDDDDDDD",
"DDDDDDDDDDDDDDZvu3&2SDDDDDDDDDDDDDDDDDDDDDDDDDDDDDDDDDDDDDDDDDDDDDDDDDDDDDDDDDDD",
"DDDDDDDDDDDDZt>%@@@pDDDDDDDDDDDDDDDDDDDDDDDDDDDDDDDDDDDDDDDDDDDDDDDDDDDDDDDDDDDD",
"DDDDDDDDDDDDV:@@@@#aDDDDDDDDDDDDDDDDDDDDDDDDDDDDDDDDDDDDDDDDDDDDDDDDDDDDDDDDDDDD",
"DDDDDDDDDDDDDn3#@@@%ySDDDDDDDDDDDDDDDDDDDDDDDDDDDDDDDDjjDDDDDDDDDDDDDDDDDDDfaSrr",
"DDDDDDDDDDDa1wVa*@@@@7CDDDDDDDDDDDDDDDDDDDDDDDDDDDDDDV==VDDDDDDDDDDDDDDDDDS>=xo.",
"DDDDDDDDDDn&@@dDb1@@@@2VDDDDDDDDDDDDDDDDDDDDDDDDDDDDDV&&VDDDDDDDDDDDDDDDDDC;&Nrr",
"DDDDDDDDDDn%@@dDDC0#@@@3CDDDDDDDnaypvDDfdDDDniVDMsusnB&&VDDCDCjpuanDDDVstsm;&Brr",
"DDDDDDDDDDDu>9CDDDSu$@@@8SDDDDDp&@$@%uV=&VDD9@ac-@@@>b*&VDf-df@@@@&gDV<@%%,&=xo.",
"DDDDDDDDDDDDSDDDDDDDp$@@#aDDDDk%%amt@&h&%mDD7@u3+9kp6v=&Vc&#fc0ff2@3Dt@,vb2@=zX ",
"DDDDDDDDDDDDDDDDDDDDDy@@+-BDDD8@=afu$@t=%mDD5@y<+2dnZm&&c,@0SDVkp2@<C<@fDDk#=zX ",
"DDDDDDDDDDDDDDDDDDDDDS5@++tDDD2@@%%%$$q=%mDD4@ii#++%qN&%<@>VDk;#%%@,V>#vDDm%=zX ",
"DDDDDDDDDDDDDDDDDDDDDDn&++;VDD4@-cbbbbc&%nDD3@iSf5;+%f=&7#&cS<@8mp@,C<@kDDb$=zX ",
"DDDDDDDDDSSDDDDDDDDDDDD8++#jDDp@#uVCbtf-@pSk&@yucZc&#s=&m0@:c:@pSt@>C0@4VC8@=zX ",
"DDDDDDScw,,dDDDDDDDDDDDj#++tDDC4@@%&$@f8@%:-;@y>#;=+2b&=VZ5@77@%--##qb;@-;;%=xX ",
"DDDSby,$@@@#sDDDDDDDDDDn%@@7DDDSs4<<3uCVw24kl4vf4,<qBSqqSDV8aB8<0nd0nDb8<9nyqAeO",
"Dmp2%@@@@@@>lDDVpfDDDDDm&@@5DDDmSDSSDDDDDDDDDDDDDSSDDDDDDDDDDCmSDDDDDDDDSDDDDDDD",
"y&@@@@@@#,aCDVp;@,SDDDDl#@@7DDk%uDDDDDDDDDDDDDDDDDDDDDDDDcZDD4-mDDDDDDDDDDDDDDDD",
"$@@@@@#<dZDCp:@@@1SDDDDq@@@0DDv1fDDDDDDDDDDDDDDDDDDDDDDDk,VDDt4VDDDDDDDDDDDDDDDD",
"=@@@#1fSDCp:@@@@@qDDDDn=@@@aDDSbZDVBDmnSDMVSnnSDVnbmSDDn;&nCSVnDSVnbVDDDDDDDDDDD",
"l,=3jSDCa>@@@@@#5VDDDS5@@@%nDDj%uZ,>w&%3l;10%%7a=%$&3mV<@@=;p5-Bp&$$&8CDDDDDDDDD",
"DSVSDCa>@@@@@@>dSDDDS0@@@@2SDDa@8V&@@#$=d%@@$#,u:77&@0a&@#>,p,#bt>84%@pDDDDDDDDD",
"DDDSd,@@@@@@&wVDDDDS0#@@@#fDDDa@8B&@&fvhc$@-lcjZCVn7@2S7@&mSC,#vZCVv2@9DDDDDDDDD",
"DDDd#@@@@@#3vDDDDDC7@@@@@1SDDDa@8B&@0DDDv$@pDDDm7=%#+1S7+&mDS,#vb3&%#@8DDDDDDDDD",
"DDD5@@@@@:dSDDDDDS7@@@@@%lDDDDa@8V&@jDDDv$$bDDS4@,p8+<S7+&mDS,#j,@3a3@8DDDDDDDDD",
"DDDt@@@&wVDDDDDDDd#@@@@@wDDDDDa@8V&#cDDDv$%mDDC-@fDp+<S8+%nDS,$a%$bD0@7DDDDDDDDD",
"DDDV8:5vDDDDDDDDD9@@@@@5ZDDDDDa@8V&#vDDDv$&BDDS,@,8-+&st++<5a,#f=@27&@-jDDDDDDDD",
"DDDDDSDDDDDDDDDDDp@@@@3VDDDDDDl&pZ1>VDDDB:2CDDDg-$>a7>fV5&%%p7:ma&%<a3,cDDDDDDDD",
"DDDDDDDDDDDDDDDDDC7##5VDDDDDDDSnSDVBDDDDDBVDDDDDBvCDSCDDSmbnSCmDDnvZDSSDDDDDDDDD",
"DDDDDDDDDDDDDDDDDDDDDDDDDDDDDDDDDDDDDDDDDDDDDDDDDDDDDDDDDDDDDDDDDDDDDDDDDDDDDDDD",
"DDDDDDDDDDDDDDDDDDDDDDDDDDDDDDDDDDDDDDDDDDDDDDDDDDDDDDDDDDDDDDDDDDDDDDDDDDDDDDDD",
"DDDDDDDDDDDDDDDDDDDDDDDDDDDDDDDDDDDDDDDDDDDDDDDDDDDDDDDDDDDDDDDDDDDDDDDDDDDDDDDD",
"DDDDDDDDDDDDDDDDDDDDDDDDDDDDDDDDDDDDDDDDDDDDDDDDDDDDDDDDDDDDDDDDDDDDDDDDDDDDDDDD",
"DDDDDDDDDDDDDDDDDDDDDDDDDDDDDDDDDDDDDDDDDDDDDDDDDDDDDDDDDDDDDDDDDDDDDDDDDDDDDDDD",
"DDDDDDDDDDDDDDDDDDDDDDDDDDDDDDDDDDDDDDDDDDDDDDDDDDDDDDDDDDDDDDDDDDDDDDDDDDDDDDDD",
"DDDDDDDDDDDDDDDDDDDDDDDDDDDDDDDDDDDDDDDDDDDDDDDDDDDDDDDDDDDDDDDDDDDDDDDDDDDDDDDD",
"DDDDDDDDDDDDDDDDDDDDDDDDDDDDDDDDDDDDDDDDDDDDDDDDDDDDDDDDDDDDDDDDDDDDDDDDDDDDDDDD",
"DDDDDDDDDDDDDDDDDDDDDDDDDDDDDDDDDDDDDDDDDDDDDDDDDDDDDDDDDDDDDDDDDDDDDDDDDDDDDDDD",
"DDDDDDDDDDDDDDDDDDDDDDDDDDDDDDDDDDDDDDDDDDDDDDDDDDDDDDDDDDDDDDDDDDDDDDDDDDDDDDDD",
"DDDDDDDDDDDDDDDDDDDDDDDDDDDDDDDDDDDDDDDDDDDDDDDDDDDDDDDDDDDDDDDDDDDDDDDDDDDDDDDD",
"DDDDDDDDDDDDDDDDDDDDDDDDDDDDDDDDDDDDDDDDDDDDDDDDDDDDDDDDDDDDDDDDDDDDDDDDDDDDDDDD",
"DDDDDDDDDDDDDDDDDDDDDDDDDDDDDDDDDDDDDDDDDDDDDDDDDDDDDDDDDDDDDDDDDDDDDDDDDDDDDDDD",
"DDDDDDDDDDDDDDDDDDDDDDDDDDDDDDDDDDDDDDDDDDDDDDDDDDDDDDDDDDDDDDDDDDDDDDDDDDDDDDDD",
"DDDDDDDDDDDDDDDDDDDDDDDDDDDDDDDDDDDDDDDDDDDDDDDDDDDDDDDDDDDDDDDDDDDDDDDDDDDDDDDD",
"DDDDDDDDDDDDDDDDDDDDDDDDDDDDDDDDDDDDDDDDDDDDDDDDDDDDDDDDDDDDDDDDDDDDDDDDDDDDDDDD",
"DDDDDDDDDDDDDDDDDDDDDDDDDDDDDDDDDDDDDDDDDDDDDDDDDDDDDDDDDDDDDDDDDDDDDDDDDDDDDDDD",
"DDDDDDDDDDDDDDDDDDDDDDDDDDDDDDDDDDDDDDDDDDDDDDDDDDDDDDDDDDDDDDDDDDDDDDDDDDDDDDDD",
"DDDDDDDDDDDDDDDDDDDDDDDDDDDDDDDDDDDDDDDDDDDDDDDDDDDDDDDDDDDDDDDDDDDDDDDDDDDDDDDD",
"DDDDDDDDDDDDDDDDDDDDDDDDDDDDDDDDDDDDDDDDDDDDDDDDDDDDDDDDDDDDDDDDDDDDDDDDDDDDDDDD",
"DDDDDDDDDDDDDDDDDDDDDDDDDDDDDDDDDDDDDDDDDDDDDDDDDDDDDDDDDDDDDDDDDDDDDDDDDDDDDDDD",
"DDDDDDDDDDDDDDDDDDDDDDDDDDDDDDDDDDDDDDDDDDDDDDDDDDDDDDDDDDDDDDDDDDDDDDDDDDDDDDDD",
"DDDDDDDDDDDDDDDDDDDDDDDDDDDDDDDDDDDDDDDDDDDDDDDDDDDDDDDDDDDDDDDDDDDDDDDDDDDDDDDD",
"DDDDDDDDDDDDDDDDDDDDDDDDDDDDDDDDDDDDDDDDDDDDDDDDDDDDDDDDDDDDDDDDDDDDDDDDDDDDDDDD",
"DDDDDDDDDDDDDDDDDDDDDDDDDDDDDDDDDDDDDDDDDDDDDDDDDDDDDDDDDDDDDDDDDDDDDDDDDDDDDDDD",
"DDDDDDDDDDDDDDDDDDDDDDDDDDDDDDDDDDDDDDDDDDDDDDDDDDDDDDDDDDDDDDDDDDDDDDDDDDDDDDDD"
};
