/* XPM */
static char *FDF[] = {
/* columns rows colors chars-per-pixel */
"80 80 63 1",
"  c #082C5E",
". c #0C2F61",
"X c #0E3162",
"o c #173968",
"O c #274772",
"+ c #32507A",
"@ c #56A726",
"# c #58A828",
"$ c #5AA92C",
"% c #5EAB30",
"& c #62AD35",
"* c #65AF3A",
"= c #67B03C",
"- c #69B13F",
"; c #6CB343",
": c #74B74D",
"> c #77B850",
", c #7ABA54",
"< c #7EBC5A",
"1 c #81BD5D",
"2 c #84BF61",
"3 c #88C166",
"4 c #8DC36C",
"5 c #96C878",
"6 c #3C5980",
"7 c #446085",
"8 c #4A6589",
"9 c #566E91",
"0 c #687E9D",
"q c #6D82A0",
"w c #7589A5",
"e c #8093AC",
"r c #99A8BC",
"t c #9ECC82",
"y c #A2CF88",
"u c #A7D18E",
"i c #AED597",
"p c #B3D79D",
"a c #BADBA6",
"s c #C1DFB0",
"d c #C3E0B1",
"f c #C5E1B5",
"g c #CBE4BC",
"h c #9FADC1",
"j c #AAB6C7",
"k c #AAB7C8",
"l c #BBC5D3",
"z c #C9D1DC",
"x c #CEE5C0",
"c c #D4E9C8",
"v c #DEEED4",
"b c #E1F0D9",
"n c #E5F1DD",
"m c #D7DDE5",
"M c #DEE3E9",
"N c #E8F3E1",
"B c #EAF4E4",
"V c #EFF6EA",
"C c #F2F8EE",
"Z c #EAEDF1",
"A c #F6FAF4",
"S c #F6F8F8",
"D c #FFFFFF",
/* pixels */
"DDDDDDDDDDDDDDDDDDDDDDDDDDDDDDDDDDVci51,:>>>>>>>>>>>>>>>>>>>>>>>>>>>>>>>>>>:5DDD",
"DDDDDDDDDDDDDDDDDDDDDDDDDDDDDDDDni,&#@@@@@@@@@@@@@@@@@@@@@@@@@@@@@@@@@@@@@@#uDDD",
"DDDDDDDDDDDDDDDDDDDDDDDDDDDDDDCp;@@@@@@@@@@@@@@@@@@@@@@@@@@@@@@@@@@@@@@@@@@*cDDD",
"DDDDDDDDDDDDDDDDDDDDDDDDDDDDDn4#@@@@@@@@@@@@@@@@@@@@@@@@@@@@@@@@@@@@@@@@@@@2ADDD",
"DDDDDDDDDDDDDDDDDDDDDDDDDDDDn<@@@@@@@@@@@@@@@@@@@@@@@@@@@@@@@@@@@@@@@@@@@@#aDDDD",
"DDDDDDDDDDDDDDDDDDDDDDDDDDDV2@@@@@@@@@@@@@@@@@@@@@@@@@@@@@@@@@@@@@@@@@@@@@,VDDDD",
"DDDDDDDDDDDDDDDDDDDDDDDDDDDu#@@@@@@@@@@@@@@@@@@@@@@@@@@@@@@@@@@@@@@@@@@@@$aDDDDD",
"DDDDDDDDDDDDDDDDDDDDDDDDDDc*@@@@@@@@@@@@@@@@@@@@@@@@@@@@@@@@@@@@@@@@@@@@@3ADDDDD",
"DDDDDDDDDDDDDDDDDDDDDDDDDD5@@@@@@@@@@@@@@@@@@@@@@@@@@@@@@@@@@@@@@@@@@@@@-cDDDDDD",
"DDDDDDDDDDDDDDDDDDDDDDDDDb-@@@@@@@@@@@@@@@@@@@@@@@@@@@@@@@@@@@@@@@@@@@@$aDDDDDDD",
"DDDDDDDDDDDDDDDDDDDDDDDDDa#@@@@@@@@@@@@@@@@@@@@@@@@@@@@@@@@@@@@@@@@@@@$uSDDDDDDD",
"DDDDDDDDDDDDDDDDDDDDDDDDA3@@@@@@@@@@@@@@@@@@@@@@@@@@@@@@@@@@@@@@@@@@@$uADDDDDDDD",
"DDDDDDDDDDDDDDDDDDDDDDDDv*@@@@@@@@@@@@@@@@@@@@@@@@@@@@@@@@@@@@@@@@@@&iADDDDDDDDD",
"DDDDDDDDDDDDDDDDDDDDDDDDp@@@@@@@@@@@@@@@@@@@@@@@@@@@@@@@@@@@@@@@@@#<gDDDDDDDDDDD",
"DDDDDDDDDDDDDDDDDDDDDDDA2@@@@@@@@@@@@@@@@@@@@@@@@@@@@@@@@@@@@@@@$,pVDDDDDDDDDDDD",
"DDDDDDDDDDDDDDDDDDDDDDDb:-----------------------------------;:2ygVDDDDDDDDDDDDDD",
"DDDDDDDDDDDDDDDDDDDDDDDANNNNNNNNNNNNNNNNNNNNNNNNNNNNNNNNNNNNNVADDDDDDDDDDDDDDDDD",
"DDDDDDDDDDDDDDDDDDDDDDDDDDDDDDDDDDDDDDDDDDDDDDDDDDDDDDDDDDDDDDDDDDDDDDDDDDDDDDDD",
"DDDDDDDDDDDDDDDDDDDDDDDDDDDDDDDDDDDDDDDDDDDDDDDDDDDDDDDDDDDDDDDDDDDDDDDDDDDDDDDD",
"DDDDDDDDDDDDDDDDDDDDDDDDDDDDDDDDDDDDDDDDDDDDDDDDDDDDDDDDDDDDDDDDDDDDDDDDDDDDDDDD",
"DDDDDDDDDDDDDDDDDDDDDDDDDDDDDDDDDDDDDDDDDDDDDDDDDDDDDDDDDDDDDDDDDDDDDDDDDDDDDDDD",
"DDDDDDDDDDDDDDDDDDDDDDDDDDDDDDDDDDDDDDDDDDDDDDDDDDDDDDDDDDDDDDDDDDDDDDDDDDDDDDDD",
"DDDDDDDDDDDDDDDDDDDDDDDDDDDDDDDDDDDDDDDDDDDDDDDDDDDDDDDDDDDDDDDDDDDDDDDDDDDDDDDD",
"DDDDDDDDDDDDDDDDDDDDSvcccccccccccccccccNDDDDDDDDDDDDDDDDDDDDDDDDDDDDDDDDDDDDDDDD",
"DDDDDDDDDDDDDDDDDDDDv;$%%%%%%%%%%%%%%%&dDDDDDDDDDDDDDDDDDDDDDDDDDDDDDDDDDDDDDDDD",
"DDDDDDDDDDDDDDDDDDDDa#@@@@@@@@@@@@@@@@;nDDDDDDDDDDDDDDDDDDDDDDDDDDDDDDDDDDDDDDDD",
"DDDDDDDDDDDDDDDDDDDS4@@@@@@@@@@@@@@@@@4SDDDDDDDDDDDDDDDDDDDDDDDDDDDDDDDDDDDDDDDD",
"DDDDDDDDDDDDDDDDDDDn-@@@@@@@@@@@@@@@@#aDDDDDDDDDDDDDDDDDDDDDDDDDDDDDDDDDDDDDDDDD",
"DDDDDDDDDDDDDDDDDDDa#@@@@@@@@@@@@@@@@=bDDDDDDDDDDDDDDDDDDDDDDDDDDDDDDDDDDDDDDDDD",
"DDDDDDDDDDDDDDDDDDD4@@@@@@@@@@@@@@@@@3SDDDDDDDDDDDDDDDDDDDDDDDDDDDDDDDDDDDDDDDDD",
"DDDDDDDDDDDDDDDDDDn;@@@@@@@@@@@@@@@@@aDDDDDDDDDDDDDDDDDDDDDDDDDDDDDDDDDDDDDDDDDD",
"DDDDDDDDDDDDDDDDDDs#@@@@@@@@@@@@@@@@*vDDDDDDDDDDDDDDDDDDDDDDDDDDDDDDDDDDDDDDDDDD",
"DDDDDDDDDDDDDDDDDD5@@@@@@@@@@@@@@@@@2ADDDDDDDDDDDDDDDDDDDDDDDDDDDDDDDDDDDDDDDDDD",
"DDDDDDDDDDDDDDDDDN;@@@@@@@@@@@@@@@@@pDDDDDDDDDDDDDDDDDDDDDDDDDDDDDDDDDDDDDDDDDDD",
"DDDDDDDDDDDDDDDDDf$@@@@@@@@@@@@@@@@&vDDDDDDDDDDDDDDDDDDDDDDDDDDDDDDDDDDDDDDDDDDD",
"DDDDDDDDDDDDDDDDD5@@@@@@@@@@@@@@@@@1ADDDDDDDDDDDDDDDDDDDDDDDDDDDDDDDDDDDDDDDDDDD",
"DDDDDDDDDDDDDDDDB:@@@@@@@@@@@@@@@@@iDDDDDDDDDDDDDDDDDDDDDDDDDDDDDDDDDDDDDDDDDDDD",
"DDDDDDDDDDDDDDDDg$@@@@@@@@@@@@@@@@$ydssssssssssssssssssgADDDDDDDDDDDDDDDDDDDDDDD",
"DDDDDDDDDDDDDDDDt@@@@@@@@@@@@@@@@@@@@@@@@@@@@@@@@@@@@@@3ADDDDDDDDDDDDDDDDDDDDDDD",
"DDDDDDDDDDDDDDDV:@@@@@@@@@@@@@@@@@@@@@@@@@@@@@@@@@@@@@@aDDDDDDDDDDDDDDDDDDDDDDDD",
"DDDDDDDDDDDDDDDg$@@@@@@@@@@@@@@@@@@@@@@@@@@@@@@@@@@@@@-bDDDDDDDDDDDDDDDDDDDDDDDD",
"DDDDDDDDDDDDDDDy@@@@@@@@@@@@@@@@@@@@@@@@@@@@@@@@@@@@@@4SDDDDDDDDDDDDDDDDDDDDDDDD",
"DDDDDDDDDDDDDDC,@@@@@@@@@@@@@@@@@@@@@@@@@@@@@@@@@@@@@#aDDDDDDDDDDDDDDDDDDDDDDDDD",
"DDDDDDDDDDDDDDx%@@@@@@@@@@@@@@@@@@@@@@@@@@@@@@@@@@@@@;nDDDDDDDDDDDDDDDDDDDDDDDDD",
"DDDDDDDDDDDDDDu@@@@@@@@@@@@@@@@@@@@@@@@@@@@@@@@@@@@@@5DDDDDDDDDDDDDDDDDDDDDDDDDD",
"DDDDDDDDDDDDDC,@@@@@@@@@@@@@@@@@@@@@@@@@@@@@@@@@@@@@$fDDDDDDDDDDDDDDDDDDDDDDDDDD",
"DDDDDDDDDDDDDc&@@@@@@@@@@@@@@@@@@@@@@@@@@@@@@@@@@@@@:BDDDDDDDDDDDDDDDDDDDDDDDDDD",
"DDDDDDDDDDDDDu@@@@@@@@@@@@@@@@@@@@@@@@@@@@@@@@@@@@@@5DDDDDDDDDDDDDDDDDDDDDDDDDDD",
"DDDDDDDDDDDDA<@@@@@@@@@@@@@@@@@@@@@@@@@@@@@@@@@@@@@$gDDDDDDDDDDDDDDDDDDDDDDDDDDD",
"DDDDDDDDDDDDv&@@@@@@@@@@@@@@@@@@@@@@@@@@@@@@@@@@@@@:VDDDDDDDDDDDDDDDDDDDDDDDDDDD",
"DDDDDDDDDDDDi@@@@@@@@@@@@@@@@@@@@@@@@@@@@@@@@@@@@@@yDDDDDDDDDDDDDDDDDDDDDDDDDDDD",
"DDDDDDDDDDDA2@@@@@@@@@@@@@@@@@1aaaaaaaaaaaaaaaaaaaanDDDDDDDDDDDDDDDDDDDDDDDDDDDD",
"DDDDDDDDDDDv*@@@@@@@@@@@@@@@@#dDDDDDDDDDDDDDDDDDDDDDDDDDDDDDDDDDDDDDDDDDDDDDDDDD",
"DDDDDDDDDDDp@@@@@@@@@@@@@@@@@;NDDDDDDDDDDDDDDDDDDDDDDDDDDDDDDDDDDDDDDDDDDDDDDDDD",
"DDDDDDDDDDA3@@@@@@@@@@@@@@@@@4DDDDDDDDDDDDDDDDDDDDDDDDDDDDDDDDDDDDDDDDDDDDDDDDDD",
"DDDDDDDDDDv=@@@@@@@@@@@@@@@@#aDDDDDDDDDDDDDDDDDDDDDDDDDDDDDDDDDDDDDDDDDDDDDDDDDD",
"DDDDDDDDDDa@@@@@@@@@@@@@@@@@-nDDDDDDDDDDDDDDDDDDDDDDDDDDDDDDDDDDDDDDDDDDDDDDDDDD",
"DDDDDDDDDS4@@@@@@@@@@@@@@@@@4SDDDDDDDDDDDDDDDDDDDDDDDDDDDDDDDDDDDDDDDDDDDDDDDDDD",
"DDDDDDDDDn-@@@@@@@@@@@@@@@@#aDDDDDDDDDDDDDDDDDDDDDDDDDDDDDDDDDDDDDDDDDDDDDDDDDDD",
"DDDDDDDDDa#@@@@@@@@@@@@@@@@=bDDDDDDDDDDDDDDDDDDDDDDDDDDDDDDDDDDDDDDDDDDDDDDDDDDD",
"DDDDDDDDS4@@@@@@@@@@@@@@@@@3ADDDDDDDDDDDDDDDDDDDDDDDDDZzjrrkmSDDDDDDDDDDDDDDDDDD",
"DDDDDDDDn;@@@@@@@@@@@@@@@@@pDDDDDDDDDDDDDDDDDDDDDDDDZr7oX  XO9lSDDDDDDDDDDDDDDDD",
"DDDDDDDDs$@@@@@@@@@@@@@@@@*vDDDDDDDDDDDDDDDDDDDDDDDz8.        oqZDDDDDDDDDDDDDDD",
"DDDDDDDD5@@@@@@@@@@@@@@@@@2ADDDDDDDDDDDDDDDDDDDDDDz+            9ZDDDDDDDDDDDDDD",
"DDDDDDDB;@@@@@@@@@@@@@@@@@iDDDDDDDDDDDDDDDDDDDDDDM+              0SDDDDDDDDDDDDD",
"DDDDDDDf$@@@@@@@@@@@@@@@@&vDDDDDDDDDDDDDDDDDDDDDDw               XjDDDDDDDDDDDDD",
"DDDDDDD5@@@@@@@@@@@@@@@@@1ADDDDDDDDDDDDDDDDDDDDDmO                8ZDDDDDDDDDDDD",
"DDDDDDB:@@@@@@@@@@@@@@@@@iDDDDDDDDDDDDDDDDDDDDDDr                 ozDDDDDDDDDDDD",
"DDDDDDg$@@@@@@@@@@@@@@@@&cDDDDDDDDDDDDDDDDDDDDDD0                  rDDDDDDDDDDDD",
"DDDDDDt@@@@@@@@@@@@@@@@@<CDDDDDDDDDDDDDDDDDDDDDS8                  wDDDDDDDDDDDD",
"DDDDDV:@@@@@@@@@@@@@@@@@uDDDDDDDDDDDDDDDDDDDDDDS8                  wDDDDDDDDDDDD",
"DDDDDx$@@@@@@@@@@@@@@@@%cDDDDDDDDDDDDDDDDDDDDDDS9                  eDDDDDDDDDDDD",
"DDDDDy@@@@@@@@@@@@@@@@@>CDDDDDDDDDDDDDDDDDDDDDDDw                  jDDDDDDDDDDDD",
"DDDDC,@@@@@@@@@@@@@@@@@yDDDDDDDDDDDDDDDDDDDDDDDDkX                OmDDDDDDDDDDDD",
"DDDDc%@@@@@@@@@@@@@@@@$gDDDDDDDDDDDDDDDDDDDDDDDDZ6                0SDDDDDDDDDDDD",
"DDDDu@@@@@@@@@@@@@@@@@:VDDDDDDDDDDDDDDDDDDDDDDDDDhX              OzDDDDDDDDDDDDD",
"DDDC<@@@@@@@@@@@@@@@@@tDDDDDDDDDDDDDDDDDDDDDDDDDDSq             ohDDDDDDDDDDDDDD",
"DDDc&@@@@@@@@@@@@@@@@$gDDDDDDDDDDDDDDDDDDDDDDDDDDDZ0X          orSDDDDDDDDDDDDDD",
"DDDt@@@@@@@@@@@@@@@@@:BDDDDDDDDDDDDDDDDDDDDDDDDDDDDSr+X      o9lDDDDDDDDDDDDDDDD",
"DDD<&&&&&&&&&&&&&&&&%5DDDDDDDDDDDDDDDDDDDDDDDDDDDDDDDMr9Ooo+0kZDDDDDDDDDDDDDDDDD"
};
