/* XPM */
static char * FLYMUSIC_xpm[] = {
"80 80 13 1",
" 	c #0B0002",
".	c #2B0A17",
"+	c #480D29",
"@	c #76405B",
"#	c #963E6B",
"$	c #C8729F",
"%	c #CA93B1",
"&	c #ECB8D6",
"*	c #E3C5D6",
"=	c #CFD1CE",
"-	c #E9E7E7",
";	c #FDEEFB",
">	c #FDFEFC",
">>>>>>>>>>>>>>>>>>>>>>>>>>>>>>>>>>>>>>>>>>>>>>>>>>>>>>>>>>>>>>>>>>>>>>>>>>>>>>>>",
">>>>>>>>>>>>>>>>>>>>>>>>>>>>>>>>>>>>>>>>>>>>>>>>>>>>>>>>>>>>>>>>>>>>>>>>>>>>>>>>",
">>>>>>>>>>>>>>>>>>>>>>>>>>>>>>>>>>>>>>>>>>>>>>>>>>>>>>>>>>>>>>>>>>>>>>>>>>>>>>>>",
">>>>>>>>>>>>>>>>>>>>>>>>>>>>>>>>>>>>>>>>>>>>>>>>>>>>>>>>>>>>>>>>>>>>>>>>>>>>>>>>",
">>>;;;;;;;;;;;;;;;;;;;;;;;>>>>>>>>>>>>>>>>>>>>>>>>>>>>>>>>>>>>>>>>>>>>>>>>>>>>>>",
">>;*%%%%%%%%%%%%%%%%%%%%%*;>>>>>>>>>>>>>>>>>>>>>>>>>>>>>>>>>>>>>>>>>>>>>>>>>>>>>",
">>;%#####################%;>>>>>>>>>--------->>>>>>------>>>>>>>>>>>>>------>>>>",
">>;%#+++++++++++++++++++#%;>>>>>>>>-=========>>>>>-======>>>>>>>>>>>>-======>>>>",
">>;%@.                 .#%;>>>>>>>>==========>>>>>-======>>>>>>>>>>>>-======>>>>",
">>;%@.                 .@%;>>>>>>>>==========>>>>>-======>>>>>>>>>>>>-======>>>>",
">>;%@.    .++........+++#%;>>>>>>>-==========>>>>>-======>>>>>>>>>>>>-=====->>>>",
">>;%@.   +##############$&;>>>>>>>===========>>>>>-======>>>>>>>>>>>>-=====->>>>",
">>;%@.   +#$%%%%%%%%%%&&&*>>>>>>>-===========>>>>>-======>>>>>>>>>>>>-======>>>>",
">>;%@.   +#%**********;;>>>>>>>>>-===========>>>>>-======>>>>>>>>>>>>-======>>>>",
">>;%@.   +#%*==========>>>>>>>>>>============>>>>>-======>>>>>>>>>>>>-======>>>>",
">>;%@.   +#%*===-======->>>>>>>>-============>>>>>-======>>>>>>>>>>>>-======>>>>",
">>;%@.   +#%****;-******;>>>>>>>======--=====>>>>>-======>>>>>>>>>>>>-======>>>>",
">>;%@.   +#$%%%%&*%%%%%%*;>>>>>-=====->-=====>>>>>-======>>>>>>>>>>>>-======>>>>",
">>;%@.   +@##@@@@$@@@@@@$&>>>>>-=====->-=====>>>>>-======>>>>>>>>>>>>-======>>>>",
">>;%@.    .+++++++++++++#%;>>>>======>>-=====>>>>>-======>>>>>>>>>>>>-======>>>>",
">>;%@.                 .#$;>>>-=====->>-=====>>>>>-======>>>>>>>>>>>>-======>>>>",
">>;%@.                 .#$;>>>-=====>>>-=====>>>>>-======>>>>>>>>>>>>-======>>>>",
">>;%@.    .............+#$;>>-======>>>-=====>>>>>-======>>>>>>>>>>>>-======>>>>",
">>;%@.   .@@@@@@@@@@@@@@#$;>>-=====->>>-=====>>>>>-======>>>>>>>>>>>>-======>>>>",
">>;%@.   +#$$$$$%%%%%$$$$%*>>======>>>>-=====>>>>>-======>>>>>>>>>>>>-======>>>>",
">>;%@.   +#$&&&&*;;;;&&&&*=--=====->>>>-=====>>>>>-======>>>>>>>>>>>>-======>>>>",
">>;%@.   +#%*===->>>>-============>>>>>-=====>>>>>>======>>>>>>>>>>>>-======>>>>",
">>;%@.   +#%*===->>>>>===========->>>>>-=====>>>>>>======->>>>>>>>>>>-=====->>>>",
">>;%@.   +#%*===->>>>>-==========->>>>>-=====>>>>>>======->>>>>>>>>>>======->>>>",
">>;%@.   +#%*===->>>>>-==========>>>>>>-=====>>>>>>-======->>>>>>>>>-======>>>>>",
">>;%@.   +#%*===->>>>>>=========->>>>>>-=====>>>>>>-=======->>>>>>>-======->>>>>",
">>;%@.   +#%*===->>>>>>-========>>>>>>>-=====>>>>>>>-========-----========->>>>>",
">>;%@.   +#%*===->>>>>>>=======->>>>>>>-=====>>>>>>>>====================->>>>>>",
">>;%@.   +#%*===->>>>>>>-======->>>>>>>-=====>>>>>>>>-==================->>>>>>>",
">>;%@+   +#%*===->>>>>>>>======>>>>>>>>-=====>>>>>>>>>--===============->>>>>>>>",
">>;%#@@@@##&;--->>>>>>>>>----->>>>>>>>>------>>>>>>>>>>>--==========--->>>>>>>>>",
">>;*%%%%%%%*;>>>>>>>>>>>>>>>>>>>>>>>>>>>>>>>>>>>>>>>>>>>>>---------->>>>>>>>>>>>",
">>>>;;;;;;;>>>>>>>>>>>>>>>>>>>>>>>>>>>>>>>>>>>>>>>>>>>>>>>>>>>>>>>>>>>>>>>>>>>>>",
">>>>>>>>>>>>>>>>>>>>>>>>>>>>>>>>>>>>>>>>>>>>>>>>>>>>>>>>>>>>>>>>>>>>>>>>>>>>>>>>",
">>>>>>>>>>>>>>>>>>>>>>>>>>>>>>>>>>>>>>>>>>>>>>>>>>>>>>>>>>>>>>>>>>>>>>>>>>>>>>>>",
">>>;;;;;;;;;>>>>>>>>>>>>;;;;;;;;>>>>>>>>>>>>>>;;;;;;;;;>>>>>>>>>>>>>>>>>>>>>>>>>",
">>;*%%%%%%%*>>------>>>;&%%%%%%%*;>>>>>>>>>>>;&%%%%%%%*>>>>>>------>>>>>>>>>>>>>",
">>;%##@@@##&*=========-;&###@@##$*;>-=====>>;&##@@@##%;>>--==========-->>>>>>>>>",
">>;%#+...+#%*==========*&$#+...+#%;>======->;$#+...+#&;--==============->>>>>>>>",
">>;%@.   +#%*===========*%#+.   +#&;======-;&#+    +%;-=================->>>>>>>",
">>;%@.   +#%*============*$#+   .@$;-=====;*$@    +@*;====================>>>>>>",
">>;%@.   +#%*=-->---=====*%$@.   +#%*=====*%#+   .@%;=========----========->>>>>",
">>;%@.   +#%;>>>>>>>>-====*$#+   .@$&====*&$@    +$*-=======->>>>>>-=======->>>>",
">>;%@.   +#%;>>>>>>>>>=====&$@.   .#$*===*$#.   .@%*======->>>>>>>>>-=======>>>>",
">>;%@.   +#&;>>>>>>>>>-====*%#+    +#%***%#+    @%;-=====->>>>>>>>>>>-======->>>",
">>;%@.   +#&;>>>>>>>>>------;%@.   +#$**&$#.   .@*;======>>>>>>>>>>>>>======->>>",
">>;%@.   +#%;>>>>>>>>>>>>>>>;*%+    +#%&%#+   .@*;-=====->>>>>>>>>>>>>-=====->>>",
">>;%@.   +#%*-->>>>>>>>>>>>>>;&@+   .#$$$@.   +%;;-=====->>>>>>>>>>>>>>>>>>>>>>>",
">>;%@.   +#%*===--->>>>>>>>>>>;%@.   +#$#+   .@%;-======>>>>>>>>>>>>>>>>>>>>>>>>",
">>;%@.   +#%*=======--->>>>>>>;*$+.   +#+.  .@%;>-======>>>>>>>>>>>>>>>>>>>>>>>>",
">>;%@.   +#%*==========-->>>>>>;%#+   .+.   +$*;>-======>>>>>>>>>>>>>>>>>>>>>>>>",
">>;%@.   +#%*=============->>>>>*$@         @&;>>-======>>>>>>>>>>>>>>>>>>>>>>>>",
">>;%@.   +#%*==============->>>>;&#.       .%;>>>-======>>>>>>>>>>>>>>>>>>>>>>>>",
">>;%@.   +#&;>--============->>>>;%@.     .@*;>>>-======>>>>>>>>>>>>>>>>>>>>>>>>",
">>;%@.   +#&;>>>>>-=========->>>>;*#+     @%;>>>>-======>>>>>>>>>>>>>>>>>>>>>>>>",
">>;%@.   +#&;>>>>>>>--=======->>>>;%@    .@*;>>>>-======->>>>>>>>>>>>>>>---->>>>",
">>;%@.   +#&;>>>>>>>>>-======->>>>;&@    .@*>>>>>>======->>>>>>>>>>>>>-=====->>>",
">>;%@.   +#&;>>>>>>>>>>-=====->>>>;&@    .@*>>>>>>-=====->>>>>>>>>>>>>-=====->>>",
">>;%@.   +#&;>>>>>>>>>>-=====->>>>;&@    .@*>>>>>>-======->>>>>>>>>>>>======->>>",
">>;%@.   +#&;>>>>>>>>>>-*====->>>>;&@    .@*>>>>>>>=======>>>>>>>>>>>-======>>>>",
">>;%@.   +#$&&&&&&&&&&&&&&===->>>>;&@    .@*>>>>>>>-======->>>>>>>>>-======->>>>",
">>;%@.   +#$$$$$$$$$$$$$$$*==>>>>>;&@    .@*>>>>>>>>========->>>>>>-=======>>>>>",
">>;%@.   .++++++++++++++#$*=->>>>>;&@    .@*>>>>>>>>>=========----========->>>>>",
">>;%@.                 .#$*->>>>>>;&@    .@*;>>>>>>>>-===================->>>>>>",
">>;%@.                 .#$*>>>>>>>;&@    .@*;>>>>>>>>>>=================->>>>>>>",
">>;%@.                 .#$;>>>>>>>;&@.   .@*>>>>>>>>>>>>-=============->>>>>>>>>",
">>;%@@@@@@@@@@@@@@@@@@@@#$;>>>>>>>;&@@@@@@%*>>>>>>>>>>>>>>--========-->>>>>>>>>>",
">>;*&&******************&*;>>>>>>>>*&******;>>>>>>>>>>>>>>>>>----->>>>>>>>>>>>>>",
">>>>;;;;;;;;;;;;;;;;;;;;;;>>>>>>>>>>;;;;;;;>>>>>>>>>>>>>>>>>>>>>>>>>>>>>>>>>>>>>",
">>>>>>>>>>>>>>>>>>>>>>>>>>>>>>>>>>>>>>>>>>>>>>>>>>>>>>>>>>>>>>>>>>>>>>>>>>>>>>>>",
">>>>>>>>>>>>>>>>>>>>>>>>>>>>>>>>>>>>>>>>>>>>>>>>>>>>>>>>>>>>>>>>>>>>>>>>>>>>>>>>",
">>>>>>>>>>>>>>>>>>>>>>>>>>>>>>>>>>>>>>>>>>>>>>>>>>>>>>>>>>>>>>>>>>>>>>>>>>>>>>>>",
">>>>>>>>>>>>>>>>>>>>>>>>>>>>>>>>>>>>>>>>>>>>>>>>>>>>>>>>>>>>>>>>>>>>>>>>>>>>>>>>",
">>>>>>>>>>>>>>>>>>>>>>>>>>>>>>>>>>>>>>>>>>>>>>>>>>>>>>>>>>>>>>>>>>>>>>>>>>>>>>>>",
">>>>>>>>>>>>>>>>>>>>>>>>>>>>>>>>>>>>>>>>>>>>>>>>>>>>>>>>>>>>>>>>>>>>>>>>>>>>>>>>"};
