/* XPM */
static char *IB_[] = {
/* columns rows colors chars-per-pixel */
"80 80 49 1",
"  c #CD0F8C",
". c #CE128D",
"X c #CF1790",
"o c #CF1B92",
"O c #D01F93",
"+ c #D22697",
"@ c #D22898",
"# c #D32B99",
"$ c #D5349E",
"% c #D538A0",
"& c #D63DA2",
"* c #D843A5",
"= c #D846A6",
"- c #D949A8",
"; c #DA4DAA",
": c #DB53AC",
"> c #DC59AF",
", c #DD5CB1",
"< c #DE63B4",
"1 c #E069B7",
"2 c #E16EBA",
"3 c #E273BC",
"4 c #E37ABF",
"5 c #E47EC1",
"6 c #E583C3",
"7 c #E78BC7",
"8 c #E78EC9",
"9 c #E891CA",
"0 c #E893CB",
"q c #EA9ACF",
"w c #EB9FD1",
"e c #ECA3D3",
"r c #EDABD6",
"t c #EEAFD9",
"y c #EFB4DB",
"u c #F0B8DD",
"i c #F1BBDE",
"p c #F2BFE0",
"a c #F3C4E3",
"s c #F4CCE6",
"d c #F5D0E8",
"f c #F6D6EB",
"g c #F7DAED",
"h c #F8DFEF",
"j c #F8E0F0",
"k c #F9E4F2",
"l c #FBECF6",
"z c #FDF5FA",
"x c #FFFFFF",
/* pixels */
"xxxxxxxxxxxxxxxxxxxxxxxxxxxxxxxxlfie72,,,,<6eiflzxxxxxxxxxxxxxxxxxxxxxxxxxxxxxxx",
"xxxxxxxxxxxxxxxxxxxxxxxxxxxxla9<=@o..     ...o@*,8alxxxxxxxxxxxxxxxxxxxxxxxxxxxx",
"xxxxxxxxxxxxxxxxxxxxxxxxxli4*O                    o&4ilxxxxxxxxxxxxxxxxxxxxxxxxx",
"xxxxxxxxxxxxxxxxxxxxxxxhq;o                          o-9hxxxxxxxxxxxxxxxxxxxxxxx",
"xxxxxxxxxxxxxxxxxxxxxh7$.                              .$6gxxxxxxxxxxxxxxxxxxxxx",
"xxxxxxxxxxxxxxxxxxxlq%.                                  .$9kxxxxxxxxxxxxxxxxxxx",
"xxxxxxxxxxxxxxxxxxi;.                                      .*izxxxxxxxxxxxxxxxxx",
"xxxxxxxxxxxxxxxxl6+                                          O5lxxxxxxxxxxxxxxxx",
"xxxxxxxxxxxxxxxf>.                                            .:dxxxxxxxxxxxxxxx",
"xxxxxxxxxxxxxxy$                                                $yxxxxxxxxxxxxxx",
"xxxxxxxxxxxxxe@                                                  @wzxxxxxxxxxxxx",
"xxxxxxxxxxxzq+                                                  ..o9zxxxxxxxxxxx",
"xxxxxxxxxxxqO            .  .  .      .   .                        o9xxxxxxxxxxx",
"xxxxxxxxxxe+          .@@##@#@@o .@@#@#@#@#@#@++o.                  oexxxxxxxxxx",
"xxxxxxxxxi@          @whkkkkkkk6 =gkkkkkkkkkkkkfpw3&X               .+yxxxxxxxxx",
"xxxxxxxxg&          .8xxxxxxxxx0.:zxxxxxxxxxxxxxxxxly<o               %fxxxxxxxx",
"xxxxxxxl<           +dxxxxxxxxx9.:zxxxxxxxxxxxxxxxxxxzy*               ,lxxxxxxx",
"xxxxxxx8.           @gxxxxxxxxx9.:zxxxxxxxxxxxxxxxxxxxxh,.             .7xxxxxxx",
"xxxxxxa@            @fxxxxxxxxx9.:zxxxxxxxxxxxxxxxxxxxxxl,              +axxxxxx",
"xxxxxz,             @gxxxxxxxxx9.:zxxxxxxxxxxxxxxxxxxxxxxg&              >lxxxxx",
"xxxxxr.             +fxxxxxxxxx9.:zxxxxxxxxxxxxxxxxxxxxxxxrX             .wxxxxx",
"xxxxl=              .8xxxxxxxxx9.;zxxxxxxxxxxxxxxxxxxxxxxxz>              &kxxxx",
"xxxxq.               @eklllllll6 -kllllllllzzxxxxxxxxxxxxxxe.             .9xxxx",
"xxxl-                 o$&&&&&&&+ X&&&&&&&&*-:2ehxxxxxxxxxxxg@              *kxxx",
"xxxtX                                         .&ezxxxxxxxxxz:              .rxxx",
"xxz,                 .&58778888:                +yxxxxxxxxxx2               >zxx",
"xxf@                .:kxxxxxxxx9.                <zxxxxxxxxx6               +sxx",
"xxq.                .ixxxxxxxxx9.                &lxxxxxxxxx6               .9xx",
"xz:                 +fxxxxxxxxx9.                $kxxxxxxxxx4                :zx",
"xg@                 @fxxxxxxxxx9.                *lxxxxxxxxx1                +fx",
"xy.                 @fxxxxxxxxx9.                4xxxxxxxxxl=                .rx",
"x7                  @fxxxxxxxxx9.               %fxxxxxxxxxs+                 5x",
"z,                  @fxxxxxxxxx0. .        .  .;axxxxxxxxxx8                  >z",
"l&                  @fxxxxxxxxx0..@$$$$$$$$%-<rlxxxxxxxxxxj&                  &k",
"d+                  @fxxxxxxxxx9.=fkkkkkkkkllxxxxxxxxxxxxz4.                  +a",
"io                  @fxxxxxxxxx0.:zxxxxxxxxxxxxxxxxxxxxxz7..                  .y",
"r.                  @fxxxxxxxxx0.:zxxxxxxxxxxxxxxxxxxxxj3X                    .e",
"q.                  @fxxxxxxxxx9.;zxxxxxxxxxxxxxxxxxxxk,.                     .8",
"8.                  @fxxxxxxxxx0.:zxxxxxxxxxxxxxxxxxxxzs1o.                   .5",
"8.                  @fxxxxxxxxx0.:zxxxxxxxxxxxxxxxxxxxxxze@                   .5",
"8.                  @fxxxxxxxxx9.:zxxxxxxxxxxxxxxxxxxxxxxxi@                  .6",
"8.                  @fxxxxxxxxx0.:zxxxxxxxxxxxxxxxxxxxxxxxxeo                 .6",
"9..                 @fxxxxxxxxx0.%yaassssssssgzxxxxxxxxxxxxz2                 .7",
"r.                  @fxxxxxxxxx9..XXooOoOOOO+@;9hxxxxxxxxxxxs+                .e",
"iX                  @fxxxxxxxxx9.              .&yxxxxxxxxxxz,                .y",
"d@                  @fxxxxxxxxx9.                @axxxxxxxxxxq.               +a",
"l&                  @fxxxxxxxxx9.                 <zxxxxxxxxxio               %k",
"z,                  @fxxxxxxxxx9.                .@gxxxxxxxxxg@               >z",
"x6                  @fxxxxxxxxx9.                 +sxxxxxxxxxk$               5x",
"xt.                 @fxxxxxxxxx9.                 Oaxxxxxxxxxl$              .rx",
"xf@                 @fxxxxxxxxx9.                 +fxxxxxxxxxl$              +fx",
"xz>                 @fxxxxxxxxx9.                 *lxxxxxxxxxk$              ;zx",
"xxq.                @fxxxxxxxxx9.                 6xxxxxxxxxxf+             .7xx",
"xxf@                @fxxxxxxxxx0.                *gxxxxxxxxxxy.             +sxx",
"xxz,                @fxxxxxxxxx0.              .-sxxxxxxxxxxx5              :zxx",
"xxxr.               @fxxxxxxxxx9..oooooooooO+$>qkxxxxxxxxxxxk&             .exxx",
"xxxl*               @fxxxxxxxxx0.&iaaaaaaaasdkzxxxxxxxxxxxxxe.            .&kxxx",
"xxxxq.              @fxxxxxxxxx0.:zxxxxxxxxxxxxxxxxxxxxxxxxk*             .9xxxx",
"xxxxk*              @fxxxxxxxxx9.:zxxxxxxxxxxxxxxxxxxxxxxxx7.             &kxxxx",
"xxxxxe.             @fxxxxxxxxx0.:zxxxxxxxxxxxxxxxxxxxxxxxy+             .qxxxxx",
"xxxxxl>             @fxxxxxxxxx0.:zxxxxxxxxxxxxxxxxxxxxxxa$              :lxxxxx",
"xxxxxxa+            @fxxxxxxxxx9.;zxxxxxxxxxxxxxxxxxxxxxy$              +pxxxxxx",
"xxxxxxx7.           +fxxxxxxxxx0.;zxxxxxxxxxxxxxxxxxxxl9@              .6xxxxxxx",
"xxxxxxxl>           Xtxxxxxxxxx9.;zxxxxxxxxxxxxxxxxxkr:.               :lxxxxxxx",
"xxxxxxxxd%           *dxxxxxxxx8 ;zxxxxxxxxxxzzlgae3&X                $sxxxxxxxx",
"xxxxxxxxxy+           #<3333332& +1333333332<:=&@o.                . +yxxxxxxxxx",
"xxxxxxxxxxe+                                    .                  .oqxxxxxxxxxx",
"xxxxxxxxxxx9o                                                      .8zxxxxxxxxxx",
"xxxxxxxxxxxz9o                                                    o7zxxxxxxxxxxx",
"xxxxxxxxxxxxzw+                                                  +9zxxxxxxxxxxxx",
"xxxxxxxxxxxxxxy$                                                @rxxxxxxxxxxxxxx",
"xxxxxxxxxxxxxxxs:.                                            .-axxxxxxxxxxxxxxx",
"xxxxxxxxxxxxxxxxk4+                                          o3kxxxxxxxxxxxxxxxx",
"xxxxxxxxxxxxxxxxxzy*.                                      .*yzxxxxxxxxxxxxxxxxx",
"xxxxxxxxxxxxxxxxxxxk8$                                    @7kxxxxxxxxxxxxxxxxxxx",
"xxxxxxxxxxxxxxxxxxxxxg5$.                              .@4fxxxxxxxxxxxxxxxxxxxxx",
"xxxxxxxxxxxxxxxxxxxxxxxg7*o                          X*7gxxxxxxxxxxxxxxxxxxxxxxx",
"xxxxxxxxxxxxxxxxxxxxxxxxxly3&o                    o&2ylxxxxxxxxxxxxxxxxxxxxxxxxx",
"xxxxxxxxxxxxxxxxxxxxxxxxxxxxkp7:&+X..      ..X@&:7ikxxxxxxxxxxxxxxxxxxxxxxxxxxxx",
"xxxxxxxxxxxxxxxxxxxxxxxxxxxxxxxzksyw6<,,,,<6qtskzxxxxxxxxxxxxxxxxxxxxxxxxxxxxxxx"
};
