/* XPM */
static char *IB_[] = {
/* columns rows colors chars-per-pixel */
"80 80 107 2",
"   c #CC0D8B",
".  c #CC0E8B",
"X  c #CD0E8B",
"o  c #CC0F8B",
"O  c #CD0F8B",
"+  c #CC0E8C",
"@  c #CD0E8C",
"#  c #CC0F8C",
"$  c #CD0F8C",
"%  c #CD108C",
"&  c #CD118C",
"*  c #CD108D",
"=  c #CD118D",
"-  c #CD128D",
";  c #CD138D",
":  c #CE128D",
">  c #CE138D",
",  c #CD128E",
"<  c #CD138E",
"1  c #CE138E",
"2  c #CD148E",
"3  c #CD158E",
"4  c #CE148E",
"5  c #CE158E",
"6  c #CE148F",
"7  c #CE158F",
"8  c #CE168F",
"9  c #CE178F",
"0  c #CE1690",
"q  c #CE1790",
"w  c #CF1790",
"e  c #CE1890",
"r  c #CF1890",
"t  c #CE1990",
"y  c #CF1990",
"u  c #CE1991",
"i  c #CF1991",
"p  c #CF1A91",
"a  c #CF1B91",
"s  c #CF1A92",
"d  c #CF1B92",
"f  c #CF1C92",
"g  c #CF1D92",
"h  c #CF1C93",
"j  c #CF1D93",
"k  c #CF1E93",
"l  c #CF1F93",
"z  c #CF1F94",
"x  c #D01C92",
"c  c #D01D92",
"v  c #D01D93",
"b  c #D01E92",
"n  c #D01E93",
"m  c #D01F93",
"M  c #D01F94",
"N  c #D02093",
"B  c #D02094",
"V  c #D02194",
"C  c #D12194",
"Z  c #D02195",
"A  c #D02294",
"S  c #D12294",
"D  c #D02295",
"F  c #D12295",
"G  c #D02395",
"H  c #D12395",
"J  c #D12396",
"K  c #D12495",
"L  c #D12595",
"P  c #D12496",
"I  c #D12596",
"U  c #D12597",
"Y  c #D12696",
"T  c #D12697",
"R  c #D12797",
"E  c #D22697",
"W  c #D22797",
"Q  c #D22897",
"!  c #D12798",
"~  c #D12898",
"^  c #D12998",
"/  c #D22898",
"(  c #D22998",
")  c #D22A98",
"_  c #D22A99",
"`  c #D22B99",
"'  c #D32B99",
"]  c #D22C99",
"[  c #D32C99",
"{  c #D22C9A",
"}  c #D32C9A",
"|  c #D32D9A",
" . c #D32E9A",
".. c #D32E9B",
"X. c #D32F9B",
"o. c #D42F9B",
"O. c #D3309B",
"+. c #D4309B",
"@. c #D3309C",
"#. c #D3319C",
"$. c #D3329D",
"%. c #D4309C",
"&. c #D4319C",
"*. c #D4329D",
"=. c #D4339D",
"-. c #D4349D",
";. c None",
/* pixels */
";.;.;.;.;.;.;.;.;.;.;.;.;.;.;.;.;.;.;.;.;.;.;.;.;.;.;.;.;.;.;.;.;.;.;.;.;.;.;.;.;.;.;.;.;.;.;.;.;.;.;.;.;.;.;.;.;.;.;.;.;.;.;.;.;.;.;.;.;.;.;.;.;.;.;.;.;.;.;.;.",
";.;.;.;.;.;.;.;.;.;.;.;.;.;.;.;.;.;.;.;.;.;.;.;.;.;.;.;.;.;.;.;.' Q N p p ;   ; % % ; 7 p A R ' ;.;.;.;.;.;.;.;.;.;.;.;.;.;.;.;.;.;.;.;.;.;.;.;.;.;.;.;.;.;.;.;.",
";.;.;.;.;.;.;.;.;.;.;.;.;.;.;.;.;.;.;.;.;.;.;.;.;.;.;.;.| N 7 ; % . . . . . . . . % . . .   ; . ; 7 m | ;.;.;.;.;.;.;.;.;.;.;.;.;.;.;.;.;.;.;.;.;.;.;.;.;.;.;.;.",
";.;.;.;.;.;.;.;.;.;.;.;.;.;.;.;.;.;.;.;.;.;.;.;.;.| A 7 % % . % . . . . . ;   . . . . . . . . . . . . ; 7 A O.;.;.;.;.;.;.;.;.;.;.;.;.;.;.;.;.;.;.;.;.;.;.;.;.;.",
";.;.;.;.;.;.;.;.;.;.;.;.;.;.;.;.;.;.;.;.;.;.;.Q p ; . . . . . . . . . . . . . . % . . % . . . . . . . . . . ; p ' ;.;.;.;.;.;.;.;.;.;.;.;.;.;.;.;.;.;.;.;.;.;.;.",
";.;.;.;.;.;.;.;.;.;.;.;.;.;.;.;.;.;.;.;.;.' p %     . .   . . . % . . . . . . . . . . . . . . .   . . . . . . .   p ' ;.;.;.;.;.;.;.;.;.;.;.;.;.;.;.;.;.;.;.;.;.",
";.;.;.;.;.;.;.;.;.;.;.;.;.;.;.;.;.;.;.| k ; . .   . . . ; . . . . . . . . . . . . . . . . . . .   ; . . . . . . . . ; p ' ;.;.;.;.;.;.;.;.;.;.;.;.;.;.;.;.;.;.;.",
";.;.;.;.;.;.;.;.;.;.;.;.;.;.;.;.;.;.A ; . . % . ; . . . . . . . . . . . . ; . . . % . . % . ; .     . .   ; . . . . . . ; A ;.;.;.;.;.;.;.;.;.;.;.;.;.;.;.;.;.;.",
";.;.;.;.;.;.;.;.;.;.;.;.;.;.;.;.+.p % . % . . . . . . . . . . . % . . . . . . . . . . . . . . . . . . . . . . .     . % . ; p | ;.;.;.;.;.;.;.;.;.;.;.;.;.;.;.;.",
";.;.;.;.;.;.;.;.;.;.;.;.;.;.;.R 7 % . . . . . . . . . . . . . . . . . % . . ; . . . . . . . . . %   % . . . % . ;   . . . . . 7 R ;.;.;.;.;.;.;.;.;.;.;.;.;.;.;.",
";.;.;.;.;.;.;.;.;.;.;.;.;.;.A ; . . . . . . . % . % . . . . . . . . . . . . . . . . . . . .         % . % . . . . . . . . . . . ; A ;.;.;.;.;.;.;.;.;.;.;.;.;.;.",
";.;.;.;.;.;.;.;.;.;.;.;.;.m ; . . . . % . % . . . . . ;     . . . . % . . . . . . . % . . . ;     % . . . . % . . . . . . . . . . ; k ;.;.;.;.;.;.;.;.;.;.;.;.;.",
";.;.;.;.;.;.;.;.;.;.;.;.z ; . . . % . . . . . . . . . . . . . . . % . . . . . . . . . . . . . .     %   . . . . . . . . . . . . . . ; k ;.;.;.;.;.;.;.;.;.;.;.;.",
";.;.;.;.;.;.;.;.;.;.;.A ; . . . . . . . . . ; ; ; ; % ; ; ; ; ; . % ; ; ; ; ; ; ; ; ; ; ; ; ; 7 7 %     . . . . . % . . . % % . . . . . m ;.;.;.;.;.;.;.;.;.;.;.",
";.;.;.;.;.;.;.;.;.;.A ; . . . . . . . . . ; ' ;.;.;.;.;.;.;.;.A 7 k ;.;.;.;.;.;.;.;.;.;.;.;.;.;.;.| G y ;   . . . % % . . % . . ; . . . ; m ;.;.;.;.;.;.;.;.;.;.",
";.;.;.;.;.;.;.;.;.R ; . . . . . . . . . % R ;.;.;.;.;.;.;.;.;.=.7 N ;.;.;.;.;.;.;.;.;.;.;.;.;.;.;.;.;.;.| k 7 . . . . . . . . .     . . . ; R ;.;.;.;.;.;.;.;.;.",
";.;.;.;.;.;.;.;.;.7 . . . % . . . . . % ; ;.;.;.;.;.;.;.;.;.;.=.7 A ;.;.;.;.;.;.;.;.;.;.;.;.;.;.;.;.;.;.;.;.| p   . . . . . . % . . . . . . 7 O.;.;.;.;.;.;.;.;.",
";.;.;.;.;.;.;.;.a % % . . . . % . % . . 7 ;.;.;.;.;.;.;.;.;.;.@.7 A ;.;.;.;.;.;.;.;.;.;.;.;.;.;.;.;.;.;.;.;.;.;.p ; . . . . . . % . . % . . % a ;.;.;.;.;.;.;.;.",
";.;.;.;.;.;.;.R % . . . . % . . . % . % 7 ;.;.;.;.;.;.;.;.;.;.| 7 A ;.;.;.;.;.;.;.;.;.;.;.;.;.;.;.;.;.;.;.;.;.;.;.k   . . . . . . . . . % . . % R ;.;.;.;.;.;.;.",
";.;.;.;.;.;.;.; . . . % . . . . . . . . 7 ;.;.;.;.;.;.;.;.;.;.| 7 R ;.;.;.;.;.;.;.;.;.;.;.;.;.;.;.;.;.;.;.;.;.;.;.;.7 ; . . . % . . % . . . . . ; O.;.;.;.;.;.;.",
";.;.;.;.;.;.m . % . . . . % . . . . . . 7 ;.;.;.;.;.;.;.;.;.;.| ; A ;.;.;.;.;.;.;.;.;.;.;.;.;.;.;.;.;.;.;.;.;.;.;.;.R ; % . . . . . . . . . . . . k ;.;.;.;.;.;.",
";.;.;.;.;.' ; . . . . . . . . % . . . . ; ' ;.;.;.;.;.;.;.;.;.| 7 A ;.;.;.;.;.;.;.;.;.;.;.;.;.;.;.;.;.;.;.;.;.;.;.;.;.k . . . % . % . % . . % . . ; ' ;.;.;.;.;.",
";.;.;.;.;.p . . . . . . . . . . . % . .   q ;.;.;.;.;.;.;.;.;.o.7 A ;.;.;.;.;.;.;.;.;.;.;.;.;.;.;.;.;.;.;.;.;.;.;.;.;.' ; . . . . . % . . % % . . . p ;.;.;.;.;.",
";.;.;.;.' ; . . . % . . % . . . . . . ;   ; 7 A R R R A R ' R m   7 A ' R R R R R R R R A ' ;.;.;.;.;.;.;.;.;.;.;.;.;.;.7 . % . . . . . . . . . . .   | ;.;.;.;.",
";.;.;.;.k . . . . . . . . . . . . % . . . . . ;   ;   ; ; ;         . . . . . . . . . % % % 7 R ;.;.;.;.;.;.;.;.;.;.;.;.m       . % . . . % . . . . . m ;.;.;.;.",
";.;.;.;.; . . . % . % . % . . % . . . . . ; p p A A A A A A R k ;   . . . .   . . % . . . . . % m ;.;.;.;.;.;.;.;.;.;.;.A   . ; . . . . . . . % . . . ; =.;.;.;.",
";.;.;.A . . . ; . . . . . . . . % . % . . p ;.;.;.;.;.;.;.;.;.=.7     . . . ; . . . . . . . . . ; R ;.;.;.;.;.;.;.;.;.;.R ; . . % . . . . % . . . . . . A ;.;.;.",
";.;.;.p . . .   . % . . . . % . . . . . ; o.;.;.;.;.;.;.;.;.;.O.7   ; . . . . . . . % . % . . .   A ;.;.;.;.;.;.;.;.;.;.R   . . . . . % . . . .   . . . p ;.;.;.",
";.;.| ;     .   . . . . . . % . . . . . 7 ;.;.;.;.;.;.;.;.;.;.| 7 . . % . . . % . . . . . . . .   m ;.;.;.;.;.;.;.;.;.;.R       . % . . % . . %   . . . ; | ;.;.",
";.;.A .     . . . % % . . % . . . . . % 7 ;.;.;.;.;.;.;.;.;.;.| 7 . . . . . . . . % % . . . . ; ; A ;.;.;.;.;.;.;.;.;.;.A   ;   . . . . . . . . ; . . . . A ;.;.",
";.;.m . ; . . . . % . . . . % . % . . . 7 ;.;.;.;.;.;.;.;.;.;.| 7 . . . . . . . . . % . . .     ; ' ;.;.;.;.;.;.;.;.;.;.m   . . . . . . . . . . . . . . . p ;.;.",
";.;.7 . . . . . . . . . . . . . . . % . 7 ;.;.;.;.;.;.;.;.;.;.| 7 . . % . . . % . . . . . . .   m ;.;.;.;.;.;.;.;.;.;.;.7   . . % . . % . . . . % . . . . 7 ;.;.",
";.O.%   o . . . % . . . . % . . . . . ; 7 ;.;.;.;.;.;.;.;.;.;.| 7 . . . . . . . . . . . . . 7 A ;.;.;.;.;.;.;.;.;.;.;.R   . . . . . . . . . % . . . % . ; ; @.;.",
";.Q % . o . . % . . . % . . . . . . .   7 ;.;.;.;.;.;.;.;.;.;.| ; ; p m k k x k x m p k m A ;.;.;.;.;.;.;.;.;.;.;.;.;.p   ; . . . % . % % . . . . . . .     Q ;.",
";.m . . o o o o . . . . . . . % . . . . 7 ;.;.;.;.;.;.;.;.;.;.=.7 k ;.;.;.;.;.;.;.;.;.;.;.;.;.;.;.;.;.;.;.;.;.;.;.;.R ; . ; . . . . % . . . . . . . . % . . p ;.",
";.p . % o o o . % . . . % . . . . . . . 7 ;.;.;.;.;.;.;.;.;.;.O.7 A ;.;.;.;.;.;.;.;.;.;.;.;.;.;.;.;.;.;.;.;.;.;.;.' ; . .     . . . . . . . % . % . . . . . p ;.",
";.p . . % .   . . . . % . . . . . % . . 7 ;.;.;.;.;.;.;.;.;.;.+.7 A ;.;.;.;.;.;.;.;.;.;.;.;.;.;.;.;.;.;.;.;.;.;.R 7 . . . . . . . . . . . . . . . . . . % . p ;.",
";.p . .   %   % . . . . . % . % . . % . 7 ;.;.;.;.;.;.;.;.;.;.+.7 A ;.;.;.;.;.;.;.;.;.;.;.;.;.;.;.;.;.;.;.;.;.' ; . . % . . . . . . % . . . % . . . . . . . y ;.",
";.q . . %     % % . . . . . . . . . . . 7 ;.;.;.;.;.;.;.;.;.;.=.7 A ;.;.;.;.;.;.;.;.;.;.;.;.;.;.;.;.;.;.;.;.;.;.A 7 . . . . . . . % % . % . . . % . . . . . 7 ;.",
";.p   .     %     .   % . . % . . . % . 7 ;.;.;.;.;.;.;.;.;.;.O.7 A ;.;.;.;.;.;.;.;.;.;.;.;.;.;.;.;.;.;.;.;.;.;.;.O.7 ; . . . % . . . . . . % . . . . % . . 7 ;.",
";.p       ; . . . . . . . . . . . % . % 7 ;.;.;.;.;.;.;.;.;.;.O.7 A ;.;.;.;.;.;.;.;.;.;.;.;.;.;.;.;.;.;.;.;.;.;.;.;.;.p . . .   . % . . % . . . . .     . ; 7 ;.",
";.q . .     . . . . % . . % % . . . . . 7 ;.;.;.;.;.;.;.;.;.;.O.7 A ;.;.;.;.;.;.;.;.;.;.;.;.;.;.;.;.;.;.;.;.;.;.;.;.;.| ; . ;   . . . . . . . % . . ;   .   q ;.",
";.p . . . . . . . % . % . . % . . . . . 7 ;.;.;.;.;.;.;.;.;.;.@.7 m ;.;.;.;.;.;.;.;.;.;.;.;.;.;.;.;.;.;.;.;.;.;.;.;.;.;.A % . . . . . . . . . . . . . . . . 7 ;.",
";.p . .   . . . . . . . . . . . . % . % 7 ;.;.;.;.;.;.;.;.;.;.| 7   7 7 7 7 7 7 7 7 7 7 7 p A =.;.;.;.;.;.;.;.;.;.;.;.;.;.; . . % . . % . % . . . . . . . . p ;.",
";.p   . ; . . . . . % . . . % . . . . % 7 ;.;.;.;.;.;.;.;.;.;.X.; .   ; . . . . . . . . . . . ; A ;.;.;.;.;.;.;.;.;.;.;.;.A . . % . . . % . . . . % . . ; . 7 ;.",
";.k ; . . . . . . . . . % . . . % . . . 7 ;.;.;.;.;.;.;.;.;.;.| 7 .     . . ;   ;   . . . . . .   m ;.;.;.;.;.;.;.;.;.;.;.| ; . . . . . . . . % . . . .     k ;.",
";.' . . . % . . % . . % . . . . . . % . 7 ;.;.;.;.;.;.;.;.;.;.O.7 . .   . . . . . . . . % . . . . ; Q ;.;.;.;.;.;.;.;.;.;.;.; . . . . . . . . . % . . % .   ' ;.",
";.| ; . . . . . . . . . . . . % . . . . 7 ;.;.;.;.;.;.;.;.;.;.| 7 . . . . . . . . . . . . . . % . . m ;.;.;.;.;.;.;.;.;.;.;.7 . % . . . % . . . . . . . . ; @.;.",
";.;.7   . . % . . . . . . . . . . . . . 7 ;.;.;.;.;.;.;.;.;.;.O.7 . . .   . . . . % . . . . . . . . k ;.;.;.;.;.;.;.;.;.;.;.7 . % . . . % . . . % . %   . 7 ;.;.",
";.;.k   . . . . . % % . . % . . . . % . 7 ;.;.;.;.;.;.;.;.;.;.| 7 . . . ; . . . . . . . . % . .   . k ;.;.;.;.;.;.;.;.;.;.;.7   . . . . . . . .   . %   . p ;.;.",
";.;.A . . % . % . % . . . % % . . % . % 7 ;.;.;.;.;.;.;.;.;.;.O.7 . . . . . . . . . . % . % . . . . m ;.;.;.;.;.;.;.;.;.;.;.7 . . . . . . . . % %     % . N ;.;.",
";.;.| ; . . . . . . . . . . . . . . . . 7 ;.;.;.;.;.;.;.;.;.;.| 7 . . . . . . . . % . . . . . . . ; A ;.;.;.;.;.;.;.;.;.;.;.7 . % . . . % . . .   %     ; | ;.;.",
";.;.;.p   ; . . . % . . . % . . . . . . 7 ;.;.;.;.;.;.;.;.;.;.| 7 . . .       . . % . . ; . . . . 7 ;.;.;.;.;.;.;.;.;.;.;.;.7 . . . . % . % . . %       y ;.;.;.",
";.;.;.A . . . . . . . % . . . . . . . . 7 ;.;.;.;.;.;.;.;.;.;.o.7 . . . . .   ; . . . .     . . ; A ;.;.;.;.;.;.;.;.;.;.;.=.; . % . . . . . . . %   %   A ;.;.;.",
";.;.;.;.; . . . . . . . % . . %   ; . . 7 ;.;.;.;.;.;.;.;.;.;.o.; . . . . . . . . . . .     ; q ' ;.;.;.;.;.;.;.;.;.;.;.;.R . . . . . . . . . %     % ; | ;.;.;.",
";.;.;.;.m . . . % . . . . . . . . . . . 7 ;.;.;.;.;.;.;.;.;.;.=.7 ; p k x x p m p p k k M A Q ;.;.;.;.;.;.;.;.;.;.;.;.;.;.7 . . . % . . . % . . %     a ;.;.;.;.",
";.;.;.;.' ; . . . . . . % . . % . . . % 7 ;.;.;.;.;.;.;.;.;.;.o.7 M ;.;.;.;.;.;.;.;.;.;.;.;.;.;.;.;.;.;.;.;.;.;.;.;.;.;.'   . . . . . . . . % . . . ; ' ;.;.;.;.",
";.;.;.;.;.p . . . . . . . . . . . . . . 7 ;.;.;.;.;.;.;.;.;.;.o.7 A ;.;.;.;.;.;.;.;.;.;.;.;.;.;.;.;.;.;.;.;.;.;.;.;.;.;.p . . % . . % . . % . . . . p ;.;.;.;.;.",
";.;.;.;.;.' ; . % . . . . . . . . . . ; 7 ;.;.;.;.;.;.;.;.;.;.=.7 A ;.;.;.;.;.;.;.;.;.;.;.;.;.;.;.;.;.;.;.;.;.;.;.;.;.R ; . . . . % % . . . % . . ; ' ;.;.;.;.;.",
";.;.;.;.;.;.p . . . . % . . % . . . . . 7 ;.;.;.;.;.;.;.;.;.;.X.7 A ;.;.;.;.;.;.;.;.;.;.;.;.;.;.;.;.;.;.;.;.;.;.;.;.| 7 . % . . . . . . . . . . . p ;.;.;.;.;.;.",
";.;.;.;.;.;.@.7 . % . . % . . . . . . . 7 ;.;.;.;.;.;.;.;.;.;.@.7 A ;.;.;.;.;.;.;.;.;.;.;.;.;.;.;.;.;.;.;.;.;.;.;.-.7 % . . . . . . . . . . . . ; o.;.;.;.;.;.;.",
";.;.;.;.;.;.;.R % . . . . . . % . . . . 7 ;.;.;.;.;.;.;.;.;.;.@.7 A ;.;.;.;.;.;.;.;.;.;.;.;.;.;.;.;.;.;.;.;.;.;.O.7 % . . . . . . . . . . . . ; A ;.;.;.;.;.;.;.",
";.;.;.;.;.;.;.;.y % . % . . . .   ; . . 7 ;.;.;.;.;.;.;.;.;.;.o.7 A ;.;.;.;.;.;.;.;.;.;.;.;.;.;.;.;.;.;.;.;.;.R 7 % . . . . . . . .   . . .   p ;.;.;.;.;.;.;.;.",
";.;.;.;.;.;.;.;.| 7 . . . . % .     . . ; | ;.;.;.;.;.;.;.;.;.=.7 A ;.;.;.;.;.;.;.;.;.;.;.;.;.;.;.;.;.;.;.| k % . . . . % . . % . ;   . . . 7 | ;.;.;.;.;.;.;.;.",
";.;.;.;.;.;.;.;.;.R ; . . .     ; . . . % y ;.;.;.;.;.;.;.;.;.| 7 N ;.;.;.;.;.;.;.;.;.;.;.;.;.;.;.;.| A p ; . . . . . . . . . % . . . . . 7 R ;.;.;.;.;.;.;.;.;.",
";.;.;.;.;.;.;.;.;.;.A ; . . . . . . . .   % 7 k R R A R R R R p % 7 A R R R R A R R A R m k p p 7 ;   . . . . . . % . % . . . . . . . % % N ;.;.;.;.;.;.;.;.;.;.",
";.;.;.;.;.;.;.;.;.;.;.A   . . . . % . . %       . . . . . . . . . . . . . . . . ;   . . . . . . .   ; . . . . . . . . . % . . . % . . % k ;.;.;.;.;.;.;.;.;.;.;.",
";.;.;.;.;.;.;.;.;.;.;.;.k ; . . . . . .     % % . . . . . . . . % . . . . . . . .       . . . % .   . . . . . . . . % . . . % . . . % k ;.;.;.;.;.;.;.;.;.;.;.;.",
";.;.;.;.;.;.;.;.;.;.;.;.;.k ; . . .   %     %   . . . . . . . . . . % . . . . % . . . . % . . . . . % . .   ; . . . . . . . . . . ; m ;.;.;.;.;.;.;.;.;.;.;.;.;.",
";.;.;.;.;.;.;.;.;.;.;.;.;.;.k ; % .       %     . . % . . . % . . . . . % . . . . . . . . . . . % . . . . . . . . % % . . . . . ; A ;.;.;.;.;.;.;.;.;.;.;.;.;.;.",
";.;.;.;.;.;.;.;.;.;.;.;.;.;.;.R 7 . .   %     % . % % . . . . . % . . . . . . . . . . . . . . % . . . . . . . . . . % . . . . 7 A ;.;.;.;.;.;.;.;.;.;.;.;.;.;.;.",
";.;.;.;.;.;.;.;.;.;.;.;.;.;.;.;.O.p ;     % %   . . . . . % . . . . . % . . . % . . . % % . . . . . . % . . . . . . . . . % p ' ;.;.;.;.;.;.;.;.;.;.;.;.;.;.;.;.",
";.;.;.;.;.;.;.;.;.;.;.;.;.;.;.;.;.;.A ; . . . . . . . . . . . . . . . % . . . . . . . % . . . . . . . . . . . . .   ; . ; A ;.;.;.;.;.;.;.;.;.;.;.;.;.;.;.;.;.;.",
";.;.;.;.;.;.;.;.;.;.;.;.;.;.;.;.;.;.;.' p ; . . % . . . . % . . . . . . . . . . % . . . . ;   . % . . % . . . . . .   p ' ;.;.;.;.;.;.;.;.;.;.;.;.;.;.;.;.;.;.;.",
";.;.;.;.;.;.;.;.;.;.;.;.;.;.;.;.;.;.;.;.;.R q ; . . . . % . % . . . . ; . . . . . . . . . . . . . . . . . . . . ; q R ;.;.;.;.;.;.;.;.;.;.;.;.;.;.;.;.;.;.;.;.;.",
";.;.;.;.;.;.;.;.;.;.;.;.;.;.;.;.;.;.;.;.;.;.;.' y ; . . . . . . . . .   % . . % . . . . . . . . . % . . . . ; p R ;.;.;.;.;.;.;.;.;.;.;.;.;.;.;.;.;.;.;.;.;.;.;.",
";.;.;.;.;.;.;.;.;.;.;.;.;.;.;.;.;.;.;.;.;.;.;.;.;.| m 7 % . . . . . .       ;   % . . .       . . . .   7 N | ;.;.;.;.;.;.;.;.;.;.;.;.;.;.;.;.;.;.;.;.;.;.;.;.;.",
";.;.;.;.;.;.;.;.;.;.;.;.;.;.;.;.;.;.;.;.;.;.;.;.;.;.;.;.' N 7 ; . ; .       .   . . . %   .   ; ; y A ' ;.;.;.;.;.;.;.;.;.;.;.;.;.;.;.;.;.;.;.;.;.;.;.;.;.;.;.;.",
";.;.;.;.;.;.;.;.;.;.;.;.;.;.;.;.;.;.;.;.;.;.;.;.;.;.;.;.;.;.;.;.R A m p p ; ;     ; ; y p m R Q ;.;.;.;.;.;.;.;.;.;.;.;.;.;.;.;.;.;.;.;.;.;.;.;.;.;.;.;.;.;.;.;.",
";.;.;.;.;.;.;.;.;.;.;.;.;.;.;.;.;.;.;.;.;.;.;.;.;.;.;.;.;.;.;.;.;.;.;.;.;.;.;.;.;.;.;.;.;.;.;.;.;.;.;.;.;.;.;.;.;.;.;.;.;.;.;.;.;.;.;.;.;.;.;.;.;.;.;.;.;.;.;.;."
};
