/* XPM */
static char * iCat fm_xpm[] = {
"80 80 17 1",
" 	c None",
".	c #470003",
"+	c #700709",
"@	c #CF0D02",
"#	c #F10501",
"$	c #FE0000",
"%	c #D3201B",
"&	c #CF443D",
"*	c #E7482C",
"=	c #E96046",
"-	c #E97165",
";	c #EF8666",
">	c #EE9B8A",
",	c #ECBCB1",
"'	c #F6BEA8",
")	c #FFE7C6",
"!	c #FFEEE2",
"                                                                                ",
"                                                                                ",
"                                                                                ",
"                                                                                ",
"                                                                                ",
"                                                                                ",
"                                                                                ",
"                                                                                ",
"                                                                                ",
"                                                                                ",
"                                                                                ",
"                                                                                ",
"                                                                                ",
"                                                                                ",
"                                                                                ",
"                                                                                ",
"                                                                                ",
"!                                                                               ",
"!                                                                               ",
"!                                                                               ",
"                                                                                ",
"                                                                                ",
"  %@@@@@@@@@@@@@@@@@@@@@@@@@@@@@@@@@@@@@@@@@@@@@@@@@@@@@@@@@@@@@@@@@@@@@@@@@+.  ",
"  @#########################################################################%.  ",
"  @$$$$$$$$$$$$$$$$$$$$$$$$$$$$$$$$$$$$$$$$$$$$$$$$$$$$$$$$$$$$$$$$$$$$$$$$#%.  ",
"  @#$$$$$$$$$$$$$$$$$$$$$$$$$$$$$$$$$$$$$$$$$$$$$$$$$$$$$$$$$$$$$$$$$$$$$$$$%.  ",
"  @$$$$$$$$$$$$$$$$$$$$$$$$$$$$$$$$$$$$$$$$$$$$$$$$$$$$$$$$$$$$$$$$$$$$$$$$#@.  ",
"  @$$$$$$$$$$$$$$$$$$$$$$$$$$$$$$$$$$$$$$$$$$$$$$$$$$$$$$$$$$$$$$$$$$$$$$$$#%.  ",
"  @$$$$$$$$$$$$$$$$$$$$$$$$$$$$$$$$$$$$$$$$$$$$$$$####$$$$$$$$$$$$$$$$$$$$$#%.  ",
"  @$$$$$$$$$$$#$$$$$$$$$$$$$$$$$$$$$$$$$$$$$$$$$$#@*@#$$$$$$$$$$$$$$$$$$$$$$%.  ",
"  @$$$$$$$$$##%###$$#@@@@@##$$$$$$$$##@#$$$$$$$#@=>'>#$$$$$$$$$$$$$$$$$$$$$#@.  ",
"  @$$$$$$$##@->-@$$#%->->-*#$$$$$$$$$*-##$$$$$$#=)'>;#$$$$$$$$$$$$$$$$$$$$$#%.  ",
"  @$$$$$$$$$&,!!=##*,!,!!)-#$$$$$$$$$-)*#$$$$$$%,'=#@#$#$$$$$$$$$$$$$$$$$$$#@.  ",
"  @$$$$$$$$$&!!!-#%')'-&;;@$$$$$$$$$$-)=#$$#$$$*!-##$$$$$$$$$$$$$$$$$$$$$$$#%.  ",
"  @$$$$$$$$#&!!!*#-!>@@##@#$$########-!=##$$$$#&!-##$#############$$$$$$$$$#%.  ",
"  @$$$#$$$$$@-,-@@,)%$$$$$$#%-----#@-,)'-=#$$#->!'--##-&----%&---&#$$$$$$$$$%.  ",
"  @$$$$$$$$$%>,>%*!>#$$$$$$#-!!!!!&*,!!!)>##$#'!!!)'@=),)!!!>'!!!,@$$$$$$$$#@.  ",
"  @$$$$$$$$$&,!,*=!;#$$$$$$$=-=&>)>@*>!>*@#$$#%-!'%*#=!!>&;!!)-=')=#$$$$$$$#%.  ",
"  @$$$$$$$$$&!!!=-!-#$$$$$$$###$%,'##-!=#$$$$$#&);$$$=)'@#%,!&##&);#$$$$$$$#@.  ",
"  @$$$$$$$$#&!!)*;!>#$$$$$$$####%'>@#-)=#$$$$$#*);#$$=)-###'!*##&);$$$$$$$$#%.  ",
"  @$$$$$$$$#&!!)==!-#$$$$$$$@&>>,!>@$-!=#$$$$$#&);#$$=)=#$#''@$#&);#$$$$$$$#%.  ",
"  @$$$$$$$$#&!!)==)>#$$$$$$#='!!!!'##-)=#$$$$$$*);##$=)&###'>#$$&);#$$$$$$$$%.  ",
"  @$$$$$$$$#&!!)*@,'@$$$$$$*)';*=)>@#;!=#$$$$$#&);$$#=)&#$#'>#$#&);#$$$$$$$#@.  ",
"  @$$$$$$$$#&!!)=@'!-#$$$#$*!;@#&)'@#-)=#$$$$$$*);#$$=)=###,>#$$&);#$$$$$$$#%.  ",
"  @$$$$$$$$#-!!)*#;!,*@#@##=!&#@>!>##-!;@##$$$#&);$$#=)&$$#',#$#&)-#$$$$$$$#@.  ",
"  @$$$$$$$$$&!!)=#@'!,,,,,;*!';>!!'#$&!!,-#$$$$*);#$$=)&###'>#$$&);#$$$$$$$#%.  ",
"  @$$$$$$$$$*,!)*#$%,!!!!'-#>)))''>#$@>!!'#$$$#%)=#$$*)*$$#>>#$$%)=$$$$$$$$#%.  ",
"  @$$$$$$$$$#=;=#$###-;;;*###;;-@**#$$*=;*#$$$$#=@$$##=#$$$**$$$#=##$$$$$$$$%.  ",
"  @$$$$$$$$$$#@##$$$$#@###$##@@###$$$$#@###$$$$$#$$$$###$$$$#$$$###$$$$$$$$#@.  ",
"  @$$$$$$$$$$$$$$$$$#$$##$$$$$$#$$$$$$$$##$$$$$$$$$$$$#$$$$$$$$$$#$#$$$$$$$#%.  ",
"  @$$$$$$$$$#$$$$$$$$$$$$$$$$$$$$$$$$$$$$$$$$$$$$#$$$$$$$$$$$$$$$$$$$$$$$$$#@.  ",
"  @$$$$$$$$$$$$$$$$$$$$$$$$$$$$$$$$$$$$$$$$$$$$$$$$$$$$$$$$$$$$$$$$$$$$$$$$#%.  ",
"  @$$$$$$$$$$$$$$$$$$$$$$$$$$$$$$$$$$$$$$$$$$$$$$$$$$$$$$$$$$$$$$$$$$$$$$$$#%.  ",
"  @$$$$$$$$$$$$$$$$$$$$$$$$$$$$$$$$$$$$$$$$$$$$$$$$$$$$$$$$$$$$$$$$$$$$$$$$#%.  ",
"  @$$$$#$$$$$$$$$$$$$$$$$$$$$$$$$$$$$$$$$$$$$$$$$$$$$$$$$$$$$$$$$$$$$$$$$$$#@.  ",
"  @##$$$$#$#$#$#$#$#$$#$#$#$##$##$###$$##$$#$##$$#$#$##$#$#$##$#$#$#$#$#$$$#%.  ",
"  %%%%%%%%%%%%%%%%%%%%%@%@%@%%@%%@%@%%@%%%%%%%%%%%%%%%%%%%%%%%%%%@%%@%@%%@%%&.  ",
"  .+++++++++++++++++++++++++++++++++++++++++++++++++++++++++++++++++++++++++..  ",
"                                                                                ",
"                                                                                ",
"                                                                                ",
"!                                                                               ",
"                                                                                ",
"                                                                                ",
"                                                                               !",
"                                                                               !",
"                                                                               !",
"                                                                               !",
"                                                                               !",
"                                                                               !",
"                                                                               !",
"                                                                               !",
"                                                                               !",
"                                                                               !",
"                                                                               !",
"                                                                               !",
"                                                                               !",
"                                                                               !",
"                                                                               !",
"                                                                               !"};
