/* XPM */
static char *La__[] = {
/* columns rows colors chars-per-pixel */
"80 80 64 1",
"  c #1D3DDD",
". c #2638DF",
"X c #2C3CDE",
"o c #1F3BE1",
"O c #2536E1",
"+ c #1745DB",
"@ c #045CD5",
"# c #1152D8",
"$ c #2A46DC",
"% c #3549DE",
"& c #2957DB",
"* c #3A55DE",
"= c #0368D4",
"- c #0274D4",
"; c #037CD5",
": c #0B7AD6",
"> c #1774D8",
", c #306FDC",
"< c #3646E1",
"1 c #455ADF",
"2 c #476BDF",
"3 c #4A5BE1",
"4 c #5569E2",
"5 c #5670E2",
"6 c #6679E4",
"7 c #6D7AE6",
"8 c #0B82D6",
"9 c #1887D8",
"0 c #268ADA",
"q c #2F8FDC",
"w c #3898DD",
"e c #4395DF",
"r c #5495E2",
"t c #7789E7",
"y c #708EE6",
"u c #45A1E0",
"i c #4CA5E1",
"p c #57A9E3",
"a c #6EB3E7",
"s c #7CC1E9",
"d c #8897EA",
"f c #8E97EB",
"g c #98A7EC",
"h c #91AFEC",
"j c #8AB6EB",
"k c #ACB6F0",
"l c #91CBEC",
"z c #BAC7F3",
"x c #A9D3F0",
"c c #B9D8F3",
"v c #BAE3F3",
"b c #C7CDF5",
"n c #C9D7F6",
"m c #D6DAF8",
"M c #E1DFF9",
"N c #C9E9F6",
"B c #D8E8F8",
"V c #DAF2F9",
"C c #E6EBFB",
"Z c #F1EFFC",
"A c #E9F6FB",
"S c #F2F5FD",
"D c #F5FAFD",
"F c #FFFFFF",
/* pixels */
"FFFFFFFFFFFFFFFFFFFFFFFFFFFFFFFFFFFFFFFFFFFFFFFFFFFFFFFFFFFFFFFFFFFFFFFFFFFFFFFF",
"FFFFFFFFFFFFFFFFFFFFFFFFFFFFFFFFFFFFFFFFFFFFFFFFFFFFFFFFFFFFFFFFFFFFFFFFFFFFFFFF",
"FFFFFFFFFFFFFFFFFFFFFFFFFFFFFFFFFFFFFFFFFFFFFFFFFFFFFFFFFFFFFFFFFFFFFFFFFFFFFFFF",
"FFFFFFFFFFFFFFFFFFFFFFFFFFFFFFFFFFFFFFFFFFFFFFFFFFFFFFFFFFFFFFFFFFFFFFFFFFFFFFFF",
"FFFFFFFFFFFFFFFFFFFFFFFFFFFFFFFFFFFFFFFFFFFFFFFFFFFFFFFFFFFFFFFFFFFFFFFFFFFFFFFF",
"FFFFFFFFFFFFFFFFFFFFFFFFFFFFFFFFFFFFFFFFFFFFFFFFFFFFFFFFFFFFFFFFFFFFFFFFFFFFFFFF",
"FFFFFFFFFFFFFFFFFFFFFFFFFFFFFFFFFFFFFFFFFFFFFFFFFFFFFFFFFFFFFFFFFFFFFFFFFFFFFFFF",
"FFFFFFFFFFFFFFFFFFFFFFFFFFFFFFFFFFFDDDDDDDDDDDDDDDDDDDDDFFFFFFFFFFFFFFFFFFFFFFFF",
"FFFFFFFFFFFFFFFFFFFFFFFFFFFFFFDDDSSSSSSAAAACCCCAAAAAAAADDDDFFFFFFFFFFFFFFFFFFFFF",
"FFFFFFFFFFFFFFFFFFFFFFFFFFDDDSSAAACCCCBBBBBNNNNNBBBVVVAAAASDDFFFFFFFFFFFFFFFFFFF",
"FFFFFFFFFFFFFFFFFFFFFFFFDDSSACCBBBBBBnnncccccccccvNNNNBVVAAASDDFFFFFFFFFFFFFFFFF",
"FFFFFFFFFFFFFFFFFFFFFDDSSACCBBBnnnnccxxxxxxxxxxxxxxccvNNNVVAAASDDFFFFFFFFFFFFFFF",
"FFFFFFFFFFFFFFFFFFFDDSACCBBmnncczzxxljjjjjjjjjjlllllxxxcvNNVVAAADDFFFFFFFFFFFFFF",
"FFFFFFFFFFFFFFFFFFDSACCBBnnczzxxhhjjaaaaaaaaaaaaaaaalllxxcvNNVVAADDFFFFFFFFFFFFF",
"FFFFFFFFFFFFFFFFDSSCCBmnczzxkhjjjaaappprrrriippppppaaaalllxcvNVVAASDFFFFFFFFFFFF",
"FFFFFFFFFFFFFFFDSCCBnbzzkkhhjaayyrrrrreeeeeeeeeeuiipppaaallxxvNNVAAADFFFFFFFFFFF",
"FFFFFFFFFFFFFDSZCBnbzzkhhdyyyyrrrreeewqqqqqqqqqwwwwuuippaaallxcvNVVAADFFFFFFFFFF",
"FFFFFFFFFFFFDSCBmbzkkggdyyyyrr552,,qq00000000000qqqwwwuuipaaalxxvNVVAADFFFFFFFFF",
"FFFFFFFFFFFDZCmnbkkggdyyyr55222,,,,,,,>>>>>999000000qqwwuippaallxvNVVASDFFFFFFFF",
"FFFFFFFFFFDZCmbzkkgdtyy65522,,,,,,,>>>>>>>>>>>>9999000qqwwuipaallxvNVAADDFFFFFFF",
"FFFFFFFFFDZCmbzkgfdty65522,**&&&&&>>>>>>>>>>:::::9999900qqwwippallxvNVAADFFFFFFF",
"FFFFFFFFDZCmbkkgftt65522***&&&&&&&>>>,eeww0::::::::9999900qwwuppallxNVVAADFFFFFF",
"FFFFFFFDZCmbkkgdty65421***&&&&&&###>rNSSSSj-::::::::8899990qwwuppalxcNVVADDFFFFF",
"FFFFFFDSCmbkkgdt76523***&&&&&&####,hSFFFFFj----::::::8899990qwwupaalxvNVAADFFFFF",
"FFFFFFSCmbkkgdt75421***%$$$$$+###5nFFFFFFFj=-----;::::8889990qwwipaalxNVVASDFFFF",
"FFFFFDZBnzkgdt75431**%%$$$$$++#&aCFFFFFFFFj==-----;;;::8889990qwwipallvNVAADFFFF",
"FFFFFSCmzkgft76431**%%$$$$$+++2zFFFFFFFFFFj==------;;;;:8889990qwupaalxNVVADDFFF",
"FFFFDCmbkgft76431**%%$$$$$$+$yBFFFFFFFFFFFj===-----;;;;;:8889990qwipallvNVAADFFF",
"FFFDSCnzkgdt6431**%%$$$$$$+ 2CFFFFFFFFFFFFj====-----;;;;;8889990qwuiaalxNVVADFFF",
"FFFDCmbkgdt65411*%%$$$$... +$kFFFFFFFFFFFFj====-----;;;;;;8889990qwipalxvNVAADFF",
"FFFSCnzkft76431*%%$$$X...  ++*CFFFFFFFFFFFj=====-----;;;;;8888990qwupaslcNVAADFF",
"FFDZBbkgdt6531*%%%$XX....   ++tFFShnFFFFFFj=====-----;;;;;88889990wwipalxNVVADFF",
"FFDCmzkgt76431*%%$XXX....   ++&bBr#cFFFFFFj@=====----;;;;;;8888990qwipalxvVVASDF",
"FFSCnkgft6531*%%$$XX.....   +++,,##cFFFFFFj@=====----;;;;;;8888990qwupalxvNVAADF",
"FDZBbkgdt6431*%%$XXX.....   +++####cFFFFFFj@======---;;;;;;8888990qwupaslvNVAADF",
"FDCmzkgt7541*%%%$XX......   +++####cFFFFFFj@@=====---;;;;;;;888999qwuiaslcNVAADF",
"FDCnzgft6531*%%$XXX......   +++####cFFFFFFj@@@====---;;;;;;;8889990wwiaalcNVVADF",
"FSCnkgdt6431*%%$XX.......   +++####cFFFFFFj@@@=====---;;;;;;8889990wwiaalxNVVADF",
"FSBbkgdt6411*%%$XX........   ++####cFFFFFFj@@@=====----;;;;;8889990wwiaalxNVVADF",
"FSBbkgty541*%%%XXX....OO..   ++####cFFFFFFj@@@@====----;;;;;8889990wwiaalxNVVADD",
"FSBbkgty541*%%$XXX....OOOOO  +++###cFFFFFFj@@@@=====----;;;;888999qwupaslcNVVADD",
"FSBzkgty541*%%$XXX...OOOOOOo +++###cFFFFFFj@@@@=====----;;;;;88990qwupaslcNVVADF",
"FSBzkgty541*%%$XXX...OOOOOOOo ++###cFFFFFFj@@@@=====----;;;;:88990qwupalxvNVVADF",
"FSBzkgty541*%%$XXX...OOOOOOOO +++##cFFFFFFj@@@@=====----;;;;888990qwipalxvNVVADF",
"FSBbkgty541*%%%XXX...OOOOOOOOo ++##cFFFFFFj@@@@=====----;;;:889990wwipalxvNVAADF",
"FSBbkgty6411*%%$XXX..OOOOOOOOo +++#bFFFFFFj@@@@=====----;;::88990qwupaslxvNVAADF",
"FDCnkgdy6431*%%$XXX..OOOOOOOOO  ++#bFFFFFFj@@@@=====----;:::89990qwipalxcNVVAADF",
"FDCnzgdt6521*%%$XXX..OOOOOOOOO  +++bFFFFFFh@@@@======---::::8990qwupaalxvNVVADDF",
"FFAmzkft6541*%%%$XXX..OOOOOOOO   ++bFFFFFFh@@@@======--::::89900qwipallxvNVAADFF",
"FFSBzkgty6431*%%$XXX..OOOOOOOO.  ++bFFFFFFh@@@@======--::::9990qwupaalxvNVVAADFF",
"FFDBnzgdy6521*%%%$XXX..OOOOOO..   +bFFFFFFh@@@@======-::::9990qwuipallxvNVVADDFF",
"FFFCmzkfty5411*%%$XXXX...OOOO...  $nFFFFFFh#@@@=====-:::::990qwwipaslxvNBVAADFFF",
"FFFSBbkgdy6541*%%%$XXXX.........1dbDFFFFFFSxr>@@====::::>990qqwupaalxcvNVVASDFFF",
"FFFDCnzkfty5431*%%%$XXXX......6kCFFFFFFFFFFFDna>===>>>>>9900qwupaallxvNVVAADFFFF",
"FFFFSBzkgdt65411*%%%$XXXXX...<mFFFFFFFFFFFFFFFS,==>>>>>>00qqwuppallxvNNVAADDFFFF",
"FFFFDCnzkgty65411*%%%$XXXXX..<mFFFFFFFFFFFFFFFSe@>>>>>>00qqwuppallxcNNVAAADFFFFF",
"FFFFFSBbkgdty64311*%%%%XXXXX.<mFFFFFFFFFFFFFFFSe>>>>>>00qweipaallxcNNVVAADFFFFFF",
"FFFFFFAmzkgdt764331*%%%%$XXXX%kmmmmmmmmmmmmmmmn,>>>>,0qqweipaallxcNNVVAADDFFFFFF",
"FFFFFFDCnzkgdt764431*%%%%%%$XX%%%%%%%%%*&&&&,,,,,,,,qqwerppaallxcNNVAAADDFFFFFFF",
"FFFFFFFSBnzkgdt7644311*%%%%%%$$$$$$$$$$$$&&&&&,,,,,qqeerpaajlxxcNNVAAADDFFFFFFFF",
"FFFFFFFFSBnzkgdt76543311*%%%%%%%%%%$$$$%&&&&&,,,,,eerrppaajlxcvNBVAASDDFFFFFFFFF",
"FFFFFFFFDZBnzkgdtt664433111**%%%%%%%%%******,,,22errraaajlxxcNNVVAADDFFFFFFFFFFF",
"FFFFFFFFFDZBnzkgfdt765444331111***********222255rrraaajlxxcNNBVAADDDFFFFFFFFFFFF",
"FFFFFFFFFFDZBnzkggdtt7664444333331111132222555ryyyajjlxxcnNBVAADDDFFFFFFFFFFFFFF",
"FFFFFFFFFFFDZCmbkkgfddt776644444444444455566yyyydhhxxccnBBCAADDFFFFFFFFFFFFFFFFF",
"FFFFFFFFFFFFDSCmbzkkgffdtt776666665666666yyyydhhhxzcnmBBCASDFFFFFFFFFFFFFFFFFFFF",
"FFFFFFFFFFFFFFSCBmbzkkggffddtttt777tttttttdfghkzzcnmBBCASDFFFFFFFFFFFFFFFFFFFFFF",
"FFFFFFFFFFFFFFFDZCmmbzkkkgggfffdddddddffgggkkzznnBBCCASDDFFFFFFFFFFFFFFFFFFFFFFF",
"FFFFFFFFFFFFFFFFFSZCmmbbkkkkkkggggggggkkkkzzbnmBBCAASDDFFFFFFFFFFFFFFFFFFFFFFFFF",
"FFFFFFFFFFFFFFFFFFDSZCmmmbbbzkkkkkkkkkzzbbnmBBCCASSDDFFFFFFFFFFFFFFFFFFFFFFFFFFF",
"FFFFFFFFFFFFFFFFFFFFDSZCCMmmmmbbbbbbbnmmmBCCAASSDDFFFFFFFFFFFFFFFFFFFFFFFFFFFFFF",
"FFFFFFFFFFFFFFFFFFFFFFDSZZCCCCMmmmmmCCCCCZSSDDDFFFFFFFFFFFFFFFFFFFFFFFFFFFFFFFFF",
"FFFFFFFFFFFFFFFFFFFFFFFFFDDSZZZZZZZZZZSSDDDFFFFFFFFFFFFFFFFFFFFFFFFFFFFFFFFFFFFF",
"FFFFFFFFFFFFFFFFFFFFFFFFFFFFFFDDDDDDFFFFFFFFFFFFFFFFFFFFFFFFFFFFFFFFFFFFFFFFFFFF",
"FFFFFFFFFFFFFFFFFFFFFFFFFFFFFFFFFFFFFFFFFFFFFFFFFFFFFFFFFFFFFFFFFFFFFFFFFFFFFFFF",
"FFFFFFFFFFFFFFFFFFFFFFFFFFFFFFFFFFFFFFFFFFFFFFFFFFFFFFFFFFFFFFFFFFFFFFFFFFFFFFFF",
"FFFFFFFFFFFFFFFFFFFFFFFFFFFFFFFFFFFFFFFFFFFFFFFFFFFFFFFFFFFFFFFFFFFFFFFFFFFFFFFF",
"FFFFFFFFFFFFFFFFFFFFFFFFFFFFFFFFFFFFFFFFFFFFFFFFFFFFFFFFFFFFFFFFFFFFFFFFFFFFFFFF",
"FFFFFFFFFFFFFFFFFFFFFFFFFFFFFFFFFFFFFFFFFFFFFFFFFFFFFFFFFFFFFFFFFFFFFFFFFFFFFFFF",
"FFFFFFFFFFFFFFFFFFFFFFFFFFFFFFFFFFFFFFFFFFFFFFFFFFFFFFFFFFFFFFFFFFFFFFFFFFFFFFFF"
};
