/* XPM */
static char *La__[] = {
/* columns rows colors chars-per-pixel */
"80 80 64 1",
"F c None",
"  c #029BEC",
". c #0A9CEA",
"X c #129EEA",
"o c #06A3EC",
"O c #18A4EA",
"+ c #00A7F1",
"@ c #00B7F3",
"# c #11B7EA",
"$ c #26A7EA",
"% c #35ACEA",
"& c #39B3EA",
"* c #29B5EA",
"= c #48B5EB",
"- c #56B9EC",
"; c #41AEEC",
": c #64BDEE",
"> c #18DEDF",
", c #05C9E9",
"< c #04DCE4",
"1 c #0BDCE1",
"2 c #03D7E8",
"3 c #15D9E0",
"4 c #00C7F5",
"5 c #10CCEA",
"6 c #26D9E1",
"7 c #36D8E3",
"8 c #2ECAE9",
"9 c #03E0E4",
"0 c #38E1E1",
"q c #29E0E1",
"w c #20DFDF",
"e c #46D8E4",
"r c #54CEEB",
"t c #68C3ED",
"y c #75C7EE",
"u c #71D0EF",
"i c #47E3E2",
"p c #56E4E4",
"a c #51E3F3",
"s c #67E7E5",
"d c #77E9E7",
"f c #74E4F6",
"g c #86CBF1",
"h c #97D4F2",
"j c #88D3F0",
"k c #A6D9F4",
"l c #B6DCF7",
"z c #8EEDEB",
"x c #A7F5EE",
"c c #B9E4F6",
"v c #B8F7F1",
"b c #A9E8F2",
"n c #C7E8F8",
"m c #D5ECFA",
"M c #C6F9F5",
"N c #D7F9F8",
"B c #E3FEF9",
"V c #ECFCFB",
"C c #E5F4FC",
"Z c #F3FCFD",
"A c #FEFEFE",
"S c #F1F6FF",
"D c #E0EEFD",
/* pixels */
"FAAAAAAAAAAAAAAAAAAAAAAAAAAAAAAAAAAAAAAAAAAAAAAAAAAAAAAAAAAAAAAAAAAAAAAAAAAAAAAA",
"FAAAAAAAAAAAAAAAAAAAAAAAAAAAAAAAAAAAAAAAAAAAAAAAAAAAAAAAAAAAAAAAAAAAAAAAAAAAAAAA",
"FAAAAAAAAAAAAAAAAAAAAAAAAAAAAAAAAAAAAAAAAAZZZZZZZZZZAAAAAAAAAAAAAAAAAAAAAAAAAAAA",
"FAAAAAAAAAAAAAAAAAAAAAAAAAAAAAAAAAZZZZZVVVBBBBBBVVVZZZAAAAAAAAAAAAAAAAAAAAAAAAAA",
"FAAAAAAAAAAAAAAAAAAAAAAAAAAAAAAZZVVCCCCNNNNNNNNNNNBBVVZZAAAAAAAAAAAAAAAAAAAAAAAA",
"FAAAAAAAAAAAAAAAAAAAAAAAAAAAAZZVCCNmmmmnnMvvvvMMMMNNNBVVZZAAAAAAAAAAAAAAAAAAAAAA",
"FAAAAAAAAAAAAAAAAAAAAAAAAAAZZVCNmmnnnccbbbbbbxxxvvMMNNBBVZZAAAAAAAAAAAAAAAAAAAAA",
"FAAAAAAAAAAAAAAAAAAAAAAAAAZVCNmnnccbbbhzzzzzzzzzxxxvMMNNBVZZAAAAAAAAAAAAAAAAAAAA",
"FAAAAAAAAAAAAAAAAAAAAAAAZVCNmnncbbkhjjjdddddddddzzzxxvMMNBVZZAAAAAAAAAAAAAAAAAAA",
"FAAAAAAAAAAAAAAAAAAAAAAZVCmnncbkhjjuuuussppppssssddzzxvvMNBVZZAAAAAAAAAAAAAAAAAA",
"FAAAAAAAAAAAAAAAAAAAAAZCNmncbkhjjuuurrrreeeeeepppssddzxxvMNBVZAAAAAAAAAAAAAAAAAA",
"FAAAAAAAAAAAAAAAAAAAAZCmncbkhjuuuurrreeeee77eeeeeppssdzzxvMNBVZAAAAAAAAAAAAAAAAA",
"FAAAAAAAAAAAAAAAAAAAZCmnckhjuuttrrree777777777777eeppsdzzxvMNBVZAAAAAAAAAAAAAAAA",
"FAAAAAAAAAAAAAAAAAAZCmnlhjyyttrrrr88888866666667777eipsszzxvMNBZAAAAAAAAAAAAAAAA",
"FAAAAAAAAAAAAAAAAAZCmckhjyttrr==&88888866666666666777ippszzxMNBVZAAAAAAAAAAAAAAA",
"FAAAAAAAAAAAAAAAAZCmckhgytr-=&&&**88885333333333666677ippszzvMNBVZAAAAAAAAAAAAAA",
"FAAAAAAAAAAAAAAAZCmckhgyt-==&&****#55555553333333366677ipsdzxvMNVZAAAAAAAAAAAAAA",
"FAAAAAAAAAAAAAAACmnkhgyt-=&&****####55555553333333336670ipsdzxMNBVZAAAAAAAAAAAAA",
"FAAAAAAAAAAAAAASmnlhgy--=&%**$O#####,,555555111133333w670ipszzvMNVZAAAAAAAAAAAAA",
"FAAAAAAAAAAAAAZCnchgy:-=&%*$OOO#####,5555,,221111133336670ipdzxMNBVAAAAAAAAAAAAA",
"FAAAAAAAAAAAAAVmckjy:-=&%$$OOOO####8jcMNMz7222<11111333660ipsdzvMNVZAAAAAAAAAAAA",
"FAAAAAAAAAAAAZCnlhyt-=&%$$OOOOo###uCAAAAAANp222<111113>3660ipdzxMNBZAAAAAAAAAAAA",
"FAAAAAAAAAAAAVmckgy-=&%$$OOOoooo#uZAAAAAAAAVp22<<<11113>>60ipsdxvNBVZAAAAAAAAAAA",
"FAAAAAAAAAAAZCnkhy:-;%$$OOOooooorZAAAAAAAAAAB72<<<<11113>660ipdzxMNVZAAAAAAAAAAA",
"FAAAAAAAAAAASmchgt-=%$$OOOooooo#nAAAAAAAAAAAAb22<<<<1111>>60ipszxMNBZAAAAAAAAAAA",
"FAAAAAAAAAAACnkhy:=&%$OOOoooooouAAAAAAAAAAAAAV02<<<<<111>>wq0isdzvNBVAAAAAAAAAAA",
"FAAAAAAAAAAZmckgt-;%$$OOoooooo#cAAAAAVmNZAAAAAz2<<<<<1111>>60ipdzvMNVZAAAAAAAAAA",
"FAAAAAAAAAAVmlhy:=&%$OOOoooooo&SAAAAne55fVAAAAM12<<<<<111>>6q0pszxMNBZAAAAAAAAAA",
"FAAAAAAAAAACnkgy-=%$$OOooooooojAAAAm84444fAAAAVq2<<<<<<113>6q0isdxMNBZAAAAAAAAAA",
"FAAAAAAAAAZmchgt-&%$OOO..ooooocAAAAu444448NAAAZa2<<999<111>>q0ipdzvNBVAAAAAAAAAA",
"FAAAAAAAAAZmchy-=%$$OO... oooOnAAAm544444,vAAAAa2<<9999911>>q0ipdzvMNVZAAAAAAAAA",
"FAAAAAAAAAVnkjy-;%$OOX..  oo++*hVAj@444444vAAAAa2<<9999991>>wqipszvMNVZAAAAAAAAA",
"FAAAAAAAAACnkgt-&%$OO...  oo+++@rb84444445MAAAAa2<<9999991>>wq0pszxMNBZAAAAAAAAA",
"FAAAAAAAAZNchy:=&$$OX..   o++++@@@@4444448BAAAZ02<999999991>6q0iszxMNBZAAAAAAAAA",
"FAAAAAAAAZmchy-=%$OOX..   o++++@@@@444444fAAAAB62<999999991>wq0iszxMNBZAAAAAAAAA",
"FAAAAAAAAZmchy-=%$OO...   o++++@@@@444445mAAAAM222999999991>>q0iszxMNBVAAAAAAAAA",
"FAAAAAAAAVmkjy-;%$OO...   o++++@@@@44444zAAAAAz222<99999991>>q0iszxMNBVAAAAAAAAA",
"FAAAAAAAAVnkjt-&%$OX..     ++++@@@44444fZAAAAZa222<99999991>wq0iszxMNBVAAAAAAAAA",
"FAAAAAAAAVnkgt-&$$OX..     ++++@@@4444aCAAAAAM52222<9999991>wq0iszxMNBVZAAAAAAAA",
"FAAAAAAAZCnkgt=&$$OX..     o+++@@@4448NAAAAAZa42222<9999911>wq0iszxMNBVZAAAAAAAA",
"FAAAAAAAZCnkgt=&$$OX..      ++++@@@48mAAAAAAb542222<<99<111>wq0iszxMNBVZAAAAAAAA",
"FAAAAAAAZCnkgt=&$$OX..      ++++@@@8nAAAAAAN8442222<<<<<111>wq0pszxMNBVZAAAAAAAA",
"FAAAAAAAZCnkgt=&$$OX..      ++++@@5bAAAAAABa4442222<<<<<113>wqipdzxMNBVZAAAAAAAA",
"FAAAAAAAZCnkgt=&$$OX..       +++@@jAAAAAAVa444422222<<<<113>q0ipdzvMNBVAAAAAAAAA",
"FAAAAAAAZCnkgt-&$$OX..       ++++rZAAAAAZf4444422222<<<11133q0ipdzvMNBVAAAAAAAAA",
"FAAAAAAAAVnkgt-&%$OX..       +++#nAAAAAZf44444422222<<<1133wq0iszxvMNBZAAAAAAAAA",
"FAAAAAAAAVnkjt-;%$OX..        ++uAAAAAAz444444422222<<11133wq0pszxvMNBZAAAAAAAAA",
"FAAAAAAAAVmkjy-;%$OO...       +*mAAAAAb5444444,,2222<<11133q0ipdzxMNNBZAAAAAAAAA",
"FAAAAAAAAZmchy-=%$OOX..        uAAAAAm84444444,,2222<111336q0isdzvMNNVZAAAAAAAAA",
"FAAAAAAAAZNchy:=&$$OX..       onAAAAZr@@44444,,,,222<1133360ipszxvMNBVZAAAAAAAAA",
"FAAAAAAAAZCnhgt=&%$OX...      &VAAAAc@@@@4444,,,,22211333660ipdzxvMNBVAAAAAAAAAA",
"FAAAAAAAAACnkgt-;%$OOX..      tAAAAZr@@@@@44,,,,,,2211333600psdxvMNNBZAAAAAAAAAA",
"FAAAAAAAAAVmljy-=%$$OX...     hAAAAm#@@@@@44,,,,,,211333660ipszxvMNBVZAAAAAAAAAA",
"FAAAAAAAAAZmchyt=&%$OXX..    .cAAAAc++@@@@@@,,,,,,51333667ipsdzxMMNBVZAAAAAAAAAA",
"FAAAAAAAAAZCnkgt-;%$OOX...   OmAAAAcrrrruuuuufs5,553336670ipdzxvMNNBZAAAAAAAAAAA",
"FAAAAAAAAAAVnkjy-=&$$OXX...  OmAAAAAAAAAAAAAAAV7,55336677ipsdzxMMNBVZAAAAAAAAAAA",
"FAAAAAAAAAAZmchyt-;%$$OX.... $mAAAAAAAAAAAAAAAZ755536667epsdzxvMNNBVZAAAAAAAAAAA",
"FAAAAAAAAAAZCnkjy-=&%$OOX....$DAAAAAAAAAAAAAAAZ75536667eipdzxvMNNBVZAAAAAAAAAAAA",
"FAAAAAAAAAAAVmchyt-;%$$OXX...$DAAAAAAAAAAAAAAAZe556677eepszzxvMNNBVZAAAAAAAAAAAA",
"FAAAAAAAAAAAZCnkjy-=&%$$OXXX.$DAAAAAAAAAAAAAAAZe58877eepsdzxvMNNBVZAAAAAAAAAAAAA",
"FAAAAAAAAAAAAVmchgt-=&%$$OXXX$DAAAAAAAAAAAAAAAZr8877eepsdzxvMNNBVZZAAAAAAAAAAAAA",
"FAAAAAAAAAAAAZCnkhy:-=%%$$OXXOtgyyyyyyyggjjjjjf8887eepsdzxvMNNBBVZAAAAAAAAAAAAAA",
"FAAAAAAAAAAAAAZmckgy:-;%%$$OOXXXXXXOOOOOOOO***888eepssdzxvMNNBBVZAAAAAAAAAAAAAAA",
"FAAAAAAAAAAAAAACnlhgy--;%%$$$OOOOOOOOOOOO$****88erpsdzzxvMNNBBVZAAAAAAAAAAAAAAAA",
"FAAAAAAAAAAAAAAZNnkhgt--=&%$$$$$OOOOOO$$$***&8rrrsudzzxvMNNBVVZAAAAAAAAAAAAAAAAA",
"FAAAAAAAAAAAAAAAVmnkhgt:-=;%%%$$$$$$$$$$%%&&=rrruujzbvMMNBBVZZAAAAAAAAAAAAAAAAAA",
"FAAAAAAAAAAAAAAAACmckhgy:-==;%%%%%%%%%%%&&==rrtujzbbvMNNBVVZZAAAAAAAAAAAAAAAAAAA",
"FAAAAAAAAAAAAAAAAZCmckhgy:--==;;&%%%&&&===-ttuujkbcnNNBVZZZAAAAAAAAAAAAAAAAAAAAA",
"FAAAAAAAAAAAAAAAAAZCmckhgyy:---========--ttyyjhbcnmNCVZZAAAAAAAAAAAAAAAAAAAAAAAA",
"FAAAAAAAAAAAAAAAAAASDmnlkhgyy:::------:ttyyghkcnmNCVZZAAAAAAAAAAAAAAAAAAAAAAAAAA",
"FAAAAAAAAAAAAAAAAAAASDmnlkhhggyyy::ttyyygghhkcnmCCZZAAAAAAAAAAAAAAAAAAAAAAAAAAAA",
"FAAAAAAAAAAAAAAAAAAAASCmnnlkkhhgggggggghhklcnmNCVZZAAAAAAAAAAAAAAAAAAAAAAAAAAAAA",
"FAAAAAAAAAAAAAAAAAAAAASCmmnnllkkkkhhkkkklcnmmCVZZAAAAAAAAAAAAAAAAAAAAAAAAAAAAAAA",
"FAAAAAAAAAAAAAAAAAAAAAAZSCmmnnclllllllcnnmmCVZZAAAAAAAAAAAAAAAAAAAAAAAAAAAAAAAAA",
"FAAAAAAAAAAAAAAAAAAAAAAAZSSDmmmnnnnnnnmmmCCZZAAAAAAAAAAAAAAAAAAAAAAAAAAAAAAAAAAA",
"FAAAAAAAAAAAAAAAAAAAAAAAAZSSSCDDmmmmmDDCSSAAAAAAAAAAAAAAAAAAAAAAAAAAAAAAAAAAAAAA",
"FAAAAAAAAAAAAAAAAAAAAAAAAAAZSSSSSCCCSSSZAAAAAAAAAAAAAAAAAAAAAAAAAAAAAAAAAAAAAAAA",
"FAAAAAAAAAAAAAAAAAAAAAAAAAAAAZZSSSSSZZAAAAAAAAAAAAAAAAAAAAAAAAAAAAAAAAAAAAAAAAAA",
"FAAAAAAAAAAAAAAAAAAAAAAAAAAAAAAAAAAAAAAAAAAAAAAAAAAAAAAAAAAAAAAAAAAAAAAAAAAAAAAA",
"FAAAAAAAAAAAAAAAAAAAAAAAAAAAAAAAAAAAAAAAAAAAAAAAAAAAAAAAAAAAAAAAAAAAAAAAAAAAAAAA"
};
