/* XPM */
static char * La 2_xpm[] = {
"80 80 14 1",
" 	c None",
".	c #008F27",
"+	c #009E2F",
"@	c #00A22A",
"#	c #0AA72F",
"$	c #00AC33",
"%	c #02AF2D",
"&	c #0DB231",
"*	c #00B633",
"=	c #00BB38",
"-	c #00BE32",
";	c #07BE3B",
">	c #00C139",
",	c #00D940",
"                                                                                ",
"                                                                                ",
"            @$**&**&&%@                                .@&**&*&&%+              ",
"            @$&*&&&*&@.                                 @$&&&**&&+              ",
"            %*======*@                                  $#=======#              ",
"            $*=;===*@                                    $%======#              ",
"            &*=====$$                                     @*=====#              ",
"            &*====&%                                       $=====#              ",
"            &*====#                                        #*=-==#              ",
"            &*===*$                                        -$==-=#              ",
"            &*===%$                                         +*-==#              ",
"            &*==*%                                          &&===#              ",
"            &*==$#                  %$$$$$%                  $===#              ",
"            &*==$+                %@%==-==$+                 %*==#              ",
"            %*=-#                 $*=======&#                *&==#              ",
"            &*=-#                @*=========%$               *%==#              ",
"            %*==#               >$=========-*+               $$==#              ",
"            %*==#               #*==;;====--=@               $$==#              ",
"            &*==$               @============#>              +#==#              ",
"            &*==$               #============#-               #==#              ",
"            %*==$               #=;;;=====;;=@                #==#              ",
"            &*==$               $=====;====;=+               ##==#              ",
"            &*===              ,*====;=;=;==*#               $#==#              ",
"            &*==*$@++@@+++++++#$============%                *$==#              ",
"            %*=;=========*=========;;======%#                *&==#              ",
"            $*=;===========;====;==;=======@                 %*==#              ",
"            $*===;=-================;=====#                  %===#              ",
"            $*======================;--==$+                 $*=;=#              ",
"            $*==================;=;=====$#                  @====#              ",
"            $*=============-====;;=====$$                  %&====#              ",
"            $*==================;==---$#                   #=-=;=#              ",
"            $*=================;===-=*#                   +&--;==#              ",
"            $*===================;--&@                   $%======#              ",
"            $*=====================&@                    $=======#              ",
"            $*====================*#                    %&=======#              ",
"            $*=================;=*$                    #%========#              ",
"            $*==================*$$                   $$=========#              ",
"            $*==================$#                   %$==========#              ",
"            $*=================$#                    @=-=;=======#              ",
"            $*================$%                    #*===;=-=====#              ",
"            $*===============&$                    $&============#              ",
"            $*==============&$                    @*===========;=#              ",
"            $*=--==========*@                    @&===-==========#              ",
"            $*============*#                    +&-===-==========#              ",
"            $*============$$                   $%================#              ",
"            $*===========#*                   $$-=-=--========--=#              ",
"            $*==========$%                   +@%&%&%&%%%%%&*===-=#              ",
"            %*=========$$                    .+@@@@@@@@@@@@$$====#              ",
"            %*========$#                                    >*-==#              ",
"            %*=======%@                                     =*===#              ",
"            %*======*@                                      **-==#              ",
"            %*=====*@                                       &*-==#              ",
"            %*====*#                                        &*-==#              ",
"            %*===*#-                                        &*=;=#              ",
"            %*==*%*                                         %&===#              ",
"            @$&%#%                                          @#&&%+              ",
"            #%*%%                                            %**&+              ",
"                                                                                ",
"                                                                                ",
"                                                                                ",
"                    @&$                                                         ",
"                   @@&$@                                                        ",
"                   %%-*$                                                        ",
"                   *&-==                                                        ",
"                ++&*=;=*$##$$#$$##$$@.     +@#+.  +@##$$#$$##+                  ",
"                @$==================*#    #&==%+ ;@*=========$                  ",
"                #$==================*@    +===$  **==========&                  ",
"                +@*====*&$$&*====*$$$+   +$==*$  $--==&$$*===$                  ",
"                 *>*=-==>->>===-=>>-*%   #$==#; @%-===,>,>===$                  ",
"                   &&===     %====       %==*@  @*==$,   ,*==&                  ",
"                   %%=*$     &&==#      %*==%* -$===*>-&-=*==&                  ",
"                   $$=*$     $$==$$     @=-*%  @=====*&&&*===$                  ",
"                   $$=*$      $==*%    *$==$$  #======-----==%                  ",
"                   $%=*$      #*==&$   $*==#  $%;==**&***&&&&#                  ",
"                   $%=*$       $===+   $==*#  &=-=%@+.++++....                  ",
"                   %%=**       @*==$= @*-=$  $*--=>                             ",
"                   %$==*       #$===*,$=-&+  +*===;                             ",
"                   $%==&#@@@..  @====*===%$  @*===&#@@@@@@@+..                  ",
"                   $%-=====*@   &&=======$   $&=-===*======*@                   ",
"                   $%-=;=-=*%    #===--=%-    **;;========-=$                   "};
