/* XPM */
static char *LA_OTRA[] = {
/* columns rows colors chars-per-pixel */
"80 80 62 1",
"  c #CD142E",
". c #CE1730",
"X c #CF1B34",
"o c #CF1F38",
"O c #D01E37",
"+ c #D01F38",
"@ c #D1243C",
"# c #D1283F",
"$ c #D12740",
"% c #D22B43",
"& c #D33047",
"* c #D4354B",
"= c #D5384F",
"- c #D63C52",
"; c #D74156",
": c #D74458",
"> c #D8465A",
", c #D94A5E",
"< c #D94D61",
"1 c #DB5467",
"2 c #DB5669",
"3 c #DC596B",
"4 c #DD5F71",
"5 c #DE6476",
"6 c #DF6778",
"7 c #DF697A",
"8 c #E06D7D",
"9 c #E17181",
"0 c #E27887",
"q c #E37D8C",
"w c #E4818F",
"e c #E58593",
"r c #E68996",
"t c #E78E9B",
"y c #E7919D",
"u c #E8929E",
"i c #E895A1",
"p c #E99BA6",
"a c #EA9EA9",
"s c #EBA3AD",
"d c #ECA7B1",
"f c #EDABB4",
"g c #EFB3BC",
"h c #F0B8BF",
"j c #EFB8C0",
"k c #F0BCC3",
"l c #F2C3C9",
"z c #F3C9CF",
"x c #F4CCD2",
"c c #F5D1D6",
"v c #F5D5D9",
"b c #F7D9DD",
"n c #F7DDE0",
"m c #F8DEE1",
"M c #F8E1E5",
"N c #F9E6E9",
"B c #FAEAEC",
"V c #FBEFF0",
"C c #FCF3F4",
"Z c #FDF7F8",
"A c #FEFEFE",
"S c None",
/* pixels */
"SSSSSSSSSSSSSSSSSSSSSSSSSSSSSSSSSSSSSSSSSSSSSSSSSSSSSSSSSSSSSSSSSSSSSSSSSSSSSSSS",
"SSSSSSSSSSSSSSSSSSSSSSo.                        @<%       XSSSSSSSSSSSSSSSSSSSSS",
"SSSSSSSSSSSSSSSSSSSSSSX          .    .         =s3       .@SSSSSSSSSSSSSSSSSSSS",
"SSSSSSSSSSSSSSSSSSSSS@.     .               .  .4MtX       oSSSSSSSSSSSSSSSSSSSS",
"SSSSSSSSSSSSSSSSSSSSSo.  .            .        @iAl=       XSSSSSSSSSSSSSSSSSSSS",
"SSSSSSSSSSSSSSSSSSSSSX    .                    =xAN7       .@SSSSSSSSSSSSSSSSSSS",
"SSSSSSSSSSSSSSSSSSSS@.          .             .5VAZaO       @SSSSSSSSSSSSSSSSSSS",
"SSSSSSSSSSSSSSSSSSSSo.        .    .          +aZAAx:       XSSSSSSSSSSSSSSSSSSS",
"SSSSSSSSSSSSSSSSSSSSX                     .   -vAAAB0       .@SSSSSSSSSSSSSSSSSS",
"SSSSSSSSSSSSSSSSSSS@X                .        8CAAAAf$      .oSSSSSSSSSSSSSSSSSS",
"SSSSSSSSSSSSSSSSSSSo              .          @dAAAAAb1       XSSSSSSSSSSSSSSSSSS",
"SSSSSSSSSSSSSSSSSSSX                         ;bAAAAACeX      .@SSSSSSSSSSSSSSSSS",
"SSSSSSSSSSSSSSSSSSS.       .        .   .    0CAAAAAAk*   .  .oSSSSSSSSSSSSSSSSS",
"SSSSSSSSSSSSSSSSSS+.                   .    @gZAAAAAAN4       XSSSSSSSSSSSSSSSSS",
"SSSSSSSSSSSSSSSSSSO             .           ,bAAAAAAAAi@      .@SSSSSSSSSSSSSSSS",
"SSSSSSSSSSSSSSSSSSX  ..                    .wCAAAAAAAAx-       oSSSSSSSSSSSSSSSS",
"SSSSSSSSSSSSSSSSS@.                        $gAAAAAAAAAC8X      XSSSSSSSSSSSSSSSS",
"SSSSSSSSSSSSSSSSSX                         1mAAAAAAAAAAd$      XSSSSSSSSSSSSSSSS",
"SSSSSSSSSSSSSSSSS.                         eCAAAAAAAAAAn,       XSSSSSSSSSSSSSSS",
"SSSSSSSSSSSSSSSS@    X:67757565764655456549xAAAAAAAAAAAZs9888888qSSSSSSSSSSSSSSS",
"SSSSSSSSSSSSSSSSO    .;smBNBNBNNNNNNNNNNNNBZAAAAAAAAAAAACBBBBBBBBBSSSSSSSSSSSSSS",
"SSSSSSSSSSSSSSSSX     .=iNAAAAAAAAAAAAAAAAAAAAAAAAAAAAAAAAAAAAAAACSSSSSSSSSSSSSS",
"SSSSSSSSSSSSSSS@        @8cZAAAAAAAAAAAAAAAAAAAAAAAAAAAAAAAAAAAAACSSSSSSSSSSSSSS",
"SSSSSSSSSSSSSSSo         X<gCAAAAAAAAAAAAAAAAAAAAAAAAAAAAAAAAAAAAASSSSSSSSSSSSSS",
"SSSSSSSSSSSSSSSX           *tMAAAAAAAAAAAAAAAAAAAAAAAAAAAAAAAAAAAACSSSSSSSSSSSSS",
"SSSSSSSSSSSSSS@.      .     +7zZAAAAAAAAAAAAAAAAAAAAAAAAAAAAAAAAAAZSSSSSSSSSSSSS",
"SSSSSSSSSSSSSSo  .     .      ,fBAAAAAAAAAAAAAAAAAAAAAAAAAAAAAAAAABSSSSSSSSSSSSS",
"SSSSSSSSSSSSSSX                %enAAAAAAAAAAAAAAAAAAAAAAAAAAAAAAAMr,SSSSSSSSSSSS",
"SSSSSSSSSSSSS@.           .     +5kZAAAAAAAAAAAAAAAAAAAAAAAAAAAZz8@.SSSSSSSSSSSS",
"SSSSSSSSSSSSS+                   .:aBAAAAAAAAAAAAAAAAAAAAAAAAACf,.  SSSSSSSSSSSS",
"SSSSSSSSSSSSSX                     $0vAAAAAAAAAAAAAAAAAAAAAAAMr*    @SSSSSSSSSSS",
"SSSSSSSSSSSS@.    . .          .    o2kZAAAAAAAAAAAAAAAAAAAAx7@     oSSSSSSSSSSS",
"SSSSSSSSSSSS@    .            .       7BAAAAAAAAAAAAAAAAAAACeX      XSSSSSSSSSSS",
"SSSSSSSSSSSSX                        XqZAAAAAAAAAAAAAAAAAAAZaX       @SSSSSSSSSS",
"SSSSSSSSSSS#          .   .          %gAAAAAAAAAAAAAAAAAAAAAx=       OSSSSSSSSSS",
"SSSSSSSSSSS@         .   .           ,bAAAAAAAAAAAAAAAAAAAAAB5       XSSSSSSSSSS",
"SSSSSSSSSSSS+.              .       X0CAAAAAAAAAAAAAAAAAAAAAZso     oSSSSSSSSSSS",
"SSSSSSSSSSSSS@X   .                 @sAAAAAAAAAAAAAAAAAAAAAAAx=   .@SSSSSSSSSSSS",
"SSSSSSSSSSSSSSSo    .               ;cAAAAAAAAAAAAAAAAAAAAAAAB6  X@SSSSSSSSSSSSS",
"SSSSSSSSSSSSSSSS+X         .       X7CAAAAAAAAAAZMCAAAAAAAAAACaooSSSSSSSSSSSSSSS",
"SSSSSSSSSSSSSSSSS@X           .    +pAAAAAAAAAAVs4rbAAAAAAAAAAc1SSSSSSSSSSSSSSSS",
"SSSSSSSSSSSSSSSSSSS@.        .     =xAAAAAAAAAbq* @5lZAAAAAAAZBSSSSSSSSSSSSSSSSS",
"SSSSSSSSSSSSSSSSSSSS@X  .          4CAAAAAAACk3+   .;aBAAAAACSSSSSSSSSSSSSSSSSSS",
"SSSSSSSSSSSSSSSSSSSSSSo           ouZAAAAAANy=       $0vAAZCSSSSSSSSSSSSSSSSSSSS",
"SSSSSSSSSSSSSSSSSSSSSSSo.         %zAAAAAZz7@         X1gCSSSSSSSSSSSSSSSSSSSSSS",
"SSSSSSSSSSSSSSSSSSSSSSSS@X  .     1BAAAAVs:X           X,SSSSSSSSSSSSSSSSSSSSSSS",
"SSSSSSSSSSSSSSSSSSSSSSSSSSo      XeZAAZbq$            X@SSSSSSSSSSSSSSSSSSSSSSSS",
"SSSSSSSSSSSSSSSSSSSSSSSSSSS+X    #kAACh2X           .oSSSSSSSSSSSSSSSSSSSSSSSSSS",
"SSSSSSSSSSSSSSSSSSSSSSSSSSSS@X   <NAmu*            .@SSSSSSSSSSSSSSSSSSSSSSSSSSS",
"SSSSSSSSSSSSSSSSSSSSSSSSSSSSSSO. wBl7+            O@SSSSSSSSSSSSSSSSSSSSSSSSSSSS",
"SSSSSSSSSSSSSSSSSSSSSSSSSSSSSSS@$aa:            .OSSSSSSSSSSSSSSSSSSSSSSSSSSSSSS",
"SSSSSSSSSSSSSSSSSSSSSSSSSSSSSSSSS7$      .     X@SSSSSSSSSSSSSSSSSSSSSSSSSSSSSSS",
"SSSSSSSSSSSSSSSSSSSSSSSSSSSSSSSSSSO           oSSSSSSSSSSSSSSSSSSSSSSSSSSSSSSSSS",
"SSSSSSSSSSSSSSSSSSSSSSSSSSSSSSSSSSS@X       .oSSSSSSSSSSSSSSSSSSSSSSSSSSSSSSSSSS",
"SSSSSSSSSSSSSSSSSSSSSSSSSSSSSSSSSSSSSo     X@SSSSSSSSSSSSSSSSSSSSSSSSSSSSSSSSSSS",
"SSSSSSSSSSSSSSSSSSSSSSSSSSSSSSSSSSSSSS@.  oSSSSSSSSSSSSSSSSSSSSSSSSSSSSSSSSSSSSS",
"SSSSSSSSSSSSSSSSSSSSSSSSSSSSSSSSSSSSSSS@oOSSSSSSSSSSSSSSSSSSSSSSSSSSSSSSSSSSSSSS",
"SSSSSSSSSSSSSSSSSSSSSSSSSSSSSSSSSSSSSSSSSSSSSSSSSSSSSSSSSSSSSSSSSSSSSSSSSSSSSSSS",
"SSSSSSSSSSSSSSSSSSSSSSSSSSSSSSSSSSSSSSSSSSSSSSSSSSSSSSSSSSSSSSSSSSSSSSSSSSSSSSSS",
"SSSSSSSSSSSSSSSSSSSSSSSSSSSSSSSSSSSSSSSSSSSSSSSSSSSSSSSSSSSSSSSSSSSSSSSSSSSSSSSS",
"SSSSSSSSSSSSSSSSSSSSSSSSSSSSSSSSSSSSSSSSSSSSSSSSSSSSSSSSSSSSSSSSSSSSSSSSSSSSSSSS",
"SSSSSSSSSSSSSSSSSSSSSSSSSSSSSSSSSSSSSSSSSSSSSSSSSSSSSSSSSSSSSSSSSSSSSSSSSSSSSSSS",
"SSSSSSSSSSSSSSSSSSSSSSSSSSSSSSSSSSSSSSSSSSSSSSSSSSSSSSSSSSSSSSSSSSSSSSSSSSSSSSSS",
"SSSSSSSSSSSSSSSSSSSSSSSSSSSSSSSSSSSSSSSSSSSSSSSSSSSSSSSSSSSSSSSSSSSSSSSSSSSSSSSS",
"SSSSSSSSSSS-&SSSSSSSSSSSSSSSSSSSS-$@$$$SSSSSSSS;%SSSSSSSSSSSSSSSSSSSSSSSSSSSSSSS",
"SSSSSSSSSSS$+SSSSSSSSSSSSSSSSSSS$o.XOO.X%SSSSSS%O:SSSSSSSSSSSSSSSSSSSSSSSSSSSSSS",
"SSSSSSSSSSS@OSSSSSSSSSSSSSSSSSS#.X%:S;$oX$SSSSS$X;SSSSSSSSSSSSSSSSSSSSSSSSSSSSSS",
"SSSSSSSSSSS$XSSSSSSS=SSSSSSSSS%X+;SSSSS-OX=SSSS@X-SSSSSSSSSSSSSS=SSSSSSSSSSSSSSS",
"SSSSSSSSSSS@oSSSSS@oXX@-:$-SSSoX:SSSSSSS=X+SSS%X O%SS*#&@&SSS&O.XO*,$-SSSSSSSSSS",
"SSSSSSSSSSS@XSSSS@.X@@OOXX@SS%X$SSSSSSSSS@X-SS@X X$SS@ .OSSS%X.@@OooX@SSSSSSSSSS",
"SSSSSSSSSSS@XSSS%.@SSSS$..$SS$.=SSSSSSSSS%X*SSS@X=SSS@ @SSS;Xo*SSS=o #SSSSSSSSSS",
"SSSSSSSSSSS@OSSS@X;SSSSS@.@SS@X-SSSSSSSSS&X$SSS$X:SSS@X;SSS@X%SSSSS%.@SSSSSSSSSS",
"SSSSSSSSSSS@OSS-o$SSSSSS%X#SS$O=SSSSSSSSS%X%SSS%X;SSS@OSSSSOoSSSSSS;X@SSSSSSSSSS",
"SSSSSSSSSSS@XSS-X%SSSSSS*.@SS%.$SSSSSSSSS#.-SSS%X;SSS@+SSSSX+SSSSSSSO@SSSSSSSSSS",
"SSSSSSSSSSS$XSSSX@SSSSSS%.@SS-OO:SSSSSSS-oOSSSS%X:SSS@@SSSSOX-SSSSS-O@SSSSSSSSSS",
"SSSSSSSSSSS@oSSS@X-SSSSS@ @SSS$ @SSSSSS-O.=SSSS$X;SSS@OSSSS$X%SSSSS$.#SSSSSSSSSS",
"SSSSSSSSSSS@oSSS&XO*SS-@  @SSSS@.@$SSS$OX%SSSSS$X;SSS@+SSSS>OX$SSS$X @SSSSSSSSSS",
"SSSSSSSSSSS$oSSSS$ X++O@@O$SSSSS@XXXoo.o$SSSSSS%O:SSS@@SSSSS*X o@+@@X$SSSSSSSSSS",
"SSSSSSSSSSS;&SSSSS&@O@&S<%SSSSSSS-@ooo$-SSSSSSS;%SSSS==SSSSSS-@oO$SS%-SSSSSSSSSS",
"SSSSSSSSSSSSSSSSSSSSSSSSSSSSSSSSSSSSSSSSSSSSSSSSSSSSSSSSSSSSSSSSSSSSSSSSSSSSSSSS"
};
