/* XPM */
static char *laSexta[] = {
/* columns rows colors chars-per-pixel */
"80 80 56 1",
"N c None",
"  c #3FB143",
". c #42B246",
"X c #44B348",
"o c #49B54D",
"O c #4DB651",
"+ c #4FB853",
"@ c #51B855",
"# c #55BA59",
"$ c #59BB5D",
"% c #5DBD61",
"& c #61BE64",
"* c #64C067",
"= c #65C068",
"- c #6AC26D",
"; c #6DC370",
": c #72C575",
"> c #75C778",
", c #77C87A",
"< c #7AC97D",
"1 c #7ECA81",
"2 c #82CC84",
"3 c #86CD88",
"4 c #88CE8B",
"5 c #8CD08E",
"6 c #8ED190",
"7 c #92D294",
"8 c #96D498",
"9 c #9AD59C",
"0 c #9ED7A0",
"q c #9FD8A1",
"w c #A2D9A4",
"e c #A7DBA9",
"r c #ABDCAD",
"t c #AEDEB0",
"y c #B1DFB3",
"u c #B3E0B5",
"i c #B6E1B8",
"p c #BBE3BC",
"a c #BEE4C0",
"s c #C2E6C3",
"d c #C7E8C8",
"f c #CCEACD",
"g c #CFEBD0",
"h c #D3ECD4",
"j c #D7EED8",
"k c #D8EFD9",
"l c #DCF0DD",
"z c #DFF2E0",
"x c #E3F3E4",
"c c #E7F5E8",
"v c #EAF6EB",
"b c #EEF8EE",
"n c #EFF8F0",
"m c #F4F9F4",
"M c #FEFEFE",
/* pixels */
"NXXXXXXXXXXXXXXXXXXXXXXXXXXXXXXXXXXXXXXXXXXXXXXXXXXXXXXXXXXXXXXXXXXXXXXXXXXXXXXX",
"NXXXXXXXXXXXXXXXXXXXXXXXXXXXXXXXXXXXXXXXXXXXXXXXXXXXXXXXXXXXXXXXXXXXXXXXXXXXXXXX",
"NXXXXXXXXXXXXXXXXXXXXXXXXXXXXXXXXXXXXXXXXXXXXXXXXXXXXXXXXXXXXXXXXXXXXXXXXXXXXXXX",
"NXXXXXXXXXXXXXXXXXXXXXXXXXXXXXXXXXXXXXXXXXXXXXXXXXXXXXXXXXXXXXXXXXXXXXXXXXXXXXXX",
"NXXXXXXXXXXXXXXXXXXXXXXXXXXXXXXXXXXXXXXXXXXXXXXXXXXXXXXXXXXXXXXXXXXXXXXXXXXXXXXX",
"NXXXXXXXXXXXXXXXXXXXXXXXXXXXXXXXXXXXXXXXXXXXXXXXXXXXXXXXXXXXXXXXXXXXXXXXXXXXXXXX",
"NXXXXXXXXXXXXXXXXXXXXXXXXXXXXXXXXXXXXXXXXXXXXXXXXXXXXXXXXXXXXXXXXXXXXXXXXXXXXXXX",
"NXXXXXXXXXXXXXXXXXXXXXXXXXXXXXXXXXXXX.....XXXX.....XXXXXXXXXXXXXXXXXXXXXXXXXXXXX",
"NXXXXXXXXXXXXXXXXXXXXXXXXXXXXXXXXXXX.@>>:=XXX.&111=XXXXXXXXXXXXXXXXXXXXXXXXXXXXX",
"NXXXXXXXXXXXXXXXXXXXXXXXXXXXXXXXXXXXXwmmmuXX.OsMmm7.XXXXXXXXXXXXXXXXXXXXXXXXXXXX",
"NXXXXXXXXXXXXXXXXXXXXXXXXXXXXXXXXXX.$xMMM3.X.>mMMc&.XXXXXXXXXXXXXXXXXXXXXXXXXXXX",
"NXXXXXXXXXXXXXXXXXXXXXXXXXXXXXXXXXX.6MMMl#.XXyMMMiXXXXXXXXXXXXXXXXXXXXXXXXXXXXXX",
"NXXXXXXXXXXXXXXXXXXXXXXXXXXXXXXXXX.OfMMMw.X.%cMMm<.XXXXXXXXXXXXXXXXXXXXXXXXXXXXX",
"NXXXXXXXXXXXXXXXXXXXXXXXXXXXXXXXXX.:mMMb-.X.8MMMh@.XXXXXXXXXXXXXXXXXXXXXXXXXXXXX",
"NXXXXXXXXXXXXXXXXXXXXXXXXXXXXXXXXXXtMMMaoX.+hMMM8.XXXXXXXXXXXXXXXXXXXXXXXXXXXXXX",
"NXXXXXXXXXXXXXXXXXXXXXXXXXXXXXXXX.%xMMm2.X.<mMMc&.XXXXXXXXXXXXXXXXXXXXXXXXXXXXXX",
"NXXXXXXXXXXXXXXXXXXXXXXXXXXXXXXXX.7MMMk#.XXiMMMuXXXXXXXXXXXXXXXXXXXXXXXXXXXXXXXX",
"NXXXXXXXXXXXXXXXXXXXXXXXXXXXXXXX.OfMMMq.X.&cMMm>.XXXXXXXXXXXXXXXXXXXXXXXXXXXXXXX",
"NXXXXXXXXXXXXXXXXXXXXXXXXXXXXXXX.>mMMv=.X.9MMMfO.XXXXXXXXXXXXXXXXXXXXXXXXXXXXXXX",
"NXXXXXXXXXXXXXXXXXXXXXXXXXXXXXXXXyMMMpoX.@hMMM7.XXXXXXXXXXXXXXXXXXXXXXXXXXXXXXXX",
"NXXXXXXXXXXXXXXXXXXXXXXXXXXXXXX.&cMMm1.X.<mMMx%.XXXXXXXXXXXXXXXXXXXXXXXXXXXXXXXX",
"NXXXXXXXXXXXXXXXXXXXXXXXXXXXXXX.8MMMj@.XoiMMMtXXXXXXXXXXXXXXXXXXXXXXXXXXXXXXXXXX",
"NXXXXXXXXXXXXXXXXXXXXXXXXXXXXX.@hMMM9.X.*vMMm:.XXXXXXXXXXXXXXXXXXXXXXXXXXXXXXXXX",
"NXXXXXXXXXXXXXXXXXXXXXXXXXXXXX.<mMMv*.X.9MMMfo..XXXXXXXXXXXXXXXXXXXXXXXXXXXXXXXX",
"NXXXXXXXXXXXXXXXXXXXXXXXXXXXXXopMMMpoX.@jMMMf2>%X.XXXXXXXXXXXXXXXXXXXXXXXXXXXXXX",
"NXXXXXXXXXXXXXXXXXXXXXXXXXXXX.*vMMm<.X.1mMMMMMmxw#.XXXXXXXXXXXXXXXXXXXXXXXXXXXXX",
"NXXXXXXXXXXXXXXXXXXXXXXXXXXXX.9MMMh@.XopMMMMMMMMMs$.XXXXXXXXXXXXXXXXXXXXXXXXXXXX",
"NXXXXXXXXXXXXXXXXXXXXXXXXXXX.@jMMM9.X.=vMMMMMMMMMMio.XXXXXXXXXXXXXXXXXXXXXXXXXXX",
"NXXXXXXXXXXXXXXXXXXXXXXXXXXX.2mMMc&.X.0MMMMMMMMMMMm2.XXXXXXXXXXXXXXXXXXXXXXXXXXX",
"NXXXXXXXXXXXXXXXXXXXXXXXXXXXopMMMiXX.@jMMMmmmmmMMMMfO.XXXXXXXXXXXXXXXXXXXXXXXXXX",
"NXXXXXXXXXXXXXXXXXXXXXXXXXX.=vMMm<.X.2mMMh:---:sMMMm>.XXXXXXXXXXXXXXXXXXXXXXXXXX",
"NXXXXXXXXXXXXXXXXXXXXXXXXXX.qMMMh@.XopMMM7.....#hMMMyXXXXXXXXXXXXXXXXXXXXXXXXXXX",
"NXXXXXXXXXXXXXXXXXXXXXXXXX.#kMMM8.X.=bMMx%.XXXX.5MMMx%.XXXXXXXXXXXXXXXXXXXXXXXXX",
"NXXXXXXXXXXXXXXXXXXXXXXXXX.2mMMc&.X.wMMMyXXXXXX.$lMMM7.XXXXXXXXXXXXXXXXXXXXXXXXX",
"NXXXXXXXXXXXXXXXXXXXXXXXXXoaMMMuXX.#lMMm: ....XX.wMMMfO.XXXXXXXXXXXXXXXXXXXXXXXX",
"NXXXXXXXXXXXXXXXXXXXXXXXX.-bMMm>.X.3MMMb9432,#.X.=vMMm>.XXXXXXXXXXXXXXXXXXXXXXXX",
"NXXXXXXXXXXXXXXXXXXXXXXXX.wMMMfO.XosMMMMMMMMmpO.XopMMMyXXXXXXXXXXXXXXXXXXXXXXXXX",
"NXXXXXXXXXXXXXXXXXXXXXXX.#kMMM7.X.-nMMMMMMMMMm,.X.1mMMc%.XXXXXXXXXXXXXXXXXXXXXXX",
"NXXXXXXXXXXXXXXXXXXXXXXX.2MMMx%.X.eMMMMMMMMMMMuXX.@jMMM7.XXXXXXXXXXXXXXXXXXXXXXX",
"NXXXXXXXXXXXXXXXXXXXXXXXoaMMMtXX.#lMMMMMMMMMMMc&.X.9MMMg+.XXXXXXXXXXXXXXXXXXXXXX",
"NXXXXXXXXXXXXXXXXXXXXXX.=vMMm:.X.3MMMvdsssscMMM8.X.=vMMm,.XXXXXXXXXXXXXXXXXXXXXX",
"NXXXXXXXXXXXXXXXXXXXXXX.9MMMfO.XosMMM8ooooo3mMMh@.XopMMMuXXXXXXXXXXXXXXXXXXXXXXX",
"NXXXXXXXXXXXXXXXXXXXXX.@hMMM7.X.-bMMx%.XXX.+hMMm<.X.2mMMc%.XXXXXXXXXXXXXXXXXXXXX",
"NXXXXXXXXXXXXXXXXXXXXX.<mMMx%.X.eMMMrXXXXXX.8MMMpoX.#lMMM7.XXXXXXXXXXXXXXXXXXXXX",
"NXXXXXXXXXXXXXXXXXXXXXXrMMMtXX.#lMMm;.XXXXX.%cMMv=.X.wMMMsoXXXXXXXXXXXXXXXXXXXXX",
"NXXXXXXXXXXXXXXXXXXXX.OhMMm>.X.3MMMsoXXXXXXXXiMMM0.X.;mMMl#.XXXXXXXXXXXXXXXXXXXX",
"NXXXXXXXXXXXXXXXXXXXX.#xMMl@.XosMMM3.XXXXXXX.<mMMj@..OgMMv&.XXXXXXXXXXXXXXXXXXXX",
"NXXXXXXXXXXXXXXXXXXXX.$xMMfoX.$xMMc%.XXXXXXX.#lMMb*.XXpMMb=.XXXXXXXXXXXXXXXXXXXX",
"NXXXXXXXXXXXXXXXXXXXX.$xMMgOX.#xMMm-.XXXXXXX.$xMMv&.XXpMMb*.XXXXXXXXXXXXXXXXXXXX",
"NXXXXXXXXXXXXXXXXXXXX.@lMMx$.XXuMMMw.XXXXXXX.3MMMfO..@jMMc%.XXXXXXXXXXXXXXXXXXXX",
"NXXXXXXXXXXXXXXXXXXXXXodMMM3.X.,mMMj@.XXXXXXosMMM6.X.:mMMk@.XXXXXXXXXXXXXXXXXXXX",
"NXXXXXXXXXXXXXXXXXXXXX.wMMMaoX.+hMMm1.XXXXX.;mMMx$.XXrMMMuXXXXXXXXXXXXXXXXXXXXXX",
"NXXXXXXXXXXXXXXXXXXXXX.:mMMv=.X.7MMMaoXXXXXXeMMMrXX.$xMMm2.XXXXXXXXXXXXXXXXXXXXX",
"NXXXXXXXXXXXXXXXXXXXXX.OfMMM0.X.%cMMm;.....$zMMm:.X.5MMMl#.XXXXXXXXXXXXXXXXXXXXX",
"NXXXXXXXXXXXXXXXXXXXXXX.7MMMj@.XXuMMMi=&&&%wMMMdo..OdMMMe.XXXXXXXXXXXXXXXXXXXXXX",
"NXXXXXXXXXXXXXXXXXXXXXX.%xMMm2.X.,mMMMbbvvvmMMM4.X.:mMMb-.XXXXXXXXXXXXXXXXXXXXXX",
"NXXXXXXXXXXXXXXXXXXXXXXXXyMMMpoX.+gMMMMMMMMMMMl$.XXrMMMsoXXXXXXXXXXXXXXXXXXXXXXX",
"NXXXXXXXXXXXXXXXXXXXXXXX.>mMMv=.X.7MMMMMMMMMMMe.X.$xMMM3.XXXXXXXXXXXXXXXXXXXXXXX",
"NXXXXXXXXXXXXXXXXXXXXXXX.OfMMMw.X.%xMMMMMMMMMb-.X.6MMMl#.XXXXXXXXXXXXXXXXXXXXXXX",
"NXXXXXXXXXXXXXXXXXXXXXXXX.7MMMk#.XX7cvvvvvvvvwoX.OfMMMw.XXXXXXXXXXXXXXXXXXXXXXXX",
"NXXXXXXXXXXXXXXXXXXXXXXXX.%xMMm2.XXo%&&&&&&&&o.X.:mMMb-.XXXXXXXXXXXXXXXXXXXXXXXX",
"NXXXXXXXXXXXXXXXXXXXXXXXXXXyMMMsoXXX.........XXXXtMMMsoXXXXXXXXXXXXXXXXXXXXXXXXX",
"NXXXXXXXXXXXXXXXXXXXXXXXXX.>mMMm;.XXXXXXXXXXXXX.$xMMM3.XXXXXXXXXXXXXXXXXXXXXXXXX",
"NXXXXXXXXXXXXXXXXXXXXXXXXX.OfMMMrXXXXXXXXXXXXXX.8MMMl#.XXXXXXXXXXXXXXXXXXXXXXXXX",
"NXXXXXXXXXXXXXXXXXXXXXXXXXX.7MMMv,.............;xMMMw.XXXXXXXXXXXXXXXXXXXXXXXXXX",
"NXXXXXXXXXXXXXXXXXXXXXXXXXX.%xMMMx9322221222239lMMMv=.XXXXXXXXXXXXXXXXXXXXXXXXXX",
"NXXXXXXXXXXXXXXXXXXXXXXXXXXXXeMMMMMMMMmmmmmMMMMMMMMioXXXXXXXXXXXXXXXXXXXXXXXXXXX",
"NXXXXXXXXXXXXXXXXXXXXXXXXXXX.&xMMMMMMMMMMMMMMMMMMMb:.XXXXXXXXXXXXXXXXXXXXXXXXXXX",
"NXXXXXXXXXXXXXXXXXXXXXXXXXXXXX5mMMMMMMMMMMMMMMMMMM0XXXXXXXXXXXXXXXXXXXXXXXXXXXXX",
"NXXXXXXXXXXXXXXXXXXXXXXXXXXXXXo7bMMMMMMMMMMMMMMMmeO.XXXXXXXXXXXXXXXXXXXXXXXXXXXX",
"NXXXXXXXXXXXXXXXXXXXXXXXXXXXXX.X:plxxxccvccxxzld2o.XXXXXXXXXXXXXXXXXXXXXXXXXXXXX",
"NXXXXXXXXXXXXXXXXXXXXXXXXXXXXXXX.o#$$%%%%%%$$$#o.XXXXXXXXXXXXXXXXXXXXXXXXXXXXXXX",
"NXXXXXXXXXXXXXXXXXXXXXXXXXXXXXXXXX..............XXXXXXXXXXXXXXXXXXXXXXXXXXXXXXXX",
"NXXXXXXXXXXXXXXXXXXXXXXXXXXXXXXXXXXXXXXXXXXXXXXXXXXXXXXXXXXXXXXXXXXXXXXXXXXXXXXX",
"NXXXXXXXXXXXXXXXXXXXXXXXXXXXXXXXXXXXXXXXXXXXXXXXXXXXXXXXXXXXXXXXXXXXXXXXXXXXXXXX",
"NXXXXXXXXXXXXXXXXXXXXXXXXXXXXXXXXXXXXXXXXXXXXXXXXXXXXXXXXXXXXXXXXXXXXXXXXXXXXXXX",
"NXXXXXXXXXXXXXXXXXXXXXXXXXXXXXXXXXXXXXXXXXXXXXXXXXXXXXXXXXXXXXXXXXXXXXXXXXXXXXXX",
"NXXXXXXXXXXXXXXXXXXXXXXXXXXXXXXXXXXXXXXXXXXXXXXXXXXXXXXXXXXXXXXXXXXXXXXXXXXXXXXX",
"NXXXXXXXXXXXXXXXXXXXXXXXXXXXXXXXXXXXXXXXXXXXXXXXXXXXXXXXXXXXXXXXXXXXXXXXXXXXXXXX",
"NXXXXXXXXXXXXXXXXXXXXXXXXXXXXXXXXXXXXXXXXXXXXXXXXXXXXXXXXXXXXXXXXXXXXXXXXXXXXXXX"
};
