/* XPM */
static char *Libertad_Digital_TV[] = {
/* columns rows colors chars-per-pixel */
"80 80 63 1",
"D c None",
"  c #AB2025",
". c #AC2429",
"X c #AE292D",
"o c #AF2B30",
"O c #B02D32",
"+ c #B13135",
"@ c #B3353A",
"# c #B4393D",
"$ c #B53D41",
"% c #B74044",
"& c #B84246",
"* c #B94549",
"= c #BA494D",
"- c #BC4D51",
"; c #BD5155",
": c #BE5558",
"> c #C0565A",
", c #C0595D",
"< c #C25D61",
"1 c #C36265",
"2 c #C56568",
"3 c #C6696C",
"4 c #C86D71",
"5 c #C97275",
"6 c #CB7578",
"7 c #CC7A7D",
"8 c #CF7E81",
"9 c #CF8083",
"0 c #D08285",
"q c #D18689",
"w c #D38B8D",
"e c #D48E90",
"r c #D69295",
"t c #D79598",
"y c #D89799",
"u c #D99A9C",
"i c #DA9EA0",
"p c #DCA2A4",
"a c #DDA6A8",
"s c #DEA9AB",
"d c #E0ACAE",
"f c #E1AEB0",
"g c #E2B3B4",
"h c #E3B6B8",
"j c #E5BBBC",
"k c #E7C0C1",
"l c #E8C3C4",
"z c #EAC7C8",
"x c #EBCACB",
"c c #EDCFD0",
"v c #EED2D3",
"b c #F0D7D8",
"n c #F1DBDC",
"m c #F3DFE0",
"M c #F4E2E3",
"N c #F6E7E8",
"B c #F6E9E9",
"V c #F8EDED",
"C c #F9EFF0",
"Z c #FAF3F3",
"A c #FCF7F8",
"S c #FEFEFE",
/* pixels */
"DSSSSSSSSSSSSSSSSSSSSSSSSSSSSSSSSSSSSSSSSSSSSSSSSSSSSSSSSSSSSSSSSSSSSSSSSSSSSSSS",
"DSSSSSSSSSSSSSSSSSSSSSSSSSSSSSSSSSZbgt7558tgvZSSSSSSSSSSSSSSSSSSSSSSSSSSSSSSSSSS",
"DSSSSSSSSSSSSSSSSSSSSSSSSSSSSSSAbp2%o.    .X$2ubASSSSSSSSSSSSSSSSSSSSSSSSSSSSSSS",
"DSSSSSSSSSSSSSSSSSSSSSSSSSSSSSv9$.            .$7cASSSSSSSSSSSSSSSSSSSSSSSSSSSSS",
"DSSSSSSSSSSSSSSSSSSSSSSSSSSSNe$                  #wMSSSSSSSSSSSSSSSSSSSSSSSSSSSS",
"DSSSSSSSSSSSSSSSSSSSSSSSSSSl>.                    .:kSSSSSSSSSSSSSSSSSSSSSSSSSSS",
"DSSSSSSSSSSSSSSSSSSSSSSSSAa#                        @pASSSSSSSSSSSSSSSSSSSSSSSSS",
"DSSSSSSSSSSSSSSSSSSSSSSSZrO                          owZSSSSSSSSSSSSSSSSSSSSSSSS",
"DSSSSSSSSSSSSSSSSSSSSSSZwX                            XqZSSSSSSSSSSSSSSSSSSSSSSS",
"DSSSSSSSSSSSSSSSSSSSSSArX         .@>6euue6,#.         XeASSSSSSSSSSSSSSSSSSSSSS",
"DSSSSSSSSSSSSSSSSSSSSSsO        X;yvCASSSSSZvu:X        OpSSSSSSSSSSSSSSSSSSSSSS",
"DSSSSSSSSSSSSSSSSSSSSl#        -aNSSSSSSSSSSSSBs-        #lSSSSSSSSSSSSSSSSSSSSS",
"DSSSSSSSSSSSSSSSSSSSM:       o7nSSSSSSSSSSSSSSSSM9O       ;MSSSSSSSSSSSSSSSSSSSS",
"DSSSSSSSSSSSSSSSSSSA0       @pZSSSSSSSSSSSSSSSSSSAa#       8ASSSSSSSSSSSSSSSSSSS",
"DSSSSSSSSSSSSSSSSSSk+      #hSSSSSSSSSSSSSSSSSSSSSSh$      OjSSSSSSSSSSSSSSSSSSS",
"DSSSSSSSSSSSSSSSSSV<      @hSSSSSSSSSSSSSSSSSSSSSSSSj#      ,VSSSSSSSSSSSSSSSSSS",
"DSSSSSSSSSSSSSSSSSa.     OaSSSSSSSSZvsw88wacZSSSSSSSSd+     .pSSSSSSSSSSSSSSSSSS",
"DSSSSSSSSSSSSSSSSB;     .wASSSSSSZg3@.    .@2gZSSSSSSAe.     -NSSSSSSSSSSSSSSSSS",
"DSSSSSSSSSSSSSSSSa.     <BSSSSSSv4o          X3cSSSSSSV1     .iSSSSSSSSSSSSSSSSS",
"DSSSSSSSSSSSSSSSV>     @zSSSSSSh*              %gASSSSSx#     ;VSSSSSSSSSSSSSSSS",
"DSSSSSSSSSSSSSSSjX     qSSSSSAs@                @aASSSSSe     XhSSSSSSSSSSSSSSSS",
"DSSSSSSSSSSSSSSS6     &nSSSSSh@                  +fSSSSSM=     4ASSSSSSSSSSSSSSS",
"DSSSSSSSSSSSSSSn$     rSSSSSx%                    $xSSSSSu     #bSSSSSSSSSSSSSSS",
"DSSSSSSSSSSSSSSa.    %nSSSSV1        X$--$X        ,NSSSSM*     pSSSSSSSSSSSSSSS",
"DSSSSSSSSSSSSSA4     0SSSSSy.      +4gnBBng5+       rSSSSSq     2ASSSSSSSSSSSSSS",
"DSSSSSSSSSSSSSM%    OzSSSSb%      -jASSSSSSAj;      #vSSSSx+    $nSSSSSSSSSSSSSS",
"DSSSSSSSSSSSSSjX    >ZSSSSq      <nSSSSSSSSSSn1      9SSSSZ<    .hSSSSSSSSSSSSSS",
"DSSSSSSSSSSSSSe     rSSSSn%     :nSSSSSSSSSSSSM,     $bSSSSu     qSSSSSSSSSSSSSS",
"DSSSSSSSSSSSSA2    OzSSSSu     #xSSSSSSSSSSSSSSx$     tSSSSx+    <ZSSSSSSSSSSSSS",
"DSSSSSSSSSSSSM*    =BSSSZ<     tSSSSSSSSSSSSSSSSu.    :ZSSSV-    %mSSSSSSSSSSSSS",
"DSSSSSSSSSSSSx+    4ASSSv+    -NSSSSSSBxxNSSSSSSB;    OxSSSS6    OlSSSSSSSSSSSSS",
"DSSSSSSSSSSSSs.    ySSSSi     uSSSSSCi;++-uVSSSSSp.    ySSSSi    .pSSSSSSSSSSSSS",
"DSSSSSSSSSSSSw    .jSSSA5    $nSSSSZ7.    .6VSSSSM%    3ASSSkX    0SSSSSSSSSSSSS",
"DSSSSSSSSSSSS5    +vSSSV-    4ASSSSr.      .wASSSS5    *BSSSb@    3SSSSSSSSSSSSS",
"DSSSSSSSSSSSS>    %NSSSb@    pSSSSc#        @xSSSSs.   +vSSSB*    -SSSSSSSSSSSSS",
"DSSSSSSSSSSSS&    ;ZSSSlX   OxSSSS0          7SSSSc+   XjSSSZ>    $SSSSSSSSSSSSS",
"DSSSSSSSSSSSS#    <ASSSf    $MSSSB=          *NSSSN&    aSSSA3    @SSSSSSSSSSSSS",
"DSSSSSSSSSSSSO    4SSSSu    -ZSSSxO          ozSSSZ:    tSSSS6    oSSSSSSSSSSSSS",
"DSSSSSSSSSSSSX    7SSSSr    <ASSSg.           sSSSA1    wSSSS8    .SSSSSSSSSSSSS",
"DSSSSSSSSSSSS.    7SSSSw    2ASSSp            uSSSA3    qSSSS0    .SSSSSSSSSSSSS",
"DSSSSSSSSSSSS.    7SSSSw    2ASSSp            uSSSA3    qSSSS0    .SSSSSSSSSSSSS",
"DSSSSSSSSSSSSX    7SSSSr    <ASSSg.           sSSSA1    wSSSS8    XSSSSSSSSSSSSS",
"DSSSSSSSSSSSSO    4SSSSu    ;ZSSSxO          XlSSSZ:    tSSSS6    OSSSSSSSSSSSSS",
"DSSSSSSSSSSSS#    1ASSSd    $MSSSN*          &MSSSN&    aSSSA3    @SSSSSSSSSSSSS",
"DSSSSSSSSSSSS&    ;ZSSSlX   OxSSSS8          6SSSSv+   .jSSSZ>    $SSSSSSSSSSSSS",
"DSSSSSSSSSSSS:    &NSSSb@    pSSSSx@        +lSSSSs.   +vSSSB=    -SSSSSSSSSSSSS",
"DSSSSSSSSSSSS4    +vSSSV-    4ASSSAw.       0ASSSS6    *NSSSn@    2SSSSSSSSSSSSS",
"DSSSSSSSSSSSSw    XjSSSA4    $mSSSSV6.    .4BSSSSM&    3ASSSlX    0SSSSSSSSSSSSS",
"DSSSSSSSSSSSSs.    uSSSSu     iSSSSSVt=OO*rBSSSSSa.    tSSSSp    .pSSSSSSSSSSSSS",
"DSSSSSSSSSSSSz+    5ASSSx+    ;BSSSSSSMllMSSSSSSV:    OzSSSS7    OkSSSSSSSSSSSSS",
"DSSSSSSSSSSSSM&    -VSSSZ,    .uSSSSSSSSSSSSSSSSp.    :VSSSC;    $nSSSSSSSSSSSSS",
"DSSSSSSSSSSSSA1    OxSSSSu     $xSSSSSSSSSSSSSSv&     rSSSSv+    <ZSSSSSSSSSSSSS",
"DSSSSSSSSSSSSSw     tSSSSb$     ,MSSSSSSSSSSSSM1     #vSSSSu     qSSSSSSSSSSSSSS",
"DSSSSSSSSSSSSSj.    ,ZSSSS0      2MSSSSSSSSSSM3      7ASSSZ1    .gSSSSSSSSSSSSSS",
"DSSSSSSSSSSSSSM$    +xSSSSv$      :lASSSSSSAl>      #cSSSSc+    $nSSSSSSSSSSSSSS",
"DSSSSSSSSSSSSSA3     qSSSSSr       @7jMVVMj7@       wSSSSSw     1ASSSSSSSSSSSSSS",
"DSSSSSSSSSSSSSSa.    &MSSSSN,        o&::*O        :NSSSSM*     iSSSSSSSSSSSSSSS",
"DSSSSSSSSSSSSSSn$     uSSSSSz$                    #lSSSSSi.    @vSSSSSSSSSSSSSSS",
"DSSSSSSSSSSSSSSA5     *MSSSSSd+                  OaSSSSSM=     3ASSSSSSSSSSSSSSS",
"DSSSSSSSSSSSSSSShX     wSSSSSAp+                +iASSSSSr.    .gSSSSSSSSSSSSSSSS",
"DSSSSSSSSSSSSSSSV:     #xSSSSSAd$              $aASSSSSv$     -BSSSSSSSSSSSSSSSS",
"DSSSSSSSSSSSSSSSSp.     1VSSSSSSx2X          X1zSSSSSSZ3      uSSSSSSSSSSSSSSSSS",
"DSSSSSSSSSSSSSSSSN-     .eASSSSSSVd<+      +<sVSSSSSSAr.     =MSSSSSSSSSSSSSSSSS",
"DSSSSSSSSSSSSSSSSSp.     +fSSSSSSSSZxp0660izZSSSSSSSSg+     .uSSSSSSSSSSSSSSSSSS",
"DSSSSSSSSSSSSSSSSSV,      $jSSSSSSSSSSSAASSSSSSSSSSSl$      :BSSSSSSSSSSSSSSSSSS",
"DSSSSSSSSSSSSSSSSSSjO      %jSSSSSSSSSSSSSSSSSSSSSSk&      OgSSSSSSSSSSSSSSSSSSS",
"DSSSSSSSSSSSSSSSSSSA8       #sASSSSSSSSSSSSSSSSSSAf$       7ASSSSSSSSSSSSSSSSSSS",
"DSSSSSSSSSSSSSSSSSSSM;       O0MSSSSSSSSSSSSSSSSNw+       -nSSSSSSSSSSSSSSSSSSSS",
"DSSSSSSSSSSSSSSSSSSSSk@       .;fVSSSSSSSSSSSSVg:.       @jSSSSSSSSSSSSSSSSSSSSS",
"DSSSSSSSSSSSSSSSSSSSSSpo        X,pbZSSSSSSZna<X        XuSSSSSSSSSSSSSSSSSSSSSS",
"DSSSSSSSSSSSSSSSSSSSSSAeX         .$<8uaau81$.         .qZSSSSSSSSSSSSSSSSSSSSSS",
"DSSSSSSSSSSSSSSSSSSSSSSZqX             ..             .8ZSSSSSSSSSSSSSSSSSSSSSSS",
"DSSSSSSSSSSSSSSSSSSSSSSSZwX                          X0ZSSSSSSSSSSSSSSSSSSSSSSSS",
"DSSSSSSSSSSSSSSSSSSSSSSSSAu@                        +uZSSSSSSSSSSSSSSSSSSSSSSSSS",
"DSSSSSSSSSSSSSSSSSSSSSSSSSAj;                      -hASSSSSSSSSSSSSSSSSSSSSSSSSS",
"DSSSSSSSSSSSSSSSSSSSSSSSSSSSMq@                  @0mSSSSSSSSSSSSSSSSSSSSSSSSSSSS",
"DSSSSSSSSSSSSSSSSSSSSSSSSSSSSAx6#              @5zASSSSSSSSSSSSSSSSSSSSSSSSSSSSS",
"DSSSSSSSSSSSSSSSSSSSSSSSSSSSSSSAvy<#X.    .X#,rvASSSSSSSSSSSSSSSSSSSSSSSSSSSSSSS",
"DSSSSSSSSSSSSSSSSSSSSSSSSSSSSSSSSSVxse7557wsxVSSSSSSSSSSSSSSSSSSSSSSSSSSSSSSSSSS",
"DSSSSSSSSSSSSSSSSSSSSSSSSSSSSSSSSSSSSSSSSSSSSSSSSSSSSSSSSSSSSSSSSSSSSSSSSSSSSSSS"
};
