/* XPM */
static char *NITRO[] = {
/* columns rows colors chars-per-pixel */
"80 80 36 1",
"u c None",
"  c #050300",
". c #110E03",
"X c #1A1604",
"o c #211C05",
"O c #292307",
"+ c #332C08",
"@ c #3A330A",
"# c #433A0B",
"$ c #4B420C",
"% c #54490E",
"& c #5A500F",
"* c #5C4F10",
"= c #5C5110",
"- c #655911",
"; c #6E6013",
": c #776814",
"> c #7F7016",
", c #877616",
"< c #907E18",
"1 c #988519",
"2 c #A18D1B",
"3 c #AA941C",
"4 c #B39C1E",
"5 c #B7A11F",
"6 c #BCA620",
"7 c #C3AB21",
"8 c #CBB222",
"9 c #D4BA23",
"0 c #DDC225",
"q c #E9CC27",
"w c #ECD128",
"e c #FBDB2A",
"r c #FEE62C",
"t c #FFF22E",
"y c #FFFA30",
/* pixels */
"uuuuuuuuuuuuuuuuuuuuuuuuuuuuuuuuuuuuuuuuuuuuuuuuuuuuuuuuuuuuuuuuuuuuuuuuuuuuuuuu",
"uuuuuuuuuuuuuuuuuuuuuuuuuuuuuuuuuuuuuuuuuuuuuuuuuuuuuuuuuuuuuuuuuuuuuuuuuuuuuuuu",
"uuuuuuuuuuuuuuuuuuuuuuuuuuuuuuuuuuuuuuuuuuuuuuuuuuuuuuuuuuuuuuuuuuuuuuuuuuuuuuuu",
"uuuuuuuuuuuuuuuuuuuuuuuuuuuuuuuuuuuuuuuuuuuuuuuuuuuuuuuuuuuuuuuuuuuuuuuuuuuuuuuu",
"uuuuuuuuuuuuuuuuuuuuuuuuuuuuuuuuuuuuuuuuuuuuuuuuuuuuuuuuuuuuuuuuuuuuuuuuuuuuuuuu",
"uuuuuuuuuuuuuuuuuuuuuuuuuuuuuuuuuuuuuuuuuuuuuuuuuuuuuuuuuuuuuuuuuuuuuuuuuuuuuuuu",
"uuuuuuuuuuuuuuuuuuuuuuuuuuuuuuuuuuuuuuuuuuuuuuuuuuuuuuuuuuuuuuuuuuuuuuuuuuuuuuuu",
"uuuuuuuuuuuuuuuuuuuuuuuuuuuuuuuuuuuuuuuuuuuuuuuuuuuuuuuuuuuuuuuuuuuuuuuuuuuuuuuu",
"uuuuuuuuuuuuuuuuuuuuuuuuuuuuuuuuuuuuuuuuuuuuuuuuuuuuuuuuuuuuuuuuuuuuuuuuuuuuuuuu",
"uuuuuuuuuuuuuuuuuuuuuuuuuuuuuuuuuuuuuuuuuuuuuuuuuuuuuuuuuuuuuuuuuuuuuuuuuuuuuuuu",
"uuuuuuuuuuuuuuuuuuuuuuuuuuuuuuuuuuuuuuuuuuuuuuuuuuuuuuuuuuuuuuuuuuuuuuuuuuuuuuuu",
"uuuuuuuuuuuuuuuuuuuuuuuuuuuuuuuuuuuuuuuuuuuuuuuuuuuuuuuuuuuuuuuuuuuuuuuuuuuuuuuu",
"uuuuuuuuuuuuuuuuuuuuuuuuuuuuuuuuuuuuuuuuuuuuuuuuuuuuuuuuuuuuuuuuuuuuuuuuuuuuuuuu",
"uuuuuuuuuuuuuuuuuuuuuuuuuuuuuuuuuuuuuuuuuuuuuuuuuuuuuuuuuuuuuuuuuuuuuuuuuuuuuuuu",
"uuuuuuuuuuuuuuuuuuuuuuuuuuuuuuuuuuuuuuuuuuuuuuuuuuuuuuuuuuuuuuuuuuuuuuuuuuuuuuuu",
"uuuuuuuuuuuuuuuuuuuuuuuuuuuuuuuuuuuuuuuuuuuuuuuuuuuuuuuuuuuuuuuuuuuuuuuuuuuuuuuu",
"uuuuuuuuuuuuuuuuuuuuuuuuuuuuuuuuuuuuuuuuuuuuuuuuuuuuuuuuuuuuuuuuuuuuuuuuuuuuuuuu",
"uuuuuuuuuuuuuuuuuuuuuuuuuuuuuuuuuuuuuuuuuuuuuuuuuuuuuuuuuuuuuuuuuuuuuuuuuuuuuuuu",
"eeeereeeereeeeeeeeeereeeeeeeeeeeeeeeeeeeeereeeeereeeeeeeeeeereeeereeeeeereeeeeee",
"eeereeeeeeeeeeereeereeeereeeeeereeereeeeeeeeeeereeeereeeeeereeeeeeeeeeereeeeeere",
"eeereeeeeeeeeeeereeeeeeeeeeeeeeeeereeereeereeeeeeeeeeeeeeeeeeeeeeeeeeeeeeeeeeeee",
"eeeeeeeeeeeeeeeeeeeeeeeeeeeeeeeeeeeeeeeeeeeeeeeeeeeeeeeeeeeeeeeeeeeeeeeeeeeeeeee",
"eeeeeeeeeereerereeeeereeeeeererereereerereereeereerereeereeeeereereerreeeerereee",
"reeeeeereqqqwqqqqreeeeeerrwqwwqqqqwqqwqqqqwqwqwqwwqwqwwwwwwwwqwwqwwwqqwwwwqwqwee",
"eeeeeeer=.XXXXX.%9qeeeeew-XXXXXXXXXXXXXXXXXXXXXXXXXXXXXXXoXXXXXXXXXXoX.XXXXo ;re",
"eeeeeeeeO       ::<teeer-                                             .      1re",
"eeereer0.  .. . 3$#teer7 X14,   .14<  <44X@422332333.@42232,@  .    -7q02o   5re",
"eeeeeer6 .      6o+eeer> +rt0.  oey6 Oetw >yrtrttrtq >yrrrtrr-  . .7trert9. .qre",
"eereeer<    .  X7 oeeer$ &re0.  %er, $rr6 4rweeeewr4 4reeeeweeO   4tweeeet- +eee",
"eeeeeer- . . . #5 .qeewO ,rewo  >rr& :rr< qtreeerry, 9eeqqeeer-  &rwrqqrwr1 =ree",
"reeeeee+     . -1  8rr9  6ree+  4re+ 3rr- *%-wer:$-XoerwO $eer<  6re4..9rr3 ,tee",
"eeeeeeqX  . .  1-  6rr4 .0eer@  9r9. 9rr@   +eewX   $rr8   8rr< OeeeO  1rr1 5ree",
"eeeeer6    . . 6@  2rr> +eeer$ Oer6 XwrqX . -rr8 .. :rr3   7rt, =rr6 . 1rr, 9ree",
"reeeer1 ..    .7X  ,rr& &reer= %rr, $rr7  . 1rr2    3rr> ..9er- ,rr1   6rr%.eeee",
"eeeeer- . . . @6   -te+ ,rewt: ,rr= :rr1    5rr; .  9rr%  Xwer# 5rr-  .qero@reee",
"eeeeer@ .     -2 . $t9. 5reer, 4te+ 3rr-   .qrr# . oweeO  %rewX 0re@  +erq :teee",
"eeeeewX    .  <> . +r5 .0rqqt1 0rq. 8rr@ . +eewX   #req.  4rr5 Oerq.  =rr8 1teee",
"eeeer8 . .    6$   Xr1 Owt58y1Xer6 XwrqX   &rr8  . :rr4  -rwr- %rr7   ,rr1 8reee",
"eeeer2  . .  .7O . .w; %rr,5t3$rr1 #er8  . ,rr2  . 2rr9<4rer9  >rr1 . 6rr: weeee",
"eeeet; .  .  +8     9# ,rr%5y5>tr- ;rr1 .  4rt; .  8rerrrerr@  3rr-  .0er#Oreeee",
"eeeer# ..  . %4 .   5o 4reX4t84rr@ 1rr-    0rr#   Xweeeeeee%  .9re@  Oeee.*teeee",
"ereeeX     . ,3 .  o5. 9rq 4tqqrq. 8re# . Oeewo . #reeqwer2   OwrqX  %rr9 <reere",
"eeee9    . . 48    #2 Oet5 3reer7 XqrwX   %rr8  . :rr7 ;rr3   $rr8   ,rr4 6reeee",
"eeet3  . .   9q. . -, %er, 1reer1 @rr8  . ,rr2 .  2rr, -rr4 . :rr1 . 3rr; qeeeee",
"eeer>   . . XweO . 1& :rr= ,twer; -rr1    4rr:    8rr& -rr4 . 3rr;   9rr#oeeeeee",
"eeer%  .    #er$   4+ 3re+ :reer@ 1rt: .  9rr#   Xwee+ &rr5   9rr#  Oeee.$reeere",
"eeeeO .  .  ;rr;  X4. 9t0X ;rerwX 7rr# . Owewo . #re9. %rr5  XwewX  $rr9 >teeeer",
"eer0.     . 1rr1  @3 Owr5  =rer8 .qrwX   #rr8  . -rr3  %rr7  #rr0.. ,rr1 3reeeee",
"eer4     .  7rr6  =1 $rr1  $rer2 @er8  . :rr2  . 1rr>  %rr8  $rewX Xqer= 9reeeee",
"eet, . .   Xqer9. ,- :rr=  #eer; -rr2 .  3rr; .  7rr$  #re8  $rer2-9er0 Xeeeeeee",
"eer*   ..  @eeeeO 3@ 2re+  @rer# <rr; .  8rr# . Xqrwo  #re9. Oeeerteet- #reeeree",
"eee+ .   . =reer@ 6X 8tq.  OerwX 6rr# . XwrwX   @er9   #rr9   6teewet2  -tweeeee",
"er0.  .  . <reer=X5 oqe6   Oqe8 .9eqo   #ee8  . -er1 . @ee8.  O9rtre<   1teeeeee",
"er6  .     7reet,@1 .XoX    oOX  XoX.   .ooX .  Xoo.   .ooX  . .*;-O  . 9reeeere",
"er1 . . . #reeer4:; .   . .           .       .     . .       .     .  -reeeeeee",
"wr=      @0reeeee0+                                                  .:eeeeeeeee",
"ee7466647ereeeeeee74421211<,,,>:::::::::::;:;:::>>>>,,,,,<11112333445qteeeeeeeee",
"eerrrrrrreeeeeeeeerrrrrrrrtrrrtrrttrrtrrtrrrrttrrttrrrtrrtrrtrrttrrrreeereeeeeee",
"eeeeeeeeeeeeereeeeeeeeeeeeeeeeeeeeeeeeeeeweeeeeeeeeeeeeeeeeeeeeeeeeeeeeeeeeeeeer",
"reeeeeeeeeeeeeeeeeeeereeeeeeeeeeeeeeeeeeeeeeeeeeeeeeeeeeeeeeeeeeeeeeeeeeeeeeeree",
"eeeeeeeereeeeeeeeeeereeeeeereeeeereeeeeeeeeereeeeeeeeeeeereeeeeeeeeereeeeeeeeeee",
"eeeeeeereeeeeereeeereeeeeeeeeeereeeeeeeeeeereeeeeeeeeeereeeeeeeeeeereeeeeeerreee",
"uuuuuuuuuuuuuuuuuuuuuuuuuuuuuuuuuuuuuuuuuuuuuuuuuuuuuuuuuuuuuuuuuuuuuuuuuuuuuuuu",
"uuuuuuuuuuuuuuuuuuuuuuuuuuuuuuuuuuuuuuuuuuuuuuuuuuuuuuuuuuuuuuuuuuuuuuuuuuuuuuuu",
"uuuuuuuuuuuuuuuuuuuuuuuuuuuuuuuuuuuuuuuuuuuuuuuuuuuuuuuuuuuuuuuuuuuuuuuuuuuuuuuu",
"uuuuuuuuuuuuuuuuuuuuuuuuuuuuuuuuuuuuuuuuuuuuuuuuuuuuuuuuuuuuuuuuuuuuuuuuuuuuuuuu",
"uuuuuuuuuuuuuuuuuuuuuuuuuuuuuuuuuuuuuuuuuuuuuuuuuuuuuuuuuuuuuuuuuuuuuuuuuuuuuuuu",
"uuuuuuuuuuuuuuuuuuuuuuuuuuuuuuuuuuuuuuuuuuuuuuuuuuuuuuuuuuuuuuuuuuuuuuuuuuuuuuuu",
"uuuuuuuuuuuuuuuuuuuuuuuuuuuuuuuuuuuuuuuuuuuuuuuuuuuuuuuuuuuuuuuuuuuuuuuuuuuuuuuu",
"uuuuuuuuuuuuuuuuuuuuuuuuuuuuuuuuuuuuuuuuuuuuuuuuuuuuuuuuuuuuuuuuuuuuuuuuuuuuuuuu",
"uuuuuuuuuuuuuuuuuuuuuuuuuuuuuuuuuuuuuuuuuuuuuuuuuuuuuuuuuuuuuuuuuuuuuuuuuuuuuuuu",
"uuuuuuuuuuuuuuuuuuuuuuuuuuuuuuuuuuuuuuuuuuuuuuuuuuuuuuuuuuuuuuuuuuuuuuuuuuuuuuuu",
"uuuuuuuuuuuuuuuuuuuuuuuuuuuuuuuuuuuuuuuuuuuuuuuuuuuuuuuuuuuuuuuuuuuuuuuuuuuuuuuu",
"uuuuuuuuuuuuuuuuuuuuuuuuuuuuuuuuuuuuuuuuuuuuuuuuuuuuuuuuuuuuuuuuuuuuuuuuuuuuuuuu",
"uuuuuuuuuuuuuuuuuuuuuuuuuuuuuuuuuuuuuuuuuuuuuuuuuuuuuuuuuuuuuuuuuuuuuuuuuuuuuuuu",
"uuuuuuuuuuuuuuuuuuuuuuuuuuuuuuuuuuuuuuuuuuuuuuuuuuuuuuuuuuuuuuuuuuuuuuuuuuuuuuuu",
"uuuuuuuuuuuuuuuuuuuuuuuuuuuuuuuuuuuuuuuuuuuuuuuuuuuuuuuuuuuuuuuuuuuuuuuuuuuuuuuu",
"uuuuuuuuuuuuuuuuuuuuuuuuuuuuuuuuuuuuuuuuuuuuuuuuuuuuuuuuuuuuuuuuuuuuuuuuuuuuuuuu",
"uuuuuuuuuuuuuuuuuuuuuuuuuuuuuuuuuuuuuuuuuuuuuuuuuuuuuuuuuuuuuuuuuuuuuuuuuuuuuuuu",
"uuuuuuuuuuuuuuuuuuuuuuuuuuuuuuuuuuuuuuuuuuuuuuuuuuuuuuuuuuuuuuuuuuuuuuuuuuuuuuuu"
};
