/* XPM */
static char *ONA_FM[] = {
/* columns rows colors chars-per-pixel */
"80 80 64 1",
"F c None",
"  c #000000",
". c #0A0908",
"X c #161616",
"o c #1A0C00",
"O c #2C1400",
"+ c #272727",
"@ c #383737",
"# c #4E2400",
"$ c #6D3402",
"% c #523E2D",
"& c #575757",
"* c #484848",
"= c #676767",
"- c #747474",
"; c #64574C",
": c #594636",
"> c #944500",
", c #AD5100",
"< c #D96500",
"1 c #EC6D00",
"2 c #E76C05",
"3 c #EC710B",
"4 c #EF7002",
"5 c #F07000",
"6 c #EC7616",
"7 c #F17D1C",
"8 c #EC7C22",
"9 c #C65D02",
"0 c #925D31",
"q c #EE8229",
"w c #F08B3B",
"e c #EF8733",
"r c #F19448",
"t c #F19A55",
"y c #F08D40",
"u c #F3A667",
"i c #F4AE77",
"p c #E3975A",
"a c #888888",
"s c #969797",
"d c #A6A6A6",
"f c #B8B8B8",
"g c #B6AEA8",
"h c #B6A494",
"j c #F5B888",
"k c #F6BD91",
"l c #F7C399",
"z c #EDC09C",
"x c #F8CAA6",
"c c #F9D5B8",
"v c #F5CDAF",
"b c #DFC3AD",
"n c #C8C8C8",
"m c #D8D8D8",
"M c #FADBC3",
"N c #FCE7D7",
"B c #FBE1CC",
"V c #E8E8E8",
"C c #FDF2E9",
"Z c #FEF8F4",
"A c #FEFEFE",
"S c #F6F5F4",
"D c #FAEEE3",
/* pixels */
"FAAAAAAAAAAAAAAAAAAAAAAAAAAAAAAAAAAAAAAAAAAAAAAAAAAAAAAAAAAAAAAAAAAAAAAAAAAAAAAA",
"FAAAAAAAAAAAAAAAAAAAAAAAAAAAAAAAAAAAAAAAAAAAAAAAAAAAAAAAAAAAAAAAAAAAAAAAAAAAAAAA",
"FAAAAAAAAAAAAAAAAAAAAAAAAAAAAAAAAAAAAAAAAAAAAAAAAAAAAAAAAAAAAAAAAAAAAAAAAAAAAAAA",
"FAAAAAAAAAAAAAAAAAAAAAAAAAAAAAAAAAAAAAAAAAAAAAAAAAAAAAAAAAAAAAAAAAAAAAAAAAAAAAAA",
"FAAAAAAAAAAAAAAAAAAAAAAAAAAAAAAAAAAAAAAAAAAAAAAAAAAAAAAAAAAAAAAAAAAAAAAAAAAAAAAA",
"FAAAAAAAAAAAAAAAAAAAAAAAAAAAAAAAAAAAAAAAAAAAAAAAAAAAAAAAAAAAAAAAAAAAAAAAAAAAAAAA",
"FAAAAAAAAAAAAAAAAAAAAAAAAAAAAAAAAAAAAAAAAAAAAAAAAAAAAAAAAAAAAAAAAAAAAAAAAAAAAAAA",
"FAAAAAAAAAAAAAAAAAAAAAAAAAAAAAAAAAAAAAAAAAAAAAAAAAAAAAAAAAAAAAAAAAAAAAAAAAAAAAAA",
"FAAAAAAAAAAAAAAAAAAAAAAAAAAAAAAAAAAAAAAAAAAAAAAAAAAAAAAAAAAAAAAAAAAAAAAAAAAAAAAA",
"FAAAAAAAAAAAAAAAAAAAAAAAAAAAAAAAAAAAAAAAAAAAAAAAAAAAAAAAAAAAAAAAAAAAAAAAAAAAAAAA",
"FAAAAAAAAAAAAAAAAAAAAAAAAAAAAAAAAAAAAAAAZZZAAAAAAAAAAAAAAAAAAAAAAAAAAAAAAAAAAAAA",
"FAAAAAAAAAAAAAAAAAAAAAAAAAAAAAAAAAAAAAANiiijjjjkxZAAAAAAAAAAAAAAAAAAAAAAAAAAAAAA",
"FAAAAAAAAAAAAAAAAAAAAAAAAAAAAAAAAAAAAAAc31111111wCAAAAAAAAAAAAAAAAAAAAAAAAAAAAAA",
"FAAAAAAAAAAAAAAAAAAAAAAAAAAAAAAAAAAAAAAc31111111yCAAAAAAAAAAAAAAAAAAAAAAAAAAAAAA",
"FAAAAAAAAAAAAAAAAAAAAAAAAAAAAAAAAAAAAAAc61111111rZAAAAAAAAAAAAAAAAAAAAAAAAAAAAAA",
"FAAAAAAAAAAAAAAAAAAAAAAAAAAAAAAAAAAAAAAc61111111tZAAAAAAAAAAAAAAAAAAAAAAAAAAAAAA",
"FAAAAAAAAAAAAAAAAAAAAAAAAAAAAAAAAZCZAAAM61111111tZAAAAAAAAAAAAAAAAAAAAAAAAAAAAAA",
"FAAAAAAAAAAAAAAAAAAAAAAAAAAZCNcxjttBAAAM61111111tZAAAAAAAAAAAAAAAAAAAAAAAAAAAAAA",
"FAAAAAAAAAAAAAAAAAAAAACNMvjure63213xAAAM71111111uZAAAAAAAAAAAAAAAAAAAAAAAAAAAAAA",
"FAAAAAAAAAAAAAAAAAAAAvte76211111111jAAAB71111111uAAAAAAAAAAAAAAAAAAAAAAAAAAAAAAA",
"FAAAAAAAAAAAAAAAAAAAAi1111111111111iAAAB81111111iAAAAAAAAAAAAAAAAAAAAAAAAAAAAAAA",
"FAAAAAAAAAAAAAAAAAAAAj1111111111111tZAAB81111111iAAAAAAAAAAAAAAAAAAAAAAAAAAAAAAA",
"FAAAAAAAAAAAAAAAAAAAAj1111111111111wCAANq1111111iAAAAAAAAAAAAAAAAAAAAAAAAAAAAAAA",
"FAAAAAAAAAAAAAAAAAAAAj1111111111111qNAANq1111111iAAAAAAAAAAAAAAAAAAAAAAAAAAAAAAA",
"FAAAAAAAAAAAAAAAAAAAAk11111111111116MAANq1111111jAAAAAAAAAAAAAAAAAAAAAAAAAAAAAAA",
"FAAAAAAAAAAAAAAAAAAAAl11111111111113vAANq1111111kAAAAAASAAAAAAAAAAAAAAAAAAAAAAAA",
"FAAAAAAAAAAAAAAAAAAAAl11111111111112kAANe1111112lAAAZns-anSAAAAAAAAAAAAAAAAAAAAA",
"FAAAAAAAAAAZSSSAAAAAAx21111111111111uAADe1111113lAASd+. .+sSAAAAAAAAAAAAAAAAAAAA",
"FAAAAAAAASVmmmmmVSAAAx31111111111111tZADe1111113xAAgX     XsAAAAAAAAAAAAAAAAAAAA",
"FAAAAAAZVmnfffffnmVAAv31111111111111wCACw1111113xAm@       @mAAAAAAAAAAAAAAAAAAA",
"FAAAAASVnfgddsddgfnVAv311111111111118NACw1111113vAs.        aAAAAAAAAAAAAAAAAAAA",
"FAAAASmnfdsaaaaasdfnVc611111116711116MACw1111113cV*         @VAAAAAAAAAAAAAAAAAA",
"FAAASnfgsa-=&&&=-adfnb61111111qt11113xACy1111116MnX         XfAAAAAAAAAAAAAAAAAA",
"FAAAnsdsa=@X..X+*=adfg81111111qu11111kACy1111116Ms.          aAAAAAAAAAAAAAAAAAA",
"FAAVsssa&+.     .+=sdfp1111111ej31111iACy1111116M=           &SAAAAAAAAAAAAAAAAA",
"FAAf-aa&X         +-sgh6111111ex61111tZCy1111116b@           +mAAAAAAAAAAAAAAAAA",
"FAV---=+           @adde111111ec81111wCZr1111117hX     .     .dAAAAAAAAAAAAAAAAA",
"FAn&==@            .&as0211111eBy1111qNZr111111q-     .&X     -AAAAAAAAAAAAAAAAA",
"FAs@&&X             +-a;911111eNt11116MZr1111116%     Xs+     *VAAAAAAAAAAAAAAAA",
"FS=+*@              .*=@,51111wDi11113vZt1111119o     +n@     XnAAAAAAAAAAAAAAAA",
"FV@X@X               +*X$51111wCl11112kZt111115>      *V=     .sAAAAAAAAAAAAAAAA",
"Fm+ X.               XX $11111wCv31111uZt111111$      -Aa      =SAAAAAAAAAAAAAAA",
"FnX                     #11111yCB71111tCt11111<O     .sAg.     +mAAAAAAAAAAAAAAA",
"FnX                     #11111rZDq1111wDu111159o     XnAnX     .fAAAAAAAAAAAAAAA",
"FnX                     #21111rZCr11118Nu11115>      +mAV@      aAAAZBNAAAAAAAAA",
"FnX                     #11111rZAu11116Mu11111#      +aaa+      *SAAvqtCAAAAAAAA",
"Fm+                     $11111tZAi11113xu1111<O       ...       +mAAu1wNAAAAAAAA",
"FV@                     $51111tZAl31111ju1115,.                 .dADw3lBNcMNcNAA",
"FS&                     >51111tZAc61111iu1115$                   =Ak31wwe8qw6rNA",
"FAa                    o951111tZAB81111ti1112#                   @Vl31e6381663cA",
"FAfX                   #211111tZADw1111yi1119o                   XnCw6lqej3tu3cA",
"FAV@                   >511111tZAZt1111eu115>                     aZr8cqwx3ui3cA",
"FAAa                  o9111111uAAAu11117t111$                     &Cr7cqwx3ui3cA",
"FAAm+                 $1111111uAAAk11113q112#                     @VueBwtc8jl7cA",
"FAAAa.               @p1111111uAAAx31111111<O      @-------@      +mNcZcMZvNDvCA",
"FAAAV&              Xdi1111111uAAAM61111111<O     .sSSSSSSSd.     +mAAAAAAAAAAAA",
"FAAAAn@            .-Si1111111uAAANq11111111#     XnAAAAAAAm+     *VAAAAAAAAAAAA",
"FAAAAAf@          .-VAi1111111uAAACw11111115>     &SAAAAAAAS=    .aAAAAAAAAAAAAA",
"FAAAAAAn&X       +sVAAj1111111iAAAZt11111111<#   @nAAAAAAAAAn@  .&VAAAAAAAAAAAAA",
"FAAAAAAAVd&+XX+@-nSAAAj1111111iAAAAi111111111<>:-nAAAAAAAAAAAn-&sVAAAAAAAAAAAAAA",
"FAAAAAAAAAVnfgfmSAAAAAk2111111iAAAAl21111111114zSAAAAAAAAAAAAASSAAAAAAAAAAAAAAAA",
"FAAAAAAAAAAAAAAAAAAAAAl2111111jAAAAc61111111113vAAAAAAAAAAAAAAAAAAAAAAAAAAAAAAAA",
"FAAAAAAAAAAAAAAAAAAAAAx3111111jAAAAB71111111113cAAAAAAAAAAAAAAAAAAAAAAAAAAAAAAAA",
"FAAAAAAAAAAAAAAAAAAAAAx3111112kAAAADe11111126riNAAAAAAAAAAAAAAAAAAAAAAAAAAAAAAAA",
"FAAAAAAAAAAAAAAAAAAAAAx3111112lAAAAZr1113qtjcDZAAAAAAAAAAAAAAAAAAAAAAAAAAAAAAAAA",
"FAAAAAAAAAAAAAAAAAAAAAc3111112kAAAAAu3eulBCAAAAAAAAAAAAAAAAAAAAAAAAAAAAAAAAAAAAA",
"FAAAAAAAAAAAAAAAAAAAAAc336qrujBAAAAAcxNZAAAAAAAAAAAAAAAAAAAAAAAAAAAAAAAAAAAAAAAA",
"FAAAAAAAAAAAAAAAAAAAAABjlcNDZAAAAAAAAAAAAAAAAAAAAAAAAAAAAAAAAAAAAAAAAAAAAAAAAAAA",
"FAAAAAAAAAAAAAAAAAAAAAAAAAAAAAAAAAAAAAAAAAAAAAAAAAAAAAAAAAAAAAAAAAAAAAAAAAAAAAAA",
"FAAAAAAAAAAAAAAAAAAAAAAAAAAAAAAAAAAAAAAAAAAAAAAAAAAAAAAAAAAAAAAAAAAAAAAAAAAAAAAA",
"FAAAAAAAAAAAAAAAAAAAAAAAAAAAAAAAAAAAAAAAAAAAAAAAAAAAAAAAAAAAAAAAAAAAAAAAAAAAAAAA",
"FAAAAAAAAAAAAAAAAAAAAAAAAAAAAAAAAAAAAAAAAAAAAAAAAAAAAAAAAAAAAAAAAAAAAAAAAAAAAAAA",
"FAAAAAAAAAAAAAAAAAAAAAAAAAAAAAAAAAAAAAAAAAAAAAAAAAAAAAAAAAAAAAAAAAAAAAAAAAAAAAAA",
"FAAAAAAAAAAAAAAAAAAAAAAAAAAAAAAAAAAAAAAAAAAAAAAAAAAAAAAAAAAAAAAAAAAAAAAAAAAAAAAA",
"FAAAAAAAAAAAAAAAAAAAAAAAAAAAAAAAAAAAAAAAAAAAAAAAAAAAAAAAAAAAAAAAAAAAAAAAAAAAAAAA",
"FAAAAAAAAAAAAAAAAAAAAAAAAAAAAAAAAAAAAAAAAAAAAAAAAAAAAAAAAAAAAAAAAAAAAAAAAAAAAAAA",
"FAAAAAAAAAAAAAAAAAAAAAAAAAAAAAAAAAAAAAAAAAAAAAAAAAAAAAAAAAAAAAAAAAAAAAAAAAAAAAAA",
"FAAAAAAAAAAAAAAAAAAAAAAAAAAAAAAAAAAAAAAAAAAAAAAAAAAAAAAAAAAAAAAAAAAAAAAAAAAAAAAA",
"FAAAAAAAAAAAAAAAAAAAAAAAAAAAAAAAAAAAAAAAAAAAAAAAAAAAAAAAAAAAAAAAAAAAAAAAAAAAAAAA",
"FAAAAAAAAAAAAAAAAAAAAAAAAAAAAAAAAAAAAAAAAAAAAAAAAAAAAAAAAAAAAAAAAAAAAAAAAAAAAAAA"
};
