/* XPM */
static char *ONDA_CERO[] = {
/* columns rows colors chars-per-pixel */
"80 80 64 1",
"D c None",
"  c #1E1A1B",
". c #1A1617",
"X c #211D1E",
"o c #1C241E",
"O c #16321F",
"+ c #20201F",
"@ c #231E20",
"# c #1C2B20",
"$ c #1E2520",
"% c #163621",
"& c #242122",
"* c #282425",
"= c #2D292A",
"- c #2A2728",
"; c #302D2D",
": c #353132",
"> c #3C393A",
", c #393536",
"< c #332E30",
"1 c #403D3E",
"2 c #124223",
"3 c #104824",
"4 c #095A26",
"5 c #0B5425",
"6 c #0D4C24",
"7 c #056428",
"8 c #016C29",
"9 c #00712A",
"0 c #423E40",
"q c #494546",
"w c #504B4D",
"e c #595656",
"r c #524F50",
"t c #605D5E",
"y c #686666",
"u c #787677",
"i c #706D6E",
"p c #625F60",
"a c #807E7E",
"s c #898687",
"d c #949292",
"f c #9B999A",
"g c #908E8F",
"h c #A09E9E",
"j c #A9A7A8",
"k c #BBBABA",
"l c #B4B3B3",
"z c #B0AEAF",
"x c #A19FA0",
"c c #C0BEBF",
"v c #CCCBCB",
"b c #C4C3C3",
"n c #DBDBDB",
"m c #D4D3D3",
"M c #D0CFCF",
"N c #E0DFDF",
"B c #E3E2E3",
"V c #ECEBEB",
"C c #F3F2F3",
"Z c #FEFEFE",
"A c #E0DFE0",
"S c #C0BFC0",
"F c #817F80",
/* pixels */
"D9999999999999999999999999999999999999999999999999999999999999999999999999999999",
"D9999999999999999999999999999999999999999999999999999999999999999999999999999999",
"D9999999999999999999999999877777788888888888888888888888888777774455655547999999",
"D999999999999999999987462%%#######%%%%%%%%%%%%%%%%%%%%%%%%####ooooXXXXXX+#499999",
"D999999999887445632%#oo   XXX&*****<,<*********&XXXXXXXXXX***-:,,,,,,,,:*X299999",
"D999994562%#ooo   XX&<>wyugddzkkkkkMnMkkkkkkkkklfddddddddflkkbmnnnnnnnnmf=%89999",
"D99998%X XX*<:0qeyadzMnVZZZZZZZZZZZZZZZZZZZZZZZZZZZZZZZZZZZZZZZZZZZZZZZZB>#89999",
"D99998%&wufkMmBVCZZZZZZZZZZZZZZZZZZZZZZZZZZZZZZZZZZZZZZZZZZZZZZZZZZZZZZZB>#89999",
"D99998OrBZZZZZZZZZZZZZZZZZZZZZZZZZZZZZZZZZZZZZZZZZZZZZZZZZZZZZZZZZZZZZZZB1#89999",
"D99998oiZZZZZZZZZZZZZZZZZZZZZZZZZZZCBnbmNBVZZZZZZZZZZZZZZZZZZZZZZZZZZZZZVqO89999",
"D99997oaZZZZZZZZZZZZZZZZZZZZZZZCnlst0,=:>1wyudjkMBVZZZZZZZZZZZZZZZZZZZZZVwO89999",
"D99997ogZZZZZZZZZZZZZZZZZZZZCvdy>*X XXXXXX   X&-<1qisznCZZZZZZZZZZZZZZZZB0%89999",
"D99994ohZZZZZZZZZZZZZZZZZCvde;X XXXXXXXXXXXXXXXXXXX X*,yhnZZZZZZZZZZZZZZB>%89999",
"D99994&zZZZZZZZZZZZZZZZCly:X XXXXXXXXXXXXXXXXXXXXXXXXXX @>uvZZZZZZZZZZZZB>299999",
"D99995&lZZZZZZZZZZZZZCle- XXXXXXXXXXXXXXXXXXXXXXXXXXXXXXXXX:anZZZZZZZZZZB>299999",
"D99996-bZZZZZZZZZZZZby- XXXXXXXXXXXXXXXXXXXXXXXXXXXXXXXXXXXXXqlZZZZZZZZZB>399999",
"D99993=vZZZZZZZZZZBa; XXXXXXXXXXXXXXXXXXXXXXXXXXXXXXXXXXXXXXXX=sVZZZZZZZB>699999",
"D99992=vZZZZZZZZCzqXXXXXXXXXXXXXXXXXXXXXXXXXXXXXXXXXXXXXXXXXXXX&iBZZZZZZn,599999",
"D99992<mZZZZZZZnu- XXXXXXXXXXXXXXXXXXXXXXXXXXXXXXXXXXXXXXXX XXXXXtNZZZZZM;599999",
"D9999%>BZZZZZZkqXX->,&XXXXXXX:-XXXXtg<XXXXX&>1<& XXXXXXXXX>i:XXXXXyVZZZZv=599999",
"D9999%>BZZZZZj: *ibBng-XXXXX>bj:XXXjZi XXXXiNBMjy;XXXXXXX*zZd@XXXX&dZZZZv=599999",
"D9999%1BZZZZj=XXuCZZZCiXXXX iZZj-XXjZfXXXX&zZZZZCkqXXXXX yCZn>XXXXX,MZZZv=599999",
"D9999%qVZZZb:XX-bZZZZZk-XXXXdZZCg;XjZfXXXX=vZZVCZZj&XXXX;bZZZi XXXXXgZZZv=499999",
"D9999%wCZZCy XX0BZZVBZB0XXX@jZZZZbelZdXXXX=vZZaymZn,XXXXuZZCZj&XXXX eCZZv=499999",
"D9999%wCZZk-XX eCZZgdZCe XX&zZZZZZVCZi XXX=vZCe.uZVqXXX<vZndZm:XXXXX1BZZk*499999",
"D9999%wCZZi XX eCZCwiZZy XX&lZMlZZZZZy XXX=vZCe.sZVqXX iZZjrVCe XXXX,NZZl&499999",
"D9999%wCZBqXXX eCZB,yZZi XX-bZf:zZZZCe XXX:mZCwrAZn>XX=bZZVnZZa XXXXqVZZl&499999",
"D9999%wCZv;XXX eCZn:aZZy XX;MZd :lZZCw XXX1BZCdnZZs&X eCZZZZZZj@XXX yZZZl&499999",
"D9999%wCZk*XXX rCZB1zZCr XX:nZgXX>vZVqXXX eCZZZZVg-XXXfZZcjkBZb-XXXXfZZZz&499999",
"D9999%wCZb-XXXX>BZCdVZn,XXX-zCi XXrvb;XXX yZZZZby&XXX-bZz;X*iZn,XXX:MZZZj&499999",
"D9999%wCZN>XXXX-kZZZZZz&XXXX,r=XXXX,1@XXXX,jvku:XXXXX&dk1XXX-df=XX uZZZZj+499999",
"D9999%wCZCy XXXXiCZZZCt XXXXX XXXXXXXXXXXXX*=-XXXXXXXX*=XXXXX&*XX wnZZZZfX499999",
"D9999%wCZZz*XXXX*sBZBs*XXXXXXXXXXXXXXXXXXXXXXXXXXXXXXXXXXXXXXXXX@emZZZZZfX499999",
"D9999%wCZZCt XXXX&qyq&XXXXXXXXXXXXXXXXXXXXXXXXXXXXXXXXXXXXXXXXX1dVZZZZZZfX499999",
"D9999%wCZZZv,XXXXXX XXXXXXXXXXXXXXXXXXXXXXXXXXXXXXXXXXXXXXX *qgnZZZZZZZZfX499999",
"D9999%wCZZZZgXXXXXXXXXXXXXXXXXXXXXXXXXXXXXXXXXXXXXXXXXXX &,yzVZZZZZZZZZZfX499999",
"D9999%wCZZZZVtXXXXXXXXXXXXXXXXXXXXXXXXXXXXXXXXXXXXXXXX&1uzNZZZZZZZZZZZZZfX599999",
"D9999%wCZZZZZBs>@ XXXXXXXXXXXXXXXXXXXXXXXXXXXXXXXXXXXXykmMbzzbmnVCZZZZZZfX599999",
"D9999%wCZZZZZZZnhy,&X  XXXXXXXXXXXXXXXXXXXXXXXXXXXXXXX;,:=*&&-,>qeiusfxfeX499999",
"D9999%wCZZZZZZZZZCmjsur:XXXXXXXXXXXXXXXXX  X*==>111>=&  XXXXXXXXX    XXXX+499999",
"D9999%wCZZZZZZZZZZZZZCnF@XXXXXXXXXX   &=>eudlbvnBBBnvzar=XXXXXXXXXXXXXXXX+499999",
"D9999%1kvvvvvkjjdssiyeq-XX  &-:>>>>wiajbnCZZZZZZZZZZZZZVbsq& XXXXXXXXXXXX+499999",
"D99992@=;;;;;-&@X       X;rujbmnnnBVZZZZZZZZZZZZZZZZZZZZZZBhr* XXXXXXXXXX+499999",
"D99992XXXXXXXXXXXXXXX *wgvVZZZZZZZZZZZZZZZZZZZZZZZZZZZZZZZZZVje* XXXXXXXX+499999",
"D99992XXXXXXXXXXXXXX=tjVZZZZZZZZZZZZZZZZZZZZZZZZZZZZZZZZZZZZZZVze*XXXXXXX+499999",
"D99992XXXXXXXXXXXX=icCZZZZZZZZZZZZZZZZZZZZZZZZZZZZZZZZZZZZZZZZZZCzwXXXXXX+499999",
"D99992XXXXXXXXXX@ekCZZZZZZZZZZZZVnvjflZZZZZZCbduufBZZZZZZZZZZZZZZZBu*XXXX&799999",
"D99992XXXXXXXXX=sVZZZZjuVZZZZZCsw>=& tCZZZZZf=X  XeNZZZZZZZvjmZZZZZCf=XXX&799999",
"D99992XXXXXXXX:jZZZZZd-,BZZZZZm< XXX iZZZZZZy XXXXXgZZZZZCs<XqbZZZZZZd*XX&799999",
"D99992XXXXXXX;zZZZZZj- >BZZZZZv-XX&-*sZZZZZCe *yqX iZZZZZs&XX eVZZZZZCyXX&799999",
"D99992XXXXXX&dZZZZZv,X qVZZZZZb--sjbbnZZZZZCw >BfX sZZZZb;XXXX=vZZZZZZb;X&799999",
"D99992XXXXXXyVZZZZCi X:jZZZZZZk*=cVVZZZZZZZVq qmiX-kZZZZu XXXX=vZZZZZZCe $799999",
"D99992XXXXX,vZZZZZv:X*jZZZZZZZz@@>qqdZZZZZZB>X-q& pCZZZB0 :s1X=vZZZZZZZu $799999",
"D99992XXXXXsZZZZZZdX wVZZZZZZZfXXXX qVZZZZZv;XXXX>vZZZZb- uCy <mZZZZZZZu $799999",
"D99992XXXX,mZZZZZZi  uZZZZZZZZdXX   qVZZZZZS*XXXXsZZZZZjXXfCr qVZZZZZZCy $799999",
"D99992XXX uZZZZZZZy  sZZZZZZZZs ;itqgZZZZZZl&XXX sZZZZZdXXqi- iZZZZZZZm,X$799999",
"D99992XXX*kZZZZZZZi  eCZZZZZZZu.eCZVZZZZZZZhXXXXX1nZZZZdXXX X*zZZZZZZZuXX#799999",
"D99992XXXqBZZZZZZZdXX-fVCZZZZZu.qlbkvZZZZZZg &ueXXdZZZZjXXXX rVZZZZZZj=XX$799999",
"D99992XX yZZZZZZZZv;XX-wsCZZZZu @--*>nZZZZZs =vb; eCZZZv;XXX=lZZZZZZk,XXX$799999",
"D99992XX uZZZZZZZZCy XX qVZZZZu XXXX,nZZZZZs ,nZy.>BZZZCuX -dZZZZZZl>XXXX$799999",
"D99992XX uZZZZZZZZZv, XX1BZZZZu XXX qVZZZZZs eCZl1yVZZZZBsyzCZZZZCd<XXXXX$799999",
"D99992XXXqBZZZZZZZZZz1@ eCZZZZs:>>>qgZZZZZZmhMZZZBVZZZZZZZCZZZZZMy&XXXXXX$799999",
"D99992XXX@sCZZZZZZZZZnjfvZZZZZBnnnnBZZZZZZZZZZZZZZZZZZZZZZZZZZns,XXXXXXXX#799999",
"D99992XXXX*sCZZZZZZZZZZZZZZZZZZZZZZZZZZZZZZZZZZZZZZZZZZZZZZCvs1XXXXXXXXXX#899999",
"D99992XXXXX&ymZZZZZZZZZZZZZZZZZZZZZZZZZZZZZZZZZZZZZZZZZCnkse;XXXXXXXXXXXX#899999",
"D99992XXXXXXX>dBZZZZZZZZZZZZZZZZZZZZZZZZZZZZZZZZZZVmkfue>-X XXXXXXXXXXXXX#899999",
"D99992XXXXXXXX&qdvVZZZZZZZZZZZZZZZZZZZZZZZZZZVmkgiw:-@  XXXXXXXXXXXXXXXXX#899999",
"D99992XXXXXXXXXXX<rudkvnVCZZZZZZZZZZZCCBmbzsiw:*X XXXXXXXXXXXXXXXXXXXXXXX#899999",
"D99992XXXXXXXXXXXX  X*=>qeiuuuuuuuuuuyeq,=&X  XXXXXXXXXXXXXXXXXXXXXXXXXXX#899999",
"D99992XXXXXXXXXXXXXXXXXXX              XXXXXXXXXXXXXXXXXXXXXXXXXXXXXXXXXX#899999",
"D99992XXXXXXXXXXXXXXXXXXXXXXXXXXXXXXXXXXXXXXXXXXXXXXXXXXXXXXXXXXXXXXXXXXX#899999",
"D99992XXXXXXXXXXXXXXXXXXXXXXXXXXXXXXXXXXXXXXXXXXXXXXXXXXXXXXXXXXXXXXXXXXX%899999",
"D9999%XXXXXXXXXXXXXXXXXXXXXXXXXXXXXXXXXXXXXXXXXXXXXXXXXXXXXXXXXXXXXXXXXXX%999999",
"D9999%XXXXXXXXXXXXXXXXXXXXXXXXXXXXXXXXXXXXXXX+$##%%%%%%23333333332%%%##$$6999999",
"D9999%XXXXXXXXXXXXXXXXXXXXXXXXXX+&&$###%%%23547888999999999999999999887778999999",
"D9999%XXX&##%%222222222222233655444778888999999999999999999999999999999999999999",
"D99996#%547889999999999999999999999999999999999999999999999999999999999999999999",
"D9999989999999999999999999999999999999999999999999999999999999999999999999999999",
"D9997777777777777777777777777777777777777777777777777777777777777777777777779999",
"D9999999999999999999999999999999999999999999999999999999999999999999999999999999"
};
