/* XPM */
static char *ONDA_MELOD__A[] = {
/* columns rows colors chars-per-pixel */
"80 80 64 1",
"  c #060605",
". c #051710",
"X c #181817",
"o c #1E1D1E",
"O c #06241A",
"+ c #0F3229",
"@ c #292C2A",
"# c #373938",
"$ c #074737",
"% c #0C4C39",
"& c #2E4C3A",
"* c #43423D",
"= c #443D43",
"- c #075945",
"; c #364C4A",
": c #06654A",
"> c #0B724F",
", c #096D55",
"< c #057456",
"1 c #03755B",
"2 c #087659",
"3 c #02795C",
"4 c #037861",
"5 c #127A66",
"6 c #4E514E",
"7 c #57665F",
"8 c #70706E",
"9 c #897C7A",
"0 c #1B8C60",
"q c #659B70",
"w c #49C078",
"e c #85827D",
"r c #95D77C",
"t c #8CE37D",
"y c #837C84",
"u c #70C88F",
"i c #929290",
"p c #A2A09C",
"a c #A9A8A6",
"s c #B3B2AD",
"d c #B9B9B6",
"f c #93DB8B",
"g c #94E58E",
"h c #A7E79B",
"j c #B0D3A7",
"k c #B4E8AB",
"l c #C7DBBB",
"z c #C2C1C1",
"x c #C9C9C7",
"c c #D2D1CF",
"v c #D9D8D6",
"b c #D7ECCF",
"n c #E7EEDB",
"m c #E2E2E0",
"M c #EBEAE7",
"N c #F2EEEC",
"B c #EDF4E6",
"V c #F3F5E6",
"C c #F5F4ED",
"Z c #F9F5ED",
"A c #F4F0F1",
"S c #F6F5F2",
"D c #F9F5F3",
"F c #F7F9F3",
/* pixels */
"311111111344412222<<111<<<<22<<,,,,,12255555542222111144444444444444411111114444",
"111111111133332221111111<1111112221111124554211111111111144444444444111111111444",
"11111111133333311113331111133333311111111333111111111111111111111111113331111144",
"31111111133333333333333333334443333111111333111111111111111111111111113333331134",
"333111113333333333333333223300033221111111111<1111111111111111111111133333333334",
"33333111133333332222222222220002222222222222<<<<22221111111111111111133333333333",
"4333311112222222222,,:::::::,55,,,,,,,,,,,,,,,,,>>222111333333333333333111113333",
"433331122222,::-%%+++++++++OO%-%++++++++++++++++$$$%%-----:::::::::::::::,<11333",
"4333312,::-%++O...Ooo@@##;;##;76@@@@@ooooo@++++++OO..........OOOOOOOOO.OO$,,1133",
"3333122-OO+OOo#&;7ipaaaddzzzzzzdsaaappppppppppiii886;;&##@@oX.XXXXoo@#&&++-,2133",
"3333122-.O688idvvMNSSSSSFFDDDDSSSSSSSSSSSSCCNNNMMMmvvcczdsapi99iiippadxxy%%,,213",
"3333122%.#zmmMADDFFFSSSFFFDDDDDDFFFFFFFFFSSCCCCCCCSSSDDSSAANNMMMNNNAAAAAd&+:,213",
"3333322$ *vDAAADDFFFFFFFFFFFFFFFFFFFFFFFSSCCCCCCCCCCSSSSSSCCCSSSSSSSSAAAd&%,,213",
"3333322$ #vDAADDDFFFFFFFFFFFFFFFFFFFFFCCCCCCCCCVVCCCCSSSSCCCCCCCSSSSSSASx;$:,233",
"3333322$ #vDDDZCSFFFFFFFFFDDDDDDDDDDZZZZZZZZCCCVVCCCCCCCCCCCCCCCCCCZSSSSc7$:2233",
"333333<$ #vDSSCCCFFFFFFFDDDDDDDDDDDZZZZZZZZZZZCCCCCCCCCCZCCCCCCCCCCCZZSSv7$:2233",
"133333<+ #vSSSCCCFFFFFFDDZDDDDDDDDDZZZZZZZZZZZCCCCCCCCCZZZZZZZCCCCCCZZCSv7$:2133",
"133333<+ #vSSSSSSFFFFDDDSSSDDDDDDDDDZZZZZCZZZCCCCCCCCCCZZZZZZZZZZZZCCCCCm8+:2333",
"113333<+ #vFSDDDFFFFFSSSSDDDDSSSDDDDDZZCCCCCCCCMcvCCCCCCCCCZZZZZZZZZZZCCMe+-<333",
"113333<O #vFFDDDDFFFFSSCmcvvMSSSSSDDSZCCCCCCCCCd8pMCCCCCCCCZZZZZZZZZZZCCMi+%<333",
"113333<O #cFFFDDDFFFFSNd8666edMCCSSSCCCCCCCCCCMe#iMCCCCCCCCCZZZZZZZZZZCNMi%%<333",
"113333<O #vFFFDDDFFFFCd6     #pMCCCCCCCSSCCCCCv6#aCSCCCCCCCCZZZZZZZZZZCCMi%%<333",
"113333<O =vFFFDDDFFFSNe.      #zCSCCCCSSSSCCCMp@6xSSSmszNCCCZZZZZZZZZZCCMi%-<333",
"111333<O 6vFFFDDDFSSSNe  o6@  @pxxMCCSSSSSSSMp#X8MSSMi#6aMCCZZZZZZZZZZCCMi%-<333",
"111333,O 7mFSFDDDDSSSv8  7xs* #e76zSMMNSSSSMa6.XpNSSs@  *zCCZZZZZZZZZCCCMi$:<333",
"111333:O 8MSSDDDDDSSCa@ XaNNpX#8*Xidi8dMASMai7XXaNSc8X  @sCCZZZZZZZZZCCCMq+:<333",
"111333:O.yMSSDDDDFFSCiX 6vCMeX7p6 @@XX7vMcaii7XXaNvi7#  #dCCZZZZZZZZZCCCM8+:<333",
"111333:OXiMFFDDDDFFFSi. 8MMpoopx6     6vv8688# XaMd7*@  #dCCZZZZZZZZZCCCm8+:<333",
"111333:OXiNFFDDDDFFFSiX 8va# *xc6  X  @dd@ oX  XaMd@ @#XosCCZZZZZZZZZCCCc7+:<333",
"113333:OXiNFFDDDDDFFSd# #6o #aMx6 68o Xia@  @@ .8ms@Xed6oiNCZZZZZZZZCCCCx6$:<333",
"113333:OoiAFFFDDDDFSSMp*X  #sNCc86sc7 oiz8#7ap# 6cx8ivNd8iMCZZZZZZZZCCCCs*%><333",
"113333:OopASFFDDDFFSSSMs878sNSCNcxMNs68xMvzvNMp*8vMvMCNMccMCZZZZZZZCCCCNp#%>2333",
"113333:OopASSSDDDFSSSSSCmvmNCCCCCCCCMcvVCCCCCNMxcMNCCCNNCCCCCZZZCCVVVCCMe@%>2333",
"133333:OopASSSCCCCCCCCCCCCCCCCCCCCCCCCCCCCCCNzscMCCCCCAAACCCCCCVVVVVVVCM9@$,2333",
"133334:O@sBBBBBBBBBBBBBBBBBVVCCCCCCCCCCCCCCVd6o8vCCCSAAAAZCCCVVVBBBBBVCm8+-,2113",
"133344-O;xBBBnbbblbbbbbbnnnBBBVVVVVCCCCCCCCv7  6vCCCSAAADZCCVVBnbbnnBBBv7$:,<111",
"113311-.;xmbbkkkkhhkkkkklbbbbnnnBVVVCCCCCCCc6 .8MCCCCSSZCCVVBnbljjkbbBBv7%:,<<11",
"11331<+.6jkhggghhhhhhkkkkllbbbnnnnBVCCCCCCCMp*6dMBNCCCCCVVBnnbkhhffhhbnl7$:><<<<",
"111<>>%&qfhffffghhhhhhkkkllbbbbnnnnVVCCCCCVNvpacvmBBBBBBBnnblkhhffffffjjq%:>>><<",
"411<>0qrrrrtffgggghhhhkkkklbbbnnnnVVCCCCCCNMcdzzsxMBBnnnnbbkkhhgggfffrrrqq00>>>>",
"1110wufrrrrttgggggghhhhkkkbbbnnBBVVCCCCCCCNmdddsacnnbbbblkkkhhhggggffrrrffuw0>>>",
"110ugffrrrrttgggggghhhhkklbnnBVVVVCZZZZZCCNvsddszmnblkkkkkkhhhhggggffrrffffuw0>>",
",,0ugfffrrrttgggggghhhkkkbnBBVVCCZZZZZZZCCNcsddscMnblkkkkkkhhhhgggffffffffuuw5>>",
"222wuuffrrrffggggghhhkklbnBVVCCZZZZZZZZZCCMsiiiamBBnnbblkkkhhhhgggffffffrw00>>><",
"<<2200qffffffgggghhhkkbnnBVCCDDDDDDZZZZCCMz878icBBBBBnnnbbbllkkkkkhhkkkfq>>>>><<",
"<<<<<:%6pjjffgggghhkkbnBBVCCDDDDDDDZZCCCMsi88ezMNVVVVBBBBBnnnnnnnbbbbbbj;$:><<<<",
"<<<<<:OoibbkhggfhhklbnBVVCCZDDDDDDDZZCCNzeeiaxMNNCCVVVVVVVVVVVVVVBBBBBBz;$:<<<11",
"33332:OopMBnbkhhhjbnBVVVCCZDDDDDDDDZCCCc98eizMNNVVCCVVVVVVVVVVCVVVVVVCCz;$,<1111",
"33333-O@aNBBBnbllbnBVVCCZZZZZZZZZZZCCCMp8epsmCVNNCCCCCCCCCCCCZZZZZZZCCCx6$,11144",
"44433-O@sCCBBBBnnBVVVCZZZZZZZZCCCCCCCCvpsvmMCCCCCCCVMVCCCCCCCZZZZZZZZCCx6$,11444",
"44433-O@sCCBBBBBBVVVCZZZZZZZZCCVnddmCCMvMCCCCCCCCCMspmCNxaxCCZZZZZZZZCCz6$,11444",
"44443-O#dCCCBvdxMVVCCZZZZZZZZCCVa#*dCCCCCCCCCCCCCCd68vMs66aNCCSZCCCCCCCz6$,11144",
"44441-.#dSSSme#7cCCvsdvCZDZZCCCm7 osCCCCCCCCCCCCCM8#pMx7*imCCCCCCCCCCCCd;$,<1144",
"44441%.#zSSFz# @dCMa#@8mSCSCCCCd# 6zCSSSSCCCCCCCCd#6cMxpsvMNCCNmMNCCCCCd&$,11114",
"44431%.*xDSFdo XiMm8  #xCCMMNCNpX 8mCCvcvNCCCCCCc8X7vNMmzpzNCNd8exNCCCCd&$,11114",
"44431$.;xFFFd@  6cd#  @dNMa8pvv8 XaMMa7*8azmNCCc8X 7vNMs*@iMNx6 .8vCCSCs&%<11111",
"44411$.;xFFFd@  X88@  @aMa#X@8a6 #xMa#  .o#pMNci6  8vMd6 XiMMi@  *cSSSCa&%<11111",
"44311$.;cDDFz@   X#6@ @ax6 Xo6i* 6xMiXX    8Mci87X.iMx6  osMs86X 6cSSSCa&%,11111",
"33311$ 6cDDDx6oX  6i6 @iiX.o6pd6 7vv8686X @ami886 XiMaX  @dc86#  6cSSSNp%%<<1111",
"33312$ 6cDSDvq77*7sp@ #q6  @ivx6 7vv7#y8@6ivx866X XiMx6  #dd6X.. 6cSSSNp%%<11111",
"33312$ 6cDSDmq8azcMpX.8p*  7cvc8X7vc7X@@6dMNd6XXX  8vNd# #ds@ #7@#xSSSMi+-<11111",
"33312$ 6cDSDv87zCCMiX#xmi@.7i8dd#@px7  #aNSCx6X67X 6cSMa67xd66svi6aNSSMi+-213111",
"3331<$ 6cDZSmq8xCCM8#iMNMp6*67xMp68di#*aMSSCvpixz7X6cSSMxzmvdxNCcpdNCSMe+-233331",
"3332<$ 6cDCCMzdmSSMsavCNCMxaazMCMdsvvdxNSCCCCMMCCdeaMSSSSCCNCCCCCMMCCCM8+-233333",
"3332<$ 6cZCCCBBCSSCNCCCCCCCCCCCCCCNNCCCZZZCCCZZCCNMNCCSSCCCCCCCCCCCCCSm8+-233333",
"1312<$ 6cZCCCCCCDDZZZZZCCCZZZZZCCCCCCCCZZZZZZZZZZZZCCZZZCCCCCCCCCCCCCSm7+:233334",
"1112<$ 6cDCCCCCCDZZZZZZZZZZZZZZZZZCCCZZZZZZZZZZZZZZZZZZZZCCCCCCCCZCCCSv7+:223334",
"1312<$ 6vDSCCCCCDZZZZZZZZZZZZZZZZZZZZZZZZZZZZZZZZZZZZCCCCCCCCCCCZCCCCSc7+:223333",
"3332<$ 6vDSSCCSSDZZZZZDZZZZZZZZZZZZZZZZZZZZZZZZZZZZZZCCCCCCCCCCCCCCCCSc7+:233333",
"3332<$.6vSSSSSSSDDDDDDFDDDDZZZZDDDZZDDDDZZZZZZSDDDDDSSSSSSCCCCCSSSCSSFx;+,233333",
"3312,$.;vSSSCCCCNMMMvccccccccccccccvvvvmMMMMMMMMMMNNNNCCCSSSSSSSFFFFSFx;+,233333",
"3112,+.@iaaappiiii886;#############=;;6677788888yiiiiippaaasdxxxcvvmmma&$,133333",
"111,,$.O+@@++++++++O....................OOOOOOO+++++oooo@@@@#666667777;+-,133333",
"111<,:$++++++++$$$$%%%-------------%%%%%%$$$$$$$$$$+++++++++OOOOOOOOOOO+:2133331",
"111<<<,,:,,,,<<<<<<<<<22<<<<2222<<<<<<<<<<<<<<<<<<<<<<<<<<<<::::-%%%%%%-,2133311",
"111<<<<<<<<111111<<<<<<<<<<<<<<<<<<<<<<<111111<<<<<<<<333333<333333<<<,,<1133111",
"<111111111111111111<11111111111111111111111111111<<1133333333331111<<<<<11331111",
"<<11111111111111111111111111111111111111111111111111111111111111111<<11113331111",
"11111111111111111111111111111111111111111111111111111111112222222222<11133331111",
"11111111111111111111111111111111111111111111111111111111222222,,,,,2211333331111"
};
