/* XPM */
static char *dummy[]={
"80 80 8 1",
". c None",
"d c #32379d",
"e c #3d41a3",
"c c #5255af",
"f c #5dae68",
"b c #6a6cc7",
"a c #9da4ca",
"# c #f3dd27",
"................................................................................",
"................................................................................",
"................................................................................",
"................................................................................",
"................................................................................",
"................................................................................",
"................................................................................",
"................................................................................",
"................................................................................",
"................................................................................",
"................................................................................",
"................................................................................",
"................................................................................",
"................................................................................",
"................................................................................",
"............................#a..................................................",
".......................#######.abaa.............................................",
".....................#########..bbbba...........................................",
"...................############abccbcba.........................................",
"..................#############.bbbcbbbb........................................",
"................ba.###########a.bbbbbbbbba......................................",
"...............cdb.###########..bbbbbbcbbba.....................................",
"..............bddc.###########.abbbbbbbbbcb.....................................",
".............bdedea##########..bbababbbbbcbb....................................",
"............aeedddb.#######...baabbabbbbbbbbb...................................",
"............cdddddc.#######..ababaababbabbbbca..................................",
"...........addddddea##a#...aabababaaaaabbbbbcba.................................",
"...........cddddddea....aabbbbaaaaabbbabbbbbbca.................................",
"..........aedddddeebaaabbbbabaabaaaaaabbbbbbbcb.................................",
"..........bddedddeecbbbcbbbbabbaabaaabaabbbbbcca................................",
"..........cddddddedecccbbbbabaaaabbaaabbbbbcbeb.................................",
".........aeddddddeeeeccbbbbbabbaaaaabababbbbbca.................................",
".........addddddddeeecccbbbbbabaababababbbbbcba.................................",
".........bddddddddeeeecbbbbabbaabaabbabbbbbbba.#................................",
".........bddddddddeeeccbbbbbbbbbaaaabaabbbbcb.aa................................",
".........adddddddddeeecccbbbbbbbbbbbbbbbbcbba.ff................................",
".........bdddddddddeececcbcbbbbbbbbbbbbbbbca..ff................................",
".........addddddddddeececbcbbbbbbbbbbbbbcba.ffff................................",
".........adddddddddedeceeccbbcbbbbbbbbbbfa..ffff................................",
".........aedddddddddeddececcbcbcbbcbbbbba.afffff................................",
"..........cddddddddddeeececcccbbbbbcccba.afffffa................................",
"..........bdddddddddddedeeecccccbcbcca..affffff#................................",
"..........acdddddddddddedeeeeecccbcbf.fffffffff.................................",
"...........bddddddddddddedeeeceecbaa..ffffffffa.................................",
"...........adddddddddddddddeddefa.aa#fffffffff..................................",
"............bdddddddddddddecba...affffffffffff..................................",
"............abdddddddddedba...fffffffffffffff...................................",
".............aedddddddddda.affffffffffffffff....................................",
"..............addddddddddc.ffffffffffffffff.....................................",
"...............beeddddddddaaffffffffffffff......................................",
"................aedddddddda.fffffffffffff.......................................",
".................acdddddddb.ffffffffffff#.......................................",
"...................aceeeddc.afffffffff..........................................",
".....................abcedea.fffffffa...........................................",
".......................aaaba.ffaa#a.............................................",
"................................................................................",
"...............a.a....#.a.........................a.a.............a.............",
".......aedeeb.cedddc.aeecdeabba.ada.ea.....aec..aceecea......aedeeeeda..bb......",
".......cdbaecaecaacdaadebbdbcd..aeaadb....aede..adeaadb.......abdebaee.adc......",
".......cdecdfada..adaaddcedacda.aea.db....adcdc.addeddc.........db..adccd.......",
".......bdbbaaadb..bdaadefbb.cea.ada.db.a.aedddeaaeeede.........aef...bddb.......",
".......cc.....eecced.adb....bdccecaaddeccccaaaecaca.bca.........eb...adc........",
"........a......aaaaa..a......a.aaa...aaaaaa...a..aa.aa..........a.....a.........",
"................................................................................",
"................................................................................",
"................................................................................",
"................................................................................",
"................................................................................",
"................................................................................",
"................................................................................",
"................................................................................",
"................................................................................",
"................................................................................",
"................................................................................",
"................................................................................",
"................................................................................",
"................................................................................",
"................................................................................",
"................................................................................",
"................................................................................"};
