/* XPM */
static char *Popular_TV[] = {
/* columns rows colors chars-per-pixel */
"80 80 64 1",
"F c None",
"  c #FCA240",
". c #FCA649",
"X c #FCA84B",
"o c #FCAB52",
"O c #FCAF5A",
"+ c #FCB05D",
"@ c #FDB66A",
"# c #FDB566",
"$ c #FDBB73",
"% c #FDBD79",
"& c #FDC07E",
"* c #568FFA",
"= c #5790FA",
"- c #5B92FA",
"; c #6196FA",
": c #6499FA",
"> c #6B9CFB",
", c #6FA0FB",
"< c #73A2FB",
"1 c #79A6FB",
"2 c #7DA9FB",
"3 c #FDC588",
"4 c #FDCA93",
"5 c #FDCD99",
"6 c #FDD09F",
"7 c #FED2A2",
"8 c #FED6AB",
"9 c #FFD8AD",
"0 c #FEDAB4",
"q c #FEDEBB",
"w c #82ACFB",
"e c #8BB2FB",
"r c #87B0FB",
"t c #90B5FC",
"y c #94B8FC",
"u c #9BBDFC",
"i c #9FC0FC",
"p c #A3C1FC",
"a c #A9C6FC",
"s c #ADC9FD",
"d c #B2CCFD",
"f c #BBD2FD",
"g c #FEE2C3",
"h c #FEE7CD",
"j c #FEEDDA",
"k c #FEEBD6",
"l c #FFF0DE",
"z c #C1D6FD",
"x c #C5D8FD",
"c c #CADCFD",
"v c #D5E3FE",
"b c #D9E6FE",
"n c #DDE8FE",
"m c #FFF2E3",
"M c #FEF5EB",
"N c #E3EDFE",
"B c #E7F0FF",
"V c #EBF2FE",
"C c #FEF9F4",
"Z c #F2F6FE",
"A c #F5F8FE",
"S c #FEFEFE",
"D c #FAF6F3",
/* pixels */
"FSSSSSSSSSSSSSSSSSSSSSSSSSSSSSSSSSSSSSSSSSSSSSSSSSSSSSSSSSSSSSSSSSSSSSSSSSSSSSSS",
"FSSSSSSSSSSSSSSSSSSSSSSSSSSSSSSSSSSSSSSSSSSSSSSSSSSSSSSSSSSSSSSSSSSSSSSSSSSSSSSS",
"FSSSSSSSSSSSSSSSSSSSSSSSSSSSSSSSSSSSSSSSSSSSSSSSSSSSSSSSSSSSSSSSSSSSSSSSSSSSSSSS",
"FSSSSSSSSSSSSSSSSSSSSSSSSSSSSSSSSSSSSSSSSSSSSSSSSSSSSSSSSSSSSSSSSSSSSSSSSSSSSSSS",
"FSSSSSSSSSSSSSSSSSSSSSSSSSSSSSSSSSSSSSSSSSSSSSSSSSSSSSSSSSSSSSSSSSSSSSSSSSSSSSSS",
"FSSSSSSSSSSSSSSSSSSSSSSSSSSSSSSSSSSSSSSSSSSSSSSSSSSSSSSSSSSSSSSSSSSSSSSSSSSSSSSS",
"FSSSSSSSSSSSSSSSSSSSSSSSSSSSSSSSSSSSSSSSSSSSSSSSSSSSSSSSSSSSSSSSSSSSSSSSSSSSSSSS",
"FSSSSSSSSSSSSSSSSSSSSSSSSSSSSSSSSSSSSSSSSSSSSSSSSSSSSSSSSSSSSSSSSSSSSSSSSSSSSSSS",
"FSSSSSSSSSSSSSSSSSSSSSSSSSSSSSSSSSSSSSSSSSSSSSSSSSSSSSSSSSSSSSSSSSSSSSSSSSSSSSSS",
"FSSSSSSSSSSSSSMkq0mAbVSSSSSSSSSSSSSSSSSSSSSSSSSSSSSSSSSSSSSSSSSSSSSSSSSSSSSSSSSS",
"FSSSSSSSSSSSj7$OX.7Zw2dNSSSSSSSSSSSSSSSSSSSSSSSSSSSSSSSSSSSSSSSSSSSSSSSSSSSSSSSS",
"FSSSSSSSSSM6+     $Dt*=<fASSSSSSSSSSSSSSSSSSSSSSSSSSSSSSSSSSSSSSSSSSSSSSSSSSSSSS",
"FSSSSSSSSm%.      +ma***-uVSSSSSSSSSSSSSSSSSSSSSSSSSSSSSSSSSSSSSSSSSSSSSSSSSSSSS",
"FSSSSSSSS8        ojd****=rNSSSSSSSSSSSSSSSSSSSSSSSSSSSSSSSSSSSSSSSSSSSSSSSSSSSS",
"FSSSSSSvBq        ojd******eVSSSSSSSSSSSSSSSSSSSSSSSSSSSSSSSSSSSSSSSSSSSSSSSSSSS",
"FSSSSSN<fjo       #Ms******=uASSSSSSSSSSSSSSSSSSSSSSSSSSSSSSSSSSSSSSSSSSSSSSSSSS",
"FSSSSAe*uM@       3Ct*******-zSSSSSSSSSSSSSSSSSSSSSSSSSSSSSSSSSSSSSSSSSSSSSSSSSS",
"FSSSSf-*wA3      XgB<********<NSSSSSSSSSSSSSSSSSSSSSSSSSSSSSSSSSSSSSSSSSSSSSSSSS",
"FSSSV1**>N9      4Cd=*********pSSSSSSSSSSSSSSSSSSSSSSSSSSSSSSSSSSSSSSSSSSSSSSSSS",
"FSSSd=**-ch.   .4Cn<**********>NSSSSSSSSSSSSSSSSSSSSSSSSSSSSSSSSSSSSSSSSSSSSSSSS",
"FSSZ2****dmO .@0CBr************aSSSSSSSSSSSSSSSSSSSSSSSSSSSSSSSSSSSSSSSSSSSSSSSS",
"FSSc-****tD&@8mSbw=************1VSSSSSSSSSSSSSSSSSSSSSSSSSSSSSSSSSSSSSSSSSSSSSSS",
"FSSu*****1VmMSVd>**************-cSSSSSSSSSSSSSSSSSSSSSSSSSSSSSSSSSSSSSSSSSSSSSSS",
"FSV<*****:nSVf2-****************pSSSSSSSSSSSSSSSSSSSSSSSSSSSSSSSSSSSSSSSSSSSSSSS",
"FSv-*****-as1-******************2ASSSSSSSSSSSSSSSSSSSSSSSSSSSSSSSSSSSSSSSSSSSSSS",
"FSd*******-=********************1ZSSSSSSSSSSSSSSSSSSSSSSSSSSSSSSSSSSSSSSSSSSSSSS",
"FSy*****************************tSSSSSSSSSSSSSSSSSSSSSSSSSSSSSSSSSSSSSSSSSSSSSSS",
"FAw****************************=fSSSSSSSSSSSSSSSSSSSSSSSSSSSSSSSSSSSSSSSSSSSSSSS",
"FV<****************************>NSSSSSSSSSSSSSSSSSSSSSSSSSSSSSSSSSSSSSSSSSSSSSSS",
"FN>****************************tDmSSSSSSSSSSSSSSSSSSSSSSSSSSSSSSSSSSSSSSSSSSSSSS",
"Fb:***************************-cj6CSSSSSSSSSSSSSSSSSSSSSSSSSSSSSSSSSSSSSSSSSSSSS",
"Fv:***************************rA7&CSSSSSSSSSSSSSSSSSSSSSSSSSSSSSSSSSSSSSSSSSSSSS",
"Fv:**************************;cm+&CSSSSSSSSSSSSSSSSSSSSSSSSSSSSSSSSSSSSSSSSSSSSS",
"Fb:**************************yA7 3SSSSSSSSSSSSSSSSSSSSSSSSSSSSSSSSSSSSSSSSSSSSSS",
"FN>*************************<Nl+ 3SSSSSSSSSSSSSSSSSSSSSSSSSSSSSSSSSSSSSSSSSSSSSS",
"FB<************************-fC4  5SSSSSSSSSSSSSSSSSSSSSSSSSSSSSSSSSSSSSSSSSSSSSS",
"FZ2***********************=uAqX  9SSSSSSSSSSSSSSSSSSSSSSSSSSSSSSSSSSSSSSSSSSSSSS",
"FSt***********************wVj#  .gSSSSSSSSSSSSSSSSSSSSSSSSSSSSSSSSSSSSSSSSSSSSSS",
"FSa**********************2NM&   ojSSSSSSSSSSSSSSSSSSSSSSSSSSSSSSSSSSSSSSSSSSSSSS",
"FSc-*******************=wnC4    @CSSSSSSSSSSSSSSSSSSSSSSSSSSSSSSSSSSSSSSSSSSSSSS",
"FSN>******************-uBC7.    4SSSSSSSSSSSSSSSSSSSSSSSSSSSSSSSSSSSSSSSSSSSSSSS",
"FSAe****************=1zAM5.    .gSSSSSSSSSSSSSSSSSSSSSSSSSSSSSSSSSSSSSSSSSSSSSSS",
"FSSf=*************=>aBSk&.     #MSSSSSSSSSSSSSSSSSSSSSSSSSSSSSSSSSSSSSSSSSSSSSSS",
"FSSN>***********-1anSM8+       5SSSSSSSSSSSSSSSSSSSSSSSSSSSSSSSSSSSSSSSSSSSSSSSS",
"FSSSp*********-rfBSCg$.       okSSSSSSSSSSSSSSSSSSSSSSSSSSSSSSSSSSSSSSSSSSSSSSSS",
"FSSSn>********<NSM0%X         4SSSSSSSSSSSSSSSSSSSSSSSSSSSSSSSSSSSSSSSSSSSSSSSSS",
"FSSSSa=*******>Nl$.          +jSSSSSSSSSSSSSSSSSSSSSSSSSSSSSSSSSSSSSSSSSSSSSSSSS",
"FSSSSV1*******-chX          .8SSSSSSSSSSSSSSSSSSSSSSSSSSSSSSSSSSSSSSSSSSSSSSSSSS",
"FSSSSSc:*******am+          3CSSSSSSSSSSSSSSSSSSSSSSSSSSSSSSSSSSSSSSSSSSSSSSSSSS",
"FSSSSSSd-******eD%         @mSSSSSSSSSSSSSSSSSSSSSSSSSSSSSSSSSSSSSSSSSSSSSSSSSSS",
"FSSSSSSAa-*****<V5        #kSSSSSSSSSSSSSSSSSSSSSSSSSSSSSSSSSSSSSSSSSSSSSSSSSSSS",
"FSSSSSSSAd:****;bq       $kSSSSSSSSSSSSSSSSSSSSSSSSSSSSSSSSSSSSSSSSSSSSSSSSSSSSS",
"FSSSSSSSSSc1=**=fjo    o5MSSSSSSSSSSSSSSSSSSSSSSSSSSSSSSSSSSSSSSSSSSSSSSSSSSSSSS",
"FSSSSSSSSSSNs1;*iM# .O3hCSSSSSSSSSSSSSSSSSSSSSSSSSSSSSSSSSSSSSSSSSSSSSSSSSSSSSSS",
"FSSSSSSSSSSSSVcafS040jCSSSSSSSSSSSSSSSSSSSSSSSSSSSSSSSSSSSSSSSSSSSSSSSSSSSSSSSSS",
"FSSSSSSSSSSSSSSSSSSSSSSSSSSSSSSSSSSSSSSSSSSSSSSSSSSSSSSSSSSSSSSSSSSSSSSSSSSSSSSS",
"FSSSSSSSSSSSSSSSSSSSSSSSSSSSSSSSSSSSSSSSSSSSSSSSSSSSSSSSSSSSSSSSSSSSSSSSSSSSSSSS",
"FSSSSSSSSSSSSSSSSSSSSSSSSSSSSSSSSSSSSSSSSSSSSSSSSSSSSSSSSSSSSSSSSSSSSSSSSSSSSSSS",
"FSSSSSSSSSSSSSSSSSSSSSSSSSSSSSSSSSSSSSSSSSSSSSSSSSSSSSSSSSSSSSSSSSSSSSSSSSSSSSSS",
"FSSSSSSSSSSSSSSSSSSSSSSSSSSSSSSSSSSSSSSSSSSSSSSSSSSSSSSSSSSSSSSSSSSSSSSSSSSSSSSS",
"FSSSSSSSSSSSSSSSSSSSSSSSSSSSSSSSSSSSSSSSSSSSSSSSSSSSSSSSSSSSSSSSSSSSSSSSSSSSSSSS",
"FSSSSSSSSSSSSSSSSSSSSSSSSSSSSSSSSSSSSSSSSSSSSSSSSSSSSSSSSSSSSSSAAAAAASSASSSSSAAS",
"FAZZZZZSSSAZZZZASSSZZZZZASSZSSSSZSSSZSSSSSSSSAASSSSAZZZZASSSSSzeeeeeedcyvSSSVuzS",
"Fzw222wfSvr2222ebSVy2w2wuVntNSSBevSNevSSSSSSVesSSSSs2222wvSSSSd>>-->,uc;ySSSf:cS",
"Fp-rtt>wAp;eeer-aSN><ttw;vc:vSSn:zSn>xSSSSSSf=>NSSAr:eye-aSSSSABNw<nBZAe>NSArwZS",
"Fa<NSAu1Zy2VAAV1uSB,dSSb>cc:vSSn>xSn>cSSSSSAww>dSSAeeASV1uSSSSSSSe2ASSSz-dSb:dSS",
"Fa:dxz22Zu2ASSZ1uSN>yxxa:cc:vSSn>xSn>cSSSSSv<vu2ZSAe2cvx>pSSSSSSSe1ASSSV<2Za>NSS",
"Fa=;::;pSu2ASSZ1uSN>-::;1Nc:vSSn>xSn>cSSSSSu1nd;cSAe=::;;fSSSSSSSe1ASSSSa;f1ySSS",
"Fa:dcccVSu2ASSZ1uSN>ycccNSc:vSSn>xSn>cSSSSN<-<>*ySAe<d<;dASSSSSSSe1ASSSSn>>:cSSS",
"Fp<VSSSSSu>zccz>pSN>fSSSSSc;accs;xSb:icccNf:yuuw>nSweSc:pASSSSSSAr1ZSSSSSy*2ZSSS",
"Fa<VSSSSSd-;;;;-fSB<fSSSSSN<-;;->bSn>-;;;uruASSb>dAetSSa:dSSSSSSAewASSSSSc;dSSSS",
"FbfASSSSSVfdsssfVSAfNSSSSSScsdddxASZfddddcfnSSSAzcSccSSZfzASSSSSSvcSSSSSSAzBSSSS",
"FSSSSSSSSSSSSSSSSSSSSSSSSSSSSSSSSSSSSSSSSSSSSSSSSSSSSSSSSSSSSSSSSSSSSSSSSSSSSSSS",
"FSSSSSSSSSSSSSSSSSSSSSSSSSSSSSSSSSSSSSSSSSSSSSSSSSSSSSSSSSSSSSSSSSSSSSSSSSSSSSSS",
"FSSSSSSSSSSSSSSSSSSSSSSSSSSSSSSSSSSSSSSSSSSSSSSSSSSSSSSSSSSSSSSSSSSSSSSSSSSSSSSS",
"FSSSSSSSSSSSSSSSSSSSSSSSSSSSSSSSSSSSSSSSSSSSSSSSSSSSSSSSSSSSSSSSSSSSSSSSSSSSSSSS",
"FSSSSSSSSSSSSSSSSSSSSSSSSSSSSSSSSSSSSSSSSSSSSSSSSSSSSSSSSSSSSSSSSSSSSSSSSSSSSSSS",
"FSSSSSSSSSSSSSSSSSSSSSSSSSSSSSSSSSSSSSSSSSSSSSSSSSSSSSSSSSSSSSSSSSSSSSSSSSSSSSSS",
"FSSSSSSSSSSSSSSSSSSSSSSSSSSSSSSSSSSSSSSSSSSSSSSSSSSSSSSSSSSSSSSSSSSSSSSSSSSSSSSS",
"FSSSSSSSSSSSSSSSSSSSSSSSSSSSSSSSSSSSSSSSSSSSSSSSSSSSSSSSSSSSSSSSSSSSSSSSSSSSSSSS"
};
