/* XPM */
static char *Punto_Radio[] = {
/* columns rows colors chars-per-pixel */
"80 80 57 1",
"B c None",
"  c #000000",
". c #0B0401",
"X c #0B0B0B",
"o c #150801",
"O c #1D0A01",
"+ c #121212",
"@ c #1C1C1C",
"# c #280F01",
"$ c #3B1501",
"% c #232323",
"& c #2B2B2B",
"* c #333333",
"= c #3A3A3A",
"- c #441802",
"; c #4B1B02",
": c #511D02",
"> c #622302",
", c #782B02",
"< c #444444",
"1 c #4A4A4A",
"2 c #535353",
"3 c #5B5B5B",
"4 c #636363",
"5 c #6C6C6C",
"6 c #717171",
"7 c #7D7D7D",
"8 c #842F02",
"9 c #903302",
"0 c #9A3702",
"q c #A23A02",
"w c #A83C02",
"e c #B23F02",
"r c #B54002",
"t c #B84102",
"y c #C34503",
"u c #CE4903",
"i c #D34B03",
"p c #DB4E03",
"a c #E75203",
"s c #ED5403",
"d c #F45603",
"f c #FE5A03",
"g c #838383",
"h c #8C8C8C",
"j c #929292",
"k c #9B9B9B",
"l c #A3A3A3",
"z c #ABABAB",
"x c #B3B3B3",
"c c #BABABA",
"v c #C3C3C3",
"b c #CCCCCC",
"n c #D4D4D4",
"m c #DADADA",
"M c #E2E2E2",
"N c #EEEEEE",
/* pixels */
"B                                                                               ",
"B                                                                               ",
"B                                                                               ",
"B                                                                               ",
"B                                                                               ",
"B                                                                               ",
"B                                                                               ",
"B                                                                               ",
"B                                                                               ",
"B                                                                               ",
"B                                                                               ",
"B                                                                               ",
"B                                                                               ",
"B                                                                               ",
"B                                                                               ",
"B                                                                               ",
"B                                                                               ",
"B                                                                               ",
"B                                                                               ",
"B                                                                               ",
"B                                                                               ",
"B                                                                               ",
"B                                                                               ",
"B                                                                               ",
"B                                                                               ",
"B                                                                               ",
"B                                                                               ",
"B                                                                               ",
"B                                                                               ",
"B                                                                               ",
"B                                                                               ",
"B                                                                               ",
"B                                                                               ",
"B                                                                               ",
"B                                       .o.                                     ",
"B .@@@X  +.  +X.+   +X@@@@@X  %*+      :tie-    +***%.   %+  +***+  +@  X<1+    ",
"B *bnnc*Xk@  53&x%  h=lnmnn4 4bnx&    >sfffa;   1mbbn4  +c5  1mnmc& 37 +lnbz@   ",
"B =c1<jl@z%  g4*N6 .k=*<x7<@*v2%hlX  #pfffffuO  2k@@3c+ *vk. 2l&*kk 4g 6z%@lg   ",
"B =l. %x&z%  74*nc+ k=  j1  g7  +x=  ,fffffff>  2j  +x& 4hl% 2j  %c@3gXx=  &c@  ",
"B =l. %x&z%  74*lz3 k=  k1 Xl=   h5 .rfffffffq  2j  *c@ h2j1 2j  .l=3g%x+  Xz=  ",
"B =x=*hl@z%  74*k3zXk=  k1 +x&   67 oifffffffy. 2nklvg +l%4g 2j   k13g*zX   l1  ",
"B =Mmnv=+z%  74*k+x<k=  k1 +x%   5g oifffffffy. 2bhblX *x=4x.2j   k13g*zX   l1  ",
"B =z*&+ +z%  g4*k 5kk=  k1 Xz*   g6 .yfffffffr. 2j *c& 4Mbbn%1j  Xz=3g%x+  Xz*  ",
"B =l.   Xz*  j2*k @cb=  k1  h5  Xz1  0fffffff8  2j  jh j4@@l31j  &c@3gXz<  *x+  ",
"B =l.    jg+*c&*k. gN*  k1  <c*X4x+  ;dfffffs$  2j  =v*z&  5h2z*<lj 4h 5x&%zg   ",
"B =k.    =bbmh *k. &n*  j1  .gnvb1   .qfffff9   1g  XkhkX  *l2mnnz% 27 +jnnl@   ",
"B +&      &41X +&  .*+  &+   X<4&     Owdfd0o   X@   @%@   .%+&&%X  ++  X==X    ",
"B                                      .;>-.                                    ",
"B                                                                               ",
"B                                                                               ",
"B                                                                               ",
"B                                                                               ",
"B                                                                               ",
"B                                                                               ",
"B                                                                               ",
"B                                                                               ",
"B                                                                               ",
"B                                                                               ",
"B                                                                               ",
"B                                                                               ",
"B                                                                               ",
"B                                                                               ",
"B                                                                               ",
"B                                                                               ",
"B                                                                               ",
"B                                                                               ",
"B                                                                               ",
"B                                                                               ",
"B                                                                               ",
"B                                                                               ",
"B                                                                               ",
"B                                                                               ",
"B                                                                               ",
"B                                                                               ",
"B                                                                               ",
"B                                                                               ",
"B                                                                               ",
"B                                                                               ",
"B                                                                               ",
"B                                                                               "
};
