/* XPM */
static char *RAC_[] = {
/* columns rows colors chars-per-pixel */
"80 80 60 1",
"  c #000000",
". c #0C0202",
"X c #0E0E0E",
"o c #130304",
"O c #1B0304",
"+ c #141414",
"@ c #1B1B1B",
"# c #260304",
"$ c #2A0305",
"% c #330405",
"& c #232323",
"* c #2C2C2C",
"= c #343434",
"- c #3B3B3B",
"; c #400505",
": c #480303",
"> c #5D0406",
", c #640405",
"< c #6C090A",
"1 c #7C0604",
"2 c #730608",
"3 c #7F0608",
"4 c #444444",
"5 c #494949",
"6 c #535353",
"7 c #5C5C5C",
"8 c #646464",
"9 c #6C6C6C",
"0 c #747474",
"q c #7D7D7D",
"w c #830606",
"e c #880609",
"r c #9C0606",
"t c #A50505",
"y c #A70608",
"u c #BE080B",
"i c #C20506",
"p c #CC0605",
"a c #D00505",
"s c #DF0404",
"d c #E50506",
"f c #E20708",
"g c #F40304",
"h c #FD0000",
"j c #858585",
"k c #8C8C8C",
"l c #939393",
"z c #9B9B9B",
"x c #A4A4A4",
"c c #ADADAD",
"v c #B5B5B5",
"b c #BCBCBC",
"n c #C4C4C4",
"m c #CCCCCC",
"M c #D3D3D3",
"N c #DBDBDB",
"B c #E3E3E3",
"V c #EDEDED",
"C c #F5F5F5",
"Z c #FEFEFE",
/* pixels */
"=&&&&&*&&*&&*&&*&&*&&*&&*&&*&*&&&*&&*&&*&&*&&*&&*&&*&&*&&*&&*&&**&&*&&*&&*&&&&*=",
"X                                                                              X",
"X                                                                              +",
"X                                                                              X",
"X                                                                              X",
"X            .X@&&X       @455-&X                              %,<,,,,,,,>o    +",
"X         X-qcmMBN7       6CCCCBnk4+                          .rghghhggggf%    X",
"X        =xCZZZZZZ8       6ZZZZZZZCn5                       . #ahhhhhhhhhf%    +",
"X       5NZZZZZZZZ8       6CZZZZZZZZV7                      . 2ghhhhhhhhhd%    X",
"X      *MZZZZZZZZZ8       6ZZZZZZZZZZV7                      $ahhhhhhhhhhd%    +",
"X      jZZZZZZZZZZ8       6ZZZZZZZZZZZN*                    Xyghhhhhhhhhhd%    X",
"X     +MZZZZZZZZZZ9       6ZZZZZZZZZZZZk                   oeghhhhhhhhhhhd%    X",
"X     5CZZZZZZZZZZ9       6ZZZZZZZZZZZZM@                 .3ghhhhhhhhhhghd%    +",
"X     qZZZZZZMxlkk=       *kkkkznZZZZZZV-             . .;yghhhhhhhhhhhhhf%    X",
"X     xZZZZZb@.                 +jZZZZZZ6           .o$>tdhghhhhhhhhhhhhhd%    X",
"X    .cZZZZZ0                    &BZZZZZ7   .$%:>,,1rifhhhhhhhhhhhhhhhhhhd%    X",
"X    .cZZZZZq                    &BZZZZZ7  .#pdggghhhhhhhhhhhhhhhhhhhhhhhd%    +",
"X     xZZZZZb+                   8CZZZZZ6   #shhhhhghhhhhhhhhhhhhhhhhhhhhd%    X",
"X     lZZZZZZx5================4kBZZZZZV=   #shhhhhhhhhhhhhhhhhhhhhhhhhhhd%    X",
"X     7ZZZZZZZCCVCVVCVVCVVCVCVVCZZZZZZZM@   #shhhhhhhhhhhhhhhhhhhhhhhhhhhd%    +",
"X     &NZZZZZZZZZZZZZZZZZZZZZZZZZZZZZZZx    #fhhhhhhhhhhhhhhhhhhhhhhhhhhhf%    X",
"X      kZZZZZZZZZZZZZZZZZZZZZZZZZZZZZZC5    #shhhhhhhhhhhhhhhhhhhhhhhhhghd%    X",
"X      *MZZZZZZZZZZZZZZZZZZZZZZZZZZZZZx+    #fhhhhhhhhhhhhhhhhhhhhhhhhhhhf%    X",
"X       -mZZZZZZZZZZZZZZZZZZZZZZZZZZZv*     #fhhhhhhhhhhhhhhhhhhhhhhhhhhhf%.   +",
"X        @0mCZZZZZZZZZZZZZZZZZZZZZZm0+     .#shhhhhghhhhhhhhhhhhhhhhhhhhhd%    X",
"X          +-9jlvbnmmmmmmmmmmmnbzq6@        $shhghhhgggghhhghhhhhhhhhhhhhd%    +",
"X               .XX+++++++++++XX            o2eweeeweeewwwwihhhhhhhhhhhhhd%    X",
"X                                    X*+                   whhhhhhhhhhhhhd%    X",
"X                               X@-9znB4                   whhhhhhhhhhhghd%    +",
"X                           +*6jvNCZZZC5                   whhhhhhhhhhhhhf%    X",
"X                      .&40xmVCZZZZZZZZ4                   ehhhhhhhhhhhhhd%    X",
"X                 .+=7kbNCZZZZZZZZZZZZC5                   whhhhhhhhhhhhhd%    X",
"X             X&50xMVZZZZZZZZZZZZZZZZZC5                   whhhhhhhhhhhhhd%    +",
"X        .@=8lbBCZZZZZZZZZZZZZZZZZZZZZC5                   whhhhhhhhhhhhhd%    X",
"X     X5qcMCZZZZZZZZZZZZZZZZZZZZZZZZZZZ4                   whhhhhhhhhhhhhd%    X",
"X     @NZZZZZZZZZZZZZZZZZZZZZZZZZZZVNbl&                   ehhhhhhhhhhhhhd%    +",
"X     &BZZZZZZZZZZZZZZZZZZZZZZZZNk7-@X                     whhhhhhhhhhhhhf%    X",
"X     &BZZZZZZZZZZZZZCBmck0NZZZZx                          ehhhhhhhhhhhghd%    X",
"X     &BZZZZZZZVBmvk94*+. +mZZZZx                          whhhhhhhhhhhhhf%    X",
"X     &BZZZZZMl8-@.       +MZZZZx                          whhhhhhhhhhhhhf%.   +",
"X     &BZZZZZCVNmvzk96-&@X+mZZZZx                          eghhhhhhhhhhhhd%    X",
"X     &BZZZZZZZZZZZZZZCBMbcVZZZZx.                         whhhhhhhhhhhhhd%    +",
"X     @BZZZZZZZZZZZZZZZZZZZZZZZZBl05*+.                   Xwhhhhhhhhhhhhhd%    X",
"X     @vVCZZZZZZZZZZZZZZZZZZZZZZZZZZVMv=                   whhhhhhhhhhhhhd%    X",
"X      +*6jcMVZZZZZZZZZZZZZZZZZZZZZZZZZ4                   whhhhhhhhhhhghd%    +",
"X          .@=8lbNCZZZZZZZZZZZZZZZZZZZC5                   whhhhhhhhhhhhhf%    X",
"X               X&40xnVCZZZZZZZZZZZZZZZ5                   ehhhhhhhhhhhhhd%    X",
"X                    +*6qcMVZZZZZZZZZZC4                   whhhhhhhhhhhhhd%    X",
"X                        .+=8lbNCZZZZZC5                   whhhhhhhhhhhhhd%    +",
"X                             .&40zmBCZ5                   whhhhhhhhhhhhhd%    X",
"X                                  +*60*                   whhhhhhhhhhhhhd%    X",
"X                                    X4@                   ehhhhhhhhhhhhhd%    +",
"X           @-6775=X     X*677-=4688qvB5                   whhhhhhhhhhhhhf%    X",
"X         =lNCCZZZVn0@  -cVCZCVVCZZZZZZ4                   ehhhhhhhhhhhghd%    X",
"X       .9BZZZZZZZZZZb@=NZZZZZZZZZZZZZC5                   whhhhhhhhhhhhhf%    X",
"X       9CZZZZZZZZZZZZkxZZZZZZZZZZZZZZZ5                   whhhhhhhhhhhhhf%.   +",
"X      *BZZZZZZZZZZZZZBVZZZZZZZZZZZZZZZ4                   eghhhhhhhhhhhhd%    X",
"X      qZZZZZZZZZZZZZZZZZZZZZZZZZZZZZZZ4                   whhhhhhhhhhhhhd%    +",
"X     .vZZZZZZZZZZZZZZZZZZZZZZZZZZZZZZC5                  Xwhhhhhhhhhhhhhd%    X",
"X     @NZZZZZZZCCCZZZZZZZZZZZZZZZZZZZCN-                   whhhhhhhhhhhhhd%    X",
"X     &NZZZZZVl6440bZZZZZZZMj99909997-&.                   whhhhhhhhhhhghd%    +",
"X     &BZZZZC6     +xZZZZZN*                               whhhhhhhhhhhhhf%    X",
"X     &BZZZZN@      qZZZZZl                                ehhhhhhhhhhhhhd%    X",
"X     &BZZZZN@      qZZZZZq                                whhhhhhhhhhhhhd%    +",
"X     &BZZZZN*X+X+XXkZZZZZk++X+X++X+X++.                   whhhhhhhhhhhhhf%    X",
"X     &BZZZZCMmmmmmmBZZZZZVmmmmmmmmmmmn-                   whhhhhhhhhhhhhd% .  X",
"X     @BZZZZZZZZZZZZZZZZZZZZZZZZZZZZZZC5                 X whhhhhhhhhhhhhf%    +",
"X     &BZZZZZZZZZZZZZZZZZZZZZZZZZZZZZZC5                   whhhhhhhhhhhghd%    X",
"X     &BZZZZZZZZZZZZZZZZZZZZZZZZZZZZZZC5                   whhhhhhhhhhhhhd%    X",
"X     &BZZZZZZZZZZZZZZZZZZZZZZZZZZZZZZZ5                 . ehhhhhhhhhhhhhd%    +",
"X     @BZZZZZZZZZZZZZZZZZZZZZZZZZZZZZZC4                   whhhhhhhhhhhhhd%    X",
"X     &BZZZZZZZZZZZZZZZZZZZZZZZZZZZZZZZ5                   whhhhhhhhhhhhhd%    X",
"X     @bMMMMMMMMMMMMMMMMMMMMMMMMMMMMMMm-                   <aaaaaaaaaaaaau$    +",
"X     .+++@+@++++@+++@+++++@+++@++@++++X                  .oOOOOOOOOOOOOOO.    X",
"X                                                                              X",
"X                                                                              X",
"X                                                                              +",
"X                                                                              X",
"X                                                                              X",
"*@&&&&&@&&&&&&&@&@&&&&&@&&&&&@&&&&&@&&&&&@&&@&&&&&&@&&&&&&&&&&&@&&&&&&&@&&&&&&&*"
};
