/* XPM */
static char *Radio_Ciutat_Badalona[] = {
/* columns rows colors chars-per-pixel */
"80 80 63 1",
"  c #000000",
". c #0C0303",
"X c #0C0C0C",
"o c #140405",
"O c #1D0507",
"+ c #1B0708",
"@ c #171717",
"# c #280809",
"$ c #340A0C",
"% c #3C0B0E",
"& c #222222",
"* c #2F2F2F",
"= c #343333",
"- c #383838",
"; c #3B3B3B",
": c #430C0F",
"> c #460E11",
", c #4D0F12",
"< c #4F1115",
"1 c #551115",
"2 c #5D1216",
"3 c #60161A",
"4 c #671519",
"5 c #76171C",
"6 c #7E191E",
"7 c #434343",
"8 c #484848",
"9 c #4D4D4D",
"0 c #545454",
"q c #5C5C5C",
"w c #606060",
"e c #656565",
"r c #6C6C6C",
"t c #747474",
"y c #7B7B7B",
"u c #84191F",
"i c #861B20",
"p c #8D1C22",
"a c #951D23",
"s c #9D1F25",
"d c #982027",
"f c #A32027",
"g c #A52128",
"h c #AA2129",
"j c #B7242C",
"k c #A93137",
"l c #CA2830",
"z c #D35157",
"x c #DD666C",
"c c #EB7D83",
"v c #838383",
"b c #8D8D8D",
"n c #959595",
"m c #A6A6A6",
"M c #BBBBBB",
"N c #F39196",
"B c #FEB7BB",
"V c #CBCBCB",
"C c #DBDBDB",
"Z c #FFDBDD",
"A c #EAEAEA",
"S c #F9F3F3",
"D c #FFFFFF",
/* pixels */
"DDDDDDDDDDDDDDDDDDDDDDDDDDDDDDDDDDDDDDDDDDDDDDDDDDDDDDDDDDDDDDDDDDDDDDDDDDDDDDDD",
"DDDDDDDDDDDDDDDDDDDDDDDDDDDDDDDDDDDDDDDDDDDDDDDDDDDDDDDDDDDDDDDDDDDDDDDDDDDDDDDD",
"DDDDDDDDDDDDDDDDDDDDDDDDDDDDDDDDDDDDDDDDDDDDDDDDDDDDDDDDDDDDDDDDDDDDDDDDDDDDDDDD",
"DDDDDDDDDDDDDDDDDDDDDDDDDDDDDDDDDDDDDDDDDDDDDDDDDDDDDDDDDDDDDDDDDDDDDDDDDDDDDDDD",
"DDDDDDDDDDDDDDDDDDDDDDDDDDDDDDDDDDDDDDDDDDDDDDDDDDDDDDDDDDDDDDDDDDDDDDDDDDDDDDDD",
"DDDDDDDDDDDDDDDDDDDDDDDDDDDDDDDDDDDDDDDDDDDDDDDDDDDDDDDDDDDDDDDDDDDDDDDDDDDDDDDD",
"DDDDDDDDDDDDDDDDDDDDDDDDDDDDDDDDDDDDDDDDDDDDDDDDDDDDDDDDDDDDDDDDDDDDDDDDDDDDDDDD",
"DDDDDDDDDDDDDDDDDDDDDDDDDDDDDDDDDDDDDDDDDDDDDDDDDDDDDDDDDDDDDDDDDDDDDDDDDDDDDDDD",
"DDDDDDDDDDDDDDDDDDDDDDDDDDDDDDDDDDDDDDDDDDDDDDDDDDDDDDDDDDDDDDDDDDDDDDDDDDDDDDDD",
"DDDDDDDDDDDDDDDDDDDDDDDDDDDDDDDDDDDDDDDDDDDDDDDDDDDDDDDDDDDDDDDDDDDDDDDDDDDDDDDD",
"DDDDDDDDDDDDDDDDDDDDDDDDDDDDDDDDDDDDDDDDDDDDDDDDDDDDDDDDDDDDDDDDDDDDDDDDDDDDDDDD",
"DDDDDDDDDDDDDDDDDDDDDDDDDDDDDDDDDDDDDDDDDDDDDDDDDDDDDDDDDDDDDDDDDDDDDDDDDDDDDDDD",
"DDDDDDDDDDDDDDDDDDDDDDDDDDDDDDDDDDDDDDDDDDDDDDDDDDDDDDDDDDDDDDDDDDDDDDDDDDDDDDDD",
"DDDDDDDDDDDDDDDDDDDDDDDDDDDDDDDDDDDDDDDDDDDDDDDDDDDDDDDDDDDDDDDDDDDDDDDDDDDDDDDD",
"DDDDDDDDDDDDDDDDDDDDDDDDDDDDDDDDDDDDDDDDDDDDDDDDDDDDDDDDDDDDDDDDDDDDDDDDDDDDDDDD",
"DDDDDDDDDDDDDDDDDDDDDDDDDDDDDDDDDDDDDDDDDDDDDDDDDDDDDDDDDDDDDDDDDDDDDDDDDDDDDDDD",
"DDDDDDDDDDDDDDDDDDDDDDDDDDDDDDDDDDDDDDDDDDDDDDDDDDDDDDDDDDDDDDDDDDDDDDDDDDDDDDDD",
"DDDDDDDDDDDDDDDDDDDDDDDDDDDDDDDDDDDDDDDDDDDDDDDDDDDDDDDDDDDDDDDDDDDDDDDDDDDDDDDD",
"DDDDDDDDDDDDDDDDDDDDDDDDDDDDDDDDDDDDDDDDDDDDDDDDDDDDDDDDDDDDDDDDDDDDDDDDDDDDDDDD",
"DDDDDDDDDDDDDDDDDDDDDDDDDDDDDDDDDDDDDDDDDDDDDDDDDDDDDDDDDDDDDDDDDDDDDDDDDDDDDDDD",
"DDDDDDDDDDDDDDDDDDDDDDDDDDDDDDDDDDDDDDDDDDDDDDDDDDDDDDDDDDDDDDDDDDDDDDDDDDDDDDDD",
"DDSVmnbvvvvvbbbbbbbbbbbbbbbbbbbbbbbbbbbbbbbbbbbbbbbbbbbbbvvvvvvvvvvvvvvvvvvvvvvv",
"DAv*@X                                                                          ",
"SvX                                                       eMMMMMMMMMMMMMMMMMMMMM",
"V*                                                        nDDDDDDDDDDDDDDDDDDDDD",
"m@                                                        bDDDDDDDDDDDDDDDDDDDDD",
"nX                                                        bDDDDDDDDDDDDDDDDDDDDD",
"b           #o                                            rMMMMMMMMMMMMMMMMMMMMM",
"v          .5u.        O,.5>                                                    ",
"v           .3O        $p.4%                                                    ",
"v     OO%# .:1#.O  .%<#$p.O.  #>:o                        -eeeeeeeeeeeeeeeeeeeee",
"v     5h6%Opp5ua5 +pa5iap.6% 1zNck$                       bDDDDDDDDDDDDDDDDDDDDD",
"v     us. i5. .su 56. .ps.i%#zZDDBk.                      bDDDDDDDDDDDDDDDDDDDDD",
"v     u4 os#   <6.s$   %p.i%4NDDDSx#                      nDDDDDDDDDDDDDDDDDDDDD",
"b     u1 os#   <6.s$   %p.i%4NDDDSx#                      0bbbbbbbbbbbbbbbbbbbbb",
"b     u1  u6. Osu 5po oas.i%#zZDDBk.                                            ",
"b     5,  Oip6ip5 .6a6uu6.5$ 1zNxk#                                             ",
"b     o.   .$:O.o   $:#.O o.. O%$.                                              ",
"b                          op2         O>            .<#  7yyyyyyyyyyyyyyyyyyyyy",
"b                          og4         >f            .g2  nDDDDDDDDDDDDDDDDDDDDD",
"v                      .    .          >f      .     .g2  bDDDDDDDDDDDDDDDDDDDDD",
"v                   O4asu%. 1$O2.   #42glu$ .2agu#:>O6lh4.=qqqqqqqqqqqqqqqqqqqqq",
"v                  #hd416j4.g2%jo   >j1pl4#.uj52igjuo4ls1.                      ",
"v                 .s6.   $1of2%jo   >j.:f  1j#   >l6 .g2                        ",
"v                 $jO      .f2%jo   >jo>f .h4     au .g2                        ",
"v                 <j       .f2%jo   >jo>f .j%     56 .g2                        ",
"v                 %l#      .f2$jO   >j.>f .g4     du .g2  9bbbbbbbbbbbbbbbbbbbbb",
"v                 og6.   >1.f2oj1  .ps >f  1j#   :l6 .g2  bSSSSSSSSSSSSSSSSSSSSS",
"v                  #hs41ij1.g2 2l64aj% >g  .6j51ugju .g2  @*********************",
"v                   O4aa6$  ,#  ,psi$  #1   .1pa5#%> .<#                        ",
"v                                                                               ",
"v                                                                               ",
"v                                                                               ",
"v                                                         &777777777777777777777",
"v                                                         yCCCCCCCCCCCCCCCCCCCCC",
"v                         =@         *X   @*              @9v0&&9=&&&0=&-y7-&&--",
"v                         q07@X78=X=8r&=8=-0@9;X=7=.*7=X  Xr=rX&b@  &n& 7y=yXXy-",
"v                         r0-q99;y90=y8q*t0qw=q9y-e7q*y*  Xqet@ey@ Xqv& -q=v;-v9",
"v                         q*Xer&Xeq* q07 00qq.;eq 907 q=   @y=-yn;X-vn7 =877ee7q",
"v                         eyrq7try7teb;tevq0qrt7q@07teb-@@X*qX@&e-0@&t=X=90=09*e",
"DDDDDDDDDDDDDDDDDDDDDDDDDDDDDDDDDDDDDDDDDDDDDDDDDDDDDDDDDDDDDDDDDDDDDDDDDDDDDDDD",
"DDDDDDDDDDDDDDDDDDDDDDDDDDDDDDDDDDDDDDDDDDDDDDDDDDDDDDDDDDDDDDDDDDDDDDDDDDDDDDDD",
"DDDDDDDDDDDDDDDDDDDDDDDDDDDDDDDDDDDDDDDDDDDDDDDDDDDDDDDDDDDDDDDDDDDDDDDDDDDDDDDD",
"DDDDDDDDDDDDDDDDDDDDDDDDDDDDDDDDDDDDDDDDDDDDDDDDDDDDDDDDDDDDDDDDDDDDDDDDDDDDDDDD",
"DDDDDDDDDDDDDDDDDDDDDDDDDDDDDDDDDDDDDDDDDDDDDDDDDDDDDDDDDDDDDDDDDDDDDDDDDDDDDDDD",
"DDDDDDDDDDDDDDDDDDDDDDDDDDDDDDDDDDDDDDDDDDDDDDDDDDDDDDDDDDDDDDDDDDDDDDDDDDDDDDDD",
"DDDDDDDDDDDDDDDDDDDDDDDDDDDDDDDDDDDDDDDDDDDDDDDDDDDDDDDDDDDDDDDDDDDDDDDDDDDDDDDD",
"DDDDDDDDDDDDDDDDDDDDDDDDDDDDDDDDDDDDDDDDDDDDDDDDDDDDDDDDDDDDDDDDDDDDDDDDDDDDDDDD",
"DDDDDDDDDDDDDDDDDDDDDDDDDDDDDDDDDDDDDDDDDDDDDDDDDDDDDDDDDDDDDDDDDDDDDDDDDDDDDDDD",
"DDDDDDDDDDDDDDDDDDDDDDDDDDDDDDDDDDDDDDDDDDDDDDDDDDDDDDDDDDDDDDDDDDDDDDDDDDDDDDDD",
"DDDDDDDDDDDDDDDDDDDDDDDDDDDDDDDDDDDDDDDDDDDDDDDDDDDDDDDDDDDDDDDDDDDDDDDDDDDDDDDD",
"DDDDDDDDDDDDDDDDDDDDDDDDDDDDDDDDDDDDDDDDDDDDDDDDDDDDDDDDDDDDDDDDDDDDDDDDDDDDDDDD",
"DDDDDDDDDDDDDDDDDDDDDDDDDDDDDDDDDDDDDDDDDDDDDDDDDDDDDDDDDDDDDDDDDDDDDDDDDDDDDDDD",
"DDDDDDDDDDDDDDDDDDDDDDDDDDDDDDDDDDDDDDDDDDDDDDDDDDDDDDDDDDDDDDDDDDDDDDDDDDDDDDDD",
"DDDDDDDDDDDDDDDDDDDDDDDDDDDDDDDDDDDDDDDDDDDDDDDDDDDDDDDDDDDDDDDDDDDDDDDDDDDDDDDD",
"DDDDDDDDDDDDDDDDDDDDDDDDDDDDDDDDDDDDDDDDDDDDDDDDDDDDDDDDDDDDDDDDDDDDDDDDDDDDDDDD",
"DDDDDDDDDDDDDDDDDDDDDDDDDDDDDDDDDDDDDDDDDDDDDDDDDDDDDDDDDDDDDDDDDDDDDDDDDDDDDDDD",
"DDDDDDDDDDDDDDDDDDDDDDDDDDDDDDDDDDDDDDDDDDDDDDDDDDDDDDDDDDDDDDDDDDDDDDDDDDDDDDDD",
"DDDDDDDDDDDDDDDDDDDDDDDDDDDDDDDDDDDDDDDDDDDDDDDDDDDDDDDDDDDDDDDDDDDDDDDDDDDDDDDD",
"DDDDDDDDDDDDDDDDDDDDDDDDDDDDDDDDDDDDDDDDDDDDDDDDDDDDDDDDDDDDDDDDDDDDDDDDDDDDDDDD"
};
