/* XPM */
static char *Radio_Cl__sica[] = {
/* columns rows colors chars-per-pixel */
"80 80 118 2",
"   c #9D1F3A",
".  c #9C1F3B",
"X  c #9E1F3A",
"o  c #BD1527",
"O  c #BE1527",
"+  c #B6172B",
"@  c #B7172B",
"#  c #BB1528",
"$  c #BB1628",
"%  c #BA1629",
"&  c #B8162A",
"*  c #B9162A",
"=  c #B8172A",
"-  c #BC1528",
";  c #B3182D",
":  c #B1192E",
">  c #B5182C",
",  c #A21E37",
"<  c #A31E37",
"1  c #A51D35",
"2  c #A71C34",
"3  c #A61D35",
"4  c #A41D36",
"5  c #A51D36",
"6  c #A91B33",
"7  c #AA1B32",
"8  c #AB1B32",
"9  c #AA1B33",
"0  c #AF1930",
"q  c #AD1A31",
"w  c #AE1A30",
"e  c #AC1A32",
"r  c #A91C33",
"t  c #A81C34",
"y  c #A11E38",
"u  c #A01E39",
"i  c #A21E38",
"p  c #9B203B",
"a  c #9D203A",
"s  c #9C203B",
"d  c #99203D",
"f  c #99213D",
"g  c #9A203C",
"h  c #9B203C",
"j  c #9A213C",
"k  c #9A203D",
"l  c #9A213D",
"z  c #CF0F1C",
"x  c #CC0F1E",
"c  c #CD0F1E",
"v  c #DE0A13",
"b  c #DB0A15",
"n  c #DB0B15",
"m  c #D90B16",
"M  c #DA0B16",
"N  c #DC0B14",
"B  c #DC0A15",
"V  c #DC0B15",
"C  c #D90C16",
"Z  c #D80C17",
"A  c #DA0C16",
"S  c #D30D1A",
"D  c #D10E1B",
"F  c #D20E1A",
"G  c #D30E1A",
"H  c #D40D19",
"J  c #D50D19",
"K  c #D60C18",
"L  c #D70C18",
"P  c #D60D18",
"I  c #D40E19",
"U  c #D00E1C",
"Y  c #D00F1C",
"T  c #CB101E",
"R  c #CB101F",
"E  c #CB111F",
"W  c #CC101E",
"Q  c #E4070F",
"!  c #E6070E",
"~  c #E7070E",
"^  c #EB060B",
"/  c #EE0409",
"(  c #EF0409",
")  c #EF0509",
"_  c #EC050A",
"`  c #ED050A",
"'  c #ED050B",
"]  c #EE050A",
"[  c #EC060B",
"{  c #EB050C",
"}  c #E9060C",
"|  c #E8060D",
" . c #E9060D",
".. c #EB060C",
"X. c #E3090F",
"o. c #E4080F",
"O. c #E5080F",
"+. c #F00408",
"@. c #F10408",
"#. c #F00409",
"$. c #E10911",
"%. c #E30810",
"&. c #E30910",
"*. c #E00912",
"=. c #E40810",
"-. c #E40910",
";. c #C31323",
":. c #C71121",
">. c #C51222",
",. c #C41223",
"<. c #C41323",
"1. c #C61222",
"2. c #C21324",
"3. c #C31324",
"4. c #C01425",
"5. c #C91120",
"6. c #CA1120",
"7. c None",
/* pixels */
"7.7.7.7.7.7.7.7.7.7.7.7.7.7.7.7.7.7.7.7.7.7.7.7.7.7.7.7.7.7.7.7.7.7.7.7.7.7.7.7.7.7.7.7.7.7.7.7.7.7.7.7.7.7.7.7.7.7.7.7.7.7.7.7.7.7.7.7.7.7.7.7.7.7.7.7.7.7.7.7.",
"7.7.7.7.7.7.7.7.7.7.7.7.7.7.7.7.7.7.7.7.7.7.7.7.7.7.7.7.7.7.7.7.7.7.7.7.7.7.7.7.7.7.7.7.7.7.7.7.7.7.7.7.7.7.7.7.7.7.7.7.7.7.7.7.7.7.7.7.7.7.7.7.7.7.7.7.7.7.7.7.",
"7.7.7.7.7.7.7.7.7.7.7.7.7.7.7.7.7.7.7.7.7.7.7.7.7.7.7.7.7.7.7.7.7.7.7.7.7.7.7.7.7.7.7.7.7.7.7.7.7.7.7.7.7.7.7.7.7.7.7.7.7.7.7.7.7.7.7.7.7.7.7.7.7.7.7.7.7.7.7.7.",
"7.7.7.7.7.7.7.7.7.7.7.7.7.7.7.7.7.7.7.7.7.7.7.7.7.7.7.7.7.7.7.7.7.7.7.7.7.7.7.7.7.7.7.7.7.7.7.7.7.7.7.7.7.7.7.7.7.7.7.7.7.7.7.7.7.7.7.7.7.7.7.7.7.7.7.7.7.7.7.7.",
"7.7.7.7.7.7.7.7.7.7.7.7.7.7.7.7.7.7.7.7.7.7.7.7.7.7.7.7.7.7.7.7.7.7.7.7.7.7.7.7.7.7.7.7.7.7.7.7.7.7.7.7.7.7.7.7.7.7.7.7.7.7.7.7.7.7.7.7.7.7.7.7.7.7.7.7.7.7.7.7.",
"7.7.7.7.7.7.7.7.7.7.7.7.7.7.7.7.7.7.7.7.7.7.7.7.7.7.7.7.7.7.7.7.7.7.7.7.7.7.7.7.7.7.7.7.7.7.7.7.7.7.7.7.7.7.7.7.7.7.7.7.7.7.7.7.7.7.7.7.7.7.7.7.7.7.7.7.7.7.7.7.",
"7.7.7.7.7.7.7.7.7.7.7.7.7.7.7.7.7.7.7.7.7.7.7.7.7.7.7.7.7.7.7.7.7.7.7.7.7.7.7.7.7.7.7.7.7.7.7.7.7.7.7.7.7.7.7.7.7.7.7.7.7.7.7.7.7.7.7.7.7.7.7.7.7.7.7.7.7.7.7.7.",
"7.7.7.7.7.7.7.7.7.7.7.7.7.7.7.7.7.7.7.7.7.7.7.7.7.7.7.7.7.7.7.7.7.7.7.7.7.7.7.7.7.7.7.7.7.7.7.7.7.7.7.7.7.7.7.7.7.7.7.7.7.7.7.7.7.7.7.7.7.7.7.7.7.7.7.7.7.7.7.7.",
"7.7.7.7.7.7.7.7.7.7.7.7.7.7.7.7.7.7.7.7.7.7.7.7.7.7.7.7.7.7.7.7.7.7.7.7.7.7.7.7.7.7.7.7.7.7.7.7.7.7.7.7.7.7.7.7.7.7.7.7.7.7.7.7.7.7.7.7.7.7.7.7.7.7.7.7.7.7.7.7.",
"7.7.7.7.7.7.7.7.7.7.7.7.7.7.7.7.7.7.7.7.7.7.7.7.7.7.7.7.7.7.7.7.7.7.7.7.7.7.7.7.7.7.7.7.7.7.7.7.7.7.7.7.7.7.7.7.7.7.7.7.7.7.7.7.7.7.7.7.7.7.7.7.7.7.7.7.7.7.7.7.",
"7.7.7.7.7.7.7.7.7.7.7.7.7.7.7.7.7.7.7.7.7.7.7.7.7.7.7.7.7.7.7.7.7.7.7.7.7.7.7.7.7.7.7.7.7.7.7.7.7.7.7.7.7.7.7.7.7.7.7.7.7.7.7.7.7.7.7.7.7.7.7.7.7.7.7.7.7.7.7.7.",
"7.7.7.7.7.7.7.7.7.7.7.7.7.7.7.7.7.7.7.7.7.7.7.7.7.7.7.7.7.7.7.7.7.7.7.7.7.7.7.7.7.7.7.7.7.7.7.7.7.7.7.7.7.7.7.7.7.7.7.7.7.7.7.7.7.7.7.7.7.7.7.7.7.7.7.7.7.7.7.7.",
"7.7.7.7.7.7.7.7.7.7.7.7.7.7.7.7.7.7.7.7.7.7.7.7.7.7.7.7.7.7.7.7.7.7.7.7.7.7.7.7.7.7.7.7.7.7.7.7.7.7.7.7.7.7.7.7.7.7.7.7.7.7.7.7.7.7.7.7.7.7.7.7.7.7.7.7.7.7.7.7.",
"7.7.7.7.7.7.7.7.7.7.7.7.7.7.7.7.7.7.7.7.7.7.7.7.7.7.7.7.7.7.7.7.7.7.7.7.7.7.7.7.7.7.7.7.7.7.7.7.7.7.7.7.7.7.7.7.7.7.7.7.7.7.7.7.7.7.7.7.7.7.7.7.7.7.7.7.7.7.7.7.",
"7.7.7.7.7.7.7.7.7.7.7.7.7.7.7.7.7.7.7.7.7.7.7.7.7.7.7.7.7.7.7.7.7.7.7.7.7.7.7.7.7.7.7.7.7.7.7.7.7.7.7.7.7.7.7.7.7.7.7.7.7.7.7.7.7.7.7.7.7.7.7.7.7.7.7.7.7.7.7.7.",
"7.7.7.7.7.7.7.7.7.7.7.7.7.7.7.7.7.7.7.7.7.7.7.7.7.7.7.7.7.7.7.7.7.7.7.7.7.7.7.7.7.7.7.7.7.7.7.7.7.7.7.7.7.7.7.7.7.7.7.7.7.7.7.7.7.7.7.7.7.7.7.7.7.7.7.7.7.7.7.7.",
"7.7.7.7.7.7.7.7.7.7.7.7.7.7.7.7.7.7.7.7.7.7.7.7.7.7.7.7.7.7.7.7.7.7.7.7.7.7.7.7.7.7.7.7.7.7.7.7.7.7.7.7.7.7.7.7.7.7.7.7.7.7.7.7.7.7.7.7.7.7.7.7.7.7.7.7.7.7.7.7.",
"7.7.7.7.7.7.7.7.7.7.7.7.7.7.7.7.7.7.7.7.7.7.7.7.7.7.7.7.7.7.7.7.7.7.7.7.7.7.7.7.7.7.7.7.7.7.7.7.7.7.7.7.7.7.7.7.7.7.7.7.7.7.7.7.7.7.7.7.7.7.7.7.7.7.7.7.7.7.7.7.",
"7.7.7.7.7.7.7.7.7.7.7.7.7.7.7.7.7.7.7.7.7.7.7.7.7.7.7.7.7.7.7.7.7.7.7.7.7.7.7.7.7.7.7.7.7.7.7.7.7.7.7.7.7.7.7.7.7.7.7.7.7.7.7.7.7.7.7.7.7.7.7.7.7.7.7.7.7.7.7.7.",
"7.7.7.7.7.7.7.7.7.7.7.7.7.7.7.7.7.7.7.7.7.7.7.7.7.7.7.7.7.7.7.7.7.7.7.7.7.7.7.7.7.7.7.7.7.7.7.7.7.7.7.7.7.7.7.7.7.7.7.7.7.7.7.7.7.7.7.7.7.7.7.7.7.7.7.7.7.7.7.7.",
"7.7.7.7.7.7.7.7.7.7.7.7.7.7.7.7.7.7.7.7.7.7.7.7.7.7.7.7.7.7.7.7.7.7.7.7.7.7.7.7.7.7.7.7.7.7.7.7.7.7.7.7.7.7.7.7.7.7.7.7.7.7.7.7.7.7.7.7.7.7.7.7.7.7.7.7.7.7.7.7.",
"7.7.7.7.7.7.7.7.7.7.7.7.7.7.7.7.7.7.7.7.7.7.7.h 7.7.7.7.7.7.7.7.7.7.7.7.7.7.7.7.7.7.7.7.7.7.7.7.7.7.7.F F 7.7.7.7.7.7.7.7.7.7.7.7.7.7.7.7.7.7.7.7.7.7.7.7.7.7.7.",
"7.7.7.7.7.7.7.7.7.7.7.7.7.7.7.7.7.e e 0 7.7.g g g 7.7.7.7.7.7.7.7.7.7.7.7.7.7.7.7.7.7.:.T W 7.7.7.7.D F F 7.7.7.7.7.7.7.7.7.7.=.O.7.7.7.7.7.7.7.7.7.7.7.7.7.7.7.",
"7.7.7.7.7.7.7.7.7.7.7.7.7.7.7.7.7.7.0 e 7.7.g g 7.7.7.7.7.7.7.7.7.7.7.7.7.7.7.7.7.7.7.7.6.W 7.7.7.7.D 7.7.7.7.7.7.7.7.7.7.7.7.=.=.7.7.7.7.7.7.7.7.7.7.7.7.7.7.7.",
"7.7.7.7.7.7.7.7.4 4 7.7.7.7.7.7.7.7.0 0 7.7.7.7.7.7.7.7.7.7.7.7.7.7.7.7.7.7.7.7.7.7.7.7.6.W 7.7.7.7.D G 7.7.7.7.7.7.C 7.7.7.7.7.7.7.7.7.7.7.7.7.7.7.7.` ) ) 7.7.",
"g g       7.u < < 4 4 7.7.7.t e e 0 e 0 7.7.d d 7.7.7.+ % % # # 7.7.7.7.7.7.;.1.1.:.7.7.6.W 7.7.D W D G G 7.7.7.Z C C n n 7.=.O.=.7.7.7.O.O.O. .7.7. .` ` ) #.7.",
"7.g     7.7.7.7.7.4 4 7.7.7.t e 7.e 0 0 7.7.d g 7.7.7.+ % 7.# # 4.7.7.7.7.;.;.7.7.:.7.7.W W 7.7.7.7.7.7.G I 7.7.Z 7.7.7.7.7.=.=.=.7.7.=.O.7.7. .7.7.7.7.7.) #.7.",
"7.g   7.7.7.7.7.7.4 4 t 7.t e 7.7.7.0 0 7.7.d g 7.7.+ + % 7.7.# O 7.7.7.7.;.;.7.7.7.7.7.6.W 7.7.7.7.7.G I I 7.7.Z Z 7.7.7.7.7.O.=.7.7.=.=.7.7.7.7.7.7.7.7.) #.7.",
"7.g . 7.7.7.u 4 4 4 4 t 7.6 t 7.7.7.0 0 7.7.g g 7.7.+ % 7.7.7.4.O 7.7.7.7.4.;.7.7.7.7.7.W W 7.7.7.D D G G I 7.7.C C C n 7.7.7.O.=.7.7.=.7.7.7.7.7.7.` ` ) ) ) 7.",
"7.    7.7.7.u 4 7.4 4 t 7.6 6 7.7.7.e 0 7.7.g g 7.7.+ % 7.7.7.# O 7.7.7.7.;.;.7.7.7.7.7.W W 7.7.W G 7.7.I I 7.7.7.7.n n n 7.7.-.=.7.7.=.=.7.7.7.7.`  .` 7.) #.7.",
"7..   7.7.7.u u 7.7.4 4 7.t 6 7.7.7.0 0 7.7.g g 7.7.+ + % 7.7.# O 7.7.7.7.;.1.7.7.7.7.7.6.W 7.7.D W 7.7.G I 7.7.7.7.7.n n 7.7.-.=.7.7.=.Q 7.7.7.7. .` 7.7.) #.7.",
"g g . 7.7.7.u u 4 4 4 t 7.7.6 e e e 0 0 7.7.g g h 7.7.+ + # # # 7.7.7.7.7.7.;.;.1.:.7.7.W W W 7.W D D G I I 7.7.C C C n n 7.-.-.=.7.7.=.Q !  . .7.`  .` ) #.#.#.",
"h h h a 7.7.7.< 4 7.4 4 7.7.t 6 q q q 0 7.7.j j g 7.7.7.* * O 7.7.7.7.7.7.7.7.;.>.5.7.7.7.6.6.7.7.F F 7.I I 7.7.Z Z Z n 7.7.=.=.=.7.7.7.=.=. . .7.7.` ` ) 7.) #.",
"7.7.7.7.7.7.7.7.7.7.7.7.7.7.7.7.7.7.7.7.7.7.7.7.7.7.7.7.7.7.7.7.7.7.7.7.7.7.7.7.7.7.7.7.7.7.7.7.7.7.7.7.7.7.7.7.7.7.7.7.7.7.7.7.7.7.7.7.7.7.7.7.7.7.7.7.7.7.7.7.",
"7.7.7.7.7.7.7.7.7.7.7.7.7.7.7.7.7.7.7.7.7.7.7.7.7.7.7.7.7.7.7.7.7.7.7.7.7.7.7.7.7.7.7.7.7.7.7.7.7.7.7.7.7.7.7.7.7.7.7.7.7.7.7.7.7.7.7.7.7.7.7.7.7.7.7.7.7.7.7.7.",
"7.a u 7.7.7.7.7.q 7.7.7.7.> > 7.7.7.7.7.4.4.;.7.7.7.7.7.7.7.7.7.7.7.7.7.n $.$.=.=.7.7.7.7.7.7.7.7.7.7.7.7.7.7.7.7.7.7.7.7.7.7.7.7.7.7.7.7.7.7.7.7.7.7.7.7.7.7.7.",
"h h u u 7.4 t t t e 7.7.; ; > + 7.7.# 4.4.4.1.1.:.7.7.7.7.7.7.7.7.7.n n *.*.$.=.~ ~  .7.7.7.7.7.7.7.7.7.7.7.7.7.7.7.7.7.7.7.7.7.7.7.7.7.7.7.7.7.7.7.7.7.7.7.7.7.",
"h a   u u 4 4 t t e 7.7.0 ; > + * * # # 4.;.;.1.:.5.7.7.7.7.7.7.7.C n n n $.$.=.=.~  .` 7.7.7.7.7.7.7.7.7.7.7.7.7.7.7.7.7.7.7.7.7.7.7.7.7.7.7.7.7.7.7.7.7.7.7.7.",
"g .   u < 4 4 t t e 7.7.; > > > * * # 4.4.4.;.1.:.5.7.7.7.7.7.7.L Z n n n *.$.-.=.~ ~ ` ` 7.7.7.7.7.7.7.7.7.7.7.7.7.7.7.7.7.7.7.7.7.7.7.7.7.7.7.7.7.7.7.7.7.7.7.",
"g . u u u 4 t t e e 7.7.0 > > > * O # 4.4.4.;.1.:.5.5.7.7.7.7.I L Z n n 7.7.7.7.7.~ | ` ` ` 7.7.7.7.7.7.7.7.7.7.7.7.7.7.7.7.7.7.7.7.7.7.7.7.7.7.7.7.7.7.7.7.7.7.",
"h   u u u 4 t 7.7.7.7.7.0 > > * * * 7.7.7.7.;.;.:.:.6.7.7.7.7.I L C n 7.7.7.7.7.7.7.| } ` #.7.7.7.7.7.7.7.7.7.7.7.7.7.7.7.7.7.7.7.7.7.7.7.7.7.7.7.7.7.7.7.7.7.7.",
"g .   u u 7.7.7.7.7.7.7.0 > > > * 7.7.7.7.7.;.;.:.6.W 7.7.7.I I I C C 7.7.7.7.7.7.7.} } ` ` #.7.7.7.7.7.7.7.7.7.7.7.7.7.7.7.7.7.7.7.7.7.7.7.7.7.7.7.7.7.7.7.7.7.",
". .   u u 7.7.7.7.7.7.7.0 ; > * * 7.7.7.7.7.;.5.:.6.W 7.7.7.I I I C 7.7.7.7.7.7.7.7.} } ` #.#.7.7.7.7.7.7.7.7.7.7.7.7.7.7.7.7.7.7.7.7.7.7.7.7.7.7.7.7.7.7.7.7.7.",
"g .   u < 7.7.7.7.7.7.7.; > > > * 7.7.7.7.7.;.;.:.6.W 7.7.7.I I L C 7.7.7.7.7.7.7.7.7.} ` #.#.7.7.7.7.7.7.7.7.7.7.7.7.7.7.7.7.7.7.7.7.7.7.7.7.7.7.7.7.7.7.7.7.7.",
"g .   u u 7.7.7.7.7.7.7.0 > > * * 7.7.7.7.7.;.1.:.5.6.7.7.D I Z L C n 7.7.7.7.7.7.7.} ` #.#.#.7.7.7.7.7.7.7.7.7.7.7.7.7.7.7.7.7.7.7.7.7.7.7.7.7.7.7.7.7.7.7.7.7.",
"h . u u < 7.7.7.7.7.7.7.0 0 > > * 7.7.7.7.7.;.;.:.5.6.7.7.D F F I C n n n $.$.-.| | } } } ) #.7.7.7.7.7.7.7.7.7.7.7.7.7.7.7.7.7.7.7.7.7.7.7.7.7.7.7.7.7.7.7.7.7.",
"h .   u u 7.7.7.7.7.7.7.> > > * * 7.7.7.7.7.;.5.:.6.6.7.7.D F F Z C C n $.$.$.-.=.| | } ` #.#.7.7.7.7.7.7.7.7.7.7.7.7.7.7.7.7.7.7.7.7.7.7.7.7.7.7.7.7.7.7.7.7.7.",
"h . u u < 7.7.7.7.7.7.7.; 0 > > * 7.7.7.7.7.;.;.:.6.6.7.7.D I F I C n n n $.$.$.=.| | } ` #.7.7.7.7.7.7.7.7.7.7.7.7.7.7.7.7.7.7.7.7.7.7.7.7.7.7.7.7.7.7.7.7.7.7.",
"h .   u < 7.7.7.7.7.7.7.; ; > + * 7.7.7.7.7.;.>.5.5.5.7.7.D F I Z Z Z n *.*.*.7.7.7.7.7.7.7.7.7.7.7.7.7.7.7.7.7.7.7.7.7.7.7.7.7.7.7.7.7.7.7.7.7.7.7.7.7.7.7.7.7.",
"h . u u u 7.7.7.7.7.7.7.; ; > + * 7.7.7.7.7.;.>.5.5.6.7.7.D F I Z Z 7.7.7.7.7.7.7.7.7.7.7.7.7.7.7.7.7.7.7.7.7.7.7.7.7.7.7.7.7.7.7.7.7.7.7.7.7.7.7.7.7.7.7.7.7.7.",
". .   u < 7.7.7.7.7.7.7.0 ; > + * 7.7.7.7.7.;.>.5.6.6.7.7.7.F Z F Z 7.7.7.7.7.7.7.7.7.7.7.7.7.7.7.7.7.7.7.7.7.7.7.7.7.7.7.7.7.7.7.7.7.7.7.7.7.7.7.7.7.7.7.7.7.7.",
"g     u u 7.7.7.7.7.7.7.; ; > + * 7.7.7.7.7.;.;.:.6.6.7.7.7.F F Z Z 7.7.7.7.7.7.7.7.7.7.7.7.7.7.7.7.7.7.7.7.7.7.7.7.7.7.7.7.7.7.7.7.7.7.7.7.7.7.7.7.7.7.7.7.7.7.",
". .   u u 7.7.7.7.7.7.7.; ; > + * 7.7.7.7.7.;.;.:.5.6.7.7.7.F Z Z Z n 7.7.7.7.7.7.7.7.7.7.7.7.7.7.7.7.7.7.7.7.7.7.7.7.7.7.7.7.7.7.7.7.7.7.7.7.7.7.7.7.7.7.7.7.7.",
"7..   7.7.7.7.7.7.7.7.7.7.; > + 7.7.7.7.7.7.7.5.:.5.7.7.7.7.F F F Z n n 7.7.7.7.7.7.7.7.7.7.7.7.7.7.7.7.7.7.7.7.7.7.7.7.7.7.7.7.7.7.7.7.7.7.7.7.7.7.7.7.7.7.7.7.",
"7.7.7.7.7.7.7.7.7.7.7.7.7.7.7.7.7.7.7.7.7.7.7.7.7.7.7.7.7.7.7.F Z Z n n v *.7.7.7.7.7.` ` ` 7.7.7.7.7.7.7.7.7.7.7.7.7.7.7.7.7.7.7.7.7.7.7.7.7.7.7.7.7.7.7.7.7.7.",
"7.7.7.7.7.7.7.7.7.7.7.7.7.7.7.7.7.7.7.7.7.7.7.7.7.7.7.7.7.7.7.7.Z Z n n v *.=.=.=.~ |  .` #.7.7.7.7.7.7.7.7.7.7.7.7.7.7.7.7.7.7.7.7.7.7.7.7.7.7.7.7.7.7.7.7.7.7.",
"7.7.7.7.7.7.7.7.7.7.7.7.7.7.7.7.7.7.7.7.7.7.7.7.7.7.7.7.7.7.7.7.F Z n n *.*.=.=.~ ~ | ` ` ` 7.7.7.7.7.7.7.7.7.7.7.7.7.7.7.7.7.7.7.7.7.7.7.7.7.7.7.7.7.7.7.7.7.7.",
"7.7.7.7.7.7.7.7.7.7.7.7.7.7.7.7.7.7.7.7.7.7.7.7.7.7.7.7.7.7.7.7.7.7.n n n $.*.=.=.| | ` ` 7.7.7.7.7.7.7.7.7.7.7.7.7.7.7.7.7.7.7.7.7.7.7.7.7.7.7.7.7.7.7.7.7.7.7.",
"7.7.7.7.7.7.7.7.7.7.7.7.7.7.7.7.7.7.7.7.7.7.7.7.7.7.7.7.7.7.7.7.7.7.7.7.n *.$.=.=.| | 7.7.7.7.7.7.7.7.7.7.7.7.7.7.7.7.7.7.7.7.7.7.7.7.7.7.7.7.7.7.7.7.7.7.7.7.7.",
"7.7.7.7.7.7.7.7.7.7.7.7.7.7.7.7.7.7.7.7.7.7.7.7.7.7.7.7.7.7.7.7.7.7.7.7.7.7.7.7.7.7.7.7.7.7.7.7.7.7.7.7.7.7.7.7.7.7.7.7.7.7.7.7.7.7.7.7.7.7.7.7.7.7.7.7.7.7.7.7.",
"7.7.7.7.7.7.7.7.7.7.7.7.7.7.7.7.7.7.7.7.7.7.7.7.7.7.7.7.7.7.7.7.7.7.7.7.7.7.7.7.7.7.7.7.7.7.7.7.7.7.7.7.7.7.7.7.7.7.7.7.7.7.7.7.7.7.7.7.7.7.7.7.7.7.7.7.7.7.7.7.",
"7.7.7.7.7.7.7.7.7.7.7.7.7.7.7.7.7.7.7.7.7.7.7.7.7.7.7.7.7.7.7.7.7.7.7.7.7.7.7.7.7.7.7.7.7.7.7.7.7.7.7.7.7.7.7.7.7.7.7.7.7.7.7.7.7.7.7.7.7.7.7.7.7.7.7.7.7.7.7.7.",
"7.7.7.7.7.7.7.7.7.7.7.7.7.7.7.7.7.7.7.7.7.7.7.7.7.7.7.7.7.7.7.7.7.7.7.7.7.7.7.7.7.7.7.7.7.7.7.7.7.7.7.7.7.7.7.7.7.7.7.7.7.7.7.7.7.7.7.7.7.7.7.7.7.7.7.7.7.7.7.7.",
"7.7.7.7.7.7.7.7.7.7.7.7.7.7.7.7.7.7.7.7.7.7.7.7.7.7.7.7.7.7.7.7.7.7.7.7.7.7.7.7.7.7.7.7.7.7.7.7.7.7.7.7.7.7.7.7.7.7.7.7.7.7.7.7.7.7.7.7.7.7.7.7.7.7.7.7.7.7.7.7.",
"7.7.7.7.7.7.7.7.7.7.7.7.7.7.7.7.7.7.7.7.7.7.7.7.7.7.7.7.7.7.7.7.7.7.7.7.7.7.7.7.7.7.7.7.7.7.7.7.7.7.7.7.7.7.7.7.7.7.7.7.7.7.7.7.7.7.7.7.7.7.7.7.7.7.7.7.7.7.7.7.",
"7.7.7.7.7.7.7.7.7.7.7.7.7.7.7.7.7.7.7.7.7.7.7.7.7.7.7.7.7.7.7.7.7.7.7.7.7.7.7.7.7.7.7.7.7.7.7.7.7.7.7.7.7.7.7.7.7.7.7.7.7.7.7.7.7.7.7.7.7.7.7.7.7.7.7.7.7.7.7.7.",
"7.7.7.7.7.7.7.7.7.7.7.7.7.7.7.7.7.7.7.7.7.7.7.7.7.7.7.7.7.7.7.7.7.7.7.7.7.7.7.7.7.7.7.7.7.7.7.7.7.7.7.7.7.7.7.7.7.7.7.7.7.7.7.7.7.7.7.7.7.7.7.7.7.7.7.7.7.7.7.7.",
"7.7.7.7.7.7.7.7.7.7.7.7.7.7.7.7.7.7.7.7.7.7.7.7.7.7.7.7.7.7.7.7.7.7.7.7.7.7.7.7.7.7.7.7.7.7.7.7.7.7.7.7.7.7.7.7.7.7.7.7.7.7.7.7.7.7.7.7.7.7.7.7.7.7.7.7.7.7.7.7.",
"7.7.7.7.7.7.7.7.7.7.7.7.7.7.7.7.7.7.7.7.7.7.7.7.7.7.7.7.7.7.7.7.7.7.7.7.7.7.7.7.7.7.7.7.7.7.7.7.7.7.7.7.7.7.7.7.7.7.7.7.7.7.7.7.7.7.7.7.7.7.7.7.7.7.7.7.7.7.7.7.",
"7.7.7.7.7.7.7.7.7.7.7.7.7.7.7.7.7.7.7.7.7.7.7.7.7.7.7.7.7.7.7.7.7.7.7.7.7.7.7.7.7.7.7.7.7.7.7.7.7.7.7.7.7.7.7.7.7.7.7.7.7.7.7.7.7.7.7.7.7.7.7.7.7.7.7.7.7.7.7.7.",
"7.7.7.7.7.7.7.7.7.7.7.7.7.7.7.7.7.7.7.7.7.7.7.7.7.7.7.7.7.7.7.7.7.7.7.7.7.7.7.7.7.7.7.7.7.7.7.7.7.7.7.7.7.7.7.7.7.7.7.7.7.7.7.7.7.7.7.7.7.7.7.7.7.7.7.7.7.7.7.7.",
"7.7.7.7.7.7.7.7.7.7.7.7.7.7.7.7.7.7.7.7.7.7.7.7.7.7.7.7.7.7.7.7.7.7.7.7.7.7.7.7.7.7.7.7.7.7.7.7.7.7.7.7.7.7.7.7.7.7.7.7.7.7.7.7.7.7.7.7.7.7.7.7.7.7.7.7.7.7.7.7.",
"7.7.7.7.7.7.7.7.7.7.7.7.7.7.7.7.7.7.7.7.7.7.7.7.7.7.7.7.7.7.7.7.7.7.7.7.7.7.7.7.7.7.7.7.7.7.7.7.7.7.7.7.7.7.7.7.7.7.7.7.7.7.7.7.7.7.7.7.7.7.7.7.7.7.7.7.7.7.7.7.",
"7.7.7.7.7.7.7.7.7.7.7.7.7.7.7.7.7.7.7.7.7.7.7.7.7.7.7.7.7.7.7.7.7.7.7.7.7.7.7.7.7.7.7.7.7.7.7.7.7.7.7.7.7.7.7.7.7.7.7.7.7.7.7.7.7.7.7.7.7.7.7.7.7.7.7.7.7.7.7.7.",
"7.7.7.7.7.7.7.7.7.7.7.7.7.7.7.7.7.7.7.7.7.7.7.7.7.7.7.7.7.7.7.7.7.7.7.7.7.7.7.7.7.7.7.7.7.7.7.7.7.7.7.7.7.7.7.7.7.7.7.7.7.7.7.7.7.7.7.7.7.7.7.7.7.7.7.7.7.7.7.7.",
"7.7.7.7.7.7.7.7.7.7.7.7.7.7.7.7.7.7.7.7.7.7.7.7.7.7.7.7.7.7.7.7.7.7.7.7.7.7.7.7.7.7.7.7.7.7.7.7.7.7.7.7.7.7.7.7.7.7.7.7.7.7.7.7.7.7.7.7.7.7.7.7.7.7.7.7.7.7.7.7.",
"7.7.7.7.7.7.7.7.7.7.7.7.7.7.7.7.7.7.7.7.7.7.7.7.7.7.7.7.7.7.7.7.7.7.7.7.7.7.7.7.7.7.7.7.7.7.7.7.7.7.7.7.7.7.7.7.7.7.7.7.7.7.7.7.7.7.7.7.7.7.7.7.7.7.7.7.7.7.7.7.",
"7.7.7.7.7.7.7.7.7.7.7.7.7.7.7.7.7.7.7.7.7.7.7.7.7.7.7.7.7.7.7.7.7.7.7.7.7.7.7.7.7.7.7.7.7.7.7.7.7.7.7.7.7.7.7.7.7.7.7.7.7.7.7.7.7.7.7.7.7.7.7.7.7.7.7.7.7.7.7.7.",
"7.7.7.7.7.7.7.7.7.7.7.7.7.7.7.7.7.7.7.7.7.7.7.7.7.7.7.7.7.7.7.7.7.7.7.7.7.7.7.7.7.7.7.7.7.7.7.7.7.7.7.7.7.7.7.7.7.7.7.7.7.7.7.7.7.7.7.7.7.7.7.7.7.7.7.7.7.7.7.7.",
"7.7.7.7.7.7.7.7.7.7.7.7.7.7.7.7.7.7.7.7.7.7.7.7.7.7.7.7.7.7.7.7.7.7.7.7.7.7.7.7.7.7.7.7.7.7.7.7.7.7.7.7.7.7.7.7.7.7.7.7.7.7.7.7.7.7.7.7.7.7.7.7.7.7.7.7.7.7.7.7."
};
