/* XPM */
static char *Radio_Cl__sica[] = {
/* columns rows colors chars-per-pixel */
"80 80 64 1",
"  c #9F1F3A",
". c #B9172B",
"X c #B4182D",
"o c #A61D36",
"O c #B21F34",
"+ c #9C213D",
"@ c #AE243B",
"# c #DB0C16",
"$ c #D50E19",
"% c #DD0F18",
"& c #D8121D",
"* c #EC060C",
"= c #E8080F",
"- c #E30A12",
"; c #EB0C12",
": c #EB161C",
"> c #F11216",
", c #C61323",
"< c #CA1524",
"1 c #D81823",
"2 c #E61C23",
"3 c #D02735",
"4 c #EA3035",
"5 c #9F2A44",
"6 c #AA324A",
"7 c #C63747",
"8 c #D53C48",
"9 c #E63C44",
"0 c #B84659",
"q c #B4576C",
"w c #BE6577",
"e c #D3414E",
"r c #C4495A",
"t c #D64D58",
"y c #D8535D",
"u c #ED4D52",
"i c #D05865",
"p c #E85C63",
"a c #D36B77",
"s c #EB6E74",
"d c #C77887",
"f c #D67782",
"g c #EE7E83",
"h c #D38A96",
"j c #EC858A",
"k c #F48588",
"l c #EF9599",
"z c #D498A4",
"x c #EE9DA2",
"c c #DCACB6",
"v c #EDABB0",
"b c #F7B8BB",
"n c #ECBDC2",
"m c #E8C5CB",
"M c #F7C8CA",
"N c #EFD0D4",
"B c #F7D7D9",
"V c #F4DFE2",
"C c #F8E6E7",
"Z c #FCECED",
"A c #FAEFF1",
"S c #FCF4F4",
"D c #FDF8F8",
"F c #FFFFFF",
/* pixels */
"FFFFFFFFFFFFFFFFFFFFFFFFFFFFFFFFFFFFFFFFFFFFFFFFFFFFFFFFFFFFFFFFFFFFFFFFFFFFFFFF",
"FFFFFFFFFFFFFFFFFFFFFFFFFFFFFFFFFFFFFFFFFFFFFFFFFFFFFFFFFFFFFFFFFFFFFFFFFFFFFFFF",
"FFFFFFFFFFFFFFFFFFFFFFFFFFFFFFFFFFFFFFFFFFFFFFFFFFFFFFFFFFFFFFFFFFFFFFFFFFFFFFFF",
"FFFFFFFFFFFFFFFFFFFFFFFFFFFFFFFFFFFFFFFFFFFFFFFFFFFFFFFFFFFFFFFFFFFFFFFFFFFFFFFF",
"FFFFFFFFFFFFFFFFFFFFFFFFFFFFFFFFFFFFFFFFFFFFFFFFFFFFFFFFFFFFFFFFFFFFFFFFFFFFFFFF",
"FFFFFFFFFFFFFFFFFFFFFFFFFFFFFFFFFFFFFFFFFFFFFFFFFFFFFFFFFFFFFFFFFFFFFFFFFFFFFFFF",
"FFFFFFFFFFFFFFFFFFFFFFFFFFFFFFFFFFFFFFFFFFFFFFFFFFFFFFFFFFFFFFFFFFFFFFFFFFFFFFFF",
"FFFFFFFFFFFFFFFFFFFFFFFFFFFFFFFFFFFFFFFFFFFFFFFFFFFFFFFFFFFFFFFFFFFFFFFFFFFFFFFF",
"FFFFFFFFFFFFFFFFFFFFFFFFFFFFFFFFFFFFFFFFFFFFFFFFFFFFFFFFFFFFFFFFFFFFFFFFFFFFFFFF",
"FFFFFFFFFFFFFFFFFFFFFFFFFFFFFFFFFFFFFFFFFFFFFFFFFFFFFFFFFFFFFFFFFFFFFFFFFFFFFFFF",
"FFFFFFFFFFFFFFFFFFFFFFFFFFFFFFFFFFFFFFFFFFFFFFFFFFFFFFFFFFFFFFFFFFFFFFFFFFFFFFFF",
"FFFFFFFFFFFFFFFFFFFFFFFFFFFFFFFFFFFFFFFFFFFFFFFFFFFFFFFFFFFFFFFFFFFFFFFFFFFFFFFF",
"FFFFFFFFFFFFFFFFFFFFFFFFFFFFFFFFFFFFFFFFFFFFFFFFFFFFFFFFFFFFFFFFFFFFFFFFFFFFFFFF",
"FFFFFFFFFFFFFFFFFFFFFFFFFFFFFFFFFFFFFFFFFFFFFFFFFFFFFFFFFFFFFFFFFFFFFFFFFFFFFFFF",
"FFFFFFFFFFFFFFFFFFFFFFFFFFFFFFFFFFFFFFFFFFFFFFFFFFFFFFFFFFFFFFFFFFFFFFFFFFFFFFFF",
"FFFFFFFFFFFFFFFFFFFFFFFFFFFFFFFFFFFFFFFFFFFFFFFFFFFFFFFFFFFFFFFFFFFFFFFFFFFFFFFF",
"FFFFFFFFFFFFFFFFFFFFFFFFFFFFFFFFFFFFFFFFFFFFFFFFFFFFFFFFFFFFFFFFFFFFFFFFFFFFFFFF",
"FFFFFFFFFFFFFFFFFFFFFFFFFFFFFFFFFFFFFFFFFFFFFFFFFFFFFFFFFFFFFFFFFFFFFFFFFFFFFFFF",
"FFFFFFFFFFFFFFFFFFFFFFFFFFFFFFFFFFFFFFFFFFFFFFFFFFFFFFFFFFFFFFFFFFFFFFFFFFFFFFFF",
"FFFFFFFFFFFFFFFFFFFFFFFFFFFFFFFFFFFFFFFFFFFFFFFFFFFFFFFFFFFFFFFFFFFFFFFFFFFFFFFF",
"FFFFFFFFFFFFFFFFFFFFFFFFFFFFFFFFFFFFFFFFFFFFFFFFFFFFFFFFFFFFFFFFFFFFFFFFFFFFFFFF",
"FFFFFFFFFFFFFFFFFCccDFmhVFFFFFFFFFFFFFFFFFFBvvFFFFZssFFFFFFFFFCkvFFFFFFFFFFFFFFF",
"FFFFFFFFFFFFFFFFCrOrSDq+hFFFFFFFFFFFFFFFFFZy<yDFFMt3jDFFFFFFFFl-4CFFFFFFFFFFFFFF",
"FFFFFFFFFFFFFFFFDhXrSFh6cFFFFFFFFFFFFFFFFFFv<yDFFvsNFFFFFFFFFFb4pSFFFFFFFFFFFFFF",
"ZNNNcCmzddcDFFZnnzOrSFVcVFFSnzvCFFFFFFCvlvSM<yDFNlssxSFFZxjxCFZbbDFFBxlnDZvspsBF",
"q5666mq56o6mFCiO@@XrDm05zFSfO..rNFFFFBt<3<bN<yDFs131&xFZp14%jSu2uZFv4::2BM:::*uZ",
"z5+qzANNZhozFzoinhOrSCq+zFv.7va.iDFFDa<xM8vN<yDFBMZx$sFb&jSjxDk-4SC44bx4BSnBB4>M",
"m56NFFDNcdohFaocFmO0SFd+zFa.hFN33BFFB3eAFNCM<yDFFBvg&pFb&pBDFFb-4Sv-sFSMSFZbx4>b",
"m56CFSd5ooohFi@mFmO0SFd+zFa.xFV33BFFM<iDFFFM<yDDj3$$$pFZs&1pNFb-4Sl-kFFFFM4;**>b",
"m56CFc 0chodDi@mFmO0SFd+zFa.xFV33BFFM<tDFFFM<yDN33ll&yDFSbp#pFb-4Sl-gFFFFs*pvu;b",
"m56CFzohFcodFaozDcO0SFd+zFh.fFn.7CFFC73MFDFN<tSb&pFM1tDblFC49Sb-4Sb-uCFDDu;MFu*v",
"h+5cFm66d0o0Nco606X6mVq+wZN7Oa7.hFFFFj,7ayBC3<yn33se$3bl1ss&sSs-2bSu-uppSs*up:*u",
"wqqhFFcwdcadNAd60dr0zcqqqmFmi7elSFFFFSxteaBFlepCMppxspbBsu9sCCpuukFCsuugAZkuskus",
"DDDDFFFFFFFFFFDCAFAADFDDDFFFSCZFFFFFFFFDSFFFFSDFFFFFFFFFFSSFFFDSSDFFFSDFFFFDFFFF",
"FFFFFFFFFFFFFFFFFFFFFFFFFFFFFFFFFFFFFFFFFFFFFFFFFFFFFFFFFFFFFFFFFFFFFFFFFFFFFFFF",
"nddnFDNzdzSFVhfcDDNxfaaxCFFFFFFFFFZbgpppsvZFFFFFFFFFFFFFFFFFFFFFFFFFFFFFFFFFFFFF",
"6+ 0md6oo@NFaXX@nh3.,,,,8bFFFFFFFnu%#---=;ubFFFFFFFFFFFFFFFFFFFFFFFFFFFFFFFFFFFF",
"++  6oooo@mSrXX.@...,,,,,8BFFFFFx1###---===:xFFFFFFFFFFFFFFFFFFFFFFFFFFFFFFFFFFF",
"++ oooooo6NSrXX.....,,,,,,lFFFFb1###2up9:==*:bFFFFFFFFFFFFFFFFFFFFFFFFFFFFFFFFFF",
"++ oooo@6aSSrXX...7aa3,,,,aFFFC8$##9bSFSv4=**9ZFFFFFFFFFFFFFFFFFFFFFFFFFFFFFFFFF",
"++ oo6hNBSFSrXX..aVFFn3,,,tDFFl$$#4MFFFFFb:***xFFFFFFFFFFFFFFFFFFFFFFFFFFFFFFFFF",
"++ o cFFFFFSrXX.7CFFFSe,,,8AFZ8$$#jFFFFFFSu***uDFFFFFFFFFFFFFFFFFFFFFFFFFFFFFFFF",
"++ o0AFFFFFSrXX.rSFFFDt,,,8ZFb1$$1MFFFFFFFs***4CFFFFFFFFFFFFFFFFFFFFFFFFFFFFFFFF",
"++ owFFFFFFSrXX.rSFFFDt,,,8ZFj$$$3BFFFFFFFk***:BFFFFFFFFFFFFFFFFFFFFFFFFFFFFFFFF",
"++ owFFFFFFSrXX.rSFFFDt,,,8ZFs$$$1jxxxxxxxu***>BFFFFFFFFFFFFFFFFFFFFFFFFFFFFFFFF",
"++ owFFFFFFSrXX.rSFFFDt,,,8ZDy$$$####---===***:BFFFFFFFFFFFFFFFFFFFFFFFFFFFFFFFF",
"++ owFFFFFFSrXX.rSFFFDt,,,8ZDt$$$####---===***4ZFFFFFFFFFFFFFFFFFFFFFFFFFFFFFFFF",
"++ owFFFFFFSrXX.rSFFFDy,,,8ZDy$$$####---===**>kFFFFFFFFFFFFFFFFFFFFFFFFFFFFFFFFF",
"++ owFFFFFFSrXX.rSFFFDy,,,8ZFy$$$1sjjjkkkkkklMDFFFFFFFFFFFFFFFFFFFFFFFFFFFFFFFFF",
"++ owFFFFFFSrXX.rSFFFDy,,,8ZFs$$$3VFFFFFFFFFFFFFFFFFFFFFFFFFFFFFFFFFFFFFFFFFFFFF",
"++ owFFFFFFSrXX.rSFFFDy,,,8ZFj$$$1MFFFFFFFFFFFFFFFFFFFFFFFFFFFFFFFFFFFFFFFFFFFFF",
"++ oaFFFFFFSrXX.rSFFFDi,,,eSFb&$$#lFFFFFFFFFFFFFFFFFFFFFFFFFFFFFFFFFFFFFFFFFFFFF",
"6+ ohFFFFFFFaXX.aFFFFFa,,,aFFC3$$#4BFFFFFFFFFFFFFFFFFFFFFFFFFFFFFFFFFFFFFFFFFFFF",
"mhdzCFFFFFFFBaiaNFFFFFBayaBFFFs$$##uMFFFFFFDMvCFFFFFFFFFFFFFFFFFFFFFFFFFFFFFFFFF",
"FFFFFFFFFFFFFFDDFFFFFFFFDFFFFFB3$###2svMMMxu:*kFFFFFFFFFFFFFFFFFFFFFFFFFFFFFFFFF",
"FFFFFFFFFFFFFFFFFFFFFFFFFFFFFFFl&####--:::=***kFFFFFFFFFFFFFFFFFFFFFFFFFFFFFFFFF",
"FFFFFFFFFFFFFFFFFFFFFFFFFFFFFFFDj1###---===**2MFFFFFFFFFFFFFFFFFFFFFFFFFFFFFFFFF",
"FFFFFFFFFFFFFFFFFFFFFFFFFFFFFFFFDv9%#---===;4bFFFFFFFFFFFFFFFFFFFFFFFFFFFFFFFFFF",
"FFFFFFFFFFFFFFFFFFFFFFFFFFFFFFFFFFClu2--:4uxCFFFFFFFFFFFFFFFFFFFFFFFFFFFFFFFFFFF",
"FFFFFFFFFFFFFFFFFFFFFFFFFFFFFFFFFFFFFFFFFFFFFFFFFFFFFFFFFFFFFFFFFFFFFFFFFFFFFFFF",
"FFFFFFFFFFFFFFFFFFFFFFFFFFFFFFFFFFFFFFFFFFFFFFFFFFFFFFFFFFFFFFFFFFFFFFFFFFFFFFFF",
"FFFFFFFFFFFFFFFFFFFFFFFFFFFFFFFFFFFFFFFFFFFFFFFFFFFFFFFFFFFFFFFFFFFFFFFFFFFFFFFF",
"FFFFFFFFFFFFFFFFFFFFFFFFFFFFFFFFFFFFFFFFFFFFFFFFFFFFFFFFFFFFFFFFFFFFFFFFFFFFFFFF",
"FFFFFFFFFFFFFFFFFFFFFFFFFFFFFFFFFFFFFFFFFFFFFFFFFFFFFFFFFFFFFFFFFFFFFFFFFFFFFFFF",
"FFFFFFFFFFFFFFFFFFFFFFFFFFFFFFFFFFFFFFFFFFFFFFFFFFFFFFFFFFFFFFFFFFFFFFFFFFFFFFFF",
"FFFFFFFFFFFFFFFFFFFFFFFFFFFFFFFFFFFFFFFFFFFFFFFFFFFFFFFFFFFFFFFFFFFFFFFFFFFFFFFF",
"FFFFFFFFFFFFFFFFFFFFFFFFFFFFFFFFFFFFFFFFFFFFFFFFFFFFFFFFFFFFFFFFFFFFFFFFFFFFFFFF",
"FFFFFFFFFFFFFFFFFFFFFFFFFFFFFFFFFFFFFFFFFFFFFFFFFFFFFFFFFFFFFFFFFFFFFFFFFFFFFFFF",
"FFFFFFFFFFFFFFFFFFFFFFFFFFFFFFFFFFFFFFFFFFFFFFFFFFFFFFFFFFFFFFFFFFFFFFFFFFFFFFFF",
"FFFFFFFFFFFFFFFFFFFFFFFFFFFFFFFFFFFFFFFFFFFFFFFFFFFFFFFFFFFFFFFFFFFFFFFFFFFFFFFF",
"FFFFFFFFFFFFFFFFFFFFFFFFFFFFFFFFFFFFFFFFFFFFFFFFFFFFFFFFFFFFFFFFFFFFFFFFFFFFFFFF",
"FFFFFFFFFFFFFFFFFFFFFFFFFFFFFFFFFFFFFFFFFFFFFFFFFFFFFFFFFFFFFFFFFFFFFFFFFFFFFFFF",
"FFFFFFFFFFFFFFFFFFFFFFFFFFFFFFFFFFFFFFFFFFFFFFFFFFFFFFFFFFFFFFFFFFFFFFFFFFFFFFFF",
"FFFFFFFFFFFFFFFFFFFFFFFFFFFFFFFFFFFFFFFFFFFFFFFFFFFFFFFFFFFFFFFFFFFFFFFFFFFFFFFF",
"FFFFFFFFFFFFFFFFFFFFFFFFFFFFFFFFFFFFFFFFFFFFFFFFFFFFFFFFFFFFFFFFFFFFFFFFFFFFFFFF",
"FFFFFFFFFFFFFFFFFFFFFFFFFFFFFFFFFFFFFFFFFFFFFFFFFFFFFFFFFFFFFFFFFFFFFFFFFFFFFFFF",
"FFFFFFFFFFFFFFFFFFFFFFFFFFFFFFFFFFFFFFFFFFFFFFFFFFFFFFFFFFFFFFFFFFFFFFFFFFFFFFFF",
"FFFFFFFFFFFFFFFFFFFFFFFFFFFFFFFFFFFFFFFFFFFFFFFFFFFFFFFFFFFFFFFFFFFFFFFFFFFFFFFF",
"FFFFFFFFFFFFFFFFFFFFFFFFFFFFFFFFFFFFFFFFFFFFFFFFFFFFFFFFFFFFFFFFFFFFFFFFFFFFFFFF",
"FFFFFFFFFFFFFFFFFFFFFFFFFFFFFFFFFFFFFFFFFFFFFFFFFFFFFFFFFFFFFFFFFFFFFFFFFFFFFFFF"
};
