/* XPM */
static char * Radio Intereconomia_xpm[] = {
"80 80 14 1",
" 	c None",
".	c #111310",
"+	c #2D2F2C",
"@	c #4B4C49",
"#	c #686865",
"$	c #898B88",
"%	c #ABABA7",
"&	c #E7C79F",
"*	c #CFCEC9",
"=	c #E7D4BE",
"-	c #F3E2C9",
";	c #E6E7E3",
">	c #FDF7E8",
",	c #FDFFFB",
"                                                                                ",
"                                                                                ",
"                                                                                ",
"                                                                                ",
"                                                                                ",
"                                                                                ",
"                                                                                ",
"                                                                                ",
"                                                                                ",
"                                                                                ",
"                                                                                ",
"                                                                                ",
"                                                                                ",
"                                                                                ",
"                                                                                ",
"                                                                                ",
"                                                                                ",
"                                                                                ",
"                                                                                ",
"                                                                                ",
"                                                                                ",
"                                                                                ",
"                                                                                ",
"                                                                                ",
"                                                                                ",
" ,,,,,,,,,,,,,,,,,,,,,,,,,,,,,,,,,,,,,,,,,,,,,,,,,,,,,,,,,,,,,,,,,,,,,,,,,,,,,, ",
" ,,,,,,,,,,,,,,,,,,,,,,,,,,,,,,,,,,,,,,,,,,,,,,,,,,,,,,,,,,,,,,,,,,,,,,,,,,,,,, ",
" ,,,,,,,,,,,,,,,,,,,,;;,,,,,,,,,,,,,,,,,,,,,,,,,,,,,,,,,,,,,,,,,,,,,,,,,,,,,,,, ",
" ,,,,,,,,,,,,,,,,,,,;#*%#%;;,,,,,,,,,,,,,,,,,,,,,,,,,,,,,,,,,,,,,,,,,,,,,,,,,,, ",
" ,,,,,,,,,,,,,,,,,,,;@$+..+@%,,**,,,,,,,,,,,,,,,,,,,,,,,,,,,,,,,,,,,,,,,,,,,,,, ",
" ,,,,,,,,,,,,,,,,,,,*+@..++.+,,$%,,,,,,,,,,,,,,,,,,,,,,,,,,,,,,,,,,,,,,,,,,,,,, ",
" ,,,,,,,,,,,,,,,,,,;@@+##@@##;%+*,,,,,,,,,,,,,,,,,,,,,,,,,,,,,,,,,,,,,,,,,,,,,, ",
" ,,,,,,,,,,,,,,,,,,$.@+.....+#+@;,,,,,,,,,,,,,,,,,,,,,,,,,,,,,,,,,,,,,,,,,,,,,, ",
" ,,,,,,,,,,,,,,,,,%..+#+......+*,,,,,,,,,,,,,,,,,,,,,,,,,,,,,,,,,,,,,,,,,,,,,,, ",
" ,,,,,,,,,,,,,,,,,#...+#.....#;,,,,,,,,,;%%,,,,,,,,,,,,,,,,,,,,,,,,,,,,,,,,,,,, ",
" ,,,,,,,,,,,,,,,,;+.+.++....+;,,;*;*;,;*%%*;*;,,,,,,,,,,,,,,,,,,,,,,,,,,,,,,,,, ",
" ,,,,,,,,,,,,,,,,%.#;@+@....#,,;#$$$#*$$@$%$$#;,,,,,,,,,,,,,,,,,,,,,,,,,,,,,,,, ",
" ,,,,,,,,,,,,,,,*+@;,*##...+*,,*$;%*#$%;#$$%,#*,,,,,,,,,,,,,,,,,,,,,,,,,,,,,,,, ",
" ,,,,,,,,,,,,,,*@.%,,,;*+...%,,%%*$$#$**$$$*,$;,,,,,,,,,,,,,,,,,,,,,,,,,;;,,,,, ",
" ,,,,,,,,,,,,,;@.+;,,,,,$+.@*,,$*$%%$#;%$$$;*$,,,,,,,,,,,,,,,,,,,,,,,,,%+%,,,,, ",
" ,,,>,,>,,,,,,>%#%;,>,>,,>;;,,;$;%$#$$##$%%$#*;,,,,,,,,,,,;;,,,,,,,,,,;#$,,,,,, ",
" ,,>=->&->>=-=&&&=-&&&&--&&==>*@@@+$;$++@*;%@@@*;##;;#$,*#@@%;$@$,,$@$%@*,*##;, ",
" ,,>&-=&&>-&-=&&&=-&&&&-&&-&&-$.@##*%+#$.#%+#$.#*..**.$;@+$++*+.#,*..$$+*,#.+*, ",
" ,,-&-&&&-&&>>&&>>-&>>,>&&>-&-#+;,,;@@,;@$@+;;@#$..%%.*$.*,$+%..#;#..%@+;*+@+*, ",
" ,,=&-&&&-&&,>&&>,&&--;-&&-&&-++$%%%.$,,;*+$,;+##++$$.*@@,,#+$.+@*+++*+@,#@$+*, ",
" ,>&&-&&&&&-,>&=,>&&&&=-&&&&-*+.++$%.%,,,%.%,*+#@@##@@*+#,;@@#+@@$+@@*.$*.$%.%, ",
" ,>&--&-&&&-,-&-,-&->>>&&--&=%+%,;;#+*,%%$+*,%.%+$$++#%+%,*+$@@$++$+#%.%#.#@.%, ",
" ,-&-&&>&&&>>-&-,-&-,,>&&>-&=$+*,,,#+;;@@$+*,@@%.%%..$%.%,$.%+$$.+%.$$+%+@#@.%, ",
" ,-&-&&>&&&>>=&>,=&=-->&&>-&-@.$$%;#.$$+%$.$$.$%+**..**.#$+@*+%$.$%+%@@#.*,*.%, ",
" ,-&-&->-&-,>=->>=&&&=-&->-&-#@@@#;*@+@%>;#+@%;%#;>@#;>$++$;%#*%#*$#*##@$>,*@%, ",
" ,-===-===-===-===-&&=======&=*======**======================================;, ",
" >--=------------------------------------------------------------------------;, ",
" ,,,,,,,,,,,,,,,,,,,,,,,,,,,,,,,,,,,,,,,,,,,,>,,,,,,,,,,,,,,,,,,,,,,,,>,,,,,,,, ",
" ,,,,,,,,,,,,,,,,,,,,,,,,,,,,,,,,,,,,,,,,,,,,,,,,,,,,,,,,,,,,,,,,,,,,,,,,,,,,,, ",
" ,,,,,,,,,,,,,,,,,,,,,,,,,,,,,,,,,,,,,,,,,,,,,,,,,,,,,,,,,,,,,,,,,,,,,,,,,,,,,, ",
"                                                                                ",
"                                                                                ",
"                                                                                ",
"                                                                                ",
"                                                                                ",
"                                                                                ",
"                                                                                ",
"                                                                                ",
"                                                                                ",
"                                                                                ",
"                                                                                ",
"                                                                                ",
"                                                                                ",
"                                                                                ",
"                                                                                ",
"                                                                                ",
"                                                                                ",
"                                                                                ",
"                                                                                ",
"                                                                                ",
"                                                                                ",
"                                                                                ",
"                                                                                ",
"                                                                                ",
"                                                                                "};
