/* XPM */
static char *Radio_Intereconom__a[] = {
/* columns rows colors chars-per-pixel */
"80 80 64 1",
"F c None",
"  c #18161A",
". c #1A171C",
"X c #1D1B20",
"o c #211E22",
"O c #222125",
"+ c #262529",
"@ c #29272B",
"# c #2E2C31",
"$ c #343438",
"% c #302F32",
"& c #3C3D41",
"* c #545559",
"= c #484B50",
"- c #6A757A",
"; c #686C70",
": c #5A6368",
"> c #3E4044",
", c #6F7C82",
"< c #77898F",
"1 c #5FC4DA",
"2 c #51BFD7",
"3 c #8B9397",
"4 c #949DA1",
"5 c #869BA1",
"6 c #99A3A7",
"7 c #91AAB0",
"8 c #A9B6B9",
"9 c #AAAFB2",
"0 c #B3BDC1",
"q c #9DBAC1",
"w c #B8C5C8",
"e c #BACDD1",
"r c #B9D2D8",
"t c #A9C9D0",
"y c #B6DBE3",
"u c #AAE8F4",
"i c #AAE5F1",
"p c #B5EDF8",
"a c #B8E9F3",
"s c #B8E2EA",
"d c #92D7E6",
"f c #C6C9CA",
"g c #C4D3D6",
"h c #D5D9DA",
"j c #C5CED1",
"k c #D3DEE1",
"l c #D7E5E8",
"z c #C5ECF3",
"x c #C6F4FD",
"c c #CBF5FE",
"v c #CEF8FE",
"b c #D2F6FE",
"n c #D3F8FE",
"m c #DBF9FE",
"M c #D9F2F6",
"N c #CCE8EE",
"B c #E3FAFE",
"V c #EBFBFE",
"C c #EBF2F4",
"Z c #F3FDFE",
"A c #FDFEFE",
"S c #F2F4F5",
"D c #E6E9EA",
/* pixels */
"FAAAAAAAAAAAAAAAAAAAAAAAAAAAAAAAAAAAAAAAAAAAAAAAAAAAAAAAAAAAAAAAAAAAAAAAAAAAAAAA",
"FAAAAAAAAAAAAAAAAAAAAAAAAAAAAAAAAAAAAAAAAAAAAAAAAAAAAAAAAAAAAAAAAAAAAAAAAAAAAAAA",
"FAAAAAAAAAAAAAAAAAAAAAAAAAAAAAAAAAAAAAAAAAAAAAAAAAAAAAAAAAAAAAAAAAAAAAAAAAAAAAAA",
"FAAAAAAAAAAAAAAAAAAAAAAAAAAAAAAAAAAAAAAAAAAAAAAAAAAAAAAAAAAAAAAAAAAAAAAAAAAAAAAA",
"FAAAAAAAAAAAAAAAAAAAAAAAAAAAAAAAAAAAAAAAAAAAAAAAAAAAAAAAAAAAAAAAAAAAAAAAAAAAAAAA",
"FAAAAAAAAAAAAAAAAAAAAAAAAAAAAAAAAAAAAAAAAAAAAAAAAAAAAAAAAAAAAAAAAAAAAAAAAAAAAAAA",
"FAAAAAAAAAAAAAAAAAAAAAAAAAAAAAAAAAAAAAAAAAAAAAAAAAAAAAAAAAAAAAAAAAAAAAAAAAAAAAAA",
"FAAAAAAAAAAAAAAAAAAAAAAAAAAAAAAAAAAAAAAAAAAAAAAAAAAAAAAAAAAAAAAAAAAAAAAAAAAAAAAA",
"FAAAAAAAAAAAAAAAAAAAAAAAAAAAAAAAAAAAAAAAAAAAAAAAAAAAAAAAAAAAAAAAAAAAAAAAAAAAAAAA",
"FAAAAAAAAAAAAAAAAAAAAAAAAAAAAAAAAAAAAAAAAAAAAAAAAAAAAAAAAAAAAAAAAAAAAAAAAAAAAAAA",
"FAAAAAAAAAAAAAAAAAAAAAAAAAAAAAAAAAAAAAAAAAAAAAAAAAAAAAAAAAAAAAAAAAAAAAAAAAAAAAAA",
"FAAAASSASSAAAAAZSAZSAAAAAAAAAAAAAAAAAAAAAAAAAAAAAAAAAAAAAAAAAAAAAAAAAAAAAAAAAAAA",
"FAAASfDSfDAAAAASfSSfSAAAAAAAAAAAAAAAAAAAAAAAAAAAAAAAAAAAAAAAAAAAAAAAAAAAAAAAAAAA",
"FAAADfSDfSAAZZAAfhAfhAAAAAAAAAAAAAAAAAAAAAAAAAAAAAAAAAAAAAAAAAAAAAAAAAAAAAAAAAAA",
"FAAAjhAjhAZzdsZADfADfZAAAAAAAAAAAAAAAAAAAAAAAAAAAAAAAAAAAAAAAAAAAAAAAAAAAAAAAAAA",
"FAASfDAfCAM121aASfSSfSAAAAAAAAAAAAAAAAAAAAAAAAAAAAAAAAAAAAAAAAAAAAAAAAAAAAAAAAAA",
"FAAS0SSfSAi222dZZfCZfCAAAAAAAAAAAAAAAAAAAAAAAAAAAAAAAAAAAAAAAAAAAAAAAAAAAAAAAAAA",
"FAAS8SSfSAd2221VAfCAjCAAAAAAAAAAAAAZCCCZAAAAAAAAAAAAAAAAAAAAAAAAAAAAAAAAAAAAAAAA",
"FAAS0SZfSAi222dZZfCZfCAAAAAAAAAAAAAh333kAAAAAAAAAAAAAAAAAAAAAAAAAAAAAAAAAAAAAAAA",
"FAAZfDZfDAM111zASfSCfSAAAAAAAAAAAAA8%O%fAAAAAAAAAAAAAAAAAAAAAAAAAAAAAAAAAAAAAAAA",
"FAAZhhAhhAZziaZAlfZlfZAZAAAAAAAAAAA8+ +0AAAAAAAAAAAAAAAAAAAAAAAAAAAAAAAAAAAAAAAA",
"FAAADfSDwSAZZZAZfhZfhAAAAAAAAAAAAAA8+ @0AAAAAAAAAAAAAAAAAAAAAAAAAAAAAAAAAAAAAAAA",
"FZAASjDZjDZZZZACjSCfCZZAZZZZZZZZZZA8+ @0AZZZZZZZZZZZZZZZZZZZZZZZZZZZZZAZAAAZZZZA",
"FZZZZCSZCSZZZZZSCZSCZZZZZAAZZZZZZZZ8+ @0ZZZZZZZZZZAAZZZZZZZZZZZZZZZAAZZZZZZZZZZA",
"FZZZZZZZZZZZAAZZZZZAAZZZZSCZZZZZZZA8@ @wAZZZZZZZZSCCZZZZZZZZZZAAAZZSCZZZZZZZZZZA",
"FZZZZZZZZZSkhhCZZZChhhSDw439hZZZZZD6+ +6hlZZZZZCj9339hSZZZZZZChhlSk939kZZZZZZZZA",
"FZZZZZZZZZh:**8ZZZ8**:w3&++#:fZZZC3=X .=*,DZZZD4=@O+#*9CZZZZZ8**;8;#+#;kZZZZZZZA",
"FZZZZZZZZZj%.O6ZZZ6+.#:#    X*hZZC;... ..*lZZD3#.    .$9SZZZZ4o.%*O   =hZZZZZZZA",
"FZZZZZZZZZg$ o6ZZZ6O .X      o3VZC;...   *lZZ9%        =jZZZZ6o ..    ;CZZZZZZZA",
"FZZZZZZZZZg$ o6ZZZ6+ ..+=*$.  *lZC;X.....*lZl*  .#==#. X,CZZZ6o ..X#++9ZZZZZZZZA",
"FZZZZZZZZZg$ o6ZZZ6O  @3jg9>  $jZC9:o o:<4DZ9@  $4jj4&  &gZZZ4o .O;94-hZZZZZZZZA",
"FVVVVVVVZZg% o6VZZ6O  *lZZC3. @8ZVC9+ +8DCVC-. +4CZZC3+ O6VZZ6O  *hVClCZZZZVVVVA",
"FVVVVVVVVZj% o6VVV6O .3VVVZ8O O6ZVZ8+ +wZZVl=  =hVVCVh= .<VVZ6O .3VVVZVVVVVVVVVA",
"FVVVVVVVVVj% o6VVV6O O9VVVZf% O4VVV8+ +0VVVg$ .=666666=  :CVV4o @8ZVVVVVVVVVVVVA",
"FVVVVVVVVVj$ o6VVV6O @0VVVVj$ O4VVV8+ +0VVVw# .o@@@++@o. *lVV4o $wVVVVVVVVVVVVVA",
"FVVVVVVVVVj$ o6VVV6O #wVVVVg$ O4VVV8+ +0VVV8@ .          =lVV4o $jVVVVVVVVVVVVVA",
"FVVVVVVVVVj$ o6VVV6O %eVVVVg$ O4VVV8+ +0VVV9@ .......... =kVV6o $jVVVVVVVVVVVVVA",
"FVVVVVVVVVj$ o6VVV6O $eVVVVg$ O4VVV8+ +0VVV8@ .*---------3lVV6O $jVVVVVVVVVVVVVA",
"FVVVVVVVVVj% o6VVV6O %eVVVVg$ O4VVV8+ +0VVVw# X3lllllllkllBVV4o $jVVVVVVVVVVVVVA",
"FBBBVBBVVVj% o6BBV6O %eVVBVg$ O4VBV8+ +0BBVj$ .,BVVVVVg4kBVBV4o $jVBBBBBBBBBBBBA",
"FBBBBBBBBBe% O6BBB6O %eVBBVg$ O4BBB8+ +0BBBl=  =kBBBBM3#;eBBB4O $eVBBBBBBBBBBBBA",
"FBBBBBBBBBe$ O6BBB6O %eVBBBg$ O4BBB8+ +0BBBM-. +4MBBBw& X;lBB4O $eBBBBBBBBBBBBBA",
"FBBBBBBBBBe$ O6BBB6O %eBBBBr$ O4BBB8+ +0BBBB6+  &6gg8*. .-MBB4O $eBBBBBBBBBBBBBA",
"FBBBBBBBBBe$ O6BBB6O %eBBBBr$ O4BBB8+ +0BBBBk*  .%*:>.  &wBBB4O $eBBBBBBBBBBBBBA",
"FBBBBBBBBBe% O6BBB6O %eBBBBr$ O4BBB8+ +0BBBBB7% .   .  +3MBBB4O $eBBBBBBBBBBBBBA",
"FBBBBBBBBBe% O6BBB6O %eBBBBe$ O5BBB8+ +0BBBBBN3#.     +-NBBBB4o $eBBBBBBBBBBBBBA",
"Fmmmmmmmmmg*==8mmB8==*gBmmBg:==9mmBw*=*wBmmmmmN3=@OO+&<kBmmBB9==:gBmmmmmmmmmmmmA",
"FmmmmmmmmmMgrrNmmmNrrgMmmmmMgrrNmmmMgrrMmmmmmmmMe4<<5wNmmmmmmNrrgMmmmmmmmmmmmmmA",
"FmmmmmmmmmmmmmmmmmmmmmmmmmmmmmmmmmmmmmmmmmmmmmmmmMMNMmmmmmmmmmBmmmmmmmmmmmmmmmmA",
"FmmmmmmmmmmmmmmmmmmmmmmmmmmmmmmmmmmmmmmmmmmmmmmmmmmmmmmmmmmmmmmmmmmmmmmmmmmmmmmA",
"FmmmmmmmmmmmmmmmmmmmmmmmmmmmmmmmmmmmmmmmmmmmmmmmmmmmmmmmmmmmmmmmmmmmmmmmmmmmmmmA",
"FmmmmmmmmmmmmmmmmmmmmmmmmmmmmmmmmmmmmmmmmmmmmmmmmmmmmmmmmmmmmmmmmmmmmmmmmmmmmmmA",
"FmmmmmmmmmmmmmmmmmmmmmmmmmmmmmmmmmmmmmmmmmmmmmmmmmmmmmmmmmmmmmmmmmmmmmmmmmmmmmmA",
"FnnnmnnnnnnbcccccccccccccccccbccccccccccccccccbccbccccccccccccccvvcccccnnnmnnnmA",
"FnnnnnnnnnvuiiiiiiiiiiiiiiiiiiiiiiiiiiiiiiiiiiiiiiiiiiiiiiiiiiiiiiiiiiicnnnnnnnA",
"FnnnnnnnnnbxxxxxxxxxxxxxxxxxxxxxxxxxxxxxxxxxxxxxxxxxxxxxxxxxxxxxxxxxxxxbnnnnnnnA",
"FnnnnnnnnnnnnnnnnnnnnnnnnnnnnnnnnnnnnnnnnnnnnnnnnnnnnnnnnnnnnnnnnnnnnnnnnnnnnnnA",
"FnnnnnnnnnnnnnnnnnnnnnnnnnnnnnnnnnnnnnnnnnnnnnnnnnnbnnnbnnnnnnnnnnnnnnnnbnnbnnnA",
"FbbbbbbbbnnbbbbbbbbbbbbbbbnbbbbbbbbbbbbbbbbbbbbbbbbbbbbbbbbbbnbbbbbbbbbbbbbbbnbA",
"FbbbbbbbbbcrrcbbbbbbbbbbbcNzbbbbbbbbbbbztrcbbbbbbbbbbcszbbbbbbbbbbbyqrbbbbbbbbbA",
"Fbbbbbbbbny--tbbbbbbbbbbbz5rnbbbbbbbbbb8:-7cbbbbbbbbbz5rnbbbbbbbbbr<-,tbbbbbbbbA",
"Fbbbbbbbbbr,5<cbbbbbbbbbbr=7vbbbbbbbbbb7<7-ybbbbbvbvvz<tnbbbbbbbbx5<t5<zbbbbbbbA",
"Fvvvvvvvvbr-<5cvvvvvvbvvv7;<zvvvvvvvvvv77z<qbvvvvvbvvz<tbvvvvvvvbs,tny,ybvbvvvvA",
"Fvvvvvvvvvr=*tvvvvvvvvvbz,<;yvvvvvvvvvv75x<7bvvvvvvvvz<tbvvvvvvvvs,rbz,rvcvvvvvA",
"Fvcccccvvvr;;tvvvcvvvvvbr:;*7vvvvvvvvvv75r-tvcvvvvvvvz<tvvvvcccvvz<7xq,zvcvvcccA",
"Fccccccccvr<5<zcccccccvc7<t5<zcccccvcvv7:-<zvccccccccz<tvcccccccccq-<-7ccccccccA",
"Fcccccccccstyqzccccccccctrvsqzccccccccct57yccccccccccxtsccccccccccz7<7zccccccccA",
"FccccccccccxcxccccccccccxcccxcccccccccccxccccccccccccccccccccccccccczxcccccccccA",
"FccccccccccccccccccccccccccccccccccccccccccccccccccccccccccccccccccccccccccccccA",
"FcccccccccccccccccccccxccccccccccccxccccxccccccccccccxccccccccccccccxccccccccccA",
"FccxxccccccccccccccccccccccccccccccccccccccccccccccccccccccccccccccccccccccccccA",
"FxxxxccccxxppppppppppppppppppppppppppppppppppppppppppppppppppppppppppppxcxcxxxxA",
"FxxxxxxxxxxuuuuuuuuuuuuuuuuuuuuuuuuuuuuuuuuuuuuuuuuuuuuuuuuuuuuuuuuuuuuxcxxxxxxA",
"FxxxxxxxxxxxxxxxxxxxxxxxxxxxxxxxxxxxxxxxxxxxxxxxxxxxxxxxxxxxxxxxxxxxxxxxxxxxxxxA",
"FxxxcxxxxxxxxxxxxxxxxxxxxxxxxxxxxxxxxxxxxxxxxxxxxxxxxxxxxxxxxxxxxxxxxxxxxxxxxxxA",
"FxxxcxxxxxxxxxxxxxxxxxxxxxxxxxxxxxxxxxxxxxxxxxxxxxxxxxxxxxxxxxxxxxxxxxxxxxxxxxxA",
"FxxxcxxxxxxxxxxxxxxxxxxxxxxxxxxxxxxxxxxxxxxxxxxxxxxxxxxxxxxxxxxxxxxxxxxxxxxxxxxA",
"FAAAAAAAAAAAAAAAAAAAAAAAAAAAAAAAAAAAAAAAAAAAAAAAAAAAAAAAAAAAAAAAAAAAAAAAAAAAAAAA",
"FAAAAAAAAAAAAAAAAAAAAAAAAAAAAAAAAAAAAAAAAAAAAAAAAAAAAAAAAAAAAAAAAAAAAAAAAAAAAAAA",
"FAAAAAAAAAAAAAAAAAAAAAAAAAAAAAAAAAAAAAAAAAAAAAAAAAAAAAAAAAAAAAAAAAAAAAAAAAAAAAAA"
};
