/* XPM */
static char *Radio_Intereconom__a[] = {
/* columns rows colors chars-per-pixel */
"80 80 199 2",
"   c #161317",
".  c #171519",
"X  c #19161A",
"o  c #1C191D",
"O  c #1F1D21",
"+  c #201E22",
"@  c #242226",
"#  c #262328",
"$  c #2A272B",
"%  c #2B2A2E",
"&  c #2D2C30",
"*  c #302F33",
"=  c #2F3135",
"-  c #323135",
";  c #34353A",
":  c #36383D",
">  c #3A393E",
",  c #3C3E42",
"<  c #404044",
"1  c #45464B",
"2  c #48474C",
"3  c #46484C",
"4  c #48484D",
"5  c #4D4F53",
"6  c #504F54",
"7  c #4E5054",
"8  c #495359",
"9  c #4E585E",
"0  c #515256",
"q  c #54565A",
"w  c #54595D",
"e  c #595A5F",
"r  c #575C60",
"t  c #5B5E62",
"y  c #5D6166",
"u  c #5C656A",
"i  c #5F6E73",
"p  c #616266",
"a  c #616569",
"s  c #64696C",
"d  c #696A6D",
"f  c #646E73",
"g  c #6A6F73",
"h  c #6E7175",
"j  c #65747A",
"k  c #6B767B",
"l  c #67797D",
"z  c #697A7F",
"x  c #707175",
"c  c #72767A",
"v  c #75797D",
"b  c #6C7D83",
"n  c #727C81",
"m  c #787E81",
"M  c #6F8187",
"N  c #6F8188",
"B  c #7D8285",
"V  c #72848A",
"C  c #74888E",
"Z  c #7D8A8E",
"A  c #778B92",
"S  c #7A8D93",
"D  c #7C9095",
"F  c #7D9298",
"G  c #4FBED6",
"H  c #51BFD7",
"J  c #51BFD8",
"K  c #56C1D8",
"L  c #58C2D9",
"P  c #69C7DD",
"I  c #6CC9DD",
"U  c #74CCDF",
"Y  c #818387",
"T  c #838689",
"R  c #868A8D",
"E  c #888A8E",
"W  c #828E92",
"Q  c #8F9295",
"!  c #829399",
"~  c #8B999D",
"^  c #959C9F",
"/  c #879EA5",
"(  c #899FA4",
")  c #979DA1",
"_  c #9A9DA0",
"`  c #88A0A6",
"'  c #8BA4AB",
"]  c #95A3A7",
"[  c #9BA2A6",
"{  c #93A5AB",
"}  c #99A4A9",
"|  c #91A9AF",
" . c #9BA9AD",
".. c #93ACB4",
"X. c #95B0B7",
"o. c #9FB0B5",
"O. c #96B2B9",
"+. c #9BB6BE",
"@. c #9BB8BF",
"#. c #A3A6A9",
"$. c #A2AAAD",
"%. c #A8ABAC",
"&. c #A2ADB1",
"*. c #AAADB0",
"=. c #A4B2B5",
"-. c #ADB1B4",
";. c #A2B4BA",
":. c #B5B6B8",
">. c #B4BBBD",
",. c #BCBDBE",
"<. c #9CB9C0",
"1. c #A2BFC5",
"2. c #AEBEC2",
"3. c #B2BDC1",
"4. c #B8BDC0",
"5. c #A1C0C7",
"6. c #AEC0C4",
"7. c #A6C5CD",
"8. c #AAC6CD",
"9. c #AAC8CF",
"0. c #B4C2C6",
"q. c #BBC2C4",
"w. c #B4C5C9",
"e. c #BDC6C9",
"r. c #BDC9CB",
"t. c #A7C8D0",
"y. c #ABCCD3",
"u. c #BACFD6",
"i. c #BAD0D5",
"p. c #B3D5DC",
"a. c #BDD4D8",
"s. c #84D2E4",
"d. c #8BD4E4",
"f. c #93D7E6",
"g. c #B6DAE2",
"h. c #BBDDE2",
"j. c #BDE0E6",
"k. c #BEE3EB",
"l. c #ACE7F3",
"z. c #ACE8F4",
"x. c #B0E7F3",
"c. c #BFE7F0",
"v. c #B4EBF6",
"b. c #BBECF6",
"n. c #C5C5C6",
"m. c #C4C6C8",
"M. c #C4C9CC",
"N. c #C8C9CA",
"B. c #C3CFD1",
"V. c #CECFD1",
"C. c #CDD2D4",
"Z. c #CED7D8",
"A. c #C3DADF",
"S. c #CCDADD",
"D. c #D3D4D4",
"F. c #D4D6D8",
"G. c #D5DBDC",
"H. c #DCDDDE",
"J. c #C5DDE2",
"K. c #CDDCE0",
"L. c #DADEE0",
"P. c #CCE1E5",
"I. c #C1E4EC",
"U. c #CFE5EA",
"Y. c #C4E8EF",
"T. c #DCE2E4",
"R. c #D3E5E9",
"E. c #DBE7E9",
"W. c #D2EAEE",
"Q. c #C5EBF3",
"!. c #CAEDF4",
"~. c #C8EFF8",
"^. c #D5EEF3",
"/. c #DBEEF2",
"(. c #C6F5FD",
"). c #CBF5FE",
"_. c #CEF8FE",
"`. c #D6F0F5",
"'. c #DDF1F5",
"]. c #D3F7FE",
"[. c #DAF6FC",
"{. c #D5F8FE",
"}. c #DCF9FE",
"|. c #E2E4E4",
" X c #E3EBEC",
".X c #EBECED",
"XX c #E3EFF2",
"oX c #EEEFF1",
"OX c #E4F1F4",
"+X c #EAF2F4",
"@X c #E3F5F8",
"#X c #EBF7F9",
"$X c #E4FAFE",
"%X c #EBFCFE",
"&X c #F2F3F4",
"*X c #F3F7F9",
"=X c #F4FDFE",
"-X c #FDFEFE",
";X c None",
/* pixels */
";X;X;X;X;X;X;X;X;X;X;X;X;X;X;X;X;X;X;X;X;X;X;X;X;X;X;X;X;X;X;X;X;X;X;X;X;X;X;X;X;X;X;X;X;X;X;X;X;X;X;X;X;X;X;X;X;X;X;X;X;X;X;X;X;X;X;X;X;X;X;X;X;X;X;X;X;X;X;X;X",
";X;X;X;X;X;X;X;X;X;X;X;X;X;X;X;X;X;X;X;X;X;X;X;X;X;X;X;X;X;X;X;X;X;X;X;X;X;X;X;X;X;X;X;X;X;X;X;X;X;X;X;X;X;X;X;X;X;X;X;X;X;X;X;X;X;X;X;X;X;X;X;X;X;X;X;X;X;X;X;X",
";X;X;X;X;X;X;X;X;X;X;X;X;X;X;X;X;X;X;X;X;X;X;X;X;X;X;X;X;X;X;X;X;X;X;X;X;X;X;X;X;X;X;X;X;X;X;X;X;X;X;X;X;X;X;X;X;X;X;X;X;X;X;X;X;X;X;X;X;X;X;X;X;X;X;X;X;X;X;X;X",
";X;X;X;X;X;X;X;X;X;X;X;X;X;X;X;X;X;X;X;X;X;X;X;X;X;X;X;X;X;X;X;X;X;X;X;X;X;X;X;X;X;X;X;X;X;X;X;X;X;X;X;X;X;X;X;X;X;X;X;X;X;X;X;X;X;X;X;X;X;X;X;X;X;X;X;X;X;X;X;X",
";X;X;X;X;X;X;X;X;X;X;X;X;X;X;X;X;X;X;X;X;X;X;X;X;X;X;X;X;X;X;X;X;X;X;X;X;X;X;X;X;X;X;X;X;X;X;X;X;X;X;X;X;X;X;X;X;X;X;X;X;X;X;X;X;X;X;X;X;X;X;X;X;X;X;X;X;X;X;X;X",
";X;X;X;X;X;X;X;X;X;X;X;X;X;X;X;X;X;X;X;X;X;X;X;X;X;X;X;X;X;X;X;X;X;X;X;X;X;X;X;X;X;X;X;X;X;X;X;X;X;X;X;X;X;X;X;X;X;X;X;X;X;X;X;X;X;X;X;X;X;X;X;X;X;X;X;X;X;X;X;X",
";X;X;X;X;X;X;X;X;X;X;X;X;X;X;X;X;X;X;X;X;X;X;X;X;X;X;X;X;X;X;X;X;X;X;X;X;X;X;X;X;X;X;X;X;X;X;X;X;X;X;X;X;X;X;X;X;X;X;X;X;X;X;X;X;X;X;X;X;X;X;X;X;X;X;X;X;X;X;X;X",
";X;X;X;X;X;X;X;X;X;X;X;X;X;X;X;X;X;X;X;X;X;X;X;X;X;X;X;X;X;X;X;X;X;X;X;X;X;X;X;X;X;X;X;X;X;X;X;X;X;X;X;X;X;X;X;X;X;X;X;X;X;X;X;X;X;X;X;X;X;X;X;X;X;X;X;X;X;X;X;X",
";X;X;X;X;X;X;X;X;X;X;X;X;X;X;X;X;X;X;X;X;X;X;X;X;X;X;X;X;X;X;X;X;X;X;X;X;X;X;X;X;X;X;X;X;X;X;X;X;X;X;X;X;X;X;X;X;X;X;X;X;X;X;X;X;X;X;X;X;X;X;X;X;X;X;X;X;X;X;X;X",
";X;X;X;X;X;X;X;X;X;X;X;X;X;X;X;X;X;X;X;X;X;X;X;X;X;X;X;X;X;X;X;X;X;X;X;X;X;X;X;X;X;X;X;X;X;X;X;X;X;X;X;X;X;X;X;X;X;X;X;X;X;X;X;X;X;X;X;X;X;X;X;X;X;X;X;X;X;X;X;X",
";X;X;X;X;X;X;X;X;X;X;X;X;X;X;X;X;X;X;X;X;X;X;X;X;X;X;X;X;X;X;X;X;X;X;X;X;X;X;X;X;X;X;X;X;X;X;X;X;X;X;X;X;X;X;X;X;X;X;X;X;X;X;X;X;X;X;X;X;X;X;X;X;X;X;X;X;X;X;X;X",
";X;X;X;X;X;X;X;X;X;X;X;X;X;X;X;X;X;X;X;X;X;X;X;X;X;X;X;X;X;X;X;X;X;X;X;X;X;X;X;X;X;X;X;X;X;X;X;X;X;X;X;X;X;X;X;X;X;X;X;X;X;X;X;X;X;X;X;X;X;X;X;X;X;X;X;X;X;X;X;X",
";X;X;X;X;X;X;X;X;X;X;X;X;X;X;X;X;X;X;X;X;X;X;X;X;X;X;X;X;X;X;X;X;X;X;X;X;X;X;X;X;X;X;X;X;X;X;X;X;X;X;X;X;X;X;X;X;X;X;X;X;X;X;X;X;X;X;X;X;X;X;X;X;X;X;X;X;X;X;X;X",
"-X-X-X-X-X-X-X-X-X-X-X-X-X-X-X-X-X-X-X-X-X-X-X-X-X-X-X-X-X-X-X-X-X-X-X-X-X-X-X-X-X-X-X-X-X-X-X-X-X-X-X-X-X-X-X-X-X-X-X-X-X-X-X-X-X-X-X-X-X-X-X-X-X-X-X-X-X-X-X-X",
"-X-X-X-X-X-X-X-X-X-X-X-X-X-X-X-X-X-X-X-X-X-X-X-X-X-X-X-X-X-X-X-X-X-X-X-X-X-X-X-X-X-X-X-X-X-X-X-X-X-X-X-X-X-X-X-X-X-X-X-X-X-X-X-X-X-X-X-X-X-X-X-X-X-X-X-X-X-X-X-X",
"-X-X-X-X-X-X-X-X-X-X-X-X-X-X-X-X-X-X-X-X-X-X-X-X-X-X-X-X-X-X-X-X-X-X-X-X-X-X-X-X-X-X-X-X-X-X-X-X-X-X-X-X-X-X-X-X-X-X-X-X-X-X-X-X-X-X-X-X-X-X-X-X-X-X-X-X-X-X-X-X",
"-X-X-X-X-X-X-X-X-X-X-X-X-X-X-X-X-X-X-X-X-X-X-X-X-X-X-X-X-X-X-X-X-X-X-X-X-X-X-X-X-X-X-X-X-X-X-X-X-X-X-X-X-X-X-X-X-X-X-X-X-X-X-X-X-X-X-X-X-X-X-X-X-X-X-X-X-X-X-X-X",
"-X-X-X-X-X-X-X-X-X-X-X-X-X-X-X-X-X-X-X-X-X-X-X-X-X-X-X-X-X-X-X-X-X-X-X-X-X-X-X-X-X-X-X-X-X-X-X-X-X-X-X-X-X-X-X-X-X-X-X-X-X-X-X-X-X-X-X-X-X-X-X-X-X-X-X-X-X-X-X-X",
"-X-X-X-X-X-X-X-X-X-X-X-X-X-X-X-X-X-X-X-X-X-X-X-X-X-X-X-X-X-X-X-X-X-X-X-X-X-X-X-X-X-X-X-X-X-X-X-X-X-X-X-X-X-X-X-X-X-X-X-X-X-X-X-X-X-X-X-X-X-X-X-X-X-X-X-X-X-X-X-X",
"-X-X-X-X|..X-X|.|.-X-X-X-X-X-XH.&X-X|..X-X-X-X-X-X-X-X-X-X-X-X-X-X-X-X-X-X-X-X-X-X-X-X-X-X-X-X-X-X-X-X-X-X-X-X-X-X-X-X-X-X-X-X-X-X-X-X-X-X-X-X-X-X-X-X-X-X-X-X-X",
"-X-X-X.X,.oX&X,..X-X-X*X-X-X-XH.n.*X|.n.*X-X-X-X-X-X-X-X-X-X-X-X-X-X-X-X-X-X-X-X-X-X-X-X-X-X-X-X-X-X-X-X-X-X-X-X-X-X-X-X-X-X-X-X-X-X-X-X-X-X-X-X-X-X-X-X-X-X-X-X",
"-X-X-XD.D.-XD.D.-X-X!.d.f.`.-X*Xn.|.-XN.|.-X-X-X-X-X-X-X-X-X-X-X-X-X-X-X-X-X-X-X-X-X-X-X-X-X-X-X-X-X-X-X-X-X-X-X-X-X-X-X-X-X-X-X-X-X-X-X-X-X-X-X-X-X-X-X-X-X-X-X",
"-X-X*X,..X-XN..X-X`.I H G U @X-XF.H.-X|.V.-X-X-X-X-X-X-X-X-X-X-X-X-X-X-X-X-X-X-X-X-X-X-X-X-X-X-X-X-X-X-X-X-X-X-X-X-X-X-X-X-X-X-X-X=X-X-X-X-X-X-X-X-X-X-X-X-X-X-X",
"-X-X-X:.&X-Xn.oX-Xc.K J J L ^.-XH.D.-X|.V.-X-X-X-X=X-X-X-X-X=X-X-X-X-X*X&X&X&X*X-X-X-X-X=X-X-X-X-X-X-X-X-X-X-X-X-X-X-X-X-X-X-X-X-X-X-X-X-X-X-X-X-X-X-X-X-X-X-X-X",
"*X-X*X,. X-Xm. X-X`.P H H U @X-XD.H.-XH.V.-X-X-X-X-X-X=X=X-X-X-X-X-X-Xm.d d x F.-X-X=X-X=X-X-X-X-X-X-X-X=X-X-X-X-X*X-X=X-X-X-X-X=X-X=X-X-X-X-X=X-X=X=X-X-X-X-X=X",
"-X-X-XD.F.-XD.C.-X=XQ.s.d.!.=X*Xn.|.-XN.H.-X=X-X=X-X=X-X-X-X-X=X=X-X-X%.X   @ n.-X-X-X-X-X=X=X-X=X-X=X=X-X-X=X=X-X-X-X=X-X=X-X=X-X-X-X=X-X=X-X=X-X-X-X-X=X=X-X-X",
"=X-X-X X,.oX+X,..X-X=X=X=X-X-XH.q.*X|.q.*X=X=X-X-X-X-X=X-X=X-X=X-X-X-X%.o X @ n.-X=X-X=X=X-X=X=X-X=X-X-X=X-X-X-X=X-X=X-X=X-X=X-X-X=X-X=X=X-X=X-X=X-X-X=X-X=X-X=X",
"=X=X-X=XH.T.-XT.L.=X=X-X=X-X=XF..X=XG..X-X=X-X=X=X=X=X-X=X-X=X-X=X=X-X$.o X @ m.=X-X=X-X-X=X=X-X=X=X=X=X-X=X=X-X-X=X-X=X=X=X-X=X=X-X=X=X-X=X=X-X=X=X=X-X=X-X-X=X",
"=X-X=X=X=X=X=X=X=X=X-X=X-X=X=X=X=X-X=X-X-X=X=X-X=X=X=X=X-X=X-X=X=X=X-X*.o X # m.-X-X=X=X=X-X=X-X-X=X=X=X-X=X-X=X=X-X=X=X=X=X-X-X-X=X-X-X=X=X=X-X-X=X=X=X=X=X=X=X",
"=X=X=X=X=X=X=X=X=X=XF.M.M.G.=X=X=X#XD.m.M.L.*XC.^ Y T %.H.=X=X=X=X*XF.E o X @ [ m.C.*X=X=X=X=X+Xm._ Y Y Q :.T.=X=X=X=X=X=X=XF.m.M.L.+X4.E Y #.G.*X=X=X=X=X=X=X=X",
"=X=X=X=X=X=X=X=X=XoXt $ % c +X=X=X Xq % % g Q > o X   o 2 *.=X=X=X.Xp @ o X o $ % w T.=X=X=XC.g * X X   X # 0 -.*X=X=X=X=XXXt % & d Y $ X X o p  X=X=X=X=X=X=X=X",
"=X=X=X=X=X=X=X=X=XXX5     s +X=X=X X2   X # +   X X X X   * 4.=X=X X0 X X X o     2 E.=X=XM.4 X   X X X X X   & [ %X=X=X=XoX5   X + o       o Y *X=X=X=X=X=X%X=X",
"=X=X%X=X=X=X%X=X=XXX0   X s +X=X=XE.4 X X X + 5 h d > o X X d @X=X Xp # X X o $ % w T.=XE.e X X X - p x 0 # X X - e.=X%X=X+X0 X X X O * 2 * < Z.=X=X=X%X=X%X=X=X",
"%X%X=X=X%X%X=X=X=X X0   X s OX=X=XE.4 . X o v E.%X#Xm.< X   < G.=X%XS.R o X @ [ r.C.#X%X[ O X X 0 M.#X#XXX^ % X X h +X=X%XOX5   . O t B. XB.>.#X=X%X%X=X=X=X%X=X",
"%X%X*X%X%X%X=X%X%XXX7     s OX%X%XE.4 X X > C.%X%X%X%Xv X   - M.%X%X=X$.o X @ e.=X%X%X@Xe X X - q.%X#X%X%XOXv o   > Z.=X=XXX5 X X & M.=X%X=X=X%X%X=X%X=X%X%X=X%X",
"=X%X%X%X%X=X%X%X%XXX7 X   s +X%X%XE.3 .   q OX%X=X%X%X) o   $ 0.=X%X%X$.o   @ e.=X%X%XG.> X X - x c c c c v q o X @ 4.%X%XXX5 X . 5 XX%X%X%X%X%X%X%X%X%X%X%X%X%X",
"%X%X%X%X%X%X%X%X%XXX7     s OX%X%XE.3 . . a @X%X%X%X%X[ O   % e.=X%X%X$.o X # w.%X%X%Xr.- X o X X           X X X o  .%X%XXX7   X p @X%X%X%X%X%X%X%X%X%X%X%X%X%X",
"%X%X%X%X#X%X$X%X%X/.7     s '.%X%XE.4 . . g %X%X%X%X%X[ O   & w.%X%X%X .o X # w.%X$X%Xw.%   X o o @ + O + O o O + + [ %X%X'.7   X s @X%X%X%X%X%X%X%X%X%X%X$X$X%X",
"$X%X#X#X%X%X%X$X%X/.7 X   s `.%X%XR.3 . . h $X%X$X%X%X[ @   % 0.%X%X%X .o X # w.%X%X%Xr.-   X t $.=. .o.&.o.$.=.=.$.S.%X%X/.7     f @X%X#X$X%X$X$X%X$X%X%X$X$X$X",
"%X$X$X$X$X%X$X%X$X/.7   X s '.%X%XR.3 . . g $X$X%X%X%X} + . % 0.%X%X%X$.o X @ w.$X%X%XK.>   X u '.%X%X%X%X%X@X;.i.%X%X%X$X'.7 X X s '.%X$X$X$X%X%X$X%X$X#X$X%X#X",
"#X$X$X$X$X$X%X$X$X/.7     s `.%X$XR.3 .   f %X%X%X$X%X] @   % 0.$X%X$X .o . @ w.%X%X$X'.y     & 0.$X$X%X$X$X=.= ; R P.$X%X/.7   . s [.$X$X$X$X$X$X$X$X$X%X$X$X$X",
"$X$X$X$X$X$X$X$X$X/.7     s `.%X%XU.3 X X f $X}.$X$X$X{ +   % 0.%X}.%X .O X @ w.}.$X}.%X .+ X X 3 2.^.`.W.;.> X   % 6.%X$X`.7   . s [.%X$X$X$X$X$X$X$X$X$X$X$X$X",
"}.$X$X$X$X$X$X$X$X`.7     s `.$X$XU.3 X X f $X$X}.$X%X] O X % 6.$X$X}. .o X @ w.$X$X$X$XW.y X X X % e h e $ X   o B [.$X@X`.7   X s [.$X$X}.$X$X$X$X$X$X$X$X$X$X",
"$X}.}.$X$X}.$X}.}.W.7     u `.$X}.U.3   X s $X}.$X}.$X{ o X % 6.$X$X}. .o . @ w.$X$X$X}.$Xa.0 o X X X   X X   + k W.}.@X}.`.5   . s '.}.$X$X$X}.$X}.$X}.$X}.}.$X",
"}.$X}.$X}.$X}.$X}.`.y % % k [.$X}.U.w = & z $X}.$X}.$X .; & , w.$X}.$Xo.- = : w.}.}.}.$X}.$XJ.n ; O o X X @ < ~ W.$X}.$X$X`.y % & k [.$X}.$X}.$X}.$X}.$X}.$X}.$X",
"}.}.}.}.}.}.}.}.}.[.A.i.i.J.[.}.}.[.a.i.i.P.}.}.}.}.}.W.i.i.a.`.}.}.}.W.i.i.a.`.}.}.$X}.}.}.}.[.a. .W Z ~ ;.P.[.}.}.}.}.}.}.A.i.i.J.}.}.}.}.}.}.}.}.}.}.}.}.}.}.",
"}.}.}.}.}.}.}.}.}.}.}.$X}.}.}.}.}.}.}.$X}.}.}.}.}.}.}.}.}.}.}.}.}.}.}.}.}.}.}.}.}.}.}.}.}.}.}.}.}.}.}.}.}.}.}.}.}.}.}.}.}.}.}.}.}.$X}.}.}.}.}.}.}.}.}.}.}.}.}.}.",
"[.}.}.}.[.}.}.[.}.}.}.}.}.}.}.}.}.}.}.}.}.}.}.}.}.}.{.}.}.}.}.}.}.}.}.}.}.}.}.}.}.}.}.}.}.}.}.}.}.{.}.}.}.}.}.}.}.}.}.}.}.}.}.}.[.}.}.}.}.}.}.}.}.}.[.}.}.}.}.}.",
"}.}.{.}.[.[.}.}.}.[.[.[.[.}.[.}.[.}.}.[.}.}.}.}.{.}.}.{.[.[.[.[.}.[.[.[.{.}.[.[.}.[.}.}.}.[.[.[.}.}.}.{.[.{.{.}.{.}.}.}.}.[.}.{.}.{.}.}.[.}.}.}.}.[.}.}.}.[.}.}.",
"{.}.[.{.{.[.{.{.{.{.{.[.{.{.{.{.{.[.{.{.{.{.{.[.{.[.[.{.[.[.{.{.{.{.{.[.{.[.{.{.{.{.].[.{.{.[.{.{.}.}.{.[.[.{.}.{.{.{.[.{.{.{.{.}.[.{.{.{.{.{.[.{.{.}.{.{.{.{.{.",
"[.{.{.{.[.{.{.{.{.{.b.l.x.x.x.x.x.x.x.l.l.x.x.x.x.x.z.x.x.x.x.l.l.x.x.x.x.l.x.x.l.x.x.x.l.x.x.x.x.x.z.z.x.x.x.x.x.x.x.x.x.x.x.x.x.x.x.l.l.x.x.x.].{.{.{.{.}.{.{.",
"{.{.{.{.{.{.{.{.{.{.].).].~.).).!.).).).).).).!.~.).).).).~.).).).).).).).).).).).).).!.).).).).].~.).).).).~.).).).~.).).~.).).~.).).).).).~.].].{.{.{.{.{.{.[.",
"{.{.].].].].].{.{.{.{.{.{.].].{.].].{.].{.].].].{.{.{.{.].{.].{.{.{.].].].{.{.{.{.].{.].[.].{.].{.{.].].].].].].].{.{.].{.{.{.{.].{.{.].].{.{.].{.].].].].].].].",
"].].].].].].].].].].].{.].].].].{.].{.].].].].].].{.].{.].].].].].].].].].].].).].].].]._.]._.].].].].].].].{.{.].].].].{.].].].].{.].].].].].{.].].].].].].].].",
").].].].).).].].].).+.' p.].].).{._.).].].).].{.].I.8.).].).].].].].].].{.].].p.( ..p.{.].].]._.).].].].).].p.y.].].].].].].].).{.).].I.{ F 5.).].].).].].].).).",
"].).).].].].].).].Q.j S k Q.).].).].].].).].).].]...9 j.).].].).).).].).).).{.' j ! k j._.].).].].).].)._.].' ! ].).).].).).].]._.{.Y.V D ..l O.).].].).).].].].",
").{.).).].)._._.).!.j S M Q.).)._._.).).{.).).{.c.M j | {.)._._.].).].).].]._.' ` ).V X._._.).].).{._._._._.| F ).].].).{.].).)._.{.5.k ~.].9.z ~._.).{._.)._._.",
").).]._.)._.)._.).Q.i 3 O.).)._._.)._.).].).)._.<.8 i u k._._._.].).).].).).).' ` ~.M X._.).)._.).).)._.)._.' F ).).).).).).).]._._.t.l Q._.5.z ~.{.).).)._._.).",
"_.).)._.)._.)._.).Q.n ' M k.)._.(._.).(.)._.).~.M ` 1.l +.).).).).).).).).).{.' i C M c._.)._.).).).)._.)._.' F ).)._._.)._.).)._.).Q.A V ` j @.).).).).).)._.).",
").).).).).).).).).).y.Q.t.j._.)._.)._._.).)._.Q.t.~._.g.p.).)._.).).).).).).).g...@.k._.).).).).)._.).).(._.j.p.).).).).).).).).).)._.b.O.' t.(.).).).)._.).(._.",
").).).).).).).).(.).).(.).).).).(._._._.).(.).(.).).).)._._.(.)._.(._.(.).(.).)._._.(.(.(.)._.(.).).(.).(._._._._.).(.(.).).).(.(._.(.).).).).).).).).).).).).).",
").).).(.(.).).(.).).(.(.(.).).(.(._.(.(.).).(.(.).(.).).(.(.).(.(.).(._.).).).).(.(.(._.).).(.).).).(.).(._.(.(.(.(._.(.(.).).).).(.).).(.).(.(.).).(.).(._.(.).",
").(.(.).).(.).).).(.(.(.(.(.(.(.b.(.(.b.(.(.(.(.(.b.(.(.b.(.(.(.(.(.b.(.(.b.(.(.(.(.(.b.(.(.b.(.(.b.(.(.b.(.(.b.(.(.b.(.(.(.(.(.b.(.(.(.(.(.(.(.(.).(.).).(._.(.",
"(.).(.(.).(.(.(.(.(.z.l.l.l.l.z.l.z.z.l.l.l.z.z.z.l.l.l.l.l.l.l.l.z.l.z.z.l.l.l.z.z.z.z.l.l.z.z.l.l.l.l.l.z.z.l.l.l.l.l.l.l.l.l.l.l.l.l.l.z.l.z.(.).(.(.(.(.(._.",
"(.(.(.(.).(.(.).(.).(.(.(.(.(.(.(.(.(.(.(.(.(.(.(.(.(.(.(.(.(.(.(.(.(.(.(.(.(.(.(.(.(.(.(.(.(.(.(.(.(.(.(.(.(.(.(.(.(.(.(.(.(.(.(.(.(.(.(.(.(.(.(.(.(.(._.(.(.(.",
"(.(.(.(.(.).).(.).(.(.(.(.(.(.).(.(.(.(.(.).(.(.(.(.(.(.(.(.).(.(.(.(.(.(.(.(.(.(.(.(.(.(.(.(.(.(.(.(.(.(.(.(.(.(.(.(.(.(.(.(.(.(.(.(.(.(.(.(.(.(.(.(.(.(.(.(.(.",
"(.(.(.).(.).(.(.).(.(.(.(.(.(.(.(.(.(.(.).(.).(.(.(.(.(.(.(.(.(.).(.(.(.(.).(.(.(.(.(.(.(.(.(.(.(.(.(.(.(.(.(.(.(.(.(._._.(.(.(.(.(._.(.(._.(.(.(.(.(.(.(.(.(.(.",
";X;X;X;X;X;X;X;X;X;X;X;X;X;X;X;X;X;X;X;X;X;X;X;X;X;X;X;X;X;X;X;X;X;X;X;X;X;X;X;X;X;X;X;X;X;X;X;X;X;X;X;X;X;X;X;X;X;X;X;X;X;X;X;X;X;X;X;X;X;X;X;X;X;X;X;X;X;X;X;X",
";X;X;X;X;X;X;X;X;X;X;X;X;X;X;X;X;X;X;X;X;X;X;X;X;X;X;X;X;X;X;X;X;X;X;X;X;X;X;X;X;X;X;X;X;X;X;X;X;X;X;X;X;X;X;X;X;X;X;X;X;X;X;X;X;X;X;X;X;X;X;X;X;X;X;X;X;X;X;X;X",
";X;X;X;X;X;X;X;X;X;X;X;X;X;X;X;X;X;X;X;X;X;X;X;X;X;X;X;X;X;X;X;X;X;X;X;X;X;X;X;X;X;X;X;X;X;X;X;X;X;X;X;X;X;X;X;X;X;X;X;X;X;X;X;X;X;X;X;X;X;X;X;X;X;X;X;X;X;X;X;X",
";X;X;X;X;X;X;X;X;X;X;X;X;X;X;X;X;X;X;X;X;X;X;X;X;X;X;X;X;X;X;X;X;X;X;X;X;X;X;X;X;X;X;X;X;X;X;X;X;X;X;X;X;X;X;X;X;X;X;X;X;X;X;X;X;X;X;X;X;X;X;X;X;X;X;X;X;X;X;X;X",
";X;X;X;X;X;X;X;X;X;X;X;X;X;X;X;X;X;X;X;X;X;X;X;X;X;X;X;X;X;X;X;X;X;X;X;X;X;X;X;X;X;X;X;X;X;X;X;X;X;X;X;X;X;X;X;X;X;X;X;X;X;X;X;X;X;X;X;X;X;X;X;X;X;X;X;X;X;X;X;X",
";X;X;X;X;X;X;X;X;X;X;X;X;X;X;X;X;X;X;X;X;X;X;X;X;X;X;X;X;X;X;X;X;X;X;X;X;X;X;X;X;X;X;X;X;X;X;X;X;X;X;X;X;X;X;X;X;X;X;X;X;X;X;X;X;X;X;X;X;X;X;X;X;X;X;X;X;X;X;X;X",
";X;X;X;X;X;X;X;X;X;X;X;X;X;X;X;X;X;X;X;X;X;X;X;X;X;X;X;X;X;X;X;X;X;X;X;X;X;X;X;X;X;X;X;X;X;X;X;X;X;X;X;X;X;X;X;X;X;X;X;X;X;X;X;X;X;X;X;X;X;X;X;X;X;X;X;X;X;X;X;X",
";X;X;X;X;X;X;X;X;X;X;X;X;X;X;X;X;X;X;X;X;X;X;X;X;X;X;X;X;X;X;X;X;X;X;X;X;X;X;X;X;X;X;X;X;X;X;X;X;X;X;X;X;X;X;X;X;X;X;X;X;X;X;X;X;X;X;X;X;X;X;X;X;X;X;X;X;X;X;X;X",
";X;X;X;X;X;X;X;X;X;X;X;X;X;X;X;X;X;X;X;X;X;X;X;X;X;X;X;X;X;X;X;X;X;X;X;X;X;X;X;X;X;X;X;X;X;X;X;X;X;X;X;X;X;X;X;X;X;X;X;X;X;X;X;X;X;X;X;X;X;X;X;X;X;X;X;X;X;X;X;X",
";X;X;X;X;X;X;X;X;X;X;X;X;X;X;X;X;X;X;X;X;X;X;X;X;X;X;X;X;X;X;X;X;X;X;X;X;X;X;X;X;X;X;X;X;X;X;X;X;X;X;X;X;X;X;X;X;X;X;X;X;X;X;X;X;X;X;X;X;X;X;X;X;X;X;X;X;X;X;X;X",
";X;X;X;X;X;X;X;X;X;X;X;X;X;X;X;X;X;X;X;X;X;X;X;X;X;X;X;X;X;X;X;X;X;X;X;X;X;X;X;X;X;X;X;X;X;X;X;X;X;X;X;X;X;X;X;X;X;X;X;X;X;X;X;X;X;X;X;X;X;X;X;X;X;X;X;X;X;X;X;X",
";X;X;X;X;X;X;X;X;X;X;X;X;X;X;X;X;X;X;X;X;X;X;X;X;X;X;X;X;X;X;X;X;X;X;X;X;X;X;X;X;X;X;X;X;X;X;X;X;X;X;X;X;X;X;X;X;X;X;X;X;X;X;X;X;X;X;X;X;X;X;X;X;X;X;X;X;X;X;X;X",
";X;X;X;X;X;X;X;X;X;X;X;X;X;X;X;X;X;X;X;X;X;X;X;X;X;X;X;X;X;X;X;X;X;X;X;X;X;X;X;X;X;X;X;X;X;X;X;X;X;X;X;X;X;X;X;X;X;X;X;X;X;X;X;X;X;X;X;X;X;X;X;X;X;X;X;X;X;X;X;X"
};
