/* XPM */
static char * Radio EITB_xpm[] = {
"80 80 14 1",
" 	c None",
".	c #000100",
"+	c #B90011",
"@	c #093E71",
"#	c #296088",
"$	c #CB535A",
"%	c #587D9D",
"&	c #809EB9",
"*	c #E2A9B0",
"=	c #A8C0D2",
"-	c #BFD1DC",
";	c #F2DDE0",
">	c #DDE5EE",
",	c #FEFFFC",
"                                                                                ",
"                                                                                ",
"                                                                                ",
"                                                                                ",
"                                                                                ",
"                                                                                ",
"                                                                                ",
"                                                                                ",
"                                                                                ",
"                                                                                ",
"                                                                                ",
"                                                                                ",
"                                                                                ",
"                                                                                ",
"                                                                                ",
"                                                                                ",
"                                                                                ",
"                                                                                ",
"                                                                                ",
"                                                                                ",
"                                                                                ",
"                                                                                ",
"                                              $$                                ",
"@@@@@@@@@@@ @@@@@@@@@                        ++$$                               ",
"@@@@@@@@@@  @@@@@@@@@                       +++++                @ @            ",
"@@@@@@@@    @@@@@@@@@                       $++++                @@@@           ",
"@@@@@@@@     @@@@@@@@                        $++$                @@@@           ",
"@@@@@@ @@@     @@@@@@                                   @        @@@@           ",
"@@@@    @@@@    @@@@@                                   @        @@@@           ",
"@@@@    @@@@@    @@@@                       $$$$$      @@        @@@@           ",
"@@@@@  @@@@@@@@   @@@                       $++++     @@@@       @@@@           ",
"@@@@@@@@@@@@@@@@   @@          @@@@@@       $++++    @@@@@@@@@@  @@@@@@@@@@@    ",
"@@@@@@@@@@@@@@@@    @         @@@@@@@@@     $++++   @@@@@@@@@@@  @@@@@@@@@@@@@  ",
"@@@@@@@@@@@@@@@@@    @       @@@@@ @@@@@    $++++  @@@@@@@@@@@@  @@@@@@@@@@@@@@ ",
"@@@@@@@@@@@@@@@@@           @@@@     @@@    $++++    @@@@@       @@@@@    @@@@@ ",
"@@@ @@@@@@@@@@@@@@         @@@@@      @@@   $++++     @@@        @@@@      @@@@@",
"      @@@@@@@@@@@@         @@@@@     @@@@   $++++    @@@@        @@@@      @@@@@",
"      @@@@  @@@@@@         @@@@@@@@@@@@@@   $++++    @@@@        @@@@       @@@@",
"    @@@@    @@@@@@         @@@@@@@@@@@@@@   $++++    @@@@@       @@@@       @@@@",
"   @@@@     @@@@@          @@@@@            $++++     @@@        @@@@      @@@@@",
" @@@@      @@@@@@          @@@@@            $++++    @@@@@       @@@@      @@@@@",
"@@@@       @@@@@            @@@@            $++++     @@@@       @@@@@     @@@@ ",
"@@@      @@@@@@             @@@@@@     @@   $++++     @@@@@@ @@  @@@@@@  @@@@@@ ",
"@       @@@@@@               @@@@@@@@@@@@   $$$$$     @@@@@@@@@  @@@@@@@@@@@@@  ",
"       @@@@@@                  @@@@@@@@@               @@@@@@@@  @@@@@ @@@@@    ",
"                                                                                ",
"                                                                                ",
"                                                                                ",
"                                                                                ",
"                                                                                ",
"                                                                                ",
"                                                                                ",
"                          ..  ..                       ..       ..              ",
"     ......               ..  ..                       .. ..    ..              ",
"     ..  ..               ..                              ..    ..              ",
"     ..  ..   .....   ......  ..  .......      .....   .. ....  ......          ",
"     ..  ..       ..  ..  ..  ..  ..   ..     ..   ..  .. ..    ...  ..         ",
"     .....    ......  ..  ..  ..  ..   ..     .......  .. ..    ..   ..         ",
"     .. ..   ..   ..  ..  ..  ..  ..   ..     ......   .. ..    ..   ..         ",
"     ..  ..  ..   ..  ..  ..  ..  ..   ..     ..       .. ..    ..   ..         ",
"     ..   ..  ......  ......  ..   .....       .....   ..  ...  ......          ",
"                                                                                ",
"                                                                                ",
"                                                                                ",
"                                                                                ",
"                                                                                ",
"                                                                                ",
"                                                                                ",
"                                                                                ",
"                                                                                ",
"                                                                                ",
"                                                                                ",
"                                                                                ",
"                                                                                ",
"                                                                                ",
"                                                                                ",
"                                                                                ",
"                                                                                ",
"                                                                                ",
"                                                                                "};
