/* XPM */
static char *RNE_[] = {
/* columns rows colors chars-per-pixel */
"80 80 64 1",
"F c None",
"  c #BE1526",
". c #BA1629",
"X c #B4182D",
"o c #B7172B",
"O c #A51D35",
"+ c #AB1B32",
"@ c #A31E38",
"# c #B01A30",
"$ c #A62039",
"% c #B62539",
"& c #CF0F1D",
"* c #DB0B15",
"= c #D30E1A",
"- c #D80D18",
"; c #CD101E",
": c #D9111C",
"> c #E8070D",
", c #E6080E",
"< c #E7070E",
"1 c #E20911",
"2 c #E80B11",
"3 c #E6131B",
"4 c #C31323",
"5 c #C91120",
"6 c #C71A29",
"7 c #D51823",
"8 c #D12734",
"9 c #E72B31",
"0 c #E51C23",
"q c #B93245",
"w c #C63C4B",
"e c #D03B48",
"r c #E93C42",
"t c #BD5062",
"y c #C84453",
"u c #D64752",
"i c #E64B52",
"p c #C35667",
"a c #D75863",
"s c #D56874",
"d c #E76C72",
"f c #EA6B71",
"g c #E55C64",
"h c #D77984",
"j c #E77B82",
"k c #E4848B",
"l c #EA949A",
"z c #F19599",
"x c #ED9CA1",
"c c #F2B7BA",
"v c #EBABB0",
"b c #D9919B",
"n c #EEBDC2",
"m c #F3BDC1",
"M c #F7D7D9",
"N c #F2C7CA",
"B c #F9EBEC",
"V c #F9E4E6",
"C c #FAEFF0",
"Z c #FCF4F4",
"A c #FEFEFE",
"S c #FCF7F8",
"D c #F8DEE0",
/* pixels */
"FAAAAAAAAAAAAAAAAAAAAAAAAAAAAAAAAAAAAAAAAAAAAAAAAAAAAAAAAAAAAAAAAAAAAAAAAAAAAAAA",
"FAAAAAAAAAAAAAAAAAAAAAAAAAAAAAAAAAAAAAAAAAAAAAAAAAAAAAAAAAAAAAAAAAAAAAAAAAAAAAAA",
"FAAAAAAAAAAAAAAAAAAAAAAAAAAAAAAAAAAAAAAAAAAAAAAAAAAAAAAAAAAAAAAAAAAAAAAAAAAAAAAA",
"FAAAAAAAAAAAAAAAAAAAAAAAAAAAAAAAAAAAAAAAAAAAAAAAAAAAAAAAAAAAAAAAAAAAAAAAAAAAAAAA",
"FAAAAAAAAAAAAAAAAAAAAAAAAAAAAAAAAAAAAAAAAAAAAAAAAAAAAAAAAAAAAAAAAAAAAAAAAAAAAAAA",
"FAAAAAAAAAAAAAAAAAAAAAAAAAAAAAAAAAAAAAAAAAAAAAAAAAAAAAAAAAAAAAAAAAAAAAAAAAAAAAAA",
"FAAAAAAAAAAAAAAAAAAAAAAAAAAAAAAAAAAAAAAAAAAAAAAAAAAAAAAAAAAAAAAAAAAAAAAAAAAAAAAA",
"FAAAAAAAAAAAAAAAAAAAAAAAAAAAAAAAAAAAAAAAAAAAAAAAAAAAAAAAAAAAAAAAAAAAAAAAAAAAAAAA",
"FAAAAAAAAAAAAAAAAAAAAAAAAAAAAAAAAAAAAAAAAAAAAAAAAAAAAAAAAAAAAAAAAAAAAAAAAAAAAAAA",
"FAAAAAAAAAAAAAAAAAAAAAAAAAAAAAAAAAAAAAAAAAAAAAAAAAAAAAAAAAAAAAAAAAAAAAAAAAAAAAAA",
"FAAAAAAAAAAAAAAAAAAAAAAAAAAAAAAAAAAAAAAAAAAAAAAAAAAAAAAAAAAAAAAAAAAAAAAAAAAAAAAA",
"FAAAAAAAAAAAAAAAAAAAAAAAAAAAAAAAAAAAAAAAAAAAAAAAAAAAAAAAAAAAAAAAAAAAAAAAAAAAAAAA",
"FAAAAAAAAAAAAAAAAAAAAAAAAAAAAAAAAAAAAAAAAAAAAAAAAAAAAAAAAAAAAAAAAAAAAAAAAAAAAAAA",
"FZbq%wvAAAASNkpwaMAAAAnu8yvSAAASMla866ekMAAAAAAAAAAAAAAAAAAVxi933139fNSAAAAAAAAA",
"Fb%#XXqNAAMhqo...hAAAMe4446vAAVh8555;;;5evSAAAAAAAAAAAAAASci:1111111,0fMAAAAAAAA",
"Fq+#XXXkANyooo...yZAAk 4444sAVa55555;;;;;7lAAAAAAAAAAAAAZk7**1111111,,<rNAAAAAAA",
"F%++#XXyNwXoooo..wVAZy 4444uVs4555555;;;;;8cAAAAAAAAAAAZj:***11111111,,>9NAAAAAA",
"F+++#XX%qXXoooo..wVABw 44446e64455555;;;;;=uBAAAAAAAAAAl:*****1111111,,>>9MAAAAA",
"F+++##XXXXXXoooo.wBABw  44444444555555;;;;&7cAAAAAAAAAc7******1111111,,<>>gZAAAA",
"F++++#XXXXXXoooo.yZABw  44444444455555;;;;;=dAAAAAAAAVi*******11111111,,>>2vAAAA",
"F++++#XXXXXXoooo.pSABw  44444444455555;;;;;&uZAAAAAAAl--******39r93111,,>>>rBAAA",
"F+++++#XXXXXXoooosAABw   44444444555555;;;;;8DAAAAAAD9--*****rvVZVci111,,>>2xAAA",
"F+++++#XXXXXXoooovAABw   44444446eu8555;;;;;7NAAAAAAl----***iMAAAAACd21,,>>>iZAA",
"F+++++##XXXXX#%qhZAABw    44444evVCNu55;;;;;7cAAAAABr----**9MAAAAAAAZg1,,<>>3cAA",
"F++++++#XXX%hnNMSAAABw    4444sDAAAAN855;;;;;vAAAAAc7----*:xAAAAAAAAAN01,,>>>fAA",
"F++++++#XXqvAAAAAAAABw.   444aBAAAAASs55;;;;;xAAAAAd=-----iBAAAAAAAAAAf1,,>>>rBA",
"F+++++++#%vAAAAAAAAABw.    46cAAAAAAAl555;;;;lAAAAVe=-----zAAAAAAAAAAAv21,<>>0NA",
"F+++++++#pZAAAAAAAAABw..   4wVAAAAAAAc555;;;;kAAAAm7==---8MAAAAAAAAAAAM01,,>>2zA",
"F+++++++#vAAAAAAAAAABw..    yCAAAAAAAc655;;;;kAAAAl===---iZAAAAAAAAAAABr1,,<>>gA",
"F+++++++%MAAAAAAAAAABw..    yCAAAAAAAc6555;;;kAAASg===---dAAAAAAAAAAAASi11,,>>rA",
"FO++++++yBAAAAAAAAAABw...   yCAAAAAAAc6555;;;kAAABe====--lAAAAAAAAAAAAAg11,,>>0A",
"FO++++++pSAAAAAAAAAABw...   yCAAAAAAAc65555;;kAAAM8====--xAAAAAAAAAAAAAf11,,<>3A",
"FO++++++pSAAAAAAAAAABw....  yCAAAAAAAn65555;;kAAAm7=====-vAAAAAAAAAAAAAf111,,>2A",
"FO++++++pSAAAAAAAAAABw....  yCAAAAAAAn65555;;kAAAv&======xAAAAAAAAAAAAAf111,,>2A",
"FO++++++pSAAAAAAAAAABw....  yCAAAAAAAn655555;kAAAl======-izzzzxxxxxxxxzr1111,,2A",
"F$O+++++pSAAAAAAAAAABw..... yCAAAAAAAn655555;kAAAk=======-----*******1111111,,2A",
"F$O+++++pSAAAAAAAAAABwo.... yCAAAAAAAn655555;kAAAd=======-----*******1111111,,2A",
"F$O+++++pSAAAAAAAAAABwo.... yCAAAAAAAn6555555kAAAd=======-----*******11111111,0A",
"F$OO++++pSAAAAAAAAAABwo.....yCAAAAAAAn6455555kAAAd&=======-----*******1111111,9A",
"F$OO++++pSAAAAAAAAAABwoo....yCAAAAAAAn6455555kAAAd;=======-----*******11111111gA",
"F$OOO+++pSAAAAAAAAAABwoo....yCAAAAAAAn6445555kAAAd;========----********1111112zA",
"F$OOO+++pSAAAAAAAAAABwoo....yCAAAAAAAn6445555kAAAd;&=======-----*******111111iVA",
"F$OOO+++pSAAAAAAAAAABwooo...yCAAAAAAAn6445555kAAAd;;=======-----*******11113iNAA",
"F$OOOO++pSAAAAAAAAAABwooo...yCAAAAAAAN6444555kAAAj;;&====edddddddfffffffffkmZAAA",
"F$OOOO++pSAAAAAAAAAABwoooo..yCAAAAAAAN6444555kAAAk;;;===7cAAAAAAAAAAAAAAAAAAAAAA",
"F$OOOO++pSAAAAAAAAAABwoooo..yCAAAAAAAN6444455kAAAl;;;===7cAAAAAAAAAAAAAAAAAAAAAA",
"F$OOOOO+pSAAAAAAAAAABwXooo..yCAAAAAAAN6444455kAAAx;;;&===vAAAAAAAAAAAAAAAAAAAAAA",
"F$@OOOO+pSAAAAAAAAAABwXoooo.yCAAAAAAAN6444455kAAAc5;;;===lAAAAAAAAAAAAAAAAAAAAAA",
"F$@OOOOOpSAAAAAAAAAABwXoooo.yCAAAAAAAN6444445kAAAN6;;;===kAAAAAAAAAAAAAAAAAAAAAA",
"F$@OOOOOpSAAAAAAAAAABwXXooooyCAAAAAAAN6444445kAAAV8;;;&==gAAAAAAAAAAAAAAAAAAAAAA",
"F$@@OOOOpSAAAAAAAAAAByXXooooyZAAAAAAAN6444445kAAAZu;;;;==eBAAAAAAAAAAAAAAAAAAAAA",
"F$@@OOOOpSAAAAAAAAAAZyXXooooyZAAAAAAAN6444444lAAAAd;;;;&=7cAAAAAAAAAAAAAAAAAAAAA",
"Fq@@OOOOhAAAAAAAAAAAAsXXXooosAAAAAAAAD8444446cAAAAx;;;;;==dSAAAAAAAAAAAAAAAAAAAA",
"Fp@@@OOObAAAAAAAAAAAAbXXXooobAAAAAAAAZy444448MAAAAN6;;;;==7cAAAAAAAAAAAAAAAAAAAA",
"FNt$@O$pVAAAAAAAAAAAAMqXXXo%NAAAAAAAAAl64444hAAAAABu;;;;&==uMAAAAAAAAAAAAAAAAAAA",
"FAVvbbcBAAAAAAAAAAAAAAnsyypxSAAAAAAAAAZxayuhBAAAAAAj;;;;;===gVAAAAAAAAAAAABczMAA",
"FAAAAAAAAAAAAAAAAAAAAAASZBZAAAAAAAAAAAAASCZAAAAAAAAm6;;;;&===uNAAAAAAAAAZvi:*gSA",
"FAAAAAAAAAAAAAAAAAAAAAAAAAAAAAAAAAAAAAAAAAAAAAAAAAAZu;;;;;====8jMZAAAABcg:***9MA",
"FAAAAAAAAAAAAAAAAAAAAAAAAAAAAAAAAAAAAAAAAAAAAAAAAAAAx5;;;;======8idjdgr7*****0NA",
"FAAAAAAAAAAAAAAAAAAAAAAAAAAAAAAAAAAAAAAAAAAAAAAAAAAAVu;;;;&=======-----******0MA",
"FAAAAAAAAAAAAAAAAAAAAAAAAAAAAAAAAAAAAAAAAAAAAAAAAAAAAx6;;;;=======-----******rBA",
"FAAAAAAAAAAAAAAAAAAAAAAAAAAAAAAAAAAAAAAAAAAAAAAAAAAAAZa;;;;========-----*****dAA",
"FAAAAAAAAAAAAAAAAAAAAAAAAAAAAAAAAAAAAAAAAAAAAAAAAAAAAAMe;;;&=======-----****7NAA",
"FAAAAAAAAAAAAAAAAAAAAAAAAAAAAAAAAAAAAAAAAAAAAAAAAAAAAAAc8;;;=======-----****fSAA",
"FAAAAAAAAAAAAAAAAAAAAAAAAAAAAAAAAAAAAAAAAAAAAAAAAAAAAAAAc8;;&=======-----**iVAAA",
"FAAAAAAAAAAAAAAAAAAAAAAAAAAAAAAAAAAAAAAAAAAAAAAAAAAAAAAAANu5;=======-----7dVAAAA",
"FAAAAAAAAAAAAAAAAAAAAAAAAAAAAAAAAAAAAAAAAAAAAAAAAAAAAAAAAABlu7=======--8gcSAAAAA",
"FAAAAAAAAAAAAAAAAAAAAAAAAAAAAAAAAAAAAAAAAAAAAAAAAAAAAAAAAAAAVvde7778rikNSAAAAAAA",
"FAAAAAAAAAAAAAAAAAAAAAAAAAAAAAAAAAAAAAAAAAAAAAAAAAAAAAAAAAAAAAAAAAAAAAAAAAAAAAAA",
"FAAAAAAAAAAAAAAAAAAAAAAAAAAAAAAAAAAAAAAAAAAAAAAAAAAAAAAAAAAAAAAAAAAAAAAAAAAAAAAA",
"FAAAAAAAAAAAAAAAAAAAAAAAAAAAAAAAAAAAAAAAAAAAAAAAAAAAAAAAAAAAAAAAAAAAAAAAAAAAAAAA",
"FAAAAAAAAAAAAAAAAAAAAAAAAAAAAAAAAAAAAAAAAAAAAAAAAAAAAAAAAAAAAAAAAAAAAAAAAAAAAAAA",
"FAAAAAAAAAAAAAAAAAAAAAAAAAAAAAAAAAAAAAAAAAAAAAAAAAAAAAAAAAAAAAAAAAAAAAAAAAAAAAAA",
"FAAAAAAAAAAAAAAAAAAAAAAAAAAAAAAAAAAAAAAAAAAAAAAAAAAAAAAAAAAAAAAAAAAAAAAAAAAAAAAA",
"FAAAAAAAAAAAAAAAAAAAAAAAAAAAAAAAAAAAAAAAAAAAAAAAAAAAAAAAAAAAAAAAAAAAAAAAAAAAAAAA",
"FAAAAAAAAAAAAAAAAAAAAAAAAAAAAAAAAAAAAAAAAAAAAAAAAAAAAAAAAAAAAAAAAAAAAAAAAAAAAAAA",
"FAAAAAAAAAAAAAAAAAAAAAAAAAAAAAAAAAAAAAAAAAAAAAAAAAAAAAAAAAAAAAAAAAAAAAAAAAAAAAAA",
"FAAAAAAAAAAAAAAAAAAAAAAAAAAAAAAAAAAAAAAAAAAAAAAAAAAAAAAAAAAAAAAAAAAAAAAAAAAAAAAA",
"FAAAAAAAAAAAAAAAAAAAAAAAAAAAAAAAAAAAAAAAAAAAAAAAAAAAAAAAAAAAAAAAAAAAAAAAAAAAAAAA",
"FAAAAAAAAAAAAAAAAAAAAAAAAAAAAAAAAAAAAAAAAAAAAAAAAAAAAAAAAAAAAAAAAAAAAAAAAAAAAAAA"
};
