/* XPM */
static char *RNE_[] = {
/* columns rows colors chars-per-pixel */
"80 80 113 2",
"   c #9B1F3B",
".  c #9D1F39",
"X  c #9F1E38",
"o  c #9C1F3A",
"O  c #AF192F",
"+  c #BB1427",
"@  c #BF1425",
"#  c #BD1426",
"$  c #BC1427",
"%  c #BC1527",
"&  c #BE1426",
"*  c #B5172B",
"=  c #B7162A",
"-  c #B4172C",
";  c #B91529",
":  c #BA1528",
">  c #BB1528",
",  c #B91629",
"<  c #B8162A",
"1  c #B3182C",
"2  c #B2182D",
"3  c #B3182D",
"4  c #B1182E",
"5  c #B0192E",
"6  c #A71B34",
"7  c #A11D37",
"8  c #A21D36",
"9  c #A31D36",
"0  c #A41C35",
"q  c #A61C34",
"w  c #AA1A31",
"e  c #AB1A31",
"r  c #A81B32",
"t  c #A91B32",
"y  c #A81B33",
"u  c #A01E38",
"i  c #9A203B",
"p  c #9B203B",
"a  c #99203C",
"s  c #9A203C",
"d  c #9A213D",
"f  c #CB0F1E",
"g  c #CC0F1D",
"h  c #D70B16",
"j  c #D70B17",
"k  c #D60C17",
"l  c #DF0911",
"z  c #DD0913",
"x  c #DE0912",
"c  c #DF0912",
"v  c #DE0913",
"b  c #D80B15",
"n  c #D90B15",
"m  c #DA0A14",
"M  c #DB0A14",
"N  c #DA0B15",
"B  c #D80B16",
"V  c #D90B16",
"C  c #DC0A14",
"Z  c #D80C16",
"A  c #D20D19",
"S  c #D30D19",
"D  c #D20E19",
"F  c #D10D1A",
"G  c #D20D1A",
"H  c #D10E1A",
"J  c #D00E1B",
"K  c #D50C18",
"L  c #D50D18",
"P  c #C8101F",
"I  c #C9101F",
"U  c #CA101E",
"Y  c #CB101E",
"T  c #CA111E",
"R  c #E7060D",
"E  c #E4070F",
"W  c #E5070F",
"Q  c #E6070E",
"!  c #EA050B",
"~  c #EB050B",
"^  c #ED0409",
"/  c #EF0408",
"(  c #EE0409",
")  c #ED040A",
"_  c #EC050A",
"`  c #ED050A",
"'  c #E8060C",
"]  c #E9060C",
"[  c #E8060D",
"{  c #E3080F",
"}  c #F00307",
"|  c #F20407",
" . c #F00308",
".. c #F10408",
"X. c #F20408",
"o. c #E10811",
"O. c #E20810",
"+. c #E00912",
"@. c #C31222",
"#. c #C21223",
"$. c #C31223",
"%. c #C21323",
"&. c #C51121",
"*. c #C71120",
"=. c #C61121",
"-. c #C41122",
";. c #C51122",
":. c #C41222",
">. c #C11324",
",. c #C01325",
"<. c #C21324",
"1. c #C81020",
"2. c None",
/* pixels */
"2.2.2.2.2.2.2.2.2.2.2.2.2.2.2.2.2.2.2.2.2.2.2.2.2.2.2.2.2.2.2.2.2.2.2.2.2.2.2.2.2.2.2.2.2.2.2.2.2.2.2.2.2.2.2.2.2.2.2.2.2.2.2.2.2.2.2.2.2.2.2.2.2.2.2.2.2.2.2.2.",
"2.2.2.2.2.2.2.2.2.2.2.2.2.2.2.2.2.2.2.2.2.2.2.2.2.2.2.2.2.2.2.2.2.2.2.2.2.2.2.2.2.2.2.2.2.2.2.2.2.2.2.2.2.2.2.2.2.2.2.2.2.2.2.2.2.2.2.2.2.2.2.2.2.2.2.2.2.2.2.2.",
"2.2.2.2.2.2.2.2.2.2.2.2.2.2.2.2.2.2.2.2.2.2.2.2.2.2.2.2.2.2.2.2.2.2.2.2.2.2.2.2.2.2.2.2.2.2.2.2.2.2.2.2.2.2.2.2.2.2.2.2.2.2.2.2.2.2.2.2.2.2.2.2.2.2.2.2.2.2.2.2.",
"2.2.2.2.2.2.2.2.2.2.2.2.2.2.2.2.2.2.2.2.2.2.2.2.2.2.2.2.2.2.2.2.2.2.2.2.2.2.2.2.2.2.2.2.2.2.2.2.2.2.2.2.2.2.2.2.2.2.2.2.2.2.2.2.2.2.2.2.2.2.2.2.2.2.2.2.2.2.2.2.",
"2.2.2.2.2.2.2.2.2.2.2.2.2.2.2.2.2.2.2.2.2.2.2.2.2.2.2.2.2.2.2.2.2.2.2.2.2.2.2.2.2.2.2.2.2.2.2.2.2.2.2.2.2.2.2.2.2.2.2.2.2.2.2.2.2.2.2.2.2.2.2.2.2.2.2.2.2.2.2.2.",
"2.2.2.2.2.2.2.2.2.2.2.2.2.2.2.2.2.2.2.2.2.2.2.2.2.2.2.2.2.2.2.2.2.2.2.2.2.2.2.2.2.2.2.2.2.2.2.2.2.2.2.2.2.2.2.2.2.2.2.2.2.2.2.2.2.2.2.2.2.2.2.2.2.2.2.2.2.2.2.2.",
"2.2.2.2.2.2.2.2.2.2.2.2.2.2.2.2.2.2.2.2.2.2.2.2.2.2.2.2.2.2.2.2.2.2.2.2.2.2.2.2.2.2.2.2.2.2.2.2.2.2.2.2.2.2.2.2.2.2.2.2.2.2.2.2.2.2.2.2.2.2.2.2.2.2.2.2.2.2.2.2.",
"2.2.2.2.2.2.2.2.2.2.2.2.2.2.2.2.2.2.2.2.2.2.2.2.2.2.2.2.2.2.2.2.2.2.2.2.2.2.2.2.2.2.2.2.2.2.2.2.2.2.2.2.2.2.2.2.2.2.2.2.2.2.2.2.2.2.2.2.2.2.2.2.2.2.2.2.2.2.2.2.",
"2.2.2.2.2.2.2.2.2.2.2.2.2.2.2.2.2.2.2.2.2.2.2.2.2.2.2.2.2.2.2.2.2.2.2.2.2.2.2.2.2.2.2.2.2.2.2.2.2.2.2.2.2.2.2.2.2.2.2.2.2.2.2.2.2.2.2.2.2.2.2.2.2.2.2.2.2.2.2.2.",
"2.2.2.2.2.2.2.2.2.2.2.2.2.2.2.2.2.2.2.2.2.2.2.2.2.2.2.2.2.2.2.2.2.2.2.2.2.2.2.2.2.2.2.2.2.2.2.2.2.2.2.2.2.2.2.2.2.2.2.2.2.2.2.2.2.2.2.2.2.2.2.2.2.2.2.2.2.2.2.2.",
"2.2.2.2.2.2.2.2.2.2.2.2.2.2.2.2.2.2.2.2.2.2.2.2.2.2.2.2.2.2.2.2.2.2.2.2.2.2.2.2.2.2.2.2.2.2.2.2.2.2.2.2.2.2.2.2.2.2.2.2.2.2.2.2.2.2.2.2.2.2.2.2.2.2.2.2.2.2.2.2.",
"2.2.2.2.2.2.2.2.2.2.2.2.2.2.2.2.2.2.2.2.2.2.2.2.2.2.2.2.2.2.2.2.2.7 r 2.2.2.2.2.G V 2.2.2.2.2.2.2.2.2.2.2.2.2.2.2.2.2.2.2.2.2.2.2.2.2.2.2.2.2.2.2.2.2.2.2.2.2.2.",
"2.2.2.2.2.2.2.2.2.2.2.2.2.2.2.2.2.2.2.2.2.2.2.2.2.2.2.2.2.2.2.d i 7 r 2.2.2.2.Y G V x 2.2.2.2.2.2.2.2.2.2.2.2.2.2.2.2.2.2.2.2.2.X.X.X.X.X.X.X.2.2.2.2.2.2.2.2.2.",
"2.2.2.2.2.2.2.2.2.2.2.2.2.2.2.2.2.2.2.2.2.2.2.2.2.2.2.2.2.2.2.d i 7 r 2.2.2.2.Y G V x 2.2.2.2.2.2.2.2.2.2.2.2.2.2.2.2.2.2.2.2.X.X.X.X.X.X.X.X.X.2.2.2.2.2.2.2.2.",
"2.2.2.2.2.2.2.2.2.2.2.2.2.2.2.2.2.2.2.2.2.2.2.2.2.2.2.2.2.2.2.2.i 7 r 2.2.2.2.2.G V 2.2.2.2.2.2.2.2.2.2.2.2.2.2.2.2.2.2.2.2.2.X.X.X.X.2.X.X.X.X.2.2.2.2.2.2.2.2.",
"2.2.2.2.2.2.2.2.2.2.2.2.2.2.2.2.2.2.2.2.2.2.2.2.2.2.2.2.2.2.2.2.i 7 r 2.2.2.2.2.2.2.2.2.2.2.2.2.2.2.2.2.2.2.2.2.2.2.2.2.2.2.2.2.X.2.2.2.2.X.X.X.2.2.2.2.2.2.2.2.",
"2.2.2.2.2.d d 2.d d d 2.2.d d d d d d d 2.2.2.2.2.2.2.d d d   a i 7 r 2.2.2.2.2.2.V 2.2.2.2.2.2.2.X.X.X.X.X.2.2.2.2.2.2.2.2.2.2.2.2.2.2.2.X.X.X.2.2.2.2.2.2.2.2.",
"2.2.2.d d d d d d d d 2.2.d d d d d d d d 2.2.2.2.2.d d d d d d i 7 r 2.2.2.&.Y G V x 2.2.2.2.2.X.X.X.X.X.X.X.2.2.2.2.2.2.2.2.2.2.2.2.2.2.X.X.X.2.2.2.2.2.2.2.2.",
"2.2.2.d d d d d d d d 2.2.d d 2.2.2.d d d 2.2.2.2.d d d d d d d i 7 r 2.2.2.&.Y G V x 2.2.2.2.X.X.X.X.X.X.X.X.X.2.2.2.2.2.2.2.2.2.2.2.2.X.X.X.X.2.2.2.2.2.2.2.2.",
"2.2.2.2.d d d d d 2.2.2.2.2.2.2.2.2.d d d d 2.2.2.d d d 2.2.2.2.i 7 r 2.2.2.2.g G V x 2.2.2.X.X.X.X.2.2.2.X.X.X.X.2.2.2.2.2.2.2.2.X.X.X.X.X.X.2.2.2.2.2.2.2.2.2.",
"2.2.2.2.d d d d 2.2.2.2.2.2.2.2.2.2.d d d d 2.2.2.d d d 2.2.2.2.i 7 r 2.2.2.2.g G V x 2.2.2.X.X.X.X.2.2.2.X.X.X.X.2.2.2.2.2.2.2.2.X.X.X.X.X.X.2.2.2.2.2.2.2.2.2.",
"2.2.2.2.d d d d 2.2.2.2.2.2.d d d d d d d d 2.2.d d d d 2.2.2.2.i 7 r 2.2.2.2.g G V x 2.2.2.X.X.X.2.2.2.2.X.X.X.X.2.2.2.2.2.2.2.2.2.X.X.X.X.X.X.2.2.2.2.2.2.2.2.",
"2.2.2.2.d d d d 2.2.2.2.2.d d d d d d d d d 2.2.d d d d 2.2.2.2.i 7 r 2.2.2.2.g G V x 2.2.2.X.X.X.2.2.2.2.2.X.X.X.2.2.2.2.2.2.2.2.2.2.2.2.X.X.X.2.2.2.2.2.2.2.2.",
"2.2.2.2.d d d d 2.2.2.2.d d d d d d d d d d 2.2.d d d d 2.2.2.2.i 7 r 2.2.2.2.g G V x 2.2.2.X.X.X.2.2.2.2.2.X.X.X.2.2.2.2.2.2.2.2.2.2.2.2.X.X.X.X.2.2.2.2.2.2.2.",
"2.2.2.2.d d d d 2.2.2.2.d d d 2.2.2.d d d d 2.2.d d d d 2.2.2.2.i 7 r 2.2.2.2.Y G h x 2.2.2.X.X.X.2.2.2.2.2.X.X.X.2.2.2.2.2.2.2.2.2.2.2.2.X.X.X.X.2.2.2.2.2.2.2.",
"2.2.2.2.d d d d 2.2.2.2.d d d 2.2.2.d d d d 2.2.d d d d 2.2.2.2.i 7 r 2.2.2.2.Y G V x 2.2.2.X.X.X.X.2.2.2.X.X.X.X.2.2.2.2.2.2.2.2.2.2.2.2.X.X.X.2.2.2.2.2.2.2.2.",
"2.2.2.2.d d d d 2.2.2.2.d d d 2.2.2.d d d d 2.2.2.d d d d 2.2.d i 7 r 2.2.2.2.Y G V x 2.2.2.| X.X.X.2.2.2.X.X.X.2.2.2.2.2.2.2.X.X.X.X.X.X.X.X.X.2.2.2.2.2.2.2.2.",
"2.2.2.d d d d d 2.2.2.2.d d d d d d d d d d d 2.2.d d d d d d d i 7 r O 2.2.2.Y G V x R 2.2.2.X.X.X.X.X.X.X.X.X.2.2.2.2.2.2.X.X.X.X.X.X.X.X.X.2.2.2.2.2.2.2.2.2.",
"2.2.2.d d d d d d 2.2.2.2.d d d d d 2.d d d d 2.2.2.d d d d d d o u r 4 2.2.&.Y G V x R 2.2.2.2.X.X.X.X.X.X.X.2.2.2.2.2.2.2.2.X.X.X.X.X.X.X.2.2.2.2.2.2.2.2.2.2.",
"2.2.2.2.2.2.2.2.2.2.2.2.2.2.2.2.2.2.2.2.2.2.2.2.2.2.2.d d 2.2.2.2.u 2.2.2.2.2.2.2.2.2.2.2.2.2.2.2.2.X.X.X.2.2.2.2.2.2.2.2.2.2.2.2.2.2.2.2.2.2.2.2.2.2.2.2.2.2.2.",
"2.2.2.2.2.2.2.2.2.2.2.2.2.2.2.2.2.2.2.2.2.2.2.2.2.2.2.2.2.2.2.2.2.2.2.2.2.2.2.2.2.2.2.2.2.2.2.2.2.2.2.2.2.2.2.2.2.2.2.2.2.2.2.2.2.2.2.2.2.2.2.2.2.2.2.2.2.2.2.2.",
"2.2.2.2.2.2.2.2.2.2.2.2.2.2.2.2.2.2.2.2.2.2.2.2.2.2.2.2.2.2.2.2.2.2.2.2.2.2.2.2.2.2.2.2.2.2.2.2.2.2.2.2.2.2.2.2.2.2.2.2.2.2.2.2.2.2.2.2.2.2.2.2.2.2.2.2.2.2.2.2.",
"2.2.2.2.2.2.2.2.2.2.2.2.2.2.2.2.2.2.2.2.2.2.2.2.2.2.2.2.2.2.2.2.2.2.2.2.2.2.2.2.2.2.2.2.2.2.2.2.2.2.2.2.2.2.2.2.2.2.2.2.2.2.2.2.2.2.2.2.2.2.2.2.2.2.2.2.2.2.2.2.",
"2.2.2.2.  . . 8 2.2.2.2.2.2.y y r e 2.2.2.2.2.2.4 * * 2.2.2.2.2.2.2.@ ,.,.$.&.&.2.2.2.2.2.2.2.2.2.2.2.2.2.2.2.2.2.2.2.2.+.+.+.+.O.{ { [ 2.2.2.2.2.2.2.2.2.2.2.2.",
"2.2.2.d   . . o u 2.2.2.q q 0 r r e e 2.2.2.4 * * * * = 2.2.2.% & & & ,.,.,.,.&.*.*.2.2.2.2.2.2.2.2.2.2.2.2.2.2.2.V V V v +.+.o.O.{ { [ [ [ 2.2.2.2.2.2.2.2.2.2.",
"2.2.2.d   . . 8 u 2.u q 0 q y y r e r 2.2.2.4 4 - * * * 2.2.% < % & ,.,.$.,.&.&.*.1.1.2.2.2.2.2.2.2.2.2.2.2.2.2.V V v v v +.+.o.O.{ { { [ [ [ [ 2.2.2.2.2.2.2.2.",
"2.2.2.d   . . o u u q u 0 q 0 y r r e 2.2.2.4 4 4 * * = < < & % % & ,.,.,.$.$.&.*.*.*.1.2.2.2.2.2.2.2.2.2.2.2.V V v V v v v +.o.O.O.{ [ [ [ [ [ ~ 2.2.2.2.2.2.2.",
"2.2.2.d     . o u u u 0 0 q r y e e e 2.2.2.4 4 4 = * = < < < @ % & & ,.,.&.$.&.*.*.*.1.2.2.2.2.2.2.2.2.2.2.k V V V V v v +.+.o.O.O.R { [ [ ~ ~ ~ ( 2.2.2.2.2.2.",
"2.2.2.d   . . 8 u 8 9 q 0 q y y r e e 2.2.2.4 * 4 - * = < < < % % & & ,.,.,.,.&.*.*.1.g g 2.2.2.2.2.2.2.2.L k k V V V v V +.2.2.2.O.R O.R [ [ ~ ~ ( ( 2.2.2.2.2.",
"2.2.2.d   . . o u 8 u 9 q q q r r e 2.2.2.2.4 4 4 - * = < < % & % @ ,.,.$.$.$.&.*.1.1.1.1.2.2.2.2.2.2.2.A L k k V V V v 2.2.2.2.2.2.2.R R [ [ ~ ~ ( ( 2.2.2.2.2.",
"2.2.2.i o o o o u 7 7 7 q q q r r 2.2.2.2.2.* 4 4 = * = < < % < 2.2.2.2.2.$.$.&.&.&.1.1.1.2.2.2.2.2.2.S G L L h V V V 2.2.2.2.2.2.2.2.2.R [ ( [ ~ ( ( ( 2.2.2.2.",
"2.2.2.d . o o u 7 7 7 q 2.2.2.2.2.2.2.2.2.2.4 4 4 = * = < < 2.2.2.2.2.2.2.,.$.&.&.1.1.1.g 2.2.2.2.2.2.G L j L h V V 2.2.2.2.2.2.2.2.2.2.2.[ [ [ ~ ( ( | 2.2.2.2.",
"2.2.2.i . o o u 7 7 7 2.2.2.2.2.2.2.2.2.2.2.4 * * 1 * = < < 2.2.2.2.2.2.2.2.$.&.&.1.1.1.1.2.2.2.2.2.G G G h h h V 2.2.2.2.2.2.2.2.2.2.2.2.2.[ [ ~ ~ ( ( X.2.2.2.",
"2.2.2.d   o o u 7 7 7 2.2.2.2.2.2.2.2.2.2.2.4 4 4 - * = < 2.2.2.2.2.2.2.2.2.$.&.&.1.1.Y g 2.2.2.2.2.G G G h L h V 2.2.2.2.2.2.2.2.2.2.2.2.2.[ ( ~ ( ( ( } 2.2.2.",
"2.2.2.d   . . o u 7 2.2.2.2.2.2.2.2.2.2.2.2.4 4 * - * = < 2.2.2.2.2.2.2.2.2.&.&.&.1.1.1.Y 2.2.2.2.2.G G G j L h V 2.2.2.2.2.2.2.2.2.2.2.2.2.~ ' ~ ( _ _ } 2.2.2.",
"2.2.2.    . . X u 7 2.2.2.2.2.2.2.2.2.2.2.2.4 4 4 - * = < 2.2.2.2.2.2.2.2.2.,.&.$.1.1.1.1.2.2.2.2.2.G G G j L h V 2.2.2.2.2.2.2.2.2.2.2.2.2.' ~ ~ ~ _ | } 2.2.2.",
"2.2.2.d   . . X u 7 2.2.2.2.2.2.2.2.2.2.2.2.4 * * * * = < 2.2.2.2.2.2.2.2.2.$.&.&.&.1.1.Y 2.2.2.2.G G G G j L j V 2.2.2.2.2.2.2.2.2.2.2.2.2.' ~ _ _ _ | | 2.2.2.",
"2.2.2.    . . X u 7 2.2.2.2.2.2.2.2.2.2.2.2.4 4 4 * * = < 2.2.2.2.2.2.2.2.2.$.&.1.1.1.1.1.2.2.2.2.G G G L j L j V 2.2.2.2.2.2.2.2.2.2.2.2.2.~ ~ ( _ _ _ | 2.2.2.",
"2.2.2.d   . . o 8 8 2.2.2.2.2.2.2.2.2.2.2.2.4 4 * 4 * * < 2.2.2.2.2.2.2.2.2.&.&.1.*.1.Y Y 2.2.2.2.g G G S K k h h m m C x x x O.O.O.[ O.[ [ ~ ~ ~ ~  .X.( 2.2.2.",
"2.2.2.d     . o o 8 2.2.2.2.2.2.2.2.2.2.2.2.4 4 * * * < < 2.2.2.2.2.2.2.2.2.&.&.&.1.1.1.1.2.2.2.2.G G L S S k h k m m m x x x O.O.O.O.[ [ [ [ [ ~ ~ ~ ( X.2.2.2.",
"2.2.2.d   . . X u 8 2.2.2.2.2.2.2.2.2.2.2.2.4 4 4 * * * < 2.2.2.2.2.2.2.2.2.,.&.$.1.1.1.Y 2.2.2.2.J G G S h k h V V m x v x O.O.O.O.O.O.[ [ [ ~ [ ( ^ X.( 2.2.2.",
"2.2.2.d   . . X u 8 2.2.2.2.2.2.2.2.2.2.2.2.4 * * * * < < 2.2.2.2.2.2.2.2.2.&.&.1.*.1.1.Y 2.2.2.2.J G G S k k h V m m m x x x x O.O.[ R [ [ [ ~ ( ( ( ( X.2.2.2.",
"2.2.2.i o o o 8 u u 2.2.2.2.2.2.2.2.2.2.2.2.4 4 4 * * = = 2.2.2.2.2.2.2.2.2.&.&.&.*.1.1.Y 2.2.2.2.J G S k S k h V V V V v v O.O.O.O.R R [ [ [ ( ~ ( ( X.2.2.2.2.",
"2.2.2.d . o o u u u 2.2.2.2.2.2.2.2.2.2.2.2.4 4 4 = * = = 2.2.2.2.2.2.2.2.2.,.&.$.1.1.1.1.2.2.2.2.J J G S k k h V V v v v x +.+.O.O.R O.R [ [ [ [ ( 2.2.2.2.2.2.",
"2.2.2.i   o o u u u 2.2.2.2.2.2.2.2.2.2.2.2.4 4 1 = * = < 2.2.2.2.2.2.2.2.2.&.&.*.*.1.1.Y 2.2.2.2.J G G S k k k V 2.2.2.2.2.2.2.2.2.2.2.2.2.2.2.2.2.2.2.2.2.2.2.",
"2.2.2.d   o o o u 8 2.2.2.2.2.2.2.2.2.2.2.2.4 * 1 * * = < 2.2.2.2.2.2.2.2.2.&.&.*.1.1.1.Y 2.2.2.2.J G G S S k k V 2.2.2.2.2.2.2.2.2.2.2.2.2.2.2.2.2.2.2.2.2.2.2.",
"2.2.2.    . . 8 u u 2.2.2.2.2.2.2.2.2.2.2.2.4 4 * * * * * 2.2.2.2.2.2.2.2.2.>.&.&.1.1.Y Y 2.2.2.2.G G S L G h h h 2.2.2.2.2.2.2.2.2.2.2.2.2.2.2.2.2.2.2.2.2.2.2.",
"2.2.2.d   . . o u 8 2.2.2.2.2.2.2.2.2.2.2.2.4 4 * * * , * 2.2.2.2.2.2.2.2.2.&.&.&.&.1.1.1.2.2.2.2.2.G G G h L h V 2.2.2.2.2.2.2.2.2.2.2.2.2.2.2.2.2.2.2.2.2.2.2.",
"2.2.2.d     . u u 8 2.2.2.2.2.2.2.2.2.2.2.2.4 4 4 * * * , 2.2.2.2.2.2.2.2.2.>.&.&.1.1.1.Y 2.2.2.2.2.G S h j L h V 2.2.2.2.2.2.2.2.2.2.2.2.2.2.2.2.2.2.2.2.2.2.2.",
"2.2.2.    . . u u 8 2.2.2.2.2.2.2.2.2.2.2.2.4 * 4 * * * , 2.2.2.2.2.2.2.2.2.&.&.&.1.1.Y 1.2.2.2.2.2.G G G G L h h V 2.2.2.2.2.2.2.2.2.2.2.2.2.2.2.2.2.2.2.2.2.2.",
"2.2.2.d   s . o u u 2.2.2.2.2.2.2.2.2.2.2.2.2.4 * * * * * 2.2.2.2.2.2.2.2.2.>.&.&.1.Y 1.Y 2.2.2.2.2.G G G h h h V V V 2.2.2.2.2.2.2.2.2.2.2.2.2.2.2.2.2.2.2.2.2.",
"2.2.2.2.2.. . u 2.2.2.2.2.2.2.2.2.2.2.2.2.2.2.4 4 * * = 2.2.2.2.2.2.2.2.2.2.2.&.&.&.1.1.2.2.2.2.2.2.2.G G j L h V v V v 2.2.2.2.2.2.2.2.2.2.2.2.2.2.2.2.2.2.2.2.",
"2.2.2.2.2.2.2.2.2.2.2.2.2.2.2.2.2.2.2.2.2.2.2.2.2.2.2.2.2.2.2.2.2.2.2.2.2.2.2.2.2.2.2.2.2.2.2.2.2.2.2.G G h j h V V V v v x 2.2.2.2.2.2.2.2.2.2.~ ~ ( ( 2.2.2.2.",
"2.2.2.2.2.2.2.2.2.2.2.2.2.2.2.2.2.2.2.2.2.2.2.2.2.2.2.2.2.2.2.2.2.2.2.2.2.2.2.2.2.2.2.2.2.2.2.2.2.2.2.2.G L j h V V V v v x x O.O.O.2.2.[ [ ] [ ~ ( ( X.X.2.2.2.",
"2.2.2.2.2.2.2.2.2.2.2.2.2.2.2.2.2.2.2.2.2.2.2.2.2.2.2.2.2.2.2.2.2.2.2.2.2.2.2.2.2.2.2.2.2.2.2.2.2.2.2.2.2.L L V V V v V x O.+.o.o.{ { R [ [ [ [ ~ ( ( ( 2.2.2.2.",
"2.2.2.2.2.2.2.2.2.2.2.2.2.2.2.2.2.2.2.2.2.2.2.2.2.2.2.2.2.2.2.2.2.2.2.2.2.2.2.2.2.2.2.2.2.2.2.2.2.2.2.2.2.2.L j V V V v v v +.o.o.{ { R R [ [ ~ ~ ( ( ( 2.2.2.2.",
"2.2.2.2.2.2.2.2.2.2.2.2.2.2.2.2.2.2.2.2.2.2.2.2.2.2.2.2.2.2.2.2.2.2.2.2.2.2.2.2.2.2.2.2.2.2.2.2.2.2.2.2.2.2.2.j V V v V v v O.o.o.{ R { [ [ [ ~ ~ ( ( X.2.2.2.2.",
"2.2.2.2.2.2.2.2.2.2.2.2.2.2.2.2.2.2.2.2.2.2.2.2.2.2.2.2.2.2.2.2.2.2.2.2.2.2.2.2.2.2.2.2.2.2.2.2.2.2.2.2.2.2.2.2.V V V v v v +.o.{ { { R [ [ [ ~ ~ ~ ( 2.2.2.2.2.",
"2.2.2.2.2.2.2.2.2.2.2.2.2.2.2.2.2.2.2.2.2.2.2.2.2.2.2.2.2.2.2.2.2.2.2.2.2.2.2.2.2.2.2.2.2.2.2.2.2.2.2.2.2.2.2.2.2.2.V v v +.v O.O.O.{ O.[ [ [ [ ~ 2.2.2.2.2.2.2.",
"2.2.2.2.2.2.2.2.2.2.2.2.2.2.2.2.2.2.2.2.2.2.2.2.2.2.2.2.2.2.2.2.2.2.2.2.2.2.2.2.2.2.2.2.2.2.2.2.2.2.2.2.2.2.2.2.2.2.2.2.2.v +.O.O.O.[ [ R [ 2.2.2.2.2.2.2.2.2.2.",
"2.2.2.2.2.2.2.2.2.2.2.2.2.2.2.2.2.2.2.2.2.2.2.2.2.2.2.2.2.2.2.2.2.2.2.2.2.2.2.2.2.2.2.2.2.2.2.2.2.2.2.2.2.2.2.2.2.2.2.2.2.2.2.2.2.2.2.2.2.2.2.2.2.2.2.2.2.2.2.2.",
"2.2.2.2.2.2.2.2.2.2.2.2.2.2.2.2.2.2.2.2.2.2.2.2.2.2.2.2.2.2.2.2.2.2.2.2.2.2.2.2.2.2.2.2.2.2.2.2.2.2.2.2.2.2.2.2.2.2.2.2.2.2.2.2.2.2.2.2.2.2.2.2.2.2.2.2.2.2.2.2.",
"2.2.2.2.2.2.2.2.2.2.2.2.2.2.2.2.2.2.2.2.2.2.2.2.2.2.2.2.2.2.2.2.2.2.2.2.2.2.2.2.2.2.2.2.2.2.2.2.2.2.2.2.2.2.2.2.2.2.2.2.2.2.2.2.2.2.2.2.2.2.2.2.2.2.2.2.2.2.2.2.",
"2.2.2.2.2.2.2.2.2.2.2.2.2.2.2.2.2.2.2.2.2.2.2.2.2.2.2.2.2.2.2.2.2.2.2.2.2.2.2.2.2.2.2.2.2.2.2.2.2.2.2.2.2.2.2.2.2.2.2.2.2.2.2.2.2.2.2.2.2.2.2.2.2.2.2.2.2.2.2.2.",
"2.2.2.2.2.2.2.2.2.2.2.2.2.2.2.2.2.2.2.2.2.2.2.2.2.2.2.2.2.2.2.2.2.2.2.2.2.2.2.2.2.2.2.2.2.2.2.2.2.2.2.2.2.2.2.2.2.2.2.2.2.2.2.2.2.2.2.2.2.2.2.2.2.2.2.2.2.2.2.2.",
"2.2.2.2.2.2.2.2.2.2.2.2.2.2.2.2.2.2.2.2.2.2.2.2.2.2.2.2.2.2.2.2.2.2.2.2.2.2.2.2.2.2.2.2.2.2.2.2.2.2.2.2.2.2.2.2.2.2.2.2.2.2.2.2.2.2.2.2.2.2.2.2.2.2.2.2.2.2.2.2.",
"2.2.2.2.2.2.2.2.2.2.2.2.2.2.2.2.2.2.2.2.2.2.2.2.2.2.2.2.2.2.2.2.2.2.2.2.2.2.2.2.2.2.2.2.2.2.2.2.2.2.2.2.2.2.2.2.2.2.2.2.2.2.2.2.2.2.2.2.2.2.2.2.2.2.2.2.2.2.2.2.",
"2.2.2.2.2.2.2.2.2.2.2.2.2.2.2.2.2.2.2.2.2.2.2.2.2.2.2.2.2.2.2.2.2.2.2.2.2.2.2.2.2.2.2.2.2.2.2.2.2.2.2.2.2.2.2.2.2.2.2.2.2.2.2.2.2.2.2.2.2.2.2.2.2.2.2.2.2.2.2.2.",
"2.2.2.2.2.2.2.2.2.2.2.2.2.2.2.2.2.2.2.2.2.2.2.2.2.2.2.2.2.2.2.2.2.2.2.2.2.2.2.2.2.2.2.2.2.2.2.2.2.2.2.2.2.2.2.2.2.2.2.2.2.2.2.2.2.2.2.2.2.2.2.2.2.2.2.2.2.2.2.2.",
"2.2.2.2.2.2.2.2.2.2.2.2.2.2.2.2.2.2.2.2.2.2.2.2.2.2.2.2.2.2.2.2.2.2.2.2.2.2.2.2.2.2.2.2.2.2.2.2.2.2.2.2.2.2.2.2.2.2.2.2.2.2.2.2.2.2.2.2.2.2.2.2.2.2.2.2.2.2.2.2."
};
