/* XPM */
static char * RNEC_xpm[] = {
"80 80 17 1",
" 	c None",
".	c #000100",
"+	c #020008",
"@	c #060000",
"#	c #0F0000",
"$	c #030B00",
"%	c #1A0000",
"&	c #370001",
"*	c #480000",
"=	c #560000",
"-	c #5F0000",
";	c #6B0000",
">	c #730000",
",	c #7D0100",
"'	c #8D0000",
")	c #980000",
"!	c #9F0000",
"                                                                                ",
"                                                                                ",
"                                                                                ",
"                                                                                ",
"                                                                                ",
"                                                                                ",
"                                                                                ",
"                                                                                ",
"                                                                                ",
"                                                                                ",
"                                                                                ",
"                                                                                ",
"                                                                                ",
"                                                                                ",
"                                                                                ",
"             ............                                                       ",
"            ..............                                                      ",
"            ...............                                                     ",
"           .................                                                    ",
"           .................                                                    ",
"           .................                                                    ",
"           .................                                                    ",
"          ......     .......                                         .......    ",
"          ......     .......                                        .........   ",
"          .....    .........                                        .........   ",
"         ......   .........                                        .........    ",
"         .....@  .......@.                                         .........    ",
"         ....@  ........@                                         ..........    ",
"        .....@  .......+                                          ..........    ",
"        ....@. @....+..@@@@@@+@        @@                        ...........    ",
"        ....@..#....++ @########@    .@##@.                     ............    ",
"       .....@@.....#.  @..#.##....  ..+#....                    ..... .....     ",
"       .............  @.....@.....  ..+.$...                   ...... .....     ",
"       ............   @.....#..... ..........                  ..... ......     ",
"      ...........@    #....+...... .........@                 ...... ......     ",
"      ...... ....@   .+........... ..........                ......  ......     ",
"      .....  .....   ....#  .....++...........               ......  ......     ",
"     .....@  @..... ......  @#....@.$$........              ......   ......     ",
"     ......   #..$. .....@  +#....+.$...+....@              ......   .....      ",
"     .....    ..... @.....  ..... @....  .....             ......   ......      ",
"     .....    .........#.  @...................            .....    ......      ",
"    ......    .........@.  ...................+           ......    ......      ",
"    .....      .......+@   ............+$.....+  =;-     ....................   ",
"   ......      ........@   ............+$....#@&-,!,;&   ....................   ",
"   ......       ........   ...........+..$$.+%%=!!!!!>   .$..................   ",
"   .....         ......    .................$@&,!!!!!,*  $...................   ",
"   .....          ...       ..@.............. -!!!!!!!-  ...................    ",
"                               ......         >!!!!!!!>  ...................    ",
"                               #............@#,!!!!!!!>            ......       ",
"                              ...............#>!!!!!!!>            ......       ",
"                              ..............@+;!!!!!!!;            ......       ",
"                              ..............@.=,!!!!!!=            ......       ",
"                              +##...........@  ;!!!!!,&           ......        ",
"                               .@........+..@  &,!!!,=            ......        ",
"                                @...........@   &>>;*             ......        ",
"                                                                  ......        ",
"                                                                                ",
"                                                                                ",
"                                                                                ",
"                                                                                ",
"                                                                                ",
"      .                                                                         ",
"     ...      .     .....     ..     .       .  .     .  .    ..  .     ..      ",
"    ..       ..       .       ..     .       .  .     .. .     . ..     ..      ",
"   ..        ...      .      ...     .       @  .     .. .     ...      ..      ",
"   ..        . .      .      ...     .       .  .     ....      ..     ....     ",
"   ..        ...      .      ....    .       .  .     . ..      .      ....     ",
"    .       .. ..     .      . ..    .       .  .     . ..      .      .  .     ",
"    ....    .  ..     .     ..  .    ...     ....     .  .      .      .  .     ",
"     ...    .   .     .         .     ...     ..      .  .      .               ",
"                                                                                ",
"                                                                                ",
"                                                                                ",
"                                                                                ",
"                                                                                ",
"                                                                                ",
"                                                                                ",
"                                                                                ",
"                                                                                ",
"                                                                                "};
