/* XPM */
static char *RNEC[] = {
/* columns rows colors chars-per-pixel */
"80 80 122 2",
"   c #9F1E39",
".  c #9F1F39",
"X  c #9D1F3A",
"o  c #9C1F3B",
"O  c #BD1527",
"+  c #BF1426",
"@  c #BE1526",
"#  c #B7172B",
"$  c #B4172C",
"%  c #B6172C",
"&  c #BB1628",
"*  c #BA1629",
"=  c #B8162A",
"-  c #B9162A",
";  c #B8172A",
":  c #BC1528",
">  c #B3182D",
",  c #B1192E",
"<  c #B2192E",
"1  c #A21D37",
"2  c #A31D37",
"3  c #A21E37",
"4  c #A31E37",
"5  c #A51D35",
"6  c #A71C34",
"7  c #A61C35",
"8  c #A61D35",
"9  c #A41D36",
"0  c #A91B33",
"q  c #AB1A32",
"w  c #AB1B32",
"e  c #AC1A31",
"r  c #AD1A31",
"t  c #AC1B31",
"y  c #AC1A32",
"u  c #A81B34",
"i  c #A81C34",
"p  c #A11E38",
"a  c #A01F38",
"s  c #A01E39",
"d  c #A01F39",
"f  c #A21E38",
"g  c #9B203B",
"h  c #9C203B",
"j  c #99213D",
"k  c #9A203C",
"l  c #9B203C",
"z  c #9A213D",
"x  c #CF0F1C",
"c  c #CE0F1D",
"v  c #CD0F1E",
"b  c #DF0912",
"n  c #DF0A12",
"m  c #DE0A13",
"M  c #DB0B15",
"N  c #D80B16",
"B  c #D90B16",
"V  c #DA0B16",
"C  c #DC0A14",
"Z  c #DD0A14",
"A  c #D90C16",
"S  c #D80C17",
"D  c #DA0C16",
"F  c #D30D1A",
"G  c #D10E1B",
"H  c #D20E1A",
"J  c #D30E1A",
"K  c #D50D18",
"L  c #D40D19",
"P  c #D60C18",
"I  c #D70C18",
"U  c #D70D18",
"Y  c #D00E1C",
"T  c #CB101E",
"R  c #CB111E",
"E  c #CA111F",
"W  c #CE101D",
"Q  c #CC101E",
"!  c #CD101E",
"~  c #E5070F",
"^  c #E6070E",
"/  c #E7070E",
"(  c #E6070F",
")  c #EB050B",
"_  c #EB060B",
"`  c #EE0409",
"'  c #EF0409",
"]  c #EF0509",
"[  c #ED050A",
"{  c #EC050B",
"}  c #EE050A",
"|  c #EC060B",
" . c #E9060C",
".. c #E8060D",
"X. c #E9060D",
"o. c #E8070D",
"O. c #EA060C",
"+. c #E5080F",
"@. c #F00408",
"#. c #F10408",
"$. c #F00409",
"%. c #E10911",
"&. c #E30810",
"*. c #E30910",
"=. c #E20911",
"-. c #E00912",
";. c #E10912",
":. c #E00A12",
">. c #E40810",
",. c #C71121",
"<. c #C71221",
"1. c #C51222",
"2. c #C41223",
"3. c #C41323",
"4. c #C61222",
"5. c #C11325",
"6. c #C31324",
"7. c #C21424",
"8. c #C01426",
"9. c #C91020",
"0. c #C81120",
"q. c None",
/* pixels */
"q.q.q.q.q.q.q.q.q.q.q.q.q.q.q.q.q.q.q.q.q.q.q.q.q.q.q.q.q.q.q.q.q.q.q.q.q.q.q.q.q.q.q.q.q.q.q.q.q.q.q.q.q.q.q.q.q.q.q.q.q.q.q.q.q.q.q.q.q.q.q.q.q.q.q.q.q.q.q.q.",
"q.q.q.q.q.q.q.q.q.q.q.q.q.q.q.q.q.q.q.q.q.q.q.q.q.q.q.q.q.q.q.q.q.q.q.q.q.q.q.q.q.q.q.q.q.q.q.q.q.q.q.q.q.q.q.q.q.q.q.q.q.q.q.q.q.q.q.q.q.q.q.q.q.q.q.q.q.q.q.q.",
"q.q.q.q.q.q.q.q.q.q.q.q.q.q.q.q.q.q.q.q.q.q.q.q.q.q.q.q.q.q.q.q.q.q.q.q.q.q.q.q.q.q.q.q.q.q.q.q.q.q.q.q.q.q.q.q.q.q.q.q.q.q.q.q.q.q.q.q.q.q.q.q.q.q.q.q.q.q.q.q.",
"q.q.q.q.q.q.q.q.q.q.q.q.q.q.q.q.q.q.q.q.q.q.q.q.q.q.q.q.q.q.q.q.q.q.q.q.q.q.q.q.q.q.q.q.q.q.q.q.q.q.q.q.q.q.q.q.q.q.q.q.q.q.q.q.q.q.q.q.q.q.q.q.q.q.q.q.q.q.q.q.",
"q.q.q.q.q.q.q.q.q.q.q.q.q.q.q.q.q.q.q.q.q.q.q.q.q.q.q.q.q.q.q.q.q.q.q.q.q.q.q.q.q.q.q.q.q.q.q.q.q.q.q.q.q.q.q.q.q.q.q.q.q.q.q.q.q.q.q.q.q.q.q.q.q.q.q.q.q.q.q.q.",
"q.q.q.q.q.q.q.q.q.q.q.q.q.q.q.q.q.q.q.q.q.q.q.q.q.q.q.q.q.q.q.q.q.q.q.q.q.q.q.q.q.q.q.q.q.q.q.q.q.q.q.q.q.q.q.q.q.q.q.q.q.q.q.q.q.q.q.q.q.q.q.q.q.q.q.q.q.q.q.q.",
"q.q.q.q.q.q.q.q.q.q.q.q.q.q.q.q.q.q.q.q.q.q.q.q.q.q.q.q.q.q.q.q.q.q.q.q.q.q.q.q.q.q.q.q.q.q.q.q.q.q.q.q.q.q.q.q.q.q.q.q.q.q.q.q.q.q.q.q.q.q.q.q.q.q.q.q.q.q.q.q.",
"q.q.q.q.q.q.q.q.q.q.q.q.q.q.q.q.q.q.q.q.q.q.q.q.q.q.q.q.q.q.q.q.q.q.q.q.q.q.q.q.q.q.q.q.q.q.q.q.q.q.q.q.q.q.q.q.q.q.q.q.q.q.q.q.q.q.q.q.q.q.q.q.q.q.q.q.q.q.q.q.",
"q.q.q.q.q.q.q.q.q.q.q.q.i u q.q.q.q.q.q.q.q.q.q.q.q.q.q.q.q.q.q.q.q.q.q.q.q.q.q.q.q.q.q.q.q.q.q.q.q.q.q.q.q.q.q.q.q.q.q.q.q.q.q.q.q.q.q.q.q.q.q.q.q.q.q.q.q.q.q.",
"q.q.q.q.q.q.q.q.q.q.q.q.6 u 0 q.q.q.q.q.q.q.q.q.q.q.q.q.q.q.k d 6 y q.q.q.q.4.4.4.q.q.q.q.q.q.q.q.q.q.q.q.q.q.q.q.q.q.q.q.q.q.q.q.q.q.q.q.^ ^ ^ O.q.q.q.q.q.q.q.",
"q.q.q.q.q.q.q.q.q.q.q.q.i 0 0 0 q.q.q.q.q.q.q.q.q.q.q.q.q.j j X 9 y q.q.q.q.6.4.4.4.q.q.q.q.q.q.q.q.q.q.q.q.q.q.q.q.q.q.q.q.q.q.q.q.q.q.q.^ O.O.^ q.q.q.q.q.q.q.",
"q.q.q.q.q.q.q.q.q.q.q.q.q.q.0 0 0 q.q.q.q.q.q.q.q.q.q.q.q.j j d 6 y q.q.q.q.6.6.4.4.q.q.q.q.q.q.q.q.q.q.q.q.q.q.q.q.q.q.q.q.q.q.q.q.q.q.>.^ >.O._ q.q.q.q.q.q.q.",
"q.q.q.q.q.q.q.q.q.q.q.q.q.q.q.q.y q.q.q.q.q.q.q.q.q.q.q.q.q.j d 9 y q.q.q.q.6.4.4.q.q.q.q.q.q.q.q.q.q.q.q.q.q.q.q.q.q.q.q.q.q.q.q.q.q.>.>.^ ^ O.^ q.q.q.q.q.q.q.",
"q.q.q.q.q.q.q.q.q.q.q.q.q.q.q.q.q.q.q.q.q.q.q.q.q.q.q.q.q.q.k d 9 y q.q.q.q.q.q.q.q.q.q.q.q.q.q.q.q.q.q.q.q.q.q.q.q.q.q.q.q.q.q.q.q.>.>.>.^ ^ ^ _ q.q.q.q.q.q.q.",
"q.q.k k q.q.k k k q.q.k k k k k j j q.q.q.q.q.q.q.j j j j j j d 6 y q.q.q.q.q.4.4.q.q.q.q.q.q.q.W G Y L L q.q.q.q.q.q.q.q.q.q.q.q.q.:.>.^ O.^ O.^ q.q.q.q.q.q.q.",
"j j k k j k k k k q.j j k k k k j k j q.q.q.q.q.j j j j j j j d 9 y q.q.q.6.6.6.4.q.q.q.q.q.W W x x G G L L q.q.q.q.q.q.q.q.q.q.q.:.>.>.q.q.O.^ _ q.q.q.q.q.q.q.",
"j j j j j j j j j q.q.j j q.q.j j j j q.q.q.q.j j j j j j j j d 9 y q.q.q.3.3.1.4.q.q.q.q.q.W W x G G L L L L q.q.q.q.q.q.q.q.q.:.>.>.q.q.q.^ O.O.q.q.q.q.q.q.q.",
"q.j j j j j q.q.q.q.q.q.q.q.q.q.j j j q.q.q.q.j j j j q.q.q.j d 6 y q.q.q.q.3.3.4.q.q.q.q.W 9.W x q.q.q.L L L K q.q.q.q.q.q.q.:.:.:.>.q.q.q.^ ^ O.q.q.q.q.q.q.q.",
"q.j j j j q.q.q.q.q.q.q.q.q.q.q.j j k j q.q.q.j j j q.q.q.q.k d 6 y q.q.q.q.4.4.4.q.q.q.q.9.x W q.q.q.q.L L K U q.q.q.q.q.q.q.:.:.>.q.q.q.q.^ O.O.q.q.q.q.q.q.q.",
"q.j k j j q.q.q.q.q.q.q.q.j j j j j j j q.q.q.j j j q.q.q.q.k d i i q.q.q.q.6.6.4.q.q.q.q.W 9.W q.q.q.q.L L K U q.q.q.q.q.q.:.:.:.q.q.q.q.q.^ O.^ q.q.q.q.q.q.q.",
"q.j j j j q.q.q.q.q.q.j j j j j j j j j q.q.j j j j q.q.q.q.j d 6 y q.q.q.q.6.3.4.q.q.q.q.W W W q.q.q.q.q.L K U q.q.q.q.q.Z :.:.:.q.q.q.q.>.^ ^ O.q.q.q.q.q.q.q.",
"q.j j j j q.q.q.q.q.j j j j j j j j j j q.q.j j j j q.q.q.q.j d 6 i q.q.q.q.4.4.4.q.q.q.q.9.W W q.q.q.q.q.L K U q.q.q.q.q.C Z :.:.>.>.>.>.>.O.O.O.O._ _ q.q.q.q.",
"q.j k j j q.q.q.q.q.k j j q.q.q.j j j k q.q.j j j j q.q.q.q.k d 6 y q.q.q.q.6.4.4.q.q.q.q.W 9.W q.q.q.q.q.L L K q.q.q.q.q.Z :.:.:.>.>.>.^ ^ ^ O.^ O._ _ q.q.q.q.",
"q.j j j j q.q.q.q.j j j j q.q.q.j j j j q.q.q.j j j q.q.q.q.j d 6 y q.q.q.q.6.4.4.q.q.q.q.9.W W q.q.q.q.L L L K q.q.q.q.q.Z Z :.:.:.>.>.>.^ >.O.O.O._ _ q.q.q.q.",
"q.j j j j q.q.q.q.j j j j q.q.q.j j j j q.q.q.j j j j q.q.q.k X 6 0 q.q.q.q.3.3.4.q.q.q.q.9.W Y x q.q.q.L L L U q.q.q.q.q.q.q.q.q.q.q.q.q.q.>.O.^ q.q.q.q.q.q.q.",
"q.j j j j q.q.q.q.q.j j j j j j j j j j q.q.q.j j j j j j j k d 6 0 q.q.q.q.3.3.4.4.q.q.q.q.9.W x x G L L L L q.q.q.q.q.q.q.q.q.q.q.q.q.q.q.O.^ _ q.q.q.q.q.q.q.",
"j j j j j j q.q.q.q.j j j j j j j j k j j q.q.j j j j j j j k d 6 y < q.q.3.3.4.4.0.4.q.q.q.G W x x G G L L q.q.q.q.q.q.q.q.q.q.q.q.q.q.q.q.^ O.O.q.q.q.q.q.q.q.",
"j k j j j j q.q.q.q.q.q.k j j q.q.j j j q.q.q.q.j j j k j q.q.X 6 0 < q.q.3.3.3.4.4.4.q.q.q.q.q.x G G G L q.q.q.q.q.q.q.q.q.q.q.q.q.q.q.q.q.O.^ ^ q.q.q.q.q.q.q.",
"q.q.q.q.q.q.q.q.q.q.q.q.q.q.q.q.q.q.q.q.q.q.q.q.q.q.q.q.q.q.q.q.q.q.q.q.q.q.q.q.q.q.q.q.q.q.q.q.q.q.q.q.q.q.q.q.q.q.q.q.q.q.q.q.q.q.q.q.q.q.q.q.q.q.q.q.q.q.q.q.",
"q.q.q.q.q.q.q.q.q.q.q.q.q.q.q.q.q.q.q.q.q.q.q.q.q.q.q.q.q.q.q.q.q.q.q.q.q.q.q.q.q.q.q.q.q.q.q.q.q.q.q.q.q.q.q.q.q.q.q.q.q.q.q.q.q.q.q.q.q.q.q.q.q.q.q.q.q.q.q.q.",
"q.q.q.q.q.q.q.q.q.q.q.q.q.q.q.q.q.q.q.q.q.q.q.q.q.q.q.q.q.q.q.q.q.q.q.q.q.q.q.q.q.q.q.q.q.q.q.q.q.q.q.q.q.q.q.q.q.q.q.q.q.q.q.q.q.q.q.q.q.q.q.q.q.q.q.q.q.q.q.q.",
"q.q.q.q.q.q.q.q.q.q.q.q.q.q.q.q.q.q.q.q.q.q.q.q.q.q.q.q.q.q.q.q.q.q.q.q.q.q.q.q.q.q.q.q.q.q.q.q.q.q.q.q.q.q.q.q.q.q.q.q.q.q.q.q.q.q.q.q.q.q.q.q.q.q.q.q.q.q.q.q.",
"q.l l l h 1 q.q.q.q.q.q.i 0 0 i q.q.q.q.q.q.< < % % q.q.q.q.q.q.q.@ 8.8.3.6.3.3.q.q.q.q.q.q.q.q.q.q.q.q.q.q.q.q.q.q.q.q.q.Z m :.:.>.>.>.^ ^ q.q.q.q.q.q.q.q.q.q.",
"k l h 1 h h 1 q.q.q.9 6 i i 0 y y q.q.q.q., < % % # $ q.q.q.: : @ @ 8.8.6.3.3.3.4.0.q.q.q.q.q.q.q.q.q.q.q.q.q.q.q.q.S C Z Z m :.:.:.>.>.^ ^ ^ O.q.q.q.q.q.q.q.q.",
"k l h h 1 h h q.1 9 6 6 i i 0 y y q.q.q.q., < < % % # = q.= : : @ @ @ 8.8.6.3.4.4.4.0.q.q.q.q.q.q.q.q.q.q.q.q.q.q.S C C Z Z m :.:.>.>.>.^ ^ ^ ^ O.O.q.q.q.q.q.q.",
"k l h h h 1 1 1 1 9 6 i i i i y y q.q.q.q., < < % % # = = : : : : @ 8.8.6.3.3.3.4.0.0.R q.q.q.q.q.q.q.q.q.q.q.q.S S S Z Z Z Z :.:.>.:.>.&.^ ^ O.O.O.O.q.q.q.q.q.",
"k l h h h 1 1 1 1 9 6 9 i 0 y y y q.q.q.q., < % < $ = = = : : : @ 8.8.8.6.3.3.3.4.0.0.0.0.q.q.q.q.q.q.q.q.q.q.S L M S M Z Z Z :.:.>.>.>.>.^ O.^ O.O._ [ q.q.q.q.",
"k l h h 1 h h 1 4 9 9 6 i i i y y q.q.q.q., < < $ $ $ = = : = : @ 8.8.8.8.3.3.3.4.4.0.0.Q q.q.q.q.q.q.q.q.q.L S S S M M M Z m m :.:.>.>.^ >.>.O.^ O._ _ [ q.q.q.",
"k l h 1 h 1 1 1 4 4 6 9 i 0 i y 0 q.q.q.q., < % $ $ = = = : : : @ @ @ 8.6.3.3.3.4.0.0.Q R q.q.q.q.q.q.q.q.L L L S M M M Z Z q.q.q.q.q.q.^ ^ O.^ O.O.O._ [ [ q.q.",
"k l l l h 1 h 1 4 4 6 6 i i i i q.q.q.q.q., < % $ $ = = = = : : q.q.q.q.6.3.3.3.4.0.0.0.0.q.q.q.q.q.q.q.q.L L S L M S M Z q.q.q.q.q.q.q.q.q.^ ^ O.O.O._ $.$.q.q.",
"k l l l 1 1 X 1 f 6 9 6 q.q.q.q.q.q.q.q.q.< < < % % $ = = : q.q.q.q.q.q.q.3.3.,.,.,.0.9.Q q.q.q.q.q.q.q.L L L U S M M M q.q.q.q.q.q.q.q.q.q.q.O.O._ _ [ _ $.$.q.",
"k l l l h 1 1 1 f 6 q.q.q.q.q.q.q.q.q.q.q.< < % % # = = = q.q.q.q.q.q.q.q.3.3.3.3.,.0.9.0.R q.q.q.q.q.L L L K L L M S q.q.q.q.q.q.q.q.q.q.q.q.^ O._ _ [ $._ $.q.",
"k l l 1 l 1 X 1 f q.q.q.q.q.q.q.q.q.q.q.q., < < $ $ $ = = q.q.q.q.q.q.q.q.q.3.3.,.,.0.9.R R q.q.q.q.q.G L L K A U M M q.q.q.q.q.q.q.q.q.q.q.q.q.O.O._ _ [ $.$.q.",
"k l h h 1 l 1 1 f q.q.q.q.q.q.q.q.q.q.q.q.< < < $ $ = = = q.q.q.q.q.q.q.q.q.3.3.,.,.0.9.Q Q q.q.q.q.q.G L L K L M U q.q.q.q.q.q.q.q.q.q.q.q.q.q.O.O._ _ _ $.$.#.",
"l l l X l 1 1 1 q.q.q.q.q.q.q.q.q.q.q.q.q., < < % % % = - q.q.q.q.q.q.q.q.q.3.3.,.,.0.0.Q Q q.q.q.q.G G L L L A U M q.q.q.q.q.q.q.q.q.q.q.q.q.q.^ O.O._ $.$.#.#.",
"l l l X 1 l l 1 q.q.q.q.q.q.q.q.q.q.q.q.q., < % % % $ = - q.q.q.q.q.q.q.q.q.3.3.3.,.0.0.Q Q q.q.q.q.G G L L K K U U q.q.q.q.q.q.q.q.q.q.q.q.q.q.O.O._ _ _ $.$.#.",
"l l l X l 1 1 1 q.q.q.q.q.q.q.q.q.q.q.q.q., < < % % % - - q.q.q.q.q.q.q.q.q.3.3.0.0.0.R R Q q.q.q.q.G L L L L U U M q.q.q.q.q.q.q.q.q.q.q.q.q.q.O._ _ _ _ $.$.#.",
"l l l l 1 X X 1 q.q.q.q.q.q.q.q.q.q.q.q.q.< < < % % % - - q.q.q.q.q.q.q.q.q.3.3.3.0.0.0.0.Q q.q.q.q.G G L L L U U A q.q.q.q.q.q.q.q.q.q.q.q.q.q.O._ _ _ $.$.$.#.",
"k l l l 1 1 l 1 q.q.q.q.q.q.q.q.q.q.q.q.q., < < $ $ = = : q.q.q.q.q.q.q.q.q.3.3.4.0.0.0.0.Q q.q.q.q.G G G L K L A A A Z Z Z Z :.:.>.>.>.+.+.O.+.O.O._ [ [ $.$.$.",
"k l l X l 1 1 1 q.q.q.q.q.q.q.q.q.q.q.q.q., < < $ $ # = = q.q.q.q.q.q.q.q.q.3.4.4.0.0.0.Q Q q.q.q.q.G L L L K A A A A Z M Z Z :.:.:.>.>.+.+.+.O.^ [ O.[ [ $.$.$.",
"l l l X 1 l X 1 q.q.q.q.q.q.q.q.q.q.q.q.q., < < $ $ # = = q.q.q.q.q.q.q.q.q.3.3.4.0.0.Q Q Q q.q.q.q.G G L L L A A A M A Z Z Z :.:.>.>.>.+.^ O.^ ^ O._ [ [ $.$.$.",
"l l X X X X 1 1 q.q.q.q.q.q.q.q.q.q.q.q.q., < % $ $ = = = q.q.q.q.q.q.q.q.q.3.3.3.,.0.0.0.Q q.q.q.q.G G L L L L L A A Z Z Z Z :.:.:.>.>.+.^ +.O.^ O.O.[ $.$.$.$.",
"l l l X X p 4 4 q.q.q.q.q.q.q.q.q.q.q.q.q., < < $ # # = = q.q.q.q.q.q.q.q.q.3.3.0.3.R 0.Q Q q.q.q.q.G L L L L A U A A M Z Z m m >.:.>.>.+.^ ^ O.[ O._ [ [ $.$.q.",
"k l l X X p X 1 q.q.q.q.q.q.q.q.q.q.q.q.q., < $ $ $ # = = q.q.q.q.q.q.q.q.q.3.3.4.0.0.R 9.Q q.q.q.q.G G G L L A U U M M M Z m :.:.:.>.>.+.^ ^ ^ ^ O.[ [ [ [ q.q.",
"k l l X X 4 X 4 q.q.q.q.q.q.q.q.q.q.q.q.q., < < $ = = = = q.q.q.q.q.q.q.q.q.3.4.4.0.0.0.Q Q q.q.q.q.G G L L L L A M q.q.q.q.q.q.q.q.q.q.q.q.q.q.q.q.q.q.q.q.q.q.",
"k l l X 4 X 4 4 q.q.q.q.q.q.q.q.q.q.q.q.q., < < $ $ # = = q.q.q.q.q.q.q.q.q.3.3.4.0.0.0.9.Q q.q.q.q.G L L L L A U A q.q.q.q.q.q.q.q.q.q.q.q.q.q.q.q.q.q.q.q.q.q.",
"l l l X l 1 l 1 q.q.q.q.q.q.q.q.q.q.q.q.q., < % % % % - - q.q.q.q.q.q.q.q.q.3.3.4.0.0.0.9.Q q.q.q.q.G G L L L U U A q.q.q.q.q.q.q.q.q.q.q.q.q.q.q.q.q.q.q.q.q.q.",
"l l X X 1 X 1 1 q.q.q.q.q.q.q.q.q.q.q.q.q., < < % % # # - q.q.q.q.q.q.q.q.q.3.3.4.4.0.0.9.Q q.q.q.q.G G L L K U U A q.q.q.q.q.q.q.q.q.q.q.q.q.q.q.q.q.q.q.q.q.q.",
"l l l l l 1 1 1 q.q.q.q.q.q.q.q.q.q.q.q.q., < < % % % - - q.q.q.q.q.q.q.q.q.3.,.4.0.0.9.Q Q q.q.q.q.G L L L L A A A q.q.q.q.q.q.q.q.q.q.q.q.q.q.q.q.q.q.q.q.q.q.",
"k l l l 1 l X 1 q.q.q.q.q.q.q.q.q.q.q.q.q., < % % % - - - q.q.q.q.q.q.q.q.q.3.3.0.0.0.0.9.Q q.q.q.q.G G G L L A U M q.q.q.q.q.q.q.q.q.q.q.q.q.q.q.q.q.q.q.q.q.q.",
"k l l l l 1 X 1 q.q.q.q.q.q.q.q.q.q.q.q.q., < < < % % # q.q.q.q.q.q.q.q.q.q.3.3.0.0.0.0.9.q.q.q.q.q.q.L G L L L U A A q.q.q.q.q.q.q.q.q.q.q.q.q.q.q.q.q.q.q.q.q.",
"l l l X 1 X 1 1 q.q.q.q.q.q.q.q.q.q.q.q.q., < < % % # # q.q.q.q.q.q.q.q.q.q.3.,.6.0.0.0.9.q.q.q.q.q.q.G L L K A U U M A q.q.q.q.q.q.q.q.q.q.q.q.q.q.q.q.q.q.q.q.",
"q.q.l X l 1 q.q.q.q.q.q.q.q.q.q.q.q.q.q.q.q.< % % % # # q.q.q.q.q.q.q.q.q.q.q.3.0.0.0.9.q.q.q.q.q.q.q.q.L L L U A M M Z Z q.q.q.q.q.q.q.q.q.q.q.q.q.q.q.q.q.q.q.",
"q.q.q.q.q.q.q.q.q.q.q.q.q.q.q.q.q.q.q.q.q.q.q.q.q.q.q.q.q.q.q.q.q.q.q.q.q.q.q.q.q.q.q.q.q.q.q.q.q.q.q.q.L L U U U A U M Z Z q.q.q.q.q.q.q.q.q.q.q.q.q.[ [ [ q.q.",
"q.q.q.q.q.q.q.q.q.q.q.q.q.q.q.q.q.q.q.q.q.q.q.q.q.q.q.q.q.q.q.q.q.q.q.q.q.q.q.q.q.q.q.q.q.q.q.q.q.q.q.q.q.L U U U S C C C C :.:.:.q.q.q.q.q.q.q.^ [ [ [ [ [ $.q.",
"q.q.q.q.q.q.q.q.q.q.q.q.q.q.q.q.q.q.q.q.q.q.q.q.q.q.q.q.q.q.q.q.q.q.q.q.q.q.q.q.q.q.q.q.q.q.q.q.q.q.q.q.q.U L U U C C C C C C :.:.:.*.*.+.^ ^ ^ ^ O.[ [ [ [ $.q.",
"q.q.q.q.q.q.q.q.q.q.q.q.q.q.q.q.q.q.q.q.q.q.q.q.q.q.q.q.q.q.q.q.q.q.q.q.q.q.q.q.q.q.q.q.q.q.q.q.q.q.q.q.q.q.U U U S V C C C :.:.*.*.*.>.^ ^ ^ _ _ [ ^ [ [ $.$.q.",
"q.q.q.q.q.q.q.q.q.q.q.q.q.q.q.q.q.q.q.q.q.q.q.q.q.q.q.q.q.q.q.q.q.q.q.q.q.q.q.q.q.q.q.q.q.q.q.q.q.q.q.q.q.q.q.U U U V C C C :.:.:.*.*.*.^ ^ ^ ^ ^ O.[ [ [ $.q.q.",
"q.q.q.q.q.q.q.q.q.q.q.q.q.q.q.q.q.q.q.q.q.q.q.q.q.q.q.q.q.q.q.q.q.q.q.q.q.q.q.q.q.q.q.q.q.q.q.q.q.q.q.q.q.q.q.q.U V V V C C :.:.~ :.:.+.+.^ ^ ^ ^ [ _ [ [ $.q.q.",
"q.q.q.q.q.q.q.q.q.q.q.q.q.q.q.q.q.q.q.q.q.q.q.q.q.q.q.q.q.q.q.q.q.q.q.q.q.q.q.q.q.q.q.q.q.q.q.q.q.q.q.q.q.q.q.q.q.V V C C C :.:.:.:.+.+.+.^ ^ O.O.O._ [ [ q.q.q.",
"q.q.q.q.q.q.q.q.q.q.q.q.q.q.q.q.q.q.q.q.q.q.q.q.q.q.q.q.q.q.q.q.q.q.q.q.q.q.q.q.q.q.q.q.q.q.q.q.q.q.q.q.q.q.q.q.q.q.q.C C C C :.:.~ :.+.+.+.^ O.^ _ [ q.q.q.q.q.",
"q.q.q.q.q.q.q.q.q.q.q.q.q.q.q.q.q.q.q.q.q.q.q.q.q.q.q.q.q.q.q.q.q.q.q.q.q.q.q.q.q.q.q.q.q.q.q.q.q.q.q.q.q.q.q.q.q.q.q.q.q.q.:.:.:.:.>.+.+.+.^ O.q.q.q.q.q.q.q.q.",
"q.q.q.q.q.q.q.q.q.q.q.q.q.q.q.q.q.q.q.q.q.q.q.q.q.q.q.q.q.q.q.q.q.q.q.q.q.q.q.q.q.q.q.q.q.q.q.q.q.q.q.q.q.q.q.q.q.q.q.q.q.q.q.q.q.q.q.q.q.q.q.q.q.q.q.q.q.q.q.q.",
"q.q.q.q.q.q.q.q.q.q.q.q.q.q.q.q.q.q.q.q.q.q.q.q.q.q.q.q.q.q.q.q.q.q.q.q.q.q.q.q.q.q.q.q.q.q.q.q.q.q.q.q.q.q.q.q.q.q.q.q.q.q.q.q.q.q.q.q.q.q.q.q.q.q.q.q.q.q.q.q.",
"q.q.q.q.q.q.q.q.q.q.q.q.q.q.q.q.q.q.q.q.q.q.q.q.q.q.q.q.q.q.q.q.q.q.q.q.q.q.q.q.q.q.q.q.q.q.q.q.q.q.q.q.q.q.q.q.q.q.q.q.q.q.q.q.q.q.q.q.q.q.q.q.q.q.q.q.q.q.q.q.",
"q.q.q.q.q.q.q.q.q.q.q.q.q.q.q.q.q.q.q.q.q.q.q.q.q.q.q.q.q.q.q.q.q.q.q.q.q.q.q.q.q.q.q.q.q.q.q.q.q.q.q.q.q.q.q.q.q.q.q.q.q.q.q.q.q.q.q.q.q.q.q.q.q.q.q.q.q.q.q.q.",
"q.q.q.q.q.q.q.q.q.q.q.q.q.q.q.q.q.q.q.q.q.q.q.q.q.q.q.q.q.q.q.q.q.q.q.q.q.q.q.q.q.q.q.q.q.q.q.q.q.q.q.q.q.q.q.q.q.q.q.q.q.q.q.q.q.q.q.q.q.q.q.q.q.q.q.q.q.q.q.q.",
"q.q.q.q.q.q.q.q.q.q.q.q.q.q.q.q.q.q.q.q.q.q.q.q.q.q.q.q.q.q.q.q.q.q.q.q.q.q.q.q.q.q.q.q.q.q.q.q.q.q.q.q.q.q.q.q.q.q.q.q.q.q.q.q.q.q.q.q.q.q.q.q.q.q.q.q.q.q.q.q.",
"q.q.q.q.q.q.q.q.q.q.q.q.q.q.q.q.q.q.q.q.q.q.q.q.q.q.q.q.q.q.q.q.q.q.q.q.q.q.q.q.q.q.q.q.q.q.q.q.q.q.q.q.q.q.q.q.q.q.q.q.q.q.q.q.q.q.q.q.q.q.q.q.q.q.q.q.q.q.q.q.",
"q.q.q.q.q.q.q.q.q.q.q.q.q.q.q.q.q.q.q.q.q.q.q.q.q.q.q.q.q.q.q.q.q.q.q.q.q.q.q.q.q.q.q.q.q.q.q.q.q.q.q.q.q.q.q.q.q.q.q.q.q.q.q.q.q.q.q.q.q.q.q.q.q.q.q.q.q.q.q.q."
};
