/* XPM */
static char *R__dio_L_Hospitalet[] = {
/* columns rows colors chars-per-pixel */
"80 80 64 1",
"F c None",
"  c #1A171B",
". c #1B181C",
"X c #29262A",
"o c #3A383B",
"O c #302D31",
"+ c #211E22",
"@ c #3F3C40",
"# c #403D41",
"$ c #464346",
"% c #4A474B",
"& c #575558",
"* c #504E51",
"= c #78777A",
"- c #6B696B",
"; c #5F5D60",
": c #90BD18",
"> c #94BF20",
", c #95C024",
"< c #99C22B",
"1 c #9DC433",
"2 c #9FC638",
"3 c #A0C63B",
"4 c #A2C83E",
"5 c #A7CA48",
"6 c #ACCD53",
"7 c #B0D05C",
"8 c #AFD059",
"9 c #B4D263",
"0 c #B7D46B",
"q c #BDD776",
"w c #C0D97C",
"e c #7F7C80",
"r c #807E80",
"t c #918F91",
"y c #A9A8AA",
"u c #C3DB83",
"i c #C7DE8B",
"p c #CBE093",
"a c #CEE29A",
"s c #D0E39D",
"d c #CAE08F",
"f c #D3E5A4",
"g c #D6E7AB",
"h c #DAE9B3",
"j c #DEEBBB",
"k c #E0EDBE",
"l c #D1D0D1",
"z c #DBDBDB",
"x c #C9C8C9",
"c c #E2EEC4",
"v c #E4EFC8",
"b c #E6F0CC",
"n c #E8F1CF",
"m c #E9F2D2",
"M c #EDF4DA",
"N c #F0F6DE",
"B c #E9E9E9",
"V c #E1E1E1",
"C c #F5F9EB",
"Z c #F2F7E4",
"A c #F1F1F1",
"S c #F9FBF3",
"D c #FEFEFE",
/* pixels */
"FDDDDDDDDDDDDDDDDDDDDDDDDDDDDDDDDDDDDDDDDDDDDDDDDDDDDDDDDDDDDDDDDDDDDDDDDDDDDDDD",
"FDDDDDDDDDDDDDDDDDDDDDDDDDDDDDDDDDDDDDDDDDDDDDDDDDDDDDDDDDDDDDDDDDDDDDDDDDDDDDDD",
"FDDDDDDDDDDDDDDDDDDDDDDDDDDDDDDDDDDDDDDDDDDDDDDDDDDDDDDDDDDDDDDDDDDDDDDDDDDDDDDD",
"FDDDDDDDDDDDDDDDDDDDDDDDDDDDDDDDDDDDDDDDDDDDDDDDDDDDDDDDDDDDDDDDDDDDDDDDDDDDDDDD",
"FDDDDDDDDDDDDDDDDDDDDDDDDDDDDDDDDDDDDDDDDDDDDDDDDDDDDDDDDDDDDDDDDDDDDDDDDDDDDDDD",
"FDDDDDDDDDDDDDDDDDDDDDDDDDDDDDDDDDDDDDDDDDDDDDDDDDDDDDDDDDDDDDDDDDDDDDDDDDDDDDDD",
"FDDDDDDDDDDDDDDDDDDDDDDDDDDDDDDDDDDDDDDDDDDDDDDDDDDDDDDDDDDDDDDDDDDDDDDDDDDDDDDD",
"FDDDDDDDDDDDDDDDDDDDDDDDDDDDDDDDDDDDDDDDDDDDDDDDDDDDDDDDDDDDDDDDDDDDDDDDDDDDDDDD",
"FDDDDDDDDDDDDDDDDDDDDDDDDDDDDDDDDDDDDDDDDDDDDDDDDDDDDDDDDDDDDDDDDDDDDDDDDDDDDDDD",
"FDDDDDDDDDDDDDDDDDDDDDDDDDDDDDDDDDDDDDDDDDDDDDDDDDDDDDDDDDDDDDDDDDDDDDDDDDDDDDDD",
"FDDDDDDDDDDDDDDDDDDDDDDDDDDDDDDDDDDDDDDDDDDDDDDDDDDDDDDDDDDDDDDDDDDDDDDDDDDDDDDD",
"FDDDDDDDDDDDDDDDDDDDDDDDDDDDDDDDDDDDDDDDDDDDDDDDDDDDDDDDDDDDDDDDDDDDDDDDDDDDDDDD",
"FDDDDDDDDDDDDDDDDDDDDDDDDDDDDDDDDDDDDDDDDDDDDDDDDDDDDDDDDDDDDDDDDDDDDDDDDDDDDDDD",
"FDDDDDDDDDDDDDDDDDDDDDDDDDDDDDDDDDDDDDDDDDDDDDDDDDDDDDDDDDDDDDDDDDDDDDDDDDDDDDDD",
"FDDDDDDDDDDDDDDDDDDDDDDDDDDDDDDDDDDDDDDDDDDDDDDDDDDDDDDDDDDDDDDDDDDDDDDDDDDDDDDD",
"FDDDDDDDDDDDDDDDDDDDDDDDDDDDDDDDDDDDDDDDDDDDDDDDDDDDDDDDDDDDDDDDDDDDDDDDDDDDDDDD",
"FDDDDDDDDDDDDDDDDDDDDDDDDDDDDDDDDDDDDDDDDDDDDDDDDDDDDDDDDCvawqqwsnSDDDDDDDDDDDDD",
"FDDDDDDDDDDDDDDDDDDDDDDDDDDDDDDDDDDDDDDDDDDDDDDDDDDDDDDCf71>::::,19gCDDDDDDDDDDD",
"FDDDDDDDDDDDDDDDDDDDDDDDDDDDDDDDDDDDDDDDDDDDDDDDDDDDDDj6>::::::::::,9bDDDDDDDDDD",
"FDDDDDDDDDDDDDDDDDDDDDDDDDDDDDDDDDDDDDDDDDDDDDDDDDDDSp<::::::::::::::3fSDDDDDDDD",
"FDDDDDDDDDDDDDDDDDDDDDDDDDDDDDDDDDDDDDDDDDDDDDDDDDDSu,::::::::::::::::,pSDDDDDDD",
"FDDDDDDDDDDDDDDDDDDDDDDDDDDDDDDDDDDDDDDDDDDDDDDDDDSu::::::39isai91:::::,aDDDDDDD",
"FDDDDDDDDDDDDDDDDDDDDDDDDDDDDDDDDDDDDDDDDDDDDDDDDDa,::::4pMSDDDDSmi2::::<hDDDDDD",
"FDDDDDDDDDDDDDDDDDDDDDDDDDDDDDDDDDDDDDDDDDDDDDDDDc1::::0mDDDDDDDDDDb7::::5mDDDDD",
"FDDDDDDDDDDDDDDDDDDDDDDDDDDDDDDDDDDDDDDDDDDDDDDDC8:::,uCDDDDDDDDDDDDZ0::::0SDDDD",
"FDDDDDDDDDDDCDDDDDDDDDDDDDDDDDDDDDDDDDDDDDDDDDDDs::::wSDDDDDDDDDDDDDDC0:::,hDDDD",
"FDDDDDDDDDDm6hDDDDDDDDDDDDDDDDDDDDDDDDDDDDDDDDDZ5:::9CDDDDDDDDDDDDDDDDM5:::7CDDD",
"FDDDDDDDDDDk,4mDDDDDDDDDDDDDDDDDDDDDDDDDDDDDDDDa:::3mDDDDDDDDDDDDDDDDDDj<::,hDDD",
"FDDDDDDDDDDC9:qSDDDDDDDDDDDDDDDDDDDDDDDDDDDDDDC6:::pDDDDDDDDDDDDDDDDDDDDw:::0SDD",
"FDDDDDDDDDDDm45CDDDDDDDDDDDDDDDDDDDDDDDDDDDDDDj,::5ZDDDDDDDDDDDDDDDDDDDDm2::1mDD",
"FDDDDDDDDDDDDkfDDDDDDDDDDDDDDDDDDDDSSSDDDDDDDDu:::pDBlzSDCmMDDBllSDDAllBDw:::aDD",
"FvsaasvSDDDSf0iSDDDmsaasvSDDZuhDDDh070hDDDDDDC5::2MA-XoySq<5bS=XOyDDyOOtDc<::9SD",
"F3::::<fDDDm1:,hDDS9::::<sDDf:6CDc1:::<jDDDDDb<::0DzO  eZ2::dB#  ;SA&  $AC6::4MD",
"F::::::5ZDDg:::uDDZ3:::::3MDp:4ZS0::1::9SDDDDf:::fDlX  =N<::uBo  &SA%  $ADu::,hD",
"F::0h5:,cDDi:::9SDZ3:6a6::fDp:4CZ3:8v9:1MDDDDu::<bDlX  =N<::uBo  &SA%  $ADh>::iD",
"F::fDf::gDD9:,:5CDZ3:uDv<:qDp:4Cb,:sDf:>jDDDS9::5CDlX  =N<::uBo  &SA%  $ADM1::0D",
"F::fDc,:gDC5:5:1MDZ3:uDC5:9Dp:4Ch::jDc,:gDDDS5::9SDlX  =N<::uBo  &SA%  $ADC5::6D",
"F::fDh::hDM1>q,,cDZ3:uDS8:6Sp:4Cg:,cDb<:sDDDZ3::qDDlX  =N1::iBo  %Vz#  $ADS7::3D",
"F::iC0:<mDc,<g2:fDZ3:uDS9:5Sp:4Cf:,vDn<:aDDDM1::iDDlX  =C6:,hBo  +##+  $ADD0::<D",
"F::15,:0SDf:4m5:uDZ3:uDD9:5Sp:4Cf:,cDn<:aDDDm<::aDDlX  =DnigSBo        $ADDq::,D",
"F::::::iDDu:6C9:9SZ3:uDD9:5Sp:4Cf:,cDn<:aDDDm<::sDDlX  =DDDDDBo        $ADDw::,D",
"F::15,:5ZD9:9Sq:5CZ3:uDD9:5Sp:4Cf:,cDn<:aDDDm<::aDDlX  =DDDDDBo        $ADDq::,D",
"F::iC0:,vS5:2q4:1MZ3:uDS9:5Sp:4Cf:,vDn<:aDDDM1::iDDlX  =DDDDDBo  OttO  $ADD0::<D",
"F::fDf::hN1:::::,cC3:uDS6:6Sp:4Cg:,cDn<:aDDDZ3::qDDlX  =DDDDDBo  &SA%  $ADS7::3D",
"F::fDh::hc,:<1<::fZ3:uDC5:9Dp:4Ch::jDc,:gDDDS5::9SDlX  -DDDDDBo  &SA%  $ADC5::6D",
"F::fDj::hg:<fmg<:uZ3:uDb<:wDp:4Cc,:gDh::jDDDS9::5CDlX  o=rrtxBo  &SA%  $ADM1::0D",
"F::fDj::gi:4ZDC5:9M3:7j0::fDp:4CM1:qCq:<mDDDDu::<bDlX  ..   &zo  &SA%  $ADh>::iD",
"F::fDj::s0:6SDS7:5m3::,::3MDp:4ZS7:,6<:6CDDDDf:::fDlX       oxo  &SA%  $ADu::,hD",
"F,:hDb<:p9:qDDDu:5M6::::,pDDs:5CDf,::::aDDDDDb<::0DzO       #l@  ;SA&  $AC6::4MD",
"Fw9ZDSq6bg6jDDDv6iSjqqqqgSDDM7pDDSp525iCDDDDDC5::2MSt*@####$tA=XOyDDtOX=Dc<::9SD",
"FSSDDDSCDSCDDDDDCSDDDDDDDDDDDCSDDDDZMZDDDDDDDDu:::pDDBzzzzzVSDBllADDAllBDw:::aDD",
"FDDDDDDDDDDDDDDDDDDDDDDDDDDDDDDDDDDDDDDDDDDDDDj,::5ZDDDDDDDDDDDDDDDDDDDDm2::1mDD",
"FDDDDDDDDDDDDDDDDDDDDDDDDDDDDDDDDDDDDDDDDDDDDDC6:::pDDDDDDDDDDDDDDDDDDDDw:::0SDD",
"FDDDDDDDDDDDDDDDDDDDDDDDDDDDDDDDDDDDDDDDDDDDDDDa:::3mDDDDDDDDDDDDDDDDDDj<::,hDDD",
"FDDDDDDDDDDDDDDDDDDDDDDDDDDDDDDDDDDDDDDDDDDDDDDZ5:::9CDDDDDDDDDDDDDDDDM5:::7CDDD",
"FDDDDDDDDDDDDDDDDDDDDDDDDDDDDDDDDDDDDDDDDDDDDDDDs::::wSDDDDDDDDDDDDDDC0:::,hDDDD",
"FDDDDDDDDDDDDDDDDDDDDDDDDDDDDDDDDDDDDDDDDDDDDDDDC8:::,uCDDDDDDDDDDDDZ0::::0SDDDD",
"FDDDDDDDDDDDDDDDDDDDDDDDDDDDDDDDDDDDDDDDDDDDDDDDDc1::::0mDDDDDDDDDDb7::::5mDDDDD",
"FDDDDDDDDDDDDDDDDDDDDDDDDDDDDDDDDDDDDDDDDDDDDDDDDDa,::::4pMSDDDDSmi2::::<hDDDDDD",
"FDDDDDDDDDDDDDDDDDDDDDDDDDDDDDDDDDDDDDDDDDDDDDDDDDSu::::::39isai91:::::,aDDDDDDD",
"FDDDDDDDDDDDDDDDDDDDDDDDDDDDDDDDDDDDDDDDDDDDDDDDDDDSu,::::::::::::::::,pSDDDDDDD",
"FDDDDDDDDDDDDDDDDDDDDDDDDDDDDDDDDDDDDDDDDDDDDDDDDDDDSp<::::::::::::::3fSDDDDDDDD",
"FDDDDDDDDDDDDDDDDDDDDDDDDDDDDDDDDDDDDDDDDDDDDDDDDDDDDDj6>::::::::::,9bDDDDDDDDDD",
"FDDDDDDDDDDDDDDDDDDDDDDDDDDDDDDDDDDDDDDDDDDDDDDDDDDDDDDCf71>::::,19gCDDDDDDDDDDD",
"FDDDDDDDDDDDDDDDDDDDDDDDDDDDDDDDDDDDDDDDDDDDDDDDDDDDDDDDDCvawqqufnSDDDDDDDDDDDDD",
"FDDDDDDDDDDDDDDDDDDDDDDDDDDDDDDDDDDDDDDDDDDDDDDDDDDDDDDDDDDDDDDDDDDDDDDDDDDDDDDD",
"FDDDDDDDDDDDDDDDDDDDDDDDDDDDDDDDDDDDDDDDDDDDDDDDDDDDDDDDDDDDDDDDDDDDDDDDDDDDDDDD",
"FDDDDDDDDDDDDDDDDDDDDDDDDDDDDDDDDDDDDDDDDDDDDDDDDDDDDDDDDDDDDDDDDDDDDDDDDDDDDDDD",
"FDDDDDDDDDDDDDDDDDDDDDDDDDDDDDDDDDDDDDDDDDDDDDDDDDDDDDDDDDDDDDDDDDDDDDDDDDDDDDDD",
"FDDDDDDDDDDDDDDDDDDDDDDDDDDDDDDDDDDDDDDDDDDDDDDDDDDDDDDDDDDDDDDDDDDDDDDDDDDDDDDD",
"FDDDDDDDDDDDDDDDDDDDDDDDDDDDDDDDDDDDDDDDDDDDDDDDDDDDDDDDDDDDDDDDDDDDDDDDDDDDDDDD",
"FDDDDDDDDDDDDDDDDDDDDDDDDDDDDDDDDDDDDDDDDDDDDDDDDDDDDDDDDDDDDDDDDDDDDDDDDDDDDDDD",
"FDDDDDDDDDDDDDDDDDDDDDDDDDDDDDDDDDDDDDDDDDDDDDDDDDDDDDDDDDDDDDDDDDDDDDDDDDDDDDDD",
"FDDDDDDDDDDDDDDDDDDDDDDDDDDDDDDDDDDDDDDDDDDDDDDDDDDDDDDDDDDDDDDDDDDDDDDDDDDDDDDD",
"FDDDDDDDDDDDDDDDDDDDDDDDDDDDDDDDDDDDDDDDDDDDDDDDDDDDDDDDDDDDDDDDDDDDDDDDDDDDDDDD",
"FDDDDDDDDDDDDDDDDDDDDDDDDDDDDDDDDDDDDDDDDDDDDDDDDDDDDDDDDDDDDDDDDDDDDDDDDDDDDDDD",
"FDDDDDDDDDDDDDDDDDDDDDDDDDDDDDDDDDDDDDDDDDDDDDDDDDDDDDDDDDDDDDDDDDDDDDDDDDDDDDDD",
"FDDDDDDDDDDDDDDDDDDDDDDDDDDDDDDDDDDDDDDDDDDDDDDDDDDDDDDDDDDDDDDDDDDDDDDDDDDDDDDD",
"FDDDDDDDDDDDDDDDDDDDDDDDDDDDDDDDDDDDDDDDDDDDDDDDDDDDDDDDDDDDDDDDDDDDDDDDDDDDDDDD",
"FDDDDDDDDDDDDDDDDDDDDDDDDDDDDDDDDDDDDDDDDDDDDDDDDDDDDDDDDDDDDDDDDDDDDDDDDDDDDDDD"
};
