/* XPM */
static char *Televisio_Badalona[] = {
/* columns rows colors chars-per-pixel */
"80 80 64 1",
"F c None",
"  c #000000",
". c #0A0A0A",
"X c #0B0404",
"o c #131313",
"O c #1B1B1B",
"+ c #1B0605",
"@ c #310A09",
"# c #272828",
"$ c #3C3C3C",
"% c #343535",
"& c #2D3232",
"* c #4E1211",
"= c #701B19",
"- c #7B211F",
"; c #464646",
": c #5B5B5B",
"> c #676767",
", c #797979",
"< c #A1302E",
"1 c #D2514F",
"2 c #E85757",
"3 c #E96363",
"4 c #EA6B6B",
"5 c #E66664",
"6 c #EB7373",
"7 c #EC7A7A",
"8 c #DF6360",
"9 c #C33B39",
"0 c #838383",
"q c #979797",
"w c #A6A6A6",
"e c #BABABA",
"r c #B4B4B4",
"t c #D99B9B",
"y c #ED8484",
"u c #EE8B8B",
"i c #F09393",
"p c #F19B9B",
"a c #EF9695",
"s c #F2A4A4",
"d c #F3AAAA",
"f c #F4B3B3",
"g c #F5BBBA",
"h c #E2A4A4",
"j c #DFA0A0",
"k c #CBCBCB",
"l c #C3C3C3",
"z c #D3D3D3",
"x c #DAD9D9",
"c c #DAC9C9",
"v c #F6C2C2",
"b c #F8CDCD",
"n c #F8C8C7",
"m c #F8D3D3",
"M c #F9DBDB",
"N c #ECD4D4",
"B c #EBEBEB",
"V c #E4E4E4",
"C c #FAE4E4",
"Z c #FCEBEB",
"A c #F3F3F3",
"S c #FDF4F4",
"D c #FEFEFE",
/* pixels */
"FDDDDDDDDDDDDDDDDDDDDDDDDDDDDDDDDDDDDDDDDDDDDDDDDDDDDDDDDDDDDDDDDDDDDDDDDDDDDDDD",
"FDDDDDDDDDDDDDDDDDDDDDDDDDDDDDDDDDDDDDDDDDDDDDDDDDDDDDDDDDDDDDDDDDDDDDDDDDDDDDDD",
"FDDDDDDDDDDDDDDDDDDDDDDDDDDDDDDDDDDDDDDDDDDDDDDDDDDDDDDDDDDDDDDDDDDDDDDDDDDDDDDD",
"FDDDDDDDDDDDDDDDDDDDDDDDDDDDDDDDDDDDDDDDDDDDDDDDDDDDDDDDDDDDDDDDDDDDDDDDDDDDDDDD",
"FDDDDDDDDDDDDDDDDDDDDDDDDDDDDDDDDDDDDDDDDDDDDDDDDDDDDDDDDDDDDDDDDDDDDDDDDDDDDDDD",
"FDDDDDDDDDDDDDDDDDDDDDDDDDDDDDDDDDDDDDDDDDDDDDDDDDDDDDDDDDDDDDDDDDDDDDDDDDDDDDDD",
"FDDDDDDDDDDDDDDDDDDDDDDDDDDDDDDDDDDDDDDDDDDDDDDDDDDDDDDDDDDDDDDDDDDDDDDDDDDDDDDD",
"FDDDDDDDDDDDDDDDDDDDDDDDDDDDDDDDDDDDDDDDDDDDDDDDDDDDDDDDDDDDDDDDDDDDDDDDDDDDDDDD",
"FDDDDDDDDDDDDDDDDDDDDDDDDDDDDDDDDDDDDDDDDDDDDDDDDDDDDDDDDDDDDDDDDDDDDDDDDDDDDDDD",
"FDDDDDDDDDDDDDDDDDDDDDDDDDDDDDDDDDDDDDDDDDDDDDDDDDDDDDDDDDDDDDDDDDDDDDDDDDDDDDDD",
"FDDDDDDDDDDDDDDDDDDDDDDDDDDDDDDDDDDDDDDDDDDDDDDDDDDDDDDDDDDDDDDDDDDDDDDDDDDDDDDD",
"FDDDDDDDDDDDDDDDDDDDDDDDDDDDDDDDDDDDDDDDDDDDDDDDDDDDDDDDDDDDDDDDDDDDDDDDDDDDDDDD",
"FDDDDDDDDDDDDDDDDDDDDDDDDDDDDDDDDDDDDDDDDDDDDDDDDDDDDDDDDDDDDDDDDDDDDDDDDDDDDDDD",
"FDDDDDDDDDDDDDDDDDDDDDDDDDDDDDDDDDDDDDDDAzw,::>wVDDDDDDDDDDDDDDDDDDDDDDDDDDDDDDD",
"FDDDDDDDDDDDDDDDDDDDDDDDDDDDDDDDDDDDDVe0;O.    .$eDDDDDDDDDDDDDDDDDDDDDDDDDDDDDD",
"FDDDDDDDDDDDDDDDDDDDDDDDDDDDDDDDDBkq:#.          OeDDDDDDDDDDDDDDDDDDDDDDDDDDDDD",
"FDDDDDDDDDDDDDDDDDDDDDDDDDDDDAxw>%o               ;ADDDDDDDDDDDDDDDDDDDDDDDDDDDD",
"FDDDDDDDDDDDDDDDDDDDDDDDDDVe0;OX                  .eDDDDDDDDDDDDDDDDDDDDDDDDDDDD",
"FDDDDDDDDDDDDDDDDDDDDDBkq:#.                       0DDDDDDDDDDDDDDDDDDDDDDDDDDDD",
"FDDDDDDDDDDDDDDDDDAxw>$o            o&:0>O         >DDDDDDDDDDDDDDDDDDDDDDDDDDDD",
"FDDDDDDDDDDDDDDBe0;OX          XO$>qkBDDDeO        :DDDDDDDDDDDDDDDDDDDDDDDDDDDD",
"FDDDDDDDDDDDDB>&.          .O;,wzADDDDDDDD>        :DDDDDDDDDDDDDDDDDDDDDDDDDDDD",
"FDDDDDDDDDDDDzo        .#;0rxADDDDDDDDDDDDq        :DDDDDDDDDDDDDDDDDDDDDDDDDDDD",
"FDDDDDDDDDDDDzo    o&:0eVADDDDDDDDDDDDDDDDw        :DDDDDDDDDDDDDDDDDDDDDDDDDDDD",
"FDDDDDDDDDDDDzOo%>qlBDDDDDDDDDDDDDDDDDDDDDw        %qqqBDDDDAwqqkDDDDDDDDDDDDDDD",
"FDDDDDDDDDDDDBrzBDDDDDDDDDDDDDDDDDDDDDDDDDrX       o. .rDDDDzo  wDDDDDDDDDDDDDDD",
"FDDDDDDDDDDDDDDDDDDDDDDDDDDDDDDDDDDDDDDDDDrX       ;#  ,DDDDw  OzDDDDDDDDDDDDDDD",
"FDDDDDDDDDDDDDDDDDDDDDDDDDDDDDDDDDDDDDDDDDr.       ::  ;ADDD>  ;ADDDDDDDDDDDDDDD",
"FDDDDDDDDDDDDDDDDDDDDDDDDDDDDDDDDDDDDDDDDDe.       :q  OxDDB%  0DDDDDDDDDDDDDDDD",
"FDDDDDDDDDDDDDDDDDDDDDDDDDDDDDDDDDDDDDDDDDe.       :ko XwDDko .eDDDDDDDDDDDDDDDD",
"FDDDDDDDDDDDDDDDDDDDDDDDDDDDDDDDDDDDDDDDDDe.       :A$  ,DDq  #VDDDDDDDDDDDDDDDD",
"FDDDDDDDDDDDDDDDDDDDDDDDDDDDDDDDDDDDDDDDDDl.       :D,  $AD:  >DDDDDDDDDDDDDDDDD",
"FDDDDDDDDDDDDDDDDDDDDDDDDDDDDDDDDDDDDDDDDDl.       :Dr. OzB#  qDDDDDDDDDDDDDDDDD",
"FDDDDDDDDDDDDDDDDDDDDDDDDDDDDDDDDDDDDDDDDDl.       :DV#  wl. ozDDDDDDDDDDDDDDDDD",
"FDDDDDDDDDDDDDDDDDDDDDDDDDDDDDDDDDDDDDDDDDl.       :DD:  ,0  ;ADDDDDDDDDDDDDDDDD",
"FDDDDDDDDDDDDDDDDDDDDDDDDDDDDDDDDDDDDDDDDDk.       :DDq  $;  ,DDDDDDDDDDDDDDDDDD",
"FDDDDDDDDDDDDDDDDDDDDDDDDDDDDDDDDDDDDDDDDDko       :DDko .o .eDDDDDDDDDDDDDDDDDD",
"FDDDDDDDDDDDDDDDDDDDDDDDDDDDDDDDDDDDDDDDDDko       :DDA$    #VDDDDDDDDDDDDDDDDDD",
"FDDDDDDDDDDDDDDDDDDDDDDDDDDDDDDDDDDDDDDDDDzo       :DDD,    :DDDDDDDDDDDDDDDDDDD",
"FDDDDDDDDDDDDDDDDDDDDDDDDDDDDDDDDDDDDDDDDDzo       :DDDr.   qDDDDDDDDDDDDDDDDDDD",
"FDDDDDDDDDDDDDDDDDDDDDDDDDDDDDDDDDDDDDDDDDzo       :DDDV#  okDDDDDDDDDDDDDDDDDDD",
"FDDDDDDDDDDDDDDDDDDDDDDDDDDDDDDDDDDDDDDDDDzo       :DDDD:  $ADDDDDDDDDDDDDDDDDDD",
"FDDDDDDDDDDDDDDDDDDDDDDDDDDDDDDDDDDDDDDDDDxO       :DDDDzwwlDDDDDDDDDDDDDDDDDDDD",
"FDDDDDDDDDDDDDDDDDDDDDDDDDDDDDDDDDDDDDDDDDxO       :DDDDDDDDDDDDDDDDDDDDDDDDDDDD",
"FDDDDDDDDDDDDCZDDDDDDDDDDDDDDDDDSCDDDDDDDZcO       :DDDDDDDDDDDDDDDDDDDDDDDDDDDD",
"FDDDDDDDDDDDDdfDDDDDDDDDDDDDDDDDMuDDDDDDDdt#       :DDDDDDDDDDDDDDDDDDDDDDDDDDDD",
"FDDDDDDDDDDDDsfDDDDDDDDDDDDDDDDDmuDDDDDDDst#       :DDDDDDDDDDDDDDDDDDDDDDDDDDDD",
"FDDDDDDDDDDDDsfSbMDDDDZbCSZDDCbCmuDDCbCSSst#  +@+  :ZSCbSDDDZbCSZDDDDDDDDDDDDDDD",
"FDDDDDDDDDDDDdi743fDDm435siDb334puDn334ssst# *929* :pp63ySDm433siSDDDDDDDDDDDDDD",
"FDDDDDDDDDDDDs2gSb4mS6dZb36C6dZb3yC4fZn2ust#+1gZg9+:73mZ7vS7sZm46SDDDDDDDDDDDDDD",
"FDDDDDDDDDDDDsyDDDdpnySDDf7gyDDDsyfuDDDpyst#*iDDDu*:7sDDfsm7SDDf6SDDDDDDDDDDDDDD",
"FDDDDDDDDDDDDsfDDDmusdDDDMypfDDDmupfDDDbisj&<nDDDg=:ynDDvpfsDDDMySDDDDDDDDDDDDDD",
"FDDDDDDDDDDDDsfDDDMysfDDDMupfDDDMuigDDDmisj&<bDDDn-:umDDvpddDDDCuSDDDDDDDDDDDDDD",
"FDDDDDDDDDDDDsiDDDgigiDDDn7dpDDDvydpDDDgush&=dDDDs=:umDDvpvuDDDb7SDDDDDDDDDDDDDD",
"FDDDDDDDDDDDDs2MDZ7gC4mDS76M4MDS67m4MDZ6ysh&@8ZDC8@:umDDvpZ6mDSy4SDDDDDDDDDDDDDD",
"FDDDDDDDDDDDDd74u4uSDd3i76ySs3i77uDs4i67ish% -5i8= :umDDvpDf3i77ySDDDDDDDDDDDDDD",
"FDDDDDDDDDDDDMCnidSDDDvifCmDSgifCmDSgigCmMN% X*-*X :mZDDCMDDvifCmDDDDDDDDDDDDDDD",
"FDDDDDDDDDDDDDDDDDDDDDDDDDDDDDDDDDDDDDDDDDA%       :DDDDDDDDDDDDDDDDDDDDDDDDDDDD",
"FDDDDDDDDDDDDDDDDDDDDDDDDDDDDDDDDDDDDDDDDDA$       :DDDDDDDDDDDDDDDDDDDDDDDDDDDD",
"FDDDDDDDDDDDDDDDDDDDDDDDDDDDDDDDDDDDDDDDDDA$       :DDDDDDDDDDDDDDDDDDDDDDDDDDDD",
"FDDDDDDDDDDDDDDDDDDDDDDDDDDDDDDDDDDDDDDDDDA$       :DDDDDDDDDDDDDDDDDDDDDDDDDDDD",
"FDDDDDDDDDDDDDDDDDDDDDDDDDDDDDDDDDDDDDDDDDA;       :DDDDDDDDDDDDDDDDDDDDDDDDDDDD",
"FDDDDDDDDDDDDDDDDDDDDDDDDDDDDDDDDDDDDDDDDDA;       >DDDDDDDDDDDDDDDDDDDDDDDDDDDD",
"FDDDDDDDDDDDDDDDDDDDDDDDDDDDDDDDDDDDDDDDDDA;       :DDDDDDDDDDDDDDDDDDDDDDDDDDDD",
"FDDDDDDDDDDDDDDDDDDDDDDDDDDDDDDDDDDDDDDDDDDw,00000,rDDDDDDDDDDDDDDDDDDDDDDDDDDDD",
"FDDDDDDDDDDDDDDDDDDDDDDDDDDDDDDDDDDDDDDDDDDDDDDDDDDDDDDDDDDDDDDDDDDDDDDDDDDDDDDD",
"FDDDDDDDDDDDDDDDDDDDDDDDDDDDDDDDDDDDDDDDDDDDDDDDDDDDDDDDDDDDDDDDDDDDDDDDDDDDDDDD",
"FDDDDDDDDDDDDDDDDDDDDDDDDDDDDDDDDDDDDDDDDDDDDDDDDDDDDDDDDDDDDDDDDDDDDDDDDDDDDDDD",
"FDDDDDDDDDDDDDDDDDDDDDDDDDDDDDDDDDDDDDDDDDDDDDDDDDDDDDDDDDDDDDDDDDDDDDDDDDDDDDDD",
"FDDDDDDDDDDDDDDDDDDDDDDDDDDDDDDDDDDDDDDDDDDDDDDDDDDDDDDDDDDDDDDDDDDDDDDDDDDDDDDD",
"FDDDDDDDDDDDDDDDDDDDDDDDDDDDDDDDDDDDDDDDDDDDDDDDDDDDDDDDDDDDDDDDDDDDDDDDDDDDDDDD",
"FDDDDDDDDDDDDDDDDDDDDDDDDDDDDDDDDDDDDDDDDDDDDDDDDDDDDDDDDDDDDDDDDDDDDDDDDDDDDDDD",
"FDDDDDDDDDDDDDDDDDDDDDDDDDDDDDDDDDDDDDDDDDDDDDDDDDDDDDDDDDDDDDDDDDDDDDDDDDDDDDDD",
"FDDDDDDDDDDDDDDDDDDDDDDDDDDDDDDDDDDDDDDDDDDDDDDDDDDDDDDDDDDDDDDDDDDDDDDDDDDDDDDD",
"FDDDDDDDDDDDDDDDDDDDDDDDDDDDDDDDDDDDDDDDDDDDDDDDDDDDDDDDDDDDDDDDDDDDDDDDDDDDDDDD",
"FDDDDDDDDDDDDDDDDDDDDDDDDDDDDDDDDDDDDDDDDDDDDDDDDDDDDDDDDDDDDDDDDDDDDDDDDDDDDDDD",
"FDDDDDDDDDDDDDDDDDDDDDDDDDDDDDDDDDDDDDDDDDDDDDDDDDDDDDDDDDDDDDDDDDDDDDDDDDDDDDDD",
"FDDDDDDDDDDDDDDDDDDDDDDDDDDDDDDDDDDDDDDDDDDDDDDDDDDDDDDDDDDDDDDDDDDDDDDDDDDDDDDD",
"FDDDDDDDDDDDDDDDDDDDDDDDDDDDDDDDDDDDDDDDDDDDDDDDDDDDDDDDDDDDDDDDDDDDDDDDDDDDDDDD",
"FDDDDDDDDDDDDDDDDDDDDDDDDDDDDDDDDDDDDDDDDDDDDDDDDDDDDDDDDDDDDDDDDDDDDDDDDDDDDDDD"
};
