/* XPM */
static char *Teledeporte[] = {
/* columns rows colors chars-per-pixel */
"80 80 64 1",
"F c None",
"  c #F1590D",
". c #EF4E11",
"X c #EF5014",
"o c #F05617",
"O c #F04D0F",
"+ c #F3670A",
"@ c #F67707",
"# c #F46F17",
"$ c #F05C24",
"% c #F1642A",
"& c #F16A37",
"* c #F4762F",
"= c #F27647",
"- c #F37D51",
"; c #F98704",
": c #FB9506",
"> c #FB9916",
", c #F88717",
"< c #FCA319",
"1 c #F88F2E",
"2 c #FCA728",
"3 c #FDAD37",
"4 c #F48558",
"5 c #F7934D",
"6 c #FDB647",
"7 c #FDB956",
"8 c #FAA84F",
"9 c #F48C64",
"0 c #F5946A",
"q c #F59A77",
"w c #FCB866",
"e c #F8AC72",
"r c #FDC468",
"t c #FDC878",
"y c #FEC15C",
"u c #F7A687",
"i c #F8B698",
"p c #F8B28B",
"a c #F9BBA4",
"s c #F79F80",
"d c #FDC986",
"f c #FED597",
"g c #FDCC90",
"h c #F9C4A9",
"j c #FDD9A7",
"k c #FACAB7",
"l c #FCD7B7",
"z c #FEE3B8",
"x c #FFE0AE",
"c c #FBD6C7",
"v c #FBDDD1",
"b c #FEE7C8",
"n c #FCE4DB",
"m c #FDE8D6",
"M c #FEF1DB",
"N c #FDEBE3",
"B c #FDEEE8",
"V c #FEF3E3",
"C c #FEF3EB",
"Z c #FFF8ED",
"A c #FDF5F2",
"S c #FEF9F4",
"D c #FEFEFD",
/* pixels */
"FDDDDDDDDDDDDDDDDDDDDDDDDDDDDDDDDDDDDDDDDDDDDDDDDDDDDDDDDDDDDDDDDDDDDDDDDDDDDDDD",
"FDDDDDDDDDDDDDDDDDDDDDDDDDDDDDDDDDDDDDDDDDDDDDDDDDDDDDDDDDDDDDDDDDDDDDDDDDDDDDDD",
"FDDDDDDDDDDDDDDDDDDDDDDDDDDDDDDDDDDDDDDDDDDDDDDDDDDDDDDDDDDDDDDDDDDDDDDDDDDDDDDD",
"FDDDDDDDDDDDDDDDDDDDDDDDDDDDDDDDDDSSSSSSSSSSSSSSSSSSSSSSSDDDDDDDDDDDDDDDDDDDDDDD",
"FDDDDDDDDDDDDDDDDDDDDDDDDDDDSSSSSSSSAAAAAAAAAAAAAAAAAAAAASSSSSSDDDDDDDDDDDDDDDDD",
"FDDDDDDDDDDDDDDDDDDDDDDDSSSSAAAAAAACCCCCCCCCCCCCCCCCCCCCCAAAAASSSSDDDDDDDDDDDDDD",
"FDDDDDDDDDDDDDDDDDDDSSSSAAAACCCCBBBBNNNNNNNNNNNNNNNNNNNNBBCCCCAAAASSSDDDDDDDDDDD",
"FDDDDDDDDDDDDDDDDSSSAAAACCCBBNNNNnnnnnnnnnnnnnnnnnnnnnnnnnNNNBBCCAAASSSDDDDDDDDD",
"FDDDDDDDDDDDDDDSSSAACCCBBNNnnnnnvvvvvvccccccccccccccccvvvvnnnnNNBCCCAASSDDDDDDDD",
"FDDDDDDDDDDDDDSSAACCBNNnnnnvvvccccccckkkkkkkkkkkkkkkkkccccccvvnnnNBBCAASSDDDDDDD",
"FDDDDDDDDDDDSSAACCBNNnnvvvcccckkkkkkhhhhhhhhhhahhhhhhhkkkkkccccvvnnNBCCASSDDDDDD",
"FDDDDDDDDDDDSAACBNnnnvcccckkkhhhaaaaaaiiiiiiiiiiiiiiiaaaahhkkkcccvnnNNCCASSDDDDD",
"FDDDDDDDDDDSAACBNnvvccckkkhaaaiiiiipppuuuuuuuuuuuuuuppiiiiaahhkkcccvnnNCCASSDDDD",
"FDDDDDDDDDSSACNnnvcckkkhaaiiippuuuuuuqqqqqqqqqqqqqqquuuuupiiiaahkkccvnnNCAASDDDD",
"FDDDDDDDDDSACBnnvcckkhaaiipuuuuqqqqq00000999999900000qqqquuupiiahkkccvnNBCASDDDD",
"FDDDDDDDDSACBNnvckkhaaipuuuqqq000999944444444444444999900qqquupiaakkccvnNCASSDDD",
"FDDDDDDDDSACNnvckkhaipuuqqq09994444-----=========----444990qqqupiaakkcvnNBCASDDD",
"FDDDDDDDSACBnvckkaaipuqq009944--=======&&&&&&&&&&=====--44490qquuiahkccvnBCASDDD",
"FDDDDDDDSACNncckhaiuuqq0944--====&&&&&&&&&&&&&&&&&&&&&===--499qqupiahkcvnNCASDDD",
"FDDDDDDSACNnvckhaiuuq0944-===&&&&&%%%$$$$$$$$$$$$$%%%&&&&==-4490qupiakccnNCASDDD",
"FDDDDDDSACNnckhaiuuq094-===&&&%%$$$$$ooooooooooooo$$$$%%&&&=-449qquiahkcnnBASDDD",
"FDDDDDDSABnvckaiuuq094-=&&&%%$$$$oooXXXXXXXXXXXXXXoooo$$%%&&==490qupihkcvnBCSSDD",
"FDDDDDSACNnckhipuq094==&&%$$$oooXXXXXX.OO.X.XXXXXXXXXXoo$$%&&=-490quihkcvnBCASDD",
"FDDDDDSABnvckaiuq094-=&%$$ooXXXXXXX..Oo&0u$.......XXXXXXo$$%&&=440quiahlvnNCASDD",
"FDDDDDSCNnckhipuq94-=&%$oo$XXXXX....O4kNDn%O..........XXXoo%%&==49qepihlcnNCASDD",
"FDDDDDACNvckaiuq04-=&%$&qkao........OiDDDn%O..........XXXooo%&&=490epihlcmNCASDD",
"FDDDDSACnvchapuq94=&&$o0DDco........OqSDDn%O........XOXXXooo%%*=440epihkcmNCSSDD",
"FDDDDSABnckhiuq04-=&%$.qDDcoO........osSDn%O..X.XXOXX      o$%**440epihkcmNCSDDD",
"FDDDDSCNnckaiuq94=&%$oOqDDcoO......OOO-SDn%OXXXXX           o%**550euihkcmNCSDDD",
"FDDDDACNvckapq04-=&%oX.qDDc$X....OX%%o-SDn%OXOOo  $*%       +#**550euihkcmNCSDDD",
"FDDDSABnvkhiuq94=&%$o%avDDBkh-O.O%innkiSDn% o&0h94lnnp%  ++++#**150euihlcmNCSDDD",
"FDDDSABnckaiuq9-=&%oX&CDDDDDDqO.$hDDDDDDDn% qNDDnNDDDDi++++++##*155eeihlcmBCSDDD",
"FDDDSANnckapu04-=&$o.&CDDDDDDqOO0SDDDDDDDn% iDDDDDDDDDC5+++++##*155eeihlcmVASDDD",
"FDDDSCNvckauq04=&%$o.&nADDSCCqOokDDNhhNDDn% 0nDDDChlSDDp+++++##*155epihlcmVASDDD",
"FDDDACNvchiuq94=&%ooXo&pDDv4=% *BDA0  0SDn*++0SDAe+#kDDl#++++##1158epghlbmCASDDD",
"FDDSACnvkhiuq94=&%ooXXO0DDco   9DDv%  5SDn*++5SDn*++eDDm*++++##1158epghlbMCSSDDD",
"FDDSABnckhiuq94=&%oo   qDDco   uDDk++ 5SDn*++5SDn*++5ADC1++@@##1158epghlbMCSDDDD",
"FDDSABnckaiu044&&%o    qDDc#   iDDi+++5SDn*++5SDn*++1CDC1@@@@@,1158epgjlmNCSDDDD",
"FDDSABnckapq044*%$o    qDDc#+++iDDi+++5SDn*++5SDn*++1VDA5@@@@@,1188epglcmVZSDDDD",
"FDDSCNnckapq044**#     qDDc#+++hDDi+++5SDn*++5SDn,@@1BDA5@@@@@,118wedflbmVASDDDD",
"FDDSCNnckape044**#++++ qDDc#+++hDDi+++5SDn*++5SDn,@@1VDA1@@@@,,158wedjlbmCASDDDD",
"FDDSCNnckipe055**#+++++eDDc#+++gDDh+++5SDn,@@5SDm,@@1CDC1@@@;,1188wegjlbMCSSDDDD",
"FDDSCNmckipe055**#+++++eDDc#+++pDDk#@+5SDn,@@8SDm,@@5ADN1@@;;,1188wdgjlbMCSDDDDD",
"FDDACNmckipe0551*##++++eDDv#+#+eDDm#@@5SDn,@@8SDm,@@eDDb,@;;,,1387wdfjbmVZSDDDDD",
"FDSACNmckhpe0551*##++++eDDAiip@5ADSe@1hDDm,@@8SDV1@,lDDj;;;;,>138wwdflbmVASDDDDD",
"FDSSCNmckhpe0551*##++++5SDDDDc##bDDClmDDDZe,@8SDDmjbDDDw;;;;,1288wtgjlbMCSSDDDDD",
"FDSACNmckhpee5511*#@@@+1MDDDDM1@pDDDDDDDDDS8@8SDDDDDDDm1;;;,>1387wdgjzbMCSSDDDDD",
"FDSACNmclhpee8511,#@@@@@pDDDDm1@1cDDDAgbDDA8@8SDSSDDDAw;;;;>>238wtdfjbmVZSDDDDDD",
"FDSACNmclhipe05511##@@@@,ellg5@@@1glj8;wge8,;8SDMwjlj7;;;;:>2367wtgflbmVZSDDDDDD",
"FDSSCNmclhgpee8511,#@@@@@@@,@@@@@@;,;;;;;;;;;8SDM>;:;;;;;:>>2367wtgjzbMCSSDDDDDD",
"FDDSCNmblhgpee85111,@@@@@@@@@@;;;;;;;;;;;;;;;8SDM>;;;;;:::>2367wtdfjzbMCSDDDDDDD",
"FDDSZVmbljgdee88511,,,@@@@@;;;;;;;;;;;;;;;;;;8SDm>;;:::::><2367rtgjlbmVZSDDDDDDD",
"FDDSACmbclhgpew88111,,;;;;;;;;;;;;;;;;;;;;;;>dDDC7::::::>>2367wtdfjzbMVASDDDDDDD",
"FDDSACMmcljgdee888111,,;;;;;;;;;;;;;;;;;;;;;tDDDDC6::::>>22367rtgfjzbMCSSDDDDDDD",
"FDDSACNmbljfgpew885111,,;;;;;;;;;;;;;;;;;;:;gDDDDS7:::><22367wtdfjzbmVZSDDDDDDDD",
"FDDSSZVmbcljgdeww883111>,,;;;;;;;;;;;:::::::3wwwww2::><223667rtgfjzbMVASDDDDDDDD",
"FDDSSZCMmbljfgdew7883321>>>::;;:::::::::::::::::::::<<223667rtdfjxbmMZSSDDDDDDDD",
"FDDDSACVmbcljfddww7888322>>>>:::::::::::::::::::::<<<223667rttgfjzbMVZSDDDDDDDDD",
"FDDDSSZVMmbljjgdtww78883322<>>>>>:::::::::::::>><<<2233667rrtdfjzbmMCSSDDDDDDDDD",
"FDDDSSACVmbbljjgdtwww7863332222>>>>>>>>>>><<<<<<222333667rrtdfjjzbMVZSDDDDDDDDDD",
"FDDDDSSZVMmbbljjgddtww7766633222222<<<<<<<<<22222333667yrrtdgfjzbmMCASDDDDDDDDDD",
"FDDDDSSAZVMmbbljjggdtrww776663333322222222222333336677yrrtdgfjzbbMVZSSDDDDDDDDDD",
"FDDDDDSSZCVMmbbljjfgdttrww77766663333333333333666677yrrttdgfjxzbmMCASDDDDDDDDDDD",
"FDDDDDDSSZCVMmbbljjffgdtttrrw77776666666666666777yrrrttdgffjxzbmMVZSSDDDDDDDDDDD",
"FDDDDDDSSSZCVMmbbzljjffgddttrrrrw77777777777yyyrrrrttddgfjjxzbbMVZASDDDDDDDDDDDD",
"FDDDDDDDSSSZCVMmbbbzljjffggddttttrrrrrrrrrrrrrrttttddgffjjzzbbMVCZSSDDDDDDDDDDDD",
"FDDDDDDDDSSSZCVMMmbbzzljjjffggdddttttttttttttttdddgfffjjxzbbmMMVZSSDDDDDDDDDDDDD",
"FDDDDDDDDDSSSAZCVMmmbbzzxjjjjffffgggddddddddgggffffjjjxzzbbmMMVZSSDDDDDDDDDDDDDD",
"FDDDDDDDDDDDSSSZCVVMmmbbbzzzxjjjjjffffffffffffjjjjjxzzbbbmMMVCZSSSDDDDDDDDDDDDDD",
"FDDDDDDDDDDDDSSSAZCVVMMmmbbbbzzzxxjjjjjjjjjjjxxxzzzzbbbmMMVVZZSSSDDDDDDDDDDDDDDD",
"FDDDDDDDDDDDDDDSSSAZZCVMMMmmbbbbbzzzzzzzzzzzzzzbbbbbmmMMVVCZZSSSDDDDDDDDDDDDDDDD",
"FDDDDDDDDDDDDDDDDSSSSZZCVVVMMMmmmbbbbbbbbbbbbbbmmmMMMVVVZZZSSSSDDDDDDDDDDDDDDDDD",
"FDDDDDDDDDDDDDDDDDDSSSSSZZZCVVVMMMMMMMmmmMMMMMMMMMVVVZZZASSSSDDDDDDDDDDDDDDDDDDD",
"FDDDDDDDDDDDDDDDDDDDDSSSSSSZZZZCVVVVVVVVVVVVVVVVCZZZZSSSSSSDDDDDDDDDDDDDDDDDDDDD",
"FDDDDDDDDDDDDDDDDDDDDDDDSSSSSSSAZZZZZZZZZZZZZZZZZSSSSSSSDDDDDDDDDDDDDDDDDDDDDDDD",
"FDDDDDDDDDDDDDDDDDDDDDDDDDDDSSSSSSSSSSSSSSSSSSSSSSSSDDDDDDDDDDDDDDDDDDDDDDDDDDDD",
"FDDDDDDDDDDDDDDDDDDDDDDDDDDDDDDDDSSSSSSSSSSSSSSSDDDDDDDDDDDDDDDDDDDDDDDDDDDDDDDD",
"FDDDDDDDDDDDDDDDDDDDDDDDDDDDDDDDDDDDDDDDDDDDDDDDDDDDDDDDDDDDDDDDDDDDDDDDDDDDDDDD",
"FDDDDDDDDDDDDDDDDDDDDDDDDDDDDDDDDDDDDDDDDDDDDDDDDDDDDDDDDDDDDDDDDDDDDDDDDDDDDDDD",
"FDDDDDDDDDDDDDDDDDDDDDDDDDDDDDDDDDDDDDDDDDDDDDDDDDDDDDDDDDDDDDDDDDDDDDDDDDDDDDDD"
};
