/* XPM */
static char *Telemadrid[] = {
/* columns rows colors chars-per-pixel */
"80 80 63 1",
"  c #FF0F00",
". c #FF1100",
"X c #FF1B0B",
"o c #FF1F10",
"O c #FF2717",
"+ c #FF382A",
"@ c #FF6106",
"# c #FF6309",
"$ c #FF6C17",
"% c #FF792C",
"& c #FF574B",
"* c #FF655A",
"= c #FF756B",
"- c #FF843C",
"; c #B6D207",
": c #B7D30B",
"> c #BAD515",
", c #BED824",
"< c #C2DA32",
"1 c #FF9A5F",
"2 c #FF916F",
"3 c #CFE15C",
"4 c #3D0F83",
"5 c #3F1284",
"6 c #411485",
"7 c #481D89",
"8 c #552D92",
"9 c #623D9A",
"0 c #6D4AA1",
"q c #7454A6",
"w c #8E73B7",
"e c #0197B5",
"r c #099AB7",
"t c #129EBA",
"y c #1FA3BE",
"u c #34ACC4",
"i c #50B7CC",
"p c #64BFD2",
"a c #70C4D5",
"s c #9B83BF",
"d c #B994BB",
"f c #FD958D",
"g c #FFBB97",
"h c #FFB3AD",
"j c #E1ED99",
"k c #FFC8B3",
"l c #E2EEA0",
"z c #A894C7",
"x c #B2A0CE",
"c c #C6B8DA",
"v c #9CD7E2",
"b c #A4D8E2",
"n c #A9DCE6",
"m c #FED5CF",
"M c #F8EFD6",
"N c #D5CCE4",
"B c #D8D4E5",
"V c #D4EDF2",
"C c #FFEAE8",
"Z c #FDF5EB",
"A c #ECEEF6",
"S c #FAF8F7",
"D c #FFFFFF",
/* pixels */
"DDDDDDDDDDDDDDDDDDDDDDDDDDDDDDDDDDDDDDDDDDDDDDDDDDDDDDDDDDDDDDDDDDDDDDDDDDDDDDDD",
"DDDDDDDDDDDDDDDDDDDDDDDDDDDDDDDDDDDDDDDDDDDDDDDDDDDDDDDDDDDDDDDDDDDDDDDDDDDDDDDD",
"DDDDDDDDDDDDDDM<::::::::::::::::::::::;31@######################1ZDDDDDDDDDDDDDD",
"DDDDDDDDDDDDDDl>::::::::::::::::::::::>lg#######################%mDDDDDDDDDDDDDD",
"DDDDDDDDDDDDDD3::::::::::::::::::::::;<Zm$@######################gDDDDDDDDDDDDDD",
"DDDDDDDDDDDDDZ<:::::::::::::::::::::::3DS-@######################1ZDDDDDDDDDDDDD",
"DDDDDDDDDDDDDM>:::::::::::::::::::::::lDDg#######################$MDDDDDDDDDDDDD",
"DDDDDDDDDDDDD3:::::::::::::::::::::::,MDDm$#######################gDDDDDDDDDDDDD",
"DDDDDDDDDDDDZ<::::::::::::::::::::::;3SDDC-@######################1SDDDDDDDDDDDD",
"DDDDDDDDDDDDM,:::::::::::::::::::::::jDDDDg@######################%mDDDDDDDDDDDD",
"DDDDDDDDDDDDj::::::::::::::::::::::;<MDDDDk$@#####################$gDDDDDDDDDDDD",
"DDDDDDDDDDDZ3::::::::::::::::::::::;3DDDDDZ-@######################1SDDDDDDDDDDD",
"DDDDDDDDDDDM,::::::::::::::::::::::>lDDDDDD2#######################%mDDDDDDDDDDD",
"DDDDDDDDDDDj:::::::::::::::::::::::,ZDDDDDDm$#######################kDDDDDDDDDDD",
"DDDDDDDDDDS3:::::::::::::::::::::::3SDDDDDDZ%#######################1SDDDDDDDDDD",
"DDDDDDDDDDM,:::::::::::::::::::::::lDDDDDDDD2#######################%CDDDDDDDDDD",
"DDDDDDDDDDj>::::::::::::::::::::::,MDDDDDDDDk#######################$kDDDDDDDDDD",
"DDDDDDDDDS3::::::::::::::::::::::;3SDDDDDDDDC-@######################1DDDDDDDDDD",
"DDDDDDDDDM<:::::::::::::::::::::::jDDDDDDDDDD2@######################%MDDDDDDDDD",
"DDDDDDDDDj>:::::::::::::::::::::;<MDDDDDDDDDDk$######################$kDDDDDDDDD",
"DDDDDDDDS3::::::::::::::::::::::;3SDDDDDDDDDDC-@######################1SDDDDDDDD",
"DDDDDDDDM<::::::::::::::::::::::>jDDDDDDDDDDDD1#######################%MDDDDDDDD",
"DDDDDDDDl:::::::::::::::::::::::>MDDDDDDDDDDDDk$#######################kDDDDDDDD",
"DDDDDDDS3:::::::::::::::::::::::3SDDDDDDDDDDDDC%#######################1DDDDDDDD",
"DDDDDDDM,;;;;;;;;;;;;;;;;;;;;;;;jDDDDDDDDDDDDDS2@@@@@@@@@@@@@@@@@@@@@@@%CDDDDDDD",
"DDDDDDDBjjjjjjjjjjjjjjjjjjjjjjjjMDDDDDDDDDDDDDDMggggggggggggggggggggggggBDDDDDDD",
"DDDDDDDaiVDDDDDDDDDDDDDDDDDDDDDDDDDDDDDDDDDDDDDDDDDDDDDDDDDDDDDDDDDDDDBqwDDDDDDD",
"DDDDDDVueubSDDDDDDDDDDDDDDDDDDDDDDDDDDDDDDDDDDDDDDDDDDDDDDDDDDDDDDDDSx950ADDDDDD",
"DDDDDDbreetaADDDDDDDDDDDDDDDDDDDDDDDDDDDDDDDDDDDDDDDDDDDDDDDDDDDDDDAw7568cDDDDDD",
"DDDDDSaeeeeeiVDDDDDDDDDDDDDDDDDDDDDDDDDDDDDDDDDDDDDDDDDDDDDDDDDDDDc065666sSDDDDD",
"DDDDDVueeeeeeyvSDDDDDDDDDDDDDDDDDDDDDDDDDDDDDDDDDDDDDDDDDDDDDDDDAz86666660ADDDDD",
"DDDDDnreeeeeeeraVDDDDDDDDDDDDDDDDDDDDDDDDDDDDDDDDDDDDDDDDDDDDDDBw756666667NDDDDD",
"DDDDDpeeeeeeeeeeunDDDDDDDDDDDDDDDDDDDDDDDDDDDDDDDDDDDDDDDDDDDSc96666666666sDDDDD",
"DDDDAueeeeeeeeeeeyvSDDDDDDDDDDDDDDDDDDDDDDDDDDDDDDDDDDDDDDDDAs8566666666660ADDDD",
"DDDDnteeeeeeeeeeeeriVDDDDDDDDDDDDDDDDDDDDDDDDDDDDDDDDDDDDDDBq65666666666668cDDDD",
"DDDDaeeeeeeeeeeeeeeeunDDDDDDDDDDDDDDDDDDDDDDDDDDDDDDDDDDDSx9566666666666667sDDDD",
"DDDVueeeeeeeeeeeeeeeetaADDDDDDDDDDDDDDDDDDDDDDDDDDDDDDDDAw76666666666666666qADDD",
"DDDnreeeeeeeeeeeeeeeeeeiVDDDDDDDDDDDDDDDDDDDDDDDDDDDDDDc06566666666666666668cDDD",
"DDSaeeeeeeeeeeeeeeeeeeeeyvSDDDDDDDDDDDDDDDDDDDDDDDDDDAx866666666666666666666zDDD",
"DDAueeeeeeeeeeeeeeeeeeeeetaADDDDDDDDDDDDDDDDDDDDDDDDAw7566666666666666666666qADD",
"DDnreeeeeeeeeeeeeeeeeeeeeernDDDDDDDDDDDDDDDDDDDDDDDDc666666666666666666666667NDD",
"DDaeeeeeeeeeeeeeeeeeeeeeeeyVDDDDDDDDDDDDDDDDDDDDDDDDB766666666666666666666667zDD",
"DAueeeeeeeeeeeeeeeeeeeeeeeaSDDDDDDDDDDDDDDDDDDDDDDDDAq56666666666666666666666qSD",
"DnteeeeeeeeeeeeeeeeeeeeeervDDDDDDDDDDDDDDDDDDDDDDDDDDz566666666666666666666668ND",
"DaeeeeeeeeeeeeeeeeeeeeeeeuVDDDDDDDDDDDDDDDDDDDDDDDDDDN856666666666666666666667zD",
"VueeeeeeeeeeeeeeeeeeeeeeeiDDDDDDDDDDDDDDDDDDDDDDDDDDDSq46666666666666666666666qA",
"nteeeeeeeeeeeeeeeeeeeeeervDDDDDDDDDDDDDDDDDDDDDDDDDDDDs666666666666666666666668N",
"aeeeeeeeeeeeeeeeeeeeeeeeyVDDDDDDDDDDDDDDDDDDDDDDDDDDDDB866666666666666666666666z",
"ueeeeeeeeeeeeeeeeeeeeeeeiSDDDDDDDDDDDDDDDDDDDDDDDDDDDDS066666666666666666666666q",
"vueeeeeeeeeeeeeeeeeeeeeebDDDDDDDDDDDDDCffZDDDDDDDDDDDDDz66666666666666666666660c",
"DVpreeeeeeeeeeeeeeeeeeetVDDDDDDDDDDDDm&.X*mDDDDDDDDDDDDN766666666666666666667wBD",
"DDSvyeeeeeeeeeeeeeeeeeepSDDDDDDDDDDSf+ .  +hSDDDDDDDDDDAq5666666666666666669xSDD",
"DDDDnueeeeeeeeeeeeeeeeevDDDDDDDDDDm=X......o=CDDDDDDDDDDs46666666666666666qNDDDD",
"DDDDDVateeeeeeeeeeeeeeyVDDDDDDDDDh+. ...... .&mDDDDDDDDDc8566666666666668sADDDDD",
"DDDDDDSvueeeeeeeeeeeeeiSDDDDDDDCfO .......... OfZDDDDDDDA046666666666660cSDDDDDD",
"DDDDDDDDVireeeeeeeeeervDDDDDDDm&X ............ X*mDDDDDDDw666666666667wBDDDDDDDD",
"DDDDDDDDDAateeeeeeeeetVDDDDDSh+ ............... .+hSDDDDDN76666666668zADDDDDDDDD",
"DDDDDDDDDDDnueeeeeeeeuADDDDC=O .................. O2CDDDDA9666666660cDDDDDDDDDDD",
"DDDDDDDDDDDDVpreeeeeevDDDDm&...................... .&mDDDSs5666667wADDDDDDDDDDDD",
"DDDDDDDDDDDDDSvyeeeetnDDZfO ........................ +fSDDc766669xSDDDDDDDDDDDDD",
"DDDDDDDDDDDDDDDnieeeiADm=X............................X=CDB0566qNDDDDDDDDDDDDDDD",
"DDDDDDDDDDDDDDDDVateaSh+.............................. .&kSw48sADDDDDDDDDDDDDDDD",
"DDDDDDDDDDDDDDDDDSvicfO ................................ OfdqcSDDDDDDDDDDDDDDDDD",
"DDDDDDDDDDDDDDDDDDDVfX .................................. OfADDDDDDDDDDDDDDDDDDD",
"DDDDDDDDDDDDDDDDDDDDC2O..................................OfCDDDDDDDDDDDDDDDDDDDD",
"DDDDDDDDDDDDDDDDDDDDDSh+................................&hDDDDDDDDDDDDDDDDDDDDDD",
"DDDDDDDDDDDDDDDDDDDDDDDm*X............................X=CDDDDDDDDDDDDDDDDDDDDDDD",
"DDDDDDDDDDDDDDDDDDDDDDDDZf+..........................+hSDDDDDDDDDDDDDDDDDDDDDDDD",
"DDDDDDDDDDDDDDDDDDDDDDDDDDk&........................&mDDDDDDDDDDDDDDDDDDDDDDDDDD",
"DDDDDDDDDDDDDDDDDDDDDDDDDDDC=O....................O2CDDDDDDDDDDDDDDDDDDDDDDDDDDD",
"DDDDDDDDDDDDDDDDDDDDDDDDDDDDSh+..................+hSDDDDDDDDDDDDDDDDDDDDDDDDDDDD",
"DDDDDDDDDDDDDDDDDDDDDDDDDDDDDDm&X..............X*mDDDDDDDDDDDDDDDDDDDDDDDDDDDDDD",
"DDDDDDDDDDDDDDDDDDDDDDDDDDDDDDDCfO............OfZDDDDDDDDDDDDDDDDDDDDDDDDDDDDDDD",
"DDDDDDDDDDDDDDDDDDDDDDDDDDDDDDDDDh+..........&kDDDDDDDDDDDDDDDDDDDDDDDDDDDDDDDDD",
"DDDDDDDDDDDDDDDDDDDDDDDDDDDDDDDDDDm=X......o=CDDDDDDDDDDDDDDDDDDDDDDDDDDDDDDDDDD",
"DDDDDDDDDDDDDDDDDDDDDDDDDDDDDDDDDDDZf+....+hSDDDDDDDDDDDDDDDDDDDDDDDDDDDDDDDDDDD",
"DDDDDDDDDDDDDDDDDDDDDDDDDDDDDDDDDDDDDk&.X*mDDDDDDDDDDDDDDDDDDDDDDDDDDDDDDDDDDDDD",
"DDDDDDDDDDDDDDDDDDDDDDDDDDDDDDDDDDDDDDm=2CDDDDDDDDDDDDDDDDDDDDDDDDDDDDDDDDDDDDDD",
"DDDDDDDDDDDDDDDDDDDDDDDDDDDDDDDDDDDDDDDDDDDDDDDDDDDDDDDDDDDDDDDDDDDDDDDDDDDDDDDD",
"DDDDDDDDDDDDDDDDDDDDDDDDDDDDDDDDDDDDDDDDDDDDDDDDDDDDDDDDDDDDDDDDDDDDDDDDDDDDDDDD"
};
