/* XPM */
static char *Televisio_Badalona[] = {
/* columns rows colors chars-per-pixel */
"80 80 116 2",
"   c #000000",
".  c #0C0403",
"X  c #0B0C0C",
"o  c #150505",
"O  c #1A0707",
"+  c #1D0908",
"@  c #0E1010",
"#  c #141414",
"$  c #171818",
"%  c #1C1C1C",
"&  c #250807",
"*  c #220A09",
"=  c #2F0B0B",
"-  c #3F0E0D",
";  c #3B1110",
":  c #232323",
">  c #2A2A2A",
",  c #343434",
"<  c #3B3B3B",
"1  c #420F0E",
"2  c #42100F",
"3  c #4C1211",
"4  c #5C1817",
"5  c #641715",
"6  c #691817",
"7  c #6C1C1A",
"8  c #701C1A",
"9  c #7A201E",
"0  c #7B2220",
"q  c #434343",
"w  c #4D4D4D",
"e  c #4F5050",
"r  c #515151",
"t  c #5B5B5B",
"y  c #636363",
"u  c #6B6B6B",
"i  c #737373",
"p  c #7C7C7C",
"a  c #862624",
"s  c #982B29",
"d  c #AF3734",
"f  c #B03E3B",
"g  c #BA3C39",
"h  c #847C7C",
"j  c #C64A47",
"k  c #C04B49",
"l  c #D3504E",
"z  c #D35350",
"x  c #D95956",
"c  c #D15B58",
"v  c #DC5F5C",
"b  c #E64D4D",
"n  c #E75353",
"m  c #E85B5B",
"M  c #D4635F",
"N  c #D86865",
"B  c #E96262",
"V  c #EA6D6D",
"C  c #E5726F",
"Z  c #EB7373",
"A  c #E47977",
"S  c #EC7C7C",
"D  c #E3827F",
"F  c #838383",
"G  c #8C8383",
"H  c #8D8D8D",
"J  c #938A8A",
"K  c #988F8F",
"L  c #949494",
"P  c #9B9292",
"I  c #9B9B9B",
"U  c #A09696",
"Y  c #A39C9C",
"T  c #A4A4A4",
"R  c #ABABAB",
"E  c #B4B4B4",
"W  c #BDBDBD",
"Q  c #ED8383",
"!  c #EE8B8B",
"~  c #EF9191",
"^  c #F19494",
"/  c #F19D9D",
"(  c #E6A6A6",
")  c #E6AEAE",
"_  c #F2A3A3",
"`  c #F3AAA7",
"'  c #F3ACAC",
"]  c #F7B1AF",
"[  c #E8B2B2",
"{  c #F4B5B5",
"}  c #F5BABA",
"|  c #C4C4C4",
" . c #CDCDCD",
".. c #D4D4D4",
"X. c #DBDBDB",
"o. c #F6C3C3",
"O. c #F9C5C3",
"+. c #F7CACA",
"@. c #F8CECE",
"#. c #F8D0CE",
"$. c #EBD5D5",
"%. c #F8D3D3",
"&. c #F9D8D7",
"*. c #F9DBDB",
"=. c #FCE0DE",
"-. c #E4E4E4",
";. c #EEE0E0",
":. c #EDEDED",
">. c #FBE3E3",
",. c #FCEBEB",
"<. c #FDF0EF",
"1. c #EEF0F0",
"2. c #F3F3F3",
"3. c #FDF3F3",
"4. c #FEFEFE",
"5. c None",
/* pixels */
"5.5.5.5.5.5.5.5.5.5.5.5.5.5.5.5.5.5.5.5.5.5.5.5.5.5.5.5.5.5.5.5.5.5.5.5.5.5.5.5.5.5.5.5.5.5.5.5.5.5.5.5.5.5.5.5.5.5.5.5.5.5.5.5.5.5.5.5.5.5.5.5.5.5.5.5.5.5.5.5.",
"5.5.5.5.5.5.5.5.5.5.5.5.5.5.5.5.5.5.5.5.5.5.5.5.5.5.5.5.5.5.5.5.5.5.5.5.5.5.5.5.5.5.5.5.5.5.5.5.5.5.5.5.5.5.5.5.5.5.5.5.5.5.5.5.5.5.5.5.5.5.5.5.5.5.5.5.5.5.5.5.",
"5.5.5.5.5.5.5.5.5.5.5.5.5.5.5.5.5.5.5.5.5.5.5.5.5.5.5.5.5.5.5.5.5.5.5.5.5.5.5.5.5.5.5.5.5.5.5.5.5.5.5.5.5.5.5.5.5.5.5.5.5.5.5.5.5.5.5.5.5.5.5.5.5.5.5.5.5.5.5.5.",
"5.5.5.5.5.5.5.5.5.5.5.5.5.5.5.5.5.5.5.5.5.5.5.5.5.5.5.5.5.5.5.5.5.5.5.5.5.5.5.5.5.5.5.5.5.5.5.5.5.5.5.5.5.5.5.5.5.5.5.5.5.5.5.5.5.5.5.5.5.5.5.5.5.5.5.5.5.5.5.5.",
"5.5.5.5.5.5.5.5.5.5.5.5.5.5.5.5.5.5.5.5.5.5.5.5.5.5.5.5.5.5.5.5.5.5.5.5.5.5.5.5.5.5.5.5.5.5.5.5.5.5.5.5.5.5.5.5.5.5.5.5.5.5.5.5.5.5.5.5.5.5.5.5.5.5.5.5.5.5.5.5.",
"5.5.5.5.5.5.5.5.5.5.5.5.5.5.5.5.5.5.5.5.5.5.5.5.5.5.5.5.5.5.5.5.5.5.5.5.5.5.5.5.5.5.5.5.5.5.5.5.5.5.5.5.5.5.5.5.5.5.5.5.5.5.5.5.5.5.5.5.5.5.5.5.5.5.5.5.5.5.5.5.",
"5.5.5.5.5.5.5.5.5.5.5.5.5.5.5.5.5.5.5.5.5.5.5.5.5.5.5.5.5.5.5.5.5.5.5.5.5.5.5.5.5.5.5.5.5.5.5.5.5.5.5.5.5.5.5.5.5.5.5.5.5.5.5.5.5.5.5.5.5.5.5.5.5.5.5.5.5.5.5.5.",
"5.5.5.5.5.5.5.5.5.5.5.5.5.5.5.5.5.5.5.5.5.5.5.5.5.5.5.5.5.5.5.5.5.5.5.5.5.5.5.5.5.5.5.5.5.5.5.5.5.5.5.5.5.5.5.5.5.5.5.5.5.5.5.5.5.5.5.5.5.5.5.5.5.5.5.5.5.5.5.5.",
"5.5.5.5.5.5.5.5.5.5.5.5.5.5.5.5.5.5.5.5.5.5.5.5.5.5.5.5.5.5.5.5.5.5.5.5.5.5.5.5.5.5.5.5.5.5.5.5.5.5.5.5.5.5.5.5.5.5.5.5.5.5.5.5.5.5.5.5.5.5.5.5.5.5.5.5.5.5.5.5.",
"5.5.5.5.5.5.5.5.5.5.5.5.5.5.5.5.5.5.5.5.5.5.5.5.5.5.5.5.5.5.5.5.5.5.5.5.5.5.5.5.5.5.5.5.5.5.5.5.5.5.5.5.5.5.5.5.5.5.5.5.5.5.5.5.5.5.5.5.5.5.5.5.5.5.5.5.5.5.5.5.",
"5.5.5.5.5.5.5.5.5.5.5.5.5.5.5.5.5.5.5.5.5.5.5.5.5.5.5.5.5.5.5.5.5.5.5.5.5.5.5.5.5.5.5.5.5.5.5.5.5.5.5.5.5.5.5.5.5.5.5.5.5.5.5.5.5.5.5.5.5.5.5.5.5.5.5.5.5.5.5.5.",
"5.5.5.5.5.5.5.5.5.5.5.5.5.5.5.5.5.5.5.5.5.5.5.5.5.5.5.5.5.5.5.5.5.5.5.5.5.5.5.5.5.5.5.5.5.5.5.5.5.5.5.5.5.5.5.5.5.5.5.5.5.5.5.5.5.5.5.5.5.5.5.5.5.5.5.5.5.5.5.5.",
"5.5.5.5.5.5.5.5.5.5.5.5.5.5.5.5.5.5.5.5.5.5.5.5.5.5.5.5.5.5.5.5.5.5.5.5.5.5.5.5.5.5.5.5.5.5.5.5.5.5.5.5.5.5.5.5.5.5.5.5.5.5.5.5.5.5.5.5.5.5.5.5.5.5.5.5.5.5.5.5.",
"5.5.5.5.5.5.5.5.5.5.5.5.5.5.5.5.5.5.5.5.5.5.5.5.5.5.5.5.5.5.5.5.5.5.5.5.5.5.5.5.5.5.5.5.5.5.5.5.5.5.5.5.5.5.5.5.5.5.5.5.5.5.5.5.5.5.5.5.5.5.5.5.5.5.5.5.5.5.5.5.",
"5.4.4.4.4.4.4.4.4.4.4.4.4.4.4.4.4.4.4.4.4.4.4.4.4.4.4.4.4.4.4.4.4.4.4.4.4.4.4.4.2.:.X.| R L i y t y i L E -.4.4.4.4.4.4.4.4.4.4.4.4.4.4.4.4.4.4.4.4.4.4.4.4.4.5.",
"5.4.4.4.4.4.4.4.4.4.4.4.4.4.4.4.4.4.4.4.4.4.4.4.4.4.4.4.4.4.4.4.4.4.4.4.:.X.| R L i w , % X .       . X > t T :.4.4.4.4.4.4.4.4.4.4.4.4.4.4.4.4.4.4.4.4.4.4.4.5.",
"5.4.4.4.4.4.4.4.4.4.4.4.4.4.4.4.4.4.4.4.4.4.4.4.4.4.4.4.4.4.4.-...W T F y q , $ .                           $ i -.4.4.4.4.4.4.4.4.4.4.4.4.4.4.4.4.4.4.4.4.4.4.5.",
"5.4.4.4.4.4.4.4.4.4.4.4.4.4.4.4.4.4.4.4.4.4.4.4.4.4.:...E I p t q > $ .                                       # p 2.4.4.4.4.4.4.4.4.4.4.4.4.4.4.4.4.4.4.4.4.4.5.",
"5.4.4.4.4.4.4.4.4.4.4.4.4.4.4.4.4.4.4.4.2.:...E L i r < : # .                                                   > W 4.4.4.4.4.4.4.4.4.4.4.4.4.4.4.4.4.4.4.4.4.5.",
"5.4.4.4.4.4.4.4.4.4.4.4.4.4.4.2.:...E H u w , % X X                             .                               X F 4.4.4.4.4.4.4.4.4.4.4.4.4.4.4.4.4.4.4.4.4.5.",
"5.4.4.4.4.4.4.4.4.2.2.:...E H u q > $ X .                         . X @ % , w u F p t :                         . t 2.4.4.4.4.4.4.4.4.4.4.4.4.4.4.4.4.4.4.4.4.5.",
"5.4.4.4.4.:.X. .E H y q : @ X .                       . X $ % , w y F T | X.-.2.4.2.1.E ,                         r 2.4.4.4.4.4.4.4.4.4.4.4.4.4.4.4.4.4.4.4.4.5.",
"5.4.4.4.| i q > #                           X $ : , w y F T | ..-.4.4.4.4.4.4.4.4.4.4.4.I $                       r 2.4.4.4.4.4.4.4.4.4.4.4.4.4.4.4.4.4.4.4.4.5.",
"5.4.4.4.L X                     X $ > < r u F T W ..:.2.4.4.4.4.4.4.4.4.4.4.4.4.4.4.4.4. .,                       e :.4.4.4.4.4.4.4.4.4.4.4.4.4.4.4.4.4.4.4.4.5.",
"5.4.4.4.L #         . # > < r u H Y W ..-.2.4.4.4.4.4.4.4.4.4.4.4.4.4.4.4.4.4.4.4.4.4.4.X.q                       r :.4.4.4.4.4.4.4.4.4.4.4.4.4.4.4.4.4.4.4.4.5.",
"5.4.4.4.I : : < r i H T W ..-.1.4.4.4.4.4.4.4.4.4.4.4.4.4.4.4.4.4.4.4.4.4.4.4.4.4.4.4.4.X.q                       > p F F F W 4.4.4.4.4.4.4.-.L F F F R 2.4.4.5.",
"5.4.4.4...E | ..-.:.4.4.4.4.4.4.4.4.4.4.4.4.4.4.4.4.4.4.4.4.4.4.4.4.4.4.4.4.4.4.4.4.4.4.X.q                       % : X X X r -.4.4.4.4.4.4.T % X X # p 2.4.4.5.",
"5.4.4.4.4.4.4.4.4.4.4.4.4.4.4.4.4.4.4.4.4.4.4.4.4.4.4.4.4.4.4.4.4.4.4.4.4.4.4.4.4.4.4.4.-.w                     X < w       % W 4.4.4.4.4.2.y       : E 4.4.4.5.",
"5.4.4.4.4.4.4.4.4.4.4.4.4.4.4.4.4.4.4.4.4.4.4.4.4.4.4.4.4.4.4.4.4.4.4.4.4.4.4.4.4.4.4.4.-.w                     . w L $     . p 2.4.4.4.4.| >       r :.4.4.4.5.",
"5.4.4.4.4.4.4.4.4.4.4.4.4.4.4.4.4.4.4.4.4.4.4.4.4.4.4.4.4.4.4.4.4.4.4.4.4.4.4.4.4.4.4.4.-.w                       r | q       < X.4.4.4.4.H #     # L 4.4.4.4.5.",
"5.4.4.4.4.4.4.4.4.4.4.4.4.4.4.4.4.4.4.4.4.4.4.4.4.4.4.4.4.4.4.4.4.4.4.4.4.4.4.4.4.4.4.4.:.w                       r -.F X     # R 4.4.4.-.w       , ..4.4.4.4.5.",
"5.4.4.4.4.4.4.4.4.4.4.4.4.4.4.4.4.4.4.4.4.4.4.4.4.4.4.4.4.4.4.4.4.4.4.4.4.4.4.4.4.4.4.4.:.r                       e 2.W >       y 2.4.4.E :     . i 4.4.4.4.4.5.",
"5.4.4.4.4.4.4.4.4.4.4.4.4.4.4.4.4.4.4.4.4.4.4.4.4.4.4.4.4.4.4.4.4.4.4.4.4.4.4.4.4.4.4.4.:.r                       r 1.:.y       >  .4.2.p .     : W 4.4.4.4.4.5.",
"5.4.4.4.4.4.4.4.4.4.4.4.4.4.4.4.4.4.4.4.4.4.4.4.4.4.4.4.4.4.4.4.4.4.4.4.4.4.4.4.4.4.4.4.:.t                       w :.4.T $     X H 4...q     . r :.4.4.4.4.4.5.",
"5.4.4.4.4.4.4.4.4.4.4.4.4.4.4.4.4.4.4.4.4.4.4.4.4.4.4.4.4.4.4.4.4.4.4.4.4.4.4.4.4.4.4.4.1.t                     . e 1.4.X.q       r :.T $     X I 4.4.4.4.4.4.5.",
"5.4.4.4.4.4.4.4.4.4.4.4.4.4.4.4.4.4.4.4.4.4.4.4.4.4.4.4.4.4.4.4.4.4.4.4.4.4.4.4.4.4.4.4.1.y                       e 1.4.4.F X     > E i       , ..4.4.4.4.4.4.5.",
"5.4.4.4.4.4.4.4.4.4.4.4.4.4.4.4.4.4.4.4.4.4.4.4.4.4.4.4.4.4.4.4.4.4.4.4.4.4.4.4.4.4.4.4.2.y                       r :.4.4.| >     # y <     . p 2.4.4.4.4.4.4.5.",
"5.4.4.4.4.4.4.4.4.4.4.4.4.4.4.4.4.4.4.4.4.4.4.4.4.4.4.4.4.4.4.4.4.4.4.4.4.4.4.4.4.4.4.4.2.y .                     r :.4.4.:.y       # X     % W 4.4.4.4.4.4.4.5.",
"5.4.4.4.4.4.4.4.4.4.4.4.4.4.4.4.4.4.4.4.4.4.4.4.4.4.4.4.4.4.4.4.4.4.4.4.4.4.4.4.4.4.4.4.4.y                     . e :.4.4.4.T $             t -.4.4.4.4.4.4.4.5.",
"5.4.4.4.4.4.4.4.4.4.4.4.4.4.4.4.4.4.4.4.4.4.4.4.4.4.4.4.4.4.4.4.4.4.4.4.4.4.4.4.4.4.4.4.4.u .                     e :.4.4.4.-.q           @ I 4.4.4.4.4.4.4.4.5.",
"5.4.4.4.4.4.4.4.4.4.4.4.4.4.4.4.4.4.4.4.4.4.4.4.4.4.4.4.4.4.4.4.4.4.4.4.4.4.4.4.4.4.4.4.4.u                       e :.4.4.4.4.H X         < ..4.4.4.4.4.4.4.4.5.",
"5.4.4.4.4.4.4.4.4.4.4.4.4.4.4.4.4.4.4.4.4.4.4.4.4.4.4.4.4.4.4.4.4.4.4.4.4.4.4.4.4.4.4.4.4.u X                     e :.4.4.4.4. .>       . p 2.4.4.4.4.4.4.4.4.5.",
"5.4.4.4.4.4.4.4.4.4.4.4.4.4.4.4.4.4.4.4.4.4.4.4.4.4.4.4.4.4.4.4.4.4.4.4.4.4.4.4.4.4.4.4.4.i .                     r 1.4.4.4.4.:.i $ $ $ , W 4.4.4.4.4.4.4.4.4.5.",
"5.4.4.4.4.4.4.4.4.4.4.4.4.4.4.4.4.4.4.4.4.4.4.4.4.4.4.4.4.4.4.4.4.4.4.4.4.4.4.4.4.4.4.4.4.i X                     r 1.4.4.4.4.4.-.| W W  .2.4.4.4.4.4.4.4.4.4.5.",
"5.4.4.4.4.4.4.4.4.4.4.4.4.4.4.4.4.4.4.4.4.4.4.4.4.4.4.4.4.4.4.4.4.4.4.4.4.4.4.4.4.4.4.4.4.i X                     r :.4.4.4.4.4.4.4.4.4.4.4.4.4.4.4.4.4.4.4.4.5.",
"5.4.4.3.o.>.4.4.4.4.4.4.4.4.4.4.4.4.4.4.4.4.4.4.4.4.4.4.4.4.3.+.%.4.4.4.4.4.4.4.4.4.4.%.@.h X                     r :.4.4.4.4.4.4.4.4.4.4.4.4.4.4.4.4.4.4.4.4.5.",
"5.4.4.>.Q } 4.4.4.4.4.4.4.4.4.4.4.4.4.4.4.4.4.4.4.4.4.4.4.4.3.! _ 4.4.4.4.4.4.4.4.4.4./ ~ h X                   . e :.4.4.4.4.4.4.4.4.4.4.4.4.4.4.4.4.4.4.4.4.5.",
"5.4.4.>.S } 4.4.4.4.4.4.4.4.4.4.4.4.4.4.4.4.4.4.4.4.4.4.4.4.4.Q _ 4.4.4.4.4.4.4.4.4.4.^ ~ h @                     e 1.4.4.4.4.4.4.4.4.4.4.4.4.4.4.4.4.4.4.4.4.5.",
"5.4.4.>.S } *.{ / ` &.4.4.4.4.3.@._ _ { >.*.&.4.4.3.o._ _ o.>.Q _ 4.4.,.} / _ +.,.%.>./ ^ h X     O 3 6 5 - .     r $.%.,.O._ _ %.4.4.4.4.>.} / ` +.,.%.,.4.4.5.",
"5.4.4.>.S Q Q ! ^ Q Z { 3.4.3._ V Q ~ S ! S ^ ,.>.~ V ! ~ S ~ C _ 4.%.Q Z ! ! S ! S } _ ^ G #   = s c D A j 9 o   e ) S ! Q ^ Q Z o.4.4.%.S Z ! ! S ! S o.4.4.5.",
"5.4.4.>.V m } >.3.>.` V o.4.{ V { ,.,.>._ b Q ,.^ V o.,.,.&.! b _ >.Q Q %.,.,.@.S b { _ ^ G # o s S &.3.,.O.M 7 . e ( b Q *.3.>.^ S 3.>.S ! &.,.,.+.Z n o.4.4.5.",
"5.4.4.>.Z ^ 3.4.4.4.,.! ^ =.A / 3.4.4.4.,.S Q @.V } 4.4.4.4.&.B _ } V @.4.4.4.4.o.B { _ ^ J # 3 x %.4.4.4.4.] g * r ( B +.4.4.4.o.V >.} Z %.4.4.4.4.} B o.4.4.5.",
"5.4.4.>.S } 4.4.4.4.4.' Q o.V +.4.4.4.4.4./ ! } V >.4.4.4.4.4.Q _ _ S 3.4.4.4.4.>.S { _ ^ K # 8 A 3.4.4.4.4.*.z 2 r ( S >.4.4.4.%.V %./ ! ,.4.4.4.4.*.S o.4.4.5.",
"5.4.4.>.S { 4.4.4.4.4.` Q o.V +.4.4.4.4.4./ ! } V *.4.4.4.4.3.Q _ ` S ,.4.4.4.4.>.S { _ ^ K # 8 S 3.4.4.4.4.&.l ; r ( S >.4.4.4.%.V %._ ! ,.4.4.4.4.*.S } 4.4.5.",
"5.4.4.>.V Q ,.4.4.4.>.S / >.S ^ 3.4.4.4.>.Z Q %.V ` 4.4.4.4.%.m _ +.V o.4.4.4.4.} m } / ^ P $ 1 l #.4.4.4.4.` d + r ( S >.4.4.4.#.V *.} Z o.4.4.4.4.' m o.4.4.5.",
"5.4.4.>.Z m / %.>.+.! A @.4.o.V / *.>.@.^ b Q ,.' V ' =.>.o.Q b _ ,.~ Z } >.*.} Z n } / ^ P $ o a C O.>.=.] z 4 . r ( S >.4.4.4.%.V *.,.! S o.>.*.} V m o.4.4.5.",
"5.4.4.>.~ / ! S S Z Q +.3.4.3.} S S S S / ! / 3.3.' Z S Q S _ ! { 4.>./ Z S S Q _ ! o.' ` Y $   * 9 k N M f 4 .   r [ ^ ,.4.4.4.*.Q *.4.>.^ Z S Q Q / ! +.4.4.5.",
"5.4.4.4.>.3.,.@.o.+.>.4.4.4.4.4.>.o.o.%.,.,.>.4.4.3.*.o.o.*.3.>.>.4.4.3.%.o.o.=.3.>.,.,.,.T $     . = 1 - & .     r ;.>.4.4.4.4.3.>.3.4.4.,.%.o.o.>.3.>.3.4.4.5.",
"5.4.4.4.4.4.4.4.4.4.4.4.4.4.4.4.4.4.4.4.4.4.4.4.4.4.4.4.4.4.4.4.4.4.4.4.4.4.4.4.4.4.4.4.4.R $                   X r 1.4.4.4.4.4.4.4.4.4.4.4.4.4.4.4.4.4.4.4.4.5.",
"5.4.4.4.4.4.4.4.4.4.4.4.4.4.4.4.4.4.4.4.4.4.4.4.4.4.4.4.4.4.4.4.4.4.4.4.4.4.4.4.4.4.4.4.4.R %                     r 1.4.4.4.4.4.4.4.4.4.4.4.4.4.4.4.4.4.4.4.4.5.",
"5.4.4.4.4.4.4.4.4.4.4.4.4.4.4.4.4.4.4.4.4.4.4.4.4.4.4.4.4.4.4.4.4.4.4.4.4.4.4.4.4.4.4.4.4.E %                     r 1.4.4.4.4.4.4.4.4.4.4.4.4.4.4.4.4.4.4.4.4.5.",
"5.4.4.4.4.4.4.4.4.4.4.4.4.4.4.4.4.4.4.4.4.4.4.4.4.4.4.4.4.4.4.4.4.4.4.4.4.4.4.4.4.4.4.4.4.E %                     r 1.4.4.4.4.4.4.4.4.4.4.4.4.4.4.4.4.4.4.4.4.5.",
"5.4.4.4.4.4.4.4.4.4.4.4.4.4.4.4.4.4.4.4.4.4.4.4.4.4.4.4.4.4.4.4.4.4.4.4.4.4.4.4.4.4.4.4.4.E %                   . r 2.4.4.4.4.4.4.4.4.4.4.4.4.4.4.4.4.4.4.4.4.5.",
"5.4.4.4.4.4.4.4.4.4.4.4.4.4.4.4.4.4.4.4.4.4.4.4.4.4.4.4.4.4.4.4.4.4.4.4.4.4.4.4.4.4.4.4.4.W %                   . r 1.4.4.4.4.4.4.4.4.4.4.4.4.4.4.4.4.4.4.4.4.5.",
"5.4.4.4.4.4.4.4.4.4.4.4.4.4.4.4.4.4.4.4.4.4.4.4.4.4.4.4.4.4.4.4.4.4.4.4.4.4.4.4.4.4.4.4.4.| < : : : : : : : : : > u 2.4.4.4.4.4.4.4.4.4.4.4.4.4.4.4.4.4.4.4.4.5.",
"5.4.4.4.4.4.4.4.4.4.4.4.4.4.4.4.4.4.4.4.4.4.4.4.4.4.4.4.4.4.4.4.4.4.4.4.4.4.4.4.4.4.4.4.4.:.| E E E E E E E E E E  .4.4.4.4.4.4.4.4.4.4.4.4.4.4.4.4.4.4.4.4.4.5.",
"5.5.5.5.5.5.5.5.5.5.5.5.5.5.5.5.5.5.5.5.5.5.5.5.5.5.5.5.5.5.5.5.5.5.5.5.5.5.5.5.5.5.5.5.5.5.5.5.5.5.5.5.5.5.5.5.5.5.5.5.5.5.5.5.5.5.5.5.5.5.5.5.5.5.5.5.5.5.5.5.",
"5.5.5.5.5.5.5.5.5.5.5.5.5.5.5.5.5.5.5.5.5.5.5.5.5.5.5.5.5.5.5.5.5.5.5.5.5.5.5.5.5.5.5.5.5.5.5.5.5.5.5.5.5.5.5.5.5.5.5.5.5.5.5.5.5.5.5.5.5.5.5.5.5.5.5.5.5.5.5.5.",
"5.5.5.5.5.5.5.5.5.5.5.5.5.5.5.5.5.5.5.5.5.5.5.5.5.5.5.5.5.5.5.5.5.5.5.5.5.5.5.5.5.5.5.5.5.5.5.5.5.5.5.5.5.5.5.5.5.5.5.5.5.5.5.5.5.5.5.5.5.5.5.5.5.5.5.5.5.5.5.5.",
"5.5.5.5.5.5.5.5.5.5.5.5.5.5.5.5.5.5.5.5.5.5.5.5.5.5.5.5.5.5.5.5.5.5.5.5.5.5.5.5.5.5.5.5.5.5.5.5.5.5.5.5.5.5.5.5.5.5.5.5.5.5.5.5.5.5.5.5.5.5.5.5.5.5.5.5.5.5.5.5.",
"5.5.5.5.5.5.5.5.5.5.5.5.5.5.5.5.5.5.5.5.5.5.5.5.5.5.5.5.5.5.5.5.5.5.5.5.5.5.5.5.5.5.5.5.5.5.5.5.5.5.5.5.5.5.5.5.5.5.5.5.5.5.5.5.5.5.5.5.5.5.5.5.5.5.5.5.5.5.5.5.",
"5.5.5.5.5.5.5.5.5.5.5.5.5.5.5.5.5.5.5.5.5.5.5.5.5.5.5.5.5.5.5.5.5.5.5.5.5.5.5.5.5.5.5.5.5.5.5.5.5.5.5.5.5.5.5.5.5.5.5.5.5.5.5.5.5.5.5.5.5.5.5.5.5.5.5.5.5.5.5.5.",
"5.5.5.5.5.5.5.5.5.5.5.5.5.5.5.5.5.5.5.5.5.5.5.5.5.5.5.5.5.5.5.5.5.5.5.5.5.5.5.5.5.5.5.5.5.5.5.5.5.5.5.5.5.5.5.5.5.5.5.5.5.5.5.5.5.5.5.5.5.5.5.5.5.5.5.5.5.5.5.5.",
"5.5.5.5.5.5.5.5.5.5.5.5.5.5.5.5.5.5.5.5.5.5.5.5.5.5.5.5.5.5.5.5.5.5.5.5.5.5.5.5.5.5.5.5.5.5.5.5.5.5.5.5.5.5.5.5.5.5.5.5.5.5.5.5.5.5.5.5.5.5.5.5.5.5.5.5.5.5.5.5.",
"5.5.5.5.5.5.5.5.5.5.5.5.5.5.5.5.5.5.5.5.5.5.5.5.5.5.5.5.5.5.5.5.5.5.5.5.5.5.5.5.5.5.5.5.5.5.5.5.5.5.5.5.5.5.5.5.5.5.5.5.5.5.5.5.5.5.5.5.5.5.5.5.5.5.5.5.5.5.5.5.",
"5.5.5.5.5.5.5.5.5.5.5.5.5.5.5.5.5.5.5.5.5.5.5.5.5.5.5.5.5.5.5.5.5.5.5.5.5.5.5.5.5.5.5.5.5.5.5.5.5.5.5.5.5.5.5.5.5.5.5.5.5.5.5.5.5.5.5.5.5.5.5.5.5.5.5.5.5.5.5.5.",
"5.5.5.5.5.5.5.5.5.5.5.5.5.5.5.5.5.5.5.5.5.5.5.5.5.5.5.5.5.5.5.5.5.5.5.5.5.5.5.5.5.5.5.5.5.5.5.5.5.5.5.5.5.5.5.5.5.5.5.5.5.5.5.5.5.5.5.5.5.5.5.5.5.5.5.5.5.5.5.5.",
"5.5.5.5.5.5.5.5.5.5.5.5.5.5.5.5.5.5.5.5.5.5.5.5.5.5.5.5.5.5.5.5.5.5.5.5.5.5.5.5.5.5.5.5.5.5.5.5.5.5.5.5.5.5.5.5.5.5.5.5.5.5.5.5.5.5.5.5.5.5.5.5.5.5.5.5.5.5.5.5.",
"5.5.5.5.5.5.5.5.5.5.5.5.5.5.5.5.5.5.5.5.5.5.5.5.5.5.5.5.5.5.5.5.5.5.5.5.5.5.5.5.5.5.5.5.5.5.5.5.5.5.5.5.5.5.5.5.5.5.5.5.5.5.5.5.5.5.5.5.5.5.5.5.5.5.5.5.5.5.5.5.",
"5.5.5.5.5.5.5.5.5.5.5.5.5.5.5.5.5.5.5.5.5.5.5.5.5.5.5.5.5.5.5.5.5.5.5.5.5.5.5.5.5.5.5.5.5.5.5.5.5.5.5.5.5.5.5.5.5.5.5.5.5.5.5.5.5.5.5.5.5.5.5.5.5.5.5.5.5.5.5.5."
};
