/* XPM */
static char *TV_del_Besos[] = {
/* columns rows colors chars-per-pixel */
"80 80 63 1",
"  c #94C32F",
". c #95C532",
"X c #96C935",
"o c #96C63A",
"O c #99C73C",
"+ c #97C939",
"@ c #99CC3E",
"# c #9CCD43",
"$ c #9ED147",
"% c #A3CF52",
"& c #A7D355",
"* c #AED966",
"= c #B0DA69",
"- c #B7DC79",
"; c #BCE17F",
": c #1692CF",
"> c #0997DB",
", c #0C97DA",
"< c #0A99DC",
"1 c #1497D8",
"2 c #32A5DE",
"3 c #019AE5",
"4 c #009BE8",
"5 c #189DE1",
"6 c #4CAEDF",
"7 c #43AFE3",
"8 c #4AAEE2",
"9 c #47B1E5",
"0 c #5BB6E5",
"q c #68BCE7",
"w c #75BDE2",
"e c #6EC1EA",
"r c #76C3EA",
"t c #A8A9AB",
"y c #B5B6B8",
"u c #BFDD86",
"i c #BEE182",
"p c #C2DF8D",
"a c #C3E48D",
"s c #CAE69B",
"d c #CEE7A3",
"f c #D0E9A5",
"g c #D5ECAF",
"h c #D9EEB7",
"j c #C2BFC1",
"k c #87CAEC",
"l c #92CFEF",
"z c #95D3EF",
"x c #9BD5F2",
"c c #AAD9F2",
"v c #BDE1F5",
"b c #CDCDCE",
"n c #DFF1C3",
"m c #E2F2C8",
"M c #EBF6D9",
"N c #D0EAF8",
"B c #E8E8E9",
"V c #F3FAE9",
"C c #EBF6F6",
"Z c #F5F5F3",
"A c #FBFDF7",
"S c #F3FAFD",
"D c #FFFFFF",
/* pixels */
"DDDDDDDDDDDDDDDDDDDDDDDDDDDDDDDDDDDDDDDDDDDDDDDDDDDDDDDDDDDDDDDDDDDDDDDDDDDDDDDD",
"DDDDDDDDDDDDDDDDDDDDDDDDDDDDDDDDDDDDDDDDDDDDDDDDDDDDDDDDDDDDDDDDDDDDDDDDDDDDDDDD",
"DDDDDDDDDDDDDDDDDDDDDDDDDDDDDDDDDDDDDDDDDDDDDDDDDDDDDDDDDDDDDDDDDDDDDDDDDDDDDDDD",
"DDDDDDDDDDDDDDDDDDDDDDDDDDDDDDDDDDDDDDDDDDDDDDDDDDDDDDDDDDDDDDDDDDDDDDDDDDDDDDDD",
"DDDDDDDDDDDDDDDDDDDDDDDDDDDDDDDDDDDDDDDDDDDDDDDDDDDDDDDDDDDDDDDDDDDDDDDDDDDDDDDD",
"DDDDDDDDDDDDDDDDDDDDDDDDDDDDDDDDDDDDDDDDDDDDDDDDDDDDDDDDDDDDDDDDDDDDDDDDDDDDDDDD",
"DDDDDDDDDDDDDDDDDDDDDDDDDDDDDDDDDDDDDDDDDDDDDDDDDDDDDDDDDDDDDDDDDDDDDDDDDDDDDDDD",
"DDDDDDDDDDDDDDDDDDDDDDDDDDDDDDDDDDDDDDDDDDDDDDDDDDDDDDDDDDDDDDDDDDDDDDDDDDDDDDDD",
"DDDDDDDDDDDDDDDDDDDDDDDDDDDDDDDDDDDDDDDDDDDDDDDDDDDDDDDDDDDDDDDDDDDDDDDDDDDDDDDD",
"DDDDDDDDDDDDDDDDDDDDDDDDDDDDDDDDDDDDDDDDDDDDDDDDDDDDDDDDDDDDDDDDDDDDDDDDDDDDDDDD",
"DDDDDDDDDDDDDDDDDDDDDVs=*aMDDDDDDDDDDDDmiiiii;;;;;;ii;;;;;;;;ii;iasfhmVADDDDDDDD",
"DDDDDDDDDDAZADDDDDDDV-@o++&MDDDDDDDDDDDf#O+++++++++++++XX+++++++++++@$&-gVDDDDDD",
"DDDDDDDDDBbybBDDDDDDsOo...o-ADDDDDDDDDDfOo............................Xo+&sVDDDD",
"DDDDDDDDZytttyZDDDDA=o.....%VDDDDDDDDDDf+..        ......................X+=MDDD",
"DDDDDDDDBtttttBDDDDA=o.....%VDDDDDDDDDDf+.         .................     ..+=VDD",
"DDDDDDDDBtttttBDDDDDdOo...o-ADDDDDDDDDDf+.     .......................    ..+aDD",
"DDDDDDDDAbtttbADDDDDV-@+++*MDDDDDDDDDDDf+.    .X++@@@@@@@@@@@@@@@@++X...   ..$MD",
"DDDDDDDDDABbBADSNNCDDAhiifVDDDDDDDDDDDDf+.   .&hhhhhhhhhhhnnnmmmmnhfa*O..   ..sD",
"DDDDDDDDDDDDDCk7552qNDDDDDDDDDDDDDDDDDDf+.   .=ADDDDDDDDDDDDDDDDDDDDDAg#..   .=A",
"DDDDDDDDDDDDN7,>>><<5xDDDDDDDDDDDDDDDDDf+.   .=ADDDDDDDDDDDDDDDDDDDDDDDso.   .%M",
"DDDDDDDDDDDC7,>3333>>1cDDDDDDDDDDDDDDDDf+.   X=ADDDDDDDDDDDDDDDDDDDDDDDM#.   .@n",
"DDDDDDDDDDDl,>3344433>9SDDDDDDDDDDDDDDDf+.   X=ADDDDDDDDDDDDDDDDDDDDDDDZ&.   .+f",
"DDDDDDDDDDS6,>3444443>5NDDDAZZDDDDDDDDDf+.   X=ADDDDDDDDDDDDDDDDDDDDDDDA*.   .Xs",
"DDDDDDDDDDS2>344444433<vDDBbyybBDDDDDDDf+.   X=ADDDDDDDDDDDDDDDDDDDDDDDA=.   .Xa",
"DDZhi;sMDDS7>>3444443>1NDByttttyZDDDDDDf+.   X=ADDDDDDDDDDDDDDDDDDDDDDDA=.   .Xi",
"DV-#+++&hDDr,>3444433>2CDbttttttbDDDDDDf+.   X=ADDDDDDDDDDDDDDDDDDDDDDDA=.   .X;",
"DpOo...o&VDN2>>33333><lDAyttttttbDDDDDDf+.   X=ADDDDDDDDDDDDDDDDDDDDDDDA=.   .X;",
"V&o.. ..+gDDc1>>33>><qSDDbttttttbDDDDDDf+.   X=ADDDDDDDDDDDDDDDDDDDDDDDA=.   .X;",
"M%o.   .ofDDDv81<<12lSDDDByttttyZDDDDDDf+.   X=ADDDDDDDDDDDDDDDDDDDDDDDA=..  .X;",
"A=o.....#nDDDDSNccvCDDDDDDBbyybZDDDDDDDf+.   X=ADDDDDDDDDDDDDDDDDDDDDDDA=.   .Xa",
"Dh#oo.o+-ADDDDDDDDDDDDDDDDDDZZDDDDDDDDDf+.   X=ADDDDDDDDDDDDDDDDDDDDDDDV&.   .Xd",
"DAg&#@$iVDDDDDDDDZBZDDDDDDDDDDDDDDDDDDDf+.   .=ADDDDDDDDDDDDDDDDDDDDDDDgo.   .@h",
"DDDVmhMADDDDDDDDZytyBDDDDDDDDDDDDDDDDDDf+.   .=ADDDDDDDDDDDDDDDDDDDDDDM%..   .&V",
"DDDDDDDDDDDDDDDDbtttjDDDDDDDDDDDDDDDDDDf+.   .*VAAAAAAAAAAAAAAAAAAAAAm&o.   ..aD",
"DDDDDDDDDDDDDDDDBtttbDDDDDDDDDDDDDDDDDDf+.    @**********************#..   ..#MD",
"DDDDDDDDDDDDDDDDAbjbZDDDDDDDDDDDDDDDDDDf+.    ..XXXXXXXXXXXXXXXXXXXX...    .oaDD",
"DDDDDDDDDDDDDDDDDDDDDDDDDDDDDDDDDDDDDDDf+.      .....................      .=VDD",
"czzzzzzzzzzzzzzzzzzzzzzzzzNDDDDDDDDDDDDf+.                                 OnDDD",
"21,,<<<<<<<<<<<<<<,<<<<,,1xDDDDDDDDDDDDf+.      ....................       .-VDD",
"21,,<<<<<<>>>>>><<<<<<<,,1xDDDDDDDDDDDDf+.    ....XXXXXXXXXXXXXXXXX....    .XsDD",
"krrrrrrrrre5>>9rrrrrrrrrrrNDDDDDDDSDDDDf+.    O%&&&&&&&&&&&&&&&&&&&&%O..    .$MD",
"DDDDDDDDDDS7>>xDDDDDDDDDDDDDDDDDDc0rSDDf+.   .*VVVVVVVVVVVVVVVVVVVVVVg%..   ..pD",
"DDDDDDDDDDS7><xDDDDDDDDDDDDDDDDDDl18SDDf+.   .=ADDDDDDDDDDDDDDDDDDDDDDn$..   .%M",
"DDDDDDDDDDS7<<xDDDDDDDDDDDDDDDDDDl18SDDf+.   .=ADDDDDDDDDDDDDDDDDDDDDDDso.   .+g",
"DDDDDDDDDDS7<<xDDDDDDDDDDDDDDDDDDl,7SDDf+.   X=ADDDDDDDDDDDDDDDDDDDDDDDV%.   .Xa",
"DDDDDDDDDDS7<<xDDDDDDDDDDDDDDDDDDl,7SDDf+.  .X=ADDDDDDDDDDDDDDDDDDDDDDDA=.   .Xi",
"DDDDDDDDDDS7<<xDDDDDDDDDDDDDDDDDDk,7SDDf+.. .X=ADDDDDDDDDDDDDDDDDDDDDDDA=.   .X;",
"DDDDDDDDDDS7<<xDDDDDDDDDDDDDDDDDDk,7SDDf+.. .X=ADDDDDDDDDDDDDDDDDDDDDDDA=..  .X;",
"DDDDDDDDDDS7<<xDDDDDNckkkkkkkkkrk7,9SDDf+.. .X=ADDDDDDDDDDDDDDDDDDDDDDDA=..  .X;",
"DDDDDDDDDDS7<<xDDDCk2111111111111,,7SDDf+.. .X=ADDDDDDDDDDDDDDDDDDDDDDDA=..  .X;",
"DDDDDDDDDDS7<<xDDSw::2qeeeeeeeeee7,7SDDf+.. .X=ADDDDDDDDDDDDDDDDDDDDDDDA=..  .X;",
"DDDDDDDDDDS7<<xDDv::rCDDDDDDDDDDDk,7SDDf+.. .X=ADDDDDDDDDDDDDDDDDDDDDDDA=..  .X;",
"DDDDDDDDDDS7<<xDDk:2CDDDDDDDDDDDDk,9SDDf+.. .X=ADDDDDDDDDDDDDDDDDDDDDDDA=..  .X;",
"DDDDDDDDDDS7<<xDDq1qDDDDDDDDDDDDDk,9SDDf+.. .X=ADDDDDDDDDDDDDDDDDDDDDDDA=..   X;",
"DDDDDDDDDDS7<<xDD0,qDDDDDDDDDDDDDk,9SDDf+.. .X=ADDDDDDDDDDDDDDDDDDDDDDDA=..   X;",
"DDDDDDDDDDS7<<xDD0,qDDDDDDDDDDDDDk,9SDDf+.. .X=ADDDDDDDDDDDDDDDDDDDDDDDA=..   X;",
"DDDDDDDDDDS7<<xDD0,eDDDDDDDDDDDDDk,9SDDf+.. .X=ADDDDDDDDDDDDDDDDDDDDDDDA=..   X;",
"DDDDDDDDDDS7<<xDD0,eDDDDDDDDDDDDDk,9SDDf+.. .X=ADDDDDDDDDDDDDDDDDDDDDDDA*..  .Xa",
"DDDDDDDDDDS7<<xDD0,eDDDDDDDDDDDDDk,7SDDf+.. .X=ADDDDDDDDDDDDDDDDDDDDDDDV&..  .Xs",
"DDDDDDDDDDS7<<xDD0,eDDDDDDDDDDDDDl,7SDDf+.  .X=ADDDDDDDDDDDDDDDDDDDDDDDm#.   .+g",
"DDDDDDDDDDS7<<xDD0,eDDDDDDDDDDDDDl,7SDDf+.   .=ADDDDDDDDDDDDDDDDDDDDDDAu..   .$m",
"DDDDDDDDDDS7<<xDD0,qDDDDDDDDDDDDDl,8SDDf+.   .*ADDDDDDDDDDDDDDDDDDDDAMuO.    .*V",
"DDDDDDDDDDS7,<xDD0,qDDDDDDDDDDDDDl18SDDf+.   .$paaaaaaaaaaaaaaaaaai-*$o..   .XsD",
"DDDDDDDDDDS7,<xDD0,qDDDDDDDDDDDDDl18SDDf+.    ..X+++++++++++++++++XX...    ..&MD",
"DDDDDDDDDDS7,<xDDq1qDDDDDDDDDDDDDk,0DDDf+.     ......................     ..#gDD",
"DDDDDDDDDDS7,<xDDr:7CDDDDDDDDDDDS6,rDDDf+.       ................       ...@sADD",
"DDDDDDDDDDS7,<xDDv::rCDDDDDDDDDSl11cDDDf+..    ..........................+%fADDD",
"DDDDDDDDDDS7,,xDDSq::7qrkkkkkkr61:0SDDDf@oo....XX.XXXXXXXXXXXXX.....XXX+%iMDDDDD",
"DDDDDDDDDDS61,xDDDCr21111111111110NDDDDg$##@@@@#########@####@@@@@#$&*igMDDDDDDD",
"DDDDDDDDDDSk00vDDDDDNxrqq00000qrcSDDDDDMhhhhhhhhhhhhhhhhhhhhhhhhhhnmMADDDDDDDDDD",
"DDDDDDDDDDDDDDDDDDDDDDDDDDDDDDDDDDDDDDDDDDDDDDDDDDDDDDDDDDDDDDDDDDDDDDDDDDDDDDDD",
"DDDDDDDDDDDDDDDDDDDDDDDDDDDDDDDDDDDDDDDDDDDDDDDDDDDDDDDDDDDDDDDDDDDDDDDDDDDDDDDD",
"DDDDDDDDDDDDDDDDDDDDDDDDDDDDDDDDDDDDDDDDDDDDDDDDDDDDDDDDDDDDDDDDDDDDDDDDDDDDDDDD",
"DDDDDDDDDDDDDDDDDDDDDDDDDDDDDDDDDDDDDDDDDDDDDDDDDDDDDDDDDDDDDDDDDDDDDDDDDDDDDDDD",
"DDDDDDDDDDDDDDDDDDDDDDDDDDDDDDDDDDDDDDDDDDDDDDDDDDDDDDDDDDDDDDDDDDDDDDDDDDDDDDDD",
"DDDDDDDDDDDDDDDDDDDDDDDDDDDDDDDDDDDDDDDDDDDDDDDDDDDDDDDDDDDDDDDDDDDDDDDDDDDDDDDD",
"DDDDDDDDDDDDDDDDDDDDDDDDDDDDDDDDDDDDDDDDDDDDDDDDDDDDDDDDDDDDDDDDDDDDDDDDDDDDDDDD",
"DDDDDDDDDDDDDDDDDDDDDDDDDDDDDDDDDDDDDDDDDDDDDDDDDDDDDDDDDDDDDDDDDDDDDDDDDDDDDDDD",
"DDDDDDDDDDDDDDDDDDDDDDDDDDDDDDDDDDDDDDDDDDDDDDDDDDDDDDDDDDDDDDDDDDDDDDDDDDDDDDDD",
"DDDDDDDDDDDDDDDDDDDDDDDDDDDDDDDDDDDDDDDDDDDDDDDDDDDDDDDDDDDDDDDDDDDDDDDDDDDDDDDD"
};
