/* XPM */
static char *TV_[] = {
/* columns rows colors chars-per-pixel */
"80 80 64 1",
"  c #000000",
". c #0D0D0D",
"X c #151515",
"o c #1C1C1C",
"O c #242424",
"+ c #2C2C2C",
"@ c #343434",
"# c #3C3C3C",
"$ c #414141",
"% c #4C4C4C",
"& c #535353",
"* c #5C5C5C",
"= c #686868",
"- c #787878",
"; c #FF3D3E",
": c #FF4041",
"> c #FF4344",
", c #FF4849",
"< c #FF4B4B",
"1 c #FF5354",
"2 c #FF5B5C",
"3 c #FF5F60",
"4 c #FF6364",
"5 c #FF6768",
"6 c #FF6B6C",
"7 c #FF7374",
"8 c #FF7878",
"9 c #FF7B7C",
"0 c #848484",
"q c #8C8C8C",
"w c #949494",
"e c #9D9D9D",
"r c #A4A4A4",
"t c #ABABAB",
"y c #B4B4B4",
"u c #BCBCBC",
"i c #FF8585",
"p c #FF8888",
"a c #FF8C8C",
"s c #FF9090",
"d c #FF9494",
"f c #FF9B9C",
"g c #FFA4A5",
"h c #FFACAC",
"j c #FFB0B0",
"k c #FFB4B4",
"l c #FFBBBB",
"z c #C5C5C5",
"x c #CDCDCD",
"c c #D4D4D4",
"v c #DCDCDC",
"b c #FFC4C4",
"n c #FFCCCC",
"m c #FFD4D4",
"M c #FFDCDC",
"N c #E5E5E5",
"B c #EDEDED",
"V c #FFE0E0",
"C c #FFE5E5",
"Z c #FFE8E8",
"A c #FFECEC",
"S c #F5F5F5",
"D c #FFF4F4",
"F c #FFFFFF",
/* pixels */
"FFFFFFFFFFFFFFFFFFFFFFFFFFFFFFFFFFFFFFFFFFFFFFFFFFFFFFFFFFFFFFFFFFFFFFFFFFFFFFFF",
"FFFFFFFFFFFFFFFFFFFFFFFFFFFFFFFFFFFFFFFFFFFFFFFFFFFFFFFFFFFFFFFFFFFFFFFFFFFFFFFF",
"FFFFFFFFFFFFFFFFFFFFFFFFFFFFFFFFFFFFFFFFFFFFFFFFFFFFFFFFFFFFFFFFFFFFFFFFFFFFFFFF",
"FFFFFFFFFFFFFFFFFFFFFFFFFFFFFFFFFFFFFFFFFFFFFFFFFFFFFFFFFFFFFFFFFFFFFFFFFFFFFFFF",
"FFFFFFFFFFFFFFFFFFFFFFFFFFFFFFFFFFFFFFFFFFFFFFFFFFFFFFFFFFFFFFFFFFFFFFFFFFFFFFFF",
"FFFFFFFFFFFFFFFFFFFFFFFFFFFFFFFFFFFFFFFFFFFFFFFFFFFFFFFFFFFFFFFFFFFFFFFFFFFFFFFF",
"FFFFFFFFFFFFFFFFFFFFFFFFFFFFFFFFFFFFFFFFFFFFFFFFFFFFFFFFFFFFFFFFFFFFFFFFFFFFFFFF",
"FFFFFFFFFFFFFFFFFFFFFFFFFFFFFFFFFFFFFFFFFFFFFFFBzw=$+oX.  .XO%-rvSFFFFFFFFFFFFFF",
"FFFFFFFFFFFFFFFFFFFFFFFFFFFFFFFFFFFFFFFFFFFFSz-#X              .O&rNFFFFFFFFFFFF",
"FFFFFFFFFFFFFFFFFFFFFFFFFFFFFFFFFFFFFFFFFFSu&X                     +wBFFFFFFFFFF",
"FFFFFFFFFFFFFFFFFFFFFFFFFFFFFFFFFFFFFFFFFN=.                         #yFFFFFFFFF",
"FFFFFFFFFFFFFFFFFFFFFFFFFFFFFFFFFFFFFFFFz#                            X0BFFFFFFF",
"FFFFFFFFFFFFFFFFFFFFFFFFFFFFFFFFFFFFFFFuO                               *NFFFFFF",
"FFFFFFFFFFFFFFFFFFFFFFFFFFFFFFFFFFFFFFuO                                 &NFFFFF",
"FFFFFFFFFFFFFFFFFFFFFFFFFFFFFFFFFFFFFc+                                   &BFFFF",
"FFFFFFFFFFFFFFFFFFFFFFFFFFFFFFFFFFFFB&                                     =SFFF",
"FFFFFFFFFFFFFFFFFFFFFFFFFFFFFFFFFFFFq                                      .eFFF",
"FFFFFFFFFFFFFFFFFFFFFFFFFFFFFFFFFFFcO                                       +vFF",
"gZFFFFFFFFFFFFFFFFFFFFFFFFFFFFFFFFF=                                         -FF",
";4kDFFFFFFFFFFFFFFFFFFFFFFFFFFFFFFuX                                         OvF",
";;>6bDFFFFFFFFFFFFFFFFFFFFFFFFFFFF=                  O=wrr0&X                 wF",
";;;;,9mFFFFFFFFFFFFFFFFFFFFFFFFFFvO                 *cFFFFFSx&                %S",
";;;;;;,sVFFFFFFFFFFFFFFFFFFFFFFFFt                 -SFFFFFFFFB%               Ov",
";;;;;;;;1gAFFFFFFFFFFFFFFFFFFFFFF-                %BFFFFFFFFFFu.              .y",
";;;;;;;;;;4kDFFFFFFFFFFFFFFFFFFFS$               .uFFFFFFFFFFFB#               w",
"9,;;;;;;;;;>7bDFFFFFFFFFFFFFFFFFB#...............%SFFFFFFFFFFFF=               0",
"Db7>;;;;;;;;;,imFFFFFFFFFFFFFFFFFxzzzzzzzzzzzzzzzvFFFFFFFFFFFFF0               q",
"FFDk4;;;;;;;;;;,dCFFFFFFFFFFFFFFFFFFFFFFFFFFFFFFFFFFFFFFFFFFFFFw               e",
"FFFFAg1;;;;;;;;;;2gAFFFFFFFFFFFFFFFFFFFFFFFFFFFFFFFFFFFFFFFFFFF0              .u",
"kAFFFFMs,;;;;;;;;;:5lDFFFFFFFFFFFFFFFFFFFFFFFFFFFFFFFFFFFFFFFFF*              Ov",
">6bDFFFFm9>;;;;;;;;;>7nFFFFFFFFFFFFFFFFFFFFFFFFFFFFFFFFFFFFFFFxo              %S",
";;>9mFFFFDb6>;;;;;;;;;,imFFFFFFFFFFFFFFFFFFFFFFFFFFFFFFFFFFFFN%               qF",
";;;;,dCFFFFDj3;;;;;;;;;;1dCFFFFFFFFFFFFFFFFFFFFFFFFFFFFFFFFSu$               XxF",
";;;;;;2gAFFFFZf1;;;;;;;;;;2hAFFFFFFFFFFFFFFFFFFFFFSvvvcxzyq%X                =FF",
";;;;;;;:5lDFFFFMa,;;;;;;;;;:5lDFFFFFFFFFFFFFFFFFFFv@oooX.                   oxFF",
";;;;;;;;;>8nFFFFFn9>;;;;;;;;;>8nFFFFFFFFFFFFFFFFFFcX                       .eFFF",
"7>;;;;;;;;;,aMFFFFDl6:;;;;;;;;;,pMFFFFFFFFFFFFFFFFcX                       -SFFF",
"Dl6>;;;;;;;;;1gAFFFFAh2;;;;;;;;;;1fCFFFFFFFFFFFFFFcX                     .-SFFFF",
"FFAh2;;;;;;;;;;4kDFFFFCf1;;;;;;;;;;2hAFFFFFFFFFFFFcX                    OwSFFFFF",
"FFFFCf1;;;;;;;;;>7nFFFFFMp,;;;;;;;;;;7CFFFFFFFFFFFcX                   XrFFFFFFF",
"ZFFFFFMa,;;;;;;;;;,pMFFFFFn8>;;;;;;:5lDFFFFFFFFFFFcX                    OwSFFFFF",
"2gAFFFFFn9>;;;;;;;;;1fZFFFFDl5:;;;2hAFFFFFFFFFFFFFcX                     .*NFFFF",
";:5lDFFFFDl6>;;;;;;;;;2kDFFFFAg21fCFFFFFFFFFFFFFFFcX                       %NFFF",
";;;>8nFFFFFDh2;;;;;;;;;>6bDFFFFCMFFFFFFFFFFFFFFFFFcX                        =SFF",
";;;;;,aMFFFFFZf1;;;;;;;;;,imFFFFFFFFFFFFFFFFFFFFFFco                         wFF",
";;;;;;;1fZFFFFFMa,;;;;;;;;;4mFFFFFFFFFFFFFFFFFFFFFSyttrw0=#X                 OcF",
";;;;;;;;;4kDFFFFFn9>;;;;;,imFFFFFFFFFFFFFFFFFFFFFFFFFFFFFFSc0O                -F",
"d1;;;;;;;;>7bDFFFFDb6>;,9nFFFFFFFFFFFFFFFFFFFFFFFFFFFFFFFFFFFz+               Ov",
"FMp,;;;;;;;;,imFFFFFDhibDFFFFFFFFFFFFFFFFFFFFFFFFFFFFFFFFFFFFFr.               w",
"FFFn7>;;;;;;;;1fCFFFFFFFFFFFFFFFFFFFFFFFFFFFFFFFFFFFFFFFFFFFFFN+               &",
"FFFFDk4;;;;;;;;;2hDFFFFFFFFFFFFFFFFFFFFFFFFFFFFFFFFFFFFFFFFFFFS%               O",
"nDFFFFAg1;;;;;;;,pAFFFFFFFFFFFFFFFFFFFFFFFFFFFFFFFFFFFFFFFFFFFF*               .",
",pMFFFFFMa,;;;>7bDFFFFFFFFFFFFFFFSSSSSSSSSSSSSSSSSFFFFFFFFFFFFF*                ",
";;1gAFFFFFn8,4kDFFFFFFFFFFFFFFFFS=#$$$$$$$$$$$$$#-FFFFFFFFFFFFS%                ",
";;;:6bDFFFFDnZFFFFFFFFFFFFFFFFFFS$               ocFFFFFFFFFFFN+               X",
";;;;;,iMFFFFFFFFFFFFFFFFFFFFFFFFF=                -FFFFFFFFFFFy.               +",
";;;;;;;2nFFFFFFFFFFFFFFFFFFFFFFFF0                XtFFFFFFFFFB&                &",
";;;;;;4kDFFFFFFFFFFFFFFFFFFFFFFFFy.                orSFFFFFSx*                 q",
";;;;1gZFFFFFFFFFFFFFFFFFFFFFFFFFFvO                 .&wyyr0%X                 ox",
";;,aMFFFFFFFFFFFFFFFFFFFFFFFFFFFFF*                     .                     *S",
",9mFFFFFFFFFFFFFFFFFFFFFFFFFFFFFFFt.                                         .yF",
"bDFFFFFFFFFFFFFFFFFFFFFFFFFFFFFFFFB#                                         &SF",
"FFFFFFFFFFFFFFFFFFFFFFFFFFFFFFFFFFFr.                                       ozFF",
"FFFFFFFFFFFFFFFFFFFFFFFFFFFFFFFFFFFS&                                       qFFF",
"FFFFFFFFFFFFFFFFFFFFFFFFFFFFFFFFFFFFxO                                     =SFFF",
"FFFFFFFFFFFFFFFFFFFFFFFFFFFFFFFFFFFFFtX                                   &BFFFF",
"FFFFFFFFFFFFFFFFFFFFFFFFFFFFFFFFFFFFFFeX                                 *NFFFFF",
"FFFFFFFFFFFFFFFFFFFFFFFFFFFFFFFFFFFFFFFrO                              .-BFFFFFF",
"FFFFFFFFFFFFFFFFFFFFFFFFFFFFFFFFFFFFFFFFx%                            OrSFFFFFFF",
"FFFFFFFFFFFFFFFFFFFFFFFFFFFFFFFFFFFFFFFFFBqO                        X=cFFFFFFFFF",
"FFFFFFFFFFFFFFFFFFFFFFFFFFFFFFFFFFFFFFFFFFFv0+                    X*zSFFFFFFFFFF",
"FFFFFFFFFFFFFFFFFFFFFFFFFFFFFFFFFFFFFFFFFFFFFNt=+.             X#0xSFFFFFFFFFFFF",
"FFFFFFFFFFFFFFFFFFFFFFFFFFFFFFFFFFFFFFFFFFFFFFFFNuq*@OX. .oO#=ezBFFFFFFFFFFFFFFF",
"FFFFFFFFFFFFFFFFFFFFFFFFFFFFFFFFFFFFFFFFFFFFFFFFFFFFFFFFFFFFFFFFFFFFFFFFFFFFFFFF",
"FFFFFFFFFFFFFFFFFFFFFFFFFFFFFFFFFFFFFFFFFFFFFFFFFFFFFFFFFFFFFFFFFFFFFFFFFFFFFFFF",
"FFFFFFFFFFFFFFFFFFFFFFFFFFFFFFFFFFFFFFFFFFFFFFFFFFFFFFFFFFFFFFFFFFFFFFFFFFFFFFFF",
"FFFFFFFFFFFFFFFFFFFFFFFFFFFFFFFFFFFFFFFFFFFFFFFFFFFFFFFFFFFFFFFFFFFFFFFFFFFFFFFF",
"FFFFFFFFFFFFFFFFFFFFFFFFFFFFFFFFFFFFFFFFFFFFFFFFFFFFFFFFFFFFFFFFFFFFFFFFFFFFFFFF",
"FFFFFFFFFFFFFFFFFFFFFFFFFFFFFFFFFFFFFFFFFFFFFFFFFFFFFFFFFFFFFFFFFFFFFFFFFFFFFFFF",
"FFFFFFFFFFFFFFFFFFFFFFFFFFFFFFFFFFFFFFFFFFFFFFFFFFFFFFFFFFFFFFFFFFFFFFFFFFFFFFFF"
};
