/* XPM */
static char *TVE_HD[] = {
/* columns rows colors chars-per-pixel */
"80 80 64 1",
"  c #6F0D9A",
". c #700F9B",
"X c #78179C",
"o c #701BA5",
"O c #7F21A0",
"+ c #7827A9",
"@ c #6D2BB3",
"# c #6F2BB2",
"$ c #7539B9",
"% c #7C45BE",
"& c #6D3CC0",
"* c #7549C5",
"= c #7256D2",
"- c #6F64DE",
"; c #7766DB",
": c #5F6EF0",
"> c #5C6EF2",
", c #686BE8",
"< c #6A73ED",
"1 c #7074EA",
"2 c #7778E9",
"3 c #6776F2",
"4 c #8630A7",
"5 c #8B38AB",
"6 c #9049B5",
"7 c #9B56B9",
"8 c #A25DBA",
"9 c #A666BE",
"0 c #8859C6",
"q c #906FD3",
"w c #AC76C6",
"e c #857BE3",
"r c #7D83EE",
"t c #7A87F3",
"y c #B987CC",
"u c #B490D6",
"i c #8E91EF",
"p c #A999E4",
"a c #A099E9",
"s c #ADACF0",
"d c #B7BAF5",
"f c #C49AD4",
"g c #CBA7DA",
"h c #D2B2DE",
"j c #C7B7E9",
"k c #D6BBE3",
"l c #BEC3F8",
"z c #DBC6E8",
"x c #C8CAF7",
"c c #D0CDF4",
"v c #D8D8F8",
"b c #E2CCE9",
"n c #E7D6EE",
"m c #E7DCF3",
"M c #DFE1FC",
"N c #E9E4F7",
"B c #ECEDFC",
"V c #F3ECF7",
"C c #F3ECF8",
"Z c #EFF1FD",
"A c #F5F4FC",
"S c #FAF6FB",
"D c #F8F8FE",
"F c #FEFEFF",
/* pixels */
"FFFFFFFFFFFFFFFFFFFFFFFFFFFFFFFFFFFFFFFFFFFFFFFFFFFFFFFFFFFFFFFFFFFFFFFFFFFFFFFF",
"FFFFFFFFFFFFFFFFFFFFFFFFFFFFFFFFFFFFFFFFFFFFFFFFFFFFFFFFFFFFFFFFFFFFFFFFFFFFFFFF",
"FFFFFFFFFFFFFFFFFFFFFFFFFFFFFFFFFFFFFFFFFFFFFFFFFFFFFFFFFFFFFFFFFFFFFFFFFFFFFFFF",
"FFFFFFFFFFFFFFFFFFFFFFFFFFFFFFFFFFFFFFFFFFFFFFFFFFFFFFFFFFFFFFFFFFFFFFFFFFFFFFFF",
"FFFFFFFFFFFFFFFFFFFFFFFFFFFFFFFFFFFFFFFFFFFFFFFFFFFFFFFFFFFFFFFFFFFFFFFFFFFFFFFF",
"FFFFFFFFFFFFFFFFFFFFFFFFFFFFFFFFFFFFFFFFFFFFFFFFFFFFFFFFFFFFFFFFFFFFFFFFFFFFFFFF",
"FFFFFFFFFFFFFFFFFFFFFFFFFFFFFFFFFFFFFFFFFFFFFFFFFFFFFFFFFFFFFFFFFFFFFFFFFFFFFFFF",
"FFFFFFFFFFFFFFFFFFFFFFFFFFFFFFFFFFFFFFFFFFFFFFFFFFFFFFFFFFFFFFFFFFFFFFFFFFFFFFFF",
"FFFFFFFFFFFFFFFFFFFFFFFFFFFFFFFFFFFFFFFFFFFFFFFFFFFFFFFFFFFFFFFFFFFFFFFFFFFFFFFF",
"FFFFFFFFFFFFFFFFFFFFFFFFFFFFFFFFFFFFFFFFFFFFFFFFFFFFFFFFFFFFFFFFFFFFFFFFFFFFFFFF",
"FFFFFFFFFFFFFFFFFFFFFFFFFFFFFFFFFFFFFFFFFFFFFFFFFFFFFFFFFFFFFFFFFFFFFFFFFFFFFFFF",
"FFFFFFFFFFFFFFFFFFFFFFFFFFFFFFFFFFDDDDDDDDDDDDDDDDDDDDDDFFFFFFFFFFFFFFFFFFFFFFFF",
"FFFFFFFFFFFFFFFFFFFFFFFFFFFFDDDDDDDDAAAAAAAAAAAAAAAAAADDDDDDDFFFFFFFFFFFFFFFFFFF",
"FFFFFFFFFFFFFFFFFFFFFFFFDDDDDSAAAAAAZBBBBBBBBBBBBBBBBBZAAAAADDDDFFFFFFFFFFFFFFFF",
"FFFFFFFFFFFFFFFFFFFFFDDDSSAAAZABBBBNNNNNNNNNNNNNNNNNNNNBBBBZAAADDDDFFFFFFFFFFFFF",
"FFFFFFFFFFFFFFFFFFFDSSAAAVVBBNNNNNmmvvvvvvvvvvvvvvvvvvvvMNNNBBBAAADDDFFFFFFFFFFF",
"FFFFFFFFFFFFFFFFDSSSACCCBNNNmmvvvvccccccxxxxxxxxxxxxxxxcvvvvNNNBBZADDDFFFFFFFFFF",
"FFFFFFFFFFFFFFDSSAACCNNNmmvvcxcccxxjjjjddddddddddddddddlxxxcvvvvNBBAADDFFFFFFFFF",
"FFFFFFFFFFFFDSSACCVNNmnvzzzzzjjjjddsssssssssssssssssssssdddlxxcvvMNBZADDFFFFFFFF",
"FFFFFFFFFFFSSSACVNmnnzzzkjjjdssssppppaaaaaaaaaaiiiiiiaaassssddlxcvvNBBADDFFFFFFF",
"FFFFFFFFFFSSACVNmnzzzkjjgsppppppppaaaaiiiiiiiiiiiiiiiiiiiiiasssdlxcvMBBADDFFFFFF",
"FFFFFFFFFSSAVNmnbzkhhgfuuuuuuupaiiiiiiiiiiiiiirrrr2irttttiiiiaasddxcvMBBADDFFFFF",
"FFFFFFFFSSCVNmnzkkgguuuuuwwqqqqqqqeeeeeee2222222222222222tttiiiassdxcvNBZADFFFFF",
"FFFFFFFSSCVNnbzkgguuywwwqqqqqqqqqqqee;2222222211<<<<33333332ttiiiasdxcvNBADDFFFF",
"FFFFFFSSCVmnbkhguyywwqq0000000000q;;;;;;2111111<<<<<3333333332ttiiasdxvMBZADFFFF",
"FFFFFSSAVNnbkhfuywww776660000*====;;;;;;;11111<<<<<<33333333333ttiisslxvNBADFFFF",
"FFFFFSAVNnbkhfyww9776666%%%*****====;;;;---111<<<<<<::::>3>>3333ttiasdxvMBADDFFF",
"FFFFSSCVmbkhfyww776655$$$$$$%****====;;;---,,,,,<<<<:::>>>>>>:333tiisslcvNBADFFF",
"FFFFSAVNnzhfyw976554+++##$$$$%****====;---,,,,,,,<<<3::>>>>>>>:332tiasdxvNBADFFF",
"FFFSSCVnbkgyw976676+++++###$$$****=====---,,,,,,,,<,:>>>>>>>>>>:33tiisdxvNBADFFF",
"FFFSSVNnzhfyw865gCVwoo+++###$$$****====----,,,,,,,,1iit3ttt:tttttt2tisdxvMBADDFF",
"FFFSAVmbkgyw9755bFFfooooo####$$$****====---,,,,,,,,iADlaADl3vDAZAvitiaslcvBADDFF",
"FFSSCNnzhfyw7644bFFf..oooo###$$$****====----,,,,,,,<xAi3cAt>iDvidDMiiaslcvNZDDFF",
"FFSSVNnzhfw9757wNFFk77+o606##@$$$*qq====;eaaie,,,,,,lB2>lB3>tDx>3xFsiasdxvNBADFF",
"FFSSVmbkgyw867NFFFFFFFy5mFn6#@$$*jFAa==qxAFFDBj2,,,,lDxxNB3>tDx>>sFdiisdxvNBADFF",
"FFSAVmbkgyw76wSFFFFFFFh6AFFy##@@qSFFp*qmFFFFFFFvi,,,lFvcBB3>tDx>>sFdiisdxvNBADFF",
"FFSAVmbkgyw757mSFFFFSSy+bFFz##@$gFFVq=vFFZjdxAFFx2,,lB2,lB3>tDx>>lFsiisdxvNBADFF",
"FFSAVmbhfy975468mFFk66o.uFFA0@@%NFFz*sFFNi=-;pDFFa,,xZ2:xB3>tDx3iBBiiisdxvNBADFF",
"FFSAVnbhfy9754XObFFf  ..6CFFu#@wFFFu=NFFp==---vFFv,iBFsiBFs3xFAvAZs2iisdxvNBADFF",
"FFSAVnzhfy9754X+bFFf ...okFFm$#kFFV0uFFBq===--dFFA2illsills3dlddsi3tiisdxvNBADFF",
"FFSAVnbhfy9754X4bFFf  ...wFFFw6CFFj$jFFNq;;;;;jFFDi,,,,,::>>>>>>:33tiisdxvNBADFF",
"FFSAVmbhfy9754O4bFFf  ...5NFFhuFFFw$zFFFBNBBBBAFFFi,,,,,,::>>>>:333riisdxvNBADFF",
"FFSAVmbkgyw764O4bFFf   ..ogFFAVFFm%$vFFFFFFFFFFFFDi,,,,,,,::>>>:333riasdcvNZDDFF",
"FFSAVmbkgyw76444bFFg    ..7SFFFFFu#$bFFFSAAAAAAAZd1,,,,,,,::>>::332riaslcvBADDFF",
"FFSSVmbkgyw8644XhFFm6X+4..+nFFFFA0@$zFFBqqqqeeeee,,,,,,,,,,::::3332iiadxvMBADFFF",
"FFSSVNnkgyw8654X9SFFNznN7 .uFFFFz#@@jFFN=**====---,,,,,,,,,,:::3<1riisdxvNBADFFF",
"FFSSVNnzhfw9654XOhFFFFFS7 .6CFFFw@@@uFFSq**=====--,,,,,,,,,,,<<<<2riasdxvNBADFFF",
"FFDSCNnzhfy9754OX4gVFFVyX..ouASh##@@0NFFv0**====;--,,,,,,,,,,<<<12iiasxcvBADDFFF",
"FFFSAVnbhfyw7644X.X5775. ...o67+o#@@@gFFFmu===;pmd--,,,,,,,,<<<12riasdxvNBADFFFF",
"FFFSAVmbkgyw8654XX.      .....oooo@@@*nFFFDmccNFFm;-,,,,,,,,<<12riiasxcvNBADFFFF",
"FFFSSVNnzgfw9754OX..      ...ooooo#@@@0mFFFFFFFFDp---,,,,,,11122iiasdxvNBADDFFFF",
"FFFSSCNnzhfyw7644XX.      ...ooooo#@@@@0gCFFFFSva==---,,,,11222iiasdxcvNBADFFFFF",
"FFFFSAVmbkgyw8654OXX..   ....oooooo##@@@$0qpppq=====-----1222eiiassjcvNBADDFFFFF",
"FFFFSSVNnzhfy97654XXX.. .....oooooo###@@$$$&****====;;;;;22eeiiassjcvNBAADFFFFFF",
"FFFFSSCVnbkgyw97544OXXXXXXXXXooooo+#####$$$$****====;;;;eeeiiaassjcvmNBADDFFFFFF",
"FFFFFSAVmnzhfyw865544XXXXXXXXooo++++###$$$$$****===;qqqqeeiaapsdjcvmNBADDFFFFFFF",
"FFFFFSSCNnbkgfww8765444+++OO+++++++++#$$$$$%%**0000qqqqqiapppsdjxvmNBSDDFFFFFFFF",
"FFFFFFSAVNnzhgyww87655544444444++++$$$$5666600000qqqqquupppsdjccvmNBADDFFFFFFFFF",
"FFFFFFSSCVmbzhgyyw98766655555555555666666660000qqqqwuuuppsjjxcvmNNZADDFFFFFFFFFF",
"FFFFFFFSSVNmbzhgfyww9877776666666677777700qqqwwwwuuuuufsjjzzcvmNBZADDFFFFFFFFFFF",
"FFFFFFFSSAVNnbzhgffywwww9999888899wwwwwwwwwwwyuuuuufgjjjzzznmNNVAADDFFFFFFFFFFFF",
"FFFFFFFFSSAVNmnzkhgffyyyywwwwwwwwwwwyyyyyuuuuufggghjkzzzbnmNNVAASDFFFFFFFFFFFFFF",
"FFFFFFFFFSSAVNmnbzkhhggfffffuuuuuuffffffggggghhkkkzzzbnmmNVCAASSDFFFFFFFFFFFFFFF",
"FFFFFFFFFFSSAVVNmnbzzkkhhhgggggggghhhhkkkkkkzzzzbbnnmmNNCCAASSDFFFFFFFFFFFFFFFFF",
"FFFFFFFFFFFSSSCVVNmnnbbzzzzzzzzzzzzzzzzzbbbnnnnmmmNNVCCAASSSDFFFFFFFFFFFFFFFFFFF",
"FFFFFFFFFFFFSSSACVVNNmmnnnnnnnnnnnnnnnmmmmmNNNNVVVCCAASSSSDFFFFFFFFFFFFFFFFFFFFF",
"FFFFFFFFFFFFFFSSSSACVVVVNNNNNNNNNNNNNVVVVVVVCCCAAASSSSSDFFFFFFFFFFFFFFFFFFFFFFFF",
"FFFFFFFFFFFFFFFFSSSSSAACCCVVVVVVVCCCCCAAAASSSSSSSSSFFFFFFFFFFFFFFFFFFFFFFFFFFFFF",
"FFFFFFFFFFFFFFFFFFFSSSSSSSSSSSSSSSSSSSSSSSSSSDFFFFFFFFFFFFFFFFFFFFFFFFFFFFFFFFFF",
"FFFFFFFFFFFFFFFFFFFFFFFFFDSSSSSSSSDFFFFFFFFFFFFFFFFFFFFFFFFFFFFFFFFFFFFFFFFFFFFF",
"FFFFFFFFFFFFFFFFFFFFFFFFFFFFFFFFFFFFFFFFFFFFFFFFFFFFFFFFFFFFFFFFFFFFFFFFFFFFFFFF",
"FFFFFFFFFFFFFFFFFFFFFFFFFFFFFFFFFFFFFFFFFFFFFFFFFFFFFFFFFFFFFFFFFFFFFFFFFFFFFFFF",
"FFFFFFFFFFFFFFFFFFFFFFFFFFFFFFFFFFFFFFFFFFFFFFFFFFFFFFFFFFFFFFFFFFFFFFFFFFFFFFFF",
"FFFFFFFFFFFFFFFFFFFFFFFFFFFFFFFFFFFFFFFFFFFFFFFFFFFFFFFFFFFFFFFFFFFFFFFFFFFFFFFF",
"FFFFFFFFFFFFFFFFFFFFFFFFFFFFFFFFFFFFFFFFFFFFFFFFFFFFFFFFFFFFFFFFFFFFFFFFFFFFFFFF",
"FFFFFFFFFFFFFFFFFFFFFFFFFFFFFFFFFFFFFFFFFFFFFFFFFFFFFFFFFFFFFFFFFFFFFFFFFFFFFFFF",
"FFFFFFFFFFFFFFFFFFFFFFFFFFFFFFFFFFFFFFFFFFFFFFFFFFFFFFFFFFFFFFFFFFFFFFFFFFFFFFFF",
"FFFFFFFFFFFFFFFFFFFFFFFFFFFFFFFFFFFFFFFFFFFFFFFFFFFFFFFFFFFFFFFFFFFFFFFFFFFFFFFF",
"FFFFFFFFFFFFFFFFFFFFFFFFFFFFFFFFFFFFFFFFFFFFFFFFFFFFFFFFFFFFFFFFFFFFFFFFFFFFFFFF",
"FFFFFFFFFFFFFFFFFFFFFFFFFFFFFFFFFFFFFFFFFFFFFFFFFFFFFFFFFFFFFFFFFFFFFFFFFFFFFFFF"
};
