/* XPM */
static char *VOTV[] = {
/* columns rows colors chars-per-pixel */
"80 80 64 1",
"  c #39413F",
". c #3E4643",
"X c #404946",
"o c #414A47",
"O c #434C49",
"+ c #464D4B",
"@ c #49514F",
"# c #4D5452",
"$ c #555C5A",
"% c #565C5A",
"& c #5B615F",
"* c #5E6462",
"= c #666C6A",
"- c #6A706E",
"; c #6F7472",
": c #737977",
"> c #757A79",
", c #F1670D",
"< c #F0670E",
"1 c #F0680E",
"2 c #F1680F",
"3 c #F16C16",
"4 c #F1711C",
"5 c #F27726",
"6 c #F37F33",
"7 c #7B817F",
"8 c #F38339",
"9 c #F58C47",
"0 c #F59455",
"q c #F69C62",
"w c #F7A26B",
"e c #F7AB79",
"r c #7E8382",
"t c #848987",
"y c #8E9392",
"u c #939896",
"i c #9B9E9D",
"p c #9CA09F",
"a c #9EA2A1",
"s c #A6A9A8",
"d c #B0B3B2",
"f c #B7BAB9",
"g c #F8B98F",
"h c #BEC0BF",
"j c #F9C29E",
"k c #FBD0B4",
"l c #C6C8C8",
"z c #CED0D0",
"x c #D3D5D4",
"c c #D8D9D9",
"v c #DCDDDD",
"b c #FCDCC7",
"n c #FCE1CF",
"m c #FDE7D9",
"M c #DFE0E0",
"N c #DFE1E0",
"B c #E5E6E5",
"V c #EDEEED",
"C c #FDEEE3",
"Z c #F9F2ED",
"A c #F4F4F4",
"S c #FCF7F3",
"D c #FFFAF7",
"F c #FFFFFF",
/* pixels */
"FFFFFFFFFFFFFFFFFFFFFFFFFFFFFFFFFFFFFFFFFFFFFFFFFFFFFFFFFFFFFFFFFFFFFFFFFFFFFFFF",
"FFFFFFFFFFFFFFFFFFFFFFFFFFFFFFFFFFFFFFFFFFFFFFFFFFFFFFFFFFFFFFFFFFFFFFFFFFFFFFFF",
"FFFFFFFFFFFFFFFFFFFFFFFFFFFFFFFFFFFFFFFFFFFFFFFFFFFFFFFFFFFFFFFFFFFFFFFFFFFFFFFF",
"FFFFFFFFFFFFFFFFFFFFFFFFFFFFFFFFFFFFFFFFFFFFFFFFFFFFFFFFFFFFFFFFFFFFFFFFFFFFFFFF",
"FFFFFFFFFFFFFFFFFFFFFFFFFFFFFFFFFFFFFFFFFFFFFFFFFFFFFFFFFFFFFFFFFFFFFFFFFFFFFFFF",
"FFFFFFFFFFFFFFFFFFFFFFFFFFFFFFFFFFFFFFFFFFFFFFFFFFFFFFFFFFFFFFFFFFFFFFFFFFFFFFFF",
"FFFFFFFFFFFFFFFFFFFFFFFFFFFFFFFFFFFFFFFFFFFFFFFFFFFFFFFFFFFFFFFFFFFFFFFFFFFFFFFF",
"FFFFFFFFFFFFFFFFFFFFFFFFFFFFFFFFFFFFFFFFFFFFFFFFFFFFFFFFFFFFFFFFFFFFFFFFFFFFFFFF",
"FFFFFFFFFFFFFFFFFFFFFFFFFFFFFFFFFFFFFFFFFFFFFFFFFFFFFFFFFFFFFFFFFFFFFFFFFFFFFFFF",
"FFFFFFFFFFFFFFFFFFFFFFFFFFFFFFFFFFFFFFFFFFFFFFFFFFFFFFFFFFFFFFFFFFFFFFFFFFFFFFFF",
"FFFFFFFFFFFFFFFFFFFFFFFFFFFFFFFFFFFFFFFFFFFFFFFFFFFFFFFFFFFFFFFFFFFFFFFFFFFFFFFF",
"FFFFFFFFFFFFFFFFFFFFFFFFFFFFFFFFFFFFFFFFFFFFFFFFFFFFFFFFFFFFFFFFFFFFFFFFFFFFFFFF",
"FFFFFFFFFFFFFFFFFFFFFFFFFFFFFFFFFFFFFFFFFFFFFFFFFFFFFFFFFFFFFFFFFFFFFFFFFFFFFFFF",
"FFFFFFFFFFFFFFFFFFFFFFFFFFFFFFFFFFFFFFFFFFFFFFFFFFFFFFFFFFFFFFFFFFFFFFFFFFFFFFFF",
"FFFFFFFFFFFFFFFFFFFFFFFFFFFFFFFFFFFFFFFFFFFFFFFFFFFFFFFFFFFFFFFFFFFFFFFFFFFFFFFF",
"FFFFFFFFFFFFFFFFFFFFFFFFFFFFFFFFFFFFFFFFFFFFFFFFFFFFFFFFFFFFFFFFFFFFFFFFFFFFFFFF",
"FFFFFFFFFFFFFFFFFFFFFFFFFFFFFFFFFFFFFFFFFFFFFFFFFFFFFFFFFFFFFFFFFFFFFFFFFFFFFFFF",
"FFFFFFFFFFFFFFFFFFFFFFFFFFFFFFFFFFFFFFFFFFFFFFFFFFFFFFFFFFFFFFFFFFFFFFFFFFFFFFFF",
"FFFFFFFFFFFFFFFFFFFFFFFFFFFFFFFFFFFFFFFFFFFFFFFFFFFFFFFFFFFFFFFFFFFFFFFFFFFFFFFF",
"FFFFFFFFFFFFFFFFFFFFFFFFFFFFFFFFFFFFFFFFFFFFFFFFFFFFFFFFFFFFFFFFFFFFFFFFFFFFFFFF",
"FFFFFFFFFFFFFFFFFFFFFFFFFFFFFFFFFFFFFFFFFFFFFFFFFFFFFFFFFFFFFFFFFFFFFFFFFFFFFFFF",
"FFFFFFFFFFFFFFFFFFFFFFFFFFFFFFFFFFFFFFFFFFFFFFFFFFFFFFFFFFFFFFFFFFFFFFFFFFFFFFFF",
"FFFFFFFFFFFFFFFFFFFFFFFFFFFFFFFFFFFFFFFFFFFFFFFFFFFFFFFFFFFFFFFFFFFFFFFFFFFFFFFF",
"FFFFFFFFFFFFFFFFFFFFFFFFFFFFFFFFFFFFFFFFFFFFFFFFFFFFFFFFFFFFFFFFFFFFFFFFFFFFFFFF",
"FFFFFFFFFFFFFFFFFFFFFFFFFFFFFFFFFFFFFFFFFFFFFFFFFFFFFFFFFFFFFFFFFFFFFFFFFFFFFFFF",
"FFFFFFFFFFFFFFFFFFFFFFFFFFFFFFFFFFFFFFFFFFFFFFFs=BFFFFFFFFFFFFFFFFFFFFFFFFFFFFFF",
"FFFFFFFFFFFFFFFFFFFFFFFFFFFFFFFFFFFFFFFFFFFFFFFi$vFFFFFFFFFFFFFFFFFFFFFFFFFFFFFF",
"FFFFFFFFFFFFFFFFFFFFFFFFFFFFFFFFFFFFFFFFFFFFFFFi$vFFFFFFFFFFFFFFFFFFFFFFFFFFFFFF",
"FFFFFFFFFFFFFFFFFFFFFFFFFFFFFFFFFFFFFFFFFFFFFFFi$vFFFFFFFFFFFFFFFFFFFFFFFFFFFFFF",
"FFFFFFFFFFFFFFFFFFFFFFFFFFFFFFFFFFFFFFFFFFFFFFFi$MFFFFFFFFFFFFFFFFFFFFFFFFFFFFFF",
"SSSSSSSSSDFFFFFFFFFFFFFFFFFFFDCmmmCDFFFFFFFFFFFi$vFDDDDDFFFDFFFFFFFFFFFFFFFFFFDD",
"s;;:::::::lFFFFFFFFFFFFFFFFFk9555550gnDFFFFFFFFi+;>>>>>:hFv7uAFFFFFFFFFFFFFFFf:s",
"x#........:AFFFFFFFFFFFFFFFm6,,,,,,,,5emFFFFFFFi+$*&&$$$tDA=+xFFFFFFFFFFFFFFA;Xh",
"Fu...XOXXXXdFFFFFFFFFFFFFFFg,,,,,,,,,,,9nFFFFFFi$xAVVVVVAFFs.uFFFFFFFFFFFFFFx+-A",
"FM$.OOOXXOO=BFFFFFFFFFFFFFm6,,,,,,,,,,,,8nFFFFFi$MFFFFFFFFFc#*VFFFFFFFFFFFFFu.sF",
"FFsO.OOOOOXXiFFFFFFFFFFFFFe,,,,,,,,,,,,,,0ZFFFFi$MFFFFFFFFFD7.fFFFFFFFFFFFFB&$MF",
"FFB=X+OOOOOX$xFFFFFFFFFFFn5,,,,,,,,,,,,,,2gFFFFi$NFFFFFFFFFFfX7DFFFFFFFFFFFfOtDF",
"FFFd+OOOOOOOOtSFFFFFFFFFFw,,,,,,,,22,,22,,6CFFFi$NFFFFFFFFFFV*#cFFFFFFFFFFDt+lFF",
"FFFV;OOOOOOOO#lFFFFFFFFFb5,,,,,2222222222,2jFFFi$NFFFFFFFFFFFp.aFFFFFFFFFFc$-VFF",
"FFFFh@OOOOOOOO;VFFFFFFFDq2,,,,222222222222,wFFFi%NFFFFFFFFFFFc@=VFFFFFFFFFs+sFFF",
"FFFFA>.OOOOOOO+sFFFFFFFk4,222222222222222229SFFi$MFFFFFFFFFFFS>XlFFFFFFFFV-$cFFF",
"FFFFFl@OOOOOOOO*MFFFFFD0,2222222222222222226CFFi$MFFFFFFFFFFFFfXtDFFFFFFFl@tDFFF",
"FFFFFA>.OOOOOOOOuFFFFFk322222222222222222226CFFi$BFFFFFFFFFFFFB&$vFFFFFFFy@fFFFF",
"FFFFFFl#XXOOOOOO$zFFFS0222222222222222222226CFFi$vFFFFFFFFFFFFFuOdFFFFFFB&=BFFFF",
"FFFFFFDtXX+OOOOOXrAFFk32222222222222222222,8ZFFi$NFFFFFFFFFFFFFz#:AFFFFFd@uFFFFF",
"FFFFFFFx#OXOOOOOX+fFDq2222222222222222222,,0DFFi$NFFFFFFFFFFFFFA:#zFFFFA:#zFFFFF",
"FFFFFFFFyXOXOOOOOXrDFe22222222222222222,112eFFFi$MFFFFFFFFFFFFFFd+uFFFFz#>AFFFFF",
"FFFFFFFFv$XXOOOOX+fFFk3222,,222222222222,14bFFFi$vFFFFFFFFFFFFFFB**BFFFu+dFFFFFF",
"FFFFFFFFFpXOXXOXX>AFFC8,,,,,,,222222,,<,,20DFFFs#xFFFFFFFFFFFFFFFy@dFFB*$MFFFFFF",
"FFFFFFFFFB=XXOXO@lFFFFg2,,,,,,,2222,,<,,<5kFFFFf+dFFFFFFFFFFFFFFFl@7AFd+tFFFFFFF",
"FFFFFFFFFFdOXOXO7AFFFFS0,,,,,,,,2,,,<,,<3gFFFFFB$*vFFFFFFFFFFFFFFV-#xD>+lFFFFFFF",
"FFFFFFFFFFA:XXX#lFFFFFFm9,,,,,,,2,,<,,<3eSFFFFFFsX=lVAAAAAFFFFFFFFa+ix#-VFFFFFFF",
"FFFFFFFFFFFl#.OtSFFFFFFFmw3,,,,,,,,<<<5gDFFFFFFFAs#X$****aFFFFFFFFc$$=+sFFFFFFFF",
"FFFFFFFFFFFSy+*xFFFFFFFFFDkq52,,,,225qbFFFFFFFFFFFvsr:::;sFFFFFFFFDu##;BFFFFFFFF",
"FFFFFFFFFFFFAfcFFFFFFFFFFFFDngw999wgnDFFFFFFFFFFFFFFFDDDDFFFFFFFFFFAxlBFFFFFFFFF",
"FFFFFFFFFFFFFFFFFFFFFFFFFFFFFFFFFFFFFFFFFFFFFFFFFFFFFFFFFFFFFFFFFFFFFFFFFFFFFFFF",
"FFFFFFFFFFFFFFFFFFFFFFFFFFFFFFFFFFFFFFFFFFFFFFFFFFFFFFFFFFFFFFFFFFFFFFFFFFFFFFFF",
"FFFFFFFFFFFFFFFFFFFFFFFFFFFFFFFFFFFFFFFFFFFFFFFFFFFFFFFFFFFFFFFFFFFFFFFFFFFFFFFF",
"FFFFFFFFFFFFFFFFFFFFFFFFFFFFFFFFFFFFFFFFFFFFFFFFFFFFFFFFFFFFFFFFFFFFFFFFFFFFFFFF",
"FFFFFFFFFFFFFFFFFFFFFFFFFFFFFFFFFFFFFFFFFFFFFFFFFFFFFFFFFFFFFFFFFFFFFFFFFFFFFFFF",
"FFFFFFFFFFFFFFFFFFFFFFFFFFFFFFFFFFFFFFFFFFFFFFFFFFFFFFFFFFFFFFFFFFFFFFFFFFFFFFFF",
"FFFFFFFFFFFFFFFFFFFFFFFFFFFFFFFFFFFFFFFFFFFFFFFFFFFFFFFFFFFFFFFFFFFFFFFFFFFFFFFF",
"FFFFFFFFFFFFFFFFFFFFFFFFFFFFFFFFFFFFFFFFFFFFFFFFFFFFFFFFFFFFFFFFFFFFFFFFFFFFFFFF",
"FFFFFFFFFFFFFFFFFFFFFFFFFFFFFFFFFFFFFFFFFFFFFFFFFFFFFFFFFFFFFFFFFFFFFFFFFFFFFFFF",
"FFFFFFFFFFFFFFFFFFFFFFFFFFFFFFFFFFFFFFFFFFFFFFFFFFFFFFFFFFFFFFFFFFFFFFFFFFFFFFFF",
"FFFFFFFFFFFFFFFFFFFFFFFFFFFFFFFFFFFFFFFFFFFFFFFFFFFFFFFFFFFFFFFFFFFFFFFFFFFFFFFF",
"FFFFFFFFFFFFFFFFFFFFFFFFFFFFFFFFFFFFFFFFFFFFFFFFFFFFFFFFFFFFFFFFFFFFFFFFFFFFFFFF",
"FFFFFFFFFFFFFFFFFFFFFFFFFFFFFFFFFFFFFFFFFFFFFFFFFFFFFFFFFFFFFFFFFFFFFFFFFFFFFFFF",
"FFFFFFFFFFFFFFFFFFFFFFFFFFFFFFFFFFFFFFFFFFFFFFFFFFFFFFFFFFFFFFFFFFFFFFFFFFFFFFFF",
"FFFFFFFFFFFFFFFFFFFFFFFFFFFFFFFFFFFFFFFFFFFFFFFFFFFFFFFFFFFFFFFFFFFFFFFFFFFFFFFF",
"FFFFFFFFFFFFFFFFFFFFFFFFFFFFFFFFFFFFFFFFFFFFFFFFFFFFFFFFFFFFFFFFFFFFFFFFFFFFFFFF",
"FFFFFFFFFFFFFFFFFFFFFFFFFFFFFFFFFFFFFFFFFFFFFFFFFFFFFFFFFFFFFFFFFFFFFFFFFFFFFFFF",
"FFFFFFFFFFFFFFFFFFFFFFFFFFFFFFFFFFFFFFFFFFFFFFFFFFFFFFFFFFFFFFFFFFFFFFFFFFFFFFFF",
"FFFFFFFFFFFFFFFFFFFFFFFFFFFFFFFFFFFFFFFFFFFFFFFFFFFFFFFFFFFFFFFFFFFFFFFFFFFFFFFF",
"FFFFFFFFFFFFFFFFFFFFFFFFFFFFFFFFFFFFFFFFFFFFFFFFFFFFFFFFFFFFFFFFFFFFFFFFFFFFFFFF",
"FFFFFFFFFFFFFFFFFFFFFFFFFFFFFFFFFFFFFFFFFFFFFFFFFFFFFFFFFFFFFFFFFFFFFFFFFFFFFFFF",
"FFFFFFFFFFFFFFFFFFFFFFFFFFFFFFFFFFFFFFFFFFFFFFFFFFFFFFFFFFFFFFFFFFFFFFFFFFFFFFFF",
"FFFFFFFFFFFFFFFFFFFFFFFFFFFFFFFFFFFFFFFFFFFFFFFFFFFFFFFFFFFFFFFFFFFFFFFFFFFFFFFF",
"FFFFFFFFFFFFFFFFFFFFFFFFFFFFFFFFFFFFFFFFFFFFFFFFFFFFFFFFFFFFFFFFFFFFFFFFFFFFFFFF",
"FFFFFFFFFFFFFFFFFFFFFFFFFFFFFFFFFFFFFFFFFFFFFFFFFFFFFFFFFFFFFFFFFFFFFFFFFFFFFFFF"
};
