/* XPM */
static char * button_blue_xpm[] = {
"1 35 22 1",
" 	c #0C0C70",
".	c #0C0C7F",
"+	c #0C0C90",
"@	c #0C0CA5",
"#	c #0C0CB1",
"$	c #0C0CBC",
"%	c #0C0CC3",
"&	c #0C0CC5",
"*	c #0C0CB6",
"=	c #0C0CB9",
"-	c #0C0CBE",
";	c #0C0CC0",
">	c #0C0CC8",
",	c #0D0DCB",
"'	c #1010CE",
")	c #1212D0",
"!	c #1515D3",
"~	c #1717D5",
"{	c #1919D7",
"]	c #1B1BD9",
"^	c #1D1DDB",
"/	c #1E1EDC",
" ",
".",
"+",
"@",
"#",
"$",
"%",
"&",
"&",
"&",
"&",
"&",
"&",
"&",
"%",
"*",
"*",
"=",
"=",
"$",
"-",
";",
"%",
"&",
">",
",",
"'",
")",
"!",
"~",
"{",
"]",
"^",
"/",
"/"};
