/* XPM */
static char * RAC 105_xpm[] = {
"80 80 16 1",
" 	c #090B07",
".	c #1A1C19",
"+	c #2A2C29",
"@	c #F30108",
"#	c #DF0A11",
"$	c #5A5C5A",
"%	c #C73137",
"&	c #7F817E",
"*	c #E56A6F",
"=	c #DD8489",
"-	c #A1A3A0",
";	c #F9BBC0",
">	c #D3CECB",
",	c #E6E6E4",
"'	c #FFDDE1",
")	c #FDFFFC",
"))))))))))))))))))))))))))))))))))))))))))))))))))))))))))))))))))))))))))))))))",
"))))))))))))))))))))))))))))))))))))))))))))))))))))))))))))))))))))))))))))))))",
"))))))))))))))))))))))))))))))))))))))))))))))))))))))))))))))))))))))))))))))))",
"))))))))))))))))))))))))))))))))))))))))))))))))))))))))))))))))))))))))))))))))",
"))))))))))))))))))))))))))))))))))))))))))))))))))))))))))))))))))))))))))))))))",
"))))))))))))))))))))))))))))))))))))))))))))))))))))))))))))))))))))))))))))))))",
"))))))))))))))))))))))))))))))))))))))))))))))))))))))))))))))))))))))))))))))))",
"))))))))))))))))))))))))))))))))))))))))))))))))))))))))))))))))))))))))))))))))",
"))))))))))))))))))))))))))))))))))))))))))))))))))))))))))))))))))))))))))))))))",
"))))))))))))))))))))))))))))))))))))))))))))))))))))))))))))))))))))))))))))))))",
"))))))))))))))))))))))))))))))))))))))))))))))))))))))))))))))))))))))))))))))))",
"))))))))))))))))))))))))))))))))))))))))))))))))))))))))))))))))))))))))))))))))",
"))))))))))))))))))))))))))))))))))))))))))))))))))))))))))))))))))))))))))))))))",
"))))))))))))))))))))))))))))))))))))))))))))))))))))))))))))))))))))))))))))))))",
"))))))))))))))))))))))))))))))))))))))))))))))))))))))))))))))))))))))))))))))))",
"))))))))))))))))))))))))))))))))))))))))))))))))))))))))))))))))))))))))))))))))",
"))))))))))))))))))))))))))))))))))))))))))))))))))))))))))))))))))))))))))))))))",
")))'))'))')))))))))))')'))))))))))))))')))))))))))))))))))))))))))))))))))))))))",
"))''''''''')))))))'';;;;'')))))))))''''')))),,)))))))),>>->,))))))))),,,,,,,,)))",
"));****=*=;'))))))';%%#%='))))))))'';==='))>--,)))))),&...+-,))))))),--&-&-&-)))",
"))=%#%#%#%%=')))));%##@#%=')))))');%%%#%'))-  >))))))+ $--+ &))))))),       +)))",
"))=########%=')));*###@@#%;)))))';%###%%')))>$>)))))$$>,)),>+&))))))>$>,,,,,,)))",
"))=#@#######*'))';%#@###@#*'))));*#####%>))))$>))))-+>))))))-+,)))))-&))))))))))",
",)*#@#%%%##@%=))'%###%%###%;)))'=#####%%;))))$,))))$&))))))))$&)))))&&))))))))))",
"))=@@%****#@#=')'%@#%*=*#@#;'));%###%%*='))),$>)))>+,))))))))>+>))))$>))))))))))",
"),=@#%;>;;%#@*',;%##*'';%##='))=###%*=;;'))))$>)))$-))))))))))$-))))$,))))))))))",
"))*@#='),';#@%''=#@%'','*##*')'*#@%;,)'))))))$>)),+,))))))))))>$))))$,))))))))))",
"),=@#*,)),'#@%;)=##*')))=##%',;%@#*')))))))))$>))>$)))))))))))>+)))>$),,,,))))))",
"))*##=')))'##%;'=##*))));%#%'';##%;')))))))))$>))&&))))))))))))$,))>+)&. .-)))))",
"))*@#=))))'#@%''*##*))));%#%''=#@*'))))))))))$>))$-))))))))))))&-))>&&+$-$.&))))",
"))=##=')),;##%')*##*))));%@%''*##='))))))))))$>))$>))))))))))))-$))-+$-,,>-+>)))",
"),*@#=''''*##*''*##*')));%#%;,%@#;)))))))))))$>))$,)))))))))))),$))- -)))))&$)))",
"))=##=;==*%##=))*##*))));%@%''%##;,))))))))))$>),$))))))))))))),$))-$')))))>+>))",
"),*@#=;%##@#%;)'*##*')));%@%''%##;)))))))))))$>),$))))))))))))))$),>-)))))))&&))",
"))=##==%##@@*'))*##='''';##%''%##;)))))))))))$>),$))))))))))))),$))))))))))),$,)",
"),*@#==%#@@@;'))*#@*';==*#@%''%##;)))))))))))$>),$))))))))))))),$))))))))))),+,)",
"))*##=;%##@#*')'*##*;%%%#@#%''%##;)))))))))))$>),$,)))))))))))),$))))))))))))$>)",
"),*##*-=%%#@%'))*#@*=%##@@@%''*##;)))))))))))$>))$,))))))))))))>$))))))))))))$,)",
"))=@#=';;=#@#;,)*##*;###@@@%''*##*'))))))))))$>))$-))))))))))))&&))))))))))))&>)",
"),*##=,'';*##=)'*#@*=%#%#@@%;,=#@*'))))))))))$>))$-))))))))))))$>))))))))))))&,)",
"))*##*,))'*##=))*##*;**%%@@%');###;')))))))))$>))-&))))))))))),$,)),)))))))),$>)",
"),*##='))'=#@*')*##*';;;*#@%;);%##*''))))))))$>))>$,))))))))))>+))>-)))))))),$,)",
"))=@#=,))'=##=)'*##*''');%@*;)'*##%=')'))))))$>)),+>))))))))))-&)),$,))))))),+,)",
"),*##=')),=#@*))*##*))))'%@%'),=#@#%=;;''))))$>)))-$))))))))),+-)),$>)))))))>$))",
"))*##='))'=##*))*##*))));%@%;))'%#@##%%%'))))$>))),+>))))))))-$))))$-)))))))&&))",
"))*##=,)),=#@=')*##*')));%#%')),=###@##%'')))$>))))&$))))))),+-))))-$)))))),+,))",
"))=##='))'=##*)'*##=))));%#%')))'*###@#%'))))$>))))>+-,)))),$$')))),$&)))))$&)))",
"),=##=))),=%#=))*%#=))));*#%;)),>;*####%;))))$,)))))-+&>,,>$$>))))))-+&>,>&+>)))",
"))=%%&')),=%%=))=%%=))))'*%='))))';*%%%%>))))&>))))))&+$&$$$-,)))))))&+$&$+-))))",
"),-==;))),'&=;),;==;))))>==;')))),,>===='))))>))))))))-$$$$-))))))))))&$$$-)))))",
"))''''))))''',)),'',)))),'>',)))))))'>',))))))))))))))))',))))))))))))),')))))))",
"))),))))))))'))'),))))))))'))))))))))',)')))))))))))))))))))))))))))))))))))))))",
")))))))))))))))))))))))))))),)))))))))))))))))))))))))))))))))))))))))))))))))))",
")))))))))))))))))))))))))),>>))))))))))))))))->)))))-)))))))))))),>)))))))))))))",
"))))))))))),>))))))))))))))->))))))))))))))))>,)))))>)))))))))))))>,))>,))))))))",
")))>-,)>>-,>&--,,--))>-,)))--)>&,))))>->>-),,,,),--)>))--,)>->,)))>)))-&->),),))",
")))&&-,-&&->+&-,&&$>,&&-)))>>>&&$>)))$&&&$>>>)-,&&&,-)>&&-)&&&-)))-)))&$&&)-)-,)",
"))>&>$,$--->$>>)$--&>&>$)))->-&>+>)))+>$-----)&>$>&,&,&--->$-$&)))$,))&&>>,$)-,)",
"))&->&>&)>&>-)))$>,&&&>$,))->&,)&>)),&)$,>&>-)&>$->)&,&,),--)-&)),&,))--)))&)&,)",
"))&+++>&),&>-),)$,),$+++,))>--,)--)),&)&,,&--)&,>+$,&)$)))&>)>-)),&)))&>),,&)-,)",
"))&')))&',&>&)->$>))&))))))->&,)->)),&)&,,->-)&>))&-&'&)))&-)>&)),&,))--)$'$)->)",
"))>&)&,$),&>&)$>$,))--)&)))>--&)+-)),&)&,>&-&)$,$,--$,&->&,$,&&)),&,))--,&)$)$,)",
")),&$&)&),-,&$&,&,)),&$&)))>>,$$$>)),-)&,,-'$&$'&$$,&)>$$-)&$$-)),&))),$$-)&$$,)",
")))>>>)>),,)'->)>,)),>>>)),,,)>->,))),)>),>)>>>)'--)>)'--,)>->,)))>))))>-,)>>>))",
"))))))))))))))))))))))))))))))))))))))))))))))))))))))))))))))))))))))))))))),))",
"))))))))))))))))))))))))))))))))))))))))))))))))))))))))))))))))))))))))))))))))",
"))))))))))))))))))))))))))))))))))))))))))))))))))))))))))))))))))))))))))))))))",
"))))))))))))))))))))))))))))))))))))))))))))))))))))))))))))))))))))))))))))))))",
"))))))))))))))))))))))))))))))))))))))))))))))))))))))))))))))))))))))))))))))))",
"))))))))))))))))))))))))))))))))))))))))))))))))))))))))))))))))))))))))))))))))",
"))))))))))))))))))))))))))))))))))))))))))))))))))))))))))))))))))))))))))))))))",
"))))))))))))))))))))))))))))))))))))))))))))))))))))))))))))))))))))))))))))))))",
"))))))))))))))))))))))))))))))))))))))))))))))))))))))))))))))))))))))))))))))))",
"))))))))))))))))))))))))))))))))))))))))))))))))))))))))))))))))))))))))))))))))",
"))))))))))))))))))))))))))))))))))))))))))))))))))))))))))))))))))))))))))))))))",
"))))))))))))))))))))))))))))))))))))))))))))))))))))))))))))))))))))))))))))))))",
"))))))))))))))))))))))))))))))))))))))))))))))))))))))))))))))))))))))))))))))))",
"))))))))))))))))))))))))))))))))))))))))))))))))))))))))))))))))))))))))))))))))",
"))))))))))))))))))))))))))))))))))))))))))))))))))))))))))))))))))))))))))))))))",
"))))))))))))))))))))))))))))))))))))))))))))))))))))))))))))))))))))))))))))))))"};
