/* XPM */
static char * TELEDEPORTE_xpm[] = {
"80 80 14 1",
" 	c None",
".	c #0E100D",
"+	c #535553",
"@	c #037BC1",
"#	c #0082D6",
"$	c #0A82C7",
"%	c #278BC6",
"&	c #4EA4D0",
"*	c #979997",
"=	c #84B7C7",
"-	c #A1D7E9",
";	c #C0D1D3",
">	c #D7EAEE",
",	c #F9FEFD",
">;>;>;>;>;>;>;>;>;>;>;>;>;>;>;>;>;>;;;;>;>;;>;>;>>,,,,,,,,,,,,,,,,,,,,,,,,,,,,,,",
";;->;>;>;>;>;>;>;>;>;>;>;>;>;>;>;>;>;>;;>;>>;>;>>>>>>>>,>,,,,,,,,,,,,,,,,,,,,,,,",
"=;>>>>>>>>>>>>>>>>>>>>>>>>>>>>>>>>>>>>>>>>>>>>>>>>>>>>>>>>>>>>,,,,,,,,,,,,,,,,,,",
"=->>,>,,,,,,>,,,,,,>,,,,,,,,,,,,,,,,,,,,,,,,,,,,>,,,,,,,,>>>>;>>>>>>>,,,,,,,,,,,",
"=;,,,,,,,,,,,,,,,,,,,,,,,,,,,,,,,,,,,,,,,,,,,>,,,,,,,,,,,,,,,,,,>,>>>>>,,,,,,,,,",
"=-,,,,,,,,,,,,,,,,,,,,,,,,,,,,,,,,,,,,,,,,,,,,,,,,,,,,,,,,,,,,,,,,,,,>>>>>>,,,,,",
"=;>,,,,,,,,,,,,,,,,,,,,,,,,,,,,,,,,,,,,,,,,,,,,,,,,,,,,,,,,,,,,,,,,,,,,,>,>>,,,,",
"=-,,,,,,,,,,,,,,,,,,,,,,,,,,,,,,,,,,,,,,,,,,,,,,,,,,,,,,,,,,,,,,,,,,,,,,,,>>>>,,",
"=;,,,,,,,,,,,,,,,,,,,,,,,,,,,,,,,,,,,,,,,,,,,,,,,,,,,,,,,,,,,,,,,,,,,,,,,,,,>>>,",
"=->,,,,,,,,,,,,,,,,,,,,,,,,,,,,,,,,,,,,,,,,,,,,,,,,,,,,,,,,,,,,,,,,,,,,,,,,,,>>>",
"=;,,,,,,,,,,,,,,,,,,,,,,,,,,,,,,,,,,,,,,,,,,,,,,,,,,,,,,,,,,,,,,,,,,,,,,,,,,,,>>",
"=;,,,,,,,,,,,,,,,,,,,,,,,,,,,,,,,,,,,,,,,,,,,,,,,,,,,,,,,,,,,,,,,,,,,,,,,,,,,,>;",
"=;>,,,,,,,,,,,,,,,,,,,,,,,,,,,,,,,,,,,,,,,,,,,,,,,,,,,,,,,,,,,,,,,,,,,,,,,,,,,,;",
"=-,,,,,,,,,,,,,,,,,,,,,,,,,,,,,,,,,,,,,,,,,,>,>>,>,,,,,,,,,,,,,,,,,,,,,,,,,,,,>;",
"=;>,,,,,,,,,,,,,,,,,,,,,,,,,,,,,,,,,,,,>,>>,>>;,;;;;;;;;>>,>,,,,,,,,,,,,,,,,,,,;",
"=-,,,,,,,,,,,,,,,,,,,,,,,,,,,,,,,,,,,>,,>,>,,,>,,,;,;;;*;*;*;;;;>;,,,,,,,,,,,,>;",
"=;>,,,,,,,,,,,,,,,,,,,,,,,,,,,,,,,,,,>;;;;;;;>>>>>>,,,,,;;;;*;*;;*;;;>>,,,,,,,,;",
";-,,,,,,,,,,,,,,,,,,,,,,,,,,,,,,,,,,,,>>>;--====---->>,,,,>,;;;*;;*;*;*;;>,,,,>;",
"=;>,,,>>>,,,,,,,,,,,,,,,,,,>;,,,,;;;;;;;;;;;--=&&=&==-->,,,,;,*;;*;;;;*;*;;>,,,;",
"=-,,,,--->,,,,,,,,,,,,,,,,;*+*;;*+++++++++*;>>>-=&&%%&&=;>,,,,,*;;*;*;;;;*;;,,>;",
"=;>,,>=&&->,>,,,,,,,,,,,,;*.+*;*..+*****+.+*>,,>-&%%&%&&->,,,,>;*;;*;*;*;;;;,,,;",
"=-,,,-&&&---;-;>>;********+.+*;+..+****++.+;,,,--&&&&&==>,,,,,;;;*;;*;;;;;,,,,>;",
"=;>,>-&&&==-==;;;+++++*+++..+;*..++*++*+++*;,>>-=--&-->>>,,,;;;*;;;;;;;;,,,,,,,;",
";-,,-=&&=---;-;;*..+****++..*;*..***;*;***;,,,>>->>,,,,,,,;,;;;;;;,;,,,,,,,,,,>;",
"=;>,>=&&&--=->,;+..++***+..+;*+.+;,,,,,,,,,,,,,,,,,,,,,,,,>,>,,,,,,,,,,,,,,,,,,;",
"=-,,>-=-===-->,,;**++++*+**;,****,,,,,,,,,,,,,,,,,,,,,,,,,,,,,,,,,,,,,,,,,,,,,>;",
"=;>,,,,>>,,,,,,,,,>,,,,,,,,,,,,,,,,,,,,,,,,,,,,,,,,,,,,,,,,,,,,,,,,,,,,,,,,,,,,;",
"=-,,,,,,,,,,,,,,,,,,,,,,,,,,,,,,,,,,,,,,,,,,,,,,,,,,,,,,,,,,,,,,,,,,,,,,,,,,,,>;",
"=;>,,,,,,,,,,,,,,,,,,,,,,,,,,,,,,,,,,,,,,,,,,,,,,,,,,,,,,,,,,,,,,,,,,,,,,,,,,,,;",
"=-,,,,>,,,,>>>>>>,>,,,,,>>>>>>,,,,,;;;;;**;>;;*;*;,,,,,,,,,,,,,,,,,,,,,,,,,,,,,;",
"=;>,,;->>,>----;->=>,,,>-=>-;;;;;;*++*.+++++++++.+;,,,,,,,,,,,,,,,,,,,,,,,,,,,>>",
"=-,,>=;->>>*->-;;>=>>>>>;->-;;*+++++++++*+**++****>,,,,,,,,,,,,,,,,,,,,,,,,,,,>;",
"=;>,,>;>>,>->>>>>>>>>>,>;->>>;******;*****;**,,,,,,,,,,,,,,,,,,,,,,,,,,,,,,,,,,;",
"=-,,,,,>,,,,>>,,,>,>,,,,,>,>,,>;>;>,,>;>;>,,,,,,,,,,,,,,,,,,,,,,,,,,,,,,,,,,,,>;",
"=;>,,,,,,,,,,,,,,,,,,,,,,,,,,,,,,,,,,,,,,,,,,,,,,,,,,,,,,,,,,,,,,,,,,,,,,,,,,,,;",
"=-,,,,,,,,,,,,,,,,,,,,,,,,,,,,,,,,,,,,,,,,,,,,,,,,,,,,,,,,,,,,,,,,,,,,,,,,,,,,,;",
"=;>,,,,,,,,,,,,,,,,,,,,,,,,,,,,,,,,,,,,,,,,,,,,,,,,,,,,,,,,,,,,,,,,,,,,,,,,,,,>-",
"=-,,,,,,,,,,,,,,,,,,,,,,,,,,,,,,,,,,,,,,,,,,,,,,,,,,,,,,,,,,,,,,,,,,,,,,,,,,,,,;",
"=;>,,,,,,,,,,,,,,,,,,,,,,,,,,,,,,,,,,,,,,,,,,,,,,,,,,,,,,,,,,,,,,,,,,,,,,,,,,,,;",
"=-,,,,,,,,,,,,,,,,,,,,,,,,,,,,,,,,,,,,,,,,,,,,,,,,,,,,,,,,,,,,,,,,,,,,,,,,,,,,>;",
"=;>,,,,,,,,,,,,,,,,,,,,,,,,,,,,,,,,,,,,,,,,,,,,,,,,,,,,,,,,,,,,,,,,,,,,,,,,,,,>-",
"=-,,,,,,,,,,,,,,,,,,,,,,,,,,,,,,,,,,,,,,,,,,,,,,,,,,,,,,,,,,,,,,,,,,,,,,,,,,>--=",
"=;>,,,,,,,,,,,,,,,,,,,,,,,,,,,,,,,,,,,,,,,,,,,,,,,,,,,,,,,,,,,,,,,,,,,,,>>---&&&",
"=-,,,,,,,,,,,,,,,,,,,,,,,,,,,,,,,,,,,,,,,,,,,,,,,,,,,,,,,,,,,,,,,,,,,>>---&&%%@&",
"=;>,,,,,,,,,,,,,,,,,,,,,,,,,,,,,,,,,,,,,,,,,,,,,,,,,,,,,,,,,,,,,,>>----&&%@@@@@%",
"=-,,,,,,,,,,,,,,,,,,,,,,,,,,,,,,,,,,,,,,,,,,,,,,,,,,,,,,,,,>,->----=&%$@@#@####&",
"=;>,,,,,,,,,,,,,,,,,,,,,,,,,,,,,>,,,,,,,,,,,,,>,>,>>>>->-----&&&%$$$$$########@%",
"=--------------------------------------------------&-&&&&&%$$$$##@###########@#&",
"%%&%%%%%%%%%%%%%%%%%%%%%%%%%%%&%&%%%%%%%%%&%%&%%$$##$$#@@@@@##################@%",
"%%$$$$#$$$#$$$$#$##$#$$#$$$########$#$$#$@#####################################&",
"%@@###################$#####@#@#@#########@#@################################@#%",
"%$$#######################$###################@#####@#######$#################@&",
"%@#################$@%%%%$######################@##############################%",
"%$@#####$####$###$##$&--&%@@########################@#@######################@@&",
"%@$#################$&>>-&$$@@#@@@@#$####@#@#@#@@@@#@#@#######################@%",
"%$#################%%->>>=%%$$%$%%%%$@#@@$%%%$$$%%%%%%%%$@#####################&",
"%@$##############@$&->,,>>-----------&@$&---=&=---------&%@#################$##%",
"%$@###############%->,,,,,,,,,,,,,,,-&%%->>>-=->>,,,,,,>=%#@#################@@&",
"%@$###############%->>,,,,,>,,,,,,,>-=%&>>,>==>,,,>,,,,>-%@####################%",
"%$################$&->,,,--->>,,,>---&&->,,-=->,,>-->,,>=%####################@&",
"%@$###########$####&&->,>-&&&-,,>-&&$%&-,,>==>,,,;===>,>-%@####################%",
"%$##################$->>>&%$%=>,,;&%%%=,,,;=->,,>;;=>,,>=%@###################@&",
"%$@#################@->>>&$@$&-,,>=%%&->,>-=;,,,,,,,,,,>-%@####################%",
"%$#################@@->>>&@$$%->,>;&%=>,,>=->,,,,,,,>,,>=%@###################@&",
"%$@#################$--,-&$$$%&>,,>=&=,,>;=;>,,>->-->---&%$####################%",
"%$##################$->,>=%%%%&-,,,;;>>>>=->,,>-==&=&=-&&$#####################&",
"%@$#################$->,>--=-=&&>,,,>,,,-&=>,,>;==-=-==&&#@###################@%",
"%$#################@#->,,,,>>-&&->,,,,,-=%--,,,,,,,,,,>-&$#####################&",
"%@@#################$&>,>,,,>=%&=>,,,,>-%@&->,,,,>,,,,>-%#####################@%",
"%%##################$-->->>--&%$&-->->-=%@%&->->>->->--&$@#####################&",
"$$######$############$%&&%&%%$@@$%&&%&%$$#$$%&%&%&%&&%%############@#########@#%",
"%$$####################$###$###########################@######################@&",
"%@$####################$####$#####$##$############$#$###@######################%",
"%$########################$####################$#####$########################@&",
"%@#######################################################@#####################%",
"%$@###############@#########################################@##@############@#@&",
"@@@#$##############$#############@###@####$#$################@###########@####@%",
"%@###$@#@#@#@#@#@#$##$$#$#$#$@#$@#$$##$#@#####$#$$#$$#@#@#@#@###@@#@#@#@@###@#$%",
"%%%@$$$$$@$@$$$$$$$%@$$$$$$$$$$$$$$$$$$$$$$$$$$@$$$@$$$$$$$@$$@$@$@$@$@@$$$$$$%&",
"=&&&&&&&&&&&&&&&&&&&&&&&&&&&&&&&&&&&&&&&&&&&&&&&&&&&&&&&&&&&&&&&&&&&&&&&&&&&&&&="};
