/* XPM */
static char * Tele Melilla_xpm[] = {
"80 80 14 1",
" 	c None",
".	c #000F40",
"+	c #410037",
"@	c #001D65",
"#	c #002387",
"$	c #72005A",
"%	c #2A4402",
"&	c #005B02",
"*	c #1132B8",
"=	c #A3008E",
"-	c #007E08",
";	c #00AB00",
">	c #6F7E00",
",	c #A7BF00",
"                                                                                ",
"                                                                                ",
"                                                                                ",
"                                                                                ",
"                                                                                ",
"                                                                                ",
"                                                                                ",
"                                                                                ",
"                                                                                ",
"                                                                                ",
"                                   ...@.%%%%%                                   ",
"                                @###*#*.,,>,,>%                                 ",
"                             @##*******@,,,,,,,,,%                              ",
"                           .#**********.,,,,,,,,,,,%                            ",
"                         .#************@,,,,,,,,,,,,,%                          ",
"                        @**************.,,,,,,,,,,,,,,>                         ",
"                       @***************@,,,,,,,,,,,,,,,>                        ",
"                      #****************.,,,,,,,,,,,,,,,,,                       ",
"                     #*****************@,,,,,,,,,,,,,,,,,,%                     ",
"                    #******************.,,,,,,,,,,,,,,,,,,,%                    ",
"                   @*******************@,,,,,,,,,,,,,,,,,,,>                    ",
"                  @********************.,,,,,,,,,,,,,,,,,,,,>                   ",
"                 .#*****#**************.,,,,,,,,,,,,,,,,,,,,,>                  ",
"                 #*********************.,,,,,,,,,,,,,,,,,,,,,,                  ",
"                @**********************.,,,,,,,,,,,,,,,,,,,,,,>                 ",
"                @**********************@,,,,,,,,,,,,,,,,,,,,,,,                 ",
"               @***********************.,,,,,,,,,,,,,,,,,,,,,,,>                ",
"               #***********************.,,,,,,,,,,,,,,,,,,,,,,,,                ",
"               ********#***************@,,,,,,,,,,,,,,,,,,,,,,,,%               ",
"              @#*************#**#******.,,,,,,,,,,,,,,,,,,,,,,,,>               ",
"              #***********#************.,,,,,,,,,,,,,,,,,,,,,,,,,               ",
"              #************************.,,,,,,,,,,,,,,,,,,,,,,,,,%              ",
"             @*********#***************.,,,,,,,,,,,,,,,,,,,,,,,,,>              ",
"             @****#***************#****@;,,,,,,,,,,,,,,,,,,,,,,,,>              ",
"             @****************#********.,,,,,,,,,,,,,,,,,,,,,,,,,,              ",
"             @*************************@,,,,,,,,,,,,,,,,,,,,,,,,,,              ",
"             #*************************@,,,,,,,,,,,,,,,,,,,,,,,,,,              ",
"             #*************************.,,,,,,,,,,,,,,,,,,,,,,,,,,%             ",
"             ******#*******************@;,,,,,,,,,,,,,,,,,,,,,,,,,%             ",
"             @@@@@@@@@@@@@@@@@@@@@@@@@@.>>->>>->>>->>>>>>>>>>>>>>>%             ",
"             ----------;---;--;--;--;--&$$$$$$$$$$$$$$$$$$$$$$$$$$+             ",
"             -;;;;;;;;;;;;;;;;;;;;;;;;;&==========================              ",
"             -;;;;;;;;;;;;;;;;;;;;;;;;;&==========================              ",
"             -;;;;;;;;;;;;;;;;;;;;;;;;;&==========================              ",
"             &;;;;;;;;;;;;;;;;;;;;;;;;;&=========================$              ",
"             &;;;;;;;;;;;;;;;;;;;;;;;;;&$========================$              ",
"              ;;;;;;;;;;;;;;;;;;;;;;;;;&=========================+              ",
"              &;;;;;;;;;;;;;;;;;;;;;;;;&=========================               ",
"              &;;;;;;;;;;;;;;;;;;;;;;;;&========================$               ",
"               ;;;;;;;;;;;;;;;;;;;;;;;;&========================+               ",
"               -;;;;;;;;;;;;;;;;;;;;;;;&$=======================                ",
"               &;;;;;;;;;;;;;;;;;;;;;;;&=======================$                ",
"                -;;;;;;;;;;;;;;;;;;;;;;&======================$                 ",
"                &;;;;;;;;;;;;;;;;;;;;;;&======================$                 ",
"                 -;;;;;;;;;;;;;;;;;;;;;&$=====================                  ",
"                 &-;;;;;;;;;;;;;;;;;;;;&=====================+                  ",
"                  &;;;;;;;;;;;;;;;;;;;;&====================$                   ",
"                   &;;;;;;;;;;;;;;;;;;;&===================$                    ",
"                    -;;;;;;;;;;;;;;;;;;&===================+                    ",
"                     -;;;;;;;;;;;;;;;;;&$=================+                     ",
"                      -;;;;;;;;;;;;;;;;&================$+                      ",
"                       &;;;;;;;;;;;;;;;&===============$                        ",
"                        &;;;;;;;;;;;;;;&==============$                         ",
"                         %&;;;;;;;;;;;;&$===========$+                          ",
"                           %-;;;;;;;;;;&===========+                            ",
"                             %-;;;;;;;;&========$+                              ",
"                                %--;;;;&==$=$$++                                ",
"                                   %%%&%+++++                                   ",
"                                                                                ",
"                                                                                ",
"                                                                                ",
"                                                                                ",
"                                                                                ",
"                                                                                ",
"                                                                                ",
"                                                                                ",
"                                                                                ",
"                                                                                ",
"                                                                                ",
"                                                                                "};
