/* XPM */
static char * Tv canaria 2_xpm[] = {
"80 80 14 1",
" 	c None",
".	c #0F110E",
"+	c #711A6E",
"@	c #7B2A78",
"#	c #595957",
"$	c #B081AB",
"%	c #A19D9E",
"&	c #EEB727",
"*	c #EDB939",
"=	c #D2CCD0",
"-	c #EFCD7C",
";	c #F8E9C2",
">	c #FAF7E7",
",	c #FDFFFC",
"                                                      &&&&&&&&&&&&&             ",
"                                                      *&&&&&&&&&&&&             ",
"                                                      *&&&&&&&&&&&&             ",
"                                                      *&&&&&&&&&&&&             ",
"                                                       &&&&&&&&&&&&             ",
"                                                       &&&&&&&&&&&&             ",
"                                                       &&&&&&&&&&&&             ",
"                                                       &&&&&&&&&&&*             ",
"                                                       &&&&&&&&&&&*             ",
"                                                       &&&&&&&&&&&*             ",
"                                                       &&&&&&&&&&&              ",
"                                                       &&&&&&&&&&&              ",
"                                                       &&&&&&&&&*&              ",
"                                                       *&&&&&&&&&&              ",
"                                                       *&&&&&&&&&&              ",
"              **&&&*                                   *&*&&&&&*&&              ",
"             &&&***&&             @@++++++++++++@@     *&*******&&              ",
"            *&******&*         @++++@@@@@@@@@@@@++++@  *&*******&&              ",
"            &****&**&&        ++@@@@@@@@@@@@@@@@@@@@++@*&&*&*****&              ",
"           *&********&      @+@@@@@@@@@@@@@@@@@@@@@@@++@*&&*****&*              ",
"           *&********&*    @+@@@@@@@@@@@@@@@@@@@@@@@@@@+@*&&****&*              ",
"            &********&*    ++@@@@@@@@@@@@@@@@@@@@@@@@@@@+@*&****&*              ",
"            &********&    @+@@@@@@@@@@@@++++@@@@@@@@@@@@@+******&               ",
"            &&***&&*&*   @+@@@@@@@@@@@++@@@@++@@@@@@@@@@++@*&***&               ",
"             &&****&&    @+@@@@@@@@@@+@      @+@@@@@@@@@@@+*&***&               ",
"              *&&&&*     +@@@@@@@@@+++        @+@+@@@@@@@@+**&**&               ",
"                        @+@@@@@@@@@++          @+@@@@@@@@@+@*&*&&               ",
"                        @+@@@@@@@@@+@           +@@@@@@@@@+@*&*&&               ",
"                        ++@@@@@@@@@+            +@@@@@@@@@+@*&*&&               ",
"                        @@@+++++++++            +@@@@@@@@@+@*&*&&               ",
"                                   @            +@@@@@@@@@+@*&&&&               ",
"                                               ++@@@@@@@@@+******               ",
"             *******&                          +@@@@@@@@@@+                     ",
"             &******&                         +@@@@@@@@@@+@                     ",
"             &******&                        ++@@@@@@@@@@+                      ",
"             &***&**&                       ++@@@@@@@@@@+@%                     ",
"             &*****&&                      +@@@@@@@@@@@@+                       ",
"             &******&                    @+@@@@@@@@@@@@+@   *                   ",
"            *&***&**&*                  ++@@@@@@@@@@@@+@  &&&&&*                ",
"            *&***&&*&*                 ++@@@@@@@@@@@@++% &****&&&               ",
"            *&******&*                +@@@@@@@@@@@@@++  &*&*&*&**&              ",
"            *&******&*              @+@@@@@@@@@@@@++@  *&*&******&              ",
"            &&******&*             +++@@@@@@@@@@@@+@   &&********&              ",
"            &&******&&            ++@@+@@@@@@@@@++     &&********&              ",
"            &********&           ++@@@@@@@@@@@+++      ****&**&**&              ",
"            &********&          ++@@@@@@@@@@+++@       *&&*****&&&              ",
"            &********&         ++@@@@@@@@@@@++          &&******&               ",
"            &********&        ++@@@@@@@@@@@+@            *&&&*&&*               ",
"            &********&       ++@@@@@@@@@@@+@              *&&&*                 ",
"            &********&      ++@@@@@@@@@@++                                      ",
"            &********&     @+@@@@@@@@@@@+                                       ",
"           *&********&*    +@@@@@@@@@@+@@                                       ",
"           **********&*   ++@@@@@@@@@@@@@+++++++++++++++++++                    ",
"           &*********&*  @+@@@@@@@@@@@@@@@@@@@@@@@@@@@@@@@@+                    ",
"           &&********&*  @+@@@@@@@@@@@@@@@@@@@@@@@@@@@@@@@@+                    ",
"           &&********&& @+@@@@@@@@@@@@@@@@@@@@@@@@@@@@@@@@@+                    ",
"           &*********&&%@+@@@@@@@@@@@@@@@@@@@@@@@@@@@@@@@@@+                    ",
"           &*********&& +@@@@@@@@@@@@@@@@@@@@@@@@@@@@@@@@@@+                    ",
"           &**********&%++@@@@@@@@@@@@@@@@@@@@@@@@@@@@@@@@@+                    ",
"           &**********& @@@@@@@@@@@@@@@@@@@@@@@@@@@@@@@@@@@+                    ",
"           &&*********& ++++++++++++++++++++++++++++++++++++                    ",
"           &**********&                                                         ",
"           &**********&                                                         ",
"           &&&&&&&&&&&&                                                         ",
"           ************                                                         ",
"                                                                                ",
"                                                                                ",
"                                                                                ",
"                                                                                ",
"         ..            ...                                ..                    ",
"         ..           .....                               ..                    ",
"         ..          ..   ..                                                    ",
"        ....  .   .  ..       .....  .....   .....  ..... ..  .....             ",
"         ..   .   . ..           ..  ..  ..      .  ....  ..     ..             ",
"         ..   .  .  ..        .....  ..  ..   ....  ..    ..   ....             ",
"         ..    . .  ..       ......  ..  ..  .....  ..    ..  .....             ",
"         ..    ...   ..   .  ..  ..  ..  ..  .   .  ..    .. ..  ..             ",
"         ..    ..    ....... ......  ..  ..  .....  ..    .. ......             ",
"         ...    .      ....   .....  ..  ..  .....  ..    ..  .....             ",
"                                                                                "};
