/* XPM */
static const char *const tshifts2_xpm[] = {
"27 18 2 1",
".	c #FFFFFF",
"+	c #000000",
"...........................",
"...........................",
"......+++++.....++..++.....",
"......+++++.....++..++.....",
"......+++++.....+++..++....",
"......+++++.....+++..++....",
"......+++++.....++++..++...",
"......+++++.....++++..++...",
"......+++++.....+++++..++..",
"......+++++.....+++++..++..",
"......+++++.....++++..++...",
"......+++++.....++++..++...",
"......+++++.....+++..++....",
"......+++++.....+++..++....",
"......+++++.....++..++.....",
"......+++++.....++..++.....",
"...........................",
"..........................."};
