/* XPM */
static char *___[] = {
/* columns rows colors chars-per-pixel */
"80 80 256 2",
"   c #070B1A",
".  c #110F11",
"X  c #1E1B1E",
"o  c #110E0C",
"O  c #3E0704",
"+  c #2C231A",
"@  c #382B1C",
"#  c #060E27",
"$  c #181927",
"%  c #0A1538",
"&  c #131B37",
"*  c #131C3A",
"=  c #0C1128",
"-  c #371C24",
";  c #361D31",
":  c #2D192E",
">  c #1B2139",
",  c #272326",
"<  c #29273A",
"1  c #39263C",
"2  c #3A3337",
"3  c #382C2A",
"4  c #460A08",
"5  c #461504",
"6  c #571909",
"7  c #551111",
"8  c #691918",
"9  c #681C11",
"0  c #572304",
"q  c #432C18",
"w  c #443218",
"e  c #553916",
"r  c #673205",
"t  c #712E07",
"y  c #461F2E",
"u  c #691D24",
"i  c #462336",
"p  c #592635",
"a  c #483D38",
"s  c #503B21",
"d  c #792628",
"f  c #682938",
"g  c #77293A",
"h  c #7D323E",
"j  c #672429",
"k  c #5D4114",
"l  c #7A490B",
"z  c #684716",
"x  c #7A5215",
"c  c #784A14",
"v  c #564537",
"b  c #554333",
"n  c #674B24",
"m  c #775525",
"M  c #735532",
"N  c #111D45",
"B  c #0E1B44",
"V  c #1B2444",
"C  c #1B264A",
"Z  c #1D294D",
"A  c #162349",
"S  c #1E2C54",
"D  c #1E2E5C",
"F  c #182652",
"G  c #1F305F",
"H  c #232B4D",
"J  c #2D294A",
"K  c #342A4D",
"L  c #3C2B4D",
"P  c #372946",
"I  c #2C304A",
"U  c #353545",
"Y  c #232D55",
"T  c #2C2D54",
"R  c #202F5C",
"E  c #272D57",
"W  c #332C51",
"Q  c #3A2D51",
"!  c #22315D",
"~  c #2A345C",
"^  c #293255",
"/  c #353155",
"(  c #1E2F61",
")  c #1F3062",
"_  c #1F316A",
"`  c #202F61",
"'  c #213263",
"]  c #2B3A65",
"[  c #22346B",
"{  c #2C3C6C",
"}  c #273768",
"|  c #303E67",
" . c #273971",
".. c #2A3D74",
"X. c #263975",
"o. c #452947",
"O. c #432B4C",
"+. c #4B2C4A",
"@. c #492944",
"#. c #532B45",
"$. c #5B2B45",
"%. c #522D49",
"&. c #493051",
"*. c #4A354A",
"=. c #6C2D43",
"-. c #682F46",
";. c #722D41",
":. c #792A41",
">. c #6B3145",
",. c #34426C",
"<. c #2E417A",
"1. c #2F4177",
"2. c #32447C",
"3. c #334375",
"4. c #504543",
"5. c #98292B",
"6. c #842C3A",
"7. c #8B2D39",
"8. c #9A2C33",
"9. c #962B38",
"0. c #88333B",
"q. c #9A3738",
"w. c #82292C",
"e. c #A52D2E",
"r. c #A92F2E",
"t. c #AA342B",
"y. c #AB3728",
"u. c #B53B2C",
"i. c #B83A2A",
"p. c #A52D31",
"a. c #AB2E32",
"s. c #A72D38",
"d. c #B12E34",
"f. c #B32E3A",
"g. c #AD3133",
"h. c #A73535",
"j. c #B33133",
"k. c #BD3234",
"l. c #BD3C30",
"z. c #843F0A",
"x. c #CB3E2F",
"c. c #C72F36",
"v. c #C33335",
"b. c #CC3235",
"n. c #CB3735",
"m. c #D33438",
"M. c #D53639",
"N. c #854907",
"B. c #95550B",
"V. c #875915",
"C. c #92560D",
"Z. c #BD4D1C",
"A. c #B05019",
"S. c #976516",
"D. c #A8670C",
"F. c #A46A16",
"G. c #AB731A",
"H. c #AC7217",
"J. c #BC7C18",
"K. c #B16E0F",
"L. c #B54421",
"P. c #B94727",
"I. c #A74334",
"U. c #B94D2C",
"Y. c #8D6329",
"T. c #AB7525",
"R. c #B57C25",
"E. c #924039",
"W. c #C45919",
"Q. c #CB6619",
"!. c #D26B19",
"~. c #D97419",
"^. c #D3700E",
"/. c #E27D18",
"(. c #C6482B",
"). c #D3482C",
"_. c #C8572D",
"`. c #D65629",
"'. c #C24231",
"]. c #CB6427",
"[. c #DC6525",
"{. c #D56929",
"}. c #DB742A",
"|. c #DD7725",
" X c #E47C23",
".X c #E27A26",
"XX c #E06C25",
"oX c #8D3549",
"OX c #D53B42",
"+X c #AF4857",
"@X c #CE4C55",
"#X c #E55559",
"$X c #E44D52",
"%X c #D65961",
"&X c #CE5761",
"*X c #EB6267",
"=X c #EA5F63",
"-X c #BC8022",
";X c #CA851B",
":X c #D38B1C",
">X c #DA8918",
",X c #DB911D",
"<X c #F3960D",
"1X c #EA8C14",
"2X c #E4861A",
"3X c #E3951D",
"4X c #EA971D",
"5X c #F59C1C",
"6X c #F59918",
"7X c #EB880C",
"8X c #FBA21E",
"9X c #FDAD1D",
"0X c #F7A419",
"qX c #FEB41F",
"wX c #FEBA1F",
"eX c #D78A20",
"rX c #D18C22",
"tX c #E48325",
"yX c #E98A25",
"uX c #E78926",
"iX c #ED9323",
"pX c #ED9C20",
"aX c #E29720",
"sX c #F39D23",
"dX c #F09624",
"fX c #F3A121",
"gX c #FCA522",
"hX c #FEAC21",
"jX c #FEB321",
"kX c #FEBB21",
"lX c #F8B527",
"zX c #F2AC31",
"xX c #FEC81F",
"cX c #FEC320",
"vX c #FECC21",
"bX c #FDC82B",
"nX c #FED325",
"mX c #FDC638",
"MX c #FFD937",
"NX c #FBD847",
"BX c #FEE347",
"VX c #FDE757",
"CX c #FEED62",
"ZX c #FEF167",
"AX c #FFF771",
"SX c #384B85",
"DX c #3E518B",
"FX c #41548D",
"GX c #465995",
"HX c #485C96",
"JX c #4D619D",
"KX c #51639C",
"LX c #5265A2",
"PX c #5468A4",
"IX c #4F63A0",
"UX c None",
/* pixels */
"UXUXUXUXUXUXUXUXUXUXUXUXUXUXUXUXUXUXUXUXUXUXUXUXUXUXUXUXUXUXUXUXUXUXUXUXUXUXUXUXUXUXUXUXUXUXUXUXUXUXUXUXUXUXUXUXUXUXUXUXUXUXUXUXUXUXUXUXUXUXUXUXUXUXUXUXUXUXUXUX",
"UXUXUXUXUXUXUXUXUXUXUXUXUXUXUXUXUXUXUXUXUXUXUXUXUXUXUXUXUXUXUXUXUXUXUXUXUXUXUXUXUXUXUXUXUXUXUXUXUXUXUXUXUXUXUXUXUXUXUXUXUXUXUXUXUXUXUXUXUXUXUXUXUXUXUXUXUXUXUXUX",
"UXUXUXUXUXUXUXUXUXUXUXUXUXUXUXUXUXUXUXUXUXUXUXUXUXUXUXUXUXUXUXUXUXUXUXUXUXUXUXUXUXUXUXUXUXUXUXUXUXUXUXUXUXUXUXUXUXUXUXUXUXUXUXUXUXUXUXUXUXUXUXUXUXUXUXUXUXUXUXUX",
"UXUXUXUXUXUXUXUXUXUXUXUXUXUXUXUXUXUXUXUXUXUXUXUXUXUXUXUXUXUXUXUXUXUXUXUXUXUXUXUXUXUXUXUXUXUXUXUXUXUXUXUXUXUXUXUXUXUXUXUXUXUXUXUXUXUXUXUXUXUXUXUXUXUXUXUXUXUXUXUX",
"UXUXUXUXUXUXUXUXUXUXUXUXUXUXUXUXUXUXUXUXUXUXUXUXUXUXUXUXUXUXUXUXUXUXUXUXUXUXUXUXUXUXUXUXUXUXUXUXUXUXUXUXUXUXUXUXUXUXUXUXUXUXUXUXUXUXUXUXUXUXUXUXUXUXUXUXUXUXUXUX",
"UXUXUXUXUXUXUXUXUXUXUXUXUXUXUXUXUXUXUXUXUXUXUXUXUXUXUXUXUXUXUXUXUXUXUXUXUXUXUXUXUXUXUXUXUXUXUXUXUXUXUXUXUXUXUXUXUXUXUXUXUXUXUXUXUXUXUXUXUXUXUXUXUXUXUXUXUXUXUXUX",
"UXUXUXUXUXUXUXUXUXUXUXUXUXUXUXUXUXUXUXUXUXUXUXUXUXUXUXUXUXUXUXUXUXUXUXUXUXUXUXUXUXUXUXUXUXUXUXUXUXUXUXUXUXUXUXUXUXUXUXUXUXUXUXUXUXUXUXUXUXUXUXUXUXUXUXUXUXUXUXUX",
"UXUXUXUXUXUXUXUXUXUXUXUXUXUXUXUXUXUXUXUXUXUXUXUXUXUXUXUXUXUXUXUXUXUXUXUXUXUXUXUXUXUXUXUXUXUXUXUXUXUXUXUXUXUXUXUXUXUXUXUXUXUXUXUXUXUXUXUXUXUXUXUXUXUXUXUXUXUXUXUX",
"UXUXUXUXUXUXUXUXUXUXUXUXUXUXUXUXUXUXUXUXUXUXUXUXUXUXUXUXUXUXUXUXUXUXUXUXUXUXUXUXUXUXUXUXUXUXUXUXUXUXUXUXUXUXUXUXUXUXUXUXUXUXUXUXUXUXUXUXUXUXUXUXUXUXUXUXUXUXUXUX",
"UXUXUXUXUXUXUXUXUXUXUXUXUXUXUXUXUXUXUXUXUXUXUXUXUXUXUXUXUXUXUXUXUXUXUXUXUXUXUXUXUXUXUXUXUXUXUXUXUXUXUXUXUXUXUXUXUXUXUXUXUXUXUXUXUXUXUXUXUXUXUXUXUXUXUXUXUXUXUXUX",
"UXUXUXUXUXUXUXUXUXUXUXUXUXUXUXUXUXUXUXUXUXUXUXUXUXUXUXUXUXUXUXUXUXUXUXUXUXUXUXUXUXUXUXUXUXUXUXUXUXUXUXUXUXUXUXUXUXUXUXUXUXUXUXUXUXUXUXUXUXUXUXUXUXUXUXUXUXUXUXUX",
"UXUXUXUXUXUXUXUXUXUXUXUXUXUXUXUXUXUXUXUXUXUXUXUXUXUXUXUXUXUXUXUXUXUXUXUXUXUXUXUXUXUXUXUXUXUXUXUXUXUXUXUXUXUXUXUXUXUXUXUXUXUXUXUXUXUXUXUXUXUXUXUXUXUXUXUXUXUXUXUX",
"UXUXUXUXUXUXUXUXUXUXUXUXUXUXUXUXUXUXUXUXUXUXUXUXUXUXUXUXUXUXUXUXUXUXUXUXUXUXUXUXUXUXUXUXUXUXUXUXUXUXUXUXUXUXUXUXUXUXUXUXUXUXUXUXUXUXUXUXUXUXUXUXUXUXUXUXUXUXUXUX",
"UXUXUXUXUXUXUXUXUXUXDXDXFXDXUXUXUXUXUXUXUXUXUXUXUXUXUXUXUXUXUXUXUXUXUXUXUXUXUXUXUXUXUXUXUXUXUXUXUXUXUXUXUXUXUXUXUXUXUXUXUXUXUXUXUXUXUXUXUXUXUXUXUXUXUXUXUXUXUXUX",
"UXUXUXUXUXUXUX<.X.<.DXGXHXJXLXIXHXGXUXUXUXUXUXUXUXUXUXUXUXUXUXUXUXUXUXUXUXUXUXUXUXUXUXUXUXUXUXUXUXUXUXUXUXUXUXUXUXUXUXUXUXUXUXUXUXUXUXUXUXUXUXUXUXUXUXUXUXUXUXUX",
"UXUXUXUXUX<.X.X._ X.....<.SXDXHXLXPXLXIXHXUXUXUXUXUXUXUXUXUXUXUXUXUXUXUXUXUXUXUXUXUXUXUXUXUXUXUXUXUXUXUXUXUXUXUXUXUXUXUXUXUXUXUXUXUXUXUXUXUXUXUXUXUXUXUXUXUXUXUX",
"UXUXUXUX..[ [ _ _ ) ) ) G ) G ) ' <.DXJXJXKXJXGXUXUXUXUXUXUXUXUXUXUXUXUXUXUXUXUXUXUXUXUXUXUXUXUXUXUXUXUXUXUXUXUXUXUXUXUXUXUXUXUXUXUXUXUXUXUXUXUXUXUXUXUXUXUXUXUX",
"UXUXUX..[ [ ( ' ) D D D D D ! ! G D D } 1.DXGXJXKXKXHXUXUXUXUXUXUXFXHXKXLXLXLXIXJXUXUXUXUXUXUXUXUXUXUXUXUXUXUXUXUXUXUXUXUXUXUXUXUXUXUXUXUXUXUXUXUXUXUXUXUXUXUXUX",
"UXUX..[ ' ' ` D S Z V Z V Z Z S S S Y S S S ~ ,.2.FXHXGXSXSXFXHXLXPXPXLXLXIXIXIXLXLXPXLXIXGXUXUXUXUXUXUXUXUXUXUXUXUXUXUXUXUXUXUXUXUXUXUXUXUXUXUXUXUXUXUXUXUXUXUX",
"UXUX .[ ( S C > , @ @ @ @ @ , , > > V C V A V A Z ' 2.SXSXFXFXSXSX2... . . .X.........SXSXDXSX<.<.UXUXUXUXUXUXUXUXUXUXUXUXUXUXUXUXUXUXUXUXUXUXUXUXUXUXUXUXUXUXUX",
"UX3._ ) F & , q x S.F.G.G.G.S.x k @ + $ = = # % ( _ X._ X. .[ ` ( ) ( ( ( ( ( ( _ ) ' _ [ [ [ [ [ X.X.2.UXUXUXUXUXUXUXUXUXUXUXUXUXUXUXUXUXUXUXUXUXUXUXUXUXUXUXUX",
"UX{ ' D * $ k H.,XaXaXaXaXrXrX;X-XF.V.z w X B ( [ [ _ _ ` ` ` ` ( D D D D D D D ( D ( ( ` ` ` ' ( _ _  ...2.UXUXUXUXUXUXUXUXUXUXUXUXUXUXUXUXUXUXUXUXUXUXUXUXUXUX",
"UX{ ) F $ w H.3X5XpXpXpX,XrXJ.F.C.V.V.x n ^ _ _ [ ( ` ( ` ( R D D Y T Q Q &.&.&.&.&.Q W T R D ( ( ( ) _ _ [ ..UXUXUXUXUXUXUXUXUXUXUXUXUXUXUXUXUXUXUXUXUXUXUXUXUX",
"UX{ ) A $ z :X0XsXpXpX3XJ.V.r 5 O 5 5 - Y _ _ _ ` ` ( D D Y W +.-.oX+X+X&X&X%X&X&X@X+X+XoX=.+.Q R D ( ) _ _ [ X.2.UXUXUXUXUXUXUXUXUXUXUXUXUXUXUXUXUXUXUXUXUXUXUX",
"UX,.' A $ x :XpX0XpX3XJ.l 5 O 4 5 4 : F _ _ ` ` ` D D E o.;.oX@X%X*X*X*X=X=X#X#X#X#X#X$X$XM.c.9.;.o.Y D ( ( ( [ [ ..UXUXUXUXUXUXUXUXUXUXUXUXUXUXUXUXUXUXUXUXUXUX",
"UX,.' F $ k :X0XfXpX:XN.5 4 7 8 j y H [ [ ` ( ` D Y @.g f.OX$X#X$X$XM.b.b.b.b.b.b.b.b.b.M.M.M.M.c.s.oX+.R D ( ` ' [ ..UXUXUXUXUXUXUXUXUXUXUXUXUXUXUXUXUXUXUXUXUX",
"UXUX} F & e -XpX0XpXK.0 O 7 d d f W ( [ ` ( ( F K g d.m.M.M.M.M.x.`.[..XtXuXyXiXuX X|.`.).b.b.b.m.m.m.f.:.L D D ) ) [  .UXUXUXUXUXUXUXUXUXUXUXUXUXUXUXUXUXUXUXUX",
"UXUX} D A @ F.pXfX3XB.5 4 d d d P ( [ ( ( D Y o.9.c.m.m.m.).}.iXfXmXNXVXCXCXZXZXVXVXNXbXlX4XXX`.b.m.m.m.m.9.#.R G ) ) '  .2.UXUXUXUXUXUXUXUXUXUXUXUXUXUXUXUXUXUX",
"UXUX,.' A $ x ,XfX,XC.O 6 d w.p E ` ( ` D Y @.s.c.m.n.). X0XnXBXZXAXAXAXZXZXVXVXVXBXBXMXnXnXxXwX4X[.n.n.b.m.d.#.Y D ) ) ' [ UXUXUXUXUXUXUXUXUXUXUXUXUXUXUXUXUXUX",
"UXUXUX] D * w J.fX3XB.5 4 8 d P ' ` ( D Y o.p.b.b.b.[.0XxXnXnXMXMXMXMXnXbXvXvXvXcXvXxXxXvXvXvXvXcXcXpX[.'.n.b.f.$.Y D ( ' '  .UXUXUXUXUXUXUXUXUXUXUXUXUXUXUXUXUX",
"UXUXUX{ ' N , V.,X4XD.0 4 8 j T ' ( ` D K 9.c.b.x. XqXvXnXxXxXxXcXcXcXvXcXcXvXcXcXcXwXxXxXxXcXvXvXvXvXkXyX).v.b.d.#.Y D ( ' '  .UXUXUXUXUXUXUXUXUXUXUXUXUXUXUXUX",
"UXUXUX,.} F & w -XpX^.r 5 7 p R ' _ ( E :.k.c.n./.wXvXvXxXxXxXcXcXcXcXkXcXcXkXkXxXkXwXxXwXxXkXcXxXcXvXvXvXpX`.v.c.s.+.D D ` ` } 3.UXUXUXUXUXUXUXUXUXUXUXUXUXUXUX",
"UXUXUXUX] ) B , V.,X>XN.6 4 ; ! ` ( D o.p.n.v.[.wXcXcXcXcXcXxXwXkXkXkXwXwXjXwXjXqXjXwXqXkXkXkXkXkXcXcXcXcXcXfX`.k.c.9.Q D D ' ' }  .1.UXUXUXUXUXUXUXUXUXUXUXUXUX",
"UXUXUXUXUX} F % w H.,XK.r 4 : ' ( D Y f k.v.(.5XcXcXcXcXkXwXwXkXkXkXjXqXjXqXjXjXjXhXjXjXjXjXjXkXkXkXkXkXcXcXcXfX_.v.v.g E D D ' ' ' ) } ..UXUXUXUXUXUXUXUXUXUXUX",
"UXUXUXUXUX{ ! A $ z ;X;XN.6 ; ) ` D J 7.v.k.[.jXkXkXkXkXkXwXwXqXjXjXhXhXhXhXhXhXhXhX9XhXhX9XjXjXjXjXjXkXkXkXcXkXuX'.b.f.#.R D ' ) ! S G ' [  .1.UXUXUXUXUXUXUXUX",
"UXUXUXUXUXUX] S % , V.;XD.r - R ( D K 9.v.k. XjXkXkXjXkXkXqXjXjXhX9XhXhXhXhX8XhXhXhXhXhXhXhXhXhXjXjXjXjXjXkXkXkXjX}.v.k.6.T D D ' ' S S D ) ' [  ...UXUXUXUXUXUX",
"UXUXUXUXUXUXUX' F % @ F.J.N.q Y R D L 8.v.l.yXjXjXjXjXjXjXqXjXhX9XhXgXhXhXhXgXgXhXgXhXgXhXhXhXhXhXqXjXjXjXjXkXkXkXfX_.v.d.+.R ` ) G S Z S S G ) ' [  .UXUXUXUXUX",
"UXUXUXUXUXUXUX,.D B # k H.D.e ^ ` D K 7.k.l.2XhXjXjXjXjXhXqXhXhXhXhXgXgXgXgXgXgXgXgXgXhXgXhX8XhXhXhXhXjXjXjXjXjXkXjX.Xk.k.=.Y D ) ) Z < H S D D ) ) [ [ UXUXUXUX",
"UXUXUXUXUXUXUXUX,.S B = z F.c 2 R D K 6.k.j.|.hXhXjXjXjXjXhXhXhXgXhXhXgXgXgXgXgXgXgXgXgXgX9XhXhXhXhXhXjXhXjXjXjXlXkXpX(.v.7.W ` ) D 4.m b U S D D ' ) ) [ UXUXUX",
"UXUXUXUXUXUXUXUXUX' F % X x S.a R D E f k.j.].gXhXhXhXhXhXhXhX9XgXgXgX8X5X5X5X5X5XgXgXgXgXgXhX8XhX9XhXhX9XjXhXjXjXjXgX{.k.s.L R ) ( 4.-X;XY.a S R D ( ' ' { UXUX",
"UXUXUXUXUXUXUXUXUXUX' A # + V.x ^ ! S #.s.j.P.iXhXhXhXhXhXhXgXgXgX8X1X/.!.Q.Q.^.2X6X5XgXgX8XhXhXhXhXhXhXhXjXjXjXjXjXhX.Xk.h.+.D ` ` *.G.,XpXR.v Y R D ' ( } UXUX",
"UXUXUXUXUXUXUXUXUXUX,.^ B # @ x v ! D J h j.t.].fXhXgXgXgXgX8X6X1X!.Z.L.t.r.t.y.Z.W.1XsXgXgXgXhXhXhXhXhXhXhXhXhXhXjXhXuXl.f.+.R ` R 1 l ;XfXfXR.U D D ( ( ' { UX",
"UXUXUXUXUXUXUXUXUXUXUX,.D %   @ n ^ ! S @.9.d.u.].2X5X5X6X1X~.Q.L.y.r.p.a.a.a.r.a.y.W.6XgXgXhXhXhXhXhXhXjXhXhXjXjXjXjXuX'.s.+.D ` R y 6 S.pXgXpXM Y D ' ' ) ] UX",
"UXUXUXUXUXUXUXUXUXUXUXUX] F % . @ a ^ D Y #.9.s.h.L.U.W._.Z.y.y.r.p.p.g.r.a.a.r.g.t.y.~.5XgXhX9XhXhXhXhXjXhXjXhXhXhXlXuXP.s.L D R T p 7 z.eXgXgXT.H R ( ` ` } UX",
"UXUXUXUXUXUXUXUXUXUXUXUXUX,.Z # . @ U G S H L g 7.5.5.5.e.p.a.e.r.r.a.a.g.r.r.j.g.a.u.!.8XgXhXhXhXhXhXjXhXjXhXhXhXjXhXuXv.7.W D D W g 8 t >XgXhX-XI ( G R ' ] UX",
"UXUXUXUXUXUXUXUXUXUXUXUXUXUX! V # . @ U R S Z H P 1 y 8 5.e.p.p.p.r.a.a.d.j.d.j.j.j.L.2X8XhXhXhXjXhXhX9XhXjXhXjXhXhXhX.Xl.=.Y G D o.w.9 N.,XhXgXT.Y G ) ' ! } UX",
"UXUXUXUXUXUXUXUXUXUXUXUXUXUXUX] >   o + 2 ^ S S C H , 8 5.5.r.t.t.e.r.p.a.r.j.r.j.i.!.6XhXhXqXhXqXhXjXhXhXhXhXhXhXjXgX{.h.%.R ! E f w.9 D.sXgXpXM S G G R ' UXUX",
"UXUXUXUXUXUXUXUXUXUXUXUXUXUXUXUXG *   o + < Z S Z P j 5.5.L.K.Q.Q.Q.Z.Z.i.i.i.i.(.^.6X9XjXhXjX9XjXjXhXjXhXjXhXhXhXhXdX_.7.W D R o.d 9 t ;XgXgXR.U D ) D ' ] UXUX",
"UXUXUXUXUXUXUXUXUXUXUXUXUXUXUXUXUXY *   o X C Y H p 5.g.P.>X6XjXlX0X<X1X/.^.|.tXzXgX9XqXjXjXjXjXhXjXhXqXjXhXhXhXgXhXtXg.$.Y ! E p 8 t D.sX8XrX4.D ( ( D ' UXUXUX",
"UXUXUXUXUXUXUXUXUXUXUXUXUXUXUXUXUXUX^ & % A Z S H f a.u.~.9XqXjXqXjXqXqX9X9XlXmXmXjXjXjXqXjXjXjXjXjXjXhXhXhXhXhXlXsX_.0./ ! D o.8 6 B.4XgX;Xv D ( D ! ' UXUXUXUX",
"UXUXUXUXUXUXUXUXUXUXUXUXUXUXUXUXUXUX| R D S Y S H f a.u.tXqXjXqXqXqXkXjXqXqXkXkXjXjXqXkXwXjXkXjXjXjXhXhXhXhXhXhXgX}.h.+.D D J 7 6 B.>XpXT.*.Y G ! ! ' | UXUXUXUX",
"UXUXUXUXUXUXUXUXUXUXUXUXUXUXUXUXUXUX] ' D D D S C i 5.u.eXjXjXjXjXjXjXjXjXqXjXqXjXkXkXqXwXwXjXjXjXjXhXhXhXgXhXgX.Xh.%.! D Z - 0 C.:XrXY.U ( ! ! ! ' UXUXUXUXUXUX",
"UXUXUXUXUXUXUXUXUXUXUXUXUXUXUXUXUXUX} ` D D Y H C < d r.].5XhXhXhXhX9XjXjXqXjXqXjXjXkXkXjXkXjXjXhXhXhXgXhXgXgX}.I.#.Y R H - r S.;XT.b H D G ! ! ] UXUXUXUXUXUXUX",
"UXUXUXUXUXUXUXUXUXUXUXUXUXUXUXUXUXUX} R D Y J P 1 y u e.u.!.1X8XhXhXhXhXhXjXjXjXjXkXjXjXlXjXjXhXhXhXgXgXsXuX_.0.+.Y Y < q l H.G.M 2 Y D D ! ' ] UXUXUXUXUXUXUXUX",
"UXUXUXUXUXUXUXUXUXUXUXUXUXUXUXUXUXUX] R D K g 5.p.8.r.h.a.r.Z.!.1X5X8XgXhXhXhXhXjXjXjXjXjXjXjXhXgXsXiX|._.h.>.W D H a z S.F.m a C D R ! ' ] UXUXUXUXUXUXUXUXUXUX",
"UXUXUXUXUXUXUXUXUXUXUXUXUXUXUXUXUXUXUX` F #.h.v.v.'.(.u.r.e.e.t.P.W.~.2X6X8XhXhXhXhXhXhXhXjXgXgXgXtXU.h.;.O.Y ^ U n V.V.n 3 V A D R ! ' ] UXUXUXUXUXUXUXUXUXUXUX",
"UXUXUXUXUXUXUXUXUXUXUXUXUXUXUXUXUXUXUX] D #.s.k.l.~.iX2XW.t.r.r.a.e.t.L.W.7X6X8XgXhXhXhXhXhXhXgXgXtXu.7.J S S b z z s 3 > C D D ! ' ] UXUXUXUXUXUXUXUXUXUXUXUXUX",
"UXUXUXUXUXUXUXUXUXUXUXUXUXUXUXUXUXUXUX{ ! L h.j.(.fXbXjX7X^.L.r.r.r.e.e.L.^.6X8XgXhXgXhXhXhXhXhXhXpX(.6.J D Z , + < * C D D R ! ] UXUXUXUXUXUXUXUXUXUXUXUXUXUXUX",
"UXUXUXUXUXUXUXUXUXUXUXUXUXUXUXUXUXUXUXUX] T h j.(.iXkXkX9X<X^.W.r.r.r.e.U.2X5XgXgXgXhXhXhXhXhXhXhXsX(.6.I ! Z > V Z S R R ] ] UXUXUXUXUXUXUXUXUXUXUXUXUXUXUXUXUX",
"UXUXUXUXUXUXUXUXUXUXUXUXUXUXUXUXUXUXUXUXUX! +.s.j.{.0XqXqXqX0X7X^.Z.i.Z.~.sXhX8XgXhXhXhXhXhXhXhXhXdXU.=.Y ! S Z S R ! ] UXUXUXUXUXUXUXUXUXUXUXUXUXUXUXUXUXUXUXUX",
"UXUXUXUXUXUXUXUXUXUXUXUXUXUXUXUXUXUXUXUXUXUX^ -.h.u.|.gXhXjXjXqX6X<X1XzXlXjXhXjXhXhXhXhXhXhXhXjXgX}.oXO.! ! Y ~ ~ ] UXUXUXUXUXUXUXUXUXUXUXUXUXUXUXUXUXUXUXUXUXUX",
"UXUXUXUXUXUXUXUXUXUXUXUXUXUXUXUXUXUXUXUXUXUXUX/ >.8.u.{.dXhXjXjXqXjXkXNXmXkXjXjXjXjXhXhXhXhXhXgXtXI.%.R ! ] UXUXUXUXUXUXUXUXUXUXUXUXUXUXUXUXUXUXUXUXUXUXUXUXUXUX",
"UXUXUXUXUXUXUXUXUXUXUXUXUXUXUXUXUXUXUXUXUXUXUXUX~ %.0.h._.uXsXhXjXjXjXjXjXjXqXjXlXjXjXhXhXgXdX{.q.%.R ! ] UXUXUXUXUXUXUXUXUXUXUXUXUXUXUXUXUXUXUXUXUXUXUXUXUXUXUX",
"UXUXUXUXUXUXUXUXUXUXUXUXUXUXUXUXUXUXUXUXUXUXUXUXUX~ &.-.0.h._.}.yXdXfXgXgXhXhXhXgXgXsXdXuX{.I.>.Q Y ! | UXUXUXUXUXUXUXUXUXUXUXUXUXUXUXUXUXUXUXUXUXUXUXUXUXUXUXUX",
"UXUXUXUXUXUXUXUXUXUXUXUXUXUXUXUXUXUXUXUXUXUXUXUXUXUXUX~ Q %.;.0.I._._.{.{.}.}.}.{.]._.U.E.>.O.Y ! ~ UXUXUXUXUXUXUXUXUXUXUXUXUXUXUXUXUXUXUXUXUXUXUXUXUXUXUXUXUXUX",
"UXUXUXUXUXUXUXUXUXUXUXUXUXUXUXUXUXUXUXUXUXUXUXUXUXUXUXUXUX~ ~ &.+.$.-.;.g oX0.0.:.;.$.&.W Y ! ] UXUXUXUXUXUXUXUXUXUXUXUXUXUXUXUXUXUXUXUXUXUXUXUXUXUXUXUXUXUXUXUX",
"UXUXUXUXUXUXUXUXUXUXUXUXUXUXUXUXUXUXUXUXUXUXUXUXUXUXUXUXUXUXUXUX] ~ ~ ~ E E T T ^ ^ ~ ' ] UXUXUXUXUXUXUXUXUXUXUXUXUXUXUXUXUXUXUXUXUXUXUXUXUXUXUXUXUXUXUXUXUXUXUX",
"UXUXUXUXUXUXUXUXUXUXUXUXUXUXUXUXUXUXUXUXUXUXUXUXUXUXUXUXUXUXUXUXUXUXUXUXUXUX! UXUXUXUXUXUXUXUXUXUXUXUXUXUXUXUXUXUXUXUXUXUXUXUXUXUXUXUXUXUXUXUXUXUXUXUXUXUXUXUXUX",
"UXUXUXUXUXUXUXUXUXUXUXUXUXUXUXUXUXUXUXUXUXUXUXUXUXUXUXUXUXUXUXUXUXUXUXUXUXUXUXUXUXUXUXUXUXUXUXUXUXUXUXUXUXUXUXUXUXUXUXUXUXUXUXUXUXUXUXUXUXUXUXUXUXUXUXUXUXUXUXUX",
"UXUXUXUXUXUXUXUXUXUXUXUXUXUXUXUXUXUXUXUXUXUXUXUXUXUXUXUXUXUXUXUXUXUXUXUXUXUXUXUXUXUXUXUXUXUXUXUXUXUXUXUXUXUXUXUXUXUXUXUXUXUXUXUXUXUXUXUXUXUXUXUXUXUXUXUXUXUXUXUX",
"UXUXUXUXUXUXUXUXUXUXUXUXUXUXUXUXUXUXUXUXUXUXUXUXUXUXUXUXUXUXUXUXUXUXUXUXUXUXUXUXUXUXUXUXUXUXUXUXUXUXUXUXUXUXUXUXUXUXUXUXUXUXUXUXUXUXUXUXUXUXUXUXUXUXUXUXUXUXUXUX",
"UXUXUXUXUXUXUXUXUXUXUXUXUXUXUXUXUXUXUXUXUXUXUXUXUXUXUXUXUXUXUXUXUXUXUXUXUXUXUXUXUXUXUXUXUXUXUXUXUXUXUXUXUXUXUXUXUXUXUXUXUXUXUXUXUXUXUXUXUXUXUXUXUXUXUXUXUXUXUXUX",
"UXUXUXUXUXUXUXUXUXUXUXUXUXUXUXUXUXUXUXUXUXUXUXUXUXUXUXUXUXUXUXUXUXUXUXUXUXUXUXUXUXUXUXUXUXUXUXUXUXUXUXUXUXUXUXUXUXUXUXUXUXUXUXUXUXUXUXUXUXUXUXUXUXUXUXUXUXUXUXUX",
"UXUXUXUXUXUXUXUXUXUXUXUXUXUXUXUXUXUXUXUXUXUXUXUXUXUXUXUXUXUXUXUXUXUXUXUXUXUXUXUXUXUXUXUXUXUXUXUXUXUXUXUXUXUXUXUXUXUXUXUXUXUXUXUXUXUXUXUXUXUXUXUXUXUXUXUXUXUXUXUX",
"UXUXUXUXUXUXUXUXUXUXUXUXUXUXUXUXUXUXUXUXUXUXUXUXUXUXUXUXUXUXUXUXUXUXUXUXUXUXUXUXUXUXUXUXUXUXUXUXUXUXUXUXUXUXUXUXUXUXUXUXUXUXUXUXUXUXUXUXUXUXUXUXUXUXUXUXUXUXUXUX",
"UXUXUXUXUXUXUXUXUXUXUXUXUXUXUXUXUXUXUXUXUXUXUXUXUXUXUXUXUXUXUXUXUXUXUXUXUXUXUXUXUXUXUXUXUXUXUXUXUXUXUXUXUXUXUXUXUXUXUXUXUXUXUXUXUXUXUXUXUXUXUXUXUXUXUXUXUXUXUXUX",
"UXUXUXUXUXUXUXUXUXUXUXUXUXUXUXUXUXUXUXUXUXUXUXUXUXUXUXUXUXUXUXUXUXUXUXUXUXUXUXUXUXUXUXUXUXUXUXUXUXUXUXUXUXUXUXUXUXUXUXUXUXUXUXUXUXUXUXUXUXUXUXUXUXUXUXUXUXUXUXUX",
"UXUXUXUXUXUXUXUXUXUXUXUXUXUXUXUXUXUXUXUXUXUXUXUXUXUXUXUXUXUXUXUXUXUXUXUXUXUXUXUXUXUXUXUXUXUXUXUXUXUXUXUXUXUXUXUXUXUXUXUXUXUXUXUXUXUXUXUXUXUXUXUXUXUXUXUXUXUXUXUX",
"UXUXUXUXUXUXUXUXUXUXUXUXUXUXUXUXUXUXUXUXUXUXUXUXUXUXUXUXUXUXUXUXUXUXUXUXUXUXUXUXUXUXUXUXUXUXUXUXUXUXUXUXUXUXUXUXUXUXUXUXUXUXUXUXUXUXUXUXUXUXUXUXUXUXUXUXUXUXUXUX",
"UXUXUXUXUXUXUXUXUXUXUXUXUXUXUXUXUXUXUXUXUXUXUXUXUXUXUXUXUXUXUXUXUXUXUXUXUXUXUXUXUXUXUXUXUXUXUXUXUXUXUXUXUXUXUXUXUXUXUXUXUXUXUXUXUXUXUXUXUXUXUXUXUXUXUXUXUXUXUXUX"
};
