/* XPM */
static char * karo_king_xpm[] = {
"54 72 8 1",
" 	c #008000",
".	c #000000",
"+	c #808080",
"@	c #FFFFFF",
"#	c #FF0000",
"$	c #FFFF00",
"%	c #FF00FF",
"&	c #0000FF",
" ................................................... .",
".@@@@@@@@@@@@@@@@@@@@@@@@@@@@@@@@@@@@@@@@@@@@@@@@@@@..",
".@@@@@@@@@@@@@@@@@@@@@@@@@@@@@@@@@@@@@@@@@@@@@@@@@@@..",
".###@###@@@@@@@@@@@@@@@@@@@@@@@@@@@@@@@@@@@@@@@@@@@@..",
".@##@##@@@@@@@@@@@@@@@@@@@@@@@@@@@@@@@@@@@@@@@@@@@@@..",
".@####@@@@@@@@@@@@@@@@@@@@@@@@@@@@@@@@@@@@@@@@@@@@@@..",
".@###@@@@@@@@@@@@@@@@@@@@@@@@@@@@@@@@@@@@@@@@@@@@@@@..",
".@###@@@@@@@@@@@@@@@@@@@@@@@@@@@@@@@@@@@@@@@@@@@@@@@..",
".@####@@@...................................@@@@@@@@..",
".@##@##@@.@@@@@@@@@.$$$.$$.$$$$$$$$$$@@@@@@.@@@@@@@@..",
".###@###@.@@@@##@@@@@.######...$.$$.@@.$@@..@@@@@@@@..",
".###@###@.@@@####@@@@.......###.....@.$$@@..@@@@@@@@..",
".@@@@@@@@.@@@####%@@@@.........###.@@.$$@@..@@@@@@@@..",
".@@@#@@@@.@@%#####%@@@@..@@..@.....@@$.@#@#.@@@@@@@@..",
".@@@##@@@.@########@@@..@@@..@..@..@@.@@#@#.@@@@@@@@..",
".@@%##%@@.##########@@@@@@@..@..@..@@$.@.@..@@@@@@@@..",
".@#####@@.@@%#####%@.@@@@@@..@..@..@@.$$@@..@@@@@@@@..",
".@%####@@.@@%#####%@..@@@@@@@.@@.@@.@.$$@@..@@@@@@@@..",
".@@%##%@@.@@@####%@@@@....@@@.@@.@@.@@.$@@..@@@@@@@@..",
".@@@#@@@@.@@@@##@@@@@@..@@@@@.@@.@@.@@@@@@..@@@@@@@@..",
".@@@@@@@@.@@@@@#@@@@@@@@@@@..@@@.@@.@@@@@@..@@@@@@@@..",
".@@@@@@@@.@..@@@@@@@@@.@@@.@@.@@.@@.@@@@@@..@@@@@@@@..",
".@@@@@@@@...@@.@@@@@..@@@@..@@..@..@.@@@@@..@@@@@@@@..",
".@@@@@@@@..@..@..@@@@@@@@@@............@@@..@@@@@@@@..",
".@@@@@@@@.@.@@@@@...@@@@......$.@@.$$@@.....@@@@@@@@..",
".@@@@@@@@.@.@....##.$..##.....@$$..@.$.@.$$.@@@@@@@@..",
".@@@@@@@@.@@.#...##..$#.#...............@.$.@@@@@@@@..",
".@@@@@@@@...####$....$##...$$$$$$$$$$.......@@@@@@@@..",
".@@@@@@@@.###.$$$.$##....@@@@@@@@@@@..##.@@.@@@@@@@@..",
".@@@@@@@@.#..$$$.......@@.........@.$$.#..@.@@@@@@@@..",
".@@@@@@@@..$$$......@..@.$$$$$$$$..$.#$.#...@@@@@@@@..",
".@@@@@@@@.$$...@@..$...$...###..@@$..$.#.##.@@@@@@@@..",
".@@@@@@@@.$.#...@@.$..$..#####..@....$......@@@@@@@@..",
".@@@@@@@@..#.#..@@.$..$.......$@@.....#$#$..@@@@@@@@..",
".@@@@@@@@.#$$.##..@.$.$......$.@.$.##.#.....@@@@@@@@..",
".@@@@@@@@.#.#$#........$.@@@.$........#$#.#.@@@@@@@@..",
".@@@@@@@@.##....##.$.@.$.@@@.$..$....#.#$#..@@@@@@@@..",
".@@@@@@@@..$#$#....$.@.######.$.$..@..###$$.@@@@@@@@..",
".@@@@@@@@..$#$#.....@@........$..$.@@..#.#..@@@@@@@@..",
".@@@@@@@@......$....@..#####..$..$.@@...#.$.@@@@@@@@..",
".@@@@@@@@..##$#.$.$@.$......$.......@...$$$.@@@@@@@@..",
".@@@@@@@@...#.$#.$..$$$$$$$$...........$$$..@@@@@@@@..",
".@@@@@@@@.@..#.$$.@.........@@.......$$$..#.@@@@@@@@..",
".@@@@@@@@......$@@..@..@..@.##..##.$...####.@@@@@@@@..",
".@@@@@@@@.......$$$$$$$$$$...##$....$####...@@@@@@@@..",
".@@@@@@@@.$.@...............#.#$..##...#.@@.@@@@@@@@..",
".@@@@@@@@..$$@@.$..@.$..@........$...@@@....@@@@@@@@..",
".@@@@@@@@.....@@$$.@@.$......@@@@...@@@@@.@.@@@@@@@@..",
".@@@@@@@@..@@@............@@@@@@@@@@..@..@..@@@@@@@@..",
".@@@@@@@@..@@@@@@.@@.@@@.@.@@@@@..@@@....@..@@@@@@@@..",
".@@@@@@@@..@@@@@@.@@.@@.@@.@@@.@@@@@@@@@..@.@@@@@@@@..",
".@@@@@@@@..@@@@@@.@@.@@@..@@@@@@@@@@@#@@@@@.@@@@@@@@..",
".@@@@@@@@..@..@@.@..@..@.@@..@@@@@@@####@@@.@@@##@@@..",
".@@@@@@@@..@@$.@@.@@.@@.@@@....@@@@%####@@@.@@%##%@@..",
".@@@@@@@@..@@$$.@.@@.@@.@@@@@@@..@%#####%@@.@@####%@..",
".@@@@@@@@.....$$@@..@..@..@@@@@.@@########@.@@####%@..",
".@@@@@@@@..@.@.$@@..@..@..@@@@@@@##########.@@%##%@@..",
".@@@@@@@@.#@#@@.@@..@..@..@@@..@@@########@.@@@##@@@..",
".@@@@@@@@.....$$@@......@.@@@@@@@@%#####%@@.@@@@@@@@..",
".@@@@@@@@..@@$$.@@.###.........@@@@%####@@@.@@@@@@@@..",
".@@@@@@@@..@@$$.@.....###.......@@@@####@@@.@###@###..",
".@@@@@@@@.@@..@@.$$$$$$.$......$.@@@@#@@@@@.@@#@@##@..",
".@@@@@@@@.@@@@@@$$$$$$$$$$.$$.$$$.@@@@@@@@@.@@##@##@..",
".@@@@@@@@...................................@@@####@..",
".@@@@@@@@@@@@@@@@@@@@@@@@@@@@@@@@@@@@@@@@@@@@@@@@##@..",
".@@@@@@@@@@@@@@@@@@@@@@@@@@@@@@@@@@@@@@@@@@@@@@@###@..",
".@@@@@@@@@@@@@@@@@@@@@@@@@@@@@@@@@@@@@@@@@@@@@@####@..",
".@@@@@@@@@@@@@@@@@@@@@@@@@@@@@@@@@@@@@@@@@@@@###@###..",
".@@@@@@@@@@@@@@@@@@@@@@@@@@@@@@@@@@@@@@@@@@@@###@###..",
".@@@@@@@@@@@@@@@@@@@@@@@@@@@@@@@@@@@@@@@@@@@@@@@@@@@..",
".@@@@@@@@@@@@@@@@@@@@@@@@@@@@@@@@@@@@@@@@@@@@@@@@@@@. ",
" ................................................... ."};
