/* XPM */
static char * buttonstrenner_xpm[] = {
"1 16 13 1",
" 	c #848484",
".	c #D6D6D6",
"+	c #FCFBFB",
"@	c #C4C4C4",
"#	c #BCBCBC",
"$	c #BFBFBF",
"%	c #CCCCCC",
"&	c #D4D4D4",
"*	c #DDDDDD",
"=	c #E6E6E6",
"-	c #EEEEEE",
";	c #F6F6F6",
">	c #FFFFFF",
" ",
".",
"+",
"@",
"#",
"$",
"@",
"%",
"&",
"*",
"=",
"-",
";",
"+",
">",
">"};
